<svg version="1.2" baseProfile="tiny-ps" xmlns="http://www.w3.org/2000/svg" viewBox="0 0 360 216" width="360" height="216">
	<title>Flag_of_Lorraine</title>
	<style>
		tspan { white-space:pre }
		.shp0 { fill: #ffd700 } 
		.shp1 { fill: #c4001a } 
		.shp2 { fill: #ffffff } 
	</style>
	<path id="Layer" class="shp0" d="M0 0L360 0L360 216L0 216L0 0Z"/>
	<path id="Layer" class="shp1" d="M0 42L0 0L70 0L360 174L360 216L290 216L0 42Z"/>
	<g id="bird">
		<path id="Layer" fill-rule="evenodd" class="shp2" d="M189.42 82.05C190.18 82.11 190.21 82.12 190.18 82.25C190.14 82.4 189.63 83.3 189.34 83.72C189 84.22 188.46 84.72 187.79 85.16C186.83 85.78 186.68 85.89 186.62 86C186.58 86.09 186.59 86.12 186.67 86.18C186.84 86.32 188.12 86.57 189.21 86.66C190.58 86.79 191.75 86.63 194.95 85.91C196 85.67 196.28 85.62 196.31 85.66C196.37 85.74 196.31 86.72 196.23 87.13C195.95 88.45 195.11 89.53 193.34 90.82C193.05 91.03 192.83 91.22 192.85 91.24C192.9 91.28 195.56 91.81 196.26 91.92C197.17 92.05 197.71 92.08 199.29 92.08C200.77 92.08 201.57 92.03 203.86 91.82C204.06 91.8 204.11 91.8 204.11 91.85C204.11 91.93 203.73 92.53 203.28 93.17C202.82 93.81 201.94 94.71 201.28 95.21C199.86 96.27 198.58 96.77 196.27 97.16C196.05 97.2 195.87 97.25 195.89 97.26C195.93 97.3 197.04 97.63 197.74 97.8C199.28 98.19 200.08 98.28 202.26 98.3C204.05 98.32 204.56 98.3 206.31 98.14C206.83 98.1 207.28 98.07 207.29 98.08C207.32 98.11 206.99 98.53 206.55 99.03C205.48 100.23 204.01 100.95 201.72 101.42C198.61 102.06 193.59 102.32 190.56 102.01C189.55 101.9 188.79 101.76 187.71 101.47C187.38 101.38 187.09 101.31 187.07 101.31C186.96 101.31 187.63 102.06 188 102.36C188.32 102.62 190.04 103.88 190.12 103.91C190.16 103.92 190.16 103.94 190.14 103.97C190.07 104.04 189.59 104.09 188.45 104.14C186.18 104.24 184.55 103.98 183.24 103.33C182.9 103.16 182.39 102.83 181.86 102.43C181.62 102.26 181.42 102.11 181.4 102.11C181.37 102.11 181.68 102.73 181.97 103.23C182.72 104.54 184.14 105.95 185.27 106.52C185.73 106.76 186.42 106.98 186.94 107.07C187.48 107.16 187.43 107.18 187.77 106.72C188.13 106.22 188.75 105.57 189.09 105.33C189.38 105.12 189.78 104.92 190.08 104.84C190.38 104.76 191.37 104.77 191.86 104.85C192.62 104.98 193.48 105.33 193.94 105.71C194.23 105.94 194.46 106.24 194.68 106.64L194.85 106.95L194.53 107C193.78 107.11 193.43 107.47 193.3 108.25C193.23 108.65 193.42 109.38 193.65 109.63C193.77 109.77 194.04 109.89 194.58 110.08C195.2 110.29 195.31 110.35 195.33 110.53C195.34 110.65 195.31 110.69 195.07 110.92C194.93 111.05 194.63 111.29 194.4 111.43C194.01 111.69 193.84 111.87 193.78 112.09C193.76 112.16 193.77 112.19 193.83 112.22C193.92 112.27 193.91 112.27 196.28 112.46C197.89 112.59 198.32 112.61 199.44 112.61C200.9 112.61 201.27 112.57 202.07 112.37C203.06 112.11 203.82 111.81 204.52 111.41C206.36 110.33 207.56 109.9 208.56 109.98C210.38 110.13 212.46 111.63 212.9 113.12C212.94 113.24 212.98 113.49 212.99 113.68C213.02 114.03 212.95 114.89 212.89 114.95C212.88 114.97 212.79 114.93 212.7 114.87C211.26 113.87 210.54 113.55 209.53 113.43C208.71 113.34 208.39 113.44 207.16 114.17C205.79 114.99 205.24 115.24 204.29 115.48C203.33 115.74 202.14 115.91 200.29 116.07C199.73 116.12 199.27 116.17 199.26 116.18C199.22 116.22 199.93 116.79 200.39 117.09C201.28 117.67 202.2 117.97 203.71 118.19C204.47 118.3 205.15 118.33 206.59 118.33C208.48 118.33 208.96 118.29 210.68 117.97C211.15 117.88 211.53 117.82 211.55 117.82C211.58 117.87 211.49 118.04 211.18 118.51C210.27 119.88 209.63 120.49 208.51 121.02C207.22 121.64 205.75 121.89 203.04 121.96C202.51 121.97 202.03 121.99 201.98 122C201.89 122.02 201.9 122.04 202.14 122.35C202.49 122.81 203.19 123.53 203.48 123.73C204.47 124.43 205.87 124.68 207.68 124.46C208.01 124.43 208.31 124.41 208.35 124.42C208.46 124.46 208.39 125.03 208.24 125.35C208 125.85 207.55 126.35 207.12 126.59L206.91 126.71L207.21 127.06C207.55 127.45 207.86 128.03 208.07 128.62C208.2 129.01 208.28 129.56 208.28 130.21L208.28 130.58L207.82 130.67C207.17 130.79 206.77 130.81 206.31 130.75C205.55 130.66 204.92 130.39 204.12 129.83C203.89 129.67 203.68 129.54 203.66 129.55C203.64 129.56 203.52 129.7 203.39 129.86C202.96 130.42 202.47 130.66 201.7 130.7L201.25 130.72L201.22 130.28C201.21 130.04 201.16 129.56 201.12 129.22C200.93 127.8 200.75 127.27 200.19 126.6C199.94 126.3 198.74 125.17 198.67 125.17C198.64 125.17 198.61 125.43 198.57 125.89C198.44 127.9 198.26 128.95 197.91 129.77C197.48 130.79 196.72 131.55 195.73 131.97C195.2 132.18 193.76 132.55 193.69 132.48C193.67 132.46 193.76 132.28 193.89 132.06C194.76 130.51 195.02 129.63 195.13 127.86C195.2 126.77 195.08 124.96 194.86 123.93C194.67 122.96 194.34 122.23 193.89 121.73C193.67 121.5 193.63 121.54 193.63 122.02C193.63 122.4 193.54 123.35 193.47 123.65C193.36 124.19 192.9 124.91 192.08 125.86C191.18 126.91 190.67 127.76 190.5 128.54C190.37 129.11 190.48 130.01 190.76 130.66C191.02 131.29 191.51 131.96 191.85 132.18L191.95 132.24L191.86 132.29C191.71 132.37 191.37 132.42 190.92 132.42C190.54 132.42 190.46 132.4 190.07 132.27C189.56 132.09 188.69 131.67 188.29 131.42C187.81 131.11 187.38 130.75 186.93 130.3C186.28 129.64 186.03 129.27 185.83 128.67C185.65 128.14 185.61 127.75 185.63 126.86C185.65 126.14 185.66 126.06 185.76 125.76C185.9 125.35 186.01 125.16 186.6 124.28C187.55 122.86 187.64 122.57 187.68 120.81C187.7 119.64 187.65 118.7 187.55 118.15C187.49 117.82 187.35 117.53 187.27 117.53C187.17 117.53 186.91 117.8 186.44 118.42C185.94 119.07 185.8 119.2 185.68 119.12C185.64 119.1 185.46 118.84 185.29 118.56C184.58 117.37 184.18 117 183.5 116.87C182.98 116.78 182.24 116.94 181.58 117.29C181.28 117.45 180.43 118.04 180 118.39L179.77 118.58L179.52 117.82C179.2 116.81 179.12 116.5 179.06 115.97C179.02 115.59 179.03 115.46 179.08 115.13C179.13 114.9 179.2 114.61 179.26 114.46C179.4 114.11 179.68 113.68 179.89 113.5C180.06 113.36 180.58 113.08 180.68 113.08C180.7 113.08 180.77 113.06 180.83 113.04C180.93 113 180.93 112.99 180.89 112.91C180.8 112.74 180.56 112.47 180.41 112.37C180.33 112.31 179.79 112.13 179.07 111.93C176.37 111.15 174.47 110.39 172.27 109.21C169.75 107.86 167.97 106.58 167.04 105.48C166.27 104.55 165.89 103.74 165.44 102.04C165.39 101.86 165.34 101.71 165.32 101.71C165.3 101.71 165.17 101.9 165.04 102.14C164.06 103.83 162.73 104.84 161.31 105.01L161.08 105.04L161.32 104.41C161.9 102.86 162.31 101.42 162.43 100.52C162.52 99.86 162.49 98.66 162.37 98.11C162.25 97.56 161.61 95.6 161.43 95.27C161.4 95.21 161.36 95.23 161.05 95.41C160.3 95.84 159.63 96.03 158.97 95.99C158.76 95.98 158.53 95.95 158.46 95.93C158.35 95.9 158.34 95.89 158.34 95.66C158.35 95.53 158.37 95.23 158.4 95C158.47 94.47 158.44 93.94 158.33 93.69C158.24 93.49 157.97 93.24 157.76 93.15C156.87 92.77 155.54 92.85 155.13 93.32C155.01 93.45 154.84 93.84 154.84 93.98C154.84 94.08 154.68 94.55 154.53 94.88C154.27 95.44 153.83 95.73 153.2 95.74C152.45 95.74 151.78 95.41 151.22 94.76C150.82 94.29 150.61 93.92 150.35 93.22C149.67 91.42 149.58 90.38 150.01 89.34C150.32 88.58 150.75 88.03 151.38 87.54C151.9 87.13 152.22 86.97 153.18 86.61C153.67 86.42 154.15 86.22 154.24 86.16C154.45 86.02 154.62 85.76 154.75 85.35C154.85 85.06 154.86 84.96 154.86 84.46C154.86 83.98 154.84 83.85 154.77 83.63C154.72 83.48 154.68 83.33 154.68 83.27C154.68 83.19 154.7 83.18 154.77 83.2C155.03 83.28 155.45 83.48 155.84 83.71C156.74 84.24 157.64 85.35 157.93 86.27C158.05 86.65 158.23 86.9 158.49 87.03C159.03 87.31 160.62 87.29 161.62 87C162.31 86.81 162.97 86.44 163.63 85.91C163.81 85.76 163.96 85.65 163.98 85.65C164.03 85.65 164.12 86.05 164.19 86.53C164.25 86.94 164.21 87.22 163.98 87.94C163.79 88.55 163.75 88.91 163.88 89.05C164.15 89.34 166.17 90.27 167.44 90.68C168.29 90.95 169.29 91.17 170.19 91.29C170.43 91.32 170.65 91.37 170.67 91.39C170.73 91.45 170.43 91.62 169.53 92.07C169.09 92.28 168.66 92.49 168.56 92.54C168.29 92.67 168.04 92.94 168.01 93.12C167.94 93.44 168.2 93.93 168.85 94.69C169.03 94.91 169.29 95.23 169.43 95.4C169.99 96.11 170.38 96.48 170.63 96.51C170.86 96.54 171.06 96.47 171.49 96.18C171.89 95.91 173.2 95.17 175.04 94.14L176.24 93.48L176.24 92.88C176.24 92.15 176.17 91.78 175.96 91.33C175.75 90.91 175.62 90.76 175.19 90.47C174.72 90.15 174.5 90.08 173.66 89.94C172.48 89.74 172.04 89.6 171.81 89.32C171.71 89.2 171.7 89.17 171.72 88.94C171.76 88.54 172.03 88.01 172.41 87.62C172.9 87.11 172.9 87.13 172.93 85.79C172.94 85.02 172.96 84.62 173 84.54C173.18 84.11 173.6 83.89 174.54 83.73C174.88 83.67 175.2 83.67 177.31 83.69C180.46 83.73 182.11 83.67 183.32 83.46C184.25 83.31 184.51 83.21 186.01 82.42C186.62 82.1 186.84 82.04 187.51 82.01C188.09 81.99 188.7 82 189.42 82.05ZM154.92 89.17C154.91 89.16 154.79 89.23 154.65 89.32C154.32 89.54 153.98 89.64 153.4 89.7C153.14 89.72 152.72 89.76 152.48 89.78C152.04 89.82 151.76 89.9 151.65 90.03C151.61 90.09 151.6 90.28 151.64 91.16C151.66 91.75 151.7 92.3 151.73 92.39C151.76 92.5 151.87 92.64 152.08 92.85L152.38 93.15L152.51 93.01C152.58 92.93 152.74 92.75 152.86 92.61C153.25 92.16 153.61 91.99 154.41 91.86C154.69 91.81 154.84 91.77 154.83 91.74C154.82 91.72 154.78 91.55 154.74 91.38C154.64 90.93 154.67 90.19 154.82 89.62C154.88 89.38 154.92 89.19 154.92 89.17Z"/>
		<path id="Layer" class="shp2" d="M153.75 91.56C153.65 91.91 153.26 92.16 152.9 92.1C152.53 92.04 152.22 91.65 152.27 91.3C152.3 91.08 152.48 90.83 152.7 90.72C153.25 90.43 153.91 90.97 153.75 91.56Z"/>
		<path id="Layer" class="shp2" d="M165.14 104.16C165.19 104.19 165.34 104.42 165.48 104.67C166.48 106.47 167.36 107.44 168.95 108.51C169.54 108.91 170.41 109.4 171.16 109.76C172.24 110.28 172.71 110.44 173.81 110.67C175.1 110.94 175.81 111.29 176.44 111.97C177.48 113.09 177.91 114.4 177.92 116.49C177.92 117.96 177.75 118.54 177.11 119.2C176.99 119.33 176.87 119.43 176.84 119.42C176.78 119.4 176.75 119.31 176.31 118.21C175.97 117.34 175.4 116.17 175.02 115.6C174.51 114.82 174 114.27 173.4 113.84C173.13 113.65 171.92 113.02 171.88 113.05C171.88 113.06 172.1 113.53 172.38 114.1C172.65 114.67 172.97 115.35 173.08 115.6C173.94 117.57 174.41 119.56 174.63 122.2C174.7 123.02 174.7 126.62 174.63 127.33C174.34 130.32 173.75 132.03 172.46 133.62C172.11 134.06 171.38 134.88 171.34 134.88C171.3 134.88 171.27 134.66 171.18 133.5C170.87 129.37 170.4 126.48 169.77 124.79C169.54 124.18 169.36 123.75 169.32 123.75C169.31 123.75 169.26 123.87 169.22 124.01C169.19 124.15 169.02 124.68 168.85 125.19C167.96 127.9 166.8 130.12 165.66 131.26C165.2 131.72 164.92 131.92 164.45 132.11C164.16 132.23 163.44 132.4 163.4 132.37C163.39 132.36 163.42 132.09 163.46 131.76C163.72 129.83 163.95 127.4 164.01 126.02C164.09 123.86 163.67 122 162.72 120.35C162.28 119.57 161.29 118.14 161.17 118.1C161.14 118.1 161.07 118.38 160.98 118.85C160.31 122.22 159.79 123.71 158.8 125.11C158.47 125.58 157.55 126.5 157.1 126.82C156.66 127.12 156 127.46 155.51 127.64C155.11 127.78 154.14 128.04 154.12 128.02C154.11 128.01 154.24 127.76 154.41 127.46C155.4 125.73 155.81 124.34 156.02 122C156.09 121.24 156.09 118.94 156.02 118.35C155.93 117.59 155.7 116.35 155.67 116.45C155.66 116.47 155.62 116.85 155.57 117.28C155.46 118.27 155.36 118.79 155.16 119.4C154.78 120.57 154.18 121.47 153.1 122.53C152.19 123.41 151.05 124.22 150.14 124.64C149.29 125.03 148.17 125.29 147.31 125.29L147 125.29L147.36 124.21C147.82 122.88 148.1 122.16 148.62 121.06C149.82 118.54 150 118.12 150.21 117.28C150.45 116.33 150.54 115.32 150.5 113.76C150.49 113.15 150.45 112.38 150.43 112.05C150.36 111.13 150.47 110.41 150.8 109.74C151.29 108.75 152.35 107.81 153.33 107.48C154.18 107.2 155.47 107.07 156.02 107.21C156.58 107.34 157.21 107.78 157.54 108.25C157.73 108.53 157.84 108.83 157.98 109.45C158.14 110.19 158.45 110.67 158.9 110.89C159.32 111.09 159.76 111.14 160.53 111.05C161.5 110.94 162.09 110.62 162.4 110.05C162.58 109.71 162.64 109.44 162.73 108.53C162.88 107.03 163.06 106.35 163.52 105.42C163.83 104.81 164.28 104.24 164.57 104.11C164.71 104.04 165.01 104.07 165.14 104.16Z"/>
	</g>
	<g id="bird">
		<path id="Layer" fill-rule="evenodd" class="shp2" d="M286.42 141.05C287.18 141.11 287.21 141.12 287.18 141.25C287.14 141.4 286.63 142.3 286.34 142.72C286 143.22 285.46 143.72 284.79 144.16C283.83 144.78 283.68 144.89 283.62 145C283.58 145.09 283.59 145.12 283.67 145.18C283.84 145.32 285.12 145.57 286.21 145.66C287.58 145.79 288.75 145.63 291.95 144.91C293 144.67 293.28 144.62 293.31 144.66C293.37 144.74 293.31 145.72 293.23 146.13C292.95 147.45 292.11 148.53 290.34 149.82C290.05 150.03 289.83 150.22 289.85 150.24C289.9 150.28 292.56 150.81 293.26 150.92C294.17 151.05 294.71 151.08 296.29 151.08C297.77 151.08 298.57 151.03 300.86 150.82C301.06 150.8 301.11 150.8 301.11 150.85C301.11 150.93 300.73 151.53 300.28 152.17C299.82 152.81 298.94 153.71 298.28 154.21C296.86 155.27 295.58 155.77 293.27 156.16C293.05 156.2 292.87 156.25 292.89 156.26C292.93 156.3 294.04 156.63 294.74 156.8C296.28 157.19 297.08 157.28 299.26 157.3C301.05 157.32 301.56 157.3 303.31 157.14C303.83 157.1 304.28 157.07 304.29 157.08C304.32 157.11 303.99 157.53 303.55 158.03C302.48 159.23 301.01 159.95 298.72 160.42C295.61 161.06 290.59 161.32 287.56 161.01C286.55 160.9 285.79 160.76 284.71 160.47C284.38 160.38 284.09 160.31 284.07 160.31C283.96 160.31 284.63 161.06 285 161.36C285.32 161.62 287.04 162.88 287.12 162.91C287.16 162.92 287.16 162.94 287.14 162.97C287.07 163.04 286.59 163.09 285.45 163.14C283.18 163.24 281.55 162.98 280.24 162.33C279.9 162.16 279.39 161.83 278.86 161.43C278.62 161.26 278.42 161.11 278.4 161.11C278.37 161.11 278.68 161.73 278.97 162.23C279.72 163.54 281.14 164.95 282.27 165.52C282.73 165.76 283.42 165.98 283.94 166.07C284.48 166.16 284.43 166.18 284.77 165.72C285.13 165.22 285.75 164.57 286.09 164.33C286.38 164.12 286.78 163.92 287.08 163.84C287.38 163.76 288.37 163.77 288.86 163.85C289.62 163.98 290.48 164.33 290.94 164.71C291.23 164.94 291.46 165.24 291.68 165.64L291.85 165.95L291.53 166C290.78 166.11 290.43 166.47 290.3 167.25C290.23 167.65 290.42 168.38 290.65 168.63C290.77 168.77 291.04 168.89 291.58 169.08C292.2 169.29 292.31 169.35 292.33 169.53C292.34 169.65 292.31 169.69 292.07 169.92C291.93 170.05 291.63 170.29 291.4 170.43C291.01 170.69 290.84 170.87 290.78 171.09C290.76 171.16 290.77 171.19 290.83 171.22C290.92 171.27 290.91 171.27 293.28 171.46C294.89 171.59 295.32 171.61 296.44 171.61C297.9 171.61 298.27 171.57 299.07 171.37C300.06 171.11 300.82 170.81 301.52 170.41C303.36 169.33 304.56 168.9 305.56 168.98C307.38 169.13 309.46 170.63 309.9 172.12C309.94 172.24 309.98 172.49 309.99 172.68C310.02 173.03 309.95 173.89 309.89 173.95C309.88 173.97 309.79 173.93 309.7 173.87C308.26 172.87 307.54 172.55 306.53 172.43C305.71 172.34 305.39 172.44 304.16 173.17C302.79 173.99 302.24 174.24 301.29 174.48C300.33 174.74 299.14 174.91 297.29 175.07C296.73 175.12 296.27 175.17 296.26 175.18C296.22 175.22 296.93 175.79 297.39 176.09C298.28 176.67 299.2 176.97 300.71 177.19C301.47 177.3 302.15 177.33 303.59 177.33C305.48 177.33 305.96 177.29 307.68 176.97C308.15 176.88 308.53 176.82 308.55 176.82C308.58 176.87 308.49 177.04 308.18 177.51C307.27 178.88 306.63 179.49 305.51 180.02C304.22 180.64 302.75 180.89 300.04 180.96C299.51 180.97 299.03 180.99 298.98 181C298.89 181.02 298.9 181.04 299.14 181.35C299.49 181.81 300.19 182.53 300.48 182.73C301.47 183.43 302.87 183.68 304.68 183.46C305.01 183.43 305.31 183.41 305.35 183.42C305.46 183.46 305.39 184.03 305.24 184.35C305 184.85 304.55 185.35 304.12 185.59L303.91 185.71L304.21 186.06C304.55 186.45 304.86 187.03 305.07 187.62C305.2 188.01 305.28 188.56 305.28 189.21L305.28 189.58L304.82 189.67C304.17 189.79 303.77 189.81 303.31 189.75C302.55 189.66 301.92 189.39 301.12 188.83C300.89 188.67 300.68 188.54 300.66 188.55C300.64 188.56 300.52 188.7 300.39 188.86C299.96 189.42 299.47 189.66 298.7 189.7L298.25 189.72L298.22 189.28C298.21 189.04 298.16 188.56 298.12 188.22C297.93 186.8 297.75 186.27 297.19 185.6C296.94 185.3 295.74 184.17 295.67 184.17C295.64 184.17 295.61 184.43 295.57 184.89C295.44 186.9 295.26 187.95 294.91 188.77C294.48 189.79 293.72 190.55 292.73 190.97C292.2 191.18 290.76 191.55 290.69 191.48C290.67 191.46 290.76 191.28 290.89 191.06C291.76 189.51 292.02 188.63 292.13 186.86C292.2 185.77 292.08 183.96 291.86 182.93C291.67 181.96 291.34 181.23 290.89 180.73C290.67 180.5 290.63 180.54 290.63 181.02C290.63 181.4 290.54 182.35 290.47 182.65C290.36 183.19 289.9 183.91 289.08 184.86C288.18 185.91 287.67 186.76 287.5 187.54C287.37 188.11 287.48 189.01 287.76 189.66C288.02 190.29 288.51 190.96 288.85 191.18L288.95 191.24L288.86 191.29C288.71 191.37 288.37 191.42 287.92 191.42C287.54 191.42 287.46 191.4 287.07 191.27C286.56 191.09 285.69 190.67 285.29 190.42C284.81 190.11 284.38 189.75 283.93 189.3C283.28 188.64 283.03 188.27 282.83 187.67C282.65 187.14 282.61 186.75 282.63 185.86C282.65 185.14 282.66 185.06 282.76 184.76C282.9 184.35 283.01 184.16 283.6 183.28C284.55 181.86 284.64 181.57 284.68 179.81C284.7 178.64 284.65 177.7 284.55 177.15C284.49 176.82 284.35 176.53 284.27 176.53C284.17 176.53 283.91 176.8 283.44 177.42C282.94 178.07 282.8 178.2 282.68 178.12C282.64 178.1 282.46 177.84 282.29 177.56C281.58 176.37 281.18 176 280.5 175.87C279.98 175.78 279.24 175.94 278.58 176.29C278.28 176.45 277.43 177.04 277 177.39L276.77 177.58L276.52 176.82C276.2 175.81 276.12 175.5 276.06 174.97C276.02 174.59 276.03 174.46 276.08 174.13C276.13 173.9 276.2 173.61 276.26 173.46C276.4 173.11 276.68 172.68 276.89 172.5C277.06 172.36 277.58 172.08 277.68 172.08C277.7 172.08 277.77 172.06 277.83 172.04C277.93 172 277.93 171.99 277.89 171.91C277.8 171.74 277.56 171.47 277.41 171.37C277.33 171.31 276.79 171.13 276.07 170.93C273.37 170.15 271.47 169.39 269.27 168.21C266.75 166.86 264.97 165.58 264.04 164.48C263.27 163.55 262.89 162.74 262.44 161.04C262.39 160.86 262.34 160.71 262.32 160.71C262.3 160.71 262.17 160.9 262.04 161.14C261.06 162.83 259.73 163.84 258.31 164.01L258.08 164.04L258.32 163.41C258.9 161.86 259.31 160.42 259.43 159.52C259.52 158.86 259.49 157.66 259.37 157.11C259.25 156.56 258.61 154.6 258.43 154.27C258.4 154.21 258.36 154.23 258.05 154.41C257.3 154.84 256.63 155.03 255.97 154.99C255.76 154.98 255.53 154.95 255.46 154.93C255.35 154.9 255.34 154.89 255.34 154.66C255.35 154.53 255.37 154.23 255.4 154C255.47 153.47 255.44 152.94 255.33 152.69C255.24 152.49 254.97 152.24 254.76 152.15C253.87 151.77 252.54 151.85 252.13 152.32C252.01 152.45 251.84 152.84 251.84 152.98C251.84 153.08 251.68 153.55 251.53 153.88C251.27 154.44 250.83 154.73 250.2 154.74C249.45 154.74 248.78 154.41 248.22 153.76C247.82 153.29 247.61 152.92 247.35 152.22C246.67 150.42 246.58 149.38 247.01 148.34C247.32 147.58 247.75 147.03 248.38 146.54C248.9 146.13 249.22 145.97 250.18 145.61C250.67 145.42 251.15 145.22 251.24 145.16C251.45 145.02 251.62 144.76 251.75 144.35C251.85 144.06 251.86 143.96 251.86 143.46C251.86 142.98 251.84 142.85 251.77 142.63C251.72 142.48 251.68 142.33 251.68 142.27C251.68 142.19 251.7 142.18 251.77 142.2C252.03 142.28 252.45 142.48 252.84 142.71C253.74 143.24 254.64 144.35 254.93 145.27C255.05 145.65 255.23 145.9 255.49 146.03C256.03 146.31 257.62 146.29 258.62 146C259.31 145.81 259.97 145.44 260.63 144.91C260.81 144.76 260.96 144.65 260.98 144.65C261.03 144.65 261.12 145.05 261.19 145.53C261.25 145.94 261.21 146.22 260.98 146.94C260.79 147.55 260.75 147.91 260.88 148.05C261.15 148.34 263.17 149.27 264.44 149.68C265.29 149.95 266.29 150.17 267.19 150.29C267.43 150.32 267.65 150.37 267.67 150.39C267.73 150.45 267.43 150.62 266.53 151.07C266.09 151.28 265.66 151.49 265.56 151.54C265.29 151.67 265.04 151.94 265.01 152.12C264.94 152.44 265.2 152.93 265.85 153.69C266.03 153.91 266.29 154.23 266.43 154.4C266.99 155.11 267.38 155.48 267.63 155.51C267.86 155.54 268.06 155.47 268.49 155.18C268.89 154.91 270.2 154.17 272.04 153.14L273.24 152.48L273.24 151.88C273.24 151.15 273.17 150.78 272.96 150.33C272.75 149.91 272.62 149.76 272.19 149.47C271.72 149.15 271.5 149.08 270.66 148.94C269.48 148.74 269.04 148.6 268.81 148.32C268.71 148.2 268.7 148.17 268.72 147.94C268.76 147.54 269.03 147.01 269.41 146.62C269.9 146.11 269.9 146.13 269.93 144.79C269.94 144.02 269.96 143.62 270 143.54C270.18 143.11 270.6 142.89 271.54 142.73C271.88 142.67 272.2 142.67 274.31 142.69C277.46 142.73 279.11 142.67 280.32 142.46C281.25 142.31 281.51 142.21 283.01 141.42C283.62 141.1 283.84 141.04 284.51 141.01C285.09 140.99 285.7 141 286.42 141.05ZM251.92 148.17C251.91 148.16 251.79 148.23 251.65 148.32C251.32 148.54 250.98 148.64 250.4 148.7C250.14 148.72 249.72 148.76 249.48 148.78C249.04 148.82 248.76 148.9 248.65 149.03C248.61 149.09 248.6 149.28 248.64 150.16C248.66 150.75 248.7 151.3 248.73 151.39C248.76 151.5 248.87 151.64 249.08 151.85L249.38 152.15L249.51 152.01C249.58 151.93 249.74 151.75 249.86 151.61C250.25 151.16 250.61 150.99 251.41 150.86C251.69 150.81 251.84 150.77 251.83 150.74C251.82 150.72 251.78 150.55 251.74 150.38C251.64 149.93 251.67 149.19 251.82 148.62C251.88 148.38 251.92 148.19 251.92 148.17Z"/>
		<path id="Layer" class="shp2" d="M250.75 150.56C250.65 150.91 250.26 151.16 249.9 151.1C249.53 151.04 249.22 150.65 249.27 150.3C249.3 150.08 249.48 149.83 249.7 149.72C250.25 149.43 250.91 149.97 250.75 150.56Z"/>
		<path id="Layer" class="shp2" d="M262.14 163.16C262.19 163.19 262.34 163.42 262.48 163.67C263.48 165.47 264.36 166.44 265.95 167.51C266.54 167.91 267.41 168.4 268.16 168.76C269.24 169.28 269.71 169.44 270.81 169.67C272.1 169.94 272.81 170.29 273.44 170.97C274.48 172.09 274.91 173.4 274.92 175.49C274.92 176.96 274.75 177.54 274.11 178.2C273.99 178.33 273.87 178.43 273.84 178.42C273.78 178.4 273.75 178.31 273.31 177.21C272.97 176.34 272.4 175.17 272.02 174.6C271.51 173.82 271 173.27 270.4 172.84C270.13 172.65 268.92 172.02 268.88 172.05C268.88 172.06 269.1 172.53 269.38 173.1C269.65 173.67 269.97 174.35 270.08 174.6C270.94 176.57 271.41 178.56 271.63 181.2C271.7 182.02 271.7 185.62 271.63 186.33C271.34 189.32 270.75 191.03 269.46 192.62C269.11 193.06 268.38 193.88 268.34 193.88C268.3 193.88 268.27 193.66 268.18 192.5C267.87 188.37 267.4 185.48 266.77 183.79C266.54 183.18 266.36 182.75 266.32 182.75C266.31 182.75 266.26 182.87 266.22 183.01C266.19 183.15 266.02 183.68 265.85 184.19C264.96 186.9 263.8 189.12 262.66 190.26C262.2 190.72 261.92 190.92 261.45 191.11C261.16 191.23 260.44 191.4 260.4 191.37C260.39 191.36 260.42 191.09 260.46 190.76C260.72 188.83 260.95 186.4 261.01 185.02C261.09 182.86 260.67 181 259.72 179.35C259.28 178.57 258.29 177.14 258.17 177.1C258.14 177.1 258.07 177.38 257.98 177.85C257.31 181.22 256.79 182.71 255.8 184.11C255.47 184.58 254.55 185.5 254.1 185.82C253.66 186.12 253 186.46 252.51 186.64C252.11 186.78 251.14 187.04 251.12 187.02C251.11 187.01 251.24 186.76 251.41 186.46C252.4 184.73 252.81 183.34 253.02 181C253.09 180.24 253.09 177.94 253.02 177.35C252.93 176.59 252.7 175.35 252.67 175.45C252.66 175.47 252.62 175.85 252.57 176.28C252.46 177.27 252.36 177.79 252.16 178.4C251.78 179.57 251.18 180.47 250.1 181.53C249.19 182.41 248.05 183.22 247.14 183.64C246.29 184.03 245.17 184.29 244.31 184.29L244 184.29L244.36 183.21C244.82 181.88 245.1 181.16 245.62 180.06C246.82 177.54 247 177.12 247.21 176.28C247.45 175.33 247.54 174.32 247.5 172.76C247.49 172.15 247.45 171.38 247.43 171.05C247.36 170.13 247.47 169.41 247.8 168.74C248.29 167.75 249.35 166.81 250.33 166.48C251.18 166.2 252.47 166.07 253.02 166.21C253.58 166.34 254.21 166.78 254.54 167.25C254.73 167.53 254.84 167.83 254.98 168.45C255.14 169.19 255.45 169.67 255.9 169.89C256.32 170.09 256.76 170.14 257.53 170.05C258.5 169.94 259.09 169.62 259.4 169.05C259.58 168.71 259.64 168.44 259.73 167.53C259.88 166.03 260.06 165.35 260.52 164.42C260.83 163.81 261.28 163.24 261.57 163.11C261.71 163.04 262.01 163.07 262.14 163.16Z"/>
	</g>
	<g id="bird">
		<path id="Layer" fill-rule="evenodd" class="shp2" d="M92.42 24.05C93.18 24.11 93.21 24.12 93.18 24.25C93.14 24.4 92.63 25.3 92.34 25.72C92 26.22 91.46 26.72 90.79 27.16C89.83 27.78 89.68 27.89 89.62 28C89.58 28.09 89.59 28.12 89.67 28.18C89.84 28.32 91.12 28.57 92.21 28.66C93.58 28.79 94.75 28.63 97.95 27.91C99 27.67 99.28 27.62 99.31 27.66C99.37 27.74 99.31 28.72 99.23 29.13C98.95 30.45 98.11 31.53 96.34 32.82C96.05 33.03 95.83 33.22 95.85 33.24C95.9 33.28 98.56 33.81 99.26 33.92C100.17 34.05 100.71 34.08 102.29 34.08C103.77 34.08 104.57 34.03 106.86 33.82C107.06 33.8 107.11 33.8 107.11 33.85C107.11 33.93 106.73 34.53 106.28 35.17C105.82 35.81 104.94 36.71 104.28 37.21C102.86 38.27 101.58 38.77 99.27 39.16C99.05 39.2 98.87 39.25 98.89 39.26C98.93 39.3 100.04 39.63 100.74 39.8C102.28 40.19 103.08 40.28 105.26 40.3C107.05 40.32 107.56 40.3 109.31 40.14C109.83 40.1 110.28 40.07 110.29 40.08C110.32 40.11 109.99 40.53 109.55 41.03C108.48 42.23 107.01 42.95 104.72 43.42C101.61 44.06 96.59 44.32 93.56 44.01C92.55 43.9 91.79 43.76 90.71 43.47C90.38 43.38 90.09 43.31 90.07 43.31C89.96 43.31 90.63 44.06 91 44.36C91.32 44.62 93.04 45.88 93.12 45.91C93.16 45.92 93.16 45.94 93.14 45.97C93.07 46.04 92.59 46.09 91.45 46.14C89.18 46.24 87.55 45.98 86.24 45.33C85.9 45.16 85.39 44.83 84.86 44.43C84.62 44.26 84.42 44.11 84.4 44.11C84.37 44.11 84.68 44.73 84.97 45.23C85.72 46.54 87.14 47.95 88.27 48.52C88.73 48.76 89.42 48.98 89.94 49.07C90.48 49.16 90.43 49.18 90.77 48.72C91.13 48.22 91.75 47.57 92.09 47.33C92.38 47.12 92.78 46.92 93.08 46.84C93.38 46.76 94.37 46.77 94.86 46.85C95.62 46.98 96.48 47.33 96.94 47.71C97.23 47.94 97.46 48.24 97.68 48.64L97.85 48.95L97.53 49C96.78 49.11 96.43 49.47 96.3 50.25C96.23 50.65 96.42 51.38 96.65 51.63C96.77 51.77 97.04 51.89 97.58 52.08C98.2 52.29 98.31 52.35 98.33 52.53C98.34 52.65 98.31 52.69 98.07 52.92C97.93 53.05 97.63 53.29 97.4 53.43C97.01 53.69 96.84 53.87 96.78 54.09C96.76 54.16 96.77 54.19 96.83 54.22C96.92 54.27 96.91 54.27 99.28 54.46C100.89 54.59 101.32 54.61 102.44 54.61C103.9 54.61 104.27 54.57 105.07 54.37C106.06 54.11 106.82 53.81 107.52 53.41C109.36 52.33 110.56 51.9 111.56 51.98C113.38 52.13 115.46 53.63 115.9 55.12C115.94 55.24 115.98 55.49 115.99 55.68C116.02 56.03 115.95 56.89 115.89 56.95C115.88 56.97 115.79 56.93 115.7 56.87C114.26 55.87 113.54 55.55 112.53 55.43C111.71 55.34 111.39 55.44 110.16 56.17C108.79 56.99 108.24 57.24 107.29 57.48C106.33 57.74 105.14 57.91 103.29 58.07C102.73 58.12 102.27 58.17 102.26 58.18C102.22 58.22 102.93 58.79 103.39 59.09C104.28 59.67 105.2 59.97 106.71 60.19C107.47 60.3 108.15 60.33 109.59 60.33C111.48 60.33 111.96 60.29 113.68 59.97C114.15 59.88 114.53 59.82 114.55 59.82C114.58 59.87 114.49 60.04 114.18 60.51C113.27 61.88 112.63 62.49 111.51 63.02C110.22 63.64 108.75 63.89 106.04 63.96C105.51 63.97 105.03 63.99 104.98 64C104.89 64.02 104.9 64.04 105.14 64.35C105.49 64.81 106.19 65.53 106.48 65.73C107.47 66.43 108.87 66.68 110.68 66.46C111.01 66.43 111.31 66.41 111.35 66.42C111.46 66.46 111.39 67.03 111.24 67.35C111 67.85 110.55 68.35 110.12 68.59L109.91 68.71L110.21 69.06C110.55 69.45 110.86 70.03 111.07 70.62C111.2 71.01 111.28 71.56 111.28 72.21L111.28 72.58L110.82 72.67C110.17 72.79 109.77 72.81 109.31 72.75C108.55 72.66 107.92 72.39 107.12 71.83C106.89 71.67 106.68 71.54 106.66 71.55C106.64 71.56 106.52 71.7 106.39 71.86C105.96 72.42 105.47 72.66 104.7 72.7L104.25 72.72L104.22 72.28C104.21 72.04 104.16 71.56 104.12 71.22C103.93 69.8 103.75 69.27 103.19 68.6C102.94 68.3 101.74 67.17 101.67 67.17C101.64 67.17 101.61 67.43 101.57 67.89C101.44 69.9 101.26 70.95 100.91 71.77C100.48 72.79 99.72 73.55 98.73 73.97C98.2 74.18 96.76 74.55 96.69 74.48C96.67 74.46 96.76 74.28 96.89 74.06C97.76 72.51 98.02 71.63 98.13 69.86C98.2 68.77 98.08 66.96 97.86 65.93C97.67 64.96 97.34 64.23 96.89 63.73C96.67 63.5 96.63 63.54 96.63 64.02C96.63 64.4 96.54 65.35 96.47 65.65C96.36 66.19 95.9 66.91 95.08 67.86C94.18 68.91 93.67 69.76 93.5 70.54C93.37 71.11 93.48 72.01 93.76 72.66C94.02 73.29 94.51 73.96 94.85 74.18L94.95 74.24L94.86 74.29C94.71 74.37 94.37 74.42 93.92 74.42C93.54 74.42 93.46 74.4 93.07 74.27C92.56 74.09 91.69 73.67 91.29 73.42C90.81 73.11 90.38 72.75 89.93 72.3C89.28 71.64 89.03 71.27 88.83 70.67C88.65 70.14 88.61 69.75 88.63 68.86C88.65 68.14 88.66 68.06 88.76 67.76C88.9 67.35 89.01 67.16 89.6 66.28C90.55 64.86 90.64 64.57 90.68 62.81C90.7 61.64 90.65 60.7 90.55 60.15C90.49 59.82 90.35 59.53 90.27 59.53C90.17 59.53 89.91 59.8 89.44 60.42C88.94 61.07 88.8 61.2 88.68 61.12C88.64 61.1 88.46 60.84 88.29 60.56C87.58 59.37 87.18 59 86.5 58.87C85.98 58.78 85.24 58.94 84.58 59.29C84.28 59.45 83.43 60.04 83 60.39L82.77 60.58L82.52 59.82C82.2 58.81 82.12 58.5 82.06 57.97C82.02 57.59 82.03 57.46 82.08 57.13C82.13 56.9 82.2 56.61 82.26 56.46C82.4 56.11 82.68 55.68 82.89 55.5C83.06 55.36 83.58 55.08 83.68 55.08C83.7 55.08 83.77 55.06 83.83 55.04C83.93 55 83.93 54.99 83.89 54.91C83.8 54.74 83.56 54.47 83.41 54.37C83.33 54.31 82.79 54.13 82.07 53.93C79.37 53.15 77.47 52.39 75.27 51.21C72.75 49.86 70.97 48.58 70.04 47.48C69.27 46.55 68.89 45.74 68.44 44.04C68.39 43.86 68.34 43.71 68.32 43.71C68.3 43.71 68.17 43.9 68.04 44.14C67.06 45.83 65.73 46.84 64.31 47.01L64.08 47.04L64.32 46.41C64.9 44.86 65.31 43.42 65.43 42.52C65.52 41.86 65.49 40.66 65.37 40.11C65.25 39.56 64.61 37.6 64.43 37.27C64.4 37.21 64.36 37.23 64.05 37.41C63.3 37.84 62.63 38.03 61.97 37.99C61.76 37.98 61.53 37.95 61.46 37.93C61.35 37.9 61.34 37.89 61.34 37.66C61.35 37.53 61.37 37.23 61.4 37C61.47 36.47 61.44 35.94 61.33 35.69C61.24 35.49 60.97 35.24 60.76 35.15C59.87 34.77 58.54 34.85 58.13 35.32C58.01 35.45 57.84 35.84 57.84 35.98C57.84 36.08 57.68 36.55 57.53 36.88C57.27 37.44 56.83 37.73 56.2 37.74C55.45 37.74 54.78 37.41 54.22 36.76C53.82 36.29 53.61 35.92 53.35 35.22C52.67 33.42 52.58 32.38 53.01 31.34C53.32 30.58 53.75 30.03 54.38 29.54C54.9 29.13 55.22 28.97 56.18 28.61C56.67 28.42 57.15 28.22 57.24 28.16C57.45 28.02 57.62 27.76 57.75 27.35C57.85 27.06 57.86 26.96 57.86 26.46C57.86 25.98 57.84 25.85 57.77 25.63C57.72 25.48 57.68 25.33 57.68 25.27C57.68 25.19 57.7 25.18 57.77 25.2C58.03 25.28 58.45 25.48 58.84 25.71C59.74 26.24 60.64 27.35 60.93 28.27C61.05 28.65 61.23 28.9 61.49 29.03C62.03 29.31 63.62 29.29 64.62 29C65.31 28.81 65.97 28.44 66.63 27.91C66.81 27.76 66.96 27.65 66.98 27.65C67.03 27.65 67.12 28.05 67.19 28.53C67.25 28.94 67.21 29.22 66.98 29.94C66.79 30.55 66.75 30.91 66.88 31.05C67.15 31.34 69.17 32.27 70.44 32.68C71.29 32.95 72.29 33.17 73.19 33.29C73.43 33.32 73.65 33.37 73.67 33.39C73.73 33.45 73.43 33.62 72.53 34.07C72.09 34.28 71.66 34.49 71.56 34.54C71.29 34.67 71.04 34.94 71.01 35.12C70.94 35.44 71.2 35.93 71.85 36.69C72.03 36.91 72.29 37.23 72.43 37.4C72.99 38.11 73.38 38.48 73.63 38.51C73.86 38.54 74.06 38.47 74.49 38.18C74.89 37.91 76.2 37.17 78.04 36.14L79.24 35.48L79.24 34.88C79.24 34.15 79.17 33.78 78.96 33.33C78.75 32.91 78.62 32.76 78.19 32.47C77.72 32.15 77.5 32.08 76.66 31.94C75.48 31.74 75.04 31.6 74.81 31.32C74.71 31.2 74.7 31.17 74.72 30.94C74.76 30.54 75.03 30.01 75.41 29.62C75.9 29.11 75.9 29.13 75.93 27.79C75.94 27.02 75.96 26.62 76 26.54C76.18 26.11 76.6 25.89 77.54 25.73C77.88 25.67 78.2 25.67 80.31 25.69C83.46 25.73 85.11 25.67 86.32 25.46C87.25 25.31 87.51 25.21 89.01 24.42C89.62 24.1 89.84 24.04 90.51 24.01C91.09 23.99 91.7 24 92.42 24.05ZM57.92 31.17C57.91 31.16 57.79 31.23 57.65 31.32C57.32 31.54 56.98 31.64 56.4 31.7C56.14 31.72 55.72 31.76 55.48 31.78C55.04 31.82 54.76 31.9 54.65 32.03C54.61 32.09 54.6 32.28 54.64 33.16C54.66 33.75 54.7 34.3 54.73 34.39C54.76 34.5 54.87 34.64 55.08 34.85L55.38 35.15L55.51 35.01C55.58 34.93 55.74 34.75 55.86 34.61C56.25 34.16 56.61 33.99 57.41 33.86C57.69 33.81 57.84 33.77 57.83 33.74C57.82 33.72 57.78 33.55 57.74 33.38C57.64 32.93 57.67 32.19 57.82 31.62C57.88 31.38 57.92 31.19 57.92 31.17Z"/>
		<path id="Layer" class="shp2" d="M56.75 33.56C56.65 33.91 56.26 34.16 55.9 34.1C55.53 34.04 55.22 33.65 55.27 33.3C55.3 33.08 55.48 32.83 55.7 32.72C56.25 32.43 56.91 32.97 56.75 33.56Z"/>
		<path id="Layer" class="shp2" d="M68.14 46.16C68.19 46.19 68.34 46.42 68.48 46.67C69.48 48.47 70.36 49.44 71.95 50.51C72.54 50.91 73.41 51.4 74.16 51.76C75.24 52.28 75.71 52.44 76.81 52.67C78.1 52.94 78.81 53.29 79.44 53.97C80.48 55.09 80.91 56.4 80.92 58.49C80.92 59.96 80.75 60.54 80.11 61.2C79.99 61.33 79.87 61.43 79.84 61.42C79.78 61.4 79.75 61.31 79.31 60.21C78.97 59.34 78.4 58.17 78.02 57.6C77.51 56.82 77 56.27 76.4 55.84C76.13 55.65 74.92 55.02 74.88 55.05C74.88 55.06 75.1 55.53 75.38 56.1C75.65 56.67 75.97 57.35 76.08 57.6C76.94 59.57 77.41 61.56 77.63 64.2C77.7 65.02 77.7 68.62 77.63 69.33C77.34 72.32 76.75 74.03 75.46 75.62C75.11 76.06 74.38 76.88 74.34 76.88C74.3 76.88 74.27 76.66 74.18 75.5C73.87 71.37 73.4 68.48 72.77 66.79C72.54 66.18 72.36 65.75 72.32 65.75C72.31 65.75 72.26 65.87 72.22 66.01C72.19 66.15 72.02 66.68 71.85 67.19C70.96 69.9 69.8 72.12 68.66 73.26C68.2 73.72 67.92 73.92 67.45 74.11C67.16 74.23 66.44 74.4 66.4 74.37C66.39 74.36 66.42 74.09 66.46 73.76C66.72 71.83 66.95 69.4 67.01 68.02C67.09 65.86 66.67 64 65.72 62.35C65.28 61.57 64.29 60.14 64.17 60.1C64.14 60.1 64.07 60.38 63.98 60.85C63.31 64.22 62.79 65.71 61.8 67.11C61.47 67.58 60.55 68.5 60.1 68.82C59.66 69.12 59 69.46 58.51 69.64C58.11 69.78 57.14 70.04 57.12 70.02C57.11 70.01 57.24 69.76 57.41 69.46C58.4 67.73 58.81 66.34 59.02 64C59.09 63.24 59.09 60.94 59.02 60.35C58.93 59.59 58.7 58.35 58.67 58.45C58.66 58.47 58.62 58.85 58.57 59.28C58.46 60.27 58.36 60.79 58.16 61.4C57.78 62.57 57.18 63.47 56.1 64.53C55.19 65.41 54.05 66.22 53.14 66.64C52.29 67.03 51.17 67.29 50.31 67.29L50 67.29L50.36 66.21C50.82 64.88 51.1 64.16 51.62 63.06C52.82 60.54 53 60.12 53.21 59.28C53.45 58.33 53.54 57.32 53.5 55.76C53.49 55.15 53.45 54.38 53.43 54.05C53.36 53.13 53.47 52.41 53.8 51.74C54.29 50.75 55.35 49.81 56.33 49.48C57.18 49.2 58.47 49.07 59.02 49.21C59.58 49.34 60.21 49.78 60.54 50.25C60.73 50.53 60.84 50.83 60.98 51.45C61.14 52.19 61.45 52.67 61.9 52.89C62.32 53.09 62.76 53.14 63.53 53.05C64.5 52.94 65.09 52.62 65.4 52.05C65.58 51.71 65.64 51.44 65.73 50.53C65.88 49.03 66.06 48.35 66.52 47.42C66.83 46.81 67.28 46.24 67.57 46.11C67.71 46.04 68.01 46.07 68.14 46.16Z"/>
	</g>
</svg>