<?xml version="1.0" encoding="UTF-8"?>
<svg xmlns="http://www.w3.org/2000/svg" xmlns:xlink="http://www.w3.org/1999/xlink" width="329.65" height="216.14">

<defs>

<linearGradient id="lg" y2="62.126" gradientUnits="userSpaceOnUse" y1="61.953" gradientTransform="scale(1.3900826,0.7193817)" x2="110.73" x1="115.85">

<stop stop-color="#000" offset="0"/>

<stop stop-color="#f00" offset="1"/>

</linearGradient>

</defs>

<rect height="216.14" width="329.65" fill="#0000d7"/>

<g fill="#ffd700">

<rect transform="translate(0,0.624898)" height="21.875" width="5" y="81.767" x="221.25"/>

<rect transform="translate(0,-0.625025)" height="21.875" width="5" y="16.767" x="222.5"/>

<rect height="21.875" width="5" y="147.39" x="220.62"/>

<rect transform="translate(0,0.624822)" height="21.875" width="5" y="81.767" x="26.875"/>

<rect transform="translate(0,-0.62514)" height="21.875" width="5" y="114.89" x="1.25"/>

<rect transform="translate(0,-1.205309e-4)" height="21.875" width="5" y="114.27" x="50.625"/>

<rect transform="translate(0,-0.625159)" height="21.875" width="5" y="148.02" x="26.875"/>

<rect transform="translate(0,0.624822)" height="21.875" width="5" y="146.77" x="75.625"/>

<rect transform="translate(0,-0.625082)" height="21.875" width="5" y="179.89" x="50"/>

<rect transform="translate(0,-6.331045e-5)" height="21.875" width="5" y="179.27" x="99.375"/>

<rect transform="translate(0,-4.423697e-5)" height="3.9609" width="5" y="212.25" x="75.555"/>

<rect transform="translate(0,-0.625082)" height="21.875" width="5" y="16.767" x="125"/>

<rect transform="translate(0,1.249898)" height="21.875" width="5" y="81.142" x="75.625"/>

<rect transform="translate(0,-0.625063)" height="21.875" width="5" y="16.767" x="75"/>

<rect transform="translate(0,-0.625063)" height="21.875" width="5" y="50.517" x="51.25"/>

<rect transform="translate(0,1.249898)" height="21.875" width="5" y="48.642" x="246.87"/>

<rect transform="translate(0,1.249937)" height="21.875" width="5" y="81.142" x="270.62"/>

<rect transform="translate(0,-0.625025)" height="21.875" width="5" y="114.89" x="246.87"/>

<rect transform="translate(0,0.624879)" height="21.875" width="5" y="146.77" x="270.62"/>

<rect transform="translate(0,-0.625025)" height="21.875" width="5" y="179.89" x="245"/>

<rect height="21.875" width="5" y="179.27" x="294.37"/>

<rect height="21.875" width="5" y="82.392" x="320"/>

<rect transform="translate(0,-0.625006)" height="21.875" width="5" y="16.767" x="270.62"/>

<rect height="21.875" width="5" y="16.142" x="320"/>

<rect height="21.875" width="5" y="49.892" x="296.25"/>

<rect height="21.875" width="5" y="147.39" x="320.62"/>

<rect transform="translate(0,-0.625101)" height="21.875" width="5" y="50.517" x="1.875"/>

<rect transform="translate(0,-1.250044)" height="21.875" width="5" y="180.52" x="1.25"/>

<rect height="21.875" width="5" y="114.27" x="295.62"/>

<rect transform="translate(0,-0.625025)" height="21.875" width="5" y="179.89" x="148.75"/>

<rect transform="translate(0,-1.250044)" height="21.875" width="5" y="17.392" x="26.25"/>

<rect transform="translate(0,0.312475)" height="3.9609" width="5" y="211.93" x="173.68"/>

<rect transform="translate(0,-0.312525)" height="3.9609" width="5" y="212.56" x="124.62"/>

<rect transform="translate(0,-2.516348e-5)" height="3.9609" width="5" y="212.25" x="27.43"/>

<rect height="3.9609" width="5" y="212.25" x="321.18"/>

<rect height="3.9609" width="5" y="212.25" x="271.8"/>

<rect height="3.9609" width="5" y="212.25" x="222.74"/>

<rect height="5.0937" width="5" y="0.25452" x="295.36"/>

<rect height="5.0937" width="5" y="0.25451" x="197.39"/>

<rect height="5.0937" width="5" y="0.25451" x="246.45"/>

<rect height="5.0937" width="5" y="0.25451" x="99.422"/>

<rect height="5.0937" width="5" y="0.25451" x="148.48"/>

<rect height="5.0937" width="5" y="0.25453" x="1.6093"/>

<rect height="5.0937" width="5" y="0.25453" x="50.672"/>

</g>

<g transform="translate(0,-0.00172363)" stroke="#000" stroke-width="1.25">

<g fill="#ffd700">

<path d="m175.03,143.8c-6.8321,3.7956-13.336,4.0223-17.89,1.7449-4.5548-2.2774,0.7591,3.0365,3.0365,5.3139s1.5183,4.5548,1.5183,6.8322c0,2.2773-0.0406,5.2278,0.571,7.9673-4.5547,0.7592-8.9215-1.1352-12.717-3.4126,2.2354,2.607,1.9254,4.1317,3.6087,6.1753-3.8463,0.0351-7.4743-3.4281-10.652-5.1261,1.648,2.041,3.0381,5.2265,4.4517,7.5594-3.1011,0.3371-6.7889-3.5936-8.2949-4.899,0.4862,1.0208,1.4719,5.4506,1.9743,8.2929-3.7096-0.9714-4.5966-6.7271-7.3134-6.2897,0.009,0.638-0.7542,2.72,0.0577,4.6661,1.6049,3.8466-2.0426,2.2611-3.2481,1.9553-3.186,0.0385-4.0788,0.956-3.4602-4.0066-0.7591-1.5181-2.9345-3.0137-2.9345,0.0228,0,3.0366-2.0032,6.7935-3.9521,6.7935-1.9488,0-3.1384-2.5901-3.8816-4.7427-3.4988-2.8416-1.5886-5.2437,1.4479-4.4846,3.0365,0.7592,0.7432-4.5547-1.5341-3.0365-2.2774,1.5183-6.848,1.55-6.0888-0.7274,0.7591-2.2774,1.1896-4.0856,0.4305-7.1222-0.7592-3.0365,2.794-2.5198,4.3122-1.0015,1.5184,1.5182,2.1913,3.365,5.2278,2.6059s0.2267-3.365-2.0507-4.14c-2.2774,0-2.0505-2.8997,1.5657-4.727,2.5209-4.5345,6.2453-5.0328,5.6426-0.3444,0,2.2774,1.0243,6.8479,10.268,5.7444,6.8321-0.7591,7.9674-6.268,5.2278-9.164-1.7063-1.4322-3.5132-4.3554-3.7558-9.8187-1.1107,0.9648-2.6254,1.7022-4.6887,1.7559-3.496,0.2234-4.6519-1.3603-7.6549-2.6309,1.8706-1.0397,4.6503-2.6522,7.3759-2.1274,2.2482,0.0245,4.427-1.251,5.2565-3.4966,1.5182-3.7957,4.8081-3.8202,7.7634-3.1227,3.31,0.8203,11.254,0.4157,11.254-1.1026-3.6436-1.1467-8.1262-4.5359-9.6618-9.237-0.007,3.5064-2.0025,5.818-4.9343,5.1901-1.4194-0.3447-3.4952-0.229-4.8192-0.1517,1.6251-1.3136,4.0045-5.6482,2.0727-8.5376-0.8859-1.361-1.0899-4.0787-0.9106-5.7494-0.5559,0.4691-2.2674,3.3787-0.9914,5.6112-2.0771,0.2002-3.7006-2.5199-6.1117-3.3493-0.4305,0.8769,0.9823,2.997,1.3043,3.9802-1.0842,0.3582-1.8138,0.7903-4.7713-0.6537-0.7857,2.2383-0.3805,3.2825-0.5644,4.0823-0.9359-0.0695-3.2253-0.6239-4.3506-1.8366,0.0237,1.4366-0.7503,2.5096-1.0728,3.717-1.4842-0.3128-2.7723-0.7203-4.0689-2.4729-0.1013,1.1345-0.9402,1.6377-0.7843,3.4508-2.0316-0.1009-4.3574-3.1495-6.9248-5.3293-0.7432,1.926,2.3952,9.642,0.1178,8.8829-3.4829-0.9314-7.1925,1.6359-7.2943-1.2441,0.7591-2.2774-0.4147-2.3249-2.6921-0.0475-2.0191,2.3634-6.1047,4.9239-6.073-2.2774-2.6377-3.9293-1.7608-5.0714,2.2932-4.5389,3.7956-0.7592,5.3297-2.3863,2.3635-3.2791-5.7216,1.1739-6.9113-1.4479-4.5003-3.8273,0.60275-2.121,0.60276-4.2964,2.8801-3.5373,3.9134,2.5673,5.3139,0,3.0365-1.5183-2.2774-1.5182-1.7766-3.3967,1.8785-4.5547,2.1913-3.0523,4.9536-2.2774,4.9536,0.75913-0.5166,3.6392,1.7766,5.7603,3.2948,4.242,1.5183-1.5182,7.4122-2.121,9.6896-2.8801,2.2773-0.75914,9.0303-6.6758,9.0303-8.9532-5.0171,0.18366-8.0516-0.98468-9.8117-2.1467-0.2295-1.4922-0.4506-2.6454,0.1697-4.7943-4.9511,2.6579-7.0956,1.3717-8.476-0.02189,1.0925-1.0616,2.8603-4.9017,3.6193-6.3418-2.7712,1.2293-3.6755,2.1441-4.9118,1.5484-0.5175-1.5016,0.4015-3.0184,0.7301-4.208-2.9281,2.6797-4.8433,2.5792-7.4013,2.1569,2.6423-4.0937,3.1329-6.2416,3.7226-10.399-1.7732,0.84179-3.694,0.70508-4.8677,0.78128-0.2506-1.355-0.6074-3.4288-0.1018-5.4222-3.5779,0.94025-5.8464,1.8944-4.727-2.794,0-2.2774-0.8769-5.1575,2.4496-4.0381,1.5182,0,1.4322-2.7624-0.84523-2.7624-5.8939-0.43054-7.2944-2.1912-4.2806-5.8464,0.86107-4.344,2.8485-5.4159,4.3667-2.0191,1.5183,2.2774,5.7444,4.4617,4.5548,0-2.7396-4.4618-4.532-8.2801,0.7591-7.5913,4.7745-1.2916,4.7428,1.6588,3.3809,4.7972-0.7591,2.794,1.933,3.5531,2.6921,2.0349-0.2741-2.896,1.455-5.0011,3.866-1.9488,3.0137,3.7412,4.0311,5.9324-0.1406,8.296-2.2774,2.2774,5.314,8.0129,7.7793,14.752,3.671,1.2282,9.8054,4.8042,13.547,6.2294,2.2773-2.2774,11.864-7.1305,20.496-6.8321,5.9734,0.20298,7.5913-2.4566,8.3504-4.7339,0.7592-2.2774-2.2457-0.04752-3.1067-2.0666-1.2917,1.6836-3.5216,1.6202-4.4687-0.58693-3.3582,3.9065-8.1055,5.9752-6.7074-0.18803,0.6931-3.1417,0.2513-5.3456,2.3249-5.502,12.923,2.0824,12.107-6.0961,8.1782-7.1291-4.3879-1.1058-11.467,4.8497-10.456-3.6551,0.4751-3.9946,0.3127-2.5357-1.2055-3.2948-1.5183-0.75912,1.7765-3.9678,4.0539-3.9678,3.6551-0.0861,4.7586-1.7607,6.4333-4.3123,2.2774-1.5182,22.414-1.7608,25.45-0.2425,4.6726,2.121,6.4877,4.4528,2.8959,7.1766,3.2968,0.74331,4.1044,0.41223,3.6937,6.0572-0.0667,3.888-0.3285,8.969-4.8833,8.969s4.1694,3.7012,3.8817,8.9601c-0.2926,4.1043-0.4783,10.134,2.0033,13.626,1.5562,2.2516,3.7886,7.4963,0.5869,10.487-1.027-3.6991-2.8087-6.7231-4.7353-8.9952-1.1098,1.5392-2.0712,4.7171-0.9613,6.5861,1.3607,2.3748,1.314,4.827,1.314,7.8635s-0.891,5.2857-0.6272,10.791c-1.2653-0.3786-2.9036-2.0818-3.7505-3.8553-0.4253,2.0226-1.7461,3.047-2.377,8.7567-2.9068-2.4242-3.7396-5.2834-3.5445-7.0052,0.0703-5.3455-0.6688-4.6093-2.1871-7.6458-0.4294,1.4554-0.2036,3.345,0.3775,6.2506-2.2773-1.5182-3.0526-1.751,0.552,4.3657,2.9706,4.9418,3.8406,18.659,9.7644,21.83,3.7956,0.7591,5.5495,4.2262,7.8269,5.7444,2.2774,1.5183,6.5807,0.6642,11.426,7.0747,8.7196,6.6689,15.285,0.63,10.44-8.7493-1.4807-2.7876-7.4191-6.9341-8.1782-9.9706-4.2895-0.281-8.398-2.2843-7.4349-7.8496-4.9784,0.4622-7.6546-5.5247-4.1242-10.714-6.8024-2.0893-5.7691-11.403,2.4654-12.991,0.6572-8.8215,11.926-17.131,17.46-21.083,4.4778-3.149,16.26-13.138,9.5083-24.19-4.2724-7.0093-12.912-2.487-11.786,4.4528,0.578,3.4536,3.7924,4.1019,8.2802,2.8643,0.1577,3.5946-6.319,10.509-10.816,4.8131,0.102,3.0929-0.5394,7.4507-6.2295,9.1412-3.7956,1.5182-3.7728,4.2104-2.9504,8.296-6.9963-0.17972-10.299-6.9114-8.7809-11.466,1.5183-4.5548,6.3542-4.6092,6.3542-6.8866s-5.5479-2.9503-6.2136-6.7619c-0.7649-4.4654,0.9629-8.1535,4.4458-9.1096-1.5113,5.1575,4.5119,7.705,8.1466,3.0207,6.2927-8.0851,17.371-9.8455,22.289-4.0926,3.3305,3.896,8.3734,13.107,2.2229,22.774-3.7341,5.8689-13.393,13.687-17.174,15.754-1.3771,0.83432-6.1041,4.5915-6.1294,6.7587,3.2696-2.3214,5.9073-2.2395,8.1257-3.1511-0.1365,2.6144-9.1771,7.2839-8.0738,10.977,2.3066-1.8809,9.0826-4.9241,12.624-8.7155,2.0191,7.1083-15.818,13.388-13.473,18.313,2.0244-3.1407,12.612-5.7306,16.823-9.9307-0.2673,4.5251-3.6076,9.259-9.8846,13.023-7.224,4.1083-5.5019,8.3524-3.5127,9.9204,1.3144-6.2768,9.4048-7.9875,14.367-14.382,1.0877,3.2493-1.7835,8.5157-5.2664,12.64-3.3968,3.5215-3.2404,6.2997-0.2038,10.854,3.0365,4.5547,8.382,12.647,6.1046,16.442-2.2773,3.7956,5.407-3.8748,11.167,2.1754,1.5024,1.7336,3.5237,3.9135,8.2705,4.7216-1.4182,1.9538-3.294,3.5165-7.4499,1.7433-4.2649-3.2017-6.479-2.2615-9.2413-0.0157-5.1733,4.915-12.606,8.6176-21.999,0.4305-3.7957-3.7957-5.398-6.6352-9.8369-6.5738,2.2772,5.3138-0.9631,10.424-0.9631,14.22,0,3.7956,0.102,6.5738,6.175,7.333,6.073,0.7591,7.4893,5.5722,10.526,4.813,1.3735-0.6021,2.7975-0.2059,4.2591-0.6839,0.1362,1.5293,0.6423,3.8582-2.2499,4.6173-3.7957,1.5182-1.4853,1.7655,0.0329,4.0428,0.7456,1.3658,0.3888,3.2715,0.5743,5.2596-0.1244,2.4406,2.1042,3.8802,4.528,4.2246-1.694,2.1053-5.0516,2.6191-7.4073,0.6194,1.747,4.7835-0.6843,5.6956-3.7208,3.4183,2.5604,3.9224-2.0134,4.3998-5.8091,2.8815,1.8014,2.1844,3.8762,4.4832,0.3933,5.8995-3.569,3.7412-3.5057,0.8452-5.0239-1.4322-1.5183-2.2774-2.9029,4.6339-4.3667,5.6197-2.411,0.297-3.2246-3.4125-6.2611-4.1717-1.745-1.1897,0.9313-2.0508,2.0032-3.0365,1.3302-0.9858-0.963-1.4005-3.9995,0.1178-3.0365,1.5182-4.147,1.2282-3.1296-3.0999,0.9314-5.1891,2.2844-3.6709,5.2506-2.1368,3.0524-0.7046-4.7495-2.9491,0.4293-6.4748,0.5239-2.3735,2.1535-4.739,4.9809,0.056,3.7956,1.5183,3.2302-3.1282,2.4711-5.4056s-7.2153-6.175-8.7652-9.5559c-2.1616,5.4924-4.5011,8.5589-10.732,10.16,0.6268-2.9149-0.246-5.2216,1.5799-7.1285,2.2774-3.7956-0.7166-5.3092-0.7166-9.1049-3.3582-3.9678-1.2055-11.949-0.3287-16.168z"/>

<path d="m184.71,29.267c0.4778-0.84888,1.3341-3.1232,3.1008-7.5,1.8018-4.464-0.3681-6.169-1.3056-3.669-1.3657,4.7269-6.289,4.464-6.9954,1.6689-2.5695,2.1498-5.5902-1.1805-5.5902-2.4305s0.4537-2.1319,1.7037-2.1319,1.5625-2.1875,0-2.1875-1.875-0.3125-1.875-1.5625-2.3033-1.2754-2.3033-0.02545-0.5139,1.588-1.7639,1.588-1.8703,1.7037-0.3078,2.0162,1.875,2.0463,1.25,3.6088-4.6527,3.343-5.6204,1.074c-1.5451,2.0968-4.7778,2.4491-6.1482-1.3403-1.4768-3.3264-2.6064-0.67125-1.6689,2.1413,0.9375,2.8125,2.5,6.875,2.8125,8.125,2.8125-0.3125,21.562-0.9375,23.75,0.625h0.9617v-0.00001z"/>

</g>

<path d="m160.76,49.801c-3.75-1.5625-6.6944-2.4097-10.444-2.0972-3.75,0.3125-8.4375-1.25-9.375-3.4375s-3.125-5.9375-5.9375-6.25-5,1.875-2.8125,4.6875c2.4375,3.4821,7.8125,12.813,14.375,9.0625,2.5-1.5625,7.1875-0.93753,9.0625-0.62501,1.875,0.31251,5.4444-1.0278,5.1319-1.3403z" fill="url(#lg)"/>

<g stroke="#666" fill="none">

<path d="m203.44,80.829c-1.875,1.875-2.5,5.3125-2.5,5.9375"/>

<path d="m201.88,88.954c-1.5625,2.5-1.875,9.375-1.875,9.375"/>

<path d="m204.69,52.079c-3.4095,3.7912-4.9046,4.8783-6.875,7.5-1.8909,2.4484-2.3145,7.0148-0.3944,9.703"/>

<path d="m205.31,98.642c-3.75,3.4374-3.125,8.125-3.125,8.125"/>

<path d="m209.38,111.63c-0.6348,0.9657,1.8785,4.7839,3.75,4.5166"/>

<path d="m223.13,144.58c-3.75,1.875-5.632,2.5416-9.375,0.9375"/>

<path d="m205.31,168.37c2.5,2.8125,1.882,10.274-1.868,13.087-3.75,2.8125-1.875,0.625-1.875,0.625"/>

<path d="m194.51,138.86c-0.9375,4.375-4.8194,7.2778-4.8194,7.2778"/>

<path d="m195.76,140.87c-1.875,5.625-6.6944,8.7049-6.6944,8.7049"/>

<path d="m195.18,147.7c-3.4375,5-7.9896,8.125-7.9896,8.125"/>

<path d="m193.97,152.97c-2.1875,3.4375-4.9097,5.3576-4.9097,5.3576"/>

<path d="m194.38,156.77c-2.1875,2.5-5,4.0625-5,4.0625"/>

<path d="m196.25,159.27c-1.5625,2.1875-2.8125,4.6875-2.8125,4.6875"/>

<path d="m152.81,147.39c2.5,3.75,6.5625,3.125,6.25,6.25-0.8594,3.6328,0.3516,8.3984,1.3281,10.195"/>

<path d="m152.5,151.77c2.1875,2.5,2.1875,2.8125,2.1875,5s1.875,5,1.875,5"/>

<path d="m148.13,155.2c0.9375,1.875,3.4375,4.6875,3.4375,4.6875"/>

<path d="m141.88,158.02c1.25,1.25,3.125,2.5,3.125,2.5"/>

<path d="m154.69,44.579c1.875-2.1875,6.6041-3.2153,8.1666-1.6528s6.5209,6.9653,6.5209,6.9653"/>

<path d="m169.69,94.267c-0.3125,4.0625-3.125,12.5-3.125,12.5"/>

<path d="m171.56,96.767c-0.3125,4.6874-3.125,11.563-3.125,11.563"/>

<path d="m173.44,101.14c-0.3125,4.6876-2.5,9.0626-2.5,9.0626"/>

<path d="m175.63,106.77c-1.25,4.375-2.5,7.1875-2.5,7.1875"/>

<path d="m176.88,111.14c-0.625,3.125-2.1875,6.25-2.1875,6.25"/>

<path d="m178.44,113.95c0,1.875-0.9375,4.0625-0.9375,4.0625"/>

<path d="m136.88,96.767c-0.625,5.3124-2.1459,6.4616-3.7951,4.1042,0.2222,2.4548-1.1668,4.0589-3.6633,3.0382-0.625,0.8508-2.2291,1.9202-2.2291,1.9202"/>

<path d="m124.06,104.58c-0.625,2.5-0.9375,5.9375-3.4375,5.3125"/>

<path d="m108.44,65.517c2.5,0.3125,4.375,0.3125,4.375,0.3125"/>

<path d="m110.31,69.267c5,0.625,5,0.625,5,0.625"/>

<path d="m113.44,72.704c3.4375,1.875,5.625,0.9375,5.625,0.9375"/>

<path d="m116.56,76.454c2.5,1.25,5.3125,0,5.3125,0"/>

<path d="m121.25,80.829c3.75,0.625,5.625-1.5625,5.625-1.5625"/>

<path d="m165.63,146.14c-1.5625-5.3125-8.4375-11.562-8.4375-11.562"/>

<path d="m160.94,146.14c-0.625-4.0625-7.5-11.25-7.5-11.25"/>

<path d="m157.5,144.89c-0.3125-2.5-7.1875-9.0625-7.1875-9.0625"/>

<path d="m155.31,144.27c-1.5625-2.1875-7.1875-6.25-7.1875-6.25"/>

<path d="m152.5,145.83c0.3125-2.1875-2.8125-3.4375-2.8125-3.4375"/>

<path d="m174.69,141.45c-4.0625,1.875-8.75-0.9375-9.375-4.6875s-7.1875-5-7.1875-5"/>

<path d="m167.81,28.642c1.25,2.5,2.8125,3.125,4.375,1.5625s3.4375-2.1875,3.4375-2.1875"/>

<path d="m172.31,32.426c2.8125,2.9444,7.6874,0.27773,7.6874,0.27773"/>

<path d="m178.75,38.329c1.5625-1.875,6.5625-2.1875,6.5625-2.1875"/>

</g>

<g stroke-width="1" fill="#f00">

<path d="m116,46.326c4.5325-6.7569-1.8725-14.614-4.685-14.926,0.625,2.1875,2.8125,5.625,0.3125,9.375,2.1875,2.5,3.1225,4.2619,4.3725,5.5119v-0.00002,0.03935z"/>

<path d="m106.89,37.269c-2.1246-7.8672-11.857-7.8704-13.985-6.0048,2.0365,1.0141,6.0498,1.7178,7.132,6.0929,3.3212,0.07134,5.0872-0.0084,6.8532-0.08804v-0.00001z"/>

<path d="m94.989,43.734c-8.9303-2.8182-12.26,2.1615-12.837,4.9318,2.2368-0.41527,5.8658-2.2678,9.3625,0.57571,2.6957-1.9412,2.1194-4.3174,3.482-5.4435l-0.0074-0.06401z"/>

<path d="m120.54,147.09c-6.4303-5.0057-14.831,0.535-14.783,3.6178,2.2368-0.4153,6.8162-1.4441,10.313,1.3994,2.6957-1.9412,3.1079-3.8911,4.4706-5.0172h-0.0001z"/>

<path d="m104.34,96.31c-5.1788-6.2917-14.047-2.2823-15.217,0.29452,2.2735,0.08433,6.2198-0.92902,9.0094,2.6108,3.0552-1.3041,4.6314-2.1048,6.2075-2.9053l-0.0001-0.00003z"/>

<path d="m94.705,104.54c-9.5894-3.8008-11.654-0.007-12.676,2.6315,2.2746-0.0445,6.6085-0.5549,9.5941,2.8213,2.9764-1.4752,1.7532-4.065,3.0817-5.4528h-0.00009z"/>

<path d="m91.684,116.93c-7.4276,0.938-7.9412,7.0201-7.0993,9.7216,1.7531-1.45,4.0242-4.8326,8.4622-4.047,1.4124-3.0067-2.0064-4.0282-1.3628-5.6746h-0.00009z"/>

<path d="m109.65,157.22c-8.0526-1.2495-9.8162,6.0826-8.9743,8.7841,1.7531-1.45,4.3368-3.2701,8.7747-2.4845,1.4124-3.0067-0.4439-4.6532,0.1997-6.2996h-0.0001z"/>

<path d="m114.15,170.96c-7.6552,2.7936-5.8834,11.553-3.8418,13.512,0.8352-2.1162,2.4583-6.3651,6.724-7.8198-0.2148-3.315-2.6509-3.94-2.8822-5.6926v0.0001z"/>

<path d="m187.61,178.46c-7.0825-4.0303-11.629,1.5015-11.802,4.3258,2.1541-0.732,4.4679-2.2291,8.3368,0.0827,2.3889-2.3083,2.2786-3.0984,3.4655-4.4084l-0.0001-0.0001z"/>

<path d="m181.62,186.43c-7.0846-2.4169-12.091,3.615-12.032,6.444,2.0866-0.9067,6.1445-2.5889,10.19-0.603,2.1911-2.4969,0.7662-4.1253,1.8414-5.5285h-0.0001l-0.0391-0.0391,0.0391-0.2734z"/>

<path d="m186.33,195.78c-5.7451,5.7792-1.6442,12.709,1.0361,13.616-0.1422-2.2705,0.0123-6.2454,3.2568-9.3735-1.6018-2.9102-3.3395-2.754-4.2929-4.2427v0.0001z"/>

<path d="m203.96,194.31c2.9835,7.5832-2.6419,10.887-5.4623,10.657,1.0307-2.0282,2.5835-3.4228,0.8448-7.5808,2.6242-2.0368,3.1522-2.088,4.6176-3.0767l-0.0001,0.0001z"/>

<path d="m133.27,175.56c-1.0519,8.0808-9.4465,9.6997-11.805,8.1359,1.8823-1.2777,4.8952-4.2737,5.3819-8.7542,3.2817-0.5153,4.6623,0.7758,6.423,0.6182l-0.0001,0.0001z"/>

<path d="m109.78,123.68c-1.0519,8.0808-9.134,7.5122-11.492,5.9484,1.8823-1.2777,3.89-1.2625,4.3767-5.743,3.2817-0.5153,5.355-0.0479,7.1157-0.2055l-0.0001,0.0001z"/>

<path d="m96.096,63.246c-8.0212-1.4375-8.8644-11.134-7.1896-13.414,1.1861,1.9413,2.2337,5.8787,6.6858,6.5793,0.35763,3.3026,0.43077,5.0689,0.50391,6.8352l-0.0001-0.0001z"/>

</g>

<g fill="none">

<path d="m159.34,32.469c-1.3367,9.0901,4.8124,8.288,6.1492,0.53468"/>

<path d="m145,110.2c0.9375,4.0625,2.1875,10,5,12.188,2.8125,2.1875,9.375,5,14.062,5.9375,4.6875,0.9375,8.75,4.375,10.312,7.5,1.5625,3.125,0.625,7.5,0.625,7.5"/>

<path d="m146.56,70.517c-4.6875,1.875-7.1937,6.378-10.938,9.1986-2.2329,1.6142-6.7791,4.7124-9.0625,5.1764,2.2086,1.4849,7.2709,2.7291,11.349,0.5694-1.4561,6.3775,2.129,6.3065,2.0888,16.306,2.3917-0.2818,5-5.625,5.625-8.4374,0.625-2.8125-0.3825-5.6317,0.8119-7.9831-0.0336,2.4818,0.7659,4.5207,2.3284,7.0207s1.8597,5.0249,0.9222,7.5249c3.8996-3.241,3.0665-9.8917,3.0109-14.097,1.9067,1.852,2.3294,8.242,1.0506,12.535,1.7849-0.54735,3.6245-1.6679,4.5121-6.9431,1.4321,2.4156,3.1096,10.353,2.3639,12.256,2.6572,0.0653,4.9751-3.7864,4.7153-8.1518,0.4889,0.39878,1.8223,1.852,2.3112,2.3658,0.5569-1.6641-0.2473-4.6933-0.0556-7.0293,0.6,0.5905,1.9056,1.5155,2.3916,2.2584,0.6902,0.67483,2.3144,2.9043,4.6965,3.9252"/>

<path d="m179.06,56.767c4.0625,2.5,8.0469,6.4844,8.0469,18.984"/>

<path d="m175.63,62.392c4.375,3.4375,5.9375,7.5,5.3125,12.5s-2.8316,4.5971-2.8125,8.75c-0.0424,1.8243,1.877,4.7968,3.125,6.5625,1.4362,1.9735,2.2431,5.2627,1.8156,7.0437"/>

<path d="m180.74,75.829c0.3125,4.0625,0.0467,6.2347,1.4453,8.75,1.2546,2.0935,2.4981,9.3271,0.6844,13.587"/>

<path d="m172.5,74.892c2.8125,3.75,0,4.6875-0.9375,7.8125s2.0893,4.7053,3.4102,8.414"/>

<path d="m169.06,72.079c0.625,4.375,0,5.9375-1.25,8.75s-2.5029,7.0207-0.325,10.015"/>

<path d="m164.06,80.204c-1.875,4.6875-1.8999,11.565,1.2251,15.315"/>

<path d="m161.88,75.204c-4.0625,3.75-5.1515,11.625-3.45,16.525"/>

<path d="m150,79.579c-1.5625,1.875-3.1087,4.0414-3.5851,5.811"/>

<path d="m150,73.017c-1.5625,2.8125-5.23,5.2004-8.0425,6.4504s-4.145,6.0496-4.145,6.0496"/>

<path d="m180,42.079c3.125-2.8125,7.5-3.125,7.5-3.125s1.5625,4.375,0.3125,6.5625-7.8125,2.1875-7.8125,2.1875"/>

<path d="m136.93,70.103c-1.0851,0.87423-2.1875,2.2767-2.0475,3.4452,1.5625,0,6.5711,0.46395,6.5711,0.46395"/>

<path d="m164.06,56.454c0.625,3.125,1.5625,6.5625,0.625,8.75s5.625-3.125,4.6875-5.625,2.5,1.25,1.5625,4.0625,4.6875-3.75,4.0625-6.875,1.875-0.93751,1.875,1.875,2.8125-3.75,2.1875-5.3125-0.625-1.5625-0.625-1.5625"/>

<path d="m138.07,88.346c-3.4756,0.53471-7.8729,1.6041-10.012,3.4756"/>

<path d="m159.35,32.932,6.1266,0.52665" stroke-width="1"/>

</g>

<path d="m170.3,38.752c0,1.1074-0.71819,2.0052-1.6041,2.0052-0.88594,0-1.6041-0.89774-1.6041-2.0052,0-1.1074,0.7182-2.0052,1.6041-2.0052,0.88594,0,1.6041,0.89774,1.6041,2.0052z" transform="matrix(0.81,0,0,0.81,25.10194,4.689267)" fill="#000"/>

</g>

</svg>