<?xml version="1.0" encoding="windows-1252"?>
<!DOCTYPE svg PUBLIC "-//W3C//DTD SVG 1.0//EN" "http://www.w3.org/TR/2001/REC-SVG-20010904/DTD/svg10.dtd">
<svg xmlns="http://www.w3.org/2000/svg" xmlns:xlink="http://www.w3.org/1999/xlink" width="500" height="300" viewBox="0 0 500 300" overflow="visible" enable-background="new 0 0 500 300" xml:space="preserve">
	<g id="flag background">
		<g>
			<rect width="500" height="150"/> 
			<rect y="150" fill="#F9DD16" width="500" height="150"/> 
		</g>
		<g>
			<path fill="none" stroke="#F9DD16" stroke-width="4" d="M169.8105469,47.9970703l6.5244141,6.5244141l6.9033203-1.1352539     c-1.4003906,2.5107422-2.7900391,4.6347656-2.7900391,10.1660156c0,5.5327148,4.3974609,9.1259766,9.5986328,9.1259766     c5.2021484,0,10.2148438-4.0664063,10.2148438-10.1191406c0-6.0512695-5.34375-11.3950195-5.34375-11.3950195     l7.0429688-1.0869141l7.4707031-10.875L216.8085938,48.375h6.9023438c0,0-3.5917969,4.5395508-3.5917969,10.1176758     c0,5.5795898,3.8759766,9.2680664,9.5507813,8.7949219s9.3603516-2.9311523,9.3603516-9.3618164     s-4.2539063-10.6860352-4.2539063-10.6860352l7.5644531-0.3779297L250.0019531,37.5l8.3203125,9.9287109l6.2402344,0.4731445     c0,0-4.1601563,4.5395508-4.1601563,10.4970703s5.7685547,9.1728516,10.5908203,9.1728516     c4.8251953,0,9.2695313-2.4594727,9.2695313-8.7949219S275.6279297,48.375,275.6279297,48.375l7.3769531,0.5668945     l7.8486328-8.9838867l7.3740234,10.9702148l6.6210938,1.3242188c0,0-4.5380859,3.5932617-4.5380859,10.3066406     c0,6.7148438,5.1064453,9.9301758,10.8720703,9.9301758c5.7685547,0,8.3232422-4.5395508,8.3232422-8.5107422     c0-3.9726563-3.4042969-9.9301758-3.4042969-9.9301758l7.0927734,1.1352539l6.9960938-6.9975586l-2.6777344,35.9033203     l-5.5488281,107.6762695c0,0-4.5380859,70.734375-72.2460938,70.734375s-70.734375-70.734375-70.734375-70.734375     l-6.8085938-107.1723633L169.8105469,47.9970703z"/>

			<g>
				<path fill="#F9DD16" d="M169.8105469,47.9970703l6.5244141,6.5244141l6.9033203-1.1352539      c-1.4003906,2.5107422-2.7900391,4.6347656-2.7900391,10.1660156c0,5.5327148,4.3974609,9.1259766,9.5986328,9.1259766      c5.2021484,0,10.2148438-4.0664063,10.2148438-10.1191406c0-6.0512695-5.34375-11.3950195-5.34375-11.3950195      l7.0429688-1.0869141l7.4707031-10.875L216.8085938,48.375h6.9023438c0,0-3.5917969,4.5395508-3.5917969,10.1176758      c0,5.5795898,3.8759766,9.2680664,9.5507813,8.7949219s9.3603516-2.9311523,9.3603516-9.3618164      s-4.2539063-10.6860352-4.2539063-10.6860352l7.5644531-0.3779297L250.0019531,37.5l8.3203125,9.9287109l6.2402344,0.4731445      c0,0-4.1601563,4.5395508-4.1601563,10.4970703s5.7685547,9.1728516,10.5908203,9.1728516      c4.8251953,0,9.2695313-2.4594727,9.2695313-8.7949219S275.6279297,48.375,275.6279297,48.375l7.3769531,0.5668945      l7.8486328-8.9838867l7.3740234,10.9702148l6.6210938,1.3242188c0,0-4.5380859,3.5932617-4.5380859,10.3066406      c0,6.7148438,5.1064453,9.9301758,10.8720703,9.9301758c5.7685547,0,8.3232422-4.5395508,8.3232422-8.5107422      c0-3.9726563-3.4042969-9.9301758-3.4042969-9.9301758l7.0927734,1.1352539l6.9960938-6.9975586l-2.6777344,35.9033203      l-5.5488281,107.6762695c0,0-4.5380859,70.734375-72.2460938,70.734375s-70.734375-70.734375-70.734375-70.734375      l-6.8085938-107.1723633L169.8105469,47.9970703z"/>
				<path fill="none" stroke="#000000" stroke-width="2" d="M169.8105469,47.9970703l6.5244141,6.5244141l6.9033203-1.1352539      c-1.4003906,2.5107422-2.7900391,4.6347656-2.7900391,10.1660156c0,5.5327148,4.3974609,9.1259766,9.5986328,9.1259766      c5.2021484,0,10.2148438-4.0664063,10.2148438-10.1191406c0-6.0512695-5.34375-11.3950195-5.34375-11.3950195      l7.0429688-1.0869141l7.4707031-10.875L216.8085938,48.375h6.9023438c0,0-3.5917969,4.5395508-3.5917969,10.1176758      c0,5.5795898,3.8759766,9.2680664,9.5507813,8.7949219s9.3603516-2.9311523,9.3603516-9.3618164      s-4.2539063-10.6860352-4.2539063-10.6860352l7.5644531-0.3779297L250.0019531,37.5l8.3203125,9.9287109l6.2402344,0.4731445      c0,0-4.1601563,4.5395508-4.1601563,10.4970703s5.7685547,9.1728516,10.5908203,9.1728516      c4.8251953,0,9.2695313-2.4594727,9.2695313-8.7949219S275.6279297,48.375,275.6279297,48.375l7.3769531,0.5668945      l7.8486328-8.9838867l7.3740234,10.9702148l6.6210938,1.3242188c0,0-4.5380859,3.5932617-4.5380859,10.3066406      c0,6.7148438,5.1064453,9.9301758,10.8720703,9.9301758c5.7685547,0,8.3232422-4.5395508,8.3232422-8.5107422      c0-3.9726563-3.4042969-9.9301758-3.4042969-9.9301758l7.0927734,1.1352539l6.9960938-6.9975586l-2.6777344,35.9033203      l-5.5488281,107.6762695c0,0-4.5380859,70.734375-72.2460938,70.734375s-70.734375-70.734375-70.734375-70.734375      l-6.8085938-107.1723633L169.8105469,47.9970703z"/>
			</g>
			<path fill="none" stroke="#000000" stroke-width="2" d="M172.1748047,84.5932617     c0,0,38.0771484-10.3388672,75.6503906-10.3388672s79.6875,9.8349609,79.6875,9.8349609"/>
			<path fill="none" stroke="#000000" stroke-width="4" d="M172.5126953,89.9150391     c0,0,35.7236328-10.6171875,76.8271484-10.6171875s77.8740234,10.5761719,77.8740234,10.5761719"/>
			<g>
				<g>
					<path fill="#FF3000" d="M215.4257813,208.7949219c-0.0410156-0.2929688-0.0849609-0.6054688-0.0849609-0.6054688       s-1.8427734,0.6132813-3.8408203,0.6132813c-0.7089844,0-2.4638672-0.0507813-3.3076172-0.8466797       c-1.5410156-1.4541016-2.0771484-4.0751953-2.0771484-4.0751953s-1.4765625,6.2304688,5.2294922,6.2304688       c4.5908203,0,4.1484375-0.8183594,4.1484375-0.8183594S215.4609375,209.0517578,215.4257813,208.7949219z"/>

				</g>
				<path id="path552_3_" d="M195.8037109,218.2587891      l6.8222656,0.4257813l15.7792969,10.2353516l-7.2509766,5.5429688c0,0-11.0859375-3.6875-10.6611328,4.8408203      l14.3496094,0.2519531l22.3212891-5.0927734v-2.5576172c0,0,5.9707031-0.4277344,7.2509766-0.4277344      c1.2773438,0,20.8916016-9.3808594,20.8916016-9.3808594l1.7080078,0.4277344l-1.7080078,11.9384766l-6.3955078-0.4248047      c-1.7548828,0.8173828-2.3056641,2.6904297-2.5576172,4.2626953h15.3515625c0,0,0.4248047-4.6904297,1.7050781-6.8232422      c1.2773438-2.1318359,5.1181641-6.8232422,5.1181641-6.8232422s4.2626953,5.9716797,14.0683594,8.9560547      c-7.0488281,0.2734375-5.5400391,4.6904297-5.5400391,4.6904297l11.9384766,0.4257813      c0,0,0.8525391-9.3808594,0.4248047-9.3808594c-0.4248047,0-1.3535156-2.8837891-5.9677734-1.2783203      c0.0498047-2.9111328-1.3066406-12.8681641-5.1181641-13.2197266c2.2089844-2.1572266,5.0419922-3.6621094,4.2626953-9.8066406      c-2.1298828-8.1015625-11.9384766-6.3955078-11.9384766-6.3955078l-24.3046875,6.8222656c0,0-9.3808594,2.5576172-10.6611328,0      c-1.2773438-2.5595703,2.1328125-7.2480469,2.1328125-7.2480469s-9.3808594,2.5576172-7.6757813,8.5263672      c1.7080078,5.96875,13.6464844,3.4121094,13.6464844,3.4121094l24.7324219-7.25c0,0,11.0830078-1.7050781,10.2333984,4.6904297      c-0.8525391,6.3974609-3.4130859,4.2646484-3.4130859,4.2646484s-2.1298828-2.1328125-6.3955078-1.7050781      s-38.8037109,7.2480469-41.7890625,3.8378906c0.6298828-5.3671875-5.9677734-12.3662109-5.9677734-12.3662109      l2.5576172-3.4101563l-6.3955078,1.7050781c0,0-6.8232422-2.9853516-17.0566406,3.4111328      c-0.6005859,3.0839844,0,4.2626953,0,4.2626953s5.1181641-2.5576172,5.1181641,1.7060547s-3.4130859,1.28125-3.4130859,1.28125      v4.2617188c0,0,6.3984375-0.8515625,6.3984375-1.7060547c0-0.8505859-1.0048828,3.7626953-1.0048828,3.7626953      l-8.8037109-0.3515625C208.5966797,216.5527344,198.7880859,208.0253906,195.8037109,218.2587891z"/>
				<g>
					<path fill="#F9DD16" d="M220.4736328,201.6621094l-2.6630859,2.0517578c0,0-2.1650391-1.7851563,0.3574219-2.1533203       C220.6289063,201.2021484,220.4736328,201.6621094,220.4736328,201.6621094z"/>
				</g>
			</g>
			<g>
				<g>
					<path fill="#FF3000" d="M209.3378906,156.722168c-0.0498047-0.3603516-0.1025391-0.7470703-0.1025391-0.7470703       s-2.2646484,0.7558594-4.7226563,0.7558594c-0.8701172,0-3.0322266-0.0629883-4.0664063-1.0400391       c-1.8955078-1.7885742-2.5546875-5.0126953-2.5546875-5.0126953s-1.8164063,7.659668,6.4306641,7.659668       c5.6425781,0,5.1005859-1.0048828,5.1005859-1.0048828S209.3818359,157.0371094,209.3378906,156.722168z"/>

				</g>
				<path id="path552_2_" d="M185.2119141,168.3574219      l8.390625,0.5244141l19.4003906,12.5849609l-8.9150391,6.8134766c0,0-13.6318359-4.5322266-13.109375,5.953125      l17.6445313,0.3095703l27.4453125-6.2626953v-3.1445313c0,0,7.3417969-0.5244141,8.9150391-0.5244141      s25.6904297-11.5341797,25.6904297-11.5341797l2.0976563,0.5244141l-2.0976563,14.6787109l-7.8632813-0.5224609      c-2.1591797,1.0078125-2.8388672,3.3105469-3.1464844,5.2421875h18.8759766c0,0,0.5214844-5.7666016,2.0947266-8.3886719      s6.2929688-8.3891602,6.2929688-8.3891602s5.2441406,7.340332,17.2998047,11.0112305      C295.5615234,187.5703125,297.4160156,193,297.4160156,193l14.6777344,0.5234375c0,0,1.0488281-11.5341797,0.5244141-11.5341797      s-1.6640625-3.5458984-7.3417969-1.5732422c0.0644531-3.5771484-1.6025391-15.8203125-6.2900391-16.2509766      c2.7158203-2.6542969,6.1992188-4.5043945,5.2412109-12.0600586      c-2.6191406-9.9609375-14.6777344-7.8647461-14.6777344-7.8647461l-29.8857422,8.3891602c0,0-11.5341797,3.1450195-13.1074219,0      c-1.5732422-3.1464844,2.6220703-8.9135742,2.6220703-8.9135742s-11.5341797,3.1464844-9.4394531,10.4868164      c2.0976563,7.3388672,16.7783203,4.1938477,16.7783203,4.1938477l30.4101563-8.9135742      c0,0,13.6289063-2.0961914,12.5830078,5.7685547c-1.0488281,7.8632813-4.1953125,5.2426758-4.1953125,5.2426758      s-2.6191406-2.6220703-7.8632813-2.0976563c-5.2441406,0.5258789-47.7128906,8.9121094-51.3837891,4.7182617      c0.7734375-6.5991211-7.3388672-15.2036133-7.3388672-15.2036133l3.1464844-4.1953125l-7.8632813,2.0976563      c0,0-8.390625-3.6694336-20.9736328,4.1938477c-0.7382813,3.7939453,0,5.2441406,0,5.2441406      s6.2929688-3.1464844,6.2929688,2.0961914s-4.1953125,1.574707-4.1953125,1.574707v5.2426758      c0,0,7.8662109-1.050293,7.8662109-2.0991211c0-1.0473633-1.2333984,4.6259766-1.2333984,4.6259766l-10.828125-0.4306641      C200.9414063,166.2612305,188.8828125,155.7744141,185.2119141,168.3574219z"/>
				<g>
					<path fill="#F9DD16" d="M215.5488281,147.9506836l-3.2783203,2.5224609c0,0-2.6630859-2.1958008,0.4423828-2.6484375       C215.7363281,147.3837891,215.5488281,147.9506836,215.5488281,147.9506836z"/>
				</g>
			</g>
			<g>
				<g>
					<path fill="#FF3000" d="M208.5820313,101.8740234c-0.0498047-0.3603516-0.1025391-0.7456055-0.1025391-0.7456055       s-2.2646484,0.7543945-4.7255859,0.7543945c-0.8671875,0-3.0292969-0.0615234-4.0634766-1.0400391       c-1.8955078-1.7885742-2.5546875-5.0112305-2.5546875-5.0112305s-1.8164063,7.659668,6.4306641,7.659668       c5.6425781,0,5.1005859-1.0048828,5.1005859-1.0048828S208.6259766,102.1904297,208.5820313,101.8740234z"/>

				</g>
				<path id="path552" d="M184.4560547,113.5107422      l8.3886719,0.5244141l19.3994141,12.5830078l-8.9121094,6.815918c0,0-13.6318359-4.5336914-13.109375,5.953125      l17.6445313,0.309082l27.4453125-6.262207v-3.1450195c0,0,7.3417969-0.5244141,8.9150391-0.5244141      c1.5703125,0,25.6904297-11.5356445,25.6904297-11.5356445l2.0976563,0.5244141l-2.0976563,14.6806641l-7.8662109-0.5229492      c-2.15625,1.0063477-2.8359375,3.309082-3.1435547,5.2426758h18.8759766c0,0,0.5214844-5.7685547,2.0947266-8.3891602      c1.5732422-2.6220703,6.2929688-8.390625,6.2929688-8.390625s5.2412109,7.3417969,17.2998047,11.0112305      c-8.6689453,0.3383789-6.8144531,5.7685547-6.8144531,5.7685547l14.6806641,0.5229492      c0,0,1.0488281-11.5341797,0.5244141-11.5341797s-1.6669922-3.5463867-7.3417969-1.5732422      c0.0615234-3.5771484-1.6025391-15.8203125-6.2900391-16.2524414c2.7128906-2.652832,6.1992188-4.5029297,5.2412109-12.0600586      c-2.6191406-9.9609375-14.6806641-7.8632813-14.6806641-7.8632813L258.9082031,97.78125c0,0-11.5341797,3.1464844-13.1103516,0      c-1.5703125-3.1450195,2.625-8.9121094,2.625-8.9121094s-11.5371094,3.1450195-9.4394531,10.4868164      c2.0976563,7.3388672,16.7783203,4.1923828,16.7783203,4.1923828l30.4101563-8.9121094      c0,0,13.6289063-2.0961914,12.5830078,5.7670898c-1.0488281,7.8647461-4.1953125,5.2426758-4.1953125,5.2426758      s-2.6191406-2.6220703-7.8632813-2.0976563c-5.2441406,0.5258789-47.7128906,8.9135742-51.3837891,4.7197266      c0.7734375-6.5991211-7.3388672-15.2050781-7.3388672-15.2050781l3.1464844-4.1938477l-7.8632813,2.0976563      c0,0-8.390625-3.6708984-20.9736328,4.1938477c-0.7382813,3.7924805,0,5.2426758,0,5.2426758      s6.2929688-3.1464844,6.2929688,2.0976563c0,5.2426758-4.1953125,1.5732422-4.1953125,1.5732422v5.2426758      c0,0,7.8632813-1.0488281,7.8632813-2.0976563s-1.2333984,4.6259766-1.2333984,4.6259766l-10.8251953-0.4321289      C200.1855469,111.4130859,188.1269531,100.9277344,184.4560547,113.5107422z"/>
				<g>
					<path fill="#F9DD16" d="M214.7929688,93.1040039L211.5146484,95.625c0,0-2.6630859-2.1943359,0.4394531-2.6469727       C214.9804688,92.5371094,214.7929688,93.1040039,214.7929688,93.1040039z"/>
				</g>
			</g>
			<polyline fill="none" stroke="#000000" stroke-width="2" points="329.2324219,61.0458984 320.6396484,77.878418      296.4316406,73.5292969 290.0976563,49.8881836 282.5302734,71.5429688 256.8105469,70.21875 250.1894531,47.9970703      243.0966797,69.8408203 217.1865234,71.7319336 209.3378906,50.0771484 202.7197266,73.5292969 177.6591797,78.1625977      170.7568359,61.0458984 "/>
		</g>
	</g>

</svg>