<?xml version="1.0" encoding="UTF-8" standalone="no"?>
<!-- Created with Inkscape (http://www.inkscape.org/) -->
<svg xmlns:dc="http://purl.org/dc/elements/1.1/" xmlns:cc="http://creativecommons.org/ns#" xmlns:rdf="http://www.w3.org/1999/02/22-rdf-syntax-ns#" xmlns:svg="http://www.w3.org/2000/svg" xmlns="http://www.w3.org/2000/svg" xmlns:sodipodi="http://sodipodi.sourceforge.net/DTD/sodipodi-0.dtd" xmlns:inkscape="http://www.inkscape.org/namespaces/inkscape" id="svg2" sodipodi:version="0.32" inkscape:version="0.46" width="1000" height="600" xml:space="preserve" sodipodi:docname="Flag_of_Mecklenburg-Western_Pomerania_(state).svg" inkscape:output_extension="org.inkscape.output.svg.inkscape" version="1.0"><metadata id="metadata7"><rdf:RDF><cc:Work rdf:about=""><dc:format>image/svg+xml</dc:format><dc:type rdf:resource="http://purl.org/dc/dcmitype/StillImage"/></cc:Work></rdf:RDF></metadata><defs id="defs5"><inkscape:perspective sodipodi:type="inkscape:persp3d" inkscape:vp_x="0 : 526.18109 : 1" inkscape:vp_y="0 : 1000 : 0" inkscape:vp_z="744.09448 : 526.18109 : 1" inkscape:persp3d-origin="372.04724 : 350.78739 : 1" id="perspective9"/><clipPath clipPathUnits="userSpaceOnUse" id="clipPath19"><path d="M -29,842 L 625,842 L 625,-2 L -29,-2 L -29,842 z" id="path21"/></clipPath><clipPath clipPathUnits="userSpaceOnUse" id="clipPath25"><path d="M 0.06,842.04 L 596.1,842.04 L 596.1,0 L 0.06,0 L 0.06,842.04 z" id="path27"/></clipPath><clipPath clipPathUnits="userSpaceOnUse" id="clipPath35"><path d="M 378.82,528.19 L 615.63,528.19 L 615.63,56.51 L 378.82,56.51 L 378.82,528.19 z" clip-rule="evenodd" id="path37"/></clipPath><clipPath clipPathUnits="userSpaceOnUse" id="clipPath41"><path d="M -29,842 L 625,842 L 625,-2 L -29,-2 L -29,842 z" id="path43"/></clipPath><clipPath clipPathUnits="userSpaceOnUse" id="clipPath47"><path d="M 0.06,842.04 L 596.1,842.04 L 596.1,0 L 0.06,0 L 0.06,842.04 z" id="path49"/></clipPath><clipPath clipPathUnits="userSpaceOnUse" id="clipPath351"><path d="M -29,842 L 625,842 L 625,-2 L -29,-2 L -29,842 z" id="path353"/></clipPath><clipPath clipPathUnits="userSpaceOnUse" id="clipPath357"><path d="M 0.06,842.04 L 596.1,842.04 L 596.1,0 L 0.06,0 L 0.06,842.04 z" id="path359"/></clipPath><clipPath clipPathUnits="userSpaceOnUse" id="clipPath667"><path d="M -29,842 L 625,842 L 625,-2 L -29,-2 L -29,842 z" id="path669"/></clipPath><clipPath clipPathUnits="userSpaceOnUse" id="clipPath673"><path d="M 0.06,842.04 L 596.1,842.04 L 596.1,0 L 0.06,0 L 0.06,842.04 z" id="path675"/></clipPath><clipPath clipPathUnits="userSpaceOnUse" id="clipPath757"><path d="M -29,842 L 625,842 L 625,-2 L -29,-2 L -29,842 z" id="path759"/></clipPath><clipPath clipPathUnits="userSpaceOnUse" id="clipPath763"><path d="M 0.06,842.04 L 596.1,842.04 L 596.1,0 L 0.06,0 L 0.06,842.04 z" id="path765"/></clipPath></defs><sodipodi:namedview inkscape:window-height="712" inkscape:window-width="1024" inkscape:pageshadow="2" inkscape:pageopacity="0.0" guidetolerance="10.0" gridtolerance="10.0" objecttolerance="10.0" borderopacity="1.0" bordercolor="#666666" pagecolor="#ffffff" id="base" showgrid="false" inkscape:zoom="0.845" inkscape:cx="500" inkscape:cy="300.00001" inkscape:window-x="-4" inkscape:window-y="-4" inkscape:current-layer="g11"/><g id="g11" inkscape:groupmode="layer" inkscape:label="manual5" transform="matrix(1.25,0,0,-1.25,-252.85902,2067.8233)"><path d="M 202.28722,1526.2586 L 1002.2872,1526.2586 L 1002.2872,1302.2586 L 202.28722,1302.2586 L 202.28722,1526.2586 z" style="fill:#ffffff;fill-opacity:1;fill-rule:nonzero;stroke:none" id="path11"/><path d="M 202.28722,1430.259 L 442.28722,1430.259 L 442.28722,1398.2582 L 202.28722,1398.2582 L 202.28722,1430.259 z" style="fill:#f9f400;fill-opacity:1;fill-rule:nonzero;stroke:none" id="path369"/><path d="M 610.63258,1480.2434 C 610.55638,1480.6898 610.55638,1482.177 611.47614,1482.6962 C 612.39586,1483.2182 612.54822,1482.2502 613.08426,1483.145 C 613.62314,1484.0366 613.7755,1485.1514 613.54414,1485.9698 C 613.31562,1486.7886 613.99838,1487.903 614.53442,1487.5334 C 615.07046,1487.161 617.44882,1483.2918 618.90458,1482.2502 C 620.36038,1481.2086 622.50738,1480.2434 623.11962,1480.393 C 623.73182,1480.5398 623.73182,1481.6546 623.27194,1482.2502 C 622.8121,1482.8454 620.43658,1484.9286 620.43658,1484.9286 C 620.43658,1484.9286 620.97258,1486.2662 620.5889,1487.6798 C 620.20802,1489.0938 618.13722,1490.7986 617.36982,1491.4674 C 616.60526,1492.1362 616.52906,1493.2514 617.21746,1494.0726 C 617.9087,1494.8882 618.67326,1494.5186 619.36446,1493.8466 C 620.05286,1493.1778 620.82026,1493.1778 621.89234,1493.9962 C 622.96726,1494.8146 622.88826,1496.7478 622.88826,1496.7478 C 622.88826,1496.7478 624.7221,1497.3434 624.87446,1496.7478 C 625.02962,1496.1522 624.87446,1490.9538 625.87318,1487.6798 C 626.8691,1484.4094 627.40514,1484.6322 627.40514,1484.6322 C 627.40514,1484.6322 628.70858,1484.6322 630.08822,1485.301 C 631.46782,1485.9698 631.62014,1486.4158 631.62014,1488.2022 C 631.62014,1489.9858 631.0841,1491.987 632.31138,1492.8054 C 633.53866,1493.6238 634.15086,1493.1778 634.22702,1492.4354 C 634.30322,1491.6906 633.77282,1489.2438 635.29914,1488.5746 C 636.82546,1487.903 638.51258,1487.903 638.51258,1487.903 C 638.51258,1487.903 639.66086,1486.8618 638.8201,1485.4502 C 637.97654,1484.0366 635.99034,1485.5242 635.14678,1485.0018 C 634.30322,1484.4826 633.9957,1481.5814 633.9957,1481.5814 C 633.9957,1481.5814 631.8515,1479.8766 631.39166,1478.6126 C 630.93178,1477.3482 630.4719,1476.5294 630.4719,1476.5294 C 630.4719,1476.5294 630.4719,1475.1182 630.77658,1474.523 C 631.0841,1473.9274 631.7725,1472.7366 632.38754,1472.3642 C 632.99978,1471.9942 634.90978,1470.363 635.9057,1468.8022 C 636.90162,1467.239 636.97778,1465.901 636.97778,1465.901 C 636.97778,1465.901 638.43642,1465.2322 639.27998,1464.2642 C 640.1207,1463.2962 640.8881,1461.2898 641.88402,1460.8434 C 642.87994,1460.395 643.57118,1460.3218 643.57118,1460.3218 L 643.87866,1460.3218 C 643.87866,1460.3218 644.34418,1462.1814 645.33446,1463.073 C 646.32474,1463.9678 647.8567,1464.3374 647.8567,1464.3374 C 647.8567,1464.3374 647.47298,1460.6206 647.78054,1459.9522 C 648.08522,1459.2802 650.15606,1456.3874 650.76826,1455.4954 C 651.3833,1454.601 654.60242,1450.7346 655.36698,1450.585 C 656.13438,1450.4354 657.42934,1451.3298 658.12054,1451.8494 C 658.80894,1452.3714 661.1873,1454.5274 663.71518,1456.1642 C 666.2459,1457.8014 670.9913,1459.9522 672.4471,1462.1814 C 673.90286,1464.4138 673.67434,1464.4138 673.51918,1465.6018 C 673.36682,1466.7926 672.96622,1469.3866 672.12546,1469.9822 C 671.2819,1470.5746 671.26214,1469.8158 670.77406,1471.1278 C 670.50038,1471.8586 669.6117,1477.207 669.15182,1478.6886 C 668.69194,1480.1674 667.70166,1482.5494 667.70166,1483.069 C 667.70166,1483.5906 665.63366,1494.8146 666.47442,1495.8562 C 667.31798,1496.8974 668.53678,1497.7162 669.91638,1497.939 C 671.29882,1498.1618 671.83206,1498.6078 672.06338,1499.1302 C 672.29474,1499.649 674.36274,1504.5514 675.9737,1505.8918 C 677.58182,1507.2294 679.72038,1507.5262 680.87146,1507.303 C 682.01974,1507.0798 682.32726,1506.2618 681.4075,1505.2966 C 680.48778,1504.3282 679.64422,1502.545 679.64422,1502.0958 C 679.64422,1501.6502 679.64422,1500.9866 679.64422,1500.9866 C 679.64422,1500.9866 679.83038,1501.2098 682.32726,1502.4682 C 684.2429,1503.4366 685.5125,1503.8402 688.92062,1504.5514 C 691.05914,1504.9974 694.8143,1505.2202 696.27006,1504.4778 C 697.72586,1503.7326 697.72586,1502.9906 697.72586,1502.9906 C 697.72586,1502.9906 696.11774,1502.8354 695.04562,1501.873 C 693.97074,1500.9134 691.20586,1499.1302 689.60334,1498.1618 C 688.00086,1497.1938 685.24166,1495.0374 685.24166,1493.773 C 685.24166,1492.509 686.77362,1490.5814 687.61718,1489.317 C 688.46074,1488.0526 688.68362,1485.1514 689.90806,1483.8134 C 691.13534,1482.473 691.82654,1481.3582 692.5911,1481.5814 C 693.3585,1481.8042 694.25286,1482.5266 694.50678,1483.069 C 694.89046,1483.887 694.58574,1484.779 694.58574,1484.779 C 694.58574,1484.779 698.59766,1484.9198 696.57762,1480.0994 C 695.54502,1477.6358 691.05914,1477.3482 691.05914,1477.3482 C 691.05914,1477.3482 690.13942,1474.5966 692.36258,1473.109 C 694.58574,1471.6218 697.03746,1472.141 697.03746,1472.141 C 697.03746,1472.141 698.56942,1469.7678 695.35034,1467.761 C 692.13122,1465.7514 691.2115,1468.2066 691.2115,1468.2066 C 691.2115,1468.2066 690.90398,1464.1906 691.36666,1462.1814 C 691.8237,1460.175 692.82246,1459.8022 693.81838,1459.8022 C 694.8143,1459.8022 697.8867,1461.4394 699.33682,1462.9266 C 700.78698,1464.4138 702.4713,1465.8334 703.31486,1467.761 C 704.15842,1469.6886 704.46594,1470.507 705.9217,1471.695 C 707.3775,1472.8862 708.4919,1473.665 708.4919,1473.665 C 708.4919,1473.665 709.29314,1472.7366 709.29314,1472.2174 C 709.29314,1471.695 709.14082,1471.0998 709.14082,1471.0998 C 709.14082,1471.0998 710.89566,1471.0262 712.43042,1472.7366 C 713.96238,1474.4466 720.93098,1484.5502 723.23034,1490.7986 C 725.5297,1497.047 727.21682,1500.5354 727.98142,1501.7262 C 728.74878,1502.9146 731.42622,1502.8414 732.57446,1502.395 C 733.72554,1501.9494 734.5663,1500.1714 734.4901,1497.6422 C 734.41394,1495.111 734.10078,1491.1034 732.72966,1487.3106 C 731.35566,1483.5146 727.90522,1477.3482 727.90522,1477.3482 C 727.90522,1477.3482 732.72966,1480.6898 734.72146,1482.995 C 736.7133,1485.301 738.01674,1487.7618 739.16782,1490.4322 C 740.3161,1493.1046 742.14994,1494.9642 744.14178,1496.525 C 746.13358,1498.0886 748.6643,1497.7838 748.20442,1493.1046 C 747.74454,1488.425 746.66402,1483.3734 743.6819,1477.8702 C 740.69978,1472.3642 736.32398,1466.9422 734.03026,1464.5602 C 731.73938,1462.1814 728.59642,1458.0974 728.13658,1456.9066 C 727.6767,1455.7186 728.68106,1455.569 730.74346,1456.5342 C 732.80582,1457.5022 735.56502,1461.6622 738.1691,1464.1146 C 740.77598,1466.5698 743.91322,1470.953 745.52138,1473.9274 C 747.13234,1476.9018 749.12418,1482.6226 750.50378,1483.441 C 751.88338,1484.2594 753.19246,1483.963 753.79906,1482.8454 C 754.40562,1481.7306 755.17302,1478.539 754.94166,1474.8194 C 754.71314,1471.0998 752.49562,1465.5962 748.28062,1460.3218 C 744.06558,1455.047 741.0835,1451.7674 737.78538,1449.0978 C 734.4901,1446.4246 732.6591,1445.0138 731.8917,1443.8226 C 731.1243,1442.6318 730.43594,1441.3674 730.43594,1441.3674 C 730.43594,1441.3674 736.2619,1442.6318 740.2399,1444.345 C 744.21794,1446.055 747.66838,1448.5754 749.12418,1450.9574 C 750.57994,1453.3366 751.03982,1454.5274 751.03982,1454.9734 C 751.03982,1455.4194 752.81158,1456.0146 753.49434,1454.231 C 754.1771,1452.4446 755.31974,1449.7746 754.25326,1446.501 C 753.18682,1443.2274 751.41786,1439.8126 743.75806,1434.9046 C 736.1011,1429.9938 723.99774,1426.3562 723.99774,1426.3562 C 723.99774,1426.3562 726.38174,1424.945 731.2795,1424.6458 C 736.17726,1424.3494 738.55278,1423.977 739.93242,1424.6458 C 741.31202,1425.3146 743.14586,1426.5058 744.14178,1425.7634 C 745.13766,1425.0186 745.43674,1422.9354 743.75806,1420.3334 C 742.07938,1417.7286 738.92802,1415.5046 734.4901,1414.6126 C 730.05222,1413.7186 721.4755,1414.5366 718.71626,1415.1322 C 715.95706,1415.7278 714.42226,1416.323 714.42226,1416.323 C 714.42226,1416.323 716.4169,1412.4542 717.10534,1410.4474 C 717.79654,1408.4378 717.56518,1404.8762 716.64546,1402.791 C 715.7257,1400.7106 712.81414,1398.701 712.81414,1398.701 C 712.81414,1398.701 711.82386,1404.659 709.06462,1406.437 C 706.30542,1408.215 704.86374,1407.7522 704.86374,1407.7522 C 704.86374,1407.7522 706.45774,1405.8414 705.9217,1402.2714 C 705.38566,1398.701 703.39102,1395.063 703.39102,1395.063 C 703.39102,1395.063 708.15054,1389.4782 710.2129,1386.3598 C 712.27526,1383.2442 715.1135,1379.2278 718.02506,1378.1102 C 720.93946,1376.9954 727.14066,1375.655 729.8209,1380.4158 C 732.50394,1385.177 731.35566,1386.9554 730.81962,1389.3374 C 730.28074,1391.7158 728.98578,1394.609 731.2005,1398.7746 C 733.41802,1402.9402 734.6453,1405.613 734.41394,1407.1002 C 734.18542,1408.5874 733.03434,1409.925 733.72554,1410.817 C 734.41394,1411.7118 737.32834,1411.3394 738.70794,1411.1894 C 740.08758,1411.0426 739.70386,1410.9666 741.15966,1411.9346 C 742.61546,1412.8998 747.12106,1416.803 749.3527,1419.439 C 751.1047,1421.5074 750.51222,1423.2262 749.2765,1423.1586 C 748.7433,1423.1302 746.74862,1422.4898 746.59346,1422.117 C 746.4411,1421.7446 746.28878,1424.0506 747.51602,1425.391 C 748.74046,1426.7286 752.12038,1426.5818 753.49434,1424.945 C 754.8655,1423.3078 755.5567,1421.9674 754.71314,1418.2506 C 754.1263,1415.6626 751.95958,1413.8678 750.27242,1411.1162 C 748.58814,1408.3642 747.82074,1405.6918 747.82074,1405.6918 C 747.82074,1405.6918 752.35174,1406.5106 753.26302,1404.7998 C 754.1771,1403.0898 753.79906,1399.9654 753.79906,1399.9654 C 753.79906,1399.9654 750.35142,1399.7426 749.96774,1399.3702 C 749.58406,1398.9974 746.67246,1394.4682 746.13358,1392.6842 C 745.59754,1390.8978 743.61138,1385.1038 740.85214,1381.0118 C 738.0929,1376.9222 731.01994,1373.033 725.76106,1372.093 C 721.32878,1371.3002 717.33666,1372.6126 715.18966,1373.953 C 713.04266,1375.291 710.44426,1377.2186 710.44426,1377.2186 C 710.44426,1377.2186 710.06902,1369.779 710.82794,1366.0678 C 711.58686,1362.3566 713.5787,1360.6466 715.8019,1357.5954 C 718.02506,1354.5446 721.77458,1350.983 722.23442,1349.047 C 722.6943,1347.1138 721.62786,1343.4026 720.0169,1341.2434 C 718.40874,1339.0874 716.4931,1338.9406 716.03322,1338.8646 C 715.57334,1338.791 716.03322,1337.3038 715.7257,1336.5586 C 715.41818,1335.8166 714.65362,1335.4438 714.65362,1335.4438 C 714.65362,1335.4438 714.1091,1337.3774 711.89158,1337.7498 C 709.67686,1338.1222 708.98846,1336.7814 708.98846,1335.7406 C 708.98846,1334.699 709.21698,1333.2198 709.21698,1333.2198 C 709.21698,1333.2198 707.99254,1332.6978 707.22514,1332.9206 C 706.45774,1333.1438 704.84962,1333.367 705.15434,1331.8794 C 705.35462,1330.9062 707.53266,1330.3922 708.1449,1327.7138 C 708.66118,1325.459 705.69318,1324.443 705.69318,1324.443 C 705.69318,1324.443 705.3095,1327.491 703.39102,1327.4178 C 701.47534,1327.3414 700.7785,1326.8222 700.2509,1325.1118 C 699.7205,1323.4014 700.3271,1322.9558 700.3271,1322.9558 C 700.3271,1322.9558 696.9613,1321.8382 696.72994,1323.4746 C 696.50142,1325.1118 696.72994,1326.2266 698.26474,1327.5646 C 699.19858,1328.3826 697.95722,1330.0958 697.26882,1330.0198 C 696.57762,1329.9462 695.5027,1327.491 694.20206,1327.4178 C 692.89862,1327.3414 692.13122,1325.7074 691.9789,1324.889 C 691.8237,1324.0706 690.91242,1323.1786 689.3043,1323.6978 C 687.69334,1324.2198 686.77362,1324.739 686.3899,1324.739 C 686.00622,1324.739 686.08238,1325.7074 687.08114,1326.6726 C 688.07706,1327.6406 689.2253,1328.2358 688.00086,1330.3922 C 686.77362,1332.5482 686.62126,1332.3254 685.62254,1332.5482 C 684.62662,1332.7714 683.93822,1332.475 683.93822,1332.475 C 683.93822,1332.475 683.93822,1334.699 685.39398,1336.0394 C 686.84978,1337.3774 687.69334,1337.7498 687.69334,1337.7498 C 687.69334,1337.7498 686.7849,1340.1486 686.77362,1340.225 C 686.70306,1340.7838 686.59586,1341.969 688.99678,1341.989 C 691.73626,1342.0114 691.9027,1343.1714 691.9789,1345.031 C 692.05506,1346.891 691.9027,1347.4862 691.9027,1347.4862 C 691.9027,1347.4862 695.58166,1347.5542 696.04154,1345.7002 C 696.50142,1343.8486 695.81018,1341.1702 695.81018,1341.1702 C 695.81018,1341.1702 698.11802,1340.5746 699.33682,1341.393 C 700.55562,1342.2118 700.17194,1343.0242 701.47534,1344.7346 C 702.77878,1346.445 703.62238,1347.4862 703.31486,1349.4958 C 703.01014,1351.5022 701.48382,1353.145 699.94906,1354.2542 C 698.41706,1355.3634 696.8851,1357.4458 696.8851,1357.4458 C 696.8851,1357.4458 694.21898,1355.5046 693.20334,1354.6942 C 692.13406,1353.8362 689.76134,1352.6254 688.07706,1353.8078 C 686.3899,1354.9906 684.62662,1356.5542 684.62662,1356.5542 C 684.62662,1356.5542 688.5369,1357.4458 688.46074,1360.8694 C 688.38174,1364.2898 686.69742,1367.5554 686.3899,1371.1254 C 686.08238,1374.6954 685.7777,1378.9286 685.7777,1378.9286 C 685.7777,1378.9286 676.4251,1379.815 670.68378,1376.9222 C 664.94246,1374.0266 662.71926,1370.1518 665.09482,1365.5458 C 667.47034,1360.9426 670.83614,1360.8694 670.75994,1358.5606 C 670.68378,1356.255 670.52298,1354.8354 668.92046,1354.4714 C 667.31798,1354.1074 666.47442,1353.8078 666.47442,1353.8078 C 666.47442,1353.8078 663.56282,1350.7602 662.79546,1350.2378 C 662.03086,1349.7186 661.1873,1349.3462 661.1083,1348.601 C 661.03214,1347.8586 660.19138,1347.1138 660.19138,1347.1138 C 660.19138,1347.1138 659.33934,1349.1234 657.20082,1349.2702 C 655.06226,1349.4198 653.98738,1348.7506 654.06354,1347.8586 C 654.14254,1346.9642 654.9071,1346.2218 654.9071,1346.2218 C 654.9071,1346.2218 652.60774,1345.999 651.53566,1346.1486 C 650.46358,1346.2954 650.0037,1345.8494 648.5451,1345.477 C 647.0893,1345.107 645.71818,1345.6266 645.71818,1345.6266 C 645.71818,1345.6266 645.63354,1343.9982 646.4771,1342.0622 C 647.32066,1340.129 647.86234,1339.387 645.71818,1338.4922 C 643.57118,1337.6002 641.34798,1338.269 641.34798,1338.269 C 641.34798,1338.269 642.80378,1341.097 641.11946,1341.7654 C 639.43234,1342.4346 638.35742,1342.3614 637.66902,1341.5426 C 636.97778,1340.7246 636.44174,1339.7566 636.44174,1339.7566 C 636.44174,1339.7566 633.69662,1341.6246 635.07062,1343.699 C 636.44174,1345.7762 639.04862,1348.6774 639.04862,1348.6774 C 639.04862,1348.6774 635.29914,1348.4546 633.15494,1348.1554 C 631.00794,1347.8586 629.16846,1348.305 628.47726,1349.4198 C 627.78886,1350.5346 627.94118,1351.2794 627.94118,1351.2794 C 627.94118,1351.2794 630.01202,1350.0206 631.31546,1352.2474 C 632.6161,1354.4714 631.7725,1355.3634 630.62426,1356.255 C 629.47314,1357.1494 629.24462,1357.1494 629.24462,1357.1494 C 629.24462,1357.1494 629.24462,1358.7102 630.93178,1359.3794 C 632.6161,1360.0506 634.98598,1358.7862 635.75334,1358.0414 C 636.52074,1357.299 637.74518,1356.5542 638.66494,1357.0734 C 639.58466,1357.5954 639.43234,1358.4138 639.43234,1359.083 C 639.43234,1359.7518 637.1245,1360.0506 635.9057,1360.497 C 634.6869,1360.9426 634.07186,1361.2474 633.9957,1363.099 C 633.9195,1364.9534 635.9819,1365.5458 635.9819,1365.5458 C 635.9819,1365.5458 638.1289,1363.2542 639.73702,1364.067 C 641.34798,1364.8766 642.11538,1365.5458 642.11538,1366.3642 C 642.11538,1367.1826 642.49906,1367.8542 642.49906,1367.8542 C 642.49906,1367.8542 645.03542,1367.2502 646.10186,1364.8766 C 647.1655,1362.503 646.40654,1362.2802 645.9467,1360.6466 C 645.48682,1359.0098 646.10186,1358.2646 646.10186,1358.2646 C 646.10186,1358.2646 648.92878,1358.191 651.4595,1359.3058 C 653.98738,1360.4206 655.98202,1361.4622 655.98202,1361.4622 C 655.98202,1361.4622 655.13846,1364.2082 652.76294,1365.7714 C 650.38458,1367.3322 646.86078,1370.4622 646.55326,1373.6542 C 646.24574,1376.8458 643.64734,1379.6738 640.42822,1379.8206 C 637.20914,1379.9702 633.45966,1378.7058 630.3929,1381.9794 C 627.32898,1385.2506 628.47726,1386.509 628.47726,1386.509 C 628.47726,1386.509 630.24054,1384.5902 632.38754,1385.3998 C 634.53454,1386.213 635.67718,1388.7414 639.04862,1389.111 C 642.42006,1389.4838 644.87458,1388.4426 644.87458,1388.4426 C 644.87458,1388.4426 645.02694,1393.0626 653.06762,1395.1366 C 661.1083,1397.2138 663.48666,1396.2542 669.07562,1395.3594 C 673.86338,1394.595 675.05962,1394.0954 677.73418,1393.8722 C 680.41158,1393.6494 682.55858,1394.3186 682.55858,1394.3186 C 682.55858,1394.3186 679.80502,1396.3218 678.50158,1397.883 C 677.19814,1399.4434 673.8267,1403.9902 672.52326,1405.3958 C 671.21982,1406.801 668.23206,1409.7022 668.23206,1409.7022 C 668.23206,1409.7022 664.55874,1408.7366 661.79954,1408.4378 C 659.0403,1408.1414 654.9071,1408.9602 651.4595,1408.5874 C 648.00906,1408.215 646.4009,1407.8426 644.41474,1406.2138 C 643.4555,1405.4266 642.87994,1403.8346 642.87994,1403.8346 C 642.87994,1403.8346 640.50442,1406.2814 641.11946,1408.9602 C 641.73166,1411.6354 643.0351,1411.9402 643.0351,1411.9402 C 643.0351,1411.9402 639.42386,1411.6354 636.28942,1411.1894 C 633.15494,1410.7434 630.01202,1411.2658 629.55214,1409.4794 C 629.0923,1407.6958 629.39698,1404.2046 631.31546,1403.3858 C 633.2311,1402.5674 634.5035,1402.3758 635.14678,1401.8254 C 636.36558,1400.7842 635.14678,1399.8158 635.14678,1399.8158 C 635.14678,1399.8158 632.84742,1399.8922 631.46782,1399.0738 C 630.08822,1398.2554 630.4719,1397.2138 630.4719,1397.2138 C 630.4719,1397.2138 627.94118,1396.915 627.5575,1397.883 C 627.17382,1398.8506 628.9371,1400.8574 628.9371,1400.8574 C 628.9371,1400.8574 626.7901,1401.5266 626.40926,1402.1218 C 626.02554,1402.7174 626.79294,1405.099 625.79418,1405.6186 C 624.79826,1406.1378 623.5033,1406.1378 622.7359,1404.2046 C 621.9685,1402.2714 621.28014,1400.4114 621.28014,1400.4114 C 621.28014,1400.4114 619.36446,1400.561 618.90458,1400.561 C 618.44474,1400.561 619.9005,1399.9598 619.05694,1397.5862 C 618.21338,1395.2126 616.60526,1395.5094 615.83786,1395.8818 C 615.07046,1396.2542 615.14946,1397.4366 615.14946,1397.4366 C 615.14946,1397.4366 616.45006,1398.4022 615.99018,1399.8922 C 615.53034,1401.3794 614.6811,1401.7494 614.07454,1401.6026 C 613.46798,1401.4526 612.93194,1401.5266 612.93194,1401.5266 C 612.93194,1401.5266 611.77518,1403.0898 613.92218,1403.7586 C 616.06638,1404.4274 616.29774,1402.9402 617.67734,1404.1314 C 619.05694,1405.3194 620.43658,1406.5782 621.9685,1407.5458 C 623.5033,1408.511 623.96318,1409.4794 623.96318,1409.4794 C 623.96318,1409.4794 620.5889,1408.5874 619.13314,1409.183 C 616.7181,1410.1682 616.60242,1410.535 616.60242,1410.535 C 616.60242,1410.535 616.2921,1409.5526 614.3059,1408.9602 C 612.3197,1408.3642 610.78494,1411.1894 610.78494,1411.1894 C 610.78494,1411.1894 613.16326,1411.785 612.62438,1413.7186 C 612.08838,1415.6514 611.6285,1416.4698 611.6285,1416.4698 C 611.6285,1416.4698 613.23098,1418.2562 614.53442,1416.6194 C 615.83786,1414.9826 616.98894,1414.091 617.67734,1414.6126 C 618.36574,1415.1322 618.82842,1415.8094 617.67734,1416.8422 C 616.52906,1417.8782 615.6855,1418.6966 616.3739,1419.2158 C 617.0651,1419.7382 617.52498,1420.9258 617.29362,1421.5218 C 617.0651,1422.117 615.45418,1422.1906 614.76574,1423.681 C 614.07454,1425.1678 615.99018,1426.2094 615.99018,1426.2094 C 615.99018,1426.2094 617.8297,1425.7634 619.13314,1425.837 C 620.43658,1425.9102 620.51274,1426.5058 620.51274,1426.5058 C 620.51274,1426.5058 623.73182,1427.1014 623.35094,1424.945 C 622.96726,1422.7862 621.04878,1422.563 621.43246,1419.961 C 621.81618,1417.3562 623.5033,1414.387 623.5033,1414.387 C 623.5033,1414.387 632.61042,1415.059 636.82546,1415.877 C 641.04046,1416.6958 642.49906,1417.4326 642.49906,1417.4326 C 642.49906,1417.4326 639.73702,1418.993 639.43234,1420.9258 C 639.12478,1422.8622 639.73702,1424.7194 639.73702,1424.7194 C 639.73702,1424.7194 641.66114,1422.117 645.1793,1422.117 C 648.70026,1422.117 652.53158,1423.6046 652.53158,1423.6046 C 652.53158,1423.6046 650.84446,1426.9458 649.46482,1428.3602 C 648.08522,1429.771 648.39274,1433.7898 648.77642,1435.4998 C 649.16014,1437.2102 648.85262,1437.9526 648.85262,1437.9526 C 648.85262,1437.9526 644.95078,1441.667 643.79966,1443.0046 C 642.65142,1444.345 640.81194,1445.6094 638.89626,1445.6826 C 636.97778,1445.7562 634.99162,1444.5678 634.99162,1444.5678 C 634.99162,1444.5678 633.81514,1448.2002 636.0101,1450.4946 C 637.9201,1452.4898 641.04046,1452.5178 641.04046,1452.5178 C 641.04046,1452.5178 636.60254,1458.611 633.76718,1462.3306 C 630.93178,1466.051 628.63242,1469.4654 627.48134,1469.985 C 626.33306,1470.507 625.41334,1469.6942 625.18198,1468.2802 C 624.95346,1466.8662 624.65158,1465.5286 623.80802,1465.3058 C 622.96726,1465.0826 623.04342,1463.5218 623.5033,1462.4806 C 623.96318,1461.4394 624.80674,1460.3218 623.65566,1460.3218 C 622.50738,1460.3218 621.43246,1460.6206 621.43246,1460.6206 C 621.43246,1460.6206 621.12778,1461.885 619.74814,1463.2962 C 618.36574,1464.7098 618.13722,1464.8598 617.1413,1464.6366 C 616.14538,1464.4138 615.6855,1464.1146 615.6855,1464.1146 C 615.6855,1464.1146 615.07046,1466.7926 616.52906,1467.3886 C 617.98486,1467.9838 618.36574,1467.239 620.05286,1468.3562 C 621.74002,1469.471 621.28014,1470.3574 621.81618,1471.5454 C 622.35222,1472.7366 623.80802,1473.7046 623.11962,1474.8926 C 622.42838,1476.0838 621.3563,1476.8286 619.66918,1476.5294 C 617.98486,1476.2334 616.83378,1475.7874 616.22154,1477.7206 C 615.60934,1479.6538 615.1551,1479.6538 613.54414,1479.281 C 611.93602,1478.9114 610.70874,1479.7978 610.63258,1480.2434 z" style="fill:#de0031;fill-opacity:1;fill-rule:nonzero;stroke:#000000;stroke-width:0.67722136;stroke-linecap:butt;stroke-linejoin:miter;stroke-miterlimit:3.86400008;stroke-dasharray:none;stroke-opacity:1" id="path407"/><path d="M 634.07186,1492.5626 C 634.07186,1492.5626 635.93674,1492.4834 636.18502,1493.6066 C 636.4333,1494.733 635.35554,1496.1778 635.35554,1496.1778 C 635.35554,1496.1778 638.91602,1495.015 638.83138,1492.001 C 638.74958,1488.9894 638.25302,1487.9454 638.25302,1487.9454 C 638.25302,1487.9454 635.31322,1487.7842 634.8167,1488.6678 C 634.32014,1489.5514 634.07186,1492.5626 634.07186,1492.5626 z" style="fill:#f9f400;fill-opacity:1;fill-rule:nonzero;stroke:#000000;stroke-width:0.67722136;stroke-linecap:butt;stroke-linejoin:miter;stroke-miterlimit:3.86400008;stroke-dasharray:none;stroke-opacity:1" id="path409"/><path d="M 622.85722,1496.8186 C 622.85722,1496.8186 621.78234,1499.7902 618.88486,1499.2286 C 615.99018,1498.667 614.66418,1496.0958 614.66418,1496.0958 C 614.66418,1496.0958 617.64346,1496.9002 618.3065,1496.3386 C 618.9695,1495.777 618.47294,1494.4114 618.47294,1494.4114 C 618.47294,1494.4114 619.96258,1492.6442 621.61586,1493.6066 C 623.27194,1494.5722 622.85722,1496.8186 622.85722,1496.8186 z" style="fill:#f9f400;fill-opacity:1;fill-rule:nonzero;stroke:#000000;stroke-width:0.67722136;stroke-linecap:butt;stroke-linejoin:miter;stroke-miterlimit:3.86400008;stroke-dasharray:none;stroke-opacity:1" id="path411"/><path d="M 613.54698,1486.8194 C 613.54698,1486.8194 611.3125,1488.1062 609.65638,1486.6582 C 608.0031,1485.2134 607.50658,1483.5286 607.50658,1483.5286 C 607.50658,1483.5286 609.3263,1483.8502 610.23758,1483.3678 C 611.14606,1482.885 610.98242,1482.5634 610.98242,1482.5634 C 610.98242,1482.5634 612.75702,1482.4846 613.4623,1483.447 C 614.16766,1484.4122 613.54698,1486.8194 613.54698,1486.8194 z" style="fill:#f9f400;fill-opacity:1;fill-rule:nonzero;stroke:#000000;stroke-width:0.67722136;stroke-linecap:butt;stroke-linejoin:miter;stroke-miterlimit:3.86400008;stroke-dasharray:none;stroke-opacity:1" id="path413"/><path d="M 617.80994,1464.4926 C 617.80994,1464.4926 618.63658,1462.4046 617.31338,1461.7638 C 615.99018,1461.1202 613.2987,1461.4422 613.2987,1461.4422 C 613.2987,1461.4422 613.6711,1459.393 617.14694,1459.0714 C 620.62278,1458.7498 621.44938,1460.6406 621.44938,1460.6406 C 621.44938,1460.6406 620.28422,1462.729 619.54786,1463.6094 C 618.47294,1464.8938 617.80994,1464.4926 617.80994,1464.4926 z" style="fill:#f9f400;fill-opacity:1;fill-rule:nonzero;stroke:#000000;stroke-width:0.67722136;stroke-linecap:butt;stroke-linejoin:miter;stroke-miterlimit:3.86400008;stroke-dasharray:none;stroke-opacity:1" id="path415"/><path d="M 616.3485,1426.1614 C 616.3485,1426.1614 617.34726,1427.4258 616.63346,1428.0494 C 615.91966,1428.673 614.06326,1430.1294 614.06326,1430.1294 C 614.06326,1430.1294 617.56166,1430.8914 619.27702,1429.435 C 620.98954,1427.979 620.41962,1426.1614 620.41962,1426.1614 C 620.41962,1426.1614 618.56322,1425.817 618.06386,1425.817 C 617.56166,1425.817 616.3485,1426.1614 616.3485,1426.1614 z" style="fill:#f9f400;fill-opacity:1;fill-rule:nonzero;stroke:#000000;stroke-width:0.67722136;stroke-linecap:butt;stroke-linejoin:miter;stroke-miterlimit:3.86400008;stroke-dasharray:none;stroke-opacity:1" id="path417"/><path d="M 611.40558,1416.2358 C 611.40558,1416.2358 608.33322,1415.959 607.61942,1413.6734 C 606.90566,1411.3846 607.33446,1411.1074 607.33446,1411.1074 C 607.33446,1411.1074 608.76206,1411.5226 609.69026,1411.3846 C 610.61846,1411.2462 611.40558,1411.3166 611.40558,1411.3166 C 611.40558,1411.3166 612.61874,1412.2166 612.6893,1413.0466 C 612.76266,1413.8794 611.40558,1416.2358 611.40558,1416.2358 z" style="fill:#f9f400;fill-opacity:1;fill-rule:nonzero;stroke:#000000;stroke-width:0.67722136;stroke-linecap:butt;stroke-linejoin:miter;stroke-miterlimit:3.86400008;stroke-dasharray:none;stroke-opacity:1" id="path419"/><path d="M 612.9037,1401.3878 C 612.9037,1401.3878 610.26298,1399.7398 610.61846,1397.369 C 610.97678,1394.9954 611.83442,1394.6514 611.83442,1394.6514 C 611.83442,1394.6514 612.60182,1397.369 613.69086,1397.4398 C 614.77706,1397.5074 615.13534,1397.5074 615.13534,1397.5074 C 615.13534,1397.5074 616.41902,1398.893 616.1341,1399.7254 C 615.84914,1400.5582 615.56138,1401.2494 615.06202,1401.3878 C 614.56262,1401.5266 612.9037,1401.3878 612.9037,1401.3878 z" style="fill:#f9f400;fill-opacity:1;fill-rule:nonzero;stroke:#000000;stroke-width:0.67722136;stroke-linecap:butt;stroke-linejoin:miter;stroke-miterlimit:3.86400008;stroke-dasharray:none;stroke-opacity:1" id="path421"/><path d="M 630.50574,1397.369 C 630.50574,1397.369 632.6471,1397.0078 632.2211,1395.6222 C 631.79226,1394.2338 630.43522,1392.6418 630.43522,1392.6418 C 630.43522,1392.6418 634.30602,1392.2102 635.59254,1394.513 C 636.87906,1396.8134 635.29066,1399.8638 635.29066,1399.8638 C 635.29066,1399.8638 633.29038,1399.9342 632.29162,1399.449 C 631.2929,1398.9634 630.50574,1397.369 630.50574,1397.369 z" style="fill:#f9f400;fill-opacity:1;fill-rule:nonzero;stroke:#000000;stroke-width:0.67722136;stroke-linecap:butt;stroke-linejoin:miter;stroke-miterlimit:3.86400008;stroke-dasharray:none;stroke-opacity:1" id="path423"/><path d="M 642.41442,1367.4002 C 642.41442,1367.4002 640.47338,1369.6042 637.86934,1369.8922 C 635.2681,1370.1798 632.79946,1368.3594 632.79946,1368.3594 C 632.79946,1368.3594 635.69694,1368.0718 635.99318,1367.3038 C 636.28942,1366.5366 636.0919,1365.5794 636.0919,1365.5794 C 636.0919,1365.5794 638.6593,1362.9266 640.4395,1364.3014 C 642.21694,1365.6754 642.41442,1367.4002 642.41442,1367.4002 z" style="fill:#f9f400;fill-opacity:1;fill-rule:nonzero;stroke:#000000;stroke-width:0.67722136;stroke-linecap:butt;stroke-linejoin:miter;stroke-miterlimit:3.86400008;stroke-dasharray:none;stroke-opacity:1" id="path425"/><path d="M 629.34058,1357.1102 C 629.34058,1357.1102 624.76442,1355.8318 623.87574,1353.3398 C 622.98702,1350.8478 624.46818,1347.6838 624.46818,1347.6838 C 624.46818,1347.6838 625.78574,1351.2314 626.97066,1351.519 C 628.15562,1351.8074 629.14306,1350.4638 630.22926,1351.2314 C 631.3183,1351.9994 632.99694,1353.6614 631.91074,1354.9058 C 630.82454,1356.1534 629.34058,1357.1102 629.34058,1357.1102 z" style="fill:#f9f400;fill-opacity:1;fill-rule:nonzero;stroke:#000000;stroke-width:0.67722136;stroke-linecap:butt;stroke-linejoin:miter;stroke-miterlimit:3.86400008;stroke-dasharray:none;stroke-opacity:1" id="path427"/><path d="M 636.38814,1339.793 C 636.38814,1339.793 635.0057,1336.4682 637.47434,1334.6146 C 639.94578,1332.7626 640.63702,1333.1466 640.63702,1333.1466 C 640.63702,1333.1466 638.95554,1334.8062 639.84706,1336.725 C 640.73574,1338.6418 641.32822,1338.5458 641.32822,1338.5458 C 641.32822,1338.5458 642.71066,1340.6538 641.62446,1341.4214 C 640.53826,1342.189 639.15582,1342.7646 638.36306,1342.189 C 637.5731,1341.613 636.38814,1339.793 636.38814,1339.793 z" style="fill:#f9f400;fill-opacity:1;fill-rule:nonzero;stroke:#000000;stroke-width:0.67722136;stroke-linecap:butt;stroke-linejoin:miter;stroke-miterlimit:3.86400008;stroke-dasharray:none;stroke-opacity:1" id="path429"/><path d="M 654.59678,1346.3434 C 654.59678,1346.3434 656.37698,1345.3214 656.07794,1344.139 C 655.78454,1342.9566 654.99174,1341.805 654.99174,1341.805 C 654.99174,1341.805 657.49706,1341.5822 658.97822,1343.5298 C 660.45942,1345.4798 660.06442,1347.3962 660.06442,1347.3962 C 660.06442,1347.3962 659.33934,1350.4638 656.1795,1349.411 C 653.01682,1348.3558 654.59678,1346.3434 654.59678,1346.3434 z" style="fill:#f9f400;fill-opacity:1;fill-rule:nonzero;stroke:#000000;stroke-width:0.67722136;stroke-linecap:butt;stroke-linejoin:miter;stroke-miterlimit:3.86400008;stroke-dasharray:none;stroke-opacity:1" id="path431"/><path d="M 691.8745,1347.303 C 691.8745,1347.303 688.18426,1349.3154 685.71562,1347.9722 C 683.24698,1346.631 683.44166,1344.6162 683.44166,1344.6162 C 683.44166,1344.6162 687.09806,1346.3742 687.98674,1345.0958 C 688.87546,1343.8174 688.7767,1342.189 688.7767,1342.189 C 688.7767,1342.189 691.30458,1341.6526 691.69958,1342.9002 C 692.09454,1344.1446 691.8745,1347.303 691.8745,1347.303 z" style="fill:#f9f400;fill-opacity:1;fill-rule:nonzero;stroke:#000000;stroke-width:0.67722136;stroke-linecap:butt;stroke-linejoin:miter;stroke-miterlimit:3.86400008;stroke-dasharray:none;stroke-opacity:1" id="path433"/><path d="M 684.53066,1332.7626 C 684.53066,1332.7626 680.38054,1331.1318 680.77554,1327.107 C 681.1705,1323.0798 682.06206,1323.7514 682.06206,1323.7514 C 682.06206,1323.7514 683.44166,1326.2438 684.43194,1326.6274 C 685.41938,1327.011 686.80182,1326.6274 686.80182,1326.6274 C 686.80182,1326.6274 688.4805,1327.4882 688.57922,1328.6398 C 688.67798,1329.7914 687.49302,1331.4194 687.19678,1331.899 C 686.90058,1332.379 684.53066,1332.7626 684.53066,1332.7626 z" style="fill:#f9f400;fill-opacity:1;fill-rule:nonzero;stroke:#000000;stroke-width:0.67722136;stroke-linecap:butt;stroke-linejoin:miter;stroke-miterlimit:3.86400008;stroke-dasharray:none;stroke-opacity:1" id="path435"/><path d="M 700.20578,1322.9838 C 700.20578,1322.9838 700.59794,1320.269 703.06938,1320.173 C 705.53802,1320.077 707.01922,1320.9378 707.01922,1320.9378 C 707.01922,1320.9378 704.25434,1321.4826 704.55058,1322.761 C 704.84682,1324.0394 705.53802,1324.711 705.53802,1324.711 C 705.53802,1324.711 705.14302,1327.5842 703.2669,1327.5842 C 701.3907,1327.5842 700.4343,1326.8194 700.20578,1325.5718 C 699.97442,1324.327 700.20578,1322.9838 700.20578,1322.9838 z" style="fill:#f9f400;fill-opacity:1;fill-rule:nonzero;stroke:#000000;stroke-width:0.67722136;stroke-linecap:butt;stroke-linejoin:miter;stroke-miterlimit:3.86400008;stroke-dasharray:none;stroke-opacity:1" id="path437"/><path d="M 709.09566,1333.6574 C 709.09566,1333.6574 711.89438,1332.283 711.6969,1330.7478 C 711.49942,1329.2154 711.40066,1328.4478 711.40066,1328.4478 C 711.40066,1328.4478 713.37558,1328.9274 714.36302,1331.1318 C 715.35046,1333.3358 714.65926,1335.4778 714.65926,1335.4778 C 714.65926,1335.4778 713.3107,1338.0658 711.20318,1337.8738 C 709.09566,1337.6818 708.7007,1336.725 708.89818,1335.8618 C 709.09566,1334.9982 709.09566,1333.6574 709.09566,1333.6574 z" style="fill:#f9f400;fill-opacity:1;fill-rule:nonzero;stroke:#000000;stroke-width:0.67722136;stroke-linecap:butt;stroke-linejoin:miter;stroke-miterlimit:3.86400008;stroke-dasharray:none;stroke-opacity:1" id="path439"/><path d="M 645.64762,1480.777 C 644.65454,1481.3442 641.72886,1480.0602 642.13794,1477.1082 C 642.58934,1473.871 644.98462,1472.567 648.84414,1472.6238 C 652.7065,1472.6802 655.25978,1473.3602 658.35754,1473.6454 C 661.45814,1473.9302 665.35718,1474.4974 669.16026,1474.4974 C 672.96058,1474.4974 675.00882,1473.9302 675.00882,1473.9302 C 675.00882,1473.9302 674.19066,1477.3902 673.7223,1477.8446 C 673.25398,1478.2994 670.93486,1478.243 667.25026,1477.8446 C 663.56566,1477.4498 657.09362,1476.4278 652.52874,1476.5406 C 647.96674,1476.6538 646.56454,1476.3122 645.94106,1477.901 C 645.45578,1479.1398 646.64354,1480.2098 645.64762,1480.777 z" style="fill:#de0031;fill-opacity:1;fill-rule:nonzero;stroke:#000000;stroke-width:0.67722136;stroke-linecap:butt;stroke-linejoin:miter;stroke-miterlimit:3.86400008;stroke-dasharray:none;stroke-opacity:1" id="path441"/><path d="M 666.42926,1496.0846 C 666.42926,1496.0846 662.10142,1497.3322 660.58074,1495.8562 C 659.06006,1494.3802 659.4127,1491.7694 659.4127,1491.7694 C 659.4127,1491.7694 655.39518,1493.4346 652.82218,1489.461 C 650.24914,1485.4874 653.99302,1480.9466 653.99302,1480.9466 C 653.99302,1480.9466 654.38234,1483.7854 656.95538,1483.6726 C 659.52838,1483.5598 660.69922,1481.971 662.10142,1482.3094 C 663.50642,1482.651 663.74058,1483.5598 665.49542,1483.4438 C 667.25026,1483.331 669.39446,1483.3678 671.26498,1481.0622 C 673.13546,1478.7534 674.19066,1477.5062 675.00882,1474.3254 C 675.82698,1471.1478 674.07214,1470.8086 671.96746,1471.3762 C 669.85994,1471.9434 668.3393,1472.0562 664.2089,1471.489 C 661.45534,1471.111 657.89206,1469.1806 657.89206,1469.1806 C 657.89206,1469.1806 661.04906,1468.6134 670.79662,1468.6134 C 676.06398,1468.6134 676.41382,1468.9914 676.99782,1470.3518 C 677.58182,1471.7146 677.46618,1473.4198 677.23198,1475.1214 C 676.99782,1476.823 675.59282,1479.2442 673.60382,1481.8554 C 671.61482,1484.4658 669.39446,1486.1334 668.9261,1489.0066 C 668.45778,1491.8826 666.42926,1496.0846 666.42926,1496.0846 z" style="fill:#f9f400;fill-opacity:1;fill-rule:nonzero;stroke:#000000;stroke-width:0.67722136;stroke-linecap:butt;stroke-linejoin:miter;stroke-miterlimit:3.86400008;stroke-dasharray:none;stroke-opacity:1" id="path443"/><path d="M 661.63306,1492.4494 C 661.63306,1492.4494 661.51738,1493.8126 662.45406,1494.2674 C 663.3879,1494.7214 664.2089,1494.3802 664.2089,1494.3802 C 664.2089,1494.3802 664.7929,1492.7914 665.0271,1492.2238 C 665.26126,1491.6566 665.37694,1490.3698 665.37694,1490.3698 C 665.37694,1490.3698 664.09042,1491.6566 663.3879,1491.9954 C 662.68542,1492.3366 661.63306,1492.4494 661.63306,1492.4494" style="fill:#000000;fill-opacity:1;fill-rule:nonzero;stroke:none" id="path445"/><path d="M 669.0023,1493.5646 L 672.37654,1494.1374 L 675.66898,1493.7282 L 677.61006,1491.5154 L 677.10222,1490.6974 L 672.2919,1489.3058 L 669.67658,1491.0246 L 669.0023,1493.5646" style="fill:#ffffff;fill-opacity:1;fill-rule:nonzero;stroke:none" id="path447"/><path d="M 623.04626,1480.455 C 623.04626,1480.455 625.05502,1478.951 625.75186,1477.3282 M 618.71558,1490.449 C 620.25034,1490.1778 621.92054,1490.449 621.92054,1490.449 C 621.92054,1490.449 622.48198,1487.3358 623.80238,1485.6454 M 626.58978,1485.6454 C 626.58978,1485.6454 628.33054,1482.6678 628.95966,1480.6418 C 629.58602,1478.6154 630.4211,1475.4342 630.4211,1475.4342 M 643.8025,1460.2878 C 643.8025,1460.2878 642.54702,1453.5934 643.17334,1452.309 M 640.66522,1452.377 C 640.66522,1452.377 643.38494,1452.309 644.98742,1451.429 M 645.05514,1441.8278 C 645.05514,1441.8278 645.26674,1450.1442 651.18582,1452.5802 M 646.65766,1440.4078 C 646.65766,1440.4078 647.9103,1449.8058 652.16198,1451.0926 M 648.95702,1437.1626 C 648.95702,1437.1626 652.09426,1447.1022 656.55474,1450.7542 M 647.9103,1439.1238 C 647.9103,1439.1238 650.63002,1448.4542 653.06762,1449.7382 M 655.8579,1426.0062 C 655.8579,1426.0062 651.8855,1432.5678 655.78734,1438.043 C 659.68638,1443.5182 665.26406,1443.8566 665.26406,1443.8566 M 654.81118,1428.439 L 658.4337,1429.5198 M 652.79114,1423.6386 C 652.79114,1423.6386 653.76446,1424.3158 654.8817,1425.5318 C 656.5745,1427.3834 660.24498,1426.1418 660.24498,1426.1418 M 642.40878,1417.4154 C 642.40878,1417.4154 644.22286,1416.2694 645.19622,1415.4566 C 646.16958,1414.6466 647.84258,1414.3082 647.84258,1414.3082 M 642.68526,1411.737 C 642.68526,1411.737 644.49654,1413.6986 648.60998,1414.4434 M 644.1495,1406.0586 C 644.1495,1406.0586 646.10186,1410.2498 651.74442,1410.6562 C 657.38702,1411.0626 657.94566,1410.2498 660.59482,1411.3986 C 663.24122,1412.5498 664.70826,1413.8342 666.58726,1413.6306 M 623.94342,1414.3082 C 623.94342,1414.3082 621.92054,1413.6306 620.31806,1413.9018 C 618.71558,1414.1726 617.60118,1414.4434 617.60118,1414.4434 M 628.68038,1400.581 C 628.68038,1400.581 631.11798,1402.0006 629.09794,1403.355 M 647.07518,1383.4726 C 647.07518,1383.4726 645.75202,1384.2202 643.38214,1385.3662 C 641.01506,1386.5146 639.89782,1385.9082 637.66902,1384.353 C 635.43738,1382.7978 635.99598,1382.2562 632.93206,1382.1886 C 630.6835,1382.1406 629.16846,1383.5402 629.16846,1383.5402 M 638.7129,1381.3758 C 638.7129,1381.3758 642.2649,1384.353 648.26014,1380.5654 M 642.19718,1379.5522 C 642.19718,1379.5522 643.80534,1380.9046 645.61378,1379.5522 C 647.42222,1378.1974 648.4689,1378.469 648.4689,1378.469 M 646.65766,1378.8074 C 646.65766,1378.8074 648.6777,1377.2498 649.09526,1375.4942 C 649.51562,1373.7362 650.63002,1372.2482 651.39742,1372.0454 C 652.16198,1371.8422 652.37078,1371.9098 652.37078,1371.9098 M 682.2793,1394.4682 L 685.39962,1392.1962 M 684.63506,1400.581 C 684.63506,1400.581 686.09934,1398.549 685.82002,1396.5898 C 685.5407,1394.6318 685.19086,1388.9502 685.39962,1385.5694 C 685.61122,1382.1886 685.74946,1378.0622 685.74946,1378.0622 M 685.12314,1391.3858 L 676.89906,1391.3858 M 685.05262,1389.625 C 684.84386,1389.625 672.9267,1389.4926 672.9267,1389.4926 M 685.3009,1387.1386 C 685.3009,1387.1386 676.20222,1388.609 669.02486,1386.447 M 685.19086,1384.6918 C 685.19086,1384.6918 676.27558,1386.9242 667.70166,1383.1366 M 685.61122,1382.7302 C 685.61122,1382.7302 675.71694,1384.285 666.58726,1380.0238 M 685.39962,1380.8366 C 685.39962,1380.8366 676.27558,1381.985 667.70166,1377.927 M 660.38326,1365.4866 C 660.38326,1365.4866 663.87034,1361.1598 663.44998,1358.3858 C 663.03242,1355.6146 660.73306,1354.5982 660.73306,1354.5982 M 661.0829,1348.9198 C 661.0829,1348.9198 661.91802,1350.6782 659.47762,1352.369 M 651.25634,1346.2814 C 650.90934,1346.5522 649.58334,1347.0266 650.00086,1348.7166 C 650.42126,1350.4074 651.53566,1351.5558 651.53566,1351.5558 M 632.16466,1348.0398 C 632.16466,1348.0398 634.1847,1348.9874 634.67282,1350.6782 C 635.1609,1352.369 634.88158,1353.1138 634.88158,1353.1138 C 634.88158,1353.1138 639.84422,1352.6226 640.94454,1352.4366 C 642.54702,1352.1658 642.82634,1353.1818 642.82634,1353.1818 M 639.48026,1358.047 C 639.48026,1358.047 641.01226,1357.5078 643.0351,1357.5754 C 645.05514,1357.6434 647.07518,1358.2502 647.07518,1358.2502 M 688.46638,1353.7206 C 688.46638,1353.7206 696.19954,1357.3046 690.9745,1366.703 M 692.57702,1354.2626 C 692.57702,1354.2626 695.22618,1354.8042 694.59706,1361.6314 M 696.9895,1357.3638 C 696.9895,1357.3638 695.78198,1357.3726 696.61994,1362.5798 M 711.18062,1356.831 C 711.18062,1356.831 712.08906,1354.9398 713.48278,1353.7206 C 714.8765,1352.5042 715.64106,1350.543 716.33794,1349.3942 C 717.03478,1348.243 717.24638,1347.6358 717.24638,1347.6358 C 717.24638,1347.6358 715.08526,1347.7686 714.66774,1346.2814 C 714.24734,1344.7938 716.5467,1343.781 716.5467,1343.781 L 712.2273,1342.0902 M 715.78214,1338.0318 C 715.78214,1338.2354 715.57334,1339.8582 714.45894,1340.7386 M 705.76654,1333.2086 C 705.76654,1333.2086 704.49414,1334.719 705.81734,1336.409 C 707.14054,1338.0994 707.5609,1339.1834 707.5609,1339.1834 M 687.14318,1337.425 C 687.14318,1337.425 688.5341,1338.2354 690.90398,1338.3706 C 693.27386,1338.5062 695.7143,1341.077 695.7143,1341.077 M 692.81682,1326.5766 C 692.81682,1326.5766 691.32434,1330.3922 695.15566,1331.6114 M 698.01362,1329.6502 L 699.4779,1330.4598 M 710.48938,1377.1398 C 710.48938,1377.1398 705.67626,1381.1414 705.08942,1384.4634 M 704.88066,1384.395 C 704.88066,1384.395 705.39978,1380.3594 706.54242,1377.2046 C 707.68502,1374.049 707.54678,1368.8762 707.54678,1368.8762 M 669.67658,1423.881 C 669.67658,1423.881 667.98946,1418.3126 667.31514,1416.9214 C 666.63806,1415.5302 669.5101,1414.7934 671.61762,1414.9574 C 673.72794,1415.121 675.49974,1413.8086 675.07654,1412.335 C 674.65614,1410.8622 668.07406,1409.7162 668.07406,1409.7162 M 671.27906,1424.945 C 671.27906,1424.945 672.2919,1424.1266 671.70226,1421.5074 C 671.11262,1418.8858 669.9305,1416.5122 670.60478,1415.2846" style="fill:none;stroke:#000000;stroke-width:0.67722136;stroke-linecap:butt;stroke-linejoin:miter;stroke-miterlimit:3.86400008;stroke-dasharray:none;stroke-opacity:1" id="path449"/><path d="M 674.23298,1425.1086 C 674.23298,1425.1086 674.9919,1422.7354 674.23298,1421.3438 C 673.47402,1419.9526 672.63046,1418.149 672.79974,1417.085 C 672.96902,1416.021 672.88438,1415.0394 672.88438,1415.0394 M 684.35858,1410.7802 C 684.35858,1410.7802 684.52786,1408.243 687.05854,1406.849 C 689.58926,1405.4578 693.13562,1406.0306 695.75098,1402.6746 C 698.3663,1399.3166 697.09954,1397.7614 698.02774,1395.303 C 698.95594,1392.8478 700.05342,1392.6022 701.40482,1393.1754 C 702.75342,1393.7482 703.26126,1394.8122 703.26126,1394.8122 M 675.75362,1417.9034 C 675.75362,1417.9034 679.21254,1411.517 684.02286,1410.6166 C 688.83034,1409.7162 687.9021,1413.9722 687.9021,1413.9722 M 685.5407,1456.4694 C 685.5407,1456.4694 686.4689,1454.0958 683.2611,1450.9038 C 680.0561,1447.709 683.1793,1444.269 683.1793,1444.269 M 675.58438,1433.053 C 675.58438,1433.053 675.16118,1436.4906 678.1997,1439.1942 C 681.23822,1441.8954 681.48934,1443.5322 683.1793,1444.4326 C 684.86642,1445.3358 689.33818,1446.809 693.05098,1448.9366 C 696.76378,1451.0674 698.87414,1452.1314 701.40482,1454.0958 C 703.93554,1456.0598 707.14054,1459.091 708.15334,1461.383 C 709.16622,1463.6774 707.05586,1465.1506 704.52518,1464.0866 C 701.9945,1463.0222 700.73054,1462.2854 699.71486,1462.2854 C 698.70486,1462.2854 698.11238,1461.9554 698.11238,1461.9554 M 685.5153,1445.4682 C 685.5153,1445.4682 683.85358,1446.3994 684.78178,1448.3638 C 685.70998,1450.3282 687.14318,1451.313 687.3971,1453.5226 C 687.65102,1455.7326 687.81746,1458.9274 687.81746,1458.9274 C 687.81746,1458.9274 689.72186,1455.171 692.4585,1456.8814 C 694.82274,1458.3542 692.4585,1460.2314 692.4585,1460.2314" style="fill:none;stroke:#000000;stroke-width:0.67722136;stroke-linecap:butt;stroke-linejoin:miter;stroke-miterlimit:3.86400008;stroke-dasharray:none;stroke-opacity:1" id="path451"/><path d="M 666.89194,1495.1194 C 666.89194,1495.1194 667.6537,1493.1554 670.01514,1493.6462 C 672.37654,1494.1374 672.46118,1494.6286 674.82542,1493.8918 C 676.48154,1493.3754 677.6947,1490.861 679.04326,1490.6974 C 680.39182,1490.5334 681.48934,1490.5334 681.48934,1490.5334 M 668.41262,1493.4826 C 668.41262,1493.4826 669.42266,1489.3878 672.46118,1489.3878 C 675.49974,1489.3878 677.6947,1491.0246 677.6947,1491.0246" style="fill:none;stroke:#000000;stroke-width:0.67722136;stroke-linecap:round;stroke-linejoin:miter;stroke-miterlimit:3.86400008;stroke-dasharray:none;stroke-opacity:1" id="path453"/><path d="M 670.35086,1497.9842 C 670.35086,1497.9842 672.43014,1498.7066 674.91006,1497.9842 C 676.59722,1497.493 678.6229,1494.9558 678.6229,1494.9558 C 678.6229,1494.9558 677.45206,1497.939 678.1997,1499.2938 C 679.46646,1501.5882 681.15358,1501.8334 681.15358,1501.8334 M 669.42266,1493.319 C 669.42266,1493.319 669.34082,1491.1062 670.60478,1490.2878 C 671.87154,1489.4694 672.79974,1489.4694 672.79974,1489.4694" style="fill:none;stroke:#000000;stroke-width:0.67722136;stroke-linecap:butt;stroke-linejoin:miter;stroke-miterlimit:3.86400008;stroke-dasharray:none;stroke-opacity:1" id="path455"/><path d="M 670.52014,1493.6462 C 670.52014,1493.6462 671.02798,1490.5334 672.54582,1490.3698 C 674.0637,1490.2058 675.4151,1491.5978 675.4151,1491.5978 C 675.4151,1491.5978 674.23298,1491.761 673.81258,1492.3338 C 673.38938,1492.9098 672.88438,1494.1374 672.88438,1494.1374 L 670.52014,1493.6462" style="fill:#000000;fill-opacity:1;fill-rule:nonzero;stroke:none" id="path457"/><path d="M 680.22538,1495.9378 C 680.7727,1498.0886 682.1241,1499.0706 684.10466,1500.1966 C 686.38426,1501.4866 687.88238,1501.8958 690.5203,1502.2426 C 690.4977,1502.1186 690.6021,1502.0394 690.6021,1501.9154 C 690.6021,1501.3626 689.86574,1501.4246 689.33818,1501.2606 C 688.55666,1501.015 688.09398,1500.871 687.31246,1500.6058 L 687.05854,1500.2786 C 687.35478,1500.2362 687.52406,1500.2166 687.81746,1500.1966 L 687.98674,1499.8694 C 686.80746,1498.9662 685.47582,1499.4998 684.52786,1498.3934 C 685.09774,1498.2718 685.79462,1498.1478 685.79462,1497.5746 C 685.79462,1497.3914 685.51814,1497.411 685.37142,1497.329 L 683.59966,1497.329 C 683.09466,1497.2078 682.73634,1497.0638 682.41754,1496.6746 C 683.09466,1496.4914 683.53758,1496.4286 684.1893,1496.1834 C 683.78866,1495.7942 683.2611,1495.8954 682.67146,1495.8562 L 682.50218,1495.447 L 683.1793,1495.1194 C 683.01002,1494.9134 682.9451,1494.6286 682.67146,1494.6286 C 681.61626,1494.6286 681.1959,1495.5682 680.22538,1495.9378" style="fill:#000000;fill-opacity:1;fill-rule:nonzero;stroke:none" id="path459"/><path d="M 676.63954,1469.0394 L 676.5549,1469.5726 C 676.8483,1469.5502 676.89062,1470.349 677.18686,1470.349 C 677.8837,1470.349 678.34642,1469.6942 678.6229,1470.3094 C 678.9163,1470.9446 679.21254,1471.3534 679.21254,1472.0702 C 679.21254,1472.9482 678.6229,1473.3602 678.6229,1474.2378 C 678.6229,1474.6898 678.72726,1474.935 678.7047,1475.3866 C 678.95862,1475.4258 679.1279,1475.4682 679.38182,1475.4682 C 680.22538,1475.4682 680.39182,1474.4014 680.39182,1473.5834 C 680.39182,1472.9706 680.39182,1472.6434 680.39182,1472.0278 C 680.39182,1471.5566 680.56114,1471.2098 680.89966,1470.8826 C 681.34262,1471.2098 681.34262,1471.8842 681.91254,1471.9462 C 682.56706,1472.0278 683.1793,1471.661 683.59966,1472.1102 C 683.98054,1472.5194 683.6843,1473.1342 684.10466,1473.5014 C 684.52786,1473.871 684.97078,1473.871 685.5407,1473.9922 C 685.96106,1474.9774 685.6451,1475.6518 685.87926,1476.6958 C 686.02598,1477.351 686.82722,1477.3902 687.05854,1478.0054 C 687.22782,1478.477 687.22782,1478.8042 687.22782,1479.315 C 687.22782,1480.1138 686.55354,1480.4834 686.55354,1481.2822 C 686.55354,1481.8554 687.14318,1482.1006 687.14318,1482.6734 C 687.14318,1483.2858 686.65794,1483.5542 686.21498,1483.983 C 686.00622,1484.5166 685.62534,1484.9454 685.62534,1485.5382 C 685.62534,1485.8262 685.7523,1486.193 686.0457,1486.193 C 687.01622,1486.193 687.37454,1485.253 687.73566,1484.3922 C 688.15606,1483.3902 688.40994,1482.775 688.40994,1481.6914 C 688.40994,1480.585 688.15606,1479.9698 688.15606,1478.8662 C 688.15606,1478.0054 688.49458,1477.557 688.49458,1476.6958 C 688.49458,1475.937 687.7131,1475.5078 686.93162,1475.4682 C 686.8893,1474.9154 686.93162,1474.5882 686.93162,1474.0346 C 686.93162,1473.3802 687.10086,1472.869 686.72282,1472.3554 C 686.1529,1471.619 685.28678,1471.9262 684.35858,1471.7006 C 683.45294,1470.1854 682.77582,1468.6726 680.9843,1468.6726 C 680.64578,1468.6726 680.56114,1468.2602 680.22538,1468.2602 C 679.74014,1468.2602 679.52854,1468.6726 679.29718,1469.0818 C 678.68494,1468.4866 678.3041,1467.851 677.44078,1467.851 C 676.87086,1467.851 676.0527,1468.4722 675.71694,1468.9038 L 676.63954,1469.0394" style="fill:#000000;fill-opacity:1;fill-rule:nonzero;stroke:none" id="path461"/><path d="M 697.20674,1412.0954 C 697.20674,1412.0954 703.59698,1405.0482 701.5713,1399.3166 M 707.02486,1414.8554 C 707.02486,1414.8554 711.86618,1413.3174 713.72258,1404.2298 M 739.45842,1421.5074 C 739.45842,1421.5074 727.89958,1417.331 716.33794,1422.1622 M 724.35606,1426.1754 L 721.23286,1426.8302 M 738.95342,1411.1894 C 738.95342,1411.1894 741.73802,1410.371 741.14554,1408.243 M 747.13798,1410.6166 C 747.13798,1410.6166 744.52266,1406.7674 742.32766,1402.3474 C 740.13554,1397.9254 740.72518,1394.5666 740.72518,1394.5666 M 747.72762,1405.6214 C 747.72762,1405.6214 747.3919,1403.9022 745.45082,1401.3622 C 743.50978,1398.8254 743.08658,1393.421 743.08658,1393.421 M 737.8559,1402.0202 C 737.8559,1402.0202 735.57634,1400.1346 735.9995,1391.0474 M 736.08414,1404.8026 C 736.08414,1404.8026 733.38418,1400.1346 732.45598,1395.9578 C 731.52778,1391.7842 733.04562,1390.0622 733.04562,1390.0622 M 721.48678,1434.6902 C 721.48678,1434.6902 727.47638,1434.0354 735.66098,1437.5546 C 743.84834,1441.077 744.6355,1441.4746 748.06618,1443.9414 C 750.6815,1445.8266 751.35582,1448.2002 751.35582,1448.2002 M 731.61522,1443.4278 C 731.61522,1443.4278 729.16354,1438.7034 723.0893,1437.1454 M 750.1765,1473.5834 C 750.1765,1473.5834 748.65582,1464.905 737.7713,1455.569 C 726.88674,1446.2358 719.63038,1445.9086 719.63038,1445.9086 M 728.31994,1457.3722 C 728.31994,1457.3722 727.39174,1454.7502 725.8739,1453.441 C 724.35606,1452.1314 718.57238,1449.5718 717.13634,1448.2622 M 741.23018,1486.9298 C 741.23018,1486.9298 727.39174,1464.3318 715.24326,1456.4694 M 728.74314,1478.333 C 728.74314,1478.333 716.2561,1464.3318 714.14578,1461.6282 C 712.03546,1458.9274 710.68686,1459.9914 709.8433,1459.173 C 708.99694,1458.3542 708.23798,1457.2902 707.14054,1455.8142 C 706.04586,1454.3414 704.94838,1453.6866 704.94838,1453.6866 M 704.86654,1407.8394 C 704.86654,1407.8394 702.97062,1411.2998 701.19886,1412.4454 M 711.44582,1418.0674 C 711.44582,1418.0674 713.72258,1416.3486 715.3251,1415.939 M 684.69714,1416.5122 C 684.69714,1416.5122 687.22782,1413.2354 689.08422,1414.3842 C 690.94066,1415.5302 689.42282,1417.4946 689.42282,1417.4946 C 689.42282,1417.4946 692.03814,1413.1538 694.56882,1415.0394 C 697.09954,1416.9214 694.06382,1419.7862 694.06382,1419.7862 C 694.06382,1419.7862 697.85846,1415.203 700.56126,1417.4946 C 703.26126,1419.7862 699.20986,1422.6534 699.20986,1422.6534 C 699.20986,1422.6534 703.4277,1418.8858 705.11766,1421.1802 C 706.80478,1423.4722 703.93554,1426.3394 703.93554,1426.3394 C 703.93554,1426.3394 710.17906,1422.0802 712.03546,1426.1754 C 713.89186,1430.2678 706.55086,1430.759 706.55086,1430.759 C 706.55086,1430.759 714.23042,1429.0398 714.23042,1432.4806 C 714.23042,1435.9178 707.14054,1436.6542 707.14054,1436.6542 C 707.14054,1436.6542 714.31506,1436.6542 714.31506,1439.6038 C 714.31506,1442.5498 706.46622,1442.2226 706.46622,1442.2226 C 706.46622,1442.2226 712.28938,1444.187 710.85334,1448.2002 C 709.4201,1452.2134 705.96122,1450.7402 704.94838,1450.4098 C 703.93554,1450.0822 701.82518,1448.773 701.82518,1448.773 M 706.91762,1450.9122 C 707.25618,1450.9942 711.10726,1451.7222 712.37402,1452.9502 M 707.30978,1442.5498 L 714.82006,1444.187 M 709.67402,1436.6542 C 710.09442,1436.5726 716.33794,1434.5266 719.04074,1436.9002 M 710.60222,1429.9402 C 710.60222,1429.9402 714.23042,1428.3038 718.61754,1428.9582 M 707.27874,1424.7334 C 707.69914,1424.7334 712.03546,1423.0626 712.45866,1422.4898" style="fill:none;stroke:#000000;stroke-width:0.67722136;stroke-linecap:butt;stroke-linejoin:miter;stroke-miterlimit:3.86400008;stroke-dasharray:none;stroke-opacity:1" id="path463"/><path d="M 700.98162,1420.8526 C 700.98162,1420.8526 705.62266,1418.0674 706.1305,1417.4126" style="fill:none;stroke:#000000;stroke-width:0.67722136;stroke-linecap:round;stroke-linejoin:miter;stroke-miterlimit:3.86400008;stroke-dasharray:none;stroke-opacity:1" id="path465"/><path d="M 695.58166,1417.8218 C 695.58166,1417.8218 697.77666,1414.5478 699.12522,1414.2178 M 690.22686,1416.0406 C 690.22686,1416.0406 690.18174,1412.663 691.9535,1412.0898 M 687.98674,1412.9902 C 687.98674,1412.9902 690.96886,1407.4386 694.06382,1409.7982 C 696.42526,1411.599 694.06382,1414.4662 694.06382,1414.4662 C 694.06382,1414.4662 698.46786,1409.6118 701.40482,1412.663 C 703.76626,1415.121 700.47662,1417.1666 700.47662,1417.1666 C 700.47662,1417.1666 706.46622,1412.9082 708.66118,1415.6938 C 710.85334,1418.4762 705.12046,1421.313 705.12046,1421.313 C 705.12046,1421.313 712.96366,1415.121 715.74826,1419.1314 C 718.5329,1423.1442 712.03546,1425.6814 712.03546,1425.6814 M 712.03546,1425.8454 C 712.03546,1425.8454 718.6937,1425.515 720.47394,1426.3394 C 722.2457,1427.1578 721.99178,1429.613 720.30466,1430.6766 C 718.61754,1431.741 714.48434,1432.2322 714.48434,1432.2322 C 714.48434,1432.2322 721.3175,1433.8718 722.41498,1435.263 C 723.51246,1436.6542 722.58426,1438.6214 721.3175,1438.9486 C 720.3357,1439.2026 716.55518,1439.7026 714.91318,1439.9142 C 714.31506,1439.4402 714.31506,1440.4218 714.31506,1440.4218 C 714.31506,1440.4218 717.85578,1442.629 719.04074,1444.1054 C 719.63038,1444.8446 719.9661,1446.645 718.61754,1447.709 C 717.26614,1448.773 713.6831,1448.4966 712.62794,1448.2002 C 711.59534,1447.9122 710.94642,1447.6666 710.94642,1447.6666 M 711.12698,1447.8418 C 711.12698,1447.8418 714.31506,1449.5098 715.40974,1451.6406 C 716.50722,1453.7682 716.42254,1455.569 715.3251,1456.2234 C 714.23042,1456.8814 712.45866,1456.9602 710.93798,1456.7178 C 709.4201,1456.4694 707.14054,1455.7326 707.14054,1455.7326 M 689.42282,1421.3438 C 689.42282,1421.3438 692.3767,1417.4946 694.14562,1419.7042 C 695.92022,1421.9166 694.3149,1424.4538 694.3149,1424.4538 C 694.3149,1424.4538 697.09954,1420.689 699.12522,1422.7354 C 701.1509,1424.7814 697.20674,1427.3526 697.20674,1427.3526 C 697.20674,1427.3526 701.82518,1423.3902 703.59698,1426.3394 C 705.36874,1429.2854 700.73054,1430.4314 700.73054,1430.4314 C 700.73054,1430.4314 705.2023,1427.8942 706.38158,1430.513 C 707.5637,1433.1354 701.5713,1434.199 701.5713,1434.199 C 701.5713,1434.199 707.22514,1433.053 707.14054,1436.409 C 707.05586,1439.7674 702.07914,1439.2766 702.07914,1439.2766 C 702.07914,1439.2766 706.6355,1439.931 705.96122,1442.059 C 705.28694,1444.187 699.63306,1443.7778 699.63306,1443.7778 L 707.9869,1446.9726 M 704.10482,1439.6038 C 704.10482,1439.6038 709.16622,1438.5398 710.60222,1439.6854 M 704.14714,1433.8094 C 704.14714,1433.8094 709.92514,1432.2322 711.27654,1432.6442 M 703.4277,1429.1302 C 703.4277,1429.1302 708.15334,1427.7306 708.83046,1427.7306 M 694.94126,1423.1614 C 694.94126,1423.1614 697.4381,1420.1134 698.11238,1419.7862 M 699.25498,1425.6054 C 699.25498,1425.6054 702.16374,1423.2262 702.83806,1423.0626 M 691.09018,1419.741 C 691.09018,1419.741 691.36386,1417.7398 691.9535,1417.4946 M 685.5407,1418.231 C 685.5407,1418.231 686.72282,1417.9034 687.05854,1417.5762 M 702.16374,1441.4858 L 698.45094,1440.7494 C 698.45094,1440.7494 701.90982,1440.9134 701.74054,1439.0306 C 701.5713,1437.1454 698.70486,1436.8182 698.70486,1436.8182 C 698.70486,1436.8182 702.24838,1436.409 701.74054,1434.199 C 701.23554,1431.9894 698.3663,1432.5594 698.3663,1432.5594 C 698.3663,1432.5594 701.40482,1431.741 700.47662,1430.3494 C 699.54842,1428.9582 697.4381,1429.7766 697.4381,1429.7766 C 697.4381,1429.7766 699.12522,1429.3674 698.11238,1427.8122 C 697.63274,1427.0762 696.00206,1427.4034 696.00206,1427.4034 M 695.41238,1426.0938 C 695.75098,1425.9274 697.4381,1424.3718 697.4381,1424.3718 M 698.19702,1435.5906 L 699.2945,1434.4446 M 697.69202,1438.7034 L 699.71486,1438.7034 M 695.1613,1430.1858 C 695.1613,1430.1858 695.92022,1428.8762 696.5099,1428.8762 M 698.62022,1428.3038 C 698.62022,1428.3038 700.47662,1427.6486 700.98162,1427.6486 M 699.57946,1432.379 C 700.50766,1432.297 703.8509,1431.2498 704.3559,1431.3318 M 700.13806,1436.9818 C 700.13806,1436.9818 703.34306,1436.2454 704.27406,1436.409 M 701.66722,1462.7458 C 701.66722,1462.7458 704.20638,1464.5574 706.2631,1467.2306 C 708.32262,1469.9058 708.92638,1471.0206 708.92638,1471.0206 M 706.73706,1464.3518 C 707.34366,1464.4702 715.39842,1470.2842 719.36234,1476.363 C 723.3291,1482.4394 726.7767,1490.6322 727.38046,1492.8618 C 727.98706,1495.0938 728.95474,1496.3838 728.4695,1493.7422 C 727.98706,1491.1006 720.27082,1477.9462 720.27082,1477.9462 M 708.08002,1463.7082 C 708.08002,1463.7082 714.10066,1462.475 716.03606,1464.061 M 710.43862,1466.7026 C 710.61918,1466.7026 715.2489,1465.0602 718.15482,1466.5838 M 709.58094,1458.9414 C 709.58094,1458.9414 711.04234,1460.9506 710.19598,1462.0658 C 709.34958,1463.1802 709.18314,1463.5134 709.18314,1463.5134 M 712.10318,1468.4638 C 712.4671,1468.4638 718.57802,1468.6982 718.81786,1468.8758 M 715.01194,1471.0178 C 715.01194,1471.0178 720.11566,1470.8426 721.29778,1471.8418 M 716.9445,1473.2498 C 717.18714,1473.2498 721.6363,1473.0158 723.5717,1474.777 M 719.24386,1476.0666 C 719.24386,1476.0666 724.29678,1476.329 726.59614,1478.827 M 721.05794,1479.061 C 721.2385,1479.1202 725.02186,1479.9162 726.47482,1481.031 M 722.36138,1481.6178 C 722.36138,1481.6178 727.25914,1482.4986 727.98706,1483.557 M 723.87362,1484.025 C 723.87362,1484.025 728.34818,1485.6086 728.59078,1486.7266 M 725.50714,1487.8406 C 725.50714,1487.8406 729.01398,1488.8654 729.80114,1490.3642 M 727.68518,1491.3942 C 727.68518,1491.3942 729.86038,1492.2154 729.9817,1492.6274 M 685.26422,1449.2726 C 685.26422,1449.2726 688.99962,1449.5098 690.01246,1451.0674 M 691.9535,1448.3638 C 691.9535,1448.3638 694.14562,1451.477 691.9535,1453.1138 C 689.75854,1454.7502 687.14318,1453.1954 687.14318,1453.1954 M 692.71242,1457.2902 C 692.71242,1457.2902 694.96098,1453.647 691.16354,1453.565 M 692.12278,1452.8682 C 692.54314,1453.0318 696.67914,1452.8682 697.26882,1454.505 M 693.3867,1459.6638 C 693.3867,1459.6638 694.65346,1458.1906 697.4381,1458.3542 C 700.2227,1458.5178 703.23302,1455.9582 701.63054,1454.4034 M 699.97442,1457.8606 C 699.97442,1457.8606 707.21106,1460.7334 701.55718,1462.7798" style="fill:none;stroke:#000000;stroke-width:0.67722136;stroke-linecap:butt;stroke-linejoin:miter;stroke-miterlimit:3.86400008;stroke-dasharray:none;stroke-opacity:1" id="path467"/><path d="M 700.0111,1457.8606 C 700.0111,1457.8606 704.43206,1458.5266 705.19098,1457.7902 M 697.06286,1458.3486 C 697.06286,1458.3486 698.28166,1459.4182 699.54842,1460.155 M 696.76378,1458.109 C 696.34062,1456.3902 696.5099,1455.8142 697.09954,1455.1598 M 703.64494,1460.7926 C 703.64494,1460.7926 704.44054,1459.9914 705.45338,1461.055" style="fill:none;stroke:#000000;stroke-width:0.67722136;stroke-linecap:butt;stroke-linejoin:miter;stroke-miterlimit:3.86400008;stroke-dasharray:none;stroke-opacity:1" id="path469"/><path d="M 555.91078,1468.2122 L 556.36218,1470.4758 L 567.56554,1475.0026 L 575.15482,1474.2038 L 576.05482,1465.8162 L 571.36018,1450.489 L 565.50882,1447.4746 L 564.73578,1432.4806 L 564.2223,1424.2254 L 544.57766,1427.2878 L 523.92014,1429.6158 L 511.36538,1428.0182 L 494.69722,1426.421 L 480.72618,1422.4926 L 477.62274,1438.819 L 469.9065,1453.8814 L 467.52814,1467.2814 L 469.9065,1474.8702 L 476.33626,1476.1346 L 484.06938,1473.205 L 486.77218,1465.7486 L 486.64242,1464.219 C 487.54806,1465.3282 489.3283,1466.581 491.33706,1465.2802 C 494.44046,1460.539 489.26622,1458.7554 489.26622,1458.7554 C 492.81258,1457.2086 492.3527,1452.1174 489.42986,1451.2142 C 486.6283,1450.3226 483.38666,1452.1934 483.38666,1452.1934 C 483.38666,1452.1934 485.59006,1448.7558 491.7687,1449.0666 C 496.17838,1449.2246 497.06146,1453.4438 497.06146,1453.4438 C 489.4129,1456.7234 494.85518,1462.6614 497.9445,1460.3158 C 494.85518,1464.8486 500.00122,1466.4118 500.00122,1466.4118 C 505.00054,1466.2542 503.8241,1461.411 503.8241,1461.411 C 507.46638,1462.7318 510.73626,1455.7862 504.56042,1454.3806 C 506.47046,1450.7854 511.02686,1451.553 511.02686,1451.553 C 518.39042,1452.137 517.94182,1460.9422 517.94182,1460.9422 C 517.94182,1460.9422 515.29546,1452.9726 509.9999,1456.4102 C 508.08986,1461.0974 511.32306,1463.4426 511.32306,1463.4426 C 506.61998,1461.0974 504.40526,1464.411 504.6987,1467.8482 C 506.46482,1473.6314 511.17638,1469.5358 511.17638,1469.5358 C 511.17638,1469.5358 508.57514,1474.0714 511.46134,1475.9202 C 514.5845,1477.571 516.61866,1475.3158 516.61866,1475.3158 C 516.61866,1475.3158 513.25566,1478.333 515.75534,1480.9886 C 518.94622,1483.0122 520.52894,1480.1138 520.52894,1480.1138 C 520.52894,1480.1138 516.28854,1484.5842 522.17094,1488.9586 C 528.05054,1484.5842 523.6747,1480.201 523.6747,1480.201 C 523.6747,1480.201 525.1587,1482.8486 528.54142,1480.8166 C 530.86898,1478.0338 527.46086,1475.3158 527.46086,1475.3158 C 527.46086,1475.3158 530.34706,1477.4666 532.93702,1475.8214 C 535.91066,1473.507 532.90034,1469.5358 532.90034,1469.5358 C 532.90034,1469.5358 537.60626,1473.9106 539.36954,1468.1278 C 539.9733,1464.501 537.45954,1461.0974 532.75362,1463.4426 C 532.75362,1463.4426 535.98682,1461.0974 534.07678,1456.4102 C 529.20726,1453.2322 526.1377,1460.9422 526.1377,1460.9422 C 526.1377,1460.9422 525.90354,1452.1482 533.31506,1451.6574 C 533.31506,1451.6574 537.60626,1450.7854 539.51626,1454.3806 C 533.34046,1455.7862 536.8699,1462.9742 540.25262,1461.411 C 540.25262,1461.411 539.07614,1466.2542 544.07546,1466.4118 C 544.07546,1466.4118 549.2215,1464.8486 546.13502,1460.3158 C 549.2215,1462.6614 554.66378,1456.7234 547.01526,1453.4438 C 547.01526,1453.4438 548.5049,1449.1006 552.70862,1448.8546 C 558.70106,1448.5838 560.69286,1452.1934 560.69286,1452.1934 C 560.69286,1452.1934 557.10982,1449.4194 554.10798,1451.4118 C 552.47162,1452.617 551.13434,1457.1918 554.8105,1458.7554 C 554.8105,1458.7554 548.67982,1460.2566 552.50266,1465.8814 C 554.95718,1467.185 555.65406,1466.2822 557.1973,1465.4834 L 555.91078,1468.2122 z" style="fill:#f9f400;fill-opacity:1;fill-rule:evenodd;stroke:#000000;stroke-width:0.67722136;stroke-linecap:butt;stroke-linejoin:miter;stroke-miterlimit:3.86400008;stroke-dasharray:none;stroke-opacity:1" id="path471"/><path d="M 511.68986,1507.3622 C 511.68986,1507.3622 510.77294,1497.349 505.71434,1493.9962 C 496.7483,1488.205 471.96606,1480.6246 467.1219,1475.4118 C 449.07974,1460.6206 457.38278,1438.0542 457.38278,1438.0542 C 461.81222,1424.327 471.77986,1424.7334 471.77986,1424.7334 C 476.57886,1425.1258 482.30046,1425.1258 482.30046,1425.1258 C 481.23966,1426.5958 480.79106,1427.9562 480.79106,1427.9562 C 480.79106,1427.9562 479.72458,1430.3778 483.40638,1432.579 C 480.2691,1438.2658 478.97698,1449.0526 478.97698,1449.0526 C 474.0933,1450.681 473.5347,1454.3806 473.5347,1454.3806 C 473.5347,1454.3806 472.28486,1458.1258 475.92434,1459.8442 C 469.8275,1464.707 469.89522,1468.4834 469.89522,1468.4834 C 469.89522,1468.4834 469.0855,1474.763 474.67166,1473.8258 C 479.67382,1472.4206 474.35286,1467.9894 475.73814,1467.5042 C 477.94438,1473.4422 480.09422,1471.5202 480.44402,1471.4102 C 484.56314,1469.3778 478.94594,1464.8938 480.21834,1464.1062 C 484.2669,1473.4422 486.76938,1465.6754 486.76938,1465.6754 C 486.76938,1465.6754 504.44758,1473.9558 512.0143,1480.8194 C 525.67218,1494.1574 511.68986,1507.3622 511.68986,1507.3622 z" style="fill:#ffffff;fill-opacity:1;fill-rule:nonzero;stroke:#000000;stroke-width:0.67722136;stroke-linecap:butt;stroke-linejoin:miter;stroke-miterlimit:3.86400008;stroke-dasharray:none;stroke-opacity:1" id="path473"/><path d="M 532.1019,1507.3622 C 532.1019,1507.3622 531.13982,1499.3614 538.0097,1493.9566 C 549.62778,1486.4666 571.8285,1480.6246 576.66986,1475.4118 C 594.33962,1462.2066 587.70674,1439.197 587.70674,1439.197 C 582.97546,1427.6854 573.10654,1425.5178 573.10654,1425.5178 C 568.67714,1426.5002 562.03582,1426.8102 562.03582,1426.8102 C 562.91322,1427.2426 562.96966,1428.2642 562.96966,1428.2642 C 562.96966,1428.2642 563.06838,1431.4334 560.38534,1432.579 C 563.52262,1438.2658 564.81478,1449.0526 564.81478,1449.0526 C 568.92542,1449.0754 569.98338,1454.5414 569.98338,1454.5414 C 569.98338,1454.5414 570.88622,1458.3938 567.76866,1460.0338 C 573.84294,1464.9362 573.83446,1468.4722 573.83446,1468.4722 C 573.83446,1468.4722 574.67522,1472.3978 571.78902,1473.1118 C 570.11882,1473.4082 567.78842,1474.2238 568.52478,1467.8174 C 567.5599,1467.6002 568.34422,1472.2654 565.82482,1472.1974 C 559.25402,1470.9246 564.1405,1465.619 563.23202,1465.1618 C 563.23202,1465.1618 563.0825,1469.0678 559.70258,1468.4414 C 556.6697,1467.871 557.06186,1465.523 557.06186,1465.523 C 557.06186,1465.523 539.34414,1473.9558 531.77746,1480.8194 C 518.10546,1494.1574 532.1019,1507.3622 532.1019,1507.3622 z" style="fill:#ffffff;fill-opacity:1;fill-rule:nonzero;stroke:#000000;stroke-width:0.67722136;stroke-linecap:butt;stroke-linejoin:miter;stroke-miterlimit:3.86400008;stroke-dasharray:none;stroke-opacity:1" id="path475"/><path d="M 521.62362,1430.9114 C 496.92322,1430.0562 487.4775,1426.8978 483.40074,1425.2638 C 478.70046,1426.3534 468.83158,1423.8218 468.83158,1423.8218 C 468.83158,1423.8218 460.56802,1422.7746 457.40538,1418.629 C 447.3813,1420.8922 447.57882,1417.757 447.57882,1417.757 C 449.1277,1397.5242 462.53166,1397.2338 462.53166,1397.2338 C 473.75194,1394.7558 483.76754,1398.7914 483.76754,1398.7914 L 486.69602,1382.0646 L 482.66722,1371.5598 L 483.40074,1361.8374 L 466.56046,1341.9974 C 486.1515,1337.8794 490.72198,1322.5494 490.72198,1322.5494 C 501.10718,1332.8586 511.5911,1321.381 511.5911,1321.381 C 523.14994,1330.141 534.65518,1320.6018 534.65518,1320.6018 C 542.0413,1333.697 558.8167,1327.2174 558.8167,1327.2174 C 560.14838,1344.7798 575.29306,1344.7206 575.29306,1344.7206 C 572.34762,1361.7162 585.90958,1369.229 585.90958,1369.229 C 585.90958,1369.229 567.8223,1377.1906 565.0433,1398.0126 C 587.30614,1392.0382 593.96438,1405.7934 593.96438,1405.7934 C 596.55434,1408.9742 597.25966,1421.3522 597.25966,1421.3522 C 590.4547,1417.757 585.17886,1420.5762 585.17886,1420.5762 C 574.90654,1427.5838 560.55462,1426.5734 560.55462,1426.5734 C 560.55462,1426.5734 533.70438,1431.1962 521.62362,1430.9114 z" style="fill:#000000;fill-opacity:1;fill-rule:nonzero;stroke:#000000;stroke-width:0.05925684;stroke-linecap:butt;stroke-linejoin:miter;stroke-miterlimit:3.86400008;stroke-dasharray:none;stroke-opacity:1" id="path477"/><path d="M 483.40638,1432.579 C 521.85778,1442.0986 560.38534,1432.579 560.38534,1432.579 M 480.94342,1439.553 C 523.6493,1451.3606 562.54926,1438.8838 562.54926,1438.8838 M 480.0039,1443.1486 C 522.70982,1454.9562 563.49442,1442.5526 563.49442,1442.5526 M 480.8249,1428.2642 C 517.06158,1440.2666 562.85118,1429.1302 562.85118,1429.1302" style="fill:none;stroke:#000000;stroke-width:0.67722136;stroke-linecap:butt;stroke-linejoin:miter;stroke-miterlimit:3.86400008;stroke-dasharray:none;stroke-opacity:1" id="path479"/><path d="M 485.41514,1439.539 L 491.10286,1440.603 C 492.60946,1440.8878 493.98342,1440.151 494.20914,1438.7934 L 494.24014,1438.6582 C 494.46586,1437.3006 493.42482,1435.9714 491.91822,1435.6894 L 486.2305,1434.6226 C 484.72394,1434.3398 483.30482,1435.1698 483.08758,1436.5922 L 483.09322,1436.5698 C 482.87034,1437.927 483.90858,1439.2566 485.41514,1439.539 z" style="fill:#f9f400;fill-opacity:1;fill-rule:evenodd;stroke:#000000;stroke-width:0.67722136;stroke-linecap:butt;stroke-linejoin:miter;stroke-miterlimit:3.86400008;stroke-dasharray:none;stroke-opacity:1" id="path481"/><path d="M 496.02322,1439.2622 C 496.02322,1440.5774 497.02758,1441.6438 498.26614,1441.6438 C 499.5047,1441.6438 500.50626,1440.5774 500.50626,1439.2622 C 500.50626,1437.9466 499.5047,1436.8806 498.26614,1436.8806 C 497.02758,1436.8806 496.02322,1437.9466 496.02322,1439.2622 z" style="fill:#f9f400;fill-opacity:1;fill-rule:nonzero;stroke:#000000;stroke-width:0.67722136;stroke-linecap:butt;stroke-linejoin:miter;stroke-miterlimit:3.86400008;stroke-dasharray:none;stroke-opacity:1" id="path483"/><path d="M 554.92898,1436.7614 C 554.92898,1438.077 555.93334,1439.1406 557.1719,1439.1406 C 558.41046,1439.1406 559.41482,1438.077 559.41482,1436.7614 C 559.41482,1435.4434 558.41046,1434.377 557.1719,1434.377 C 555.93334,1434.377 554.92898,1435.4434 554.92898,1436.7614 z" style="fill:#f9f400;fill-opacity:1;fill-rule:nonzero;stroke:#000000;stroke-width:0.67722136;stroke-linecap:butt;stroke-linejoin:miter;stroke-miterlimit:3.86400008;stroke-dasharray:none;stroke-opacity:1" id="path485"/><path d="M 524.52674,1443.219 L 530.29062,1442.951 C 531.81694,1442.8806 533.01034,1441.7062 532.95674,1440.329 C 532.90034,1438.9542 531.61662,1437.8958 530.0875,1437.9666 L 524.32358,1438.2378 C 522.79446,1438.3082 521.60106,1439.4822 521.65746,1440.857 C 521.7139,1442.2338 522.99758,1443.2922 524.52674,1443.219 z" style="fill:#f9f400;fill-opacity:1;fill-rule:nonzero;stroke:#000000;stroke-width:0.67722136;stroke-linecap:butt;stroke-linejoin:miter;stroke-miterlimit:3.86400008;stroke-dasharray:none;stroke-opacity:1" id="path487"/><path d="M 519.12114,1467.349 C 519.1183,1464.3374 520.63054,1461.8962 522.49258,1461.8962 C 524.35746,1461.8934 525.86966,1464.3346 525.8725,1467.349 C 525.8725,1470.3602 524.36026,1472.8014 522.49822,1472.8014 C 520.63334,1472.8014 519.12114,1470.3602 519.12114,1467.349 z" style="fill:none;stroke:#000000;stroke-width:0.14955305;stroke-linecap:butt;stroke-linejoin:miter;stroke-miterlimit:3.86400008;stroke-dasharray:none;stroke-opacity:1" id="path489"/><path d="M 495.99218,1418.1746 C 495.99218,1418.1746 498.74574,1420.6834 507.7993,1418.801 C 514.68606,1417.757 518.22962,1420.4746 518.22962,1420.4746 C 518.22962,1420.4746 519.60638,1416.9214 511.73498,1415.8742 C 508.97858,1416.7098 503.46862,1418.1746 499.92786,1415.8742 C 494.61258,1416.7098 495.99218,1418.1746 495.99218,1418.1746" style="fill:#ffffff;fill-opacity:1;fill-rule:nonzero;stroke:none" id="path491"/><path d="M 532.39814,1420.2658 C 534.07678,1418.9054 537.65138,1418.5018 537.65138,1418.5018 L 548.9309,1418.1746 L 552.6691,1417.3394 L 551.29234,1416.2922 C 551.29234,1416.2922 541.0567,1415.4566 535.74418,1416.501 C 533.77494,1416.9214 532.39814,1417.5482 532.39814,1417.5482 C 532.39814,1417.5482 529.83922,1419.2214 532.39814,1420.2658" style="fill:#ffffff;fill-opacity:1;fill-rule:nonzero;stroke:none" id="path493"/><path d="M 452.49914,1413.7834 C 455.45022,1413.9922 456.82698,1414.6214 456.82698,1414.6214 L 461.94482,1415.8742 C 461.94482,1415.8742 481.0337,1418.1746 482.80546,1416.501 C 483.20042,1415.4566 481.23118,1414.201 481.23118,1414.201 C 481.23118,1414.201 473.16226,1415.2478 466.66766,1413.9922 C 463.32162,1413.9922 460.7627,1413.3654 460.7627,1413.3654 C 460.7627,1413.3654 452.49914,1411.9006 452.49914,1413.7834" style="fill:#ffffff;fill-opacity:1;fill-rule:nonzero;stroke:none" id="path495"/><path d="M 462.92946,1412.1122 L 454.2709,1410.439 C 453.48378,1408.9742 455.6477,1408.9742 455.6477,1408.9742 C 464.8959,1410.0214 462.92946,1412.1122 462.92946,1412.1122" style="fill:#ffffff;fill-opacity:1;fill-rule:nonzero;stroke:none" id="path497"/><path d="M 464.8959,1410.0214 C 464.50374,1411.0654 468.43942,1412.5302 468.43942,1412.5302 C 468.43942,1412.5302 472.37514,1413.7834 472.96478,1412.5302 C 473.94942,1412.9478 464.50374,1408.1386 464.8959,1410.0214" style="fill:#ffffff;fill-opacity:1;fill-rule:nonzero;stroke:none" id="path499"/><path d="M 471.58802,1408.593 C 470.01374,1409.8122 477.29546,1412.739 477.29546,1412.739 C 479.06726,1412.321 479.06726,1413.1566 477.49298,1410.8566 C 475.9187,1410.2302 473.35978,1408.765 473.35978,1408.765 L 471.58802,1408.593" style="fill:#ffffff;fill-opacity:1;fill-rule:nonzero;stroke:none" id="path501"/><path d="M 565.0687,1414.201 L 572.15298,1412.1122 C 578.6645,1411.0766 584.35222,1412.5302 584.35222,1412.5302 L 590.65218,1414.201 C 592.22646,1412.739 587.0663,1410.8086 584.15758,1410.2302 C 584.04754,1410.1962 576.36234,1408.867 569.47554,1410.3318 C 565.14486,1411.167 565.0687,1414.201 565.0687,1414.201" style="fill:#ffffff;fill-opacity:1;fill-rule:nonzero;stroke:none" id="path503"/><path d="M 566.24802,1410.0214 C 572.15298,1407.721 573.52974,1404.5826 573.52974,1404.5826 L 568.8069,1405.421 C 568.8069,1405.421 565.46086,1407.5094 566.24802,1410.0214" style="fill:#ffffff;fill-opacity:1;fill-rule:nonzero;stroke:none" id="path505"/><path d="M 573.9219,1408.5562 C 580.41654,1408.1386 582.1883,1405.0002 582.1883,1405.0002 C 582.1883,1405.0002 576.48082,1404.5826 574.70906,1406.883 C 574.90654,1406.0474 573.9219,1408.5562 573.9219,1408.5562" style="fill:#ffffff;fill-opacity:1;fill-rule:nonzero;stroke:none" id="path507"/><path d="M 581.99082,1408.765 C 587.30614,1409.3918 588.29074,1407.0918 588.29074,1407.0918 L 585.92934,1406.883 L 581.99082,1408.765" style="fill:#ffffff;fill-opacity:1;fill-rule:nonzero;stroke:none" id="path509"/><path d="M 498.95734,1409.1098 C 502.1059,1399.7002 508.38894,1408.6774 508.38894,1408.6774 C 509.56822,1410.3514 511.5375,1408.9742 511.5375,1408.9742 C 511.5375,1408.9742 508.74722,1399.9062 500.32002,1402.2826 C 496.8583,1403.4734 495.43638,1407.4866 495.43638,1407.4866 C 495.43638,1407.4866 495.0809,1410.2218 498.95734,1409.1098" style="fill:#ffffff;fill-opacity:1;fill-rule:nonzero;stroke:none" id="path511"/><path d="M 537.9081,1406.883 C 537.9081,1406.883 538.1959,1403.169 543.90338,1404.4218 C 546.98702,1405.5622 548.14378,1409.6006 548.14378,1409.6006 C 548.14378,1409.6006 549.71242,1409.2706 549.68418,1407.241 C 549.1961,1403.6962 545.14754,1402.0454 545.14754,1402.0454 C 545.14754,1402.0454 536.9263,1398.7294 534.36738,1405.6298 C 535.35202,1407.5094 537.9081,1406.883 537.9081,1406.883" style="fill:#ffffff;fill-opacity:1;fill-rule:nonzero;stroke:none" id="path513"/><path d="M 493.23578,1410.8566 C 502.2893,1417.1302 510.94786,1411.4834 510.94786,1411.4834 L 505.63254,1410.6478 C 505.63254,1410.6478 505.04286,1408.1386 502.87894,1408.1386 C 500.9097,1408.3474 501.10718,1410.6478 501.10718,1410.6478 C 499.14074,1412.5302 494.0229,1409.3918 493.23578,1410.8566" style="fill:#ffffff;fill-opacity:1;fill-rule:nonzero;stroke:none" id="path515"/><path d="M 534.36738,1408.9742 C 539.6799,1416.9214 549.71806,1413.7834 549.71806,1413.7834 C 549.71806,1413.7834 551.48702,1412.5302 550.11022,1411.0654 C 545.58486,1412.739 543.22342,1410.8566 543.22342,1410.8566 C 543.22342,1410.8566 543.52814,1408.4322 541.84382,1407.9298 C 541.8297,1407.9382 539.85482,1407.3202 539.09022,1409.3918 C 538.10562,1408.765 535.15454,1407.5094 534.36738,1408.9742" style="fill:#ffffff;fill-opacity:1;fill-rule:nonzero;stroke:none" id="path517"/><path d="M 479.22526,1353.1674 C 469.53974,1344.0206 472.12122,1342.8774 472.12122,1342.8774 C 479.43966,1342.8774 483.3133,1338.9886 483.3133,1338.9886 L 483.3133,1340.8174 C 483.3133,1340.8174 480.72898,1345.8494 474.7027,1344.935 C 479.8685,1350.653 479.22526,1353.1674 479.22526,1353.1674" style="fill:#ffffff;fill-opacity:1;fill-rule:evenodd;stroke:none" id="path519"/><path d="M 494.71978,1344.4778 C 494.71978,1344.4778 490.4145,1337.8454 490.4145,1331.6706 C 490.63174,1329.613 492.99878,1332.1278 492.99878,1332.1278 C 497.5185,1341.2746 494.71978,1344.4778 494.71978,1344.4778" style="fill:#ffffff;fill-opacity:1;fill-rule:nonzero;stroke:none" id="path521"/><path d="M 508.70774,1328.2414 C 508.70774,1328.2414 508.49334,1332.3566 509.56822,1335.7886 C 509.9999,1338.9886 511.93814,1339.217 511.93814,1339.217 L 511.50646,1331.2134 C 511.07482,1325.0414 508.70774,1328.2414 508.70774,1328.2414" style="fill:#ffffff;fill-opacity:1;fill-rule:nonzero;stroke:none" id="path523"/><path d="M 511.07482,1325.0414 C 511.07482,1325.0414 511.72086,1329.1562 525.06562,1328.9274 C 528.93922,1328.699 526.78658,1327.3274 526.78658,1327.3274 C 526.78658,1327.3274 515.81178,1327.7846 511.93814,1323.8954 C 511.07482,1324.3526 511.07482,1325.0414 511.07482,1325.0414" style="fill:#ffffff;fill-opacity:1;fill-rule:nonzero;stroke:none" id="path525"/><path d="M 531.73794,1337.1598 C 531.53482,1332.3846 531.09186,1329.613 531.09186,1329.613 C 531.95238,1323.4382 533.45894,1325.4958 533.45894,1325.4958 C 533.45894,1325.4958 534.1417,1332.2858 533.70158,1335.9862 C 533.30942,1338.433 531.73794,1337.1598 531.73794,1337.1598" style="fill:#ffffff;fill-opacity:1;fill-rule:nonzero;stroke:none" id="path527"/><path d="M 536.25766,1328.013 C 537.76422,1332.8134 546.80366,1333.4994 546.80366,1333.4994 C 548.95346,1332.8134 546.80366,1331.2134 546.80366,1331.2134 C 546.80366,1331.2134 540.99178,1330.985 537.97866,1327.7846 C 535.61158,1325.727 536.25766,1328.013 536.25766,1328.013" style="fill:#ffffff;fill-opacity:1;fill-rule:nonzero;stroke:none" id="path529"/><path d="M 547.87854,1344.935 C 551.75218,1338.7602 556.0575,1336.017 556.0575,1336.017 C 556.0575,1336.017 558.85622,1342.8774 562.72986,1342.649 C 562.94426,1341.2746 557.9929,1333.4994 557.9929,1333.4994 L 555.84306,1332.585 C 555.84306,1332.585 548.73906,1336.931 547.01806,1341.7346 C 545.94034,1343.7922 547.87854,1344.935 547.87854,1344.935" style="fill:#ffffff;fill-opacity:1;fill-rule:nonzero;stroke:none" id="path531"/><path d="M 561.00602,1365.743 C 561.00602,1365.743 564.01918,1354.3106 571.12318,1348.1358 C 569.08058,1346.9278 563.84142,1348.7282 560.61386,1359.7038 C 559.75338,1364.7358 561.00602,1365.743 561.00602,1365.743" style="fill:#ffffff;fill-opacity:1;fill-rule:nonzero;stroke:none" id="path533"/><path d="M 567.24954,1380.6078 C 574.35074,1372.6042 579.51654,1370.0894 579.51654,1370.0894 C 576.10558,1361.8798 572.41254,1357.0538 572.41254,1357.0538 C 572.41254,1357.0538 569.34294,1357.3246 572.41254,1363.4574 C 573.49026,1363.2286 576.71782,1369.1754 576.71782,1369.1754 L 567.24954,1380.6078" style="fill:#ffffff;fill-opacity:1;fill-rule:nonzero;stroke:none" id="path535"/><path d="M 492.78154,1330.299 C 499.2395,1336.017 504.6197,1331.2134 504.6197,1331.2134 L 505.91182,1329.613 C 499.88558,1332.1278 492.78154,1330.299 492.78154,1330.299" style="fill:#ffffff;fill-opacity:1;fill-rule:nonzero;stroke:none" id="path537"/><path d="M 515.16566,1412.1658 C 518.17882,1413.0802 517.53274,1409.4226 517.53274,1409.4226 C 517.53274,1400.5046 510.64598,1392.7294 510.64598,1392.7294 C 518.60766,1391.815 522.05246,1390.2118 522.05246,1390.2118 C 522.05246,1390.2118 521.19198,1388.8402 509.56822,1389.9834 C 506.77234,1389.2974 502.50934,1388.0162 500.95766,1380.619 C 500.69246,1377.701 500.25514,1374.1166 504.6197,1371.461 C 521.83802,1364.6002 537.11814,1368.7182 537.11814,1368.7182 C 541.63786,1369.861 544.30962,1370.6934 546.72182,1373.629 C 547.82214,1375.1894 549.56006,1383.7294 543.9739,1387.5054 C 538.82222,1390.4094 531.3063,1389.5262 531.3063,1389.5262 L 532.38402,1391.3578 C 535.39718,1392.9582 540.3457,1391.3578 540.3457,1391.3578 L 538.62474,1395.9298 L 537.33258,1399.1302 L 539.27082,1399.8158 C 542.28394,1392.5006 548.31022,1388.1546 548.31022,1388.1546 C 549.81398,1384.7258 551.75218,1379.2362 550.03122,1373.5186 C 546.58642,1364.3718 525.71166,1363.6858 525.71166,1363.6858 C 525.71166,1363.6858 502.14822,1364.6538 498.70342,1372.6578 C 497.4113,1374.9438 496.87242,1386.0974 504.40526,1390.8978 C 506.34066,1392.5006 516.02618,1400.0474 515.16566,1412.1658" style="fill:#ffffff;fill-opacity:1;fill-rule:nonzero;stroke:none" id="path539"/><path d="M 487.40134,1422.6846 C 489.12514,1423.1414 489.76842,1424.0562 489.55398,1421.313 C 485.2487,1411.023 484.81986,1405.0762 484.81986,1405.0762 C 484.81986,1405.0762 483.3133,1397.3014 489.12514,1393.4154 C 496.01194,1388.6118 495.79186,1386.8762 494.50534,1387.0118 C 495.31226,1383.8422 492.99878,1385.6398 492.99878,1385.6398 C 489.76842,1389.5262 489.12514,1390.4406 487.40134,1390.8978 C 487.18694,1387.9258 487.40134,1386.0974 488.6935,1383.3542 C 489.55398,1381.9794 488.6935,1380.1506 488.6935,1380.1506 C 488.6935,1380.1506 483.3133,1376.493 483.95938,1369.861 C 484.60546,1358.4282 493.64486,1353.3962 493.64486,1353.3962 C 498.80782,1346.7642 512.15254,1344.935 512.15254,1344.935 C 512.15254,1344.935 503.97362,1341.0462 494.71978,1347.907 C 492.1383,1349.7358 486.56342,1353.303 482.5995,1360.9738 C 479.32678,1370.9614 481.5669,1376.939 484.81986,1381.2938 C 485.68034,1381.5222 484.60546,1389.5262 484.60546,1389.5262 C 484.60546,1389.5262 476.4265,1406.4482 487.40134,1422.6846 z" style="fill:#ffffff;fill-opacity:1;fill-rule:nonzero;stroke:#000000;stroke-width:0.67722136;stroke-linecap:butt;stroke-linejoin:miter;stroke-miterlimit:3.86400008;stroke-dasharray:none;stroke-opacity:1" id="path541"/><path d="M 554.97974,1420.1698 C 554.76534,1423.1414 557.13238,1422.4558 557.13238,1422.4558 C 565.95742,1418.5698 563.80474,1389.9834 563.80474,1389.9834 C 562.72986,1382.2082 559.28506,1377.4078 559.28506,1377.4078 C 558.21014,1375.5786 558.21014,1359.3426 558.21014,1359.3426 C 556.0575,1348.5926 534.9655,1344.7066 534.9655,1344.7066 C 532.81286,1345.1634 534.9655,1346.9926 534.9655,1346.9926 C 551.53778,1351.5674 553.25878,1356.5966 553.25878,1356.5966 C 556.70358,1358.8854 554.3365,1376.7218 556.2719,1379.9222 C 560.57718,1383.5798 561.86934,1392.9582 561.86934,1392.9582 C 561.86934,1392.9582 559.28506,1389.755 558.21014,1390.8978 C 559.93114,1393.6438 560.14554,1397.9874 560.14554,1397.9874 C 560.14554,1397.9874 562.94426,1413.309 554.97974,1420.1698" style="fill:#ffffff;fill-opacity:1;fill-rule:nonzero;stroke:none" id="path543"/><path d="M 504.8341,1381.5222 C 503.75918,1383.1222 506.12626,1384.0398 506.12626,1384.0398 C 510.2143,1384.7258 513.35158,1380.2722 513.35158,1380.2722 C 515.8033,1376.7754 511.74626,1373.6966 510.14378,1373.7418 C 505.64098,1374.0546 508.06166,1378.5506 508.06166,1378.5506 C 509.13942,1376.2646 510.43154,1376.7218 510.43154,1376.7218 C 512.9453,1378.299 509.10838,1381.7002 504.8341,1381.5222" style="fill:#ffffff;fill-opacity:1;fill-rule:nonzero;stroke:none" id="path545"/><path d="M 533.2445,1374.2042 C 531.09186,1379.4646 535.98966,1382.4142 535.98966,1382.4142 C 538.63882,1384.1158 541.63786,1382.6682 541.63786,1382.6682 C 545.7259,1380.3794 542.49834,1376.2646 542.49834,1376.2646 C 539.69966,1372.8326 538.83914,1376.493 538.83914,1376.493 C 538.83914,1376.493 541.44886,1376.925 540.3457,1379.4646 C 539.06486,1381.1526 537.36642,1379.9446 537.36642,1379.9446 C 537.36642,1379.9446 534.9655,1378.3218 536.04042,1375.5786 C 536.04042,1373.5186 533.2445,1374.2042 533.2445,1374.2042" style="fill:#ffffff;fill-opacity:1;fill-rule:nonzero;stroke:none" id="path547"/><path d="M 492.67718,1360.9426 C 492.89158,1362.0858 495.14862,1366.545 495.14862,1366.545 C 502.25262,1360.9426 514.19514,1358.8854 514.19514,1358.8854 L 512.58138,1352.7102 C 510.86038,1351.8978 507.5115,1353.6442 507.5115,1353.6442 L 508.92498,1358.1966 L 507.49742,1353.5934 C 505.03442,1353.5738 502.68146,1355.6822 502.68146,1355.6822 L 504.40526,1360.257 L 502.67582,1355.6538 C 502.67582,1355.6538 498.9743,1356.2634 497.18278,1358.2022 C 496.77366,1358.4338 499.02506,1362.3142 499.02506,1362.3142 L 497.08682,1358.4282 C 497.08682,1358.4282 494.50534,1358.8854 492.67718,1360.9426 z" style="fill:#ffffff;fill-opacity:1;fill-rule:evenodd;stroke:#000000;stroke-width:0.67722136;stroke-linecap:butt;stroke-linejoin:miter;stroke-miterlimit:3.86400008;stroke-dasharray:none;stroke-opacity:1" id="path549"/><path d="M 550.13558,1360.3698 C 549.92118,1361.513 547.66414,1365.1706 547.66414,1365.1706 C 540.56014,1359.571 528.61758,1358.3122 528.61758,1358.3122 L 530.23138,1352.1374 C 532.16678,1351.4514 535.23918,1353.179 535.23918,1353.179 L 533.89062,1357.6262 L 535.23918,1353.179 C 537.75858,1352.9446 540.1313,1355.109 540.1313,1355.109 L 538.4103,1359.6838 L 540.0241,1355.225 C 540.0241,1355.225 544.25886,1356.0262 545.68362,1357.751 C 545.68362,1357.7962 543.7877,1361.7414 543.7877,1361.7414 L 545.7259,1357.8554 C 545.7259,1357.8554 548.31022,1358.3122 550.13558,1360.3698 z" style="fill:#ffffff;fill-opacity:1;fill-rule:evenodd;stroke:#000000;stroke-width:0.67722136;stroke-linecap:butt;stroke-linejoin:miter;stroke-miterlimit:3.86400008;stroke-dasharray:none;stroke-opacity:1" id="path551"/><path d="M 490.58942,1361.5722 C 488.97278,1362.6646 495.2953,1369.2258 495.88498,1373.7586 C 496.55642,1371.4978 499.30718,1364.3238 514.99922,1363.2878 C 514.2177,1362.529 512.35286,1358.9138 496.17838,1367.5074 C 493.23858,1368.6022 491.91258,1362.509 491.91258,1362.509 L 490.58942,1361.5722 z" style="fill:#de0031;fill-opacity:1;fill-rule:nonzero;stroke:#de0031;stroke-width:0.12133548;stroke-linecap:butt;stroke-linejoin:round;stroke-miterlimit:3.86400008;stroke-dasharray:none;stroke-opacity:1" id="path553"/><path d="M 551.35158,1361.6626 C 553.26442,1366.9766 549.4077,1365.007 548.82086,1369.539 C 542.79178,1362.0406 528.67686,1362.1958 528.67686,1362.1958 C 528.67686,1362.1958 530.14674,1357.3526 546.90806,1365.633 C 550.98762,1367.3742 551.35158,1361.6626 551.35158,1361.6626 z" style="fill:#de0031;fill-opacity:1;fill-rule:nonzero;stroke:#de0031;stroke-width:0.12133548;stroke-linecap:butt;stroke-linejoin:round;stroke-miterlimit:3.86400008;stroke-dasharray:none;stroke-opacity:1" id="path555"/><path d="M 516.76534,1363.1326 C 510.58954,1343.1346 515.49294,1339.2198 515.49294,1339.2198 C 518.13934,1336.5586 521.48818,1336.8014 521.48818,1336.8014 C 527.7289,1336.2058 528.77842,1341.3394 528.77842,1341.3394 C 530.69126,1347.2774 527.20414,1362.351 527.20414,1362.351 L 523.6747,1362.351 L 522.49822,1346.1034 C 521.76466,1344.853 522.0581,1344.695 520.88162,1345.7902 C 521.76466,1360.3218 521.01138,1362.351 521.01138,1362.351 C 521.01138,1362.351 519.41174,1362.509 516.76534,1363.1326 z" style="fill:#de0031;fill-opacity:1;fill-rule:nonzero;stroke:#de0031;stroke-width:0.12133548;stroke-linecap:butt;stroke-linejoin:miter;stroke-miterlimit:3.86400008;stroke-dasharray:none;stroke-opacity:1" id="path557"/><path d="M 504.38554,1442.5726 L 510.14378,1442.9934 C 511.6701,1443.1062 512.98198,1442.0814 513.07226,1440.7074 C 513.16538,1439.333 512.00018,1438.1278 510.4767,1438.0178 L 504.71842,1437.5942 C 503.19214,1437.4842 501.88022,1438.5058 501.78994,1439.8802 C 501.69682,1441.2546 502.86202,1442.4598 504.38554,1442.5726 z" style="fill:#f9f400;fill-opacity:1;fill-rule:nonzero;stroke:#000000;stroke-width:0.67722136;stroke-linecap:butt;stroke-linejoin:miter;stroke-miterlimit:3.86400008;stroke-dasharray:none;stroke-opacity:1" id="path559"/><path d="M 515.02742,1440.4422 C 515.11206,1441.7514 516.18418,1442.7418 517.4199,1442.6486 C 518.65278,1442.5554 519.58382,1441.4182 519.49918,1440.1058 C 519.41174,1438.7934 518.34246,1437.8058 517.10674,1437.8986 C 515.87382,1437.989 514.94282,1439.1294 515.02742,1440.4422 z" style="fill:#f9f400;fill-opacity:1;fill-rule:nonzero;stroke:#000000;stroke-width:0.67722136;stroke-linecap:butt;stroke-linejoin:miter;stroke-miterlimit:3.86400008;stroke-dasharray:none;stroke-opacity:1" id="path561"/><path d="M 549.91838,1440.6282 L 544.19678,1441.4774 C 542.68174,1441.7062 541.30494,1440.7834 541.12438,1439.4174 C 540.94382,1438.0542 542.02722,1436.7642 543.54506,1436.5386 L 549.26662,1435.6866 C 550.78166,1435.4634 552.15846,1436.3862 552.33902,1437.7494 C 552.51678,1439.1122 551.43338,1440.4022 549.91838,1440.6282 z" style="fill:#f9f400;fill-opacity:1;fill-rule:nonzero;stroke:#000000;stroke-width:0.67722136;stroke-linecap:butt;stroke-linejoin:miter;stroke-miterlimit:3.86400008;stroke-dasharray:none;stroke-opacity:1" id="path563"/><path d="M 539.35826,1439.8154 C 539.27082,1441.1278 538.1987,1442.1154 536.96298,1442.025 C 535.72726,1441.9322 534.79622,1440.7946 534.88086,1439.4822 C 534.96834,1438.1702 536.04042,1437.1822 537.27614,1437.2726 C 538.51186,1437.3654 539.4429,1438.503 539.35826,1439.8154 z" style="fill:#f9f400;fill-opacity:1;fill-rule:nonzero;stroke:#000000;stroke-width:0.67722136;stroke-linecap:butt;stroke-linejoin:miter;stroke-miterlimit:3.86400008;stroke-dasharray:none;stroke-opacity:1" id="path565"/><path d="M 567.24954,1380.6078 C 574.35074,1372.6042 579.51654,1370.0894 579.51654,1370.0894 C 576.10558,1361.8798 572.41254,1357.0538 572.41254,1357.0538 C 572.41254,1357.0538 569.34294,1357.3246 572.41254,1363.4574 C 573.49026,1363.2286 576.69526,1369.2174 576.69526,1369.2174 C 576.69526,1369.2174 569.08058,1372.4122 567.24954,1380.6078" style="fill:#ffffff;fill-opacity:1;fill-rule:nonzero;stroke:none" id="path567"/><path d="M 522.6675,1461.2446 C 522.6675,1461.2446 517.4989,1465.6302 512.49958,1466.4118 C 518.08854,1467.0354 520.00138,1471.255 520.00138,1471.255 L 522.49822,1478.5982 L 525.05994,1471.255 C 525.05994,1471.255 526.97278,1467.0354 532.56178,1466.4118 C 527.56246,1465.6302 522.6675,1461.2446 522.6675,1461.2446 z" style="fill:#ffffff;fill-opacity:1;fill-rule:nonzero;stroke:#000000;stroke-width:0.67722136;stroke-linecap:butt;stroke-linejoin:miter;stroke-miterlimit:3.86400008;stroke-dasharray:none;stroke-opacity:1" id="path569"/><path d="M 486.19382,1463.485 C 486.19382,1463.485 487.0769,1465.0914 486.76938,1465.6754 C 486.76374,1465.8614 484.2669,1473.4422 480.21834,1464.1062 C 478.94594,1464.8938 484.56314,1469.3778 480.44402,1471.4102 C 480.09422,1471.5202 477.94438,1473.4422 475.73814,1467.5042 C 474.35286,1467.9894 479.67382,1472.4206 474.67166,1473.8258 C 469.0855,1474.763 469.89522,1468.4834 469.89522,1468.4834 C 469.89522,1468.4834 469.77674,1464.569 476.03154,1459.8442 L 477.81178,1458.611 C 480.45814,1456.7346 483.38666,1458.7554 483.38666,1458.7554 C 483.38666,1458.7554 479.73306,1455.7578 480.88418,1451.4118 C 482.38226,1445.6318 492.35554,1446.0974 492.35554,1446.0974 C 500.00122,1447.0374 500.8843,1454.3806 500.8843,1454.3806 C 502.35418,1447.5058 512.10458,1448.1326 512.10458,1448.1326 C 520.18758,1448.911 522.67878,1461.3518 522.68158,1461.363 C 522.68158,1461.363 524.03302,1449.0666 532.11882,1448.2878 C 532.11882,1448.2878 542.70714,1447.5058 544.17702,1454.3806 C 544.17702,1454.3806 545.0601,1446.2386 552.70578,1445.2986 C 552.70578,1445.2986 561.02298,1445.2734 563.3759,1451.3666 C 564.92482,1457.2394 561.6747,1458.7554 561.6747,1458.7554 C 561.6747,1458.7554 565.11946,1458.1598 567.76866,1460.0338 C 573.84294,1464.9362 573.83446,1468.4722 573.83446,1468.4722 C 573.83446,1468.4722 574.67522,1472.3978 571.78902,1473.1118 C 570.11882,1473.4082 567.78842,1474.2238 568.52478,1467.8174 C 567.5599,1467.6002 568.34422,1472.2654 565.82482,1472.1974 C 559.25402,1470.9246 564.1405,1465.619 563.23202,1465.1618 C 563.23202,1465.1618 563.0825,1469.0678 559.70258,1468.4414 C 556.6697,1467.871 557.06186,1465.523 557.06186,1465.523 L 559.06218,1463.1522" style="fill:none;stroke:#000000;stroke-width:0.67722136;stroke-linecap:butt;stroke-linejoin:miter;stroke-miterlimit:3.86400008;stroke-dasharray:none;stroke-opacity:1" id="path571"/><path d="M 202.28722,1654.2586 L 1002.2872,1654.2586 L 1002.2872,1526.2586 L 202.28722,1526.2586 L 202.28722,1654.2586 z" style="fill:#2b58a3;fill-opacity:1;fill-rule:nonzero;stroke:none" id="path573"/><path d="M 762.28718,1430.2586 L 1002.2872,1430.2586 L 1002.2872,1398.2586 L 762.28718,1398.2586 L 762.28718,1430.2586 z" style="fill:#f9f400;fill-opacity:1;fill-rule:nonzero;stroke:none" id="path575"/><path d="M 202.28722,1302.2574 L 1002.2872,1302.2574 L 1002.2872,1174.2586 L 202.28722,1174.2586 L 202.28722,1302.2574 z" style="fill:#de0029;fill-opacity:1;fill-rule:nonzero;stroke:none" id="path577"/>







</g></svg>