<?xml version="1.0" encoding="UTF-8" standalone="no"?>
<!-- Generator: Adobe Illustrator 13.0.0, SVG Export Plug-In . SVG Version: 6.00 Build 14948)  -->
<svg xmlns:dc="http://purl.org/dc/elements/1.1/" xmlns:cc="http://creativecommons.org/ns#" xmlns:rdf="http://www.w3.org/1999/02/22-rdf-syntax-ns#" xmlns:svg="http://www.w3.org/2000/svg" xmlns="http://www.w3.org/2000/svg" xmlns:sodipodi="http://sodipodi.sourceforge.net/DTD/sodipodi-0.dtd" xmlns:inkscape="http://www.inkscape.org/namespaces/inkscape" version="1.1" id="Ebene_1" x="0px" y="0px" width="500" height="300" viewBox="0 0 500 300" enable-background="new 0 0 500 300" xml:space="preserve" inkscape:version="0.48.1 " sodipodi:docname="AJAX.svg"><metadata id="metadata19"><rdf:RDF><cc:Work rdf:about=""><dc:format>image/svg+xml</dc:format><dc:type rdf:resource="http://purl.org/dc/dcmitype/StillImage"/></cc:Work></rdf:RDF></metadata><defs id="defs17"/><sodipodi:namedview pagecolor="#ffffff" bordercolor="#666666" borderopacity="1" objecttolerance="10" gridtolerance="10" guidetolerance="10" inkscape:pageopacity="0" inkscape:pageshadow="2" inkscape:window-width="1280" inkscape:window-height="1004" id="namedview15" showgrid="false" fit-margin-top="0" fit-margin-left="0" fit-margin-right="0" fit-margin-bottom="0" inkscape:zoom="0.77201452" inkscape:cx="258.45895" inkscape:cy="-18.306326" inkscape:window-x="-8" inkscape:window-y="-8" inkscape:window-maximized="1" inkscape:current-layer="g3"/>
<g id="g3">
	<rect width="500" height="150" id="rect5" style="fill:#ffffff;stroke:none" x="0" y="0"/>
	<rect y="150" width="500" height="150" id="rect7" style="fill:#166c28;fill-opacity:1;stroke:none" x="0"/>
</g>
<g id="g1438" transform="translate(-6.00001,0.137817)">
	<path id="path1430" d="m 253.548,210.608 c -0.056,-0.02 -1.2,-0.149 -3.953,-0.45 -2.812,-0.308 -4.946,-0.714 -9.028,-1.723 -1.374,-0.339 -5.619,-1.896 -7.475,-2.739 -3.995,-1.817 -6.467,-3.195 -9.468,-5.278 -1.878,-1.304 -2.776,-1.993 -4.198,-3.227 -0.729,-0.632 -1.702,-1.453 -2.161,-1.823 -1.479,-1.195 -3.455,-3.372 -6.185,-6.812 -2.148,-2.707 -2.625,-3.425 -4.359,-6.564 -1.701,-3.077 -2.303,-4.338 -3.285,-6.879 -0.426,-1.101 -0.854,-2.202 -0.952,-2.449 -0.34,-0.859 -1.397,-5.142 -1.752,-7.104 -0.141,-0.777 -0.333,-2.09 -0.433,-2.967 -0.266,-2.317 -0.378,-3.246 -0.435,-3.583 -0.033,-0.197 -0.051,-12.75 -0.051,-36.181 v -35.88 l 56.756,0.011 56.755,0.011 0.014,36.035 c 0.016,40.049 0.037,37.403 -0.319,39.475 -0.509,2.957 -0.831,4.604 -1.18,6.023 -0.632,2.575 -0.923,3.639 -1.17,4.273 -0.13,0.333 -0.427,1.101 -0.66,1.707 -0.233,0.605 -0.565,1.465 -0.738,1.909 -0.174,0.444 -0.831,1.88 -1.463,3.19 -1.025,2.13 -1.228,2.512 -1.909,3.608 -0.96,1.544 -2.071,3.212 -2.989,4.487 -0.542,0.753 -1.13,1.467 -2.463,2.99 -2.427,2.773 -3.413,3.803 -4.83,5.04 -1.518,1.326 -2.533,2.151 -3.886,3.162 -3.061,2.285 -5.551,3.839 -9.096,5.675 -2.828,1.466 -7.602,3.298 -10.344,3.973 -4.455,1.095 -6.047,1.374 -10.66,1.87 -0.575,0.062 -1.194,0.134 -1.377,0.16 -0.312,0.049 -6.588,0.102 -6.706,0.06 z" inkscape:connector-curvature="0" style="fill:#fdd400"/>
	<path d="m 253.582,210.47 c -0.056,-0.021 -1.197,-0.15 -3.946,-0.451 -2.808,-0.307 -4.938,-0.713 -9.013,-1.721 -1.372,-0.34 -5.61,-1.895 -7.462,-2.739 -3.988,-1.816 -6.456,-3.193 -9.452,-5.275 -1.875,-1.302 -2.772,-1.992 -4.192,-3.224 -0.728,-0.632 -1.699,-1.453 -2.157,-1.823 -1.476,-1.195 -3.45,-3.37 -6.175,-6.809 -2.145,-2.705 -2.621,-3.422 -4.352,-6.561 -1.698,-3.075 -2.299,-4.336 -3.279,-6.875 -0.425,-1.1 -0.852,-2.202 -0.95,-2.448 -0.339,-0.859 -1.394,-5.139 -1.75,-7.101 -0.141,-0.776 -0.332,-2.089 -0.432,-2.966 -0.265,-2.316 -0.377,-3.244 -0.434,-3.581 -0.033,-0.197 -0.05,-12.744 -0.05,-36.163 V 86.872 l 113.324,0.022 0.014,36.016 c 0.015,40.029 0.036,37.383 -0.319,39.455 -0.508,2.956 -0.83,4.604 -1.178,6.021 -0.63,2.574 -0.921,3.636 -1.168,4.271 -0.13,0.333 -0.426,1.101 -0.659,1.706 -0.232,0.605 -0.564,1.464 -0.736,1.908 -0.174,0.444 -0.83,1.88 -1.46,3.189 -1.024,2.128 -1.227,2.511 -1.907,3.606 -0.958,1.544 -2.067,3.211 -2.984,4.485 -0.54,0.752 -1.128,1.466 -2.458,2.987 -2.423,2.773 -3.407,3.802 -4.822,5.038 -1.516,1.325 -2.528,2.151 -3.88,3.161 -3.055,2.284 -5.541,3.836 -9.081,5.672 -2.823,1.465 -7.588,3.297 -10.326,3.971 -4.447,1.094 -6.037,1.374 -10.643,1.869 -0.574,0.062 -1.192,0.134 -1.374,0.16 -0.316,0.048 -6.582,0.102 -6.699,0.061 z m 15.733,-0.861 c 9.654,-1.986 20.89,-9.753 20.745,-9.902 l -3.93,-4.072 c 0,0 -67.45,0.257 -67.427,0.278 7.262,6.759 15.204,10.474 22.333,12.837 3.447,1.143 6.183,1.737 10.56,2.176 1.755,0.174 15.501,-0.86 17.719,-1.317 z m 6.861,-25.465 -12.218,-13.272 c 0,0 -61.371,-0.168 -61.371,-0.07 0,0.173 5.971,13.155 6.149,13.388 0.045,0.057 67.466,0.024 67.44,-0.046 z m 21.124,-0.952 c -0.049,-0.154 -0.077,-0.312 -0.087,-0.469 -0.01,-0.156 -0.001,-0.312 0.026,-0.464 0.107,-0.646 0.396,-1.088 0.792,-1.389 0.132,-0.101 0.276,-0.186 0.43,-0.257 0.192,-0.104 0.382,-0.152 0.571,-0.163 0.637,-0.009 1.154,0.327 1.787,0.495 1.266,0.281 1.61,-1.009 2.53,-1.569 0.461,-0.28 1.036,-0.225 1.502,0.069 0.032,0.019 0.113,0.068 0.226,0.139 0.564,0.35 1.918,1.194 1.939,1.171 0.181,-0.196 4.065,-10.347 3.874,-10.352 0,0 -1.551,-0.038 -3.333,-0.083 -0.136,-0.002 -0.274,-0.005 -0.412,-0.005 -0.862,0.036 -1.725,0.372 -2.588,0.148 -1.38,-0.28 -2.53,0.448 -2.458,1.815 -0.024,0.218 -0.043,0.441 -0.06,0.664 -0.05,0.67 -0.085,1.338 -0.239,1.844 -0.02,0.176 -0.035,0.345 -0.058,0.502 -0.03,0.205 -0.068,0.395 -0.108,0.559 -0.126,0.598 -0.381,1.075 -0.727,1.444 -0.087,0.093 -0.179,0.179 -0.275,0.257 -0.331,0.146 -0.561,0.482 -0.989,0.522 -0.122,0.022 -0.248,0.029 -0.377,0.016 -0.518,0 -1.035,-0.056 -1.542,0.068 -0.165,0.037 -0.329,0.082 -0.493,0.13 -0.653,0.194 -1.301,0.447 -1.991,0.475 -0.211,0.019 -0.41,0.003 -0.595,-0.041 -0.459,-0.096 -0.897,-0.435 -1.016,-0.858 -0.039,-0.142 -0.043,-0.292 10e-4,-0.445 0.402,-1.178 0.805,-3.083 -0.921,-3.364 -1.093,-0.168 -1.61,0.897 -2.249,1.54 -0.119,0.179 -0.226,0.357 -0.312,0.53 -0.087,0.174 -0.152,0.342 -0.192,0.499 -0.105,0.411 0.522,4.657 1.412,5.649 0.1,0.11 0.202,0.181 0.306,0.202 0.645,0.309 1.307,0.566 1.986,0.75 0.169,0.046 0.341,0.087 0.513,0.124 0.837,0.179 1.699,-0.046 2.534,-0.218 0.363,0.019 0.593,0.065 0.593,0.065 z m -42.314,-22.526 -11.719,-13.571 -42.851,0.231 c 0,0 0.229,13.452 0.333,13.748 0.037,0.109 54.264,-0.299 54.237,-0.408 z m 57.409,-0.65 0.068,-12.468 c 0,0 -16.362,-0.039 -25.756,-0.061 -0.126,0 -0.251,0 -0.374,0 -1.848,0.108 -3.918,-0.396 -5.643,0.165 -0.095,0.154 -0.172,0.315 -0.236,0.482 -0.448,1.169 -0.248,2.624 -0.408,3.964 -0.014,0.173 -0.035,0.344 -0.066,0.516 -0.049,0.19 -0.111,0.374 -0.189,0.55 -0.135,0.402 -0.347,0.728 -0.613,0.978 -0.134,0.125 -0.279,0.23 -0.437,0.316 -0.927,0.481 -2.077,0.145 -2.997,-0.191 -0.575,-0.224 -1.093,0.393 -1.551,0.718 -0.147,0.094 -0.298,0.178 -0.454,0.239 -0.312,0.124 -0.646,0.159 -1.021,0.018 -0.113,-0.045 -0.221,-0.103 -0.318,-0.173 -0.196,-0.142 -0.355,-0.335 -0.451,-0.577 -0.058,-0.141 -0.076,-0.277 -0.067,-0.411 0.009,-0.134 0.044,-0.265 0.093,-0.394 0.837,-1.102 0.664,-3.007 -0.889,-3.287 -1.381,-0.225 -1.898,1.457 -2.289,2.486 -0.063,0.197 -0.115,0.405 -0.155,0.621 -0.163,0.863 -0.139,1.858 0.182,2.877 0.914,2.896 5.098,3.324 6.394,3.115 0.217,-0.035 0.353,-0.087 0.379,-0.15 0.437,-0.99 0.437,-2.336 1.588,-2.896 0.488,-0.224 1.034,-0.237 1.547,-0.102 0.171,0.045 0.338,0.106 0.498,0.184 0.313,0.199 0.658,0.535 0.772,0.479 0.863,-0.279 1.438,-1.289 2.416,-1.4 1.035,-0.169 1.897,0.84 1.956,1.793 0,0.393 -0.288,0.729 -0.521,1.009 -0.133,0.149 -0.279,0.296 -0.422,0.444 -0.284,0.298 -0.553,0.602 -0.668,0.957 1.323,0.225 2.589,0.28 3.928,0.225 0.117,0.001 0.235,0.001 0.357,0.002 7.891,0.036 25.346,0.048 25.347,-0.028 z m -80.186,-23.921 c 0.039,-0.062 -11.484,-12.804 -11.535,-12.822 -0.118,-0.043 -19.876,0.113 -19.994,0.157 -0.08,0.03 -0.261,12.198 -0.24,12.218 0.06,0.057 31.732,0.504 31.769,0.447 z m 80.778,0.309 -0.283,-13.951 -53.992,0.124 c 0,0 -0.238,2.498 -0.586,4.484 -0.022,0.133 -0.046,0.263 -0.07,0.39 0.202,2.656 -2.099,3.385 -4.342,2.656 -0.172,-0.056 -0.402,0.056 -0.553,0.153 -0.183,0.055 -0.365,0.115 -0.546,0.18 -0.544,0.194 -1.083,0.429 -1.624,0.708 -0.136,-0.014 -0.268,-0.052 -0.389,-0.109 -0.486,-0.229 -0.818,-0.764 -0.742,-1.325 0.116,-0.785 0.518,-1.513 0.417,-2.319 -0.018,-0.145 -0.051,-0.283 -0.104,-0.409 -0.155,-0.378 -0.479,-0.649 -1.062,-0.691 -0.978,-0.112 -1.553,0.897 -1.798,1.719 -0.065,0.155 -0.127,0.307 -0.188,0.449 -0.062,0.142 -0.123,0.275 -0.186,0.392 -0.082,0.192 -0.152,0.391 -0.211,0.593 -0.531,1.82 -0.103,3.946 1.845,4.779 0.175,0.127 0.358,0.249 0.548,0.361 1.334,0.788 3.056,1.109 3.954,0.865 0.256,-0.07 0.445,-0.185 0.537,-0.354 0.034,-0.186 0.076,-0.362 0.127,-0.528 0.051,-0.167 0.111,-0.324 0.18,-0.473 0.071,-0.147 0.154,-0.29 0.25,-0.426 0.095,-0.136 0.202,-0.265 0.315,-0.387 0.782,-1.049 2.277,-0.993 3.253,-0.151 0.175,0.055 0.405,0.167 0.463,-10e-4 0.078,-0.14 0.166,-0.277 0.263,-0.407 0.097,-0.131 0.2,-0.256 0.312,-0.373 0.667,-0.701 1.588,-1.109 2.553,-0.722 0.177,0.073 0.343,0.167 0.493,0.28 0.151,0.114 0.286,0.247 0.4,0.399 0.083,0.118 0.151,0.249 0.204,0.392 0.102,0.187 0.152,0.393 0.156,0.601 0.004,0.208 -0.039,0.418 -0.125,0.614 -0.23,0.673 -0.748,1.177 -0.806,1.906 1.323,0.057 2.646,0.057 3.946,0.063 0.173,0.002 0.352,0.005 0.536,0.007 11.474,0.172 46.723,0.562 46.855,0.511 z M 211.068,112.44 c -0.023,-0.107 -10.792,-11.39 -10.862,-11.39 -0.058,0 -0.151,11.122 -0.094,11.18 0.023,0.023 10.973,0.288 10.956,0.21 z M 313.263,98.022 c 0,0 -56.557,0.591 -71.964,0.764 -0.155,0.002 -0.307,0.004 -0.455,0.005 -1.164,0.038 -2.487,-0.578 -3.35,-0.074 -0.978,0.617 -0.518,2.242 -0.582,3.455 0,0.191 0.001,0.381 0.003,0.572 0.002,0.191 0.004,0.38 0.004,0.57 0,0.224 -0.173,0.504 -0.207,0.756 -0.044,0.122 -0.09,0.243 -0.138,0.364 -0.173,0.504 0,1.121 -0.345,1.514 -0.518,0.616 -1.38,0.896 -2.202,0.607 -0.138,-0.04 -0.274,-0.086 -0.41,-0.132 -0.408,-0.139 -0.811,-0.279 -1.242,-0.251 -1.093,0 -1.898,1.065 -3.021,0.861 -0.128,-0.014 -0.244,-0.033 -0.345,-0.056 -0.208,-0.047 -0.343,-0.138 -0.427,-0.257 -0.06,-0.211 -0.175,-0.379 -0.118,-0.604 0.229,-1.121 1.15,-2.186 0.345,-3.251 -0.403,-0.561 -1.266,-0.561 -1.841,-0.224 -0.805,0.504 -1.15,1.401 -1.4,2.246 -0.052,0.168 -0.099,0.331 -0.141,0.483 -0.067,0.192 -0.125,0.381 -0.172,0.571 -0.419,1.705 0.124,3.517 1.358,4.837 0.098,0.09 0.209,0.175 0.331,0.255 0.488,0.321 1.158,0.565 1.868,0.75 0.118,0.031 0.237,0.06 0.357,0.087 1.077,0.242 2.515,0.41 2.975,-0.094 0.345,-0.392 0.402,-1.065 0.561,-1.709 0.04,-0.162 0.085,-0.321 0.144,-0.474 0.215,-0.675 0.848,-1.18 1.567,-1.189 0.187,0.01 0.374,0.065 0.546,0.178 0.115,0.057 0.235,0.131 0.358,0.213 0.616,0.412 1.316,1.015 1.925,0.426 0.097,-0.103 0.184,-0.221 0.267,-0.345 0.083,-0.124 0.163,-0.252 0.247,-0.379 0.084,-0.126 0.172,-0.249 0.271,-0.36 0.211,-0.228 0.441,-0.396 0.786,-0.452 0.187,-0.042 0.374,-0.049 0.556,-0.025 0.181,0.023 0.357,0.078 0.523,0.158 0.11,0.054 0.215,0.119 0.314,0.195 1.138,0.793 0.735,2.194 0.333,3.259 -0.402,1.345 1.783,1.177 2.684,1.087 0.194,-0.013 0.389,-0.025 0.584,-0.036 0.388,-0.021 0.772,-0.032 1.142,-0.009 0.167,0.002 0.338,0.004 0.515,0.007 15.383,0.212 67.684,0.934 67.684,0.934 l 0.112,-15.233 z" id="path11" style="fill:#166c28;fill-opacity:1" inkscape:connector-curvature="0"/>
	<path d="m 253.863,211.13 c -0.174,-0.012 -0.937,-0.06 -1.696,-0.107 -5.35,-0.338 -10.966,-1.581 -16.45,-3.644 -2.425,-0.911 -4.433,-1.856 -7.679,-3.61 -4.135,-2.235 -9.359,-6.257 -12.676,-9.756 -3.17,-3.345 -4.896,-5.483 -6.83,-8.464 -4.683,-7.218 -7.45,-14.655 -8.499,-22.841 -0.279,-2.179 -0.41,-3.757 -0.466,-5.605 -0.064,-2.14 -0.073,-70.485 -0.009,-70.583 l 114.036,-0.042 v 35.733 35.733 l -0.129,1.692 c -0.306,4.017 -0.866,7.11 -2.051,11.315 -0.855,3.038 -2.259,6.491 -4.075,10.03 -1.109,2.161 -2.303,4.065 -4.3,6.865 -1.539,2.159 -3.917,4.883 -6.269,7.179 -2.944,2.876 -5.826,5.141 -9.474,7.445 -1.846,1.166 -5.324,3.016 -7.206,3.83 -6.156,2.666 -12.604,4.27 -19.009,4.729 -1.178,0.086 -6.349,0.157 -7.218,0.101 z m 6.925,-1.451 c 3.721,-0.339 6.046,-0.677 8.346,-1.213 7.19,-1.674 13.253,-4.308 19.313,-8.391 0.692,-0.467 0.961,-0.678 0.949,-0.747 -0.014,-0.075 -2.319,-2.67 -2.918,-3.283 l -0.123,-0.126 c 0,0 -66.834,0.02 -66.856,0.053 -0.041,0.064 1.418,1.285 2.788,2.329 5.684,4.337 12.067,7.521 18.952,9.452 3.632,1.02 6.29,1.482 11.016,1.922 1.235,0.115 1.75,0.132 4.197,0.138 2.564,0.005 2.914,-0.006 4.336,-0.134 z m 30.345,-11.588 c 0.25,-0.193 0.456,-0.38 0.458,-0.415 0.002,-0.034 -90.499,-100.037 -90.57,-100.059 -0.056,-0.018 -0.072,0.208 -0.072,1.005 v 1.029 l 0.335,0.363 c 0.184,0.2 89.28,98.424 89.321,98.424 0.041,0.002 0.278,-0.155 0.528,-0.347 z m 2.291,-1.886 c 1.033,-0.875 1.303,-1.148 1.239,-1.255 -0.027,-0.046 -93.675,-104.16 -93.718,-104.161 l 0.004,4.848 0.187,0.211 c 0.368,0.415 91.378,101.022 91.421,101.022 0.044,0.001 0.434,-0.299 0.867,-0.665 z m 2.737,-2.472 c 0.214,-0.215 0.38,-0.428 0.369,-0.473 -0.01,-0.045 -94.288,-104.892 -94.382,-104.978 -0.164,-0.149 -0.192,-0.155 -0.671,-0.14 l -0.5,0.016 -0.034,0.737 c 0,0 94.662,105.229 94.765,105.229 0.036,0.001 0.24,-0.176 0.453,-0.391 z m 0.984,-3.181 c 0,-1.05 0.018,-1.307 0.133,-1.856 0.138,-0.665 0.387,-1.4 0.585,-1.727 0.133,-0.22 0.149,-0.354 0.043,-0.354 -0.04,0 -0.319,0.061 -0.618,0.135 -1.407,0.347 -2.957,0.308 -4.312,-0.109 -0.258,-0.079 -0.506,-0.137 -0.553,-0.127 -0.088,0.018 4.554,5.247 4.664,5.254 0.036,0.001 0.058,-0.438 0.058,-1.216 z m 1.966,0 c 0.96,-1.033 3.42,-4.259 4.244,-5.563 0.86,-1.362 2.1,-3.518 2.1,-3.651 0,-0.171 -0.538,-0.686 -0.933,-0.891 -0.974,-0.506 -1.886,0.054 -1.886,1.155 0,0.163 -0.026,0.313 -0.06,0.333 -0.088,0.054 -1.082,0.308 -1.201,0.308 -0.063,0 -0.183,-0.126 -0.311,-0.327 -0.418,-0.66 -0.988,-1.029 -1.59,-1.029 -0.775,0 -1.312,0.579 -1.254,1.356 0.026,0.349 0.241,0.892 0.388,0.98 0.307,0.185 -0.728,0.629 -1.969,0.847 -0.725,0.128 -2.039,0.128 -2.707,0.001 -1.087,-0.206 -1.987,-0.646 -2.608,-1.275 -0.812,-0.822 -1.604,-2.274 -1.901,-3.485 -0.141,-0.572 -0.136,-1.832 0.009,-2.364 0.301,-1.102 0.959,-2.096 1.931,-2.917 0.561,-0.473 0.635,-0.502 1.266,-0.502 0.48,0 0.586,0.019 0.871,0.154 1.097,0.525 1.369,1.948 0.677,3.536 -0.201,0.463 -0.206,0.543 -0.038,0.692 0.555,0.495 1.47,0.371 2.513,-0.342 l 0.464,-0.316 0.274,0.136 c 0.836,0.413 1.833,0.489 2.498,0.19 1.151,-0.517 1.535,-1.923 0.872,-3.198 l -0.142,-0.272 0.302,-0.458 c 0.633,-0.959 0.703,-1.378 0.357,-2.115 -0.115,-0.245 -0.228,-0.446 -0.251,-0.446 -0.022,0 -0.259,0.099 -0.524,0.219 -0.631,0.285 -1.124,0.398 -1.734,0.398 -0.67,0 -1.042,-0.136 -1.38,-0.502 -0.441,-0.479 -0.562,-1.129 -0.308,-1.661 0.162,-0.339 0.495,-0.62 1.015,-0.86 0.335,-0.154 0.428,-0.172 0.924,-0.172 0.643,0 1.273,0.138 1.796,0.393 0.19,0.093 0.375,0.168 0.412,0.168 0.107,0 0.356,-0.287 0.51,-0.589 0.22,-0.432 0.283,-0.735 0.283,-1.346 0,-0.479 -0.026,-0.635 -0.175,-1.055 l -0.174,-0.493 0.133,-0.318 c 0.201,-0.484 0.278,-0.961 0.245,-1.527 -0.024,-0.417 -0.062,-0.566 -0.212,-0.865 -0.563,-1.112 -1.762,-1.52 -3.121,-1.058 -0.508,0.172 -0.473,0.18 -1.078,-0.232 -0.584,-0.396 -0.91,-0.499 -1.586,-0.502 -0.545,-0.002 -0.594,0.008 -0.931,0.187 -0.195,0.104 -0.37,0.224 -0.388,0.269 -0.018,0.044 0.071,0.281 0.197,0.525 0.374,0.725 0.518,1.209 0.518,1.75 0,0.556 -0.1,0.921 -0.41,1.505 -0.393,0.739 -0.709,0.96 -1.366,0.955 -0.7,-0.005 -1.427,-0.498 -1.642,-1.113 -0.247,-0.704 0.019,-1.712 0.69,-2.631 l 0.263,-0.358 -0.146,-0.242 c -0.432,-0.717 -1.246,-1.005 -2.172,-0.771 -0.241,0.062 -0.616,0.199 -0.834,0.306 l -0.395,0.194 -0.274,-0.242 c -0.509,-0.449 -1.335,-0.631 -2.054,-0.45 -0.697,0.174 -1.219,0.589 -1.519,1.209 -0.238,0.493 -0.278,1.248 -0.103,1.962 0.132,0.537 0.16,0.451 -0.344,1.034 -0.449,0.519 -0.691,1.016 -0.727,1.49 -0.03,0.41 0.041,0.698 0.219,0.883 l 0.113,0.119 0.273,-0.132 c 0.97,-0.473 2.721,-0.249 3.424,0.438 0.229,0.222 0.414,0.585 0.472,0.923 0.062,0.359 -0.066,0.923 -0.279,1.231 -0.389,0.562 -1.796,1.422 -2.829,1.728 -0.458,0.136 -0.604,0.152 -1.348,0.152 -0.74,0 -0.892,-0.017 -1.339,-0.15 -0.968,-0.287 -1.87,-0.799 -3.017,-1.711 -0.909,-0.724 -1.268,-1.292 -1.581,-2.511 -0.108,-0.422 -0.128,-0.648 -0.128,-1.532 0,-0.945 0.014,-1.092 0.156,-1.647 0.087,-0.334 0.258,-0.817 0.38,-1.071 0.239,-0.498 0.668,-1.149 0.755,-1.149 0.03,0 0.187,0.098 0.349,0.218 0.338,0.249 0.613,0.343 1.003,0.343 0.375,0 0.672,-0.096 0.924,-0.298 0.594,-0.477 0.479,-1.323 -0.291,-2.152 -0.174,-0.188 -0.316,-0.375 -0.315,-0.417 0.001,-0.041 0.111,-0.276 0.245,-0.521 l 0.242,-0.446 0.448,-0.152 c 0.779,-0.263 1.294,-0.678 1.395,-1.122 0.089,-0.397 -0.265,-0.997 -0.726,-1.226 -0.25,-0.125 -0.658,-0.144 -0.898,-0.043 -0.529,0.223 -0.994,0.744 -1.115,1.25 -0.116,0.485 -0.125,0.495 -0.624,0.695 -0.264,0.106 -0.489,0.167 -0.514,0.14 -0.023,-0.027 -0.157,-0.199 -0.297,-0.381 -0.816,-1.058 -2.02,-1.246 -2.558,-0.397 -0.162,0.255 -0.173,0.305 -0.167,0.809 0.004,0.401 0.037,0.62 0.131,0.872 0.15,0.402 0.16,0.39 -0.533,0.65 -0.864,0.324 -1.388,0.41 -2.508,0.407 -0.897,-0.002 -1.067,-0.018 -1.565,-0.147 -1.64,-0.427 -2.824,-1.338 -3.697,-2.843 -1.146,-1.977 -1.173,-4.035 -0.076,-5.774 0.371,-0.589 1.324,-1.539 1.744,-1.74 0.401,-0.192 1.128,-0.194 1.564,-0.004 0.688,0.298 1.063,0.972 1.067,1.912 0.002,0.539 -0.1,0.979 -0.389,1.681 l -0.196,0.477 0.151,0.153 c 0.563,0.574 1.884,0.358 2.688,-0.438 l 0.307,-0.304 0.423,0.195 c 0.621,0.285 1.075,0.383 1.658,0.355 1.654,-0.079 2.408,-1.486 1.713,-3.202 l -0.177,-0.437 0.352,-0.711 c 0.404,-0.817 0.497,-1.118 0.451,-1.454 -0.042,-0.294 -0.298,-0.8 -0.405,-0.8 -0.044,0 -0.27,0.088 -0.502,0.195 -0.866,0.4 -1.973,0.54 -2.607,0.329 -0.627,-0.208 -1.065,-0.876 -1.065,-1.622 0,-0.934 0.731,-1.422 2.134,-1.424 0.68,-0.001 1.271,0.119 1.808,0.367 l 0.324,0.15 0.172,-0.161 c 0.095,-0.088 0.264,-0.342 0.376,-0.563 0.175,-0.344 0.209,-0.476 0.233,-0.903 0.035,-0.595 -0.076,-1.158 -0.331,-1.685 l -0.17,-0.351 0.166,-0.322 c 0.28,-0.541 0.365,-0.914 0.339,-1.487 -0.021,-0.449 -0.047,-0.553 -0.218,-0.865 -0.602,-1.096 -2.005,-1.492 -3.223,-0.91 l -0.259,0.124 -0.475,-0.311 c -0.734,-0.479 -1.399,-0.631 -2.084,-0.478 -0.245,0.055 -0.89,0.342 -1.001,0.445 -0.029,0.028 0.034,0.244 0.152,0.513 0.713,1.628 0.641,2.707 -0.246,3.652 -0.388,0.414 -0.752,0.564 -1.271,0.528 -0.907,-0.063 -1.461,-0.751 -1.456,-1.809 0.003,-0.654 0.234,-1.261 0.751,-1.972 0.139,-0.19 0.253,-0.373 0.253,-0.406 0,-0.12 -0.728,-0.772 -1.007,-0.905 -0.612,-0.288 -1.4,-0.197 -2.26,0.26 -0.199,0.105 -0.386,0.192 -0.415,0.192 -0.029,0 -0.172,-0.112 -0.316,-0.248 -0.351,-0.333 -0.784,-0.49 -1.352,-0.488 -0.733,0.002 -1.279,0.233 -1.745,0.737 -0.592,0.642 -0.688,1.548 -0.274,2.605 l 0.109,0.28 -0.302,0.336 c -0.559,0.621 -0.952,1.369 -0.951,1.806 0,0.269 0.111,0.561 0.277,0.735 l 0.161,0.167 0.456,-0.106 c 0.573,-0.133 1.581,-0.144 2.064,-0.021 0.792,0.201 1.398,0.68 1.527,1.208 0.132,0.535 -0.068,1.354 -0.422,1.725 -0.207,0.219 -1.129,0.82 -1.633,1.066 -0.26,0.127 -0.7,0.299 -0.979,0.382 -0.456,0.136 -0.592,0.15 -1.396,0.15 -0.804,0 -0.941,-0.014 -1.409,-0.151 -1.066,-0.314 -2.322,-1.057 -3.195,-1.887 -1.465,-1.395 -1.954,-3.819 -1.196,-5.931 0.188,-0.524 0.611,-1.31 0.851,-1.578 l 0.147,-0.166 0.371,0.223 c 0.203,0.123 0.462,0.247 0.574,0.277 0.778,0.211 1.527,-0.2 1.664,-0.913 0.104,-0.54 -0.109,-1.088 -0.64,-1.642 -0.182,-0.19 -0.329,-0.393 -0.328,-0.451 0.002,-0.058 0.076,-0.281 0.166,-0.497 0.177,-0.428 0.226,-0.468 0.771,-0.624 0.781,-0.222 1.419,-0.783 1.418,-1.247 -0.002,-0.461 -0.457,-1.063 -0.978,-1.292 -0.83,-0.365 -1.925,0.223 -2.094,1.125 -0.045,0.245 -0.05,0.248 -0.661,0.522 l -0.482,0.216 -0.12,-0.163 c -0.495,-0.678 -1.192,-1.145 -1.709,-1.145 -0.362,0 -0.553,0.076 -0.813,0.322 -0.443,0.419 -0.506,1.13 -0.164,1.843 0.216,0.449 0.217,0.447 -0.397,0.683 -1.001,0.382 -2.337,0.563 -3.444,0.464 -1.412,-0.125 -2.439,-0.517 -3.243,-1.236 -0.677,-0.605 -1.71,-2.332 -2.031,-3.394 -0.206,-0.683 -0.255,-1.706 -0.114,-2.386 0.324,-1.563 1.528,-3.125 2.779,-3.601 0.302,-0.116 0.924,-0.124 1.191,-0.014 0.314,0.128 0.723,0.534 0.897,0.893 0.359,0.737 0.346,1.52 -0.044,2.696 l -0.204,0.615 0.193,0.157 c 0.616,0.501 1.764,0.277 2.593,-0.504 l 0.27,-0.254 0.42,0.202 c 1.202,0.578 2.368,0.475 3.095,-0.274 0.601,-0.619 0.755,-1.486 0.425,-2.383 l -0.104,-0.279 0.185,-0.327 c 0.426,-0.754 0.624,-1.544 0.53,-2.108 -0.053,-0.314 -0.326,-0.92 -0.433,-0.96 -0.034,-0.013 -0.281,0.076 -0.549,0.198 -0.614,0.28 -1.047,0.393 -1.665,0.436 -1.258,0.086 -1.952,-0.403 -2.004,-1.417 -0.025,-0.493 0.055,-0.75 0.325,-1.042 0.416,-0.448 1.079,-0.661 2.06,-0.661 0.733,0 1.153,0.099 1.629,0.385 0.161,0.096 0.315,0.175 0.344,0.175 0.089,0 0.401,-0.423 0.565,-0.766 0.146,-0.303 0.158,-0.379 0.156,-1.028 -0.002,-0.675 -0.01,-0.72 -0.222,-1.256 l -0.22,-0.555 0.201,-0.398 c 0.298,-0.589 0.353,-0.797 0.351,-1.322 -0.004,-0.852 -0.406,-1.496 -1.144,-1.833 -0.303,-0.138 -0.413,-0.157 -0.896,-0.157 -0.52,0 -0.572,0.011 -0.995,0.215 l -0.446,0.215 -0.426,-0.287 c -0.691,-0.465 -1.121,-0.636 -1.673,-0.665 -0.338,-0.017 -0.549,0.001 -0.745,0.066 -0.333,0.11 -0.83,0.415 -0.83,0.508 0,0.038 0.092,0.275 0.205,0.528 0.541,1.217 0.549,1.995 0.03,3.054 -0.236,0.482 -0.368,0.631 -0.714,0.809 -0.254,0.13 -0.366,0.151 -0.79,0.152 -0.45,0.001 -0.519,-0.014 -0.774,-0.169 -0.401,-0.241 -0.587,-0.529 -0.698,-1.073 -0.083,-0.411 -0.083,-0.501 -0.004,-0.964 0.099,-0.568 0.314,-1.07 0.68,-1.577 l 0.238,-0.331 -0.118,-0.185 c -0.576,-0.903 -1.642,-1.111 -2.988,-0.582 l -0.47,0.185 -0.293,-0.192 c -0.489,-0.321 -0.859,-0.419 -1.497,-0.396 -0.483,0.017 -0.598,0.042 -0.93,0.201 -0.476,0.229 -0.905,0.672 -1.084,1.119 -0.193,0.482 -0.18,1.277 0.032,1.913 l 0.156,0.47 -0.227,0.231 c -1.002,1.019 -1.292,1.79 -0.928,2.474 0.169,0.319 0.195,0.324 0.714,0.13 0.301,-0.112 0.451,-0.128 1.179,-0.129 0.729,-0.001 0.883,0.015 1.226,0.129 0.513,0.173 0.839,0.418 1.018,0.766 0.12,0.232 0.144,0.36 0.144,0.756 0,0.41 -0.023,0.521 -0.164,0.801 -0.438,0.868 -1.835,1.821 -3.2,2.184 -0.611,0.162 -1.691,0.159 -2.325,-0.007 -1.357,-0.355 -2.628,-1.159 -3.634,-2.296 -1.375,-1.556 -1.667,-4.189 -0.688,-6.21 0.229,-0.473 0.688,-1.198 0.756,-1.198 0.017,0 0.203,0.102 0.415,0.227 0.485,0.285 0.924,0.415 1.24,0.365 0.645,-0.101 1.049,-0.616 1.003,-1.278 -0.033,-0.497 -0.249,-0.915 -0.705,-1.371 -0.208,-0.207 -0.376,-0.403 -0.375,-0.435 0.004,-0.112 0.43,-0.835 0.516,-0.875 0.047,-0.021 0.28,-0.096 0.518,-0.164 1.498,-0.433 1.886,-1.304 0.968,-2.169 -0.292,-0.274 -0.477,-0.354 -0.831,-0.354 -0.314,0 -0.614,0.144 -0.896,0.43 -0.248,0.251 -0.505,0.758 -0.507,1 -0.001,0.092 -0.021,0.196 -0.044,0.229 -0.059,0.085 -1.014,0.584 -1.112,0.582 -0.043,-10e-4 -0.234,-0.218 -0.422,-0.48 -0.368,-0.514 -0.621,-0.742 -1.018,-0.917 -0.565,-0.25 -1.201,-0.054 -1.515,0.469 -0.305,0.507 -0.293,1.064 0.038,1.703 0.1,0.192 0.169,0.362 0.155,0.376 -0.015,0.014 -0.167,0.086 -0.34,0.16 -1.37,0.588 -3.422,0.649 -4.956,0.148 -1.279,-0.417 -1.997,-0.968 -2.816,-2.16 -0.519,-0.755 -0.81,-1.296 -1.036,-1.931 -0.185,-0.518 -0.19,-0.557 -0.188,-1.429 0.002,-0.818 0.016,-0.941 0.162,-1.401 0.503,-1.59 1.56,-2.948 2.625,-3.372 0.393,-0.157 0.985,-0.135 1.352,0.049 0.727,0.366 1.063,0.926 1.108,1.84 0.03,0.612 -0.044,0.964 -0.365,1.747 -0.112,0.271 -0.188,0.518 -0.168,0.548 0.019,0.031 0.157,0.125 0.305,0.21 0.244,0.14 0.323,0.155 0.819,0.155 0.518,0 0.574,-0.012 0.984,-0.209 0.269,-0.129 0.526,-0.306 0.674,-0.462 0.131,-0.139 0.268,-0.253 0.302,-0.253 0.034,0 0.248,0.088 0.473,0.197 1.521,0.73 3.071,0.268 3.521,-1.049 0.135,-0.395 0.091,-1.24 -0.087,-1.698 -0.195,-0.501 -0.205,-0.615 -0.066,-0.805 0.067,-0.091 0.23,-0.386 0.362,-0.655 0.208,-0.423 0.244,-0.551 0.266,-0.95 0.022,-0.413 0.008,-0.498 -0.134,-0.806 -0.087,-0.189 -0.191,-0.344 -0.23,-0.344 -0.04,0 -0.263,0.088 -0.496,0.195 -0.605,0.28 -1.23,0.421 -1.856,0.421 -0.609,0 -0.833,-0.051 -1.186,-0.27 -0.394,-0.244 -0.59,-0.64 -0.618,-1.244 -0.019,-0.42 -0.006,-0.506 0.117,-0.729 0.377,-0.688 1.875,-1.175 2.862,-0.93 0.206,0.051 0.577,0.207 0.825,0.347 0.248,0.14 0.487,0.241 0.53,0.225 0.117,-0.043 0.424,-0.471 0.579,-0.806 0.372,-0.806 0.275,-1.731 -0.263,-2.515 l -0.121,-0.176 0.137,-0.16 c 0.473,-0.55 0.624,-1.348 0.385,-2.035 -0.318,-0.917 -1.123,-1.626 -2.033,-1.79 -0.508,-0.091 -0.875,0 -1.48,0.369 -0.144,0.087 -0.158,0.083 -0.518,-0.174 -0.204,-0.145 -0.565,-0.355 -0.802,-0.467 -0.791,-0.373 -1.713,-0.302 -2.271,0.174 l -0.207,0.176 0.144,0.354 c 0.616,1.518 0.516,2.987 -0.262,3.851 -0.43,0.477 -1.128,0.587 -1.752,0.276 -1.096,-0.546 -1.189,-2.089 -0.212,-3.512 0.364,-0.53 0.364,-0.596 0.004,-0.977 -0.618,-0.654 -1.523,-0.725 -2.707,-0.214 -0.68,0.293 -0.642,0.292 -0.937,0.027 -0.435,-0.391 -0.696,-0.478 -1.433,-0.478 -0.566,0 -0.667,0.016 -0.961,0.15 -1.175,0.537 -1.549,1.687 -0.99,3.048 l 0.146,0.355 -0.431,0.487 c -0.877,0.993 -1.068,1.841 -0.56,2.484 l 0.106,0.135 0.281,-0.135 c 0.257,-0.123 0.349,-0.135 1.086,-0.132 0.719,0.003 0.855,0.02 1.277,0.156 0.542,0.176 1.136,0.541 1.322,0.813 0.173,0.252 0.223,0.633 0.142,1.091 -0.088,0.507 -0.275,0.848 -0.657,1.2 -0.639,0.589 -1.51,1.048 -2.457,1.293 -0.47,0.122 -0.669,0.142 -1.41,0.142 -0.75,0 -0.938,-0.019 -1.438,-0.148 -1.795,-0.463 -3.319,-1.707 -4.109,-3.352 -0.352,-0.734 -0.469,-1.241 -0.503,-2.178 -0.036,-0.958 0.053,-1.568 0.355,-2.447 0.221,-0.642 0.688,-1.589 0.786,-1.589 0.035,0 0.267,0.099 0.515,0.22 0.822,0.401 1.413,0.366 1.904,-0.113 0.215,-0.21 0.295,-0.343 0.395,-0.663 0.166,-0.531 0.143,-1.092 -0.061,-1.487 -0.267,-0.518 0.382,-0.468 -6.657,-0.512 -5.411,-0.034 -6.226,-0.029 -6.226,0.042 0,0.093 0.714,0.527 1.265,0.768 1.082,0.473 2.032,0.648 3.308,0.608 1.281,-0.041 2.261,-0.291 3.446,-0.882 0.341,-0.17 0.469,-0.209 0.527,-0.163 0.145,0.117 0.714,0.822 0.714,0.884 0,0.034 -0.113,0.233 -0.251,0.442 -0.502,0.76 -0.881,1.643 -1.112,2.594 -0.199,0.819 -0.248,2.259 -0.105,3.09 0.366,2.131 1.715,4.014 3.704,5.167 1.119,0.648 2.286,0.953 3.659,0.954 1.264,0.001 2.206,-0.189 3.584,-0.725 0.358,-0.139 0.673,-0.245 0.702,-0.235 0.028,0.009 0.192,0.177 0.365,0.372 l 0.314,0.354 -0.416,0.794 c -0.43,0.822 -0.81,1.844 -0.993,2.672 -0.082,0.373 -0.104,0.721 -0.104,1.598 0.001,1.047 0.011,1.161 0.163,1.73 0.383,1.438 1.025,2.479 2.199,3.561 1.669,1.54 3.69,2.18 5.95,1.888 0.919,-0.12 1.668,-0.328 3.068,-0.852 l 0.28,-0.104 0.337,0.364 c 0.186,0.201 0.338,0.396 0.338,0.433 0,0.038 -0.144,0.284 -0.32,0.547 -0.827,1.236 -1.266,2.587 -1.331,4.099 -0.052,1.194 0.212,2.357 0.81,3.568 0.398,0.806 0.769,1.309 1.398,1.896 2.327,2.169 5.161,2.52 8.67,1.072 l 0.627,-0.259 0.337,0.362 c 0.185,0.199 0.352,0.416 0.37,0.482 0.021,0.077 -0.024,0.207 -0.125,0.362 -0.086,0.134 -0.296,0.513 -0.465,0.842 -1.653,3.219 -1.111,6.396 1.529,8.963 1.243,1.209 2.387,1.845 3.886,2.16 0.623,0.131 1.942,0.133 2.659,0.004 0.817,-0.146 1.948,-0.498 2.788,-0.867 0.042,-0.018 0.611,0.553 0.697,0.7 0.033,0.056 -0.039,0.207 -0.234,0.485 -0.582,0.831 -0.9,1.522 -1.149,2.49 -0.142,0.549 -0.156,0.7 -0.157,1.668 -0.002,1.193 0.062,1.593 0.411,2.577 0.383,1.08 0.998,2.034 1.858,2.886 1.456,1.441 3.062,2.156 5.005,2.228 1.313,0.049 2.485,-0.161 3.835,-0.687 l 0.678,-0.264 0.36,0.385 c 0.198,0.212 0.359,0.414 0.36,0.448 0,0.033 -0.145,0.271 -0.321,0.529 -1.344,1.957 -1.68,4.098 -0.994,6.346 0.212,0.695 0.462,1.232 0.813,1.752 1.107,1.637 2.856,2.768 4.995,3.23 0.781,0.169 2.177,0.183 2.927,0.028 0.656,-0.135 1.416,-0.387 1.982,-0.655 0.257,-0.122 0.495,-0.223 0.531,-0.223 0.056,0 0.731,0.749 0.84,0.932 0.021,0.034 -0.125,0.324 -0.322,0.645 -0.753,1.222 -1.123,2.439 -1.174,3.863 -0.038,1.042 0.058,1.746 0.354,2.611 0.861,2.507 2.949,4.288 5.686,4.849 0.448,0.093 0.796,0.121 1.478,0.123 1.297,0.005 2.278,-0.191 3.477,-0.695 0.286,-0.121 0.534,-0.219 0.552,-0.219 0.041,-0.001 0.745,0.818 0.745,0.867 0,0.021 -0.088,0.144 -0.196,0.271 -0.613,0.732 -1.162,1.965 -1.362,3.064 -0.11,0.604 -0.096,1.986 0.027,2.6 0.54,2.689 2.425,4.779 5.1,5.654 0.859,0.281 1.331,0.349 2.414,0.348 1.348,-0.002 2.18,-0.178 3.329,-0.702 0.266,-0.121 0.526,-0.221 0.58,-0.221 0.1,0 0.821,0.778 0.854,0.921 0.009,0.043 -0.123,0.255 -0.294,0.471 -0.566,0.715 -1.052,1.799 -1.275,2.855 -0.107,0.505 -0.236,1.923 -0.186,2.05 0.021,0.051 0.061,0.094 0.09,0.094 0.028,-0.005 0.255,-0.227 0.506,-0.496 z m -2.322,-15.882 c -0.816,-0.927 -1.493,-1.72 -1.503,-1.761 -0.025,-0.108 0.85,-0.675 0.943,-0.61 0.041,0.027 0.737,0.813 1.549,1.748 1.271,1.462 1.465,1.71 1.4,1.786 -0.114,0.134 -0.724,0.523 -0.819,0.523 -0.046,0 -0.753,-0.758 -1.57,-1.686 z m -4.18,-3.137 c -0.471,-0.077 -0.879,-0.31 -1.164,-0.662 -0.314,-0.389 -0.369,-0.57 -0.365,-1.213 0.003,-0.606 0.057,-0.761 0.418,-1.208 0.384,-0.477 0.844,-0.688 1.506,-0.694 0.409,-0.003 0.504,0.018 0.846,0.181 0.609,0.293 0.948,0.738 1.077,1.422 0.201,1.056 -0.445,1.981 -1.518,2.173 -0.377,0.067 -0.401,0.067 -0.8,10e-4 z m 0.911,-1.061 c 0.24,-0.145 0.451,-0.552 0.451,-0.871 0,-0.302 -0.177,-0.583 -0.47,-0.743 -0.294,-0.161 -0.597,-0.156 -0.975,0.015 -0.247,0.112 -0.325,0.184 -0.416,0.378 -0.147,0.317 -0.143,0.471 0.027,0.804 0.134,0.261 0.355,0.431 0.721,0.553 0.151,0.048 0.458,-0.014 0.662,-0.136 z m 2.501,-3.505 c -0.281,-0.277 -0.357,-0.384 -0.314,-0.444 0.044,-0.063 2.209,-1.863 3.364,-2.799 l 0.199,-0.162 0.279,0.302 c 0.422,0.458 0.422,0.458 0.14,0.713 -0.443,0.401 -3.234,2.756 -3.266,2.756 -0.016,-0.001 -0.196,-0.165 -0.402,-0.366 z m -7.494,-1.422 c -0.747,-0.829 -1.428,-1.588 -1.513,-1.686 l -0.154,-0.179 0.366,-0.36 c 0.201,-0.198 0.399,-0.36 0.438,-0.36 0.105,0 3.187,3.376 3.168,3.471 -0.02,0.1 -0.729,0.611 -0.855,0.616 -0.051,0.003 -0.688,-0.656 -1.45,-1.502 z m -12.98,-14.447 c -0.838,-0.882 -1.546,-1.642 -1.573,-1.687 -0.037,-0.062 0.046,-0.178 0.314,-0.442 0.2,-0.197 0.391,-0.358 0.424,-0.358 0.056,0 3.144,3.373 3.183,3.474 0.021,0.06 -0.661,0.617 -0.755,0.617 -0.037,0 -0.755,-0.722 -1.593,-1.604 z m -4.8,-3.285 c -0.673,-0.359 -1.007,-0.863 -1.055,-1.586 -0.033,-0.518 0.05,-0.846 0.312,-1.231 0.375,-0.551 0.81,-0.757 1.591,-0.757 0.725,0 1.01,0.1 1.426,0.5 0.406,0.39 0.571,0.78 0.571,1.352 0,0.764 -0.379,1.367 -1.073,1.71 -0.291,0.144 -0.409,0.168 -0.882,0.182 -0.524,0.013 -0.563,0.006 -0.89,-0.17 z m 1.188,-0.774 c 0.29,-0.078 0.652,-0.484 0.701,-0.786 0.058,-0.349 -0.048,-0.634 -0.316,-0.858 -0.272,-0.227 -0.567,-0.294 -0.904,-0.206 -0.986,0.259 -0.959,1.56 0.039,1.854 0.21,0.062 0.238,0.062 0.48,-0.004 z m 2.695,-3.597 c -0.16,-0.193 -0.291,-0.378 -0.291,-0.412 0,-0.071 3.3,-2.96 3.407,-2.983 0.04,-0.009 0.239,0.148 0.441,0.348 0.307,0.301 0.357,0.376 0.299,0.445 -0.09,0.106 -3.379,2.851 -3.485,2.908 -0.057,0.032 -0.165,-0.059 -0.371,-0.306 z m -7.555,-1.68 c -0.845,-0.961 -1.536,-1.765 -1.536,-1.787 0,-0.058 0.707,-0.613 0.781,-0.613 0.06,0 3.141,3.367 3.177,3.471 0.015,0.045 -0.787,0.677 -0.86,0.677 -0.015,0 -0.717,-0.786 -1.562,-1.748 z m -13.327,-14.779 c -0.838,-0.887 -1.523,-1.652 -1.523,-1.702 0,-0.127 0.772,-0.78 0.862,-0.729 0.127,0.073 3.02,3.393 3.02,3.466 0,0.098 -0.619,0.583 -0.738,0.58 -0.054,-0.002 -0.783,-0.729 -1.621,-1.615 z m -4.586,-3.19 c -0.63,-0.253 -1.049,-0.725 -1.275,-1.439 -0.118,-0.372 -0.119,-0.396 -0.026,-0.727 0.25,-0.891 0.768,-1.41 1.569,-1.575 0.361,-0.074 0.453,-0.074 0.822,10e-4 0.998,0.205 1.571,0.901 1.565,1.903 -0.005,0.825 -0.36,1.392 -1.091,1.742 -0.434,0.21 -1.169,0.254 -1.564,0.095 z m 1.232,-1.085 c 0.606,-0.365 0.611,-1.114 0.011,-1.578 -0.171,-0.133 -0.266,-0.163 -0.523,-0.165 -0.371,-0.003 -0.568,0.103 -0.771,0.415 -0.37,0.57 -0.138,1.255 0.491,1.451 0.211,0.067 0.572,0.01 0.792,-0.123 z m 2.602,-3.53 c -0.243,-0.273 -0.292,-0.36 -0.245,-0.435 0.05,-0.078 2.257,-1.983 3.144,-2.712 l 0.277,-0.228 0.397,0.384 c 0.381,0.368 0.394,0.388 0.299,0.49 -0.181,0.194 -3.45,2.842 -3.51,2.842 -0.032,10e-4 -0.195,-0.153 -0.362,-0.341 z m -7.678,-1.536 c -0.82,-0.91 -1.499,-1.685 -1.507,-1.724 -0.009,-0.039 0.153,-0.233 0.36,-0.433 l 0.375,-0.363 0.198,0.195 c 0.517,0.511 2.965,3.288 2.962,3.362 -0.002,0.094 -0.697,0.617 -0.819,0.617 -0.042,0 -0.748,-0.744 -1.569,-1.654 z m -13.023,-14.52 c -0.857,-0.941 -1.572,-1.746 -1.588,-1.786 -0.039,-0.099 0.608,-0.655 0.74,-0.636 0.111,0.016 3.205,3.274 3.205,3.375 0,0.064 -0.695,0.759 -0.76,0.759 -0.02,0 -0.739,-0.77 -1.597,-1.712 z m -4.261,-3.169 c -0.325,-0.049 -0.633,-0.199 -1.02,-0.497 -0.342,-0.263 -0.473,-0.488 -0.611,-1.048 -0.097,-0.392 -0.097,-0.41 0.028,-0.869 0.117,-0.431 0.153,-0.493 0.445,-0.766 0.389,-0.365 0.635,-0.491 1.111,-0.571 0.483,-0.081 1.175,0.04 1.505,0.262 0.561,0.379 0.864,0.926 0.864,1.559 0,1.194 -1.107,2.114 -2.322,1.93 z m 0.819,-1.072 c 0.241,-0.132 0.395,-0.336 0.505,-0.671 0.059,-0.18 0.051,-0.244 -0.059,-0.492 -0.14,-0.316 -0.308,-0.459 -0.666,-0.563 -0.618,-0.18 -1.184,0.256 -1.179,0.907 0.002,0.309 0.141,0.572 0.419,0.801 0.231,0.188 0.655,0.196 0.98,0.018 z m 2.732,-3.623 c -0.185,-0.182 -0.328,-0.369 -0.317,-0.415 0.023,-0.094 3.415,-3.032 3.531,-3.059 0.082,-0.019 0.66,0.688 0.66,0.807 0,0.093 -3.306,2.96 -3.438,2.981 -0.06,0.011 -0.237,-0.118 -0.436,-0.314 z m -7.745,-1.523 c -0.806,-0.922 -1.472,-1.721 -1.479,-1.777 -0.011,-0.085 0.384,-0.445 0.654,-0.596 0.077,-0.042 3.206,3.18 3.224,3.32 0.014,0.105 -0.713,0.736 -0.844,0.731 -0.049,-10e-4 -0.749,-0.756 -1.555,-1.678 z m 51.524,90.105 c -0.032,-0.146 -10.746,-11.915 -10.897,-11.971 -0.184,-0.068 -60.755,-0.07 -60.865,-0.003 -0.167,0.104 1.226,3.824 2.227,5.953 1,2.126 2.866,5.608 3.218,6.007 0.083,0.093 66.334,0.088 66.317,0.014 z m 21.414,-1.071 c 0.027,-0.017 0.05,-0.249 0.051,-0.517 0,-0.269 0.034,-0.613 0.077,-0.768 0.259,-0.944 0.996,-1.658 1.966,-1.904 0.805,-0.204 1.664,-0.005 2.383,0.551 0.29,0.224 0.34,0.211 0.522,-0.139 0.185,-0.351 0.724,-0.872 1.08,-1.042 0.277,-0.133 0.395,-0.155 0.786,-0.152 0.714,0.006 1.303,0.255 2.145,0.907 0.209,0.162 0.407,0.287 0.441,0.277 0.152,-0.046 1.234,-2.325 2.131,-4.492 0.486,-1.176 1.236,-3.312 1.236,-3.521 0,-0.047 -0.041,-0.101 -0.091,-0.119 -0.165,-0.062 -6.407,-0.039 -6.527,0.023 -0.088,0.047 -0.111,0.119 -0.111,0.351 -0.002,0.373 -0.102,0.735 -0.372,1.351 l -0.216,0.49 0.102,0.347 c 0.146,0.498 0.174,1.37 0.061,1.889 -0.2,0.919 -0.789,1.789 -1.544,2.281 -0.612,0.398 -1.129,0.549 -1.884,0.546 -0.496,-0.002 -0.698,-0.031 -1.133,-0.162 l -0.529,-0.158 -0.448,0.227 c -1.576,0.797 -2.866,0.702 -3.896,-0.287 -0.367,-0.353 -0.781,-0.901 -0.781,-1.034 0,-0.04 0.093,-0.192 0.206,-0.337 0.438,-0.559 0.814,-1.549 0.754,-1.985 -0.038,-0.282 -0.177,-0.48 -0.367,-0.527 -0.452,-0.11 -1.317,0.767 -1.836,1.86 -0.235,0.496 -0.337,1.13 -0.287,1.791 0.064,0.863 0.28,1.409 0.949,2.396 0.729,1.08 1.681,1.708 2.854,1.889 0.339,0.051 2.183,0.027 2.278,-0.032 z m -10.171,-3.061 c -0.135,-0.721 -0.16,-2.063 -0.052,-2.778 0.101,-0.66 0.31,-1.439 0.498,-1.854 0.061,-0.134 0.098,-0.266 0.081,-0.29 -0.016,-0.024 -0.112,-0.022 -0.215,0.007 -1.346,0.378 -2.994,0.395 -4.421,0.045 -0.379,-0.093 -0.715,-0.161 -0.745,-0.151 -0.03,0.01 4.865,5.472 4.889,5.458 0.023,-0.015 0.008,-0.212 -0.035,-0.437 z m -10.659,-11.522 c 0,-0.022 -0.039,-0.27 -0.086,-0.546 -0.11,-0.654 -0.109,-2.036 10e-4,-2.7 0.093,-0.556 0.306,-1.267 0.526,-1.752 0.202,-0.446 0.138,-0.487 -0.528,-0.337 -0.354,0.078 -0.814,0.124 -1.465,0.146 -1.064,0.035 -1.83,-0.046 -2.807,-0.3 -0.776,-0.201 -0.835,-0.212 -0.811,-0.144 0.039,0.105 5.06,5.674 5.116,5.674 0.031,0.001 0.055,-0.017 0.054,-0.041 z m -22.488,-8.519 c 0,-0.035 -9.872,-10.949 -10.672,-11.799 l -41.811,-0.239 -0.018,4.289 c -0.016,3.853 0.043,6.972 0.142,7.581 l 0.034,0.21 c 0.001,0 52.325,-0.019 52.325,-0.042 z m 34.223,-0.012 c 0.459,0.005 6.127,0.013 12.596,0.018 l 11.762,0.008 0.056,-0.336 c 0.033,-0.199 0.057,-2.654 0.058,-6.025 l 0.003,-5.69 c 0,0 -30.974,-0.014 -30.978,0.042 -0.003,0.038 -0.002,0.335 0.002,0.659 0.008,0.632 -0.094,1.103 -0.367,1.706 l -0.142,0.312 0.109,0.31 c 0.556,1.574 -0.047,3.35 -1.436,4.224 -0.88,0.555 -2.031,0.676 -3.198,0.338 l -0.415,-0.119 -0.468,0.206 c -1.758,0.773 -2.69,0.737 -3.701,-0.141 -0.288,-0.25 -0.963,-1.046 -0.963,-1.136 0,-0.021 0.087,-0.159 0.194,-0.305 0.454,-0.622 0.726,-1.332 0.726,-1.898 0,-0.294 -0.023,-0.377 -0.148,-0.522 -0.249,-0.288 -0.477,-0.232 -0.993,0.243 -0.521,0.479 -0.957,1.246 -1.166,2.051 -0.099,0.384 -0.116,0.576 -0.092,1.034 0.042,0.813 0.24,1.324 0.982,2.547 0.301,0.496 0.419,0.633 0.796,0.927 0.887,0.692 1.745,0.987 2.859,0.983 0.609,-0.001 1.267,-0.088 1.434,-0.188 0.037,-0.022 0.066,-0.16 0.066,-0.306 0,-0.691 0.365,-1.497 0.916,-2.026 1.042,-1 2.476,-1.104 3.493,-0.256 0.132,0.109 0.262,0.198 0.288,0.198 0.026,-0.001 0.151,-0.155 0.278,-0.343 0.27,-0.4 0.753,-0.815 1.197,-1.027 0.963,-0.459 2.075,-0.259 2.896,0.521 0.629,0.599 0.858,1.303 0.688,2.117 -0.123,0.59 -0.377,1.075 -0.789,1.505 -0.188,0.194 -0.34,0.37 -0.34,0.392 0,0.022 0.666,0.022 1.48,0.003 0.817,-0.02 1.858,-0.032 2.317,-0.026 z m -22.684,-3.771 c -0.021,-0.132 -0.053,-0.579 -0.072,-0.995 -0.052,-1.149 0.098,-2.141 0.501,-3.327 0.125,-0.364 0.214,-0.684 0.198,-0.709 -0.017,-0.024 -0.165,-0.01 -0.332,0.032 -1.323,0.344 -3.277,0.328 -4.637,-0.034 -0.233,-0.063 -0.438,-0.101 -0.454,-0.085 -0.016,0.016 0.007,0.077 0.051,0.138 0.189,0.26 4.687,5.218 4.732,5.218 0.028,-0.001 0.034,-0.107 0.013,-0.238 z m -10.88,-12.302 c -0.242,-1.496 -0.096,-3.006 0.406,-4.172 0.084,-0.196 0.183,-0.425 0.219,-0.509 0.035,-0.083 0.047,-0.168 0.027,-0.188 -0.02,-0.02 -0.291,0.028 -0.601,0.107 -1.456,0.37 -2.959,0.342 -4.307,-0.079 -0.606,-0.189 -0.623,-0.192 -0.58,-0.082 0.055,0.14 4.818,5.414 4.864,5.386 0.023,-0.014 0.011,-0.222 -0.028,-0.463 z m -22.63,-8.105 c 0,-0.069 -10.662,-11.873 -10.857,-12.021 l -19.655,-0.042 -0.029,12.135 c 0,0.002 30.541,-0.012 30.541,-0.072 z m 80.667,-12.062 c 0,0 -52.871,-0.009 -52.896,0.015 -0.023,0.023 -0.016,0.219 0.019,0.435 0.084,0.526 -0.014,1.185 -0.278,1.874 l -0.205,0.532 0.095,0.478 c 0.278,1.418 -0.05,2.605 -0.972,3.506 -0.537,0.526 -1.063,0.808 -1.766,0.947 -0.69,0.137 -1.3,0.094 -2.019,-0.142 l -0.342,-0.112 -0.503,0.198 c -1.827,0.721 -2.753,0.679 -3.641,-0.165 -0.314,-0.299 -0.904,-1.012 -0.904,-1.092 0,-0.021 0.125,-0.242 0.279,-0.49 0.662,-1.073 0.729,-2.063 0.163,-2.369 -0.147,-0.079 -0.176,-0.075 -0.429,0.061 -0.537,0.288 -1.252,1.312 -1.484,2.125 -0.048,0.17 -0.102,0.636 -0.12,1.038 -0.05,1.155 0.051,1.456 0.922,2.759 0.361,0.54 0.571,0.793 0.822,0.989 0.448,0.351 1.277,0.747 1.774,0.848 0.663,0.135 2.413,0.082 2.577,-0.079 0.027,-0.026 0.053,-0.311 0.059,-0.632 0.009,-0.552 0.022,-0.607 0.224,-1.006 0.759,-1.495 2.583,-1.914 4.121,-0.946 0.393,0.248 0.342,0.263 0.727,-0.219 0.817,-1.024 2.027,-1.274 3.282,-0.678 1.841,0.874 2.35,2.609 1.183,4.035 -0.063,0.076 -0.101,0.158 -0.085,0.182 l 49.397,0.015 0,-12.107 0,0 z m -68.959,8.198 c -0.172,-1.263 -0.186,-1.847 -0.063,-2.732 0.088,-0.635 0.291,-1.374 0.525,-1.917 0.081,-0.186 0.134,-0.371 0.119,-0.41 -0.021,-0.054 -0.158,-0.033 -0.569,0.086 -0.903,0.261 -1.671,0.353 -2.66,0.317 -0.475,-0.017 -1.043,-0.072 -1.265,-0.121 -0.768,-0.172 -0.742,-0.169 -0.701,-0.066 0.05,0.126 4.541,5.135 4.605,5.136 0.027,0.001 0.032,-0.131 0.009,-0.293 z M 232.43,119.477 c -0.076,-0.764 -0.047,-1.944 0.06,-2.536 0.053,-0.292 0.214,-0.86 0.357,-1.261 0.359,-1.005 0.36,-1.007 0.19,-0.96 -1.263,0.347 -2.151,0.464 -3.042,0.402 -0.581,-0.04 -1.454,-0.191 -1.924,-0.333 -0.308,-0.092 -0.356,-0.086 -0.281,0.039 0.094,0.157 4.592,5.14 4.64,5.14 0.026,0 0.026,-0.221 0,-0.491 z m -22.97,-8.195 c 0.073,-0.045 0.069,-0.072 -0.029,-0.194 -0.407,-0.506 -8.353,-9.217 -8.411,-9.22 -0.105,-0.006 -0.105,9.39 0,9.432 0.136,0.052 8.353,0.036 8.44,-0.018 z m 102.653,0.008 0.043,-12.089 c 0,0 -74.314,-0.013 -74.345,0.036 -0.022,0.036 -0.004,0.166 0.04,0.289 0.219,0.604 0.159,1.334 -0.191,2.351 l -0.208,0.602 0.096,0.387 c 0.227,0.917 0.079,2.024 -0.377,2.811 -0.924,1.596 -2.75,2.188 -4.563,1.481 -0.248,-0.097 -0.417,-0.134 -0.462,-0.103 -0.744,0.516 -1.229,0.725 -1.817,0.782 -1.154,0.113 -2.421,-0.604 -3.003,-1.702 -0.106,-0.2 -0.102,-0.214 0.17,-0.544 0.405,-0.494 0.715,-1.305 0.715,-1.875 0,-0.232 -0.028,-0.316 -0.141,-0.427 -0.245,-0.239 -0.593,-0.143 -1.073,0.293 -0.525,0.478 -0.941,1.178 -1.176,1.979 -0.164,0.56 -0.154,1.58 0.021,2.13 0.382,1.201 1.4,2.448 2.415,2.961 0.813,0.411 1.17,0.487 2.254,0.48 0.522,-0.003 1.027,-0.03 1.122,-0.06 0.172,-0.054 0.173,-0.056 0.209,-0.583 0.045,-0.646 0.153,-0.997 0.441,-1.43 0.898,-1.349 2.68,-1.606 3.978,-0.575 0.11,0.087 0.22,0.159 0.243,0.159 0.024,0 0.152,-0.145 0.287,-0.323 0.721,-0.952 1.626,-1.407 2.488,-1.252 0.93,0.168 1.854,0.891 2.298,1.799 0.161,0.328 0.179,0.417 0.179,0.896 0,0.547 -0.027,0.628 -0.476,1.467 -0.011,0.021 0.027,0.049 0.084,0.063 0.184,0.051 70.674,0.043 70.749,-0.003 z m -90.382,-3.639 c -0.027,-0.239 -0.048,-0.838 -0.047,-1.332 0,-1.07 0.108,-1.721 0.44,-2.663 0.342,-0.968 0.338,-0.92 0.071,-0.879 -0.124,0.019 -0.431,0.074 -0.684,0.123 -0.629,0.122 -2.225,0.171 -2.876,0.09 -0.285,-0.036 -0.784,-0.129 -1.11,-0.207 -0.326,-0.078 -0.621,-0.133 -0.657,-0.121 -0.035,0.011 0.413,0.549 0.996,1.195 0.582,0.646 1.679,1.862 2.437,2.701 0.758,0.84 1.4,1.527 1.429,1.527 0.028,0 0.029,-0.184 0.001,-0.434 z M 210.932,95.88 c -0.152,-0.711 -0.197,-2.159 -0.089,-2.9 0.088,-0.604 0.277,-1.298 0.496,-1.816 0.121,-0.287 0.178,-0.491 0.146,-0.522 -0.032,-0.032 -0.174,-0.019 -0.363,0.034 -1.542,0.426 -3.667,0.526 -4.724,0.223 -0.204,-0.058 -0.088,0.12 0.491,0.757 0.326,0.358 4.117,4.568 4.043,4.224 z" id="path13" inkscape:connector-curvature="0"/>
</g>
</svg>