<?xml version="1.0" encoding="UTF-8" standalone="no"?>
<svg xmlns:dc="http://purl.org/dc/elements/1.1/" xmlns:cc="http://creativecommons.org/ns#" xmlns:rdf="http://www.w3.org/1999/02/22-rdf-syntax-ns#" xmlns:svg="http://www.w3.org/2000/svg" xmlns="http://www.w3.org/2000/svg" xmlns:xlink="http://www.w3.org/1999/xlink" xmlns:sodipodi="http://sodipodi.sourceforge.net/DTD/sodipodi-0.dtd" xmlns:inkscape="http://www.inkscape.org/namespaces/inkscape" width="450" height="300" version="1.1" id="svg19" sodipodi:docname="Flag_of_the_Chechen_Republic.svg" inkscape:version="0.92.3 (2405546, 2018-03-11)">
  <metadata id="metadata25">
    <rdf:RDF>
      <cc:Work rdf:about="">
        <dc:format>image/svg+xml</dc:format>
        <dc:type rdf:resource="http://purl.org/dc/dcmitype/StillImage"/>
      </cc:Work>
    </rdf:RDF>
  </metadata>
  <defs id="defs23"/>
  <sodipodi:namedview pagecolor="#ffffff" bordercolor="#666666" borderopacity="1" objecttolerance="10" gridtolerance="10" guidetolerance="10" inkscape:pageopacity="0" inkscape:pageshadow="2" inkscape:window-width="1920" inkscape:window-height="1017" id="namedview21" showgrid="false" inkscape:zoom="1.4142136" inkscape:cx="-16.889249" inkscape:cy="125.40046" inkscape:window-x="-4" inkscape:window-y="-4" inkscape:window-maximized="1" inkscape:current-layer="svg19"/>
  <path fill="#FFF" d="m0,0h450v300H0" id="path2" style="fill:#ffffff"/>
  <path fill="#DA251D" d="m42,204.2h409v96H42" id="path4"/>
  <path fill="#2B7338" d="m42,0h409v177.2H42" id="path6"/>
  <g id="g17" style="stroke:#ffcc00;stroke-width:2" transform="translate(-0.58442753)">
    <g id="b" transform="matrix(1,0,0,1.0033602,-97.476163,-4.4877453)">
      <path id="a" d="m 119.73637,90.024773 c -3.6,0.9 -5.6,5.4 -3,9.3 2.9,4.499997 9.6,4.199997 13,-0.5 3.4,-4.7 1.7,-11.2 -2.6,-15.2 -5.3,-4.9 -14.2,-4 -18.4,2.9 -5.2,8.7 -1,18.199997 4.8,24.899997 l 10.7,10.5 c 5.8,6.7 10.1,16.2 4.8,24.9 -4.1,6.9 -13,7.9 -18.2,3.1 -4.4,-4.1 -6.1,-10.5 -2.7,-15.2 3.4,-4.7 10.1,-5 13,-0.5 2.5,3.9 0.6,8.4 -3,9.3" inkscape:connector-curvature="0" style="fill:none;stroke:#ffcc00;stroke-width:3.98660421;stroke-linecap:round;stroke-miterlimit:4;stroke-dasharray:none;stroke-opacity:1"/>
    </g>
    <use xlink:href="#b" y="150" id="use13" x="0" width="100%" height="100%" transform="matrix(1,0,0,1.0087366,2.8737576e-7,-77.633864)" style="fill:none;stroke:#ffcc00;stroke-width:3.96535635;stroke-miterlimit:4;stroke-dasharray:none;stroke-opacity:1"/>
    <path id="a-1" d="m 22.082909,11.599784 c -3.6,0.903024 -5.6,5.418145 -3,9.331247 2.9,4.51512 9.6,4.21412 13,-0.50168 3.4,-4.71579 1.7,-11.2376312 -2.6,-15.2510722 -5.3,-4.916465 -14.2,-4.013441 -18.4,2.909744 -5.2000001,8.7292342 -1,18.2611582 4.8,24.9836682 l 10.7,10.53528 c 5.8,6.72252 10.1,16.25444 4.8,24.98367 -4.1,6.92319 -13,7.92655 -18.2,3.11042 -4.4000001,-4.11378 -6.1000001,-10.53528 -2.7,-15.25108 3.4,-4.71579 10.1,-5.0168 13,-0.50168 2.5,3.91311 0.6,8.42823 -3,9.33125" inkscape:connector-curvature="0" style="fill:none;stroke:#ffcc00;stroke-width:4.00671482;stroke-linecap:round;stroke-miterlimit:4;stroke-dasharray:none;stroke-opacity:1"/>
    <path id="a-3" d="m 22.643117,234.88568 c -3.6,0.90302 -5.6,5.41814 -3,9.33125 2.9,4.51512 9.6,4.21411 13,-0.50168 3.4,-4.71579 1.7,-11.23764 -2.6,-15.25108 -5.3,-4.91646 -14.2,-4.01344 -18.4,2.90975 -5.2,8.72923 -1,18.26115 4.8,24.98367 l 10.7,10.53528 c 5.8,6.72251 10.1,16.25443 4.8,24.98367 -4.1,6.92318 -13,7.92654 -18.2,3.11041 -4.4,-4.11378 -6.1,-10.53528 -2.7,-15.25107 3.4,-4.71579 10.1,-5.0168 13,-0.50168 2.5,3.9131 0.6,8.42822 -3,9.33125" inkscape:connector-curvature="0" style="fill:none;stroke:#ffcc00;stroke-width:4.00671482;stroke-linecap:round;stroke-miterlimit:4;stroke-dasharray:none;stroke-opacity:1" inkscape:transform-center-x="9.526082" inkscape:transform-center-y="-75.630311"/>
  </g>
</svg>