<?xml version="1.0" encoding="UTF-8"?>
<!DOCTYPE svg PUBLIC "-//W3C//DTD SVG 1.1//EN" "http://www.w3.org/Graphics/SVG/1.1/DTD/svg11.dtd">
<!-- Creator: CorelDRAW 2019 (64-Bit) -->
<svg xmlns="http://www.w3.org/2000/svg" xml:space="preserve" width="2000px" height="1250px" version="1.1" style="shape-rendering:geometricPrecision; text-rendering:geometricPrecision; image-rendering:optimizeQuality; fill-rule:evenodd; clip-rule:evenodd" viewBox="0 0 200000000 125000000" xmlns:xlink="http://www.w3.org/1999/xlink" xmlns:xodm="http://www.corel.com/coreldraw/odm/2003">
 <defs>
  <style type="text/css">
   <![CDATA[
    .fil1 {fill:#A2260B}
    .fil0 {fill:#FFDF00}
   ]]>
  </style>
 </defs>
 <g id="Слой_x0020_1">
  <metadata id="CorelCorpID_0Corel-Layer"/>
  <rect class="fil0" width="200000000" height="125000000"/>
  <path class="fil1" d="M128993000 23583000l5657000 -5657000 0 5657000 5657000 0 -5657000 5657000 5657000 5657000 -5657000 0 0 5656000 -5657000 -5657000 -5656000 5657000 0 -5657000 -5657000 0 5657000 -5656000 -5657000 -5657000 5656000 0 0 -5657000 5657000 5657000zm-3657000 2000000l0 -2829000 3657000 3657000 3657000 -3656000 0 2828000 2829000 0 -3657000 3657000 3656000 3656000 -2828000 0 0 2829000 -3657000 -3657000 -3657000 3657000 0 -2829000 -2828000 0 3657000 -3656000 -3657000 -3657000 2828000 0z"/>
  <path class="fil1" d="M71006000 23583000l5657000 -5657000 0 5657000 5657000 0 -5657000 5657000 5657000 5657000 -5657000 -1000 1000 5657000 -5657000 -5657000 -5657000 5657000 0 -5657000 -5657000 0 5657000 -5657000 -5657000 -5657000 5657000 0 0 -5656000 5656000 5657000zm-3657000 1999000l0 -2828000 3657000 3657000 3657000 -3657000 0 2828000 2829000 0 -3657000 3657000 3656000 3657000 -2828000 0 0 2828000 -3656000 -3656000 -3658000 3657000 0 -2829000 -2827000 0 3656000 -3657000 -3657000 -3657000 2828000 0z"/>
  <path class="fil1" d="M100000000 11550000l5656000 -5657000 1000 5657000 5656000 0 -5656000 5657000 5657000 5657000 -5657000 -1000 0 5657000 -5657000 -5657000 -5657000 5657000 0 -5657000 -5656000 0 5656000 -5657000 -5657000 -5657000 5657000 1000 0 -5657000 5657000 5657000zm-3657000 1999000l0 -2828000 3657000 3657000 3656000 -3657000 0 2828000 2829000 0 -3657000 3657000 3657000 3657000 -2829000 0 0 2828000 -3656000 -3656000 -3657000 3657000 0 -2829000 -2828000 0 3656000 -3657000 -3657000 -3657000 2829000 0z"/>
  <polygon class="fil1" points="103500000,63219000 103500000,97000000 200000000,97000000 200000000,94000000 106500000,94000000 106500000,64461000 114142000,56819000 119092000,61769000 116263000,64597000 114849000,63183000 116263000,61769000 114142000,59648000 110606000,63183000 116970000,69547000 121213000,65305000 121213000,59648000 114142000,52577000 "/>
  <polygon class="fil1" points="96500000,63219000 96500000,97000000 0,97000000 0,94000000 93500000,94000000 93500000,64461000 85858000,56819000 80908000,61769000 83737000,64597000 85151000,63183000 83737000,61769000 85858000,59648000 89393000,63183000 83029000,69547000 78787000,65305000 78787000,59647000 85858000,52576000 "/>
  <polygon class="fil1" points="96500000,56147000 96500000,60390000 78787000,42677000 72423000,49041000 77373000,53991000 80201000,51162000 78787000,49748000 77373000,51162000 75252000,49041000 78787000,45505000 84444000,51162000 79494000,56112000 73838000,56112000 66766000,49041000 75252000,40556000 80909000,40556000 "/>
  <polygon class="fil1" points="103500000,56147000 103500000,60390000 121213000,42677000 127577000,49041000 122627000,53991000 119799000,51162000 121213000,49748000 122627000,51162000 124748000,49041000 121213000,45505000 115556000,51162000 120506000,56112000 126162000,56112000 133234000,49041000 124748000,40556000 119091000,40556000 "/>
  <polygon class="fil1" points="0,100000000 98500000,100000000 98500000,55319000 82323000,39142000 82323000,33485000 90808000,25000000 97879000,32071000 97879000,37727000 92929000,42677000 87272000,37020000 90808000,33485000 92929000,35606000 91515000,37020000 92929000,38434000 95757000,35606000 90808000,30656000 84444000,37020000 100000000,52576000 115556000,37020000 109192000,30656000 104243000,35606000 107071000,38434000 108485000,37020000 107071000,35606000 109192000,33485000 112728000,37020000 107071000,42677000 102121000,37727000 102121000,32071000 109192000,25000000 117677000,33485000 117677000,39142000 101500000,55319000 101500000,100000000 200000000,100000000 200000000,125000000 0,125000000 "/>
 </g>
</svg>