<?xml version="1.0" encoding="UTF-8" standalone="no"?>
<!-- Creator: CorelDRAW -->
<svg xmlns:dc="http://purl.org/dc/elements/1.1/" xmlns:cc="http://web.resource.org/cc/" xmlns:rdf="http://www.w3.org/1999/02/22-rdf-syntax-ns#" xmlns:svg="http://www.w3.org/2000/svg" xmlns="http://www.w3.org/2000/svg" xmlns:sodipodi="http://sodipodi.sourceforge.net/DTD/sodipodi-0.dtd" xmlns:inkscape="http://www.inkscape.org/namespaces/inkscape" xml:space="preserve" width="563.79999" height="376.5" style="shape-rendering:geometricPrecision; text-rendering:geometricPrecision; image-rendering:optimizeQuality; fill-rule:evenodd; clip-rule:evenodd" viewBox="0 0 160 106" id="svg2" sodipodi:version="0.32" inkscape:version="0.44" sodipodi:docname="prim_flag.svg" sodipodi:docbase="D:\i" version="1.0"><metadata id="metadata19"><rdf:RDF><cc:Work rdf:about=""><dc:format>image/svg+xml</dc:format><dc:type rdf:resource="http://purl.org/dc/dcmitype/StillImage"/></cc:Work></rdf:RDF></metadata><sodipodi:namedview inkscape:window-height="749" inkscape:window-width="1024" inkscape:pageshadow="2" inkscape:pageopacity="0.0" guidetolerance="10.0" gridtolerance="10.0" objecttolerance="10.0" borderopacity="1.0" bordercolor="#666666" pagecolor="#ffffff" id="base" width="563.8px" height="376.5px" inkscape:zoom="1.0490147" inkscape:cx="283.46457" inkscape:cy="225.92629" inkscape:window-x="-4" inkscape:window-y="-4" inkscape:current-layer="svg2"/>
 <defs id="defs4">
  <style type="text/css" id="style6">
   
    .str1 {stroke:#0093DD;stroke-width:0.0762}
    .str2 {stroke:#1F1A17;stroke-width:0.0762}
    .str0 {stroke:#DA251D;stroke-width:0.0762}
    .fil4 {fill:none}
    .fil1 {fill:#0093DD}
    .fil2 {fill:#1F1A17}
    .fil0 {fill:#DA251D}
    .fil3 {fill:#FFF500}
   
  </style>
 
  <metadata id="CorelCorpID_0Corel-Layer"/>
  
 
   
   
   
   
  </defs>
 
<rect style="opacity:1;fill:white;fill-opacity:1;stroke:none;stroke-width:0.28763318;stroke-linecap:square;stroke-linejoin:round;stroke-miterlimit:4;stroke-dasharray:none;stroke-opacity:1" id="rect1902" width="160" height="106.84641" x="-2.7755576e-017" y="-0.42320088"/><polygon id="_211683760" class="fil0 str0" points="0.4779,-0.0977 0.4776,84.952 140.098,-0.0982 0.4779,-0.0977 " style="fill:#da251d;fill-rule:evenodd;stroke:#da251d;stroke-width:0.0762" transform="matrix(1.00555,0,0,1.00555,-0.441939,-0.301954)"/><polygon id="_210078080" class="fil1 str1" points="21.9162,106.098 159.522,17.8505 159.522,106.098 21.9162,106.098 " style="fill:#0093dd;fill-rule:evenodd;stroke:#0093dd;stroke-width:0.0762" transform="matrix(1.00555,0,0,1.00555,-0.441939,-0.301954)"/><g style="fill-rule:evenodd" id="g13" transform="matrix(1.00555,0,0,1.00555,-0.441939,-0.301954)">
    <path id="_210108112" class="fil2" d="M 14.0067,8.4471 C 14.2135,8.6269 14.5012,8.9775 14.5461,9.2202 C 15.1035,9.3101 15.553,9.6697 15.9576,10.0743 C 16.5149,10.0922 17.1083,10.0023 17.5128,10.3709 C 18.0522,10.6496 18.5467,11.0452 19.167,11.1261 C 20.075,11.207 21.0459,11.18 21.9359,11.1081 C 22.4933,11.0901 22.9428,11.225 23.4463,11.3688 C 24.1565,11.6116 25.0285,11.6116 25.8196,11.5396 C 26.4669,11.5936 28.8133,11.7284 29.1549,12.5735 C 29.3347,12.7173 29.4965,12.8971 29.7033,12.987 C 29.8831,13.059 29.8561,13.2927 30.0449,13.3646 C 30.6832,14.0389 32.2745,14.7581 33.0206,13.8231 C 33.2184,13.5804 33.1105,13.1758 33.1285,12.8522 C 32.3374,11.2609 29.8292,10.9733 28.3099,11.1531 C 27.7795,11.171 27.267,11.2969 26.7096,11.2609 C 25.7297,11.2609 24.1655,11.4318 23.2575,10.9912 C 22.7181,10.7575 22.2326,10.5327 21.6393,10.3709 C 20.4706,10.0203 20.8391,8.7617 21.846,8.7617 C 23.2575,8.2043 24.6509,9.8135 25.8466,9.382 C 26.5568,9.382 27.2041,9.2022 27.9233,9.2472 C 28.7684,9.0853 29.5775,9.2921 30.4225,9.3011 C 32.4183,9.7147 34.9895,10.5238 35.385,12.9241 C 35.6817,14.9918 33.4072,16.8438 31.3845,16.1695 C 31.5463,16.9157 32.2115,18.6867 33.0476,19.0014 C 33.4252,19.2351 33.9376,19.0913 34.2792,19.406 C 34.5579,20.1431 34.7737,20.9163 35.1872,21.6265 C 35.2322,21.9951 34.2343,23.3076 34.0545,23.847 L 29.8112,23.847 C 29.4246,23.3166 30.1618,22.0041 30.0719,22.1659 C 30.3776,21.7614 30.8001,21.4557 31.2586,21.3298 C 31.1058,21.204 31.0159,20.9253 30.7821,20.9522 C 30.1798,20.4848 29.4336,20.305 28.8852,19.7296 C 28.8223,19.8105 28.7144,19.8914 28.7144,19.9543 C 28.193,20.5747 28.4267,21.5636 27.7435,22.103 C 26.8715,22.4176 26.7006,23.3166 26.1792,23.7841 L 18.3489,23.7841 C 18.223,22.6244 18.7355,21.7164 19.8502,21.4377 C 19.8682,21.3928 19.9222,21.3298 19.8592,21.2849 C 19.4277,20.9343 18.8883,19.8914 18.3849,19.6936 C 18.0253,20.224 17.9533,20.7635 17.5578,21.2399 C 17.1083,21.3029 16.6678,21.6175 16.2632,21.8692 C 15.4182,22.3547 15.3193,23.2357 15.0765,23.847 C 14.9687,23.928 14.8428,23.874 14.69,23.874 L 10.141,23.874 C 10.177,22.5345 11.049,21.5815 12.3885,21.4197 C 12.6762,20.6915 13.5123,20.269 13.8269,19.5498 C 13.9977,18.8036 14.1236,18.0664 14.4203,17.3742 C 13.4314,16.9517 12.4155,15.8639 11.93,14.8929 C 11.6423,14.7041 11.2827,14.6142 11.058,14.3176 C 10.6265,14.3266 9.9073,13.913 9.5567,14.0748 C 9.251,14.1018 8.8824,14.1288 8.6127,13.9939 C 8.1452,14.1647 7.6957,12.4207 8.307,12.0071 C 8.6217,11.8183 9.0712,12.079 9.3409,11.8453 C 8.7476,11.6925 8.1272,12.2229 7.5968,11.5396 C 7.3721,11.2609 7.7407,10.9553 7.4979,10.6946 C 6.9945,10.6316 7.1024,9.7057 7.471,9.4719 C 7.7047,9.409 7.9205,9.3101 8.1722,9.3281 C 8.37,9.2022 8.5588,9.0674 8.8015,9.0404 C 9.6466,9.0853 10.0961,8.0964 11.022,8.3482 C 11.4625,8.4021 11.948,8.4201 12.4065,8.3931 C 12.8021,8.1414 13.6831,7.9346 14.0067,8.4471 L 14.0067,8.4471 z M 24.6239,17.6709 C 24.4172,18.435 24.7948,19.5678 25.0195,20.305 C 24.6779,20.6646 24.3183,21.0691 23.8328,21.3208 C 23.5362,21.3568 23.1855,21.4467 22.9069,21.5546 C 22.8619,20.9792 23.0507,20.3409 22.5383,20.0353 C 22.2236,19.5318 21.8101,18.8486 21.6482,18.2642 C 22.772,18.2103 23.689,17.7698 24.6239,17.6709 L 24.6239,17.6709 z " style="fill:#1f1a17"/>
    <path id="_212594072" class="fil3" d="M 14.4704,20.7866 C 14.4704,20.8135 14.4704,20.8315 14.4434,20.8585 C 14.0928,20.7955 13.8681,20.9304 14.0029,20.5258 L 14.4704,20.7866 z M 14.2996,20.0853 C 14.6322,20.391 15.0547,20.4359 15.4053,20.5888 C 15.3424,20.8585 14.3535,20.4809 14.2187,20.355 C 14.2097,20.2382 14.2996,19.9595 14.2996,20.0853 z M 26.1484,19.9145 L 26.4901,19.9415 C 26.2563,20.0943 25.9327,20.0584 25.636,20.0853 L 25.636,19.8965 C 25.654,19.9055 26.0406,19.7167 26.1484,19.9145 z M 20.3139,19.5819 L 19.8284,20.0584 C 19.6486,20.0404 19.6486,20.0674 19.6486,19.8696 C 19.7296,19.8426 19.7745,19.7976 19.8644,19.7887 L 19.8644,19.7437 C 20.0442,19.7347 20.1431,19.5459 20.3139,19.5279 L 20.3139,19.5819 L 20.3139,19.5819 z M 14.5423,19.465 C 14.7221,19.5279 14.9379,19.519 15.1177,19.5819 C 15.4953,19.7797 15.9987,19.9954 16.3853,20.2831 C 15.8818,20.1213 15.2435,19.8516 14.6682,19.9325 C 14.3985,19.8606 14.3535,19.6358 14.4075,19.3841 C 14.4704,19.3841 14.5063,19.4291 14.5423,19.465 z M 26.9845,19.5549 C 26.58,19.5729 25.7079,19.6268 25.4113,19.3302 L 25.4202,19.2133 C 26.0226,19.1594 26.4631,19.465 26.9845,19.5549 z M 30.6794,18.9526 C 30.5536,19.1773 29.7894,19.6089 29.5916,19.4111 C 29.7624,19.2762 30.4367,18.9436 30.6794,18.9526 z M 20.4398,18.8627 C 20.5117,19.0964 19.5228,19.5279 19.2531,19.5279 C 19.1902,19.465 19.1902,19.3751 19.1003,19.3392 C 19.2081,19.2403 19.37,19.3481 19.5048,19.2942 C 19.8464,19.2582 20.1701,19.0874 20.4398,18.8627 L 20.4398,18.8627 z M 15.3964,19.0695 C 15.5941,19.0695 16.3763,19.6448 16.583,19.7707 L 16.583,19.8156 C 15.9448,19.4021 15.2166,19.3212 14.5513,19.0155 C 14.5693,18.9436 14.5693,18.8717 14.6052,18.8177 C 14.9199,18.7908 15.1986,18.8357 15.3964,19.0695 L 15.3964,19.0695 z M 19.7835,18.611 C 19.5498,18.8087 19.1272,18.62 18.9294,18.8357 C 18.8485,18.8177 18.8575,18.9076 18.8036,18.9256 C 18.6418,18.9256 18.3181,18.8897 18.2462,18.7368 C 18.408,18.7368 18.5609,18.7009 18.7227,18.6379 C 19.0733,18.611 19.4329,18.593 19.7835,18.548 L 19.7835,18.611 L 19.7835,18.611 z M 30.5446,18.3143 C 30.5446,18.3233 30.5536,18.3323 30.5625,18.3413 C 30.3917,18.4042 30.185,18.4401 30.0231,18.548 C 29.8074,18.602 29.6546,18.7728 29.4658,18.8627 C 29.277,18.9526 29.0702,18.8447 28.8724,18.8267 L 28.8724,18.7818 C 29.4748,18.566 29.9063,18.3592 30.5446,18.3143 z M 26.1215,18.3952 C 26.3642,18.4222 27.2093,18.602 27.3981,18.7908 C 26.6878,18.4941 25.9507,18.8986 25.2854,18.548 C 25.0517,18.1345 26.0226,18.3682 26.1215,18.3952 L 26.1215,18.3952 z M 15.711,18.2244 C 16.0347,18.4312 16.3403,18.7458 16.646,18.9436 C 16.0436,18.7278 15.3514,18.4042 14.7131,18.2963 C 14.6861,17.658 15.4683,18.1794 15.711,18.2244 z M 25.8428,17.7569 C 26.2293,17.8468 26.6249,18.0716 27.0295,18.1794 C 26.517,18.1974 26.0855,17.9547 25.5461,18.0266 C 25.5101,17.9996 25.0876,17.8558 25.2854,17.703 C 25.4922,17.685 25.645,17.7839 25.8428,17.7569 L 25.8428,17.7569 z M 15.8728,17.8378 C 16.0976,17.9457 16.2954,18.0716 16.5381,18.1525 L 16.5201,18.1615 C 16.9157,18.4761 17.3382,18.8087 17.7517,19.0784 C 17.6978,19.3212 17.527,19.5819 17.3472,19.7976 C 17.2123,20.0494 17.1674,20.391 17.0415,20.6517 C 16.0796,20.8944 14.5693,22.0721 14.4794,23.2139 L 10.6496,23.2319 C 10.5687,22.6295 11.4947,22.2429 11.8723,22.0542 C 12.0611,21.9732 12.2858,21.9912 12.4746,21.9283 C 12.996,21.1821 13.8501,20.4989 14.1917,19.7077 C 14.3265,19.0695 14.4974,18.3772 14.7131,17.7569 C 14.6502,17.4153 15.7829,17.8108 15.8728,17.8378 L 15.8728,17.8378 z M 30.2479,17.6131 C 30.122,17.7479 29.8793,17.6041 29.7355,17.7929 C 29.4298,17.9637 29.1241,18.1255 28.8365,18.3592 C 28.6027,18.4222 28.4499,18.2783 28.2521,18.2064 C 28.8095,17.8918 29.6186,17.631 30.2479,17.5681 L 30.2479,17.6131 L 30.2479,17.6131 z M 19.7835,17.4692 C 19.5857,17.667 19.1632,17.64 18.9564,17.8288 C 18.6418,17.9097 17.9675,18.9256 17.5719,18.3862 C 17.509,18.3682 17.4011,18.3592 17.4011,18.2963 C 17.7697,18.3233 18.0394,18.0805 18.3451,17.9547 L 18.3451,17.9097 C 18.7586,17.703 19.334,17.5411 19.7835,17.4692 z M 29.8793,17.1096 C 29.6456,17.2265 29.3399,17.2085 29.1151,17.3793 C 28.6926,17.4512 28.4589,17.8648 28.0453,17.9367 C 28.0184,17.8738 27.6408,17.9187 27.6228,17.712 C 28.0723,17.8019 28.2701,17.3254 28.6567,17.2624 C 29.0792,17.2355 29.4658,17.1096 29.8793,17.0557 L 29.8793,17.1096 z M 19.361,16.8759 C 19.2261,16.9388 19.1182,16.9838 18.9474,17.0017 C 18.4799,17.2624 18.0125,17.6221 17.5809,17.9637 C 17.4191,18.0356 16.8707,18.0446 16.8707,17.7749 C 17.1045,17.8378 18.0664,17.1096 18.3451,17.0017 C 18.6597,16.9748 19.0283,16.8939 19.361,16.8759 z M 29.277,16.5522 C 28.4409,16.4983 28.1352,17.5591 27.2632,17.3344 C 27.1553,17.2804 26.9935,17.3164 26.9036,17.2445 C 27.0834,17.1276 27.3981,17.2175 27.5509,16.9748 C 28.0993,16.741 28.6477,16.5343 29.277,16.5253 L 29.277,16.5522 z M 18.2102,16.3814 C 18.1024,16.4444 17.8596,16.5343 17.7697,16.5882 C 17.4731,16.804 17.3202,17.2175 16.9696,17.4063 C 16.7179,17.5142 16.4482,17.4063 16.2055,17.3344 C 16.2055,17.1636 17.9855,16.3185 18.2192,16.2825 C 18.2912,16.3095 18.2102,16.3455 18.2102,16.3814 L 18.2102,16.3814 z M 16.1605,15.4914 C 15.9897,15.869 15.7919,16.6601 15.4953,16.9208 C 15.2975,17.0197 15.1356,16.8759 15.0637,16.9028 C 15.3514,16.6242 15.5222,16.3185 15.8459,16.0128 C 15.8369,15.869 16.0436,15.5723 16.1246,15.4734 L 16.1605,15.4914 z M 15.3964,14.979 C 15.3334,15.2397 15.2525,15.5274 15.1806,15.7881 C 14.9199,15.7611 14.6322,16.3814 14.4524,16.5612 C 14.2636,16.5792 14.0389,16.5792 13.958,16.3814 C 14.4794,16.3095 15.1446,15.0689 15.4953,14.6823 C 15.4413,14.7722 15.4863,14.925 15.3964,14.979 z M 27.2183,15.5993 C 27.7666,15.6352 28.9264,15.6442 29.3489,16.0668 C 28.6836,15.9948 27.9914,16.1027 27.3441,16.1567 C 27.0564,16.0308 26.7957,15.842 26.517,15.7162 C 26.4271,15.6712 25.8158,14.4845 25.8697,14.5834 C 26.4002,15.1678 26.4991,15.3745 27.2183,15.5993 L 27.2183,15.5993 z M 14.4884,14.2508 C 14.4075,14.7812 13.7422,16.1117 13.1219,15.4914 C 13.8321,15.2127 14.0568,14.8621 14.4434,14.2508 L 14.4884,14.2508 z M 18.8036,14.1968 C 19.0463,14.3856 19.1722,14.6913 19.4329,14.8351 C 19.8374,15.1678 19.3789,15.5543 19.4059,15.851 C 19.2441,15.833 19.2351,15.4285 19.2261,15.3206 C 19.352,15.3206 18.7676,14.2508 18.7586,14.1968 L 18.8036,14.1968 L 18.8036,14.1968 z M 28.7106,13.8462 C 28.7735,14.1429 28.8365,14.5025 28.9623,14.7992 C 28.4229,14.2957 28.1532,13.9721 28.0274,13.181 C 28.2521,13.3787 28.6117,13.4686 28.7106,13.8462 z M 22.8851,13.109 C 23.1548,13.5855 23.2447,14.008 23.4334,14.4665 C 23.4334,15.1138 24.1167,15.5723 23.811,16.2646 C 23.7481,15.7251 23.4604,15.4465 23.1637,15.0419 C 22.8581,14.6373 22.975,13.6215 22.8581,13.109 L 22.8851,13.109 L 22.8851,13.109 z M 20.4398,13.118 C 20.4667,13.3877 20.6106,13.5585 20.7544,13.8193 C 21.0061,14.4036 21.132,15.0599 20.9612,15.7162 C 20.8983,15.9409 20.8263,16.1477 20.7994,16.3634 C 20.7454,15.9769 20.8353,15.5184 20.7185,15.1498 C 20.6106,14.3766 20.3589,13.6664 20.3409,12.9023 C 20.4398,12.9113 20.3948,13.0551 20.4398,13.118 L 20.4398,13.118 z M 27.5059,13.181 C 27.6947,13.6844 27.8835,14.2148 28.2341,14.6463 C 27.9195,14.4486 27.6767,14.2688 27.3531,14.062 C 27.1823,13.6305 26.8946,13.2709 26.6339,12.8483 C 26.6069,12.8124 26.535,12.8303 26.517,12.7674 C 26.9126,12.7584 27.2362,12.9113 27.5059,13.181 z M 25.8158,12.7764 C 25.9596,12.8663 26.3282,13.0012 26.3013,13.2529 C 26.3013,13.4507 26.58,14.6104 26.9396,14.6104 C 26.9396,14.7093 27.434,15.0419 27.4969,15.2037 C 26.4002,14.6104 25.9776,14.2148 25.609,13.0551 C 25.609,13.0461 25.2404,12.7315 25.2494,12.6775 C 25.4832,12.6146 25.627,12.7674 25.8158,12.7764 L 25.8158,12.7764 z M 24.5033,12.7045 C 24.6561,12.7764 24.7999,12.8843 24.9528,12.9742 C 25.0876,13.0191 25.3393,14.988 25.2494,15.2756 C 25.0966,14.925 24.9887,14.5115 24.728,14.2058 C 24.6111,13.7923 24.5662,13.3518 24.4224,12.9652 C 24.3325,12.8034 24.1347,12.7764 24.0717,12.6056 C 24.2426,12.5786 24.3325,12.7225 24.5033,12.7045 L 24.5033,12.7045 z M 23.5773,12.6146 C 23.9189,12.7944 24.1167,13.7833 24.2156,14.1878 C 24.3325,14.4575 24.5123,14.6463 24.6291,14.925 C 24.6471,15.2217 24.5752,15.5184 24.701,15.815 L 24.6381,15.8061 C 24.3954,14.988 23.5953,14.3137 23.5863,13.4956 C 23.4784,13.181 23.1727,12.5696 22.8581,12.4438 C 23.1458,12.3988 23.3346,12.5606 23.5773,12.6146 L 23.5773,12.6146 z M 11.3778,13.3608 C 11.189,13.4057 11.0002,13.5675 10.7755,13.5136 C 11.171,13.163 11.4767,12.7225 11.7464,12.2909 C 11.7374,12.6955 11.6026,13.0551 11.3778,13.3608 z M 18.9384,12.1381 C 20.0802,12.3359 22.8041,11.5268 22.6154,13.4686 C 22.2917,14.1249 23.0199,14.5385 22.7682,15.2037 C 22.6154,14.988 22.5704,14.4755 22.3007,14.2688 C 22.031,13.8552 22.3187,13.3787 22.2737,12.9023 C 22.1119,12.7315 22.1119,12.4078 21.7703,12.4707 C 20.9972,13.172 22.031,14.2777 21.6265,15.0059 C 21.6354,15.2667 21.4916,15.5184 21.5545,15.7611 C 21.5006,15.3835 21.5366,14.934 21.5276,14.5115 C 21.159,13.8462 20.9252,13.3068 20.5566,12.6775 C 20.3858,12.4528 20.3589,12.5427 20.197,12.5157 C 19.5228,13.3877 20.5836,14.2418 20.251,15.2037 C 20.1791,14.8711 20.0892,14.5205 19.9363,14.2148 C 19.4149,13.7653 19.9004,12.7045 19.1182,12.4887 C 18.7317,12.6955 18.7946,13.6125 18.9834,13.9181 C 18.6777,13.9181 18.5609,12.4528 18.4889,12.246 C 18.471,12.0662 18.2462,12.1381 18.2012,11.9763 C 18.444,12.0482 18.6777,12.1291 18.9384,12.1381 z M 13.949,11.9583 C 13.7782,12.5337 12.3308,14.988 11.6026,13.9451 C 12.6814,13.6844 13.3017,12.8843 13.877,11.9853 C 13.904,11.9763 13.922,11.9493 13.949,11.9583 L 13.949,11.9583 z M 17.4551,11.7066 C 18.1653,12.228 17.8866,12.4438 17.6618,13.163 C 17.6618,13.4956 17.8866,13.7383 17.9136,14.062 C 17.8596,14.5834 17.6259,15.0239 17.3921,15.4644 C 17.3382,16.0038 16.7628,16.2106 16.5381,16.6691 L 16.4931,16.6691 C 16.628,16.1926 17.1494,15.9319 17.2303,15.4375 C 17.3112,15.0419 17.4011,14.6463 17.4641,14.2328 C 17.4641,13.5585 16.8438,13.9451 16.61,14.2328 C 16.592,14.062 16.7539,13.9541 16.7808,13.7923 C 17.3202,13.3338 17.4281,12.3629 17.3921,11.7066 L 17.4551,11.7066 L 17.4551,11.7066 z M 17.0236,11.4009 C 17.0505,11.4998 17.1944,11.5268 17.1674,11.6616 C 17.2393,11.7425 17.1494,11.8684 17.1404,11.9493 C 16.7898,12.3808 16.5651,12.9652 16.3223,13.4596 C 16.3223,13.6754 16.0077,14.4036 15.738,14.4216 C 15.9897,13.7743 16.1785,13.0731 16.4842,12.4078 C 16.61,11.9583 16.6909,11.7336 16.2864,11.4818 C 16.1156,12.3359 15.5941,13.5765 15.0368,14.2418 L 14.9828,14.2418 C 15.1267,13.9541 15.6391,12.7404 15.4953,12.4078 C 15.2705,12.3539 15.2795,12.7045 15.0637,12.6505 C 14.9828,12.4348 15.5132,11.365 15.6211,11.1942 C 16.0347,10.8705 16.655,11.1852 17.0236,11.4009 L 17.0236,11.4009 z M 9.9754,11.2571 C 10.353,11.5987 10.5328,12.2999 10.0563,12.6505 C 10.0563,13.109 8.9415,12.8933 8.7168,12.8933 L 8.7168,12.8483 C 9.1303,12.8303 9.8495,12.7494 9.9844,12.255 C 10.0203,11.9763 10.1372,11.5627 9.8046,11.3829 C 9.6337,11.2301 9.4539,11.1042 9.2292,11.0773 C 9.0494,10.8975 9.9484,11.2481 9.9754,11.2571 L 9.9754,11.2571 z M 10.8294,10.9244 C 11.1441,11.5627 11.0362,11.9853 10.5328,12.4887 C 10.3799,12.3359 11.0452,11.4369 10.3619,11.0503 C 10.1642,10.8795 9.6877,10.6907 9.436,10.7626 L 9.436,10.6997 C 9.9933,10.7896 10.29,10.403 10.8294,10.9244 z M 15.0637,10.7806 C 15.2885,11.1222 15.0368,11.9763 14.803,12.273 C 14.6682,12.255 14.7671,12.0932 14.7221,12.0122 C 14.6502,12.1651 13.9669,13.3428 13.8051,13.3428 C 13.7602,13.0461 14.4254,11.9853 14.4434,11.5807 C 14.5423,11.3919 14.6322,10.5109 14.4344,10.3401 L 14.4974,10.3401 L 15.0637,10.7806 z M 11.8633,10.2862 C 12.0611,10.6098 12.133,10.8615 12.2678,11.1942 L 12.3308,11.1942 C 12.2768,11.4908 12.3937,12.4707 12.088,12.6865 C 11.9532,12.4977 12.3128,11.4728 11.8813,11.329 C 11.6835,11.5178 11.5576,11.7515 11.4407,11.9763 C 11.3958,12.0122 11.3239,11.9763 11.2879,12.0302 C 11.3059,11.9313 11.4767,11.4009 11.5127,11.347 C 11.5396,11.0143 11.4857,10.43 11.6655,10.1693 C 11.7015,10.2412 11.8003,10.2412 11.8633,10.2862 L 11.8633,10.2862 z M 14.1378,10.2412 C 14.1378,10.5738 13.8141,11.2481 13.6523,11.5807 C 13.1129,11.9673 12.6364,13.2978 11.9981,13.4147 C 12.7982,12.7854 12.6634,12.0392 12.9511,11.1942 C 13.3826,10.8435 13.5174,10.2232 13.4635,11.0863 C 13.5174,11.0773 13.5444,11.1582 13.5894,11.1132 C 13.8321,10.8705 13.6343,10.403 13.877,10.1153 C 14.0029,10.0704 14.1378,10.0884 14.1378,10.2412 L 14.1378,10.2412 z M 9.4719,10.1693 L 9.4989,10.2142 C 9.0584,10.466 8.6089,10.6727 8.1684,10.9874 C 8.1684,10.9334 8.1144,10.8076 8.2133,10.7806 C 8.6538,10.6188 8.8696,9.9266 9.436,10.0884 L 9.4719,10.1693 L 9.4719,10.1693 z M 12.9691,9.4501 C 12.9331,9.8456 12.7623,10.0974 12.4296,10.2862 C 12.4027,9.9355 12.7982,9.6658 12.3667,9.2793 C 12.4027,9.1264 12.9421,9.1804 12.9691,9.4501 L 12.9691,9.4501 z M 13.4545,9.495 C 13.4365,9.8636 13.6073,10.421 13.1399,10.6817 C 12.9601,10.6817 12.8252,10.6907 12.7893,10.457 C 13.005,9.9625 13.2927,9.6389 13.0859,9.0995 C 13.3466,9.0905 13.3287,9.3512 13.4545,9.495 z M 13.3017,8.7309 C 13.5085,8.9646 13.7782,9.1714 13.7871,9.486 C 13.7692,9.495 13.7422,9.477 13.7242,9.504 C 13.7961,9.513 13.7782,9.5939 13.7961,9.6299 C 14.1557,9.7737 14.5783,9.7288 14.848,10.0614 C 15.1177,10.1513 15.3065,10.466 15.5672,10.6008 C 15.9717,10.6368 16.4122,10.5918 16.7988,10.6907 C 18.462,11.9223 19.8374,11.7156 21.7973,11.6437 C 22.4086,11.6257 23.0199,11.8324 23.5863,12.0033 C 24.2066,12.1381 24.9348,12.1021 25.5911,12.0662 C 26.2743,12.1201 27.0205,12.201 27.6947,12.3539 L 27.6947,12.3988 C 28.4319,12.4618 28.5488,13.154 29.1781,13.4327 C 29.241,13.4956 29.241,13.6395 29.3489,13.6395 C 30.2569,14.6733 31.1918,14.8082 32.5224,14.7362 C 32.7381,14.5654 33.3225,14.3676 33.3584,14.026 C 33.6641,13.8013 33.6102,12.8753 33.5023,12.6146 C 33.3854,11.7875 31.8032,10.9694 31.075,10.6817 C 30.4187,10.5828 29.7445,10.5109 29.0702,10.457 C 27.2812,10.385 24.6291,11.1312 23.0379,10.2592 C 22.4625,10.0614 21.8242,9.8366 21.2938,9.5759 C 21.4017,9.1894 22.4356,9.2433 22.7142,9.2433 C 23.6672,9.4591 24.737,10.1963 25.7619,9.9176 C 27.2812,9.7288 29.0612,9.6658 30.5805,9.9086 C 32.1088,10.2862 33.9877,10.9604 34.5092,12.6146 C 35.0126,14.3766 33.1337,16.0128 31.3627,15.5633 C 30.9311,15.5274 30.5625,15.3745 30.167,15.2397 C 30.194,15.6442 30.4906,15.9948 30.6435,16.3994 C 30.8322,17.3074 31.3177,18.4941 32.0549,19.1054 C 32.1268,19.501 33.3674,19.7257 33.6731,19.7887 C 33.6731,20.4359 34.1496,21.1821 34.3833,21.7395 C 34.1945,22.225 33.6821,22.6475 33.5562,23.1959 L 30.167,23.2139 C 30.185,22.225 31.1559,21.6586 32.0639,21.6496 C 32.0998,21.6316 32.0729,21.5957 32.0819,21.5687 C 31.8211,21.254 31.4346,20.8405 31.2278,20.5079 C 30.4816,20.1842 29.8523,19.7077 29.1601,19.2942 C 28.9893,19.1773 28.9353,18.9975 28.7915,18.8627 C 28.3959,18.557 28.0094,18.2603 27.6498,17.8558 C 25.8338,16.7051 24.3504,16.8489 22.3726,17.5232 C 21.8872,17.649 21.3747,17.649 20.9612,17.5771 C 20.8263,17.3973 20.7994,17.1725 20.7095,16.9748 C 20.7364,16.8129 20.5387,16.777 20.4488,16.6601 C 20.0082,16.5343 19.5587,16.1567 19.1902,15.815 C 19.307,15.887 19.2711,16.1477 19.4329,16.1926 C 19.6307,16.4713 19.9273,16.6421 20.1791,16.8129 C 20.2869,16.8219 20.3768,16.8579 20.4398,16.9478 C 20.4488,17.4692 20.7274,17.8468 20.8084,18.3592 C 21.2669,19.0605 21.4467,20.0044 22.0849,20.6068 C 22.0849,21.1012 21.9321,22.5486 22.2468,22.9442 C 22.3636,22.9262 22.4266,22.7824 22.4985,22.6925 C 22.6783,22.2789 23.3256,21.7845 23.811,21.8564 C 23.9639,21.8744 25.3124,20.8045 25.5641,20.5528 C 25.4832,20.0853 25.1865,19.6358 25.1146,19.1234 C 25.1416,18.557 24.7999,17.9817 25.1146,17.4782 C 24.9348,16.9927 27.443,17.9727 27.461,17.9817 C 27.5239,18.0356 28.4409,18.8627 28.4319,18.9436 C 28.2521,19.0874 28.2881,19.3392 28.0633,19.438 C 27.7487,19.9415 27.443,20.7326 27.3801,21.3619 C 27.1913,21.6766 26.8497,21.7395 26.7867,21.7934 C 26.2563,22.189 26.1844,22.7913 25.672,23.1689 L 18.7586,23.1689 C 19.0913,21.9013 19.7475,22.0452 20.1791,21.8204 C 20.26,21.5867 20.5297,21.0832 20.197,20.9664 C 19.8105,20.5438 19.4688,20.0044 19.0283,19.6089 C 18.8665,19.3122 18.5429,19.1773 18.2912,18.9885 C 17.545,18.6289 16.9966,18.2514 16.4662,17.631 C 15.7829,17.1995 15.0098,17.0287 14.2906,16.7051 C 13.6433,16.2735 13.1758,15.7521 12.5915,15.2397 L 12.1779,14.3856 C 11.8543,14.1699 11.4318,14.089 11.225,13.7294 C 10.8564,13.5585 10.4159,13.7294 10.1012,13.4147 C 10.29,13.3158 10.8294,13.0821 10.8294,12.8483 C 10.7575,12.8034 10.7036,12.6865 10.5867,12.7225 C 10.1732,13.2259 8.9325,13.8552 8.4201,13.127 C 8.501,12.9292 8.3841,12.7045 8.4201,12.4707 C 8.465,12.4707 8.501,12.4797 8.537,12.4618 C 8.501,12.4348 8.4561,12.4438 8.4201,12.4258 C 8.3931,12.3179 8.4561,12.246 8.537,12.1741 C 8.6538,12.255 8.501,12.5696 8.7617,12.4797 C 8.9145,12.6685 9.6967,12.273 9.7326,12.0302 C 10.1282,10.6817 8.546,11.4279 7.9436,11.1852 C 8.0425,10.8795 7.9976,10.8435 7.9526,10.6188 C 8.3122,10.421 8.4201,10.1513 8.3841,9.7467 C 9.2382,9.2163 10.308,9.9625 11.189,9.9625 C 11.0632,9.531 11.2789,9.54 10.7935,9.3512 C 10.4159,9.4231 10.0113,9.4231 9.6068,9.4231 C 9.6967,9.3782 9.9034,9.0006 10.0833,9.0096 C 10.335,8.7848 12.0071,8.9376 12.3397,8.9466 C 12.5016,8.8477 12.6544,8.7489 12.8522,8.7309 C 12.978,8.596 13.1399,8.7668 13.3017,8.7309 L 13.3017,8.7309 z M 7.9616,9.7647 C 7.9616,10.0165 7.6649,10.5199 7.3952,10.2322 L 7.4042,10.2322 C 7.3952,10.1423 7.3593,10.0434 7.3593,9.9176 C 7.4312,9.7557 7.8178,9.6658 7.9616,9.7647 L 7.9616,9.7647 z M 8.9325,11.5268 C 8.8157,11.5627 8.8336,11.4369 8.7617,11.3919 C 8.6988,11.4998 8.7797,11.6706 8.6898,11.7875 C 8.5729,11.7246 8.519,11.5717 8.4561,11.4639 C 8.3302,11.5178 8.3841,11.6706 8.3212,11.7875 C 8.2133,11.7425 8.0695,11.4728 8.0695,11.365 L 8.9685,11.329 C 8.9775,11.3919 8.9685,11.4728 8.9325,11.5268 L 8.9325,11.5268 z M 9.4899,11.8954 C 9.373,12.1381 9.1663,12.4258 8.8426,12.4258 C 8.8426,12.0572 9.1033,11.8954 9.4899,11.8954 z " style="fill:#fff500"/>
   </g></svg>