<?xml version="1.0" encoding="UTF-8" standalone="no"?>
<svg xmlns:dc="http://purl.org/dc/elements/1.1/" xmlns:cc="http://creativecommons.org/ns#" xmlns:rdf="http://www.w3.org/1999/02/22-rdf-syntax-ns#" xmlns:svg="http://www.w3.org/2000/svg" xmlns="http://www.w3.org/2000/svg" xmlns:sodipodi="http://sodipodi.sourceforge.net/DTD/sodipodi-0.dtd" xmlns:inkscape="http://www.inkscape.org/namespaces/inkscape" version="1.1" id="Layer_1" x="0px" y="0px" width="1500px" height="1000px" viewBox="0 0 1500 1000" enable-background="new 0 0 1500 1000" xml:space="preserve" inkscape:version="0.91 r13725" sodipodi:docname="Flag_of_Moscow_oblast.svg"><metadata id="metadata55"><rdf:RDF><cc:Work rdf:about=""><dc:format>image/svg+xml</dc:format><dc:type rdf:resource="http://purl.org/dc/dcmitype/StillImage"/></cc:Work></rdf:RDF></metadata><defs id="defs53"/><sodipodi:namedview pagecolor="#ffffff" bordercolor="#666666" borderopacity="1" objecttolerance="10" gridtolerance="10" guidetolerance="10" inkscape:pageopacity="0" inkscape:pageshadow="2" inkscape:window-width="1366" inkscape:window-height="715" id="namedview51" showgrid="false" inkscape:zoom="0.3337544" inkscape:cx="1528.147" inkscape:cy="532.76778" inkscape:window-x="-8" inkscape:window-y="-8" inkscape:window-maximized="1" inkscape:current-layer="Layer_1"/><rect y="0" x="0" height="1000" width="1500" id="rect2913" style="fill:#e21c2a;fill-opacity:1;fill-rule:nonzero;stroke:none"/><g style="display:inline;fill-rule:evenodd" id="g22" transform="matrix(1.37078,0,0,1.37078,-218.87472,-406.3514)"><path inkscape:connector-curvature="0" id="path24" d="m 341.262,482.549 c 0.554,0.511 1.107,1.022 1.662,1.532 2.179,2.001 4.378,3.972 6.673,5.839 l 0.526,0.426 c 0.187,0.17 0.354,0.34 0.519,0.532 0.205,0.263 0.369,0.521 0.522,0.818 0.089,0.195 0.165,0.386 0.235,0.589 0.066,0.224 0.12,0.444 0.167,0.675 0.04,0.258 0.069,0.509 0.088,0.77 0.011,0.294 0.01,0.582 -10e-4,0.876 -0.024,0.332 -0.059,0.656 -0.103,0.987 -0.062,0.371 -0.134,0.736 -0.216,1.104 -0.185,0.742 -0.404,1.465 -0.667,2.184 -0.268,0.695 -0.57,1.364 -0.909,2.028 -0.35,0.666 -0.726,1.311 -1.127,1.948 -1.264,1.97 -2.701,3.828 -4.224,5.602 -0.381,0.438 -0.767,0.873 -1.156,1.305 -2.049,2.25 -4.198,4.405 -6.243,6.658 l -0.079,0.058 -0.231,0.254 c -0.411,-0.137 -0.822,-0.271 -1.237,-0.401 -0.706,-0.21 -1.412,-0.407 -2.124,-0.594 -0.726,-0.179 -1.45,-0.345 -2.18,-0.502 -0.743,-0.147 -1.485,-0.283 -2.232,-0.409 -0.759,-0.116 -1.518,-0.222 -2.281,-0.317 -0.187,-0.021 -0.375,-0.042 -0.564,-0.062 0.175,-0.152 0.353,-0.302 0.537,-0.447 0.693,-0.539 1.426,-0.997 2.22,-1.371 0.751,-0.201 1.504,-0.398 2.256,-0.598 l 0.129,-0.399 c 0.313,-0.949 0.674,-1.881 0.954,-2.841 0.149,-0.519 0.265,-1.045 0.407,-1.566 0.119,-0.402 0.247,-0.796 0.387,-1.191 l 0.618,-1.457 0.723,-1.33 0.813,-1.226 1.361,-1.697 3.05,-3.14 c 0.31,-0.295 0.622,-0.584 0.947,-0.862 0.48,-0.4 1.028,-0.841 1.658,-0.955 l 0.425,-0.018 0.353,-0.285 c 0.318,-0.27 0.614,-0.545 0.9,-0.85 0.147,-0.17 0.283,-0.34 0.416,-0.522 0.116,-0.178 0.217,-0.351 0.313,-0.541 0.082,-0.19 0.143,-0.367 0.195,-0.567 l 0.053,-0.392 -0.019,-0.397 -0.091,-0.39 -0.162,-0.376 -0.363,-0.527 -0.316,-0.329 -0.76,-0.586 -1.208,-1.431 -0.356,-0.932 -0.116,-2.093 -0.071,-2.014 -0.071,-0.57 z M 306.043,373.734 c -0.993,-0.336 -2.08,-1.342 -3.144,-3.237 -0.286,-0.468 -0.49,-0.937 -0.74,-1.409 -0.577,-1.092 -0.186,-2.465 -1.178,-3.387 -0.537,-0.5 -0.574,-0.867 -0.737,-1.621 -0.124,-0.576 -0.216,-1.16 -0.283,-1.741 -0.176,-0.074 -0.319,-0.096 -0.368,-0.093 l -0.145,-1.356 -0.028,-1.049 0.052,-1.039 0.129,-1.025 0.203,-1.004 0.276,-0.977 0.343,-0.944 0.411,-0.904 0.475,-0.86 0.537,-0.807 0.597,-0.749 0.654,-0.685 0.348,-0.316 0.362,-0.297 0.375,-0.277 0.388,-0.257 0.401,-0.235 0.413,-0.213 0.363,-0.161 c 0.034,-0.379 0.073,-0.754 0.084,-1.134 -0.001,-0.423 -0.037,-0.819 -0.118,-1.234 -0.076,-0.331 -0.173,-0.638 -0.3,-0.953 -0.067,-0.153 -0.137,-0.301 -0.213,-0.449 -0.336,-0.617 -0.742,-1.144 -1.222,-1.656 l -0.565,-0.582 0.58,-0.444 c 0.575,-0.264 1.211,-0.401 1.825,-0.536 l 0.865,-0.159 c 0.508,-0.074 1.01,-0.132 1.521,-0.179 l 1.131,-0.05 1.198,0.027 0.619,0.05 0.626,0.077 0.633,0.107 0.635,0.14 0.636,0.175 0.632,0.214 0.627,0.255 0.617,0.299 0.605,0.345 0.588,0.394 0.569,0.445 0.546,0.499 0.519,0.555 0.49,0.613 c 0.22,0.325 0.44,0.644 0.642,0.979 0.372,0.637 0.705,1.287 1.009,1.958 0.493,1.119 0.911,2.275 1.063,3.494 0.062,0.674 0.091,1.35 0.109,2.026 0.01,0.837 -0.011,1.661 -0.077,2.495 -0.035,0.37 -0.076,0.738 -0.124,1.106 -0.117,0.85 -0.273,1.695 -0.313,2.553 -0.019,0.889 0.083,1.813 0.35,2.663 l 0.106,0.287 c 0.175,0.401 0.374,0.727 0.709,1.011 l 0.177,0.125 c 0.366,0.21 0.748,0.301 1.17,0.279 0.16,-0.017 0.31,-0.042 0.468,-0.078 0.251,-0.072 0.465,-0.162 0.694,-0.289 0.235,-0.146 0.438,-0.303 0.644,-0.487 0.704,-0.675 1.248,-1.489 1.794,-2.294 0.273,-0.403 0.549,-0.805 0.819,-1.209 0.305,-0.454 0.608,-0.885 0.987,-1.282 0.174,-0.168 0.348,-0.318 0.542,-0.463 0.16,-0.108 0.318,-0.204 0.488,-0.297 0.326,-0.157 0.638,-0.268 0.988,-0.359 0.322,-0.069 0.633,-0.113 0.962,-0.142 0.284,-0.014 0.563,-0.018 0.847,-0.013 l 0.306,0.026 0.3,0.061 0.281,0.092 0.262,0.122 0.241,0.147 0.219,0.169 0.2,0.187 0.344,0.414 c 0.151,0.224 0.283,0.446 0.411,0.683 0.156,0.314 0.296,0.63 0.432,0.952 0.255,0.613 0.491,1.238 0.879,1.779 0.101,0.121 0.194,0.217 0.317,0.316 0.118,0.074 0.211,0.117 0.345,0.158 l 0.258,0.042 c 0.279,0.144 0.526,0.262 0.843,0.184 0.375,-0.117 0.646,-0.449 0.87,-0.757 l 1.299,-1.877 -0.28,2.517 c -0.075,0.538 -0.18,1.051 -0.347,1.568 -0.102,0.283 -0.215,0.544 -0.358,0.809 -0.124,0.208 -0.252,0.391 -0.407,0.578 -0.125,0.136 -0.25,0.254 -0.39,0.373 -0.153,0.113 -0.3,0.208 -0.466,0.3 -0.18,0.084 -0.351,0.15 -0.539,0.209 -0.568,0.14 -1.173,0.181 -1.75,0.076 -0.286,-0.063 -0.524,-0.157 -0.774,-0.312 l -0.179,-0.133 c -0.324,-0.285 -0.523,-0.598 -0.688,-0.994 -0.273,-0.671 -0.601,-1.372 -1.177,-1.833 -0.2,-0.143 -0.379,-0.226 -0.621,-0.264 -0.228,-0.02 -0.419,0.009 -0.638,0.072 -0.131,0.045 -0.267,0.085 -0.384,0.159 -0.183,0.123 -0.353,0.261 -0.521,0.402 -1.053,0.91 -1.985,1.994 -2.744,3.162 -0.39,0.606 -0.759,1.218 -1.216,1.778 -0.125,0.147 -0.253,0.287 -0.387,0.424 -0.454,0.44 -0.938,0.778 -1.504,1.052 -0.423,0.195 -0.846,0.335 -1.3,0.433 -0.414,0.08 -0.82,0.119 -1.242,0.119 l -0.606,-0.009 -0.004,-0.038 c -0.208,-0.001 -0.414,-0.041 -0.618,-0.081 -0.216,-0.045 -0.431,-0.098 -0.646,-0.149 l 0.001,-0.027 c -0.088,-0.01 -0.166,-0.042 -0.249,-0.071 -0.297,-0.105 -0.582,-0.229 -0.863,-0.371 l -0.366,-0.19 10e-4,-0.072 -0.179,-0.046 c -0.194,-0.126 -0.384,-0.256 -0.559,-0.408 l -0.104,0.064 c 0.451,0.798 0.901,1.597 1.352,2.395 l 0.127,0.1 c 2.835,-0.369 5.691,-0.484 8.539,-0.706 2.072,-0.166 4.141,-0.361 6.212,-0.542 3.941,-0.336 7.892,-0.543 11.847,-0.603 1.803,-0.017 3.607,-0.013 5.407,0.107 0.484,0.038 0.987,0.064 1.451,0.212 l 0.284,0.162 0.119,0.397 0.251,-0.113 0.488,-0.183 0.486,-0.144 0.483,-0.108 0.475,-0.071 0.467,-0.034 0.456,0 0.443,0.035 0.427,0.071 0.41,0.106 0.389,0.14 0.367,0.176 0.34,0.211 0.311,0.247 0.277,0.282 0.238,0.316 0.195,0.348 0.148,0.378 0.096,0.402 0.043,0.424 -0.011,0.441 -0.066,0.456 -0.123,0.47 -0.178,0.482 -0.234,0.495 -0.122,0.208 15.525,5.446 1.213,-0.297 -0.297,1.99 -0.35,2.059 -0.358,1.705 -0.186,0.734 -0.193,0.663 -0.202,0.597 -0.212,0.538 -0.226,0.483 -0.242,0.433 -0.259,0.387 -0.277,0.344 -0.296,0.305 -0.314,0.267 -0.33,0.234 -0.345,0.206 -0.359,0.184 c -0.819,0.368 -1.664,0.66 -2.503,0.979 -0.529,0.211 -1.046,0.434 -1.565,0.67 l -1.197,0.614 -0.65,0.374 -0.686,0.424 -0.722,0.48 c -0.429,0.317 -0.751,0.737 -1.049,1.178 -0.487,0.761 -0.869,1.575 -1.009,2.477 -0.037,0.365 -0.041,0.685 0.114,1.023 l 0.056,0.089 c 0.127,0.165 0.292,0.285 0.451,0.417 0.137,0.116 0.246,0.229 0.353,0.375 0.071,0.123 0.116,0.226 0.157,0.363 l 0.029,0.282 c -0.02,0.27 -0.083,0.471 -0.193,0.717 l -0.166,0.301 -1.642,1.921 -0.904,0.674 -1.275,0.503 -0.3,0.035 c -0.206,0.007 -0.392,-0.004 -0.596,-0.036 l -1.286,-0.129 -1.16,0.1 -1.152,0.332 c -0.344,0.145 -0.66,0.31 -0.977,0.509 -0.196,0.137 -0.37,0.276 -0.548,0.437 -0.242,0.244 -0.448,0.491 -0.653,0.768 -0.157,0.228 -0.303,0.458 -0.445,0.697 -0.503,0.898 -0.908,1.836 -1.318,2.78 -0.384,0.881 -0.775,1.744 -1.255,2.578 l -0.603,0.882 -0.121,0.101 -0.131,0.073 -0.132,0.049 c -0.419,0.095 -0.779,0 -1.183,-0.113 -0.196,-0.056 -0.392,-0.113 -0.593,-0.152 -0.048,-0.008 -0.246,-0.043 -0.287,-0.01 -0.39,0.373 -0.744,0.767 -1.096,1.177 -0.402,0.47 -0.799,0.932 -1.248,1.359 -0.244,0.219 -0.489,0.413 -0.758,0.6 -0.221,0.138 -0.438,0.259 -0.672,0.375 -0.259,0.111 -0.51,0.202 -0.779,0.285 -0.299,0.077 -0.59,0.134 -0.896,0.181 -0.346,0.037 -0.682,0.058 -1.031,0.065 -0.366,-0.005 -0.723,-0.023 -1.088,-0.055 l -0.772,-0.118 -0.834,-0.207 -0.899,-0.313 -0.474,-0.201 -0.491,-0.235 -0.509,-0.27 -0.526,-0.307 -0.546,-0.347 -0.564,-0.389 -0.585,-0.432 -0.605,-0.478 -0.626,-0.528 -0.648,-0.577 -0.671,-0.631 -0.694,-0.686 -0.718,-0.743 -0.743,-0.804 -0.767,-0.865 -0.794,-0.931 -0.821,-0.997 -0.847,-1.066 -0.876,-1.138 -1.836,-2.5 -1.956,-2.814 -1.109,-1.658 -0.545,1.548 -0.213,0.566 0.1,0.565 0.143,0.394 1.429,3.901 0.181,0.525 0.289,0.044 0.896,2.743 -0.14,-0.065 c 1.524,4.103 3.048,8.206 4.57,12.309 0.032,-0.011 0.065,-0.022 0.096,-0.034 l 0.235,0.236 c 1.17,1.009 2.265,2.102 3.435,3.11 0.557,0.472 1.128,0.935 1.75,1.319 0.546,0.328 1.102,0.63 1.603,1.021 9.737,-4.229 18.454,-6.064 29.417,-0.524 0.003,-0.007 0.007,-0.014 0.01,-0.021 0.256,-0.481 0.542,-0.919 0.872,-1.352 0.376,-0.474 0.778,-0.909 1.208,-1.333 0.681,-0.657 1.4,-1.272 2.127,-1.879 0.56,-0.453 1.128,-0.881 1.72,-1.293 0.496,-0.33 0.995,-0.641 1.512,-0.939 0.4,-0.218 0.801,-0.423 1.211,-0.621 0.421,-0.189 0.842,-0.363 1.274,-0.528 0.442,-0.154 0.882,-0.292 1.334,-0.418 l 0.921,-0.209 0.945,-0.144 0.969,-0.076 0.99,-0.002 1.01,0.079 1.029,0.164 c 0.565,0.125 1.12,0.268 1.678,0.424 0.572,0.175 1.134,0.361 1.698,0.563 l 1.101,0.439 c 0.54,0.24 1.069,0.489 1.597,0.755 l 1.026,0.566 0.989,0.615 0.95,0.664 0.908,0.713 0.862,0.761 0.815,0.808 0.763,0.855 0.708,0.9 0.649,0.946 0.588,0.991 c 0.245,0.466 0.476,0.929 0.689,1.411 0.155,0.385 0.294,0.767 0.424,1.161 0.118,0.398 0.223,0.795 0.318,1.199 0.084,0.41 0.158,0.817 0.222,1.23 0.074,0.558 0.129,1.111 0.167,1.673 0.028,0.566 0.041,1.128 0.04,1.695 -0.016,0.993 -0.073,1.975 -0.163,2.964 -0.082,0.829 -0.183,1.653 -0.297,2.478 l -0.182,1.177 c -0.143,0.77 -0.304,1.53 -0.483,2.294 -0.193,0.758 -0.399,1.509 -0.617,2.261 l -0.465,1.492 c -0.89,2.704 -1.882,5.371 -2.743,8.084 l -0.434,1.463 c -0.198,0.731 -0.383,1.46 -0.554,2.198 l -0.289,1.471 -0.21,1.478 -0.072,0.742 c -0.041,0.633 -0.072,1.259 -0.071,1.894 0.011,0.371 0.033,0.735 0.068,1.105 0.043,0.325 0.094,0.641 0.16,0.963 0.068,0.285 0.145,0.562 0.234,0.842 0.121,0.336 0.253,0.653 0.409,0.974 0.193,0.367 0.399,0.71 0.632,1.053 0.562,0.793 1.204,1.519 1.793,2.292 l 0.674,0.917 -1.329,0.238 -0.477,0.062 -0.974,0.056 -0.993,-0.029 -1.005,-0.111 -1.006,-0.189 -0.997,-0.264 -0.982,-0.336 -0.956,-0.404 -0.921,-0.472 -0.877,-0.536 -0.823,-0.599 -0.389,-0.322 -0.371,-0.337 -0.353,-0.351 -0.333,-0.366 -0.312,-0.38 -0.29,-0.395 -0.266,-0.408 -0.241,-0.421 -0.214,-0.434 -0.17,-0.411 -0.294,-0.582 -0.284,-0.611 -0.26,-0.614 -0.45,-1.232 -0.362,-1.237 -0.278,-1.242 -0.199,-1.243 -0.125,-1.243 -0.056,-1.242 0.007,-1.239 c 0.026,-0.619 0.066,-1.232 0.12,-1.85 0.067,-0.615 0.144,-1.224 0.235,-1.836 0.101,-0.609 0.211,-1.213 0.332,-1.817 0.13,-0.601 0.268,-1.199 0.414,-1.796 0.278,-1.072 0.588,-2.134 0.864,-3.207 l 0.335,-1.508 0.27,-1.554 0.104,-0.788 0.083,-0.793 0.058,-0.793 0.031,-0.792 0.002,-0.788 -0.028,-0.781 -0.06,-0.771 -0.095,-0.759 -0.131,-0.745 -0.169,-0.727 -0.209,-0.708 -0.25,-0.686 -0.293,-0.662 -0.337,-0.635 -0.385,-0.607 -0.434,-0.578 -0.484,-0.546 -0.539,-0.513 -0.595,-0.478 -0.655,-0.44 -0.717,-0.402 -0.782,-0.359 -0.851,-0.316 -0.922,-0.268 -0.996,-0.217 c -0.506,-0.078 -1.005,-0.185 -1.516,-0.191 -0.867,0.015 -1.703,0.261 -2.524,0.53 0.166,0.154 0.328,0.31 0.49,0.471 0.275,0.291 0.537,0.586 0.794,0.893 0.348,0.442 0.675,0.89 0.992,1.354 0.22,0.337 0.431,0.676 0.637,1.022 0.312,0.553 0.596,1.109 0.86,1.687 0.142,0.33 0.277,0.661 0.405,0.998 0.232,0.645 0.428,1.289 0.595,1.955 0.144,0.626 0.259,1.249 0.349,1.885 0.063,0.503 0.111,1.003 0.145,1.508 l 0.032,0.587 c 0.04,0.176 0.078,0.35 0.111,0.527 0.112,0.672 0.143,1.325 0.096,2.005 -0.05,0.579 -0.15,1.137 -0.294,1.7 -0.073,0.27 -0.154,0.539 -0.233,0.808 l -0.043,10e-4 c -0.064,0.203 -0.127,0.406 -0.192,0.608 -0.577,2.415 -1.221,4.381 -0.84,6.413 0.019,0.453 0.019,0.906 0.022,1.359 l -0.39,0.024 -0.066,0.249 -0.027,-0.244 c -0.032,0.002 -0.065,0.004 -0.098,0.006 -0.135,0.34 -0.271,0.681 -0.409,1.02 -0.249,0.611 -0.5,1.222 -0.736,1.839 -0.32,0.754 -0.646,1.504 -0.98,2.251 -0.652,1.435 -1.334,2.853 -2.049,4.259 -0.707,1.372 -1.44,2.725 -2.199,4.068 -0.479,0.84 -0.967,1.674 -1.462,2.505 -0.725,1.207 -1.465,2.403 -2.214,3.593 l -0.203,0.192 -0.221,0.297 -0.181,0.38 -0.135,0.465 c -0.053,0.282 -0.088,0.554 -0.113,0.841 -0.015,0.33 -0.017,0.653 -0.01,0.983 l 0.046,0.719 c 0.12,1.219 0.336,2.411 0.582,3.611 0.231,1.085 0.482,2.167 0.725,3.25 0.367,0.806 0.573,1.696 1.098,2.421 0.446,0.603 0.825,1.236 1.147,1.916 0.099,0.215 0.192,0.431 0.28,0.651 0.234,0.6 0.459,1.213 0.474,1.865 -0.008,0.151 -0.025,0.284 -0.057,0.432 -0.044,0.139 -0.093,0.255 -0.161,0.384 -0.073,0.112 -0.146,0.209 -0.235,0.31 -0.353,0.354 -0.784,0.615 -1.18,0.918 -0.487,0.389 -0.926,0.835 -1.373,1.27 -0.562,0.559 -1.11,1.125 -1.65,1.707 -0.487,0.541 -0.96,1.088 -1.424,1.65 -0.42,0.524 -0.826,1.055 -1.221,1.6 -0.36,0.512 -0.705,1.031 -1.04,1.561 -0.307,0.504 -0.599,1.012 -0.881,1.531 -0.324,0.622 -0.625,1.247 -0.91,1.888 -0.19,0.446 -0.37,0.893 -0.542,1.346 0.034,0.012 0.067,0.023 0.1,0.034 -0.188,0.409 -0.378,0.818 -0.558,1.231 -0.395,0.943 -0.716,1.895 -0.992,2.88 -0.231,0.843 -0.442,1.691 -0.688,2.531 -0.103,0.072 -0.209,0.135 -0.299,0.226 -0.107,0.127 -0.194,0.27 -0.288,0.407 -0.148,0.199 -0.285,0.336 -0.49,0.476 l -0.288,0.128 -0.436,0.142 c -0.824,0.3 -1.592,0.676 -2.349,1.12 l -0.411,0.254 c -0.809,0.529 -1.559,1.106 -2.226,1.81 -0.117,0.131 -0.229,0.263 -0.339,0.4 l 0.256,0.116 c 0.687,0.331 1.36,0.679 2.029,1.044 0.83,0.466 1.647,0.951 2.458,1.449 2.056,1.282 4.07,2.63 6.16,3.857 0.863,0.494 1.731,0.961 2.628,1.389 l 2.633,1.106 c 0.907,0.328 1.816,0.612 2.75,0.852 0.616,0.149 1.232,0.277 1.858,0.382 0.616,0.093 1.228,0.161 1.851,0.202 0.512,0.025 1.016,0.021 1.529,0.003 l 0.565,-0.048 0.536,-0.075 0.505,-0.1 0.477,-0.122 0.449,-0.144 0.422,-0.164 0.396,-0.182 0.371,-0.2 0.345,-0.216 0.322,-0.229 0.299,-0.243 0.276,-0.255 0.254,-0.265 0.446,-0.557 0.365,-0.585 0.288,-0.602 0.214,-0.607 0.144,-0.601 0.078,-0.583 c 0.016,-0.274 0.017,-0.534 0.002,-0.809 -0.072,-0.647 -0.245,-1.27 -0.451,-1.886 -0.385,-1.062 -0.905,-2.073 -1.374,-3.1 -0.187,-0.418 -0.369,-0.838 -0.548,-1.26 -0.391,-0.949 -0.756,-1.903 -1.107,-2.867 -0.487,-1.377 -0.942,-2.761 -1.38,-4.154 -0.334,-1.09 -0.659,-2.182 -0.977,-3.277 l -0.476,-1.818 -0.355,-1.714 -0.24,-1.61 -0.131,-1.508 -0.027,-1.411 0.07,-1.317 0.161,-1.225 0.246,-1.138 0.326,-1.051 0.398,-0.969 0.463,-0.888 0.522,-0.809 0.573,-0.733 0.616,-0.661 0.652,-0.59 0.68,-0.525 0.701,-0.464 0.715,-0.404 0.721,-0.351 0.721,-0.301 0.715,-0.254 0.7,-0.213 0.681,-0.174 0.654,-0.141 0.621,-0.109 c 0.535,-0.077 1.062,-0.139 1.601,-0.184 0.552,-0.033 1.1,-0.06 1.653,-0.03 l 0.436,0.041 c 0.535,0.07 1.054,0.172 1.58,0.296 0.628,0.162 1.234,0.353 1.842,0.579 0.323,0.129 0.64,0.264 0.957,0.408 0.321,0.157 0.633,0.321 0.945,0.496 0.31,0.187 0.608,0.381 0.907,0.588 0.292,0.221 0.567,0.447 0.841,0.691 l 0.51,0.52 0.457,0.57 c 0.213,0.311 0.407,0.621 0.594,0.948 l 0.351,0.694 c 0.165,0.369 0.317,0.737 0.461,1.115 0.184,0.522 0.346,1.042 0.493,1.575 0.136,0.538 0.253,1.072 0.354,1.617 0.088,0.53 0.158,1.056 0.211,1.59 0.039,0.501 0.06,0.994 0.062,1.496 -0.009,0.344 -0.028,0.68 -0.058,1.023 -0.04,0.31 -0.089,0.607 -0.155,0.912 -0.062,0.225 -0.127,0.442 -0.213,0.659 -0.534,1.276 -1.424,2.355 -2.355,3.358 -0.069,0.072 -0.135,0.126 -0.215,0.185 l -0.384,0.14 -0.146,-0.122 c -0.229,0.356 -0.501,0.676 -0.766,1.003 l -0.464,-0.155 c -0.329,0.556 -0.702,1.089 -1.056,1.628 l -0.285,-1.727 -0.155,-0.591 c -0.103,-0.283 -0.214,-0.544 -0.348,-0.815 l -0.297,-0.505 c -0.167,-0.248 -0.34,-0.484 -0.524,-0.72 -0.653,-0.789 -1.381,-1.505 -2.056,-2.273 l -0.39,-0.478 c -0.186,-0.25 -0.356,-0.5 -0.52,-0.766 l -0.283,-0.556 -0.214,-0.598 -0.076,-0.316 -0.053,-0.33 -0.023,-0.315 0.007,-0.31 0.036,-0.3 0.063,-0.289 0.088,-0.278 0.109,-0.264 0.129,-0.252 0.309,-0.463 c 0.178,-0.215 0.356,-0.406 0.557,-0.6 l 0.412,-0.34 c 0.283,-0.203 0.565,-0.382 0.869,-0.551 0.508,-0.262 1.016,-0.475 1.571,-0.615 -0.142,-0.261 -0.34,-0.487 -0.543,-0.701 -0.393,-0.383 -0.809,-0.689 -1.279,-0.971 l -0.368,-0.2 c -0.483,-0.236 -0.957,-0.417 -1.479,-0.539 l -0.337,-0.058 c -0.366,-0.038 -0.727,-0.018 -1.094,-0.012 l -0.726,0.072 -0.667,0.13 -0.611,0.182 -0.557,0.233 -0.507,0.28 -0.46,0.325 -0.416,0.368 -0.373,0.41 -0.332,0.452 -0.294,0.491 -0.255,0.529 -0.217,0.565 -0.179,0.599 -0.143,0.63 -0.105,0.658 -0.069,0.684 -0.034,0.706 0,0.725 0.033,0.742 0.066,0.754 0.098,0.765 0.127,0.772 0.157,0.776 0.184,0.777 0.212,0.775 0.236,0.77 0.261,0.763 0.284,0.752 0.306,0.738 0.327,0.721 0.347,0.706 c 0.865,1.677 1.829,3.297 2.749,4.943 0.057,0.102 0.114,0.204 0.173,0.306 0.468,0.794 1.032,1.527 1.364,2.397 0.332,0.889 0.682,1.77 1.037,2.65 0.699,1.739 1.422,3.489 1.858,5.318 0.085,0.396 0.153,0.788 0.209,1.189 0.056,0.497 0.088,0.984 0.096,1.483 -0.003,0.495 -0.029,0.976 -0.08,1.468 -0.061,0.486 -0.144,0.959 -0.25,1.438 -0.118,0.475 -0.254,0.934 -0.414,1.396 -0.171,0.46 -0.359,0.901 -0.571,1.343 -0.231,0.455 -0.482,0.891 -0.744,1.328 l -0.328,0.498 -0.343,0.476 -0.355,0.454 -0.369,0.433 -0.381,0.411 -0.393,0.391 -0.818,0.723 -0.857,0.648 -0.892,0.579 -0.922,0.514 c -0.472,0.236 -0.944,0.454 -1.429,0.662 -0.488,0.196 -0.975,0.377 -1.471,0.549 -0.665,0.215 -1.329,0.409 -2.003,0.587 -0.84,0.208 -1.68,0.392 -2.527,0.561 -0.585,0.111 -1.165,0.207 -1.754,0.289 l -1.278,0.122 -1.297,0.054 -1.311,-0.008 c -0.662,-0.027 -1.318,-0.067 -1.978,-0.121 -0.661,-0.068 -1.316,-0.148 -1.973,-0.24 -0.653,-0.104 -1.299,-0.218 -1.947,-0.345 -0.637,-0.136 -1.268,-0.281 -1.899,-0.437 -0.613,-0.162 -1.221,-0.334 -1.828,-0.516 -0.583,-0.185 -1.161,-0.378 -1.737,-0.583 -0.546,-0.203 -1.085,-0.414 -1.623,-0.636 -0.523,-0.226 -1.036,-0.462 -1.55,-0.707 l -0.019,0.196 c -0.092,0.739 -0.165,1.468 -0.161,2.213 0.014,0.401 0.051,0.773 0.142,1.164 0.047,0.164 0.098,0.318 0.16,0.476 0.095,0.206 0.197,0.391 0.321,0.58 0.376,0.521 0.824,0.927 1.319,1.33 l 0.43,0.331 c 0.355,0.273 0.64,0.583 0.881,0.96 0.215,0.366 0.34,0.711 0.373,1.137 l -0.005,0.258 c -0.031,0.239 -0.086,0.43 -0.184,0.649 -0.069,0.128 -0.141,0.241 -0.227,0.357 -0.703,0.891 -1.367,1.809 -2.047,2.717 -0.868,1.152 -1.768,2.291 -2.831,3.269 -0.324,0.285 -0.655,0.543 -1.01,0.788 -0.369,0.241 -0.74,0.45 -1.137,0.642 -0.491,0.223 -0.979,0.4 -1.498,0.547 -0.396,0.102 -0.789,0.183 -1.192,0.249 -0.526,0.073 -1.045,0.117 -1.576,0.137 -0.543,0.011 -1.072,-0.004 -1.612,-0.06 -0.39,-0.049 -0.768,-0.117 -1.15,-0.209 -1.029,-0.268 -2.005,-0.688 -3.005,-1.043 -0.168,-0.058 -0.337,-0.118 -0.507,-0.169 -0.711,-0.175 -1.484,-0.083 -2.19,0.078 -0.303,0.075 -0.636,0.161 -0.907,0.321 l -0.688,0.551 -0.28,-0.949 -0.027,-0.202 0.002,-0.198 0.029,-0.189 0.05,-0.179 c 0.071,-0.171 0.144,-0.312 0.243,-0.468 0.182,-0.246 0.378,-0.459 0.609,-0.66 -0.678,0.1 -1.348,0.277 -1.99,0.52 -0.163,0.065 -0.323,0.133 -0.478,0.218 l -1.547,1.039 0.722,-1.851 0.101,-0.21 c 0.117,-0.202 0.236,-0.376 0.38,-0.557 l 0.301,-0.311 c 0.162,-0.139 0.323,-0.263 0.498,-0.383 0.414,-0.257 0.837,-0.457 1.298,-0.61 l -0.258,-0.024 -1.041,0.016 0.142,-0.18 -0.884,-0.162 1.577,-0.714 0.161,-0.204 0.318,-0.328 0.338,-0.284 0.356,-0.241 0.372,-0.199 0.383,-0.16 0.392,-0.122 0.399,-0.088 0.404,-0.056 0.406,-0.027 0.409,-0.002 0.816,0.062 0.808,0.132 c 0.657,0.143 1.292,0.317 1.934,0.515 0.659,0.212 1.314,0.438 1.974,0.646 0.383,0.112 0.791,0.246 1.193,0.244 l 0.203,-0.042 0.431,-0.143 0.377,-0.195 c 0.171,-0.116 0.317,-0.232 0.469,-0.374 l 0.25,-0.293 c 0.108,-0.16 0.195,-0.311 0.279,-0.486 0.068,-0.173 0.118,-0.334 0.16,-0.516 0.027,-0.176 0.04,-0.335 0.04,-0.513 -0.014,-0.169 -0.037,-0.317 -0.079,-0.482 -0.053,-0.153 -0.111,-0.282 -0.192,-0.423 -0.095,-0.136 -0.187,-0.24 -0.307,-0.353 l -0.276,-0.192 -1.652,-0.431 c -1.156,-0.125 -2.313,-0.037 -3.471,-0.009 -0.533,0.01 -1.065,0.003 -1.598,-0.007 l -1.397,-0.074 -1.363,-0.137 -1.328,-0.197 -1.296,-0.257 -1.262,-0.313 -1.23,-0.369 -1.197,-0.422 c -0.585,-0.231 -1.159,-0.473 -1.734,-0.731 -0.562,-0.267 -1.114,-0.546 -1.663,-0.84 -0.54,-0.303 -1.067,-0.616 -1.593,-0.943 -1.084,-0.707 -2.129,-1.455 -3.121,-2.29 l -1.68,1.209 -2.069,1.352 -2.096,1.243 -0.126,0.068 c 0.018,0.327 0.04,0.653 0.077,0.978 0.076,0.53 0.19,1.033 0.343,1.546 0.072,0.224 0.149,0.443 0.232,0.662 0.235,0.579 0.503,1.11 0.84,1.634 0.124,0.181 0.251,0.353 0.387,0.525 0.265,0.314 0.533,0.583 0.857,0.836 0.181,0.128 0.371,0.241 0.549,0.372 0.191,0.16 0.328,0.312 0.461,0.523 l 0.115,0.241 c 0.088,0.26 0.117,0.481 0.107,0.755 l -0.03,0.244 c -0.19,0.906 -0.789,1.685 -1.491,2.259 -0.142,0.106 -0.284,0.203 -0.435,0.297 -0.396,0.225 -0.787,0.38 -1.222,0.504 -0.824,0.213 -1.668,0.288 -2.505,0.424 -0.91,0.15 -1.821,0.279 -2.739,0.366 -1.084,0.095 -2.17,0.136 -3.25,-0.019 -0.861,-0.13 -1.719,-0.245 -2.584,-0.335 -0.596,-0.053 -1.187,-0.093 -1.785,-0.114 -0.53,-0.007 -1.051,0.002 -1.58,0.034 -0.362,0.033 -0.718,0.074 -1.077,0.129 -0.341,0.062 -0.672,0.134 -1.007,0.22 -0.326,0.095 -0.64,0.199 -0.958,0.317 -0.318,0.131 -0.624,0.269 -0.932,0.422 -0.316,0.169 -0.621,0.345 -0.927,0.534 -0.32,0.211 -0.631,0.427 -0.941,0.655 l -1.28,0.987 0.107,-1.655 c 0.036,-0.225 0.08,-0.438 0.137,-0.659 0.066,-0.213 0.139,-0.414 0.224,-0.62 0.156,-0.337 0.329,-0.642 0.536,-0.951 l 0.262,-0.353 c 0.404,-0.495 0.844,-0.938 1.329,-1.354 -0.572,0.111 -1.124,0.257 -1.676,0.44 -0.539,0.19 -1.053,0.408 -1.564,0.664 -0.434,0.228 -0.849,0.473 -1.258,0.744 l -1.225,0.84 0.244,-1.587 0.145,-0.633 0.202,-0.581 0.258,-0.528 0.312,-0.474 0.364,-0.418 0.41,-0.362 0.027,-0.018 -0.823,0.138 -1.901,0.27 -1.843,0.217 -1.779,0.168 -1.708,0.125 -1.632,0.084 -1.549,0.049 -1.459,0.017 -1.364,-0.009 -1.262,-0.033 -2.193,-0.116 -1.711,-0.156 c -0.531,-0.066 -1.053,-0.137 -1.58,-0.24 l -0.35,-0.1 -0.074,-0.065 c -0.238,1.015 -0.615,2.015 -1.162,2.904 -0.217,0.334 -0.444,0.626 -0.739,0.895 l -0.406,0.305 c -0.312,-0.07 -0.623,-0.137 -0.937,-0.196 -1.384,-0.248 -2.785,-0.378 -4.18,-0.542 -0.82,-0.066 -1.635,-0.12 -2.457,-0.151 -0.673,-0.013 -1.333,-0.007 -2.005,0.046 -0.277,0.031 -0.548,0.068 -0.823,0.117 -0.726,0.151 -1.425,0.389 -2.141,0.582 l -0.617,0.146 c -0.53,0.107 -1.057,0.19 -1.594,0.259 -0.542,0.059 -1.083,0.104 -1.627,0.142 -0.582,0.031 -1.164,0.048 -1.746,0.09 -0.467,0.012 -0.923,0.006 -1.39,-0.016 l -0.988,-0.087 c -0.694,-0.087 -1.379,-0.194 -2.068,-0.319 -0.881,-0.173 -1.753,-0.369 -2.626,-0.583 -1.769,-0.45 -3.514,-0.97 -5.26,-1.506 -0.366,-0.111 -0.731,-0.226 -1.101,-0.325 -0.155,0.018 -0.284,0.102 -0.419,0.174 -0.554,0.294 -1.157,0.512 -1.749,0.716 -1.007,0.326 -2.057,0.587 -3.122,0.53 -0.204,-0.017 -0.389,-0.047 -0.587,-0.097 -2.057,-0.523 -4.111,-1.071 -6.14,-1.695 -0.396,-0.124 -0.79,-0.263 -1.188,-0.38 l -0.394,-0.06 c -0.218,-0.006 -0.418,0.004 -0.635,0.028 l -0.446,0.089 c -0.232,0.066 -0.454,0.139 -0.679,0.224 -0.454,0.19 -0.875,0.408 -1.298,0.659 -0.591,0.368 -1.159,0.774 -1.683,1.235 l -0.695,0.633 -0.27,-0.979 c -0.058,-0.253 -0.089,-0.493 -0.098,-0.752 -0.004,-1.042 0.358,-2.028 0.805,-2.953 -0.632,0.37 -1.244,0.772 -1.872,1.15 -0.497,0.297 -1.003,0.581 -1.505,0.87 0.14,-0.638 0.26,-1.282 0.444,-1.908 0.098,-0.291 0.206,-0.564 0.336,-0.841 0.136,-0.262 0.28,-0.505 0.444,-0.749 0.172,-0.234 0.348,-0.45 0.543,-0.665 0.521,-0.536 1.1,-0.993 1.734,-1.389 -0.336,-0.002 -0.667,-0.015 -0.999,-0.066 l -1.419,-0.339 1.382,-0.943 0.779,-0.477 0.865,-0.454 0.952,-0.423 1.038,-0.381 1.125,-0.33 1.211,-0.269 1.298,-0.197 0.68,-0.069 0.703,-0.049 0.724,-0.025 0.746,-0.002 0.767,0.023 0.788,0.049 0.81,0.077 0.832,0.105 0.853,0.134 0.874,0.166 0.896,0.197 0.917,0.23 0.938,0.265 0.96,0.301 0.982,0.337 1.003,0.375 0.731,0.295 c 0.178,-0.117 0.405,-0.195 0.603,-0.27 0.367,-0.116 0.728,-0.202 1.105,-0.277 0.647,-0.11 1.288,-0.18 1.942,-0.233 0.496,-0.032 0.99,-0.054 1.486,-0.069 1.015,-0.017 2.023,-0.002 3.036,0.033 0.724,0.034 1.446,0.076 2.168,0.126 1.879,0.147 3.748,0.344 5.615,0.595 0.14,-0.528 0.325,-1.037 0.515,-1.548 0.209,-0.567 0.394,-1.133 0.434,-1.741 -0.055,0.17 -0.116,0.318 -0.212,0.469 -0.082,0.105 -0.152,0.168 -0.262,0.245 l -0.132,0.06 -0.147,0.033 -0.146,0.002 -0.186,-0.032 -0.313,-0.171 c -1.296,-0.701 -2.641,-1.384 -3.74,-2.383 -0.121,-0.116 -0.236,-0.234 -0.35,-0.358 -0.13,-0.154 -0.257,-0.311 -0.382,-0.469 -0.324,0.082 -0.646,0.167 -0.967,0.259 -0.985,0.295 -1.957,0.614 -2.956,0.859 -0.427,0.095 -0.849,0.174 -1.283,0.233 l -0.652,0.056 c -0.334,0.008 -0.653,0 -0.986,-0.024 l -0.656,-0.103 -0.649,-0.186 -0.32,-0.127 -0.315,-0.152 -0.311,-0.176 -0.303,-0.203 -0.296,-0.23 c -0.283,-0.253 -0.558,-0.513 -0.837,-0.769 -0.586,-0.527 -1.183,-1.037 -1.789,-1.541 -0.658,-0.542 -1.322,-1.078 -1.987,-1.613 -2.25,-1.813 -4.482,-3.653 -6.549,-5.679 -0.198,0.173 -0.393,0.329 -0.609,0.481 -0.205,0.127 -0.403,0.236 -0.622,0.337 -0.211,0.082 -0.411,0.145 -0.632,0.198 -0.213,0.038 -0.414,0.059 -0.63,0.069 -0.211,-0.003 -0.41,-0.017 -0.62,-0.043 l -0.403,-0.079 c -0.905,-0.237 -1.723,-0.654 -2.557,-1.069 -0.495,-0.242 -0.99,-0.452 -1.513,-0.626 -0.362,-0.112 -0.719,-0.2 -1.093,-0.265 -0.357,-0.051 -0.701,-0.074 -1.063,-0.068 -0.298,0.015 -0.58,0.048 -0.873,0.104 -0.303,0.069 -0.585,0.156 -0.875,0.266 l -2.033,0.933 c 0.67,-1.08 1.339,-2.16 2.01,-3.238 -0.604,0.051 -1.196,0.128 -1.786,0.272 -0.399,0.108 -0.767,0.243 -1.141,0.422 -0.222,0.116 -0.431,0.24 -0.641,0.379 -0.226,0.161 -0.435,0.329 -0.644,0.512 l -1.31,1.225 0.262,-1.814 c 0.029,-0.135 0.063,-0.266 0.102,-0.398 0.13,-0.375 0.297,-0.68 0.538,-0.995 0.403,-0.481 0.896,-0.863 1.437,-1.175 -0.396,0.017 -0.791,0.057 -1.185,0.102 l -2.84,0.346 3.142,-1.798 c 0.418,-0.214 0.838,-0.416 1.265,-0.611 0.449,-0.194 0.899,-0.376 1.356,-0.551 0.637,-0.228 1.273,-0.436 1.922,-0.627 0.502,-0.139 1.003,-0.266 1.509,-0.385 0.691,-0.149 1.378,-0.278 2.076,-0.388 l 1.586,-0.189 1.063,-0.073 5.538,0.408 c 0.442,0.113 0.864,0.248 1.288,0.416 0.505,0.213 0.98,0.461 1.455,0.735 0.519,0.306 1.03,0.628 1.543,0.944 1.898,1.166 3.841,2.242 5.82,3.261 1.443,0.739 2.901,1.446 4.366,2.139 -0.404,-0.914 -0.788,-1.837 -1.115,-2.783 -0.095,-0.29 -0.185,-0.58 -0.271,-0.873 -0.135,-0.494 -0.248,-0.983 -0.341,-1.487 -0.082,-0.513 -0.136,-1.014 -0.164,-1.533 -0.022,-0.87 -0.009,-1.74 0.022,-2.609 0.023,-0.53 0.056,-1.057 0.106,-1.581 -0.07,0.009 -0.14,0.019 -0.21,0.03 -2.519,0.093 -4.231,1.408 -5.549,2.601 l -1.146,-0.884 c -0.4,-0.326 -0.798,-0.652 -1.205,-0.969 l -2.286,-1.509 -1.246,-0.581 c -0.412,-0.154 -0.817,-0.28 -1.245,-0.381 -0.207,-0.043 -0.413,-0.079 -0.622,-0.109 -0.69,-0.08 -1.367,-0.068 -2.058,-0.013 -0.466,0.048 -0.918,0.118 -1.376,0.213 -0.361,0.082 -0.713,0.175 -1.067,0.282 -0.622,0.202 -1.216,0.436 -1.812,0.706 -0.255,0.121 -0.508,0.246 -0.759,0.375 -1.62,0.857 -3.139,1.899 -4.681,2.883 l -1.042,-1.429 c -0.229,-0.432 -0.452,-0.867 -0.698,-1.289 -0.268,-0.437 -0.554,-0.84 -0.88,-1.234 -0.194,-0.223 -0.392,-0.434 -0.602,-0.641 -0.339,-0.316 -0.686,-0.597 -1.063,-0.864 -0.272,-0.182 -0.544,-0.348 -0.829,-0.507 -0.473,-0.249 -0.947,-0.457 -1.447,-0.644 -0.309,-0.107 -0.62,-0.207 -0.93,-0.31 -0.363,-0.141 -0.703,-0.291 -1.05,-0.466 l -0.608,-0.37 -0.538,-0.41 -0.473,-0.444 c -0.213,-0.233 -0.407,-0.465 -0.597,-0.717 -0.172,-0.247 -0.329,-0.495 -0.481,-0.755 -0.183,-0.34 -0.345,-0.68 -0.497,-1.034 -0.296,-0.732 -0.533,-1.479 -0.778,-2.23 -0.142,-0.426 -0.298,-0.847 -0.451,-1.269 2.065,-0.399 4.125,-0.81 6.177,-1.271 0.945,-0.214 1.885,-0.441 2.825,-0.674 0.057,-0.109 0.113,-0.219 0.17,-0.328 l 0.003,-0.439 c 0.024,-0.353 0.062,-0.693 0.12,-1.042 0.063,-0.302 0.136,-0.591 0.226,-0.885 0.27,-0.801 0.636,-1.561 0.926,-2.353 0.109,-0.317 0.206,-0.632 0.294,-0.954 0.099,-0.396 0.18,-0.789 0.251,-1.19 0.047,-0.308 0.103,-0.617 0.111,-0.929 -0.012,-0.599 -0.111,-1.195 -0.204,-1.786 -0.097,-0.592 -0.199,-1.183 -0.293,-1.775 -0.134,-0.875 -0.291,-1.802 -0.173,-2.686 l 0.039,-0.181 0.199,-0.608 0.08,0.017 c 0.074,-0.099 0.153,-0.187 0.246,-0.28 0.218,-0.195 0.449,-0.364 0.685,-0.533 1.067,-0.766 2.079,-1.61 3.081,-2.46 0.944,-0.81 1.862,-1.64 2.756,-2.506 0.711,-0.701 1.398,-1.417 2.066,-2.16 0.482,-0.548 0.949,-1.104 1.406,-1.674 0.71,-0.91 1.371,-1.855 2.062,-2.779 0.568,-0.755 1.138,-1.506 1.669,-2.288 0.356,-0.533 0.706,-1.08 1.006,-1.646 0.27,-0.573 0.391,-1.197 0.551,-1.806 0.106,-0.384 0.225,-0.75 0.376,-1.119 0.123,-0.271 0.255,-0.523 0.409,-0.778 0.135,-0.203 0.274,-0.392 0.426,-0.582 0.177,-0.199 0.356,-0.382 0.55,-0.564 0.457,-0.392 0.953,-0.75 1.479,-1.042 0.131,-0.066 0.259,-0.122 0.396,-0.174 0.251,-0.078 0.47,-0.114 0.732,-0.123 0.284,0.007 0.546,0.044 0.824,0.1 0.832,0.193 1.642,0.478 2.449,0.749 0.363,0.122 0.726,0.244 1.088,0.366 0.26,0.077 0.491,0.111 0.76,0.123 l 0.342,-0.01 c 0.611,-0.059 1.169,-0.215 1.745,-0.424 l 0.414,-0.166 c 0.84,-0.368 1.631,-0.808 2.399,-1.301 -1.302,-0.825 -2.63,-1.607 -3.912,-2.462 -0.541,-0.367 -1.067,-0.747 -1.579,-1.153 -0.51,-0.417 -0.987,-0.849 -1.445,-1.321 -0.6,-0.646 -1.148,-1.336 -1.69,-2.03 -1.036,-1.345 -2.036,-2.716 -3.112,-4.029 -0.465,-0.553 -0.939,-1.09 -1.436,-1.614 -0.412,-0.419 -0.831,-0.821 -1.268,-1.213 -0.341,-0.292 -0.685,-0.573 -1.04,-0.848 -0.375,-0.274 -0.752,-0.535 -1.141,-0.788 -0.236,-0.156 -0.439,-0.36 -0.686,-0.499 -0.222,-0.116 -0.344,-0.1 -0.57,0.013 -0.378,0.213 -0.686,0.538 -0.975,0.857 -0.555,0.629 -1.053,1.307 -1.55,1.982 -0.331,0.457 -0.636,0.916 -0.911,1.41 -0.146,0.278 -0.277,0.555 -0.401,0.844 -0.167,0.422 -0.304,0.84 -0.423,1.278 -0.103,0.42 -0.187,0.835 -0.257,1.26 -0.053,0.371 -0.097,0.74 -0.133,1.113 -0.056,0.745 -0.079,1.481 -0.079,2.227 0.006,0.384 0.013,0.767 0.03,1.15 0.027,0.507 0.063,0.993 -0.017,1.498 -0.029,0.14 -0.064,0.27 -0.109,0.405 -0.099,0.248 -0.212,0.441 -0.377,0.65 -0.113,0.126 -0.226,0.233 -0.356,0.342 -0.147,0.108 -0.292,0.2 -0.451,0.29 -0.318,0.159 -0.628,0.275 -0.967,0.377 -0.188,0.058 -0.334,0.129 -0.486,0.254 -0.403,0.365 -0.557,0.936 -0.66,1.453 l 0.205,0.44 c 0.171,0.256 0.344,0.495 0.465,0.781 0.225,0.602 0.394,1.232 0.487,1.868 0.045,0.337 0.067,0.67 0.066,1.009 0.003,0.203 0.05,0.346 0.148,0.521 0.108,0.183 0.236,0.352 0.358,0.526 0.22,0.316 0.395,0.627 0.527,0.992 l 0.111,0.346 c -0.195,0.326 -0.39,0.648 -0.599,0.964 -0.28,0.404 -0.572,0.788 -0.885,1.166 -0.381,0.443 -0.776,0.861 -1.196,1.268 -0.426,0.401 -0.863,0.781 -1.317,1.15 -0.852,0.678 -1.736,1.3 -2.644,1.9 l -1.094,0.715 c -0.004,-0.628 -0.001,-1.254 -0.032,-1.881 -0.096,-1.552 -0.385,-3.081 -0.515,-4.63 -0.033,-0.454 -0.053,-0.905 -0.057,-1.36 -0.007,-0.174 -0.005,-0.348 0.001,-0.521 0.044,-0.925 0.221,-1.839 0.372,-2.751 0.175,-1.075 0.377,-2.191 0.28,-3.284 -0.04,-0.335 -0.108,-0.644 -0.21,-0.966 -0.089,-0.253 -0.191,-0.492 -0.307,-0.734 -0.12,-0.257 -0.211,-0.5 -0.272,-0.778 l -0.033,-0.256 c -0.014,-0.35 0.037,-0.632 0.164,-0.957 0.259,-0.582 0.674,-1.076 1.058,-1.579 0.288,-0.382 0.602,-0.737 0.911,-1.102 0.251,-0.3 0.485,-0.604 0.696,-0.934 0.281,-0.459 0.494,-0.955 0.725,-1.442 0.696,-1.483 1.371,-2.972 1.998,-4.488 0.367,-0.908 0.713,-1.821 1.038,-2.746 0.264,-0.781 0.51,-1.564 0.737,-2.357 0.222,-0.812 0.42,-1.623 0.596,-2.447 0.138,-0.687 0.258,-1.371 0.364,-2.064 l 0.076,-0.301 c 0.134,-0.442 0.303,-0.816 0.623,-1.154 0.174,-0.163 0.342,-0.277 0.56,-0.373 0.265,-0.101 0.518,-0.14 0.8,-0.156 1.319,-0.061 2.633,-0.183 3.95,-0.265 0.715,-0.041 1.425,-0.065 2.139,-0.009 0.273,0.031 0.496,0.097 0.735,0.235 0.229,0.149 0.398,0.327 0.572,0.537 0.171,0.211 0.334,0.415 0.536,0.597 0.207,0.176 0.411,0.354 0.617,0.532 0.534,0.453 1.077,0.888 1.64,1.305 0.693,0.502 1.399,0.963 2.138,1.393 0.663,0.374 1.334,0.713 2.027,1.027 0.547,0.24 1.098,0.462 1.657,0.672 l 0.735,0.277 c 2.78,1.08 5.484,2.338 8.139,3.696 l -0.223,-4.259 0.049,-0.066 -0.342,-0.011 1.093,-2.2 0.592,-1.984 c 0.26,-0.786 0.532,-1.564 0.817,-2.342 0.294,-0.763 0.598,-1.52 0.913,-2.276 0.428,-0.992 0.872,-1.972 1.333,-2.95 0.349,-0.723 0.704,-1.443 1.065,-2.162 2.066,-4.053 4.323,-8.009 6.265,-12.125 l -0.623,-0.069 -1.003,-0.25 -0.023,0.041 -0.192,-0.107 -0.259,-0.079 0.028,-0.049 c -0.22,-0.123 -0.414,-0.246 -0.609,-0.405 -0.285,-0.254 -0.506,-0.527 -0.684,-0.867 l -0.11,0.113 -0.132,-0.661 -0.028,-0.068 0.012,-0.012 -0.066,-0.336 c -0.113,-0.606 -0.114,-1.226 -0.069,-1.839 -0.356,0.067 -0.715,0.09 -1.077,0.093 -1.006,-0.021 -2.088,-0.248 -2.853,-0.952 -0.274,0.166 -0.541,0.338 -0.807,0.517 -0.595,0.402 -1.181,0.8 -1.84,1.092 -0.288,0.121 -0.56,0.207 -0.872,0.239 -0.296,0.015 -0.522,-0.023 -0.785,-0.167 l -0.176,-0.135 c -0.158,-0.171 -0.247,-0.329 -0.308,-0.554 l -1.431,0.018 c -0.308,0.285 -0.651,0.391 -1.059,0.45 l -0.215,0.021 c -0.954,0.07 -1.901,-0.03 -2.855,-0.01 -0.175,0.006 -0.35,0.016 -0.525,0.026 -0.137,-0.127 -0.273,-0.255 -0.407,-0.386 -0.66,-0.664 -1.216,-1.422 -1.89,-2.071 -0.141,-0.053 -0.278,-0.111 -0.414,-0.174 -0.398,-0.203 -0.708,-0.434 -0.957,-0.811 l -0.101,-0.187 c -0.106,-0.243 -0.159,-0.467 -0.185,-0.73 -0.015,-0.287 0,-0.562 0.055,-0.845 0.244,-1.217 0.563,-2.418 0.8,-3.636 0.05,-0.188 0.106,-0.374 0.16,-0.561 l 0.097,0 0.695,-2.531 0.108,-0.004 1.059,-3.22 c 0.203,-0.668 0.396,-1.338 0.577,-2.012 0.438,-1.668 0.79,-3.349 1.031,-5.055 l -0.065,-0.301 c -0.089,-0.339 -0.201,-0.666 -0.26,-1.014 l -0.157,-1.694 0.006,-0.111 c 0.022,-0.213 0.061,-0.393 0.136,-0.593 l 1.027,-4.812 c -0.714,-0.288 -1.346,-0.719 -1.94,-1.207 -0.498,-0.422 -0.969,-0.875 -1.458,-1.308 l -1.128,-0.964 c 0.681,-0.156 1.363,-0.307 2.039,-0.481 0.975,-0.258 1.931,-0.562 2.858,-0.959 0.581,-0.249 1.138,-0.537 1.678,-0.867 -0.085,-0.197 -0.164,-0.395 -0.241,-0.595 -0.17,-0.47 -0.306,-0.956 -0.55,-1.395 -0.126,-0.212 -0.251,-0.362 -0.466,-0.486 -0.414,-0.225 -0.874,-0.368 -1.338,-0.442 -0.556,-0.076 -1.094,-0.046 -1.648,0.031 l -2.074,0.34 1.445,-1.332 c 0.245,-0.215 0.496,-0.395 0.777,-0.558 0.585,-0.316 1.227,-0.506 1.892,-0.526 -0.458,-0.194 -0.944,-0.316 -1.428,-0.429 l -1.736,-0.406 c 0.9,-0.393 1.792,-0.817 2.723,-1.133 0.423,-0.134 0.84,-0.24 1.276,-0.32 0.462,-0.072 0.908,-0.105 1.375,-0.101 0.282,0.01 0.555,0.032 0.834,0.067 0.504,0.078 0.985,0.192 1.468,0.354 -0.099,-0.074 -0.2,-0.144 -0.303,-0.212 l -1.315,-0.8 1.519,-0.376 c 0.298,-0.061 0.583,-0.102 0.887,-0.122 0.211,-0.004 0.412,0.002 0.621,0.02 0.336,0.046 0.635,0.119 0.954,0.23 0.181,0.073 0.353,0.15 0.527,0.236 0.922,0.502 1.712,1.199 2.523,1.859 0.338,0.272 0.683,0.532 0.921,0.902 0.272,-0.468 0.556,-0.922 0.854,-1.373 l 0.758,-1.051 c 0.27,-0.342 0.545,-0.674 0.832,-1.003 l 1.098,-1.152 c 0.361,0.632 0.719,1.261 1.056,1.905 0.007,0.013 0.013,0.025 0.019,0.038 0.663,-0.377 1.336,-0.739 2.074,-0.945 0.275,-0.071 0.549,-0.119 0.832,-0.148 1.104,-0.094 2.215,0.161 3.223,0.606 0.135,0.062 0.268,0.126 0.4,0.191 0.798,0.404 1.572,0.887 2.438,1.132 0.441,0.109 0.894,0.146 1.347,0.168 1.492,0.05 2.972,-0.165 4.46,-0.249 l 1.409,-0.069 -0.91,1.126 c -0.17,0.189 -0.352,0.361 -0.545,0.517 l 0.129,0.073 c 0.762,0.422 1.535,0.826 2.321,1.2 l -0.216,-6.191 -1.494,0.088 c -0.176,0.001 -0.337,-0.008 -0.511,-0.032 -0.16,-0.035 -0.298,-0.077 -0.45,-0.137 -0.137,-0.07 -0.25,-0.14 -0.372,-0.234 -0.108,-0.099 -0.191,-0.192 -0.277,-0.31 -0.072,-0.12 -0.123,-0.227 -0.17,-0.358 -0.034,-0.13 -0.052,-0.244 -0.061,-0.379 0.004,-0.134 0.018,-0.246 0.048,-0.376 0.086,-0.255 0.196,-0.44 0.405,-0.61 l -0.184,-0.02 -0.225,-0.081 -0.193,-0.119 -0.16,-0.145 -0.131,-0.164 -0.102,-0.179 -0.075,-0.191 -0.047,-0.204 -0.013,-0.215 0.026,-0.223 0.076,-0.226 0.074,-0.117 0.341,-0.372 c -0.091,-0.092 -0.155,-0.216 -0.212,-0.331 -0.138,-0.344 -0.171,-0.658 -0.131,-1.026 l 0.047,-0.23 c 0.119,-0.376 0.321,-0.697 0.71,-0.831 -0.173,-0.234 -0.212,-0.549 -0.198,-0.831 l 0.03,-0.196 c 0.073,-0.289 0.182,-0.499 0.393,-0.71 l 0.189,-0.137 c 0.126,-0.059 0.224,-0.091 0.36,-0.115 l 1.407,0.036 0.259,0.031 c 0.122,0.033 0.223,0.069 0.333,0.123 l -0.403,-11.538 -0.014,-0.905 -2.24,-0.962 0,-2.359 2.205,0.947 -0.04,-2.603 -4.611,0 0,-2.261 4.577,0 -0.021,-1.406 -3.255,0 0,-2.262 3.22,0 -0.053,-3.561 2.611,0 0.054,3.561 2.765,0 0,2.262 -2.731,0 0.022,1.406 4.011,0 0,2.261 -3.977,0 0.056,3.732 2.515,1.08 0,2.358 -2.474,-1.062 0.368,10.522 0.361,-0.027 0.397,0.041 0.401,0.112 c 0.631,0.254 1.213,0.628 1.748,1.047 l 0.353,0.314 c 0.159,0.162 0.304,0.324 0.447,0.5 0.129,0.175 0.245,0.348 0.356,0.535 0.1,0.186 0.188,0.37 0.272,0.565 0.074,0.197 0.14,0.392 0.2,0.595 0.226,0.853 0.315,1.721 0.402,2.598 1.263,2.266 2.819,4.356 4.402,6.404 1.981,2.539 4.05,5.006 6.076,7.509 3.332,-2.134 6.939,-3.556 11.536,-6.555 l -0.008,0.039 1.521,-0.395 1.351,-0.028 c 0.124,-0.057 0.227,-0.136 0.312,-0.233 z m -29.497,137.011 0.066,-0.466 0.037,-0.459 0.007,-0.451 -0.02,-0.445 -0.046,-0.441 -0.072,-0.436 -0.095,-0.432 -0.259,-0.857 -0.339,-0.849 -0.413,-0.844 c -0.234,-0.428 -0.476,-0.845 -0.731,-1.262 -0.836,-1.314 -1.752,-2.569 -2.646,-3.844 -0.407,-0.59 -0.805,-1.184 -1.19,-1.789 l -0.76,-1.279 0.697,-0.743 c 1.476,-1.548 3.015,-3.018 4.653,-4.393 0.621,-0.514 1.251,-1.011 1.897,-1.494 l 0.481,-0.354 -0.647,-18.549 c -0.93,-0.215 -1.859,-0.433 -2.784,-0.669 l -3.039,-0.845 c -0.04,0.218 -0.082,0.435 -0.128,0.653 -0.027,0.119 -0.055,0.237 -0.084,0.355 0.006,0 0.012,0 0.018,0 l -0.108,0.364 c -0.066,0.252 -0.133,0.504 -0.202,0.757 -0.009,10e-4 -0.017,10e-4 -0.026,10e-4 l -0.107,0.36 c -0.112,0.472 -0.197,0.943 -0.355,1.402 -0.082,0.207 -0.171,0.39 -0.285,0.58 -0.103,0.147 -0.206,0.274 -0.329,0.405 -0.142,0.131 -0.28,0.239 -0.44,0.348 -0.183,0.106 -0.359,0.193 -0.553,0.275 -0.224,0.08 -0.442,0.143 -0.673,0.2 -0.27,0.055 -0.536,0.096 -0.809,0.13 -0.806,0.073 -1.614,0.074 -2.423,0.09 -2.13,0.033 -4.257,0.039 -6.386,0.003 l -4.894,-0.184 c -1.654,-0.1 -3.301,-0.229 -4.95,-0.389 -1.46,-0.152 -2.915,-0.327 -4.369,-0.526 -1.019,-0.146 -2.042,-0.321 -3.072,-0.353 -0.418,-0.003 -0.814,0.022 -1.226,0.092 -0.233,0.048 -0.454,0.106 -0.68,0.178 -0.311,0.11 -0.6,0.239 -0.893,0.389 -0.387,0.213 -0.748,0.448 -1.109,0.703 -1.274,0.882 -2.64,1.616 -4.033,2.289 l -0.583,0.281 c -0.647,0.314 -1.307,0.623 -1.891,1.047 -0.224,0.177 -0.403,0.354 -0.577,0.58 -0.372,0.534 -0.608,1.141 -0.846,1.744 -0.188,0.487 -0.372,0.975 -0.554,1.464 -1.146,3.108 -2.066,6.289 -3.018,9.46 l -0.219,0.673 c -0.136,0.369 -0.28,0.719 -0.453,1.072 -0.116,0.21 -0.235,0.404 -0.373,0.6 -0.134,0.166 -0.265,0.307 -0.421,0.451 -0.155,0.121 -0.3,0.215 -0.472,0.308 -0.221,0.097 -0.423,0.16 -0.657,0.211 -0.217,0.035 -0.429,0.057 -0.647,0.074 -0.55,0.034 -1.129,0.047 -1.664,0.191 -0.64,0.199 -1.039,0.732 -1.347,1.302 l -0.06,0.121 c -0.034,0.162 -0.059,0.325 -0.051,0.491 0.027,0.221 0.095,0.376 0.223,0.558 0.298,0.378 0.706,0.651 1.096,0.925 0.584,0.412 1.142,0.857 1.703,1.3 0.289,-0.112 0.577,-0.226 0.864,-0.341 1.81,-0.736 3.581,-1.54 5.322,-2.427 1.226,-0.633 2.427,-1.301 3.611,-2.011 l 10.105,-5.622 3.714,-1.567 2.675,-1.026 c 0.78,-0.269 1.56,-0.514 2.356,-0.733 0.479,-0.121 0.956,-0.231 1.44,-0.33 l 0.961,-0.157 c 0.481,-0.057 0.952,-0.096 1.435,-0.12 l 0.946,0.011 0.468,0.037 0.464,0.058 0.459,0.082 0.454,0.105 c 0.401,0.119 0.792,0.246 1.176,0.412 0.613,0.267 1.186,0.594 1.71,1.011 l 0.37,0.308 c -0.121,0.576 -0.24,1.151 -0.354,1.727 -0.403,2.112 -0.725,4.229 -0.989,6.362 -0.178,1.476 -0.331,2.954 -0.469,4.434 -0.066,0.726 -0.13,1.452 -0.192,2.178 0.16,0.028 0.321,0.058 0.482,0.09 0.71,0.151 1.397,0.339 2.086,0.57 0.43,0.153 0.85,0.318 1.269,0.499 0.419,0.19 0.825,0.391 1.23,0.607 0.402,0.226 0.79,0.461 1.176,0.712 0.38,0.26 0.746,0.528 1.108,0.813 0.355,0.292 0.694,0.592 1.026,0.91 0.325,0.324 0.631,0.654 0.929,1.003 0.29,0.356 0.559,0.716 0.819,1.095 0.23,0.358 0.443,0.717 0.65,1.09 0.198,0.383 0.383,0.766 0.561,1.159 0.227,0.536 0.433,1.072 0.625,1.622 0.184,0.555 0.35,1.111 0.507,1.674 0.325,1.244 0.585,2.493 0.812,3.759 0.174,1.004 0.331,2.011 0.488,3.018 l 0.737,-0.346 0.456,-0.295 0.414,-0.362 0.371,-0.425 0.331,-0.485 c 0.154,-0.271 0.288,-0.538 0.416,-0.824 0.121,-0.305 0.225,-0.606 0.321,-0.92 0.087,-0.329 0.16,-0.654 0.224,-0.989 0.054,-0.344 0.097,-0.684 0.13,-1.031 0.022,-0.349 0.034,-0.693 0.037,-1.044 -0.011,-0.459 -0.039,-0.907 -0.088,-1.365 -0.045,-0.325 -0.098,-0.644 -0.163,-0.967 l -0.462,-1.976 0.932,0.808 0.18,-0.865 z m 2.938,-132.71 c 0.034,0.076 0.068,0.151 0.102,0.227 0.027,0.058 0.053,0.115 0.079,0.173 0.024,0.05 0.047,0.101 0.07,0.152 -1.101,-0.236 -2.17,-0.566 -3.228,-0.949 l -0.243,-6.961 c 0.031,0.003 0.061,0.006 0.092,0.009 1.02,2.459 2.031,4.924 3.128,7.349 z m 21.533,12.861 c 0.144,2.481 0.212,5.208 0.359,7.689 l 0.06,1.023 c -2.012,0.828 -4.037,1.62 -6.066,2.404 -0.109,-0.202 -0.214,-0.404 -0.313,-0.611 -0.726,-1.586 -1.151,-3.293 -1.631,-4.964 l 0.239,-0.08 0.104,-0.246 0.307,0.07 0.306,-0.155 c 0.681,-0.362 1.273,-0.822 1.81,-1.377 l 0.725,-0.767 c -0.578,-0.131 -1.157,-0.259 -1.732,-0.403 -0.783,-0.207 -1.529,-0.449 -2.262,-0.796 -0.234,-0.117 -0.461,-0.241 -0.686,-0.374 -0.756,-0.467 -1.432,-1.017 -2.097,-1.605 0.02,0.004 0.04,0.008 0.06,0.011 0.001,0.001 0.003,0.001 0.004,0.002 0.025,0.004 0.05,0.008 0.074,0.013 0.013,0.002 0.025,0.004 0.038,0.006 3.65,0.961 7.7,0.2 10.701,0.16 z m -18.338,81.506 -1.321,-0.217 -0.017,0.06 -1.543,-0.317 0.57,16.316 c 0.231,-0.136 0.463,-0.269 0.698,-0.401 0.68,-0.368 1.365,-0.708 2.071,-1.024 0.578,-0.247 1.157,-0.471 1.751,-0.677 0.47,-0.152 0.938,-0.289 1.415,-0.413 0.474,-0.112 0.945,-0.208 1.425,-0.288 0.478,-0.069 0.949,-0.12 1.43,-0.154 0.481,-0.022 0.952,-0.025 1.433,-0.009 0.977,0.058 1.949,0.186 2.92,0.301 l 2.168,0.284 10.468,1.544 2.054,0.247 3.078,0.277 2.059,0.104 2.069,0.026 1.041,-0.02 1.046,-0.044 1.051,-0.069 1.057,-0.097 1.064,-0.124 c 1.743,-0.252 3.466,-0.598 5.203,-0.891 -0.771,1.405 -1.664,2.227 -2.616,3.461 l -0.456,0.694 -0.381,0.694 -0.31,0.694 -0.243,0.696 -0.179,0.699 c -0.067,0.353 -0.117,0.697 -0.155,1.055 -0.023,0.358 -0.033,0.706 -0.028,1.065 0.017,0.363 0.047,0.717 0.089,1.077 0.055,0.369 0.121,0.728 0.199,1.092 0.173,0.711 0.391,1.405 0.6,2.106 -1.848,-0.184 -3.603,-0.179 -5.263,0.015 -0.349,-0.002 -0.687,0.009 -1.034,0.035 -0.32,0.038 -0.628,0.086 -0.943,0.151 -0.295,0.074 -0.574,0.159 -0.861,0.259 -0.271,0.109 -0.527,0.226 -0.787,0.36 -0.251,0.144 -0.486,0.292 -0.723,0.457 -2.256,1.716 -3.278,3.8 -2.965,6.795 -2.652,-0.463 -5.463,-2.304 -9.019,0.225 -0.227,0.176 -0.44,0.356 -0.653,0.551 -0.205,0.205 -0.396,0.412 -0.585,0.634 -0.185,0.237 -0.357,0.474 -0.524,0.726 -0.166,0.271 -0.32,0.542 -0.467,0.824 -0.148,0.308 -0.284,0.615 -0.414,0.931 -0.131,0.345 -0.25,0.689 -0.363,1.042 l -0.072,0.244 c 0.117,0.022 0.233,0.046 0.351,0.073 0.294,0.079 0.574,0.169 0.86,0.271 0.285,0.113 0.562,0.232 0.839,0.363 0.255,0.13 0.5,0.267 0.745,0.416 0.224,0.147 0.436,0.299 0.649,0.464 0.193,0.162 0.374,0.327 0.553,0.506 0.162,0.176 0.311,0.353 0.456,0.543 0.131,0.188 0.247,0.374 0.359,0.573 0.082,0.167 0.154,0.329 0.22,0.499 l 0.127,-0.08 0.118,-0.05 c 0.918,-0.303 1.838,-0.593 2.765,-0.867 1.063,-0.306 2.128,-0.588 3.204,-0.842 1.075,-0.243 2.148,-0.456 3.235,-0.636 0.05,-0.007 0.099,-0.015 0.15,-0.023 1.795,-1.234 3.591,-2.467 5.386,-3.701 2.446,-1.786 4.922,-3.532 7.339,-5.359 0.617,-0.475 1.226,-0.955 1.831,-1.445 l 1.107,-0.942 c 0.504,-0.455 0.993,-0.916 1.474,-1.396 l 0.852,-0.928 0.384,-0.466 0.356,-0.467 0.328,-0.471 0.298,-0.473 0.268,-0.478 0.238,-0.483 0.209,-0.49 0.176,-0.496 0.147,-0.506 0.115,-0.515 c 0.063,-0.4 0.115,-0.792 0.143,-1.196 0.045,-0.566 0.135,-1.119 0.217,-1.678 0.04,-0.284 0.084,-0.58 0.041,-0.865 -0.019,-0.102 -0.103,-0.174 -0.173,-0.243 -0.205,-0.188 -0.429,-0.35 -0.635,-0.535 -1.014,-0.956 -2.015,-1.922 -3.006,-2.902 -1.359,-1.36 -2.69,-2.741 -3.999,-4.151 -0.913,-0.997 -1.813,-2.003 -2.701,-3.023 -1.213,-1.411 -2.395,-2.842 -3.551,-4.3 -0.803,-1.027 -1.59,-2.062 -2.364,-3.111 -0.586,-0.804 -1.161,-1.616 -1.735,-2.429 -0.469,0.106 -0.94,0.208 -1.412,0.309 -1.005,0.2 -2.011,0.386 -3.022,0.56 -1.024,0.164 -2.047,0.315 -3.075,0.455 -1.054,0.131 -2.109,0.252 -3.166,0.361 -1.099,0.105 -2.197,0.198 -3.298,0.283 -1.556,0.108 -3.112,0.199 -4.671,0.277 l -1.641,0.073 c -0.31,0.341 -0.619,0.683 -0.931,1.021 -0.114,0.122 -0.229,0.24 -0.346,0.357 0.021,0.02 0.042,0.041 0.063,0.062 -0.131,0.084 -0.259,0.173 -0.39,0.259 -0.041,0.041 -0.083,0.082 -0.125,0.122 -0.008,-0.009 -0.016,-0.017 -0.024,-0.026 -0.14,0.087 -0.284,0.166 -0.435,0.23 -0.329,0.123 -0.649,0.161 -0.997,0.17 -0.185,0.003 -0.371,0 -0.556,-0.007 -1.513,-0.054 -3.02,-0.168 -4.52,-0.381 -1.007,-0.151 -1.997,-0.348 -2.982,-0.612 -0.339,-0.095 -0.675,-0.195 -1.011,-0.304 -0.493,-0.08 -1.018,-0.156 -1.467,-0.389 l -0.118,-0.081 -0.12,-0.117 -0.108,-0.177 -0.048,-0.235 0.041,-0.226 0.091,-0.168 c 0.093,-0.105 0.168,-0.174 0.284,-0.251 0.376,-0.212 0.797,-0.318 1.203,-0.456 0.127,-0.078 0.257,-0.15 0.368,-0.266 z m -30.441,-61.526 c 1.386,1.481 2.792,2.969 4.427,4.177 0.464,0.333 0.936,0.635 1.436,0.911 0.512,0.272 1.029,0.505 1.57,0.714 0.23,0.084 0.461,0.163 0.694,0.237 0.197,-0.609 0.389,-1.219 0.568,-1.836 0.526,-1.841 0.983,-3.718 1.179,-5.627 0.046,-0.524 0.062,-1.031 0.042,-1.556 l -0.029,-0.447 c -0.175,-1.839 -0.698,-3.603 -1.172,-5.379 -0.254,0.255 -0.518,0.496 -0.8,0.729 -0.17,0.134 -0.341,0.265 -0.516,0.392 -1.027,0.725 -2.14,1.311 -3.185,2.011 -0.189,0.13 -0.376,0.262 -0.562,0.397 l -4.089,3.033 c 0.028,0.038 0.054,0.079 0.081,0.125 0.048,0.121 0.075,0.219 0.091,0.349 l 0.01,0.153 c 0.03,0.486 0.029,0.959 -0.246,1.343 l 0.085,0.006 0.176,0.068 c 0.092,0.064 0.164,0.12 0.24,0.2 z" style="fill:#2c2c2b;stroke:none"/><path inkscape:connector-curvature="0" id="path26" d="m 287.138,424.214 c -10e-4,10e-4 -0.002,0.002 -0.003,0.003 0.001,-10e-4 0.002,-0.002 0.003,-0.003 z" style="fill:#f5f6f6;stroke:none"/><path inkscape:connector-curvature="0" id="path28" d="m 287.389,423.954 c -0.004,0.004 -0.008,0.008 -0.012,0.012 0.004,-0.004 0.008,-0.008 0.012,-0.012 z" style="fill:#f5f6f6;stroke:none"/><path inkscape:connector-curvature="0" id="path30" d="m 287.435,423.906 c -0.002,0.002 -0.004,0.004 -0.006,0.006 0.002,-0.002 0.004,-0.004 0.006,-0.006 z" style="fill:#f5f6f6;stroke:none"/><path inkscape:connector-curvature="0" id="path32" d="m 286.751,419.55 c 1.037,0.811 2.112,1.313 3.179,1.783 -0.794,0.83 -1.6,1.649 -2.399,2.474 -0.025,0.025 -0.05,0.052 -0.075,0.078 -0.302,-1.332 -0.614,-2.658 -0.937,-3.976 0.078,-0.12 0.155,-0.239 0.232,-0.359 z" style="fill:#f5f6f6;stroke:none"/><path inkscape:connector-curvature="0" id="path34" d="m 290.178,417.704 c -0.131,0.728 -0.262,1.455 -0.393,2.183 0.89,-1.039 1.842,-2.079 2.789,-3.118 -0.861,0.228 -1.701,0.484 -2.396,0.935 z" style="fill:#f5f6f6;stroke:none"/><path inkscape:connector-curvature="0" id="path36" d="m 288.773,418.183 c -0.214,0.512 -0.427,1.025 -0.64,1.538 0.123,0.423 0.584,0.555 1.094,0.644 0.104,-0.831 0.207,-1.663 0.31,-2.494 -0.255,0.103 -0.51,0.207 -0.764,0.312 z" style="fill:#f5f6f6;stroke:none"/><path inkscape:connector-curvature="0" id="path38" d="m 291.552,412.69 0.478,2.361 0.895,-0.32 -1.373,-2.041 z" style="fill:#f5f6f6;stroke:none"/><path inkscape:connector-curvature="0" id="path40" d="m 289.651,410.395 1.107,5.156 0.735,-0.26 -1.025,-4.951 c -0.272,0.019 -0.544,0.037 -0.817,0.055 z" style="fill:#f5f6f6;stroke:none"/><path inkscape:connector-curvature="0" id="path42" d="m 285.843,417.216 c 1.46,-0.343 2.906,-0.745 4.282,-1.422 -0.342,-1.778 -0.662,-3.551 -1.121,-5.359 -1.655,0.101 -3.311,0.183 -4.968,0.255 0,0 0,0 0,0 0.002,0.006 0.003,0.012 0.005,0.018 0.017,0.059 0.035,0.118 0.053,0.177 0,0.002 0.001,0.005 0.002,0.007 0,0 0,0 0,0 10e-4,0.002 10e-4,0.005 0.002,0.008 0.019,0.065 0.038,0.129 0.057,0.194 0,0 0,0 0,0 0.02,0.068 0.04,0.134 0.06,0.202 0,0 0,0 0,0 0.019,0.067 0.039,0.135 0.059,0.202 0,0 0,0 0,0.001 0.01,0.033 0.019,0.067 0.029,0.1 0.004,0.013 0.008,0.026 0.012,0.039 0.012,0.041 0.023,0.081 0.035,0.121 0.004,0.014 0.008,0.028 0.012,0.042 0.01,0.034 0.02,0.068 0.029,0.102 10e-4,0 10e-4,10e-4 10e-4,10e-4 0.009,0.033 0.019,0.067 0.029,0.1 0.01,0.034 0.019,0.067 0.029,0.101 0,10e-4 0,10e-4 0.001,0.002 0.002,0.007 0.003,0.013 0.005,0.02 0.015,0.051 0.029,0.102 0.044,0.153 0.003,0.009 0.005,0.019 0.008,0.028 0,0.001 0.001,0.001 0.001,0.002 0.009,0.033 0.019,0.066 0.028,0.1 0.017,0.058 0.033,0.115 0.05,0.173 0.003,0.01 0.006,0.02 0.008,0.029 0.01,0.035 0.02,0.068 0.029,0.102 0,10e-4 0,10e-4 10e-4,0.002 0.009,0.033 0.018,0.067 0.028,0.1 0.01,0.033 0.019,0.068 0.029,0.101 0,0.001 0,0.001 0,0.002 0.01,0.033 0.019,0.067 0.028,0.1 0.01,0.034 0.019,0.068 0.029,0.102 0,0 0.001,0.001 0.001,0.002 0.009,0.033 0.018,0.066 0.028,0.1 0.002,0.008 0.005,0.017 0.007,0.026 0.052,0.182 0.102,0.365 0.153,0.547 0.007,0.026 0.014,0.052 0.021,0.077 0.051,0.183 0.101,0.366 0.151,0.549 0.003,0.008 0.005,0.016 0.007,0.024 0.009,0.034 0.019,0.068 0.028,0.102 0,10e-4 0,0.002 0.001,0.003 0.009,0.033 0.018,0.066 0.027,0.099 0.009,0.034 0.018,0.068 0.027,0.102 10e-4,0.002 10e-4,0.003 0.002,0.004 0.008,0.033 0.017,0.066 0.026,0.098 0.003,0.01 0.006,0.02 0.008,0.03 0.013,0.049 0.027,0.097 0.04,0.146 0.005,0.02 0.01,0.04 0.016,0.06 0.015,0.057 0.03,0.114 0.046,0.171 0,10e-4 0.001,0.002 0.001,0.003 0.009,0.034 0.018,0.068 0.027,0.102 0.025,0.094 0.05,0.188 0.075,0.281 0.003,0.009 0.005,0.018 0.008,0.027 0.009,0.034 0.018,0.068 0.027,0.103 0.127,0.478 0.253,0.958 0.377,1.439 z" style="fill:#f5f6f6;stroke:none"/><path inkscape:connector-curvature="0" id="path44" d="m 294.122,410.053 c 0.599,1.441 1.212,2.277 2.08,3.12 0.288,-0.283 0.579,-0.565 0.872,-0.844 0.006,-0.006 0.013,-0.012 0.019,-0.018 -0.522,-0.45 -1.034,-0.917 -1.423,-1.461 -0.226,-0.331 0.312,-0.624 0.558,-0.274 0.355,0.623 0.784,1.015 1.281,1.346 0.655,-0.607 1.321,-1.202 1.999,-1.785 -0.291,-0.199 -0.581,-0.397 -0.872,-0.595 -0.867,0.118 -1.735,0.224 -2.607,0.321 -0.564,0.06 -1.129,0.117 -1.693,0.171 -0.071,0.006 -0.142,0.013 -0.214,0.019 z" style="fill:#f5f6f6;stroke:none"/><path inkscape:connector-curvature="0" id="path46" d="m 292.909,410.157 c 0.542,1.762 1.097,2.665 2.39,3.923 0.221,-0.226 0.445,-0.451 0.67,-0.675 -1.212,-0.769 -1.655,-1.503 -2.352,-3.308 -0.236,0.021 -0.471,0.041 -0.708,0.06 z" style="fill:#f5f6f6;stroke:none"/><path inkscape:connector-curvature="0" id="path48" d="m 291.408,410.274 c 0.488,2.5 1.594,3.841 2.86,4.881 0.246,-0.262 0.493,-0.521 0.742,-0.778 -1.469,-1.128 -2.045,-2.535 -2.763,-4.166 -0.279,0.021 -0.559,0.042 -0.839,0.063 z" style="fill:#f5f6f6;stroke:none"/><path inkscape:connector-curvature="0" id="path50" d="m 282.082,404.574 c 0.603,0.299 1.207,0.597 1.81,0.895 0.681,-0.025 1.356,-0.085 2.031,-0.183 0.653,-0.102 1.288,-0.241 1.925,-0.416 0.259,-0.075 0.516,-0.154 0.772,-0.238 l -0.073,-0.13 c -0.154,-0.29 -0.297,-0.582 -0.43,-0.883 l -0.419,-1.148 -0.292,-1.213 c -0.09,-0.522 -0.152,-1.039 -0.193,-1.568 l -0.006,-2.656 0.05,-0.772 c -0.39,-0.142 -0.868,-0.335 -1.074,-0.44 -0.837,-0.45 -1.588,-1.043 -2.332,-1.631 l -0.275,-0.231 c -0.323,-0.292 -0.615,-0.6 -0.898,-0.93 -0.564,-0.679 -1.054,-1.402 -1.531,-2.145 -0.382,-0.601 -0.762,-1.206 -1.143,-1.81 l -0.607,-0.233 -0.461,-0.25 -0.444,-0.306 -0.428,-0.362 -0.615,-0.654 c -0.208,-0.261 -0.401,-0.524 -0.59,-0.798 -0.037,-0.059 -0.075,-0.117 -0.111,-0.176 l 0.284,8.14 c 2.057,3.034 3.741,6.414 5.05,10.138 z" style="fill:#f5f6f6;stroke:none"/><path inkscape:connector-curvature="0" id="path52" d="m 261.529,381.05 c 0.079,0.04 0.158,0.08 0.237,0.119 10e-4,0.001 10e-4,0.001 0.002,0.001 0.079,0.04 0.158,0.08 0.236,0.121 10e-4,0 10e-4,0 10e-4,0 0.079,0.04 0.158,0.081 0.236,0.122 0,0 0.001,0 0.001,0 0.078,0.041 0.156,0.082 0.234,0.123 10e-4,0 10e-4,0 0.002,10e-4 0.077,0.041 0.155,0.082 0.232,0.124 0.001,0 0.001,0 0.002,0 0.077,0.042 0.154,0.083 0.232,0.125 0,10e-4 0,10e-4 10e-4,10e-4 0.077,0.042 0.154,0.084 0.231,0.126 0,0 0,10e-4 0.001,10e-4 0.077,0.042 0.153,0.085 0.229,0.127 4.295,2.399 7.968,5.39 11.016,8.967 l -0.243,-6.98 -0.614,0.035 c -0.314,-10e-4 -0.622,-0.013 -0.935,-0.035 -0.306,-0.032 -0.606,-0.074 -0.909,-0.125 -0.395,-0.079 -0.777,-0.173 -1.164,-0.286 -0.376,-0.121 -0.739,-0.254 -1.104,-0.404 -0.354,-0.153 -0.698,-0.317 -1.04,-0.495 -0.573,-0.312 -1.116,-0.649 -1.651,-1.022 -0.351,-0.253 -0.691,-0.514 -1.026,-0.787 -0.31,-0.232 -0.622,-0.464 -0.933,-0.697 -0.597,0.147 -1.208,0.21 -1.822,0.229 -0.492,0.006 -0.982,-0.015 -1.471,-0.077 0.008,0.229 0.015,0.457 0.019,0.686 0,0 0,0 0,0 z" style="fill:#f5f6f6;stroke:none"/><path inkscape:connector-curvature="0" id="path54" d="m 276.712,385.281 c 1.97,3.561 3.893,3.811 7.278,3.562 -0.578,-0.415 -1.153,-0.839 -1.723,-1.31 -0.744,-0.617 -1.456,-1.297 -2.1,-2.108 -0.077,-0.096 -0.153,-0.193 0.038,-0.347 0.192,-0.154 0.268,-0.058 0.345,0.039 0.624,0.786 1.311,1.443 2.027,2.036 0.692,0.573 1.433,1.101 2.174,1.629 0.302,-0.026 0.615,-0.053 0.94,-0.082 l -0.186,-0.195 c -0.034,-0.046 -0.068,-0.093 -0.102,-0.139 -0.601,-0.566 -1.2,-1.139 -1.799,-1.739 -0.764,-0.764 -1.521,-1.567 -2.267,-2.444 -0.08,-0.093 -0.16,-0.187 0.026,-0.347 0.185,-0.159 0.265,-0.066 0.345,0.027 0.738,0.867 1.486,1.66 2.24,2.416 0.001,10e-4 0.002,0.002 0.003,0.003 -0.181,-0.279 -0.36,-0.559 -0.537,-0.84 -0.43,-0.704 -0.845,-1.414 -1.247,-2.133 -0.399,-0.732 -0.786,-1.468 -1.162,-2.211 -0.15,-0.302 -0.299,-0.606 -0.445,-0.91 -0.172,0.162 -0.344,0.324 -0.511,0.49 -0.462,0.46 -0.92,0.924 -1.399,1.364 l 0.056,0.013 c -0.581,0.452 -1.14,0.93 -1.787,1.282 l -0.27,0.141 0.063,1.803 z" style="fill:#f5f6f6;stroke:none"/><path inkscape:connector-curvature="0" id="path56" d="m 277.705,384.011 c 0.761,0.86 1.533,1.63 2.316,2.322 0.782,0.691 1.58,1.311 2.391,1.872 0.101,0.07 0.202,0.14 0.063,0.343 -0.138,0.203 -0.239,0.133 -0.34,0.063 -0.82,-0.566 -1.632,-1.198 -2.435,-1.908 -0.803,-0.709 -1.59,-1.493 -2.36,-2.365 -0.082,-0.092 -0.163,-0.184 0.02,-0.348 0.183,-0.163 0.264,-0.071 0.345,0.021 z" style="fill:#f5f6f6;stroke:none"/><path inkscape:connector-curvature="0" id="path58" d="m 280.704,389.262 c 0.981,1.535 2.06,3.441 3.453,4.544 0.955,0.756 1.658,1.282 2.392,1.651 -0.232,-0.237 -0.466,-0.482 -0.702,-0.736 -0.634,-0.685 -1.274,-1.435 -1.922,-2.247 -0.077,-0.097 -0.154,-0.193 0.036,-0.347 0.191,-0.154 0.267,-0.058 0.344,0.038 0.64,0.803 1.274,1.543 1.9,2.22 0.503,0.544 1.005,1.05 1.505,1.516 0.651,0.18 1.406,0.286 2.399,0.353 -0.4,-0.268 -0.801,-0.557 -1.197,-0.861 -1.389,-1.066 -2.72,-2.321 -3.697,-3.509 -0.079,-0.095 -0.157,-0.19 0.032,-0.346 0.189,-0.157 0.266,-0.063 0.344,0.032 0.956,1.162 2.258,2.389 3.618,3.432 0.613,0.471 1.238,0.904 1.847,1.276 0.752,-0.017 1.49,-0.127 2.199,-0.369 -0.669,-0.197 -1.332,-0.46 -1.978,-0.776 -1.682,-0.822 -3.253,-1.995 -4.531,-3.228 -0.088,-0.086 -0.177,-0.171 -0.008,-0.348 0.17,-0.177 0.258,-0.092 0.347,-0.007 1.244,1.201 2.772,2.341 4.405,3.14 0.82,0.401 1.666,0.715 2.516,0.907 0.649,-0.323 1.267,-0.775 1.843,-1.389 -3.003,-0.67 -4.247,-1.407 -6.525,-3.495 -0.062,-0.095 -0.119,-0.191 -0.172,-0.286 l -0.412,-0.103 c -0.375,-0.112 -0.736,-0.235 -1.101,-0.376 l -0.684,-0.321 -0.323,-0.185 -0.308,-0.203 -0.116,-0.088 c -0.888,0.078 -1.697,0.15 -2.5,0.206 l -2.038,0.027 c -0.267,-0.021 -0.528,-0.049 -0.794,-0.089 -0.058,-0.01 -0.115,-0.022 -0.172,-0.033 z" style="fill:#f5f6f6;stroke:none"/><path inkscape:connector-curvature="0" id="path60" d="m 287.736,396.418 c -0.249,3.493 0.09,5.843 1.357,8.055 0.396,-0.137 0.789,-0.283 1.181,-0.434 0.15,-0.058 0.3,-0.115 0.45,-0.173 -0.681,-1.081 -1.352,-2.173 -1.938,-3.364 -0.055,-0.111 -0.109,-0.221 0.11,-0.33 0.219,-0.109 0.273,0.002 0.328,0.112 0.587,1.193 1.272,2.301 1.966,3.402 0.314,-0.121 0.629,-0.242 0.943,-0.363 -0.323,-0.401 -0.64,-0.813 -0.952,-1.237 -0.455,-0.617 -0.886,-1.247 -1.286,-1.895 -0.064,-0.104 -0.129,-0.209 0.079,-0.339 0.207,-0.13 0.272,-0.025 0.336,0.079 0.396,0.641 0.819,1.26 1.263,1.863 0.331,0.449 0.68,0.897 1.042,1.344 0.313,-0.12 0.625,-0.24 0.938,-0.36 -0.365,-0.38 -0.713,-0.772 -1.038,-1.181 -0.496,-0.624 -0.94,-1.285 -1.312,-1.997 -0.056,-0.109 -0.113,-0.218 0.104,-0.332 0.217,-0.114 0.274,-0.004 0.331,0.105 0.357,0.684 0.782,1.318 1.258,1.916 0.359,0.451 0.746,0.882 1.155,1.298 0.276,-0.106 0.553,-0.213 0.83,-0.319 -0.9,-1.606 -1.463,-3.87 -2.021,-5.8 -1.669,0.431 -3.499,0.355 -5.124,-0.05 z" style="fill:#f5f6f6;stroke:none"/><path inkscape:connector-curvature="0" id="path62" d="m 277.592,382.299 c -0.319,0.25 -0.642,0.469 -0.962,0.633 l -0.03,-0.873 c 0.33,0.082 0.661,0.161 0.992,0.24 z" style="fill:#f5f6f6;stroke:none"/><path inkscape:connector-curvature="0" id="path64" d="m 279.192,380.837 c -0.38,0.378 -0.786,0.775 -1.202,1.134 -0.468,-0.109 -0.936,-0.221 -1.405,-0.338 l -0.048,-1.384 c 0.842,0.278 1.729,0.431 2.655,0.588 z" style="fill:#f5f6f6;stroke:none"/><path inkscape:connector-curvature="0" id="path66" d="m 276.465,378.213 c 1.159,0.419 2.304,0.747 3.446,0.977 l 0.26,0.688 c -0.194,0.18 -0.403,0.385 -0.622,0.604 -0.09,-0.015 -0.178,-0.03 -0.266,-0.045 -0.973,-0.166 -1.903,-0.324 -2.762,-0.625 l -0.056,-1.599 z" style="fill:#f5f6f6;stroke:none"/><path inkscape:connector-curvature="0" id="path68" d="m 271.086,375.699 c 0.966,0.542 1.916,1.033 2.853,1.468 l 0.133,3.794 c -0.816,-0.236 -1.632,-0.494 -2.448,-0.778 -0.096,-0.033 -0.193,-0.067 -0.259,0.127 -0.066,0.194 0.03,0.228 0.127,0.262 0.865,0.302 1.73,0.572 2.595,0.82 l 0.074,2.149 c -3.239,0.271 -6.103,-1.35 -8.124,-3.021 -0.171,-0.128 -0.342,-0.255 -0.514,-0.383 0.608,-0.168 1.178,-0.39 1.713,-0.666 0.014,0.019 0.032,0.036 0.049,0.054 0.912,0.909 1.606,1.514 2.38,1.986 0.776,0.473 1.626,0.809 2.85,1.176 0.097,0.03 0.195,0.059 0.253,-0.137 0.059,-0.197 -0.039,-0.226 -0.137,-0.256 -1.187,-0.357 -2.01,-0.681 -2.754,-1.135 -0.737,-0.449 -1.401,-1.027 -2.27,-1.89 1.411,-0.818 2.56,-2.024 3.479,-3.57 z" style="fill:#f5f6f6;stroke:none"/><path inkscape:connector-curvature="0" id="path70" d="m 258.383,445.567 c -0.094,0.002 -0.188,0.003 -0.282,0.004 0.094,-0.001 0.188,-0.002 0.282,-0.004 z" style="fill:#f5f6f6;stroke:none"/><path inkscape:connector-curvature="0" id="path72" d="m 258.741,445.559 c -0.08,0.002 -0.16,0.004 -0.24,0.006 0.08,-0.002 0.16,-0.004 0.24,-0.006 z" style="fill:#f5f6f6;stroke:none"/><path inkscape:connector-curvature="0" id="path74" d="m 259.078,445.549 c -0.08,0.003 -0.159,0.006 -0.239,0.008 0.08,-0.002 0.159,-0.005 0.239,-0.008 z" style="fill:#f5f6f6;stroke:none"/><path inkscape:connector-curvature="0" id="path76" d="m 259.541,445.532 c -0.031,0.001 -0.062,0.003 -0.094,0.004 -0.086,0.004 -0.172,0.007 -0.258,0.01 0.086,-0.003 0.172,-0.006 0.258,-0.01" style="fill:#f5f6f6;stroke:none"/><path inkscape:connector-curvature="0" id="path78" d="m 259.757,445.523 c -0.072,0.003 -0.144,0.006 -0.216,0.009 0.072,-0.003 0.144,-0.006 0.216,-0.009 z" style="fill:#f5f6f6;stroke:none"/><path inkscape:connector-curvature="0" id="path80" d="m 260.104,445.504 c -0.067,0.004 -0.134,0.008 -0.201,0.011 0.067,-0.003 0.134,-0.007 0.201,-0.011 z" style="fill:#f5f6f6;stroke:none"/><path inkscape:connector-curvature="0" id="path82" d="m 260.476,445.483 c -0.065,0.004 -0.13,0.008 -0.194,0.011 0.064,-0.003 0.129,-0.007 0.194,-0.011 z" style="fill:#f5f6f6;stroke:none"/><path inkscape:connector-curvature="0" id="path84" d="m 261.464,445.41 c -0.003,0 -0.006,0 -0.009,0 0.003,0 0.006,0 0.009,0 z" style="fill:#f5f6f6;stroke:none"/><path inkscape:connector-curvature="0" id="path86" d="m 262.603,445.298 c -0.014,0.002 -0.027,0.003 -0.04,0.005 0.013,-0.002 0.026,-0.003 0.04,-0.005 z" style="fill:#f5f6f6;stroke:none"/><path inkscape:connector-curvature="0" id="path88" d="m 272.769,410.957 c 0.082,0.056 0.168,0.108 0.259,0.149 -0.091,-0.041 -0.177,-0.092 -0.259,-0.149 z" style="fill:#f5f6f6;stroke:none"/><path inkscape:connector-curvature="0" id="path90" d="m 272.739,410.935 c 0.01,0.007 0.019,0.015 0.029,0.021 -0.01,-0.007 -0.019,-0.014 -0.029,-0.021 z" style="fill:#f5f6f6;stroke:none"/><path inkscape:connector-curvature="0" id="path92" d="m 272.691,410.9 c 0.015,0.011 0.029,0.022 0.044,0.032 -0.015,-0.01 -0.029,-0.021 -0.044,-0.032 z" style="fill:#f5f6f6;stroke:none"/><path inkscape:connector-curvature="0" id="path94" d="m 272.588,410.817 c 0.014,0.011 0.028,0.024 0.043,0.035 -0.015,-0.011 -0.029,-0.024 -0.043,-0.035 z" style="fill:#f5f6f6;stroke:none"/><path inkscape:connector-curvature="0" id="path96" d="m 272.561,410.793 c 0.007,0.006 0.014,0.013 0.021,0.019 -0.007,-0.006 -0.014,-0.013 -0.021,-0.019 z" style="fill:#f5f6f6;stroke:none"/><path inkscape:connector-curvature="0" id="path98" d="m 272.543,410.778 c 0.005,0.004 0.009,0.007 0.013,0.011 -0.004,-0.004 -0.008,-0.007 -0.013,-0.011 z" style="fill:#f5f6f6;stroke:none"/><path inkscape:connector-curvature="0" id="path100" d="m 272.529,410.766 c 0.004,0.003 0.007,0.006 0.011,0.009" style="fill:#f5f6f6;stroke:none"/><path inkscape:connector-curvature="0" id="path102" d="m 248.705,444.893 c -0.021,-0.003 -0.041,-0.005 -0.062,-0.008 -0.021,-0.003 -0.042,-0.005 -0.063,-0.008 -0.004,-0.001 -0.009,-0.001 -0.013,-0.002 -0.031,-0.004 -0.062,-0.008 -0.093,-0.012" style="fill:#f5f6f6;stroke:none"/><path inkscape:connector-curvature="0" id="path104" d="m 248.789,444.904 c -0.028,-0.003 -0.056,-0.007 -0.084,-0.011 0.028,0.004 0.056,0.007 0.084,0.011 z" style="fill:#f5f6f6;stroke:none"/><path inkscape:connector-curvature="0" id="path106" d="m 249.081,444.942 c -0.03,-0.004 -0.06,-0.008 -0.09,-0.012 0.03,0.004 0.06,0.008 0.09,0.012 z" style="fill:#f5f6f6;stroke:none"/><path inkscape:connector-curvature="0" id="path108" d="m 249.332,444.974 c -0.042,-0.005 -0.084,-0.011 -0.126,-0.017 0.042,0.006 0.084,0.012 0.126,0.017 z" style="fill:#f5f6f6;stroke:none"/><path inkscape:connector-curvature="0" id="path110" d="m 250.291,445.091 c -0.011,-0.001 -0.021,-0.002 -0.032,-0.004 0.01,0.002 0.021,0.003 0.032,0.004 z" style="fill:#f5f6f6;stroke:none"/><path inkscape:connector-curvature="0" id="path112" d="m 263.177,395.506 c -0.009,-0.05 -0.018,-0.101 -0.027,-0.15 0,0 0,0 0,0 0.01,0.05 0.018,0.1 0.027,0.15 z" style="fill:#f5f6f6;stroke:none"/><path inkscape:connector-curvature="0" id="path114" d="m 263.179,395.517 c -10e-4,-0.003 -10e-4,-0.007 -0.002,-0.011" style="fill:#f5f6f6;stroke:none"/><path inkscape:connector-curvature="0" id="path116" d="m 263.198,395.633 c -0.005,-0.032 -0.01,-0.064 -0.015,-0.097 0.005,0.033 0.01,0.065 0.015,0.097 z" style="fill:#f5f6f6;stroke:none"/><path inkscape:connector-curvature="0" id="path118" d="m 263.203,395.663 c -10e-4,-0.008 -0.003,-0.016 -0.004,-0.024 10e-4,0.008 0.003,0.016 0.004,0.024 z" style="fill:#f5f6f6;stroke:none"/><path inkscape:connector-curvature="0" id="path120" d="m 263.209,395.7 c -10e-4,-0.003 -10e-4,-0.006 -10e-4,-0.009 0,0.003 0,0.006 10e-4,0.009 z" style="fill:#f5f6f6;stroke:none"/><path inkscape:connector-curvature="0" id="path122" d="m 257.782,383.642 c -0.427,1.026 -0.812,1.726 -0.89,2.791 0.127,-0.073 0.258,-0.13 0.395,-0.172 -0.135,-0.801 0.467,-1.68 0.754,-2.449 -0.086,-0.057 -0.172,-0.113 -0.259,-0.17 z" style="fill:#f5f6f6;stroke:none"/><path inkscape:connector-curvature="0" id="path124" d="m 256.867,373.443 c 0.724,-0.409 1.447,-0.823 2.251,-0.993 0.932,-0.196 1.775,-0.079 2.689,0.189 1.398,0.411 2.657,1.507 4.096,1.731 1.877,0.293 3.857,-0.073 5.754,-0.157 -0.618,0.79 -1.627,1.344 -2.803,1.605 -2.036,0.453 -3.975,0.408 -5.796,0.094 -0.628,-0.064 -0.451,0.658 0,0.598 2.532,0.261 5.009,0.375 7.098,-0.535 -0.367,0.539 -0.72,1.073 -1.313,1.668 -2.669,-0.039 -4.683,-0.135 -7.286,-0.692 -0.416,-0.198 -0.935,0.549 -0.125,0.598 2.164,0.396 4.295,0.832 6.91,0.661 -0.562,0.335 -1.125,0.671 -1.688,1.007 -1.512,-0.283 -3.023,-0.567 -4.534,-0.85 -0.542,-0.126 -1.084,-0.252 -1.627,-0.378 -0.987,-0.484 -1.381,0.287 -0.437,0.441 1.724,0.679 3.559,1.026 5.503,1.038 -1.518,0.559 -3.382,0.721 -6.003,0 -0.376,-0.103 -0.751,-0.209 -1.126,-0.314 -0.015,-0.294 -0.039,-0.586 -0.071,-0.882 -0.044,-0.326 -0.096,-0.648 -0.156,-0.972 -0.073,-0.342 -0.154,-0.678 -0.244,-1.015 -0.105,-0.36 -0.218,-0.712 -0.341,-1.066 -0.141,-0.379 -0.29,-0.751 -0.448,-1.124 -0.099,-0.219 -0.2,-0.436 -0.303,-0.652 z" style="fill:#f5f6f6;stroke:none"/><path inkscape:connector-curvature="0" id="path126" d="m 259.074,379.94 c -0.113,2.245 -0.557,4.324 -1.332,6.237 0.005,-0.001 0.011,-0.001 0.016,-0.002 l 0.201,0 c 0.409,0.031 0.742,0.153 1.076,0.392 l 0.144,0.121 c 0.074,0.07 0.14,0.142 0.2,0.216 1.374,-2.054 1.741,-4.185 1.648,-6.353 -0.652,-0.203 -1.302,-0.408 -1.953,-0.611 z" style="fill:#f5f6f6;stroke:none"/><path inkscape:connector-curvature="0" id="path128" d="m 254.929,386.444 c 0.344,-0.129 0.688,-0.258 1.032,-0.387 0.178,0.169 0.357,0.338 0.535,0.506 0.031,0.028 0.063,0.055 0.094,0.082 l -0.052,0.042 c -0.121,0.117 -0.224,0.237 -0.31,0.366 -0.433,-0.203 -0.866,-0.406 -1.299,-0.609 z" style="fill:#f5f6f6;stroke:none"/><path inkscape:connector-curvature="0" id="path130" d="m 247.771,385.486 c 2.923,0.009 4.866,0.268 8.048,1.922 -0.072,0.408 -0.145,0.815 -0.217,1.223 -3.475,-2.282 -5.008,-2.572 -8.502,-2.306 0.048,-0.043 0.095,-0.087 0.143,-0.133 0.186,-0.2 0.338,-0.4 0.484,-0.63 0.015,-0.025 0.029,-0.051 0.044,-0.076 z" style="fill:#f5f6f6;stroke:none"/><path inkscape:connector-curvature="0" id="path132" d="m 257.859,389.636 c -0.813,0 -1.476,-0.668 -1.476,-1.485 0,-0.818 0.663,-1.485 1.476,-1.485 0.812,0 1.475,0.667 1.475,1.485 0,0.817 -0.663,1.485 -1.475,1.485 z" style="fill:#f5f6f6;stroke:none"/><path inkscape:connector-curvature="0" id="path134" d="m 248.073,410.381 c -0.992,0 -1.801,-0.814 -1.801,-1.813 0,-0.998 0.809,-1.812 1.801,-1.812 0.992,0 1.801,0.814 1.801,1.812 0,0.999 -0.809,1.813 -1.801,1.813 z" style="fill:#f5f6f6;stroke:none"/><path inkscape:connector-curvature="0" id="path136" d="m 247.45,406.351 c 0.528,-0.849 1.053,-1.701 1.565,-2.56 1.141,-1.909 2.226,-3.851 3.258,-5.822 0.786,-1.521 1.541,-3.059 2.248,-4.621 0.284,-0.629 0.563,-1.262 0.836,-1.898 0.301,-0.703 0.588,-1.412 0.87,-2.123 0.392,0.319 0.785,0.637 1.178,0.956 -0.209,0.805 -0.439,1.6 -0.695,2.39 -0.292,0.897 -0.609,1.781 -0.959,2.657 -0.568,1.422 -1.199,2.815 -1.895,4.178 -0.451,0.88 -0.92,1.751 -1.405,2.611 -0.67,1.114 -1.321,2.242 -2.027,3.333 -0.292,0.452 -0.588,0.902 -0.885,1.351 -0.202,-0.169 -0.419,-0.296 -0.679,-0.4 l -0.215,-0.067 c -0.316,-0.074 -0.598,-0.088 -0.92,-0.047 l -0.224,0.047 c -0.017,0.005 -0.034,0.01 -0.051,0.015 z" style="fill:#f5f6f6;stroke:none"/><path inkscape:connector-curvature="0" id="path138" d="m 240.881,391.486 1.022,-4.825 0.316,0.1 c 0.626,0.168 1.251,0.281 1.897,0.343 0.211,0.014 0.418,0.022 0.629,0.024 0.176,-0.005 0.344,-0.015 0.512,-0.034 l 0.338,0.093 c -0.054,0.024 -0.109,0.048 -0.163,0.074 -0.656,0.305 -1.027,0.697 -1.868,1.452 -0.456,0.411 -0.906,0.831 -1.347,1.28 -0.749,0.765 -1.15,1.111 -1.336,1.493 z" style="fill:#f5f6f6;stroke:none"/><path inkscape:connector-curvature="0" id="path140" d="m 255.137,416.007 c -1.559,-1.454 -3.084,-2.945 -4.643,-4.4 0.001,0.131 -0.071,0.315 -0.073,0.444 -0.038,1.222 -0.092,1.478 0.416,2.697 0.64,1.393 2.844,1.661 4.3,1.259 z" style="fill:#f5f6f6;stroke:none"/><path inkscape:connector-curvature="0" id="path142" d="m 244.967,416.232 1.198,-0.015 c 0.024,-0.325 0.115,-0.64 0.234,-0.949 0.052,-0.13 0.106,-0.259 0.158,-0.388 0.149,-0.386 0.277,-0.819 0.227,-1.233 -0.034,-0.176 -0.088,-0.282 -0.232,-0.388 -0.279,-0.177 -0.636,-0.216 -0.957,-0.249 -0.338,-0.027 -0.756,-0.059 -1.07,0.099 -0.152,0.093 -0.159,0.204 -0.145,0.375 0.053,0.38 0.255,0.722 0.404,1.07 0.142,0.353 0.224,0.709 0.249,1.09 0.006,0.213 -0.009,0.402 -0.066,0.588 z" style="fill:#f5f6f6;stroke:none"/><path inkscape:connector-curvature="0" id="path144" d="m 238.331,405.882 c -0.188,0.684 -0.376,1.369 -0.565,2.053 2.648,-0.004 5.261,-0.284 8.017,0.58 0.019,-0.815 0.461,-1.529 1.114,-1.924 -2.722,-0.842 -5.63,-0.837 -8.566,-0.709 z" style="fill:#f5f6f6;stroke:none"/><path inkscape:connector-curvature="0" id="path146" d="m 243.569,401.236 c -0.326,1.616 0.977,1.403 1.183,-0.017 0.273,-1.872 1.007,-3.454 1.961,-4.897 -0.312,0.134 -0.81,0.125 -1.443,0.018 -0.407,0.662 -0.694,1.171 -1.095,1.826 -0.354,1.021 -0.439,1.818 -0.606,3.07 z" style="fill:#f5f6f6;stroke:none"/><path inkscape:connector-curvature="0" id="path148" d="m 284.535,468.736 -1.275,3.13 0.69,0.031 c 0.001,0 0.003,-10e-4 0.004,-10e-4 0,-0.001 10e-4,-0.001 0.003,-0.002 0.002,-0.001 0.004,-0.002 0.006,-0.003 0.002,-0.001 0.003,-0.001 0.005,-0.002 0,-0.001 10e-4,-0.001 0.002,-0.001 0.002,-10e-4 0.004,-0.002 0.006,-0.003 0.006,-0.003 0.013,-0.006 0.019,-0.009 0,0 0,0 10e-4,0 0.002,-0.002 0.004,-0.003 0.006,-0.004 0.003,-0.001 0.005,-0.002 0.007,-0.003 0,0 0,0 0,0 0.002,-0.001 0.004,-0.002 0.006,-0.003 0.003,-10e-4 0.005,-0.002 0.007,-0.003 0,0 0,0 0.001,-10e-4 0.002,0 0.004,-0.001 0.005,-0.002 0.008,-0.004 0.015,-0.007 0.023,-0.011 0.001,-10e-4 0.003,-10e-4 0.004,-0.002 0.002,-10e-4 0.004,-0.002 0.006,-0.003 0.002,0 0.002,-10e-4 0.003,-0.002 0.002,0 0.003,-10e-4 0.004,-10e-4 0.003,-0.002 0.007,-0.003 0.01,-0.005 0.001,0 0.002,-0.001 0.003,-0.001 0.009,-0.005 0.017,-0.008 0.025,-0.012 0,-10e-4 0.001,-10e-4 0.001,-10e-4 0.009,-0.004 0.018,-0.008 0.026,-0.012 0,0 0.001,0 0.001,-10e-4 0.004,-0.002 0.008,-0.004 0.013,-0.006 0,0 0,0 0.001,0 0.002,-10e-4 0.003,-0.002 0.005,-0.003 10e-4,-0.001 10e-4,-0.001 0.002,-0.001 0.005,-0.003 0.011,-0.005 0.015,-0.007 10e-4,-10e-4 0.002,-10e-4 0.003,-0.002 0,0 10e-4,0 0.002,-0.001 10e-4,0 0.003,-10e-4 0.004,-0.002 0.002,-10e-4 0.005,-0.002 0.007,-0.003 0.001,0 0.002,-10e-4 0.003,-10e-4 10e-4,-0.001 0.002,-0.002 0.003,-0.002 10e-4,0 10e-4,0 10e-4,-0.001 0.007,-0.003 0.013,-0.006 0.019,-0.009 0.001,0 0.003,-0.001 0.004,-0.002 10e-4,0 0.002,-0.001 0.002,-0.001 0.002,-10e-4 0.005,-0.002 0.007,-0.003 0.004,-0.002 0.008,-0.004 0.013,-0.007 0.002,-10e-4 0.004,-10e-4 0.006,-0.002 0,0 10e-4,0 10e-4,0 0.006,-0.004 0.012,-0.007 0.019,-0.01 0.002,-10e-4 0.005,-0.002 0.006,-0.003 0.001,0 0.002,0 0.002,-10e-4 0.001,-0.001 0.003,-0.002 0.005,-0.003 0.002,-10e-4 0.004,-0.002 0.006,-0.002 10e-4,-0.001 0.002,-0.001 0.002,-0.002 0.002,0 0.003,-0.001 0.005,-0.002 0.002,-10e-4 0.004,-0.002 0.007,-0.003 0,-0.001 0.002,-0.001 0.002,-0.001 0.002,-10e-4 0.003,-0.002 0.004,-0.002 0.002,-10e-4 0.005,-0.003 0.007,-0.004 10e-4,0 0.002,-0.001 0.003,-0.001 0.001,-10e-4 0.002,-10e-4 0.003,-0.002 0.002,-0.001 0.005,-0.002 0.007,-0.003 0.001,-10e-4 0.002,-10e-4 0.004,-0.002 10e-4,-10e-4 0.002,-10e-4 0.002,-10e-4 0.002,-10e-4 0.004,-0.002 0.007,-0.003 10e-4,-0.001 0.003,-0.002 0.005,-0.003 0,0 10e-4,0 10e-4,-0.001 0.002,-10e-4 0.004,-0.002 0.007,-0.003 0.001,-0.001 0.003,-0.002 0.005,-0.003 0.001,0 0.001,0 0.001,0 0.002,-0.001 0.004,-0.002 0.007,-0.003 0.002,-10e-4 0.004,-0.002 0.006,-0.003 0.003,-0.002 0.006,-0.004 0.009,-0.005 0.003,-0.002 0.006,-0.003 0.009,-0.005 0.002,-10e-4 0.004,-0.002 0.005,-0.002 0.002,-10e-4 0.003,-0.002 0.004,-0.002 0.003,-0.002 0.006,-0.004 0.01,-0.005 0.003,-0.002 0.006,-0.003 0.008,-0.005 10e-4,0 10e-4,0 0.002,0 0.002,-10e-4 0.005,-0.003 0.008,-0.004 0.003,-0.002 0.006,-0.003 0.009,-0.005 0.002,-10e-4 0.004,-0.002 0.006,-0.003 0.001,-10e-4 0.002,-10e-4 0.003,-0.002 0,0 0.001,0 0.001,-10e-4 0.006,-0.003 0.011,-0.005 0.017,-0.008 0,-0.001 10e-4,-0.001 0.002,-0.001 0.002,-0.002 0.004,-0.003 0.007,-0.004 0.009,-0.005 0.018,-0.009 0.027,-0.014 0.006,-0.003 0.012,-0.006 0.017,-0.009 0,-10e-4 10e-4,-10e-4 10e-4,-10e-4 0.003,-0.001 0.006,-0.003 0.009,-0.005 0.003,-10e-4 0.005,-0.002 0.008,-0.004 0,0 0,0 0.001,-0.001 0.003,-10e-4 0.006,-0.002 0.009,-0.004 0.003,-0.002 0.006,-0.003 0.009,-0.005 0.083,-0.045 0.166,-0.092 0.247,-0.14 0.002,-10e-4 0.003,-10e-4 0.004,-0.002 0.002,-0.001 0.003,-0.002 0.005,-0.003 0.017,-0.01 0.034,-0.02 0.052,-0.031 0.003,-0.002 0.006,-0.003 0.008,-0.005 0.024,-0.014 0.046,-0.028 0.07,-0.042 l 0.473,-0.367 0.224,-0.253 c -0.001,0 -0.003,-0.001 -0.005,-0.001 -0.001,-10e-4 -0.002,-10e-4 -0.002,-10e-4 -0.018,-0.005 -0.036,-0.01 -0.053,-0.014 -0.002,-10e-4 -0.004,-0.002 -0.006,-0.002 -0.004,-10e-4 -0.008,-0.003 -0.013,-0.004 -10e-4,0 -0.002,-0.001 -0.003,-0.001 -0.036,-0.01 -0.072,-0.019 -0.107,-0.029 -0.003,0 -0.006,-10e-4 -0.009,-0.002 -0.009,-0.003 -0.019,-0.005 -0.028,-0.008 -0.002,0 -0.003,0 -0.004,-10e-4 -0.005,-0.001 -0.01,-0.002 -0.015,-0.003 0,-10e-4 -10e-4,-10e-4 -0.002,-10e-4 -0.006,-0.002 -0.011,-0.003 -0.016,-0.004 0,0 0,0 0,0 -0.002,-10e-4 -0.003,-10e-4 -0.004,-10e-4 -0.076,-0.02 -0.152,-0.04 -0.229,-0.059 -0.002,0 -0.005,-10e-4 -0.008,-0.002 -0.002,0 -0.005,-0.001 -0.008,-0.002 -10e-4,0 -0.003,-0.001 -0.004,-0.001 -0.007,-10e-4 -0.014,-0.003 -0.021,-0.005 -0.001,0 -0.002,-10e-4 -0.004,-10e-4 -0.001,0 -0.003,-0.001 -0.004,-0.001 -0.005,-10e-4 -0.01,-0.002 -0.014,-0.003 -10e-4,-10e-4 -0.002,-10e-4 -0.003,-10e-4 -0.002,-0.001 -0.003,-0.001 -0.005,-0.002 -0.009,-0.002 -0.018,-0.004 -0.027,-0.006 0,0 -0.001,0 -0.001,0 0,0 -10e-4,0 -10e-4,-10e-4 -0.011,-0.002 -0.022,-0.005 -0.032,-0.008 -0.002,0 -0.003,-0.001 -0.005,-0.001 -0.004,-10e-4 -0.008,-0.002 -0.012,-0.003 -0.002,0 -0.004,-10e-4 -0.007,-0.002 -0.003,-10e-4 -0.006,-10e-4 -0.009,-0.002 -0.003,-10e-4 -0.006,-10e-4 -0.009,-0.002 -0.036,-0.009 -0.071,-0.018 -0.107,-0.026 0,0 0,0 0,0 -0.002,-0.001 -0.003,-0.001 -0.005,-0.001 -0.006,-0.002 -0.012,-0.004 -0.018,-0.005 -0.004,-10e-4 -0.007,-0.002 -0.01,-0.003 -0.003,0 -0.006,-10e-4 -0.009,-0.002 -0.002,0 -0.005,-10e-4 -0.008,-0.002 -0.01,-0.002 -0.019,-0.005 -0.029,-0.007 -0.001,0 -0.003,-10e-4 -0.004,-10e-4 0,0 -10e-4,0 -10e-4,0 -0.022,-0.006 -0.043,-0.011 -0.065,-0.016 0,0 0,0 -0.001,0 0,-10e-4 -0.002,-10e-4 -0.003,-10e-4 0,0 0,0 0,0 -0.021,-0.006 -0.042,-0.011 -0.063,-0.016 -0.003,-10e-4 -0.007,-0.002 -0.01,-0.003 -0.002,0 -0.004,-10e-4 -0.006,-10e-4 -0.005,-0.001 -0.009,-0.002 -0.013,-0.003 -0.002,-10e-4 -0.003,-10e-4 -0.004,-0.002 -0.005,-0.001 -0.01,-0.002 -0.015,-0.003 0,0 -0.001,0 -0.002,-10e-4 -0.005,-0.001 -0.011,-0.003 -0.016,-0.004 l 0.683,-0.666 c 0.004,-0.003 0.007,-0.007 0.011,-0.011 0.003,-0.003 0.006,-0.005 0.008,-0.008 0.001,-10e-4 0.002,-0.002 0.003,-0.003 0.225,-0.23 0.43,-0.479 0.627,-0.735 0.001,-10e-4 0.002,-0.002 0.003,-0.004 l 0.021,-0.03 c -0.417,-0.101 -0.835,-0.203 -1.252,-0.304 -0.029,-0.008 -0.058,-0.017 -0.086,-0.025 l -0.056,0.036 z" style="fill:#f5f6f6;stroke:none"/><path inkscape:connector-curvature="0" id="path150" d="m 279.717,471.346 c 0.41,0.085 0.82,0.17 1.231,0.253 0.322,-1.182 0.812,-2.364 1.47,-3.546 -0.949,-0.288 -1.898,-0.579 -2.847,-0.871 l 0.146,4.164 z" style="fill:#f5f6f6;stroke:none"/><path inkscape:connector-curvature="0" id="path152" d="m 271.69,464.346 c 0.064,1.655 0.009,3.31 -0.222,4.966 1.913,0.569 3.826,1.052 5.74,1.487 l -0.154,-4.39 c -1.092,-0.333 -2.184,-0.663 -3.276,-0.982 0.107,0.109 0.768,0.661 0.894,0.74 0.295,0.186 0.221,0.662 -0.518,0.339 -0.87,-0.38 -2.448,-2.138 -2.464,-2.16 z" style="fill:#f5f6f6;stroke:none"/><path inkscape:connector-curvature="0" id="path154" d="m 248.56,455.814 c 2.011,-1.995 4.176,-3.866 6.788,-3.946 -0.005,0.02 -0.06,0.245 -0.066,0.265 -0.63,2.494 -0.331,5.414 -0.061,7.125 0.281,1.771 1.239,1.876 2.55,2.285 1.311,0.409 3.137,0.191 2.979,1.549 -0.08,0.446 -0.086,0.326 -0.166,0.773 -3.739,-0.899 -7.811,-1.679 -11.239,-0.458 l -0.785,-7.593 z" style="fill:#f5f6f6;stroke:none"/><path inkscape:connector-curvature="0" id="path156" d="m 270.531,470.994 0.274,-0.915 c -0.021,-0.009 -0.041,-0.018 -0.061,-0.027 -0.063,0.316 -0.134,0.63 -0.213,0.942 z" style="fill:#f5f6f6;stroke:none"/><path inkscape:connector-curvature="0" id="path158" d="m 218.931,497.335 c 0.455,-0.932 1.073,-1.608 1.926,-1.786 2.228,-0.465 3.241,0.594 4.374,-3.17 0.999,-3.323 1.947,-6.625 3.139,-9.788 1.341,-3.556 1.296,-3.53 4.619,-5.126 1.357,-0.652 2.85,-1.456 4.072,-2.325 2.354,-1.675 3.892,-1.512 6.514,-1.127 7.934,1.162 14.919,1.349 22.705,1.166 3.62,-0.085 3.519,-1.461 3.894,-2.989 l 0.225,-0.756 c -8.365,0.313 -16.573,0.321 -24.822,-1.622 -2.871,-0.676 -4.725,-1.046 -7.482,0.512 -1.465,0.827 -2.901,1.904 -3.745,2.462 -2.216,1.467 -3.661,2.684 -5.561,6.088 -2.403,4.307 -7.175,12.695 -8.606,15.292 -1.397,2.535 -1,2.159 -1.252,3.169 z" style="fill:#f5f6f6;stroke:none"/><path inkscape:connector-curvature="0" id="path160" d="m 221.04,500.446 c -2.806,-0.216 -3.648,1.652 -3.16,4.124 0.406,2.057 0.724,4.025 1.182,6.134 1.602,-1.414 3.605,-2.493 3.689,-4.674 0.064,-1.645 -0.573,-5.591 -1.711,-5.584 z" style="fill:#f5f6f6;stroke:none"/><path inkscape:connector-curvature="0" id="path162" d="m 248.441,459.425 0.424,4.107 -1.322,0.485 c -0.415,0.12 -0.827,0.244 -1.232,0.399 -0.212,0.085 -0.416,0.178 -0.616,0.28 l -0.718,0.263 c -0.28,0.094 -0.561,0.183 -0.843,0.267 -2.526,-1.615 -5.188,-2.994 -7.071,-5.171 -2.822,-3.262 -5.074,-7.455 -9.422,-10.204 -0.35,-0.222 -0.836,-0.812 -1.492,-0.641 -0.844,0.22 -1.809,1.474 -2.911,2.964 -1.309,1.768 -2.64,3.834 -2.409,9.685 0.05,1.272 0.345,2.494 -1.882,3.123 -0.379,0.108 -0.66,0.305 -0.871,0.551 -0.275,-0.469 -0.438,-1.008 -0.398,-1.524 0.243,-3.125 1.384,-6.025 1.713,-9.143 0.176,-1.677 1.157,-2.972 2.755,-4.271 1.312,-1.068 1.983,-3.947 4.467,-3.597 3.87,0.545 7.024,3.01 10.201,5.395 3.35,2.514 8.032,4.403 11.627,7.032 z" style="fill:#f5f6f6;stroke:none"/><path inkscape:connector-curvature="0" id="path164" d="m 214.337,489.475 c 0.001,0 0.003,0 0.004,10e-4 -0.106,0.397 0.056,0.946 0.491,2.008 0.601,1.468 1.926,2.464 2.786,3.907 0.525,0.88 -0.077,1.918 -0.738,2.7 -1.62,1.912 -2.859,3.774 -3.869,5.724 -0.036,-3.176 1.427,-3.512 1.924,-7.66 0.16,-1.337 -1.047,-5.565 -0.598,-6.68 z" style="fill:#f5f6f6;stroke:none"/><path inkscape:connector-curvature="0" id="path166" d="m 233.748,466.903 c -0.056,-0.001 -0.112,-0.002 -0.169,-0.003 -0.002,0.011 -0.004,0.022 -0.005,0.033 0.057,-0.013 0.115,-0.023 0.174,-0.03 z" style="fill:#f5f6f6;stroke:none"/><path inkscape:connector-curvature="0" id="path168" d="m 212.89,469.917 c 0.438,-2.652 0.528,-3.798 -0.267,-5.416 -0.507,-1.035 -0.213,-1.579 0.453,-2.465 1.215,0.824 2.37,2.123 3.025,3.194 0.476,0.78 0.205,2.05 -0.422,2.714 -0.593,0.626 -1.7,1.457 -2.789,1.973 z" style="fill:#f5f6f6;stroke:none"/><path inkscape:connector-curvature="0" id="path170" d="m 315.931,471.79 c 2.155,-0.639 4.31,-1.28 6.465,-1.919 2.42,-0.058 4.839,-0.115 7.259,-0.172 l 0.159,0.322 0.291,0.529 0.338,0.559 0.388,0.59 0.441,0.624 0.499,0.658 0.559,0.695 0.625,0.734 0.692,0.774 0.766,0.816 0.841,0.861 0.921,0.906 1.005,0.954 1.091,1.002 c 0.79,0.717 1.577,1.439 2.362,2.162 0.139,0.844 0.191,1.704 0.213,2.568 0.05,1.881 -0.222,3.169 1.036,4.672 0.255,0.305 0.543,0.605 0.857,0.9 2.287,1.475 1.812,3.046 -0.371,4.774 -1.103,-0.018 -2.21,0.978 -4.008,2.764 -2.792,2.772 -5.427,5.609 -6.532,10.385 -0.286,1.237 -0.777,2.417 -1.166,3.626 -0.671,0.178 -1.342,0.356 -2.013,0.533 -1.407,0.653 -2.454,1.462 -3.377,2.323 -0.319,-0.03 -0.639,-0.059 -0.96,-0.086 -0.789,-0.056 -1.578,-0.102 -2.369,-0.138 l -1.603,-0.044 c -1.137,-0.009 -2.27,-0.004 -3.406,0.04 -0.639,0.033 -1.275,0.077 -1.912,0.133 -0.522,0.051 -1.041,0.11 -1.56,0.178 1.529,-1.051 3.059,-2.101 4.589,-3.152 8.665,-6.354 15.102,-10.2 15.488,-16.401 0.082,-1.32 0.393,-2.195 0.248,-2.865 -0.087,-0.402 -0.647,-0.729 -0.967,-1.029 -6.506,-6.095 -12.225,-12.615 -16.889,-19.276 z" style="fill:#f5f6f6;stroke:none"/><path inkscape:connector-curvature="0" id="path172" d="m 318.663,461.977 c 0.257,-0.078 0.514,-0.154 0.77,-0.231 -0.065,0.081 -0.139,0.149 -0.23,0.195 -0.17,0.084 -0.354,0.07 -0.54,0.036 z" style="fill:#f5f6f6;stroke:none"/><path inkscape:connector-curvature="0" id="path174" d="m 316.73,462.557 c 0.215,-0.065 0.43,-0.129 0.644,-0.194 -0.098,0.092 -0.209,0.168 -0.358,0.197 -0.089,0.016 -0.185,0.012 -0.286,-0.003 z" style="fill:#f5f6f6;stroke:none"/><path inkscape:connector-curvature="0" id="path176" d="m 329.202,466.506 c -12.203,4.866 -20.807,6.245 -34.004,6.798 l 1.879,-2.438 2.627,-0.596 0.468,-0.182 0.628,-0.33 0.212,-0.158 c 9.389,-1.407 18.709,-3.058 27.686,-5.919 0.465,0.891 0.379,1.717 0.504,2.825 z" style="fill:#f5f6f6;stroke:none"/><path inkscape:connector-curvature="0" id="path178" d="m 293.017,471.966 c 0.479,0.496 0.922,1.03 1.319,1.607 -0.075,0.083 -0.149,0.165 -0.224,0.247 -0.446,0.486 -0.756,0.839 -1.02,1.093 -0.556,-0.584 -1.187,-1.141 -1.853,-1.654 0.096,-0.005 0.191,-0.013 0.286,-0.023 0.321,-0.048 0.567,-0.134 0.825,-0.339 0.292,-0.263 0.478,-0.591 0.667,-0.931 z" style="fill:#f5f6f6;stroke:none"/><path inkscape:connector-curvature="0" id="path180" d="m 292.712,475.229 c -0.516,0.347 -1.028,0.315 -2.429,0.246 -3.028,-0.148 -5.459,-0.538 -7.601,-1.248 -2.615,-0.402 -1.007,-0.75 -0.136,-1.054 0.089,-0.055 0.18,-0.108 0.272,-0.16 0.788,0.075 1.575,0.143 2.369,0.166 1.066,0.024 2.123,-0.021 3.184,-0.121 0.492,-0.049 0.983,-0.11 1.474,-0.171 0.233,0.155 0.463,0.315 0.692,0.48 0.561,0.418 1.094,0.856 1.614,1.325 0.189,0.177 0.375,0.356 0.561,0.537 z" style="fill:#f5f6f6;stroke:none"/><path inkscape:connector-curvature="0" id="path182" d="m 295.789,446.827 c 0.36,0.132 0.724,0.274 1.091,0.425 1.785,0.735 3.018,1.966 2.777,5.616 -0.102,2.648 -0.486,5.359 -0.208,7.995 0.198,1.865 1.012,3.62 1.714,5.358 1.199,2.971 -0.983,3.659 -4.385,4.194 -0.546,0.915 -1.292,1.856 -2.107,2.782 -0.097,-0.141 -0.196,-0.281 -0.297,-0.419 -0.253,-0.343 -0.53,-0.666 -0.822,-0.976 0.071,-0.077 0.141,-0.154 0.21,-0.233 0.301,-0.353 0.539,-0.705 0.672,-1.155 0.067,-0.244 0.137,-0.485 0.213,-0.725 0.179,-0.527 0.381,-1.018 0.657,-1.5 0.213,-0.352 0.452,-0.671 0.709,-0.991 l 0.259,-0.321 c 0.367,-0.463 0.706,-0.951 0.999,-1.465 l 0.117,-0.249 0.179,-0.515 0.114,-0.535 c 0.037,-0.279 0.058,-0.548 0.07,-0.829 0,-0.286 -0.01,-0.568 -0.028,-0.853 -0.079,-0.885 -0.236,-1.747 -0.406,-2.617 -0.181,-0.917 -0.362,-1.827 -0.449,-2.759 -0.277,-3.418 -0.692,-6.822 -1.079,-10.228 z" style="fill:#f5f6f6;stroke:none"/><path inkscape:connector-curvature="0" id="path184" d="m 286.548,446.254 c 0.438,-0.168 0.886,-0.299 1.344,-0.396 0.094,0.255 0.19,0.509 0.295,0.76 0.192,0.438 0.403,0.858 0.635,1.276 0.619,1.08 1.343,2.088 2.041,3.118 0.409,0.613 0.815,1.231 1.156,1.885 0.153,0.32 0.287,0.638 0.411,0.97 0.119,0.348 0.224,0.695 0.319,1.051 0.16,0.652 0.28,1.301 0.378,1.965 0.064,0.481 0.118,0.961 0.165,1.444 0.083,0.94 0.14,1.882 0.201,2.824 0.05,0.288 0.088,0.568 0.114,0.859 0.013,0.269 0.015,0.531 0.006,0.801 -0.019,0.264 -0.048,0.52 -0.087,0.782 -0.05,0.26 -0.107,0.511 -0.175,0.767 -0.103,0.344 -0.22,0.672 -0.356,1.005 -0.148,0.337 -0.308,0.661 -0.482,0.986 -0.237,0.416 -0.488,0.814 -0.757,1.21 -0.346,0.49 -0.707,0.96 -1.086,1.423 l -0.237,0.284 c -0.259,-0.163 -0.521,-0.318 -0.786,-0.467 -0.006,-0.003 -0.011,-0.006 -0.016,-0.009 -0.127,-0.072 -0.255,-0.142 -0.383,-0.212 -0.167,-0.089 -0.336,-0.175 -0.505,-0.261 0,0 0,0 -10e-4,0 -0.003,-0.002 -0.006,-0.003 -0.009,-0.005 -0.002,-0.001 -0.005,-0.003 -0.008,-0.004 -0.002,-10e-4 -0.004,-0.003 -0.007,-0.004 -0.001,0 -0.001,0 -0.001,-10e-4 -10e-4,0 -10e-4,0 -10e-4,0 -0.003,-0.001 -0.005,-0.003 -0.008,-0.004 0.867,-1.078 1.693,-2.192 2.536,-3.291 1.246,-1.622 1.423,-1.714 1.156,-3.871 -0.144,-1.149 -0.435,-2.332 -0.845,-3.541 -1.705,-3.798 -3.483,-7.546 -5.007,-11.344 z" style="fill:#f5f6f6;stroke:none"/></g></svg>