<?xml version="1.0" encoding="UTF-8" standalone="no"?>
<svg xmlns:dc="http://purl.org/dc/elements/1.1/" xmlns:cc="http://creativecommons.org/ns#" xmlns:rdf="http://www.w3.org/1999/02/22-rdf-syntax-ns#" xmlns:svg="http://www.w3.org/2000/svg" xmlns="http://www.w3.org/2000/svg" xmlns:sodipodi="http://sodipodi.sourceforge.net/DTD/sodipodi-0.dtd" xmlns:inkscape="http://www.inkscape.org/namespaces/inkscape" height="600" version="1.1" width="900" id="svg184" sodipodi:docname="Flag_of_Smolensk_oblast.svg" inkscape:version="1.0 (4035a4fb49, 2020-05-01)">
  <metadata id="metadata190">
    <rdf:RDF>
      <cc:Work rdf:about="">
        <dc:format>image/svg+xml</dc:format>
        <dc:type rdf:resource="http://purl.org/dc/dcmitype/StillImage"/>
      </cc:Work>
    </rdf:RDF>
  </metadata>
  <defs id="defs188">
  </defs>
  <sodipodi:namedview inkscape:document-rotation="0" pagecolor="#ffffff" bordercolor="#666666" borderopacity="1" objecttolerance="10" gridtolerance="10" guidetolerance="10" inkscape:pageopacity="0" inkscape:pageshadow="2" inkscape:window-width="1920" inkscape:window-height="1052" id="namedview186" showgrid="false" inkscape:zoom="32" inkscape:cx="210.88228" inkscape:cy="227.27341" inkscape:window-x="-8" inkscape:window-y="-8" inkscape:window-maximized="1" inkscape:current-layer="svg184"/>
  <rect id="rect2" y="4.3896485e-05" x="9.1796874e-06" width="900" style="fill:#c60001;fill-opacity:1" height="600"/>
  <path d="m 142.39743,73.666597 c -4.50926,0.06183 -9.13784,1.406854 -13.67337,4.497967 -20.1489,13.732161 2.63597,39.954506 2.63597,39.954506 l 0.0112,0.0112 c 1.99336,-0.0813 4.18308,0.40767 6.66282,1.78348 5.6152,-6.78177 11.32074,-13.4049 26.14654,-4.36336 3.22547,-3.22548 4.91011,-7.30219 13.13496,-7.30219 8.22485,0 9.90948,4.07671 13.13496,7.30219 14.82579,-9.04154 20.53133,-2.41841 26.14653,4.36336 2.47974,-1.37581 4.66947,-1.86478 6.66283,-1.78348 l 0.0112,-0.0112 c 0,0 22.78487,-26.222345 2.63596,-39.954506 -4.53548,-3.091113 -9.16407,-4.436133 -13.67333,-4.497967 -16.10451,-0.220838 -30.7692,15.897076 -34.91813,27.066323 -4.14894,-11.169247 -18.81363,-27.287161 -34.91814,-27.066323 z" style="fill:#c60001;stroke-width:0.35894;fill-opacity:1" id="path4"/>
  <path d="m 142.20677,71.008178 c -4.96483,-0.03667 -10.0622,1.166329 -15.0194,4.071726 -24.70795,14.481237 0.60571,43.813116 0.60571,43.813116 0.003,-0.001 0.008,10e-4 0.0112,0 1.1283,-0.43484 2.31068,-0.71052 3.56696,-0.76275 l -0.0112,-0.0112 c 0,0 -22.78487,-26.222346 -2.63597,-39.954508 4.53553,-3.091112 9.16411,-4.436132 13.67337,-4.497967 16.10451,-0.220837 30.7692,15.897076 34.91813,27.066315 4.14894,-11.169239 18.81363,-27.287152 34.91814,-27.066315 4.50926,0.06184 9.13784,1.406855 13.67337,4.497967 20.1489,13.732162 -2.63597,39.954508 -2.63597,39.954508 l -0.0112,0.0112 c 1.25629,0.0522 2.43867,0.32791 3.56697,0.76275 0.003,10e-4 0.008,-0.001 0.0112,0 0,0 25.31366,-29.331879 0.60571,-43.813116 -4.9572,-2.905397 -10.05457,-4.108395 -15.01939,-4.071726 -16.21844,0.119789 -31.04287,13.52936 -35.10882,24.475221 -4.06596,-10.945861 -18.89039,-24.355432 -35.10882,-24.475221 z m -6.30389,47.918492 c 0.19943,0.0755 0.40233,0.14804 0.60571,0.23555 -0.20182,-0.0871 -0.4078,-0.16021 -0.60571,-0.23555 z m 82.82541,0 c -0.19943,0.0755 -0.40233,0.14804 -0.60571,0.23555 0.20182,-0.0871 0.4078,-0.16021 0.60571,-0.23555 z" style="fill:#f8d501;stroke:#000000;stroke-width:0.753774;stroke-linejoin:round;fill-opacity:1" id="path6"/>
  <path d="m 216.2144,145.80372 a 38.898917,8.2461082 0 1 1 -77.79783,0 38.898917,8.2461082 0 1 1 77.79783,0 z" style="fill:#c60001;stroke:#000000;stroke-width:0.753774;stroke-linejoin:round;fill-opacity:1" id="path8"/>
  <path d="m 177.31557,108.24822 c -8.22486,0 -9.90949,4.07671 -13.13496,7.30219 -14.8258,-9.04155 -20.53134,-2.41841 -26.14654,4.36336 -5.78443,-3.20933 -9.97043,-1.633 -13.84162,0.89735 6.32353,8.03621 11.7411,16.23468 14.22299,24.9912 0,-4.55421 17.41687,-8.2444 38.90013,-8.2444 21.48325,0 38.90012,3.69019 38.90012,8.2444 2.48189,-8.75652 7.89946,-16.95499 14.223,-24.9912 -3.8712,-2.53035 -8.0572,-4.10668 -13.84163,-0.89735 -5.6152,-6.78177 -11.32074,-13.40491 -26.14653,-4.36336 -3.22548,-3.22548 -4.91011,-7.30219 -13.13496,-7.30219 z" style="fill:#f2f2f2;stroke:#000000;stroke-width:0.71788;stroke-linejoin:round" id="path10"/>
  <path d="m 239.58826,114.24195 a 4.1697,4.1697 0 1 1 -8.3394,0 4.1697,4.1697 0 1 1 8.3394,0 z" style="fill:#f2f2f2;stroke:#000000;stroke-width:0.358938;stroke-linejoin:round" id="path12"/>
  <path d="m 243.95412,105.47725 a 4.1697,4.1697 0 1 1 -8.3394,0 4.1697,4.1697 0 1 1 8.3394,0 z" style="fill:#f2f2f2;stroke:#000000;stroke-width:0.358938;stroke-linejoin:round" id="path14"/>
  <path d="m 246.29557,96.435002 a 4.1697,4.1697 0 1 1 -8.3394,0 4.1697,4.1697 0 1 1 8.3394,0 z" style="fill:#f2f2f2;stroke:#000000;stroke-width:0.358938;stroke-linejoin:round" id="path16"/>
  <path d="m 242.82819,89.449033 a 4.1697036,4.1697036 0 1 1 -2.83746,-7.841842 4.1697036,4.1697036 0 1 1 2.83746,7.841842 z" style="fill:#f2f2f2;stroke:#000000;stroke-width:0.358938;stroke-linejoin:round" id="path18"/>
  <path d="m 233.65602,80.147516 a 4.1697408,4.1697408 0 1 1 4.98802,-6.683304 4.1697408,4.1697408 0 1 1 -4.98802,6.683304 z" style="fill:#f2f2f2;stroke:#000000;stroke-width:0.358941;stroke-linejoin:round" id="path20"/>
  <path d="m 231.04693,72.786022 a 4.169726,4.169726 0 1 1 -6.91553,-4.660674 4.169726,4.169726 0 1 1 6.91553,4.660674 z" style="fill:#f2f2f2;stroke:#000000;stroke-width:0.35894;stroke-linejoin:round" id="path22"/>
  <path d="m 221.86848,67.279189 a 4.1697,4.1697 0 1 1 -8.3394,0 4.1697,4.1697 0 1 1 8.3394,0 z" style="fill:#f2f2f2;stroke:#000000;stroke-width:0.358938;stroke-linejoin:round" id="path24"/>
  <path d="m 211.11609,67.373375 a 4.1697,4.1697 0 1 1 -8.3394,0 4.1697,4.1697 0 1 1 8.3394,0 z" style="fill:#f2f2f2;stroke:#000000;stroke-width:0.358938;stroke-linejoin:round" id="path26"/>
  <path d="m 199.31592,73.895716 a 4.1696983,4.1696983 0 1 1 -2.83468,-7.842839 4.1696983,4.1696983 0 1 1 2.83468,7.842839 z" style="fill:#f2f2f2;stroke:#000000;stroke-width:0.358938;stroke-linejoin:round" id="path28"/>
  <path d="m 115.04214,114.24195 a 4.1697,4.1697 0 1 0 8.3394,0 4.1697,4.1697 0 1 0 -8.3394,0 z" style="fill:#f2f2f2;stroke:#000000;stroke-width:0.358938;stroke-linejoin:round" id="path30"/>
  <path d="m 110.67628,105.47725 a 4.1697,4.1697 0 1 0 8.3394,0 4.1697,4.1697 0 1 0 -8.3394,0 z" style="fill:#f2f2f2;stroke:#000000;stroke-width:0.358938;stroke-linejoin:round" id="path32"/>
  <path d="m 108.33483,96.435002 a 4.1697,4.1697 0 1 0 8.3394,0 4.1697,4.1697 0 1 0 -8.3394,0 z" style="fill:#f2f2f2;stroke:#000000;stroke-width:0.358938;stroke-linejoin:round" id="path34"/>
  <path d="m 111.8022,89.449033 a 4.1697039,4.1697039 0 1 0 2.83747,-7.841842 4.1697039,4.1697039 0 1 0 -2.83747,7.841842 z" style="fill:#f2f2f2;stroke:#000000;stroke-width:0.358938;stroke-linejoin:round" id="path36"/>
  <path d="m 120.97438,80.147516 a 4.1697408,4.1697408 0 1 0 -4.98802,-6.683304 4.1697408,4.1697408 0 1 0 4.98802,6.683304 z" style="fill:#f2f2f2;stroke:#000000;stroke-width:0.358941;stroke-linejoin:round" id="path38"/>
  <path d="m 123.58347,72.786022 a 4.169726,4.169726 0 1 0 6.91553,-4.660674 4.169726,4.169726 0 1 0 -6.91553,4.660674 z" style="fill:#f2f2f2;stroke:#000000;stroke-width:0.35894;stroke-linejoin:round" id="path40"/>
  <path d="m 132.76192,67.279189 a 4.1697,4.1697 0 1 0 8.3394,0 4.1697,4.1697 0 1 0 -8.3394,0 z" style="fill:#f2f2f2;stroke:#000000;stroke-width:0.358938;stroke-linejoin:round" id="path42"/>
  <path d="m 143.51431,67.373375 a 4.1697,4.1697 0 1 0 8.3394,0 4.1697,4.1697 0 1 0 -8.3394,0 z" style="fill:#f2f2f2;stroke:#000000;stroke-width:0.358938;stroke-linejoin:round" id="path44"/>
  <path d="m 155.31448,73.895716 a 4.1696983,4.1696983 0 1 0 2.83468,-7.842839 4.1696983,4.1696983 0 1 0 -2.83468,7.842839 z" style="fill:#f2f2f2;stroke:#000000;stroke-width:0.358938;stroke-linejoin:round" id="path46"/>
  <path d="m 163.02527,73.11697 c -0.84342,0.719779 -1.53538,1.06575 -2.69205,2.568664 6.23645,7.798011 11.04852,17.985486 13.02279,32.943966 l 3.95956,-0.38138 3.95955,0.38138 c 1.97427,-14.95848 6.78634,-25.145955 13.02279,-32.943966 -1.15667,-1.502914 -1.84863,-1.848885 -2.69205,-2.568664 -4.38136,2.218019 -8.15218,5.057432 -14.29029,5.518702 -6.13812,-0.46127 -9.90894,-3.300683 -14.2903,-5.518702 z" style="fill:#f8d501;stroke:#000000;stroke-width:0.753774;stroke-linejoin:round;fill-opacity:1" id="path48"/>
  <path d="m 174.73461,41.998803 v 6.420618 h -4.82685 v 4.426646 h 4.82685 v 4.607698 h 5.16191 v -4.607698 h 4.82685 v -4.426646 h -4.82685 v -6.420618 z" style="fill:#f8d501;stroke:#000000;stroke-width:0.35894;stroke-linejoin:round;fill-opacity:1" id="path50"/>
  <path d="m 188.07385,67.877283 a 10.758502,10.758502 0 1 1 -21.517,0 10.758502,10.758502 0 1 1 21.517,0 z" style="fill:#f8d501;stroke:#000000;stroke-width:0.358941;stroke-linejoin:round;fill-opacity:1" id="path52"/>
  <path d="m 163.02527,73.11697 c 4.34444,9.019276 11.94675,19.652435 11.97962,35.25464 0.71051,-0.0794 1.47302,-0.12339 2.31068,-0.12339 0.83765,0 1.60016,0.044 2.31067,0.12339 0.0329,-15.602205 7.63518,-26.235364 11.97962,-35.25464 -4.38136,2.218019 -8.15218,5.057432 -14.29029,5.518702 -6.13812,-0.46127 -9.90894,-3.300683 -14.2903,-5.518702 z" style="fill:#f8d501;stroke:#000000;stroke-width:0.753774;stroke-linejoin:round;fill-opacity:1" id="path54"/>
  <path d="m 177.31557,57.121706 c -1.04719,0.08041 -2.5355,0.02861 -3.26412,0.666121 0,2.989726 0,5.979449 0,8.969175 -2.4532,-0.124229 -4.90875,-0.359138 -7.3134,-0.874916 -0.34665,1.885364 -0.19053,3.860812 0.45988,5.664521 5.04597,0.95033 10.22658,1.030585 15.33631,0.658576 1.64257,-0.135722 3.28204,-0.335095 4.89893,-0.658576 0.65076,-1.803138 0.80665,-3.779699 0.45989,-5.664521 -2.40456,0.516277 -4.8602,0.750708 -7.3134,0.874916 0,-3.043513 0,-6.087023 0,-9.130536 -1.05323,-0.335861 -2.15881,-0.505384 -3.26409,-0.50476 z" style="fill:#f8d501;stroke:#000000;stroke-width:0.35894;stroke-linejoin:round;fill-opacity:1" id="path56"/>
  <path d="m 190.31913,121.9923 c 0,0 -2.97916,3.16738 -3.26892,5.19182 -0.29274,2.04524 1.41012,5.76868 1.41012,5.76868 0,0 3.62513,-3.26556 4.64699,-4.99953 0.61081,-1.03646 1.05759,-4.90337 1.05759,-4.90337 l -1.37807,-0.0641 c -0.2373,3.70236 -2.0588,4.23629 -3.30096,5.92892 0,0 -0.5507,-0.84454 -0.54483,-1.44217 0.0189,-1.92387 2.43567,-4.99952 2.43567,-4.99952 -0.23392,-0.81258 -0.6601,-0.56774 -1.05759,-0.48073 z" style="fill:#999999;stroke-width:0.35894" id="path58"/>
  <path d="m 203.3307,114.74941 c 0,0 -2.97915,3.16737 -3.26892,5.19181 -0.29273,2.04524 1.41013,5.76868 1.41013,5.76868 0,0 3.62513,-3.26555 4.64699,-4.99952 0.6108,-1.03647 1.05759,-4.90338 1.05759,-4.90338 l -1.37807,-0.0641 c -0.2373,3.70236 -2.05881,4.2363 -3.30097,5.92892 0,0 -0.55069,-0.84453 -0.54482,-1.44217 0.0189,-1.92386 2.43567,-4.99952 2.43567,-4.99952 -0.23393,-0.81258 -0.66011,-0.56774 -1.0576,-0.48072 z" style="fill:#999999;stroke-width:0.35894" id="path60"/>
  <path d="m 211.36223,127.31713 c 0,0 -2.76546,2.94018 -3.03444,4.8194 -0.27173,1.89853 1.30898,5.35489 1.30898,5.35489 0,0 3.36509,-3.03132 4.31365,-4.6409 0.567,-0.96212 0.98173,-4.55165 0.98173,-4.55165 l -1.27921,-0.0595 c -0.22028,3.43679 -1.91113,3.93242 -3.06419,5.50364 0,0 -0.51119,-0.78396 -0.50574,-1.33873 0.0175,-1.78586 2.26095,-4.6409 2.26095,-4.6409 -0.21714,-0.75429 -0.61275,-0.52701 -0.98173,-0.44624 z" style="fill:#999999;stroke-width:0.35894" id="path62"/>
  <path d="m 220.9767,122.4458 c 0,0 -2.76546,2.94018 -3.03444,4.8194 -0.27174,1.89854 1.30897,5.35489 1.30897,5.35489 0,0 3.3651,-3.03132 4.31366,-4.6409 0.56699,-0.96212 0.98173,-4.55165 0.98173,-4.55165 l -1.27922,-0.0595 c -0.22028,3.43678 -1.91113,3.93241 -3.06419,5.50363 0,0 -0.51119,-0.78396 -0.50574,-1.33872 0.0176,-1.78587 2.26096,-4.64091 2.26096,-4.64091 -0.21715,-0.75429 -0.61276,-0.52701 -0.98173,-0.44624 z" style="fill:#999999;stroke-width:0.35894" id="path64"/>
  <path d="m 175.06418,112.63423 c 0,0 -2.97916,3.16737 -3.26892,5.19181 -0.29274,2.04524 1.41012,5.76868 1.41012,5.76868 0,0 3.62513,-3.26556 4.64699,-4.99952 0.61081,-1.03647 1.05759,-4.90338 1.05759,-4.90338 l -1.37807,-0.0641 c -0.2373,3.70236 -2.0588,4.23629 -3.30096,5.92892 0,0 -0.5507,-0.84454 -0.54483,-1.44217 0.0189,-1.92387 2.43567,-4.99952 2.43567,-4.99952 -0.23392,-0.81258 -0.6601,-0.56774 -1.05759,-0.48072 z" style="fill:#999999;stroke-width:0.35894" id="path66"/>
  <path d="m 164.32623,123.59471 c 0,0 2.97916,3.16738 3.26892,5.19182 0.29274,2.04524 -1.41012,5.76867 -1.41012,5.76867 0,0 -3.62513,-3.26555 -4.64699,-4.99952 -0.61081,-1.03646 -1.05759,-4.90337 -1.05759,-4.90337 l 1.37807,-0.0641 c 0.2373,3.70236 2.05881,4.23629 3.30097,5.92892 0,0 0.55069,-0.84454 0.54482,-1.44217 -0.0189,-1.92387 -2.43567,-4.99952 -2.43567,-4.99952 0.23393,-0.81259 0.66011,-0.56774 1.05759,-0.48073 z" style="fill:#999999;stroke-width:0.35894" id="path68"/>
  <path d="m 153.85716,116.92868 c 0,0 2.97916,3.16738 3.26892,5.19182 0.29273,2.04524 -1.41013,5.76868 -1.41013,5.76868 0,0 -3.62513,-3.26556 -4.64699,-4.99953 -0.6108,-1.03646 -1.05759,-4.90337 -1.05759,-4.90337 l 1.37807,-0.0641 c 0.2373,3.70236 2.05881,4.23629 3.30097,5.92892 0,0 0.55069,-0.84454 0.54482,-1.44217 -0.0189,-1.92387 -2.43566,-4.99952 -2.43566,-4.99952 0.23392,-0.81258 0.6601,-0.56774 1.05759,-0.48073 z" style="fill:#999999;stroke-width:0.35894" id="path70"/>
  <path d="m 143.38807,126.79953 c 0,0 2.97916,3.16738 3.26892,5.19182 0.29274,2.04524 -1.41013,5.76868 -1.41013,5.76868 0,0 -3.62512,-3.26556 -4.64698,-4.99953 -0.61081,-1.03646 -1.05759,-4.90337 -1.05759,-4.90337 l 1.37807,-0.0641 c 0.23729,3.70236 2.0588,4.23629 3.30096,5.92892 0,0 0.5507,-0.84454 0.54482,-1.44217 -0.0189,-1.92387 -2.43566,-4.99952 -2.43566,-4.99952 0.23392,-0.81258 0.6601,-0.56774 1.05759,-0.48073 z" style="fill:#999999;stroke-width:0.35894" id="path72"/>
  <path d="m 133.04718,120.90266 c 0,0 2.97915,3.16738 3.26892,5.19182 0.29273,2.04524 -1.41013,5.76867 -1.41013,5.76867 0,0 -3.62513,-3.26555 -4.64699,-4.99952 -0.6108,-1.03646 -1.05759,-4.90337 -1.05759,-4.90337 l 1.37807,-0.0641 c 0.2373,3.70236 2.05881,4.23629 3.30097,5.92892 0,0 0.55069,-0.84454 0.54482,-1.44217 -0.0189,-1.92387 -2.43567,-4.99952 -2.43567,-4.99952 0.23393,-0.81259 0.66011,-0.56774 1.0576,-0.48073 z" style="fill:#999999;stroke-width:0.35894" id="path74"/>
  <path d="m 178.42756,85.437407 a 3.2726358,3.2726358 0 1 1 -2.22485,-6.155536 3.2726358,3.2726358 0 1 1 2.22485,6.155536 z" style="fill:#f2f2f2;stroke:#000000;stroke-width:0.358942;stroke-linejoin:round" id="path76"/>
  <path d="m 178.21013,91.24357 a 2.6318284,2.6318284 0 1 1 -1.78921,-4.950233 2.6318284,2.6318284 0 1 1 1.78921,4.950233 z" style="fill:#f2f2f2;stroke:#000000;stroke-width:0.358941;stroke-linejoin:round" id="path78"/>
  <path d="m 177.94773,96.353094 a 1.8628865,1.8628865 0 1 1 -1.26643,-3.503932 1.8628865,1.8628865 0 1 1 1.26643,3.503932 z" style="fill:#f2f2f2;stroke:#000000;stroke-width:0.358942;stroke-linejoin:round" id="path80"/>
  <path d="m 177.94773,100.83984 a 1.8628855,1.8628855 0 1 1 -1.26643,-3.503928 1.8628855,1.8628855 0 1 1 1.26643,3.503928 z" style="fill:#f2f2f2;stroke:#000000;stroke-width:0.358942;stroke-linejoin:round" id="path82"/>
  <path d="m 177.94773,105.83936 a 1.8628856,1.8628856 0 1 1 -1.26643,-3.50393 1.8628856,1.8628856 0 1 1 1.26643,3.50393 z" style="fill:#f2f2f2;stroke:#000000;stroke-width:0.358942;stroke-linejoin:round" id="path84"/>
  <path d="m 101.84845,145.71257 v 17.46467 84.07048 c 0,41.83561 33.78879,75.74763 75.46713,75.74755 41.67836,0 75.46714,-33.91194 75.46714,-75.74755 v -84.07048 -17.46467 l -8.33414,5.44018 -8.34535,-5.44018 v 17.46467 h -16.8814 v -17.46467 l -8.34536,5.44018 -8.33413,-5.44018 v 17.46467 h -16.89262 v -17.46467 l -8.33414,5.44018 -8.34535,-5.44018 v 17.46467 h -16.8814 v -17.46467 l -8.33414,5.44018 -8.34535,-5.44018 v 17.46467 h -16.8814 v -17.46467 l -8.34535,5.44018 z" style="fill:#f2f2f2;stroke-width:0.35894" id="path86"/>
  <path d="m 101.84845,145.71257 v 17.46467 84.07048 c 0,41.83561 33.78879,75.74763 75.46713,75.74755 41.67836,0 75.46714,-33.91194 75.46714,-75.74755 v -84.07048 -17.46467 l -8.33414,5.44018 -8.34535,-5.44018 v 17.46467 h -16.8814 v -17.46467 l -8.34536,5.44018 -8.33413,-5.44018 v 17.46467 h -16.89262 v -17.46467 l -8.33414,5.44018 -8.34535,-5.44018 v 17.46467 h -16.8814 v -17.46467 l -8.33414,5.44018 -8.34535,-5.44018 v 17.46467 h -16.8814 v -17.46467 l -8.34535,5.44018 z" style="fill:none;stroke:#000000;stroke-width:1.07682" id="path88"/>
  <path d="m 172.9522,226.24975 c -3.93348,0 -4.87934,3.00612 -4.87934,3.00612 h -3.3875 v 1.30116 l -38.84403,-0.40381 c -2.99245,-0.42731 -3.40967,-0.85141 -4.62136,-1.27872 -1.30196,2.21133 -2.43406,5.6628 -2.43406,8.09858 0,2.43578 1.1321,5.89847 2.43406,8.1098 1.21169,-0.42731 1.62891,-0.85141 4.62136,-1.27872 l 87.04295,-0.89735 c 4.50988,0.58281 8.36434,1.59135 9.99423,4.09416 0.72745,0.12513 1.1526,1.16675 2.31068,0 2.21095,-1.88201 1.24243,-4.58591 2.81543,-6.28145 0.72319,-0.77952 1.76938,-1.2371 2.93882,-1.57037 0.51993,1.43394 1.53243,2.41163 2.70327,2.41163 1.69918,0 3.07343,-2.05664 3.07343,-4.5877 0,-2.53106 -1.37425,-4.57649 -3.07343,-4.57649 -1.1709,0 -2.18337,0.97757 -2.70327,2.41163 -1.16944,-0.33652 -2.21563,-0.80206 -2.93882,-1.58158 -1.573,-1.69554 -0.60448,-4.39944 -2.81543,-6.28145 -0.43428,-0.43753 -0.77221,-0.55719 -1.05439,-0.53841 -0.47028,0.0313 -0.80163,0.4602 -1.25629,0.53841 -1.62989,2.50281 -5.48435,3.52257 -9.99423,4.10538 l -32.82058,-0.33651 v -1.07682 h -1.7947 c 0,0 -1.38332,-3.38749 -5.3168,-3.38749 z" id="path90" style="stroke-width:0.35894"/>
  <path d="m 234.41746,235.92371 a 0.83325408,2.3074729 0 1 1 -1.6665,0 0.83325408,2.3074729 0 1 1 1.6665,0 z" style="opacity:0.880952;fill:#ffffff;stroke-width:0.35894" id="path92"/>
  <rect height="1.6665071" rx="5.9848995" ry="0.83325356" style="opacity:1;fill:#f2f2f2;stroke-width:0.33375" width="71.375458" x="130.96584" y="231.94972" id="rect94"/>
  <path id="path96" style="fill:#f8d501;stroke:#000000;stroke-width:0.53841;stroke-linejoin:round;fill-opacity:1" d="m 186.96208,243.17601 -40.56022,0.41503 v 11.2393 h 20.26889 l 20.63905,34.35729 h 25.0585 l -2.11999,-3.26411 c -5.06295,-8.40932 0.62855,-19.6318 -13.25835,-21.7383 l -10.00545,-21.00921 z"/>
  <path id="path98" style="fill:#c60001;fill-opacity:1;stroke:#000000;stroke-width:0.53841;stroke-linejoin:round" d="m 198.96413,243.05263 -11.97962,0.12338 10.00545,21.00921 c 13.8869,2.1065 8.1954,13.32898 13.25835,21.7383 l 2.11999,3.26411 9.02958,-6.32631 -2.11999,-3.26411 c -5.06294,-8.40932 0.61734,-19.62059 -13.26956,-21.72709 z"/>
  <path id="path100" style="fill:#c60001;fill-opacity:1;stroke:#000000;stroke-width:0.53841;stroke-linejoin:round" d="m 198.96413,243.05263 -5.98981,0.0561 8.52483,17.91335 c 13.88689,2.1065 8.1954,13.32899 13.25834,21.7383 l 2.11999,3.26411 4.5204,-3.16315 -2.11999,-3.26411 c -5.06294,-8.40932 0.61734,-19.62059 -13.26956,-21.72709 z"/>
  <g style="fill:#f8d501;fill-opacity:1" transform="matrix(0.35894,0,0,0.35894,50.645155,-55.894645)" id="g146">
    <path d="m 297.6875,812 c -40.92825,0 -74.125,33.19675 -74.125,74.125 0,40.92825 33.19675,74.09375 74.125,74.09375 40.92825,0 74.09375,-33.1655 74.09375,-74.09375 0,-40.92825 -33.1655,-74.125 -74.09375,-74.125 z m 0,10.625 c 35.06769,0 63.5,28.43231 63.5,63.5 0,35.06769 -28.43231,63.46875 -63.5,63.46875 -35.06769,0 -63.5,-28.40106 -63.5,-63.46875 0,-35.06769 28.43231,-63.5 63.5,-63.5 z" style="fill:#f8d501;stroke:#000000;stroke-width:1.5;fill-opacity:1" id="path104"/>
    <path d="m 278.21875,826.71875 c 7.2335,6.72929 15.88472,12.81984 13.34375,19.625 -2.57316,6.89135 -3.34821,8.64398 -3.34821,10.5 0,5.23146 4.3484,9.46875 9.45759,9.46875 5.10919,0 9.48883,-4.23729 9.48883,-9.46875 0,-1.85602 -0.77505,-3.60865 -3.34821,-10.5 -2.54097,-6.80516 6.11025,-12.89571 13.34375,-19.625 -3.66323,3.22062 -10.9971,5.4375 -19.46875,5.4375 -8.47165,0 -15.80552,-2.21688 -19.46875,-5.4375 z" style="fill:#f8d501;stroke:#000000;stroke-width:1.5;fill-opacity:1" id="path106"/>
    <path d="m 297.6875,822.625 c -7.09373,0 -13.91098,1.16603 -20.28125,3.3125 3.30847,3.64328 11.13748,6.21875 20.28125,6.21875 9.1561,0 16.98056,-2.56764 20.28125,-6.21875 -6.37027,-2.14647 -13.18752,-3.3125 -20.28125,-3.3125 z" style="fill:#f8d501;stroke:#000000;stroke-width:1.5;fill-opacity:1" id="path108"/>
    <path d="m 357.06535,866.64956 c -6.72929,7.2335 -12.81984,15.88472 -19.625,13.34375 -6.89135,-2.57316 -8.64398,-3.34821 -10.5,-3.34821 -5.23146,0 -9.46875,4.3484 -9.46875,9.45759 0,5.10919 4.23729,9.48883 9.46875,9.48883 1.85602,0 3.60865,-0.77505 10.5,-3.34821 6.80516,-2.54097 12.89571,6.11025 19.625,13.34375 -3.22062,-3.66323 -5.4375,-10.9971 -5.4375,-19.46875 0,-8.47165 2.21688,-15.80552 5.4375,-19.46875 z" style="fill:#f8d501;stroke:#000000;stroke-width:1.5;fill-opacity:1" id="path110"/>
    <path d="m 361.1591,886.11831 c 0,-7.09373 -1.16603,-13.91098 -3.3125,-20.28125 -3.64328,3.30847 -6.21875,11.13748 -6.21875,20.28125 0,9.1561 2.56764,16.98056 6.21875,20.28125 2.14647,-6.37027 3.3125,-13.18752 3.3125,-20.28125 z" style="fill:#f8d501;stroke:#000000;stroke-width:1.5;fill-opacity:1" id="path112"/>
    <path d="m 278.21206,945.50285 c 7.2335,-6.72929 15.88472,-12.81984 13.34375,-19.625 -2.57316,-6.89135 -3.34821,-8.64398 -3.34821,-10.5 0,-5.23146 4.3484,-9.46875 9.45759,-9.46875 5.10919,0 9.48883,4.23729 9.48883,9.46875 0,1.85602 -0.77505,3.60865 -3.34821,10.5 -2.54097,6.80516 6.11025,12.89571 13.34375,19.625 -3.66323,-3.22062 -10.9971,-5.4375 -19.46875,-5.4375 -8.47165,0 -15.80552,2.21688 -19.46875,5.4375 z" style="fill:#f8d501;stroke:#000000;stroke-width:1.5;fill-opacity:1" id="path114"/>
    <path d="m 297.68081,949.5966 c -7.09373,0 -13.91098,-1.16603 -20.28125,-3.3125 3.30847,-3.64328 11.13748,-6.21875 20.28125,-6.21875 9.1561,0 16.98056,2.56764 20.28125,6.21875 -6.37027,2.14647 -13.18752,3.3125 -20.28125,3.3125 z" style="fill:#f8d501;stroke:#000000;stroke-width:1.5;fill-opacity:1" id="path116"/>
    <path d="m 357.06535,866.64956 c -6.72929,7.2335 -12.81984,15.88472 -19.625,13.34375 -6.89135,-2.57316 -8.64398,-3.34821 -10.5,-3.34821 -5.23146,0 -9.46875,4.3484 -9.46875,9.45759 0,5.10919 4.23729,9.48883 9.46875,9.48883 1.85602,0 3.60865,-0.77505 10.5,-3.34821 6.80516,-2.54097 12.89571,6.11025 19.625,13.34375 -3.22062,-3.66323 -5.4375,-10.9971 -5.4375,-19.46875 0,-8.47165 2.21688,-15.80552 5.4375,-19.46875 z" style="fill:#f8d501;stroke:#000000;stroke-width:1.5;fill-opacity:1" id="path118"/>
    <path d="m 361.1591,886.11831 c 0,-7.09373 -1.16603,-13.91098 -3.3125,-20.28125 -3.64328,3.30847 -6.21875,11.13748 -6.21875,20.28125 0,9.1561 2.56764,16.98056 6.21875,20.28125 2.14647,-6.37027 3.3125,-13.18752 3.3125,-20.28125 z" style="fill:#f8d501;stroke:#000000;stroke-width:1.5;fill-opacity:1" id="path120"/>
    <path d="m 238.28511,905.57205 c 6.72929,-7.2335 12.81984,-15.88472 19.625,-13.34375 6.89135,2.57316 8.64398,3.34821 10.5,3.34821 5.23146,0 9.46875,-4.3484 9.46875,-9.45759 0,-5.10919 -4.23729,-9.48883 -9.46875,-9.48883 -1.85602,0 -3.60865,0.77505 -10.5,3.34821 -6.80516,2.54097 -12.89571,-6.11025 -19.625,-13.34375 3.22062,3.66323 5.4375,10.9971 5.4375,19.46875 0,8.47165 -2.21688,15.80552 -5.4375,19.46875 z" style="fill:#f8d501;stroke:#000000;stroke-width:1.5;fill-opacity:1" id="path122"/>
    <path d="m 234.19136,886.1033 c 0,7.09373 1.16603,13.91098 3.3125,20.28125 3.64328,-3.30847 6.21875,-11.13748 6.21875,-20.28125 0,-9.1561 -2.56764,-16.98056 -6.21875,-20.28125 -2.14647,6.37027 -3.3125,13.18752 -3.3125,20.28125 z" style="fill:#f8d501;stroke:#000000;stroke-width:1.5;fill-opacity:1" id="path124"/>
    <path d="m 241.92089,857.87203 c 9.87318,-0.35653 20.29719,-2.1672 23.31242,4.44151 3.05343,6.69242 3.74468,8.47976 5.05708,9.79217 3.6992,3.6992 9.7702,3.62063 13.38295,0.008 3.61274,-3.61275 3.7134,-9.70583 0.0142,-13.40504 -1.31241,-1.3124 -3.09975,-2.00365 -9.79217,-5.05707 -6.60871,-3.01524 -4.79804,-13.43925 -4.44151,-23.31243 -0.31297,4.86762 -3.93123,11.62102 -9.92159,17.61138 -5.99037,5.99036 -12.74377,9.60862 -17.61138,9.92159 z" style="fill:#f8d501;stroke:#000000;stroke-width:1.5;fill-opacity:1" id="path126"/>
    <path d="m 252.79265,841.21083 c -5.01602,5.01602 -9.01204,10.66105 -11.99871,16.6833 4.91563,0.23674 12.2727,-3.47807 18.73833,-9.94369 6.47434,-6.47434 10.19147,-13.82267 9.94369,-18.73833 -6.02225,2.98667 -11.66728,6.98269 -16.68331,11.99872 z" style="fill:#f8d501;stroke:#000000;stroke-width:1.5;fill-opacity:1" id="path128"/>
    <path d="m 353.4363,857.87203 c -9.87318,-0.35653 -20.29719,-2.1672 -23.31242,4.44151 -3.05343,6.69242 -3.74468,8.47976 -5.05708,9.79217 -3.6992,3.6992 -9.7702,3.62063 -13.38295,0.008 -3.61274,-3.61275 -3.7134,-9.70583 -0.0142,-13.40504 1.31241,-1.3124 3.09975,-2.00365 9.79217,-5.05707 6.60871,-3.01524 4.79804,-13.43925 4.44151,-23.31243 0.31297,4.86762 3.93123,11.62102 9.92159,17.61138 5.99037,5.99036 12.74377,9.60862 17.61138,9.92159 z" style="fill:#f8d501;stroke:#000000;stroke-width:1.5;fill-opacity:1" id="path130"/>
    <path d="m 342.56454,841.21083 c 5.01602,5.01602 9.01204,10.66105 11.99871,16.6833 -4.91563,0.23674 -12.2727,-3.47807 -18.73833,-9.94369 -6.47434,-6.47434 -10.19147,-13.82267 -9.94369,-18.73833 6.02225,2.98667 11.66728,6.98269 16.68331,11.99872 z" style="fill:#f8d501;stroke:#000000;stroke-width:1.5;fill-opacity:1" id="path132"/>
    <path d="m 241.92084,914.34673 c 9.87318,0.35653 20.29719,2.1672 23.31242,-4.44151 3.05343,-6.69242 3.74468,-8.47976 5.05708,-9.79217 3.6992,-3.6992 9.7702,-3.62063 13.38295,-0.008 3.61274,3.61275 3.7134,9.70583 0.0142,13.40504 -1.31241,1.3124 -3.09975,2.00365 -9.79217,5.05707 -6.60871,3.01524 -4.79804,13.43925 -4.44151,23.31243 -0.31297,-4.86762 -3.93123,-11.62102 -9.92159,-17.61138 -5.99037,-5.99036 -12.74377,-9.60862 -17.61138,-9.92159 z" style="fill:#f8d501;stroke:#000000;stroke-width:1.5;fill-opacity:1" id="path134"/>
    <path d="m 252.7926,931.00793 c -5.01602,-5.01602 -9.01204,-10.66105 -11.99871,-16.6833 4.91563,-0.23674 12.2727,3.47807 18.73833,9.94369 6.47434,6.47434 10.19147,13.82267 9.94369,18.73833 -6.02225,-2.98667 -11.66728,-6.98269 -16.68331,-11.99872 z" style="fill:#f8d501;stroke:#000000;stroke-width:1.5;fill-opacity:1" id="path136"/>
    <path d="m 353.4363,914.34673 c -9.87318,0.35653 -20.29719,2.1672 -23.31242,-4.44151 -3.05343,-6.69242 -3.74468,-8.47976 -5.05708,-9.79217 -3.6992,-3.6992 -9.7702,-3.62063 -13.38295,-0.008 -3.61274,3.61275 -3.7134,9.70583 -0.0142,13.40504 1.31241,1.3124 3.09975,2.00365 9.79217,5.05707 6.60871,3.01524 4.79804,13.43925 4.44151,23.31243 0.31297,-4.86762 3.93123,-11.62102 9.92159,-17.61138 5.99037,-5.99036 12.74377,-9.60862 17.61138,-9.92159 z" style="fill:#f8d501;stroke:#000000;stroke-width:1.5;fill-opacity:1" id="path138"/>
    <path d="m 342.56454,931.00793 c 5.01602,-5.01602 9.01204,-10.66105 11.99871,-16.6833 -4.91563,-0.23674 -12.2727,3.47807 -18.73833,9.94369 -6.47434,6.47434 -10.19147,13.82267 -9.94369,18.73833 6.02225,-2.98667 11.66728,-6.98269 16.68331,-11.99872 z" style="fill:#f8d501;stroke:#000000;stroke-width:1.5;fill-opacity:1" id="path140"/>
    <path d="m 349.2857,886.11218 a 51.607145,51.607145 0 1 1 -103.21429,0 51.607145,51.607145 0 1 1 103.21429,0 z" style="fill:#f8d501;stroke:#000000;stroke-width:3.29046;fill-opacity:1" transform="matrix(0.40969,0,0,0.40969,175.72253,523.08059)" id="path142"/>
    <path d="m 349.2857,886.11218 a 51.607145,51.607145 0 1 1 -103.21429,0 51.607145,51.607145 0 1 1 103.21429,0 z" style="fill:#f8d501;stroke:#000000;stroke-width:10.6063;fill-opacity:1" transform="matrix(0.14143,0,0,0.14143,255.57908,760.79291)" id="path144"/>
  </g>
  <path d="m 202.0606,173.12152 c -1.88886,12.17196 -12.18965,19.41017 -12.32734,23.20771 -0.11243,3.10076 5.64786,9.37851 6.52822,15.04183 l 4.71109,1.35724 0.76274,-2.38919 c 0.91104,-4.26419 0.007,-9.03485 3.49967,-12.92184 -1.44105,-1.27662 -1.99938,0.29699 -2.80422,1.08803 l 2.62475,-9.34365 c -0.97889,-0.58567 -1.71066,0.29778 -2.53502,0.63936 2.87519,-5.74877 0.14995,-11.14854 -0.45989,-16.67949 z" style="fill:#f8d501;stroke:#000000;stroke-width:0.35894;stroke-linejoin:round;fill-opacity:1" id="path148"/>
  <path d="m 198.61702,212.04968 c -0.88036,-5.66332 -6.63894,-11.94648 -6.52651,-15.04724 0.13768,-3.79755 10.43899,-11.03342 12.32785,-23.20539 0.60984,5.53095 3.32842,10.93011 0.45324,16.67887 0.82435,-0.34157 1.55919,-1.22019 2.53808,-0.63452 l -2.62873,9.33654 c 0.80484,-0.79105 1.36898,-2.36437 2.81003,-1.08775 -4.16323,4.63274 -2.0667,10.53493 -4.26037,15.31918 9.88617,-13.29427 6.31002,-49.47984 25.56219,-37.07423 -13.9332,-6.33539 -14.54966,15.05036 -18.49179,29.09738 6.05075,-6.62826 6.83043,-31.84395 18.69646,-17.96571 -7.59339,-7.35478 -11.74359,12.83591 -17.17784,22.75423 6.75148,-5.64403 13.50298,-23.99098 20.25447,-11.66555 -14.7939,-4.05363 -15.67725,28.99913 -34.45278,27.15678 -16.15143,-1.58487 -12.7662,-18.18807 -14.33283,-32.51697 -0.18392,-1.68215 -5.10733,-3.04071 -4.80424,-5.07617 0.29137,-1.95679 2.69831,-2.98929 5.25747,-2.3568 7.83267,1.9358 -0.58322,18.39288 14.7753,26.28735 z" style="fill:#f8d501;stroke-width:0.35894;fill-opacity:1" id="path152"/>
  <path d="m 179.27852,186.72148 c -1.90991,0.52462 -3.66971,1.41586 -5.91129,1.16655 -0.41447,1.95068 1.31541,2.26851 2.22094,2.31068 1.37963,0.0642 3.02622,0.18654 4.83447,0.33651 -1.06252,-0.72848 -1.975,-1.50211 -1.83957,-2.41163 0.0809,-0.54353 0.33015,-1.01708 0.69545,-1.40211 z" style="fill:#f8d501;stroke:#000000;stroke-width:0.35894;stroke-linejoin:round;fill-opacity:1" id="path154"/>
  <path d="m 181.89045,187.40271 c 1.61503,-1.05831 2.46964,0.2597 3.42916,1.24988 -1.14306,-0.29646 -2.28611,-0.0299 -3.42916,-1.24988 z" id="path156" style="stroke-width:0.35894"/>
  <path d="m 181.89205,176.45804 c -0.64604,0 -1.16655,0.52051 -1.16655,1.16655 0,0.64605 0.52051,1.17778 1.16655,1.17778 0.25035,0.89886 0.42769,2.12055 0.52719,3.38749 0.0931,1.18552 0.13964,2.34 0.17947,3.39872 0.25078,0.0107 0.50415,0.0349 0.76275,0.0785 -0.0439,-1.07887 -0.0925,-2.28283 -0.19069,-3.53331 -0.10342,-1.31694 -0.25418,-2.59349 -0.54962,-3.60062 0.26526,-0.21444 0.43746,-0.54089 0.43746,-0.90857 0,-0.64604 -0.52052,-1.16655 -1.16656,-1.16655 z m -2.98369,2.11999 c -0.64604,0 -1.16655,0.52051 -1.16655,1.16655 0,0.64605 0.52051,1.16656 1.16655,1.16656 0.10891,0 0.21404,-0.017 0.31407,-0.0449 0.83092,1.59065 1.55576,2.95268 1.78349,4.87934 0.23669,-0.0628 0.48348,-0.1066 0.74031,-0.1346 -0.25561,-2.0787 -1.05202,-3.56522 -1.89565,-5.1822 0.14228,-0.19373 0.22434,-0.42543 0.22434,-0.68423 0,-0.64604 -0.52052,-1.16655 -1.16656,-1.16655 z m 7.53774,0.12338 c -0.64604,0 -1.17777,0.52052 -1.17777,1.16656 0,0.32302 0.13604,0.61836 0.34772,0.83005 -0.75952,1.53071 -1.4129,3.15774 -1.64888,5.09246 0.2594,0.0707 0.4937,0.16634 0.71788,0.2692 0.20356,-1.89643 0.84925,-3.49514 1.61523,-5.03637 0.0484,0.006 0.0958,0.0224 0.14582,0.0224 0.64604,0 1.16656,-0.53173 1.16656,-1.17777 0,-0.64604 -0.52052,-1.16656 -1.16656,-1.16656 z" style="font-family:Sans;stroke-width:0.35894" id="path158"/>
  <path d="m 198.61702,212.04968 c -0.88036,-5.66332 -6.63894,-11.94648 -6.52651,-15.04724 0.13768,-3.79755 10.43899,-11.03342 12.32785,-23.20539 0.60984,5.53095 3.32842,10.93011 0.45324,16.67887 0.82435,-0.34157 1.55919,-1.22019 2.53808,-0.63452 l -2.62873,9.33654 c 0.80484,-0.79105 1.36898,-2.36437 2.81003,-1.08775 -4.16323,4.63274 -2.0667,10.53493 -4.26037,15.31918 9.88617,-13.29427 6.31002,-49.47984 25.56219,-37.07423 -13.9332,-6.33539 -14.54966,15.05036 -18.49179,29.09738 6.05075,-6.62826 6.83043,-31.84395 18.69646,-17.96571 -7.59339,-7.35478 -11.74359,12.83591 -17.17784,22.75423 6.75148,-5.64403 13.50298,-23.99098 20.25447,-11.66555 -14.7939,-4.05363 -15.67725,28.99913 -34.45278,27.15678 -16.15143,-1.58487 -12.7662,-18.18807 -14.33283,-32.51697 -0.18392,-1.68215 -5.10733,-3.04071 -4.80424,-5.07617 0.29137,-1.95679 2.69831,-2.98929 5.25747,-2.3568 7.83267,1.9358 -0.58322,18.39288 14.7753,26.28735 z" style="fill:none;stroke:#000000;stroke-width:0.35894;stroke-linejoin:round" id="path170"/>
  <path d="m 200.47841,225.72255 c -0.80122,0.0735 -1.63597,0.0835 -2.51258,0.0112 l -1.15534,3.70159 c 0,0 -1.26664,0.67768 -2.10877,1.42454 l 4.91299,0.0561 c -0.009,-0.5971 -0.49354,-1.67132 -0.49354,-1.67132 0,0 0.75012,-1.93426 1.35724,-3.5221 z" style="fill:#f8d501;stroke:#000000;stroke-width:0.35894;fill-opacity:1" id="path172"/>
  <path d="m 193.38935,224.78034 -2.78179,4.47553 c -1.74662,0.36856 -3.66976,0.9062 -3.39871,1.862 0.30446,1.07362 1.62324,-0.22113 2.23216,-0.2692 -0.15475,0.70459 -0.23297,1.036 0.42624,1.09925 0.44157,0.0424 0.75267,-0.40283 1.37967,-0.75153 0.56965,0.30204 0.94066,1.34983 1.7274,0.75153 0.28929,-0.42421 -0.0785,-2.28824 -0.0785,-2.28824 0,0 2.10541,-2.96011 2.97248,-4.20633 -0.89319,-0.16889 -1.71864,-0.40115 -2.47893,-0.67301 z" style="fill:#f8d501;stroke:#000000;stroke-width:0.35894;fill-opacity:1" id="path174"/>
  <rect id="rect178" y="511.16299" x="9.1796874e-06" width="900" style="fill:#f8d501;fill-opacity:1" height="30"/>
  <rect id="rect180" y="367.06039" x="0" width="900" style="fill:#f8d501;fill-opacity:1" height="30"/>
  <path style="color:#000000;font-style:normal;font-variant:normal;font-weight:normal;font-stretch:normal;font-size:medium;line-height:normal;font-family:sans-serif;font-variant-ligatures:normal;font-variant-position:normal;font-variant-caps:normal;font-variant-numeric:normal;font-variant-alternates:normal;font-variant-east-asian:normal;font-feature-settings:normal;font-variation-settings:normal;text-indent:0;text-align:start;text-decoration:none;text-decoration-line:none;text-decoration-style:solid;text-decoration-color:#000000;letter-spacing:normal;word-spacing:normal;text-transform:none;writing-mode:lr-tb;direction:ltr;text-orientation:mixed;dominant-baseline:auto;baseline-shift:baseline;text-anchor:start;white-space:normal;shape-padding:0;shape-margin:0;inline-size:0;clip-rule:nonzero;display:inline;overflow:visible;visibility:visible;opacity:0.999;isolation:auto;mix-blend-mode:normal;color-interpolation:sRGB;color-interpolation-filters:linearRGB;solid-color:#000000;solid-opacity:1;vector-effect:none;fill:#f2f2f2;fill-opacity:1;fill-rule:nonzero;stroke:none;stroke-width:1.5;stroke-linecap:butt;stroke-linejoin:miter;stroke-miterlimit:4;stroke-dasharray:none;stroke-dashoffset:0;stroke-opacity:1;color-rendering:auto;image-rendering:auto;shape-rendering:auto;text-rendering:auto;enable-background:accumulate;stop-color:#000000;stop-opacity:1" d="m 225.52101,231.15612 c -0.94236,1.29394 -1.38367,2.90717 -1.49699,4.70997 -0.0346,0.55097 -0.0353,1.44786 0.0121,1.99793 0.15475,1.79595 0.73284,3.43625 1.73169,4.74597 0.33466,0.43882 0.84189,0.3445 1.06937,-0.15876 0.17596,-0.38925 0.0915,-1.09071 -0.17591,-1.57394 -0.61695,-1.11496 -0.93123,-1.87222 -1.03561,-3.01382 -0.0502,-0.54948 -0.0487,-1.44744 0.007,-1.99671 0.1236,-1.22645 0.48824,-2.14274 1.06916,-3.22298 0.26146,-0.48619 0.2225,-1.23114 -0.10661,-1.67466 -0.23456,-0.31609 -0.74904,-0.25898 -1.07384,0.187 z" id="path1383" sodipodi:nodetypes="csccscc"/>
  <rect style="opacity:0.999;fill:#f2f2f2;fill-opacity:1;stroke:none;stroke-width:1.40577" id="rect1387" width="11.631579" height="2.9385042" x="206.8847" y="231.68709" rx="3.053293" ry="1.4692521"/>
  <rect ry="1.4692521" rx="3.053293" y="239.36568" x="206.66606" height="2.9385042" width="11.631579" id="rect1387-8" style="opacity:0.999;fill:#f2f2f2;fill-opacity:1;stroke:none;stroke-width:1.40577"/>
  <rect ry="1.4692521" rx="2.8852146" y="235.57011" x="204.72455" height="2.9385042" width="16.494104" id="rect1387-7" style="opacity:0.999;fill:#f2f2f2;fill-opacity:1;stroke:none;stroke-width:1.67401"/>
</svg>