<?xml version="1.0" encoding="UTF-8" standalone="no"?>
<!-- Created with Inkscape (http://www.inkscape.org/) -->
<svg xmlns:dc="http://purl.org/dc/elements/1.1/" xmlns:cc="http://creativecommons.org/ns#" xmlns:rdf="http://www.w3.org/1999/02/22-rdf-syntax-ns#" xmlns:svg="http://www.w3.org/2000/svg" xmlns="http://www.w3.org/2000/svg" version="1.1" width="600" height="400" viewBox="0 0 169.33333 112.88889" id="svg2" xml:space="preserve" style="fill-rule:evenodd"><metadata id="metadata37"><rdf:RDF><cc:Work rdf:about=""><dc:format>image/svg+xml</dc:format><dc:type rdf:resource="http://purl.org/dc/dcmitype/StillImage"/><dc:title/></cc:Work></rdf:RDF></metadata>
 <defs id="defs4"><style type="text/css" id="style6"/></defs>
 <g transform="matrix(0.08063492,0,0,0.08063492,45.155551,79.022223)" id="g3023"><path d="m 0,20 0,100 60,0 0,-20.000001 -40,0 L 20,20 z" id="rect3023" style="fill:#9000cc;fill-opacity:1;stroke:none"/><path d="m 80,20 0,100 60,0 0,-20.000001 -40,0 0,-20 40,0 L 140,60 l -40,0 0,-20 40,0 0,-20 z" id="rect3004" style="fill:#9000cc;fill-opacity:1;stroke:none"/><path d="m 210,40.000003 0,20 20,0 c 5.52285,0 10,4.47715 10,10 0,5.52285 -4.47715,9.999995 -10,9.999995 l -20,0 0,20 20,0 c 16.56854,0 30,-13.43146 30,-29.999995 0,-16.56854 -13.43146,-30 -30,-30 z m 20,-40 c -38.65993,0 -70,31.34007 -70,70 C 160,108.65993 191.34007,140 230,140 c 38.65993,0 70,-31.34007 70,-69.999997 0,-38.65993 -31.34007,-70 -70,-70 z m 0,20 c 27.61424,0 50,22.38576 50,50 C 280,97.614236 257.61424,120 230,120 c -27.61424,0 -50,-22.385764 -50,-49.999997 0,-27.61424 22.38576,-50 50,-50 z" id="path3029" style="fill:#9000cc;fill-opacity:1;stroke:none"/><path d="m 320,20 0,100 20,0 0,-62.78125 40,62.78125 20,0 0,-100 -20,0 0,62.78125 L 340,20 z" id="rect3051" style="fill:#ff0000;fill-opacity:1;stroke:none"/><rect width="20" height="100" x="420" y="20" id="rect3002" style="fill:#9000cc;fill-opacity:1;stroke:none"/><path d="m 460,20 0,100 50,0 c 16.56854,0 30,-13.43146 30,-30 l 0,-40 C 540,33.43146 526.56854,20 510,20 z m 20,20 30,0 c 5.52285,0 10,4.47715 10,10 l 0,40 c 0,5.522847 -4.47715,10 -10,10 l -30,0 z" id="path3053" style="fill:#9000cc;fill-opacity:1;stroke:none"/><path d="m 660,20 -20,20 30,0 c 5.52285,0 10,4.47715 10,10 0,5.52285 -4.47715,10 -10,10 -16.56854,0 -30,13.43146 -30,30 l 0,30 60,0 0,-20 -40,0 0,-10 c 0,-5.52285 4.47715,-10 10,-10 16.56854,0 30,-13.43146 30,-30 0,-16.56853 -13.43146,-30 -30,-30 l -10,0 z" id="path3071" style="fill:#9000cc;fill-opacity:1;stroke:none"/><path d="m 790,3e-6 c -38.65993,0 -70,31.34007 -70,70 C 720,108.65993 751.34007,140 790,140 c 38.65993,0 70,-31.34007 70,-69.999997 0,-38.65993 -31.34007,-70 -70,-70 z m 0,20 c 27.61424,0 50,22.38576 50,50 C 840,97.614238 817.61424,120 790,120 c -27.61424,0 -50,-22.385762 -50,-49.999997 0,-27.61424 22.38576,-50 50,-50 z" id="path3041" style="fill:#9000cc;fill-opacity:1;stroke:none"/><path d="m 880,40 0,80 20,0 0,-100 z" id="rect3068" style="fill:#9000cc;fill-opacity:1;stroke:none"/><path d="m 920,20 0,60 30,0 c 5.52285,0 10,4.47715 10,10 0,5.52285 -4.47715,10 -10,10 l -30,0 20,20 10,0 c 16.56854,0 30,-13.43146 30,-30 0,-16.56854 -13.43146,-30 -30,-30 l -10,0 0,-20 40,0 0,-20 z" id="path3043" style="fill:#9000cc;fill-opacity:1;stroke:none"/></g><rect width="169.33333" height="112.88889" x="-2.4999999e-006" y="-3.1274415e-006" id="rect3912" style="fill:#d61a0c;fill-opacity:1;stroke:none"/><rect width="169.33333" height="18.814909" x="-2.4999999e-006" y="75.259071" id="rect3910" style="fill:#fecc00;fill-opacity:1;stroke:none"/><g transform="matrix(1.2778242,0,0,1.2778242,21.590427,-39.343282)" id="g3067"><path d="m 54.481033,44.861632 c 0.0607,-0.05975 0.167721,-0.121396 0.26441,-0.130186 0.102746,-0.0095 0.233882,0.06236 0.30729,0.116644 0.72968,-0.311803 1.465419,-0.486295 2.266725,-0.522405 1.14043,-0.05096 3.093569,0.115694 4.111891,0.947884 0.813185,0.664232 1.075337,1.667943 0.845256,3.038455 0.164276,0.06486 0.295174,0.285196 0.237684,0.453392 -0.02067,0.06034 -0.09016,0.150141 -0.136006,0.194328 0.338411,0.7083 0.523949,1.363147 0.571937,2.132739 0.497461,0.165701 2.920504,0.86533 2.920504,1.632189 0.389844,0.34435 0.851076,0.953467 0.951209,1.807394 0.277001,0.415501 0.320951,0.962731 0.475605,1.426933 0.05452,0.163445 0.112962,0.320713 0.19029,0.475605 0.212977,0.412175 0.322256,0.881365 0.04763,1.236644 l 0,0 c 0.260372,0.429398 0.468478,0.784676 0.468478,1.270734 0.0083,0.18245 0.06996,0.281871 0.149785,0.441514 0.272131,0.301589 0.525137,0.631923 0.803207,0.938263 0.433437,0.477505 0.890987,0.936124 1.280593,1.432635 0.80487,1.02533 1.639435,2.481959 2.315307,3.591149 0.586904,0.96285 1.186518,1.231774 1.939955,2.179064 1.451165,1.824141 2.347378,3.884779 3.08573,6.180368 0.270943,0.792279 0.503281,1.608908 0.70628,2.421024 0.147766,0.59213 0.358842,1.225597 0.399109,1.837564 0.01235,0.185419 -0.0048,0.373927 0.0083,0.599495 0.04633,0.768047 0.328433,1.586933 0.639168,2.271714 -1.686473,-1.088047 -1.892085,-2.243681 -2.378262,-4.042879 l -0.285315,0.57075 c -0.423222,-0.59415 -0.478099,-1.121425 -0.618381,-1.854907 l -0.142658,0.190171 c -0.331047,-0.509814 -0.336867,-0.986132 -0.475605,-1.521959 -0.04763,0.09503 -0.04763,0.237802 -0.09514,0.38046 -0.821143,-0.801663 -0.882791,-2.384795 -1.039108,-3.5023 -0.135056,-0.961188 -0.335442,-2.070497 -0.897758,-2.736035 0.639881,1.666399 0.87412,3.344795 0.795248,5.096836 L 73.9566,73.319769 c 0.152635,0.611611 0.211076,1.351388 0,1.855025 0.253957,0.761871 0.339955,1.779717 0.142777,2.568433 0.684186,1.168225 1.140192,2.421973 1.574817,3.696865 0.242672,0.711032 0.378084,1.233437 0.728374,1.609977 0.21749,0.233526 0.518248,0.411462 0.978648,0.54343 0.05333,1.476584 0.01069,2.33942 -0.124721,3.589961 -0.141945,1.31219 -0.439139,2.719999 -0.434744,4.07982 0.0012,0.413719 0.03801,0.82637 0.08612,1.251254 0.109161,0.964276 0.139332,1.832576 -0.0974,2.779747 -1.139243,0.214402 -2.037,1.041484 -2.33063,2.045196 l -5.61247,0 c 0.38925,-1.415531 1.63991,-2.306636 3.329353,-2.378143 0.06687,-0.388419 0.289235,-0.77078 0.570868,-1.141618 0.754981,-0.794892 1.52386,-2.040326 1.569591,-3.186695 0.07543,-1.058233 0.06925,-2.196644 -0.07697,-3.260578 -0.133393,-0.971522 -0.560891,-1.787438 -1.061559,-2.589813 -0.487839,-0.781826 -0.814966,-1.663786 -1.144587,-2.52092 -0.340193,-0.91795 -1.088522,-1.698232 -1.902538,-2.282998 0.2283,1.121068 0.220935,1.895174 0.118901,2.807898 -0.06307,0.754624 -0.02708,1.495827 0.235189,2.210066 0.111299,0.302657 0.216303,0.572293 0.074,0.87994 -0.273556,0.684068 -0.667439,1.365998 -1.046474,1.997683 -0.482138,0.832902 -0.964513,1.666161 -1.409591,2.499182 -0.816154,1.534788 -1.574461,3.336599 -1.919761,5.063458 -1.203385,0.44769 -2.47899,0.889442 -3.17648,1.902538 l -5.289976,0 c 0.329859,-1.39807 1.297936,-2.127394 2.644929,-2.36674 0.367037,-0.06521 0.739064,-0.106548 1.065122,-0.106548 0.799881,-0.207157 0.695827,-0.512903 0.903697,-0.903697 0.144914,-0.381173 0.637624,-0.722078 0.935292,-0.998841 0.488196,-0.488196 0.890512,-0.972234 1.241039,-1.472665 0.751655,-1.072605 1.739094,-2.963503 2.056837,-4.235069 0.04941,-1.098856 -0.156555,-2.936182 -0.38046,-4.138023 -0.317981,-1.010245 -1.463281,-2.650986 -2.014788,-5.018201 -0.711388,-0.713289 -1.295797,-1.604395 -1.878069,-2.420074 -0.982331,0.481188 -2.513911,1.075456 -3.955217,0.874477 l 0.142657,0.428091 c -0.452561,0.06272 -0.918069,0.0721 -1.379301,0.04751 l 0.09514,0.142777 c -0.647008,0.30242 -1.758456,0.474417 -3.09167,0.190171 0.126979,0.126978 0.327721,0.227349 0.475605,0.332947 -0.902033,0.04454 -1.807037,0.08671 -2.71109,0.04763 0.741084,2.355811 1.034001,4.99979 0.285316,6.706456 0.404691,2.042226 0.295293,3.961631 0.365612,5.880086 0.01069,0.423578 0.384974,1.167631 0.518604,2.084275 0.114269,0.783608 0.0133,1.762019 -0.218322,2.689947 l -0.04751,0.237803 c -1.176184,-0.332947 -2.612501,1.698232 -2.972412,1.997683 l -5.065952,0 c 0.199317,-0.849176 0.526088,-1.371106 1.221559,-1.830438 0.548894,-0.362524 1.173927,-0.59795 1.822598,-0.690482 0.296956,0 0.415857,-0.338292 0.570749,-0.570749 0.291017,-0.582153 0.876614,-1.012264 1.406503,-1.356139 0.198248,-0.128404 0.392457,-0.268449 0.543667,-0.451255 0.237209,-0.937787 -0.08338,-2.827022 -0.332947,-3.757563 -0.171403,-0.800713 -0.417045,-2.233466 -0.856184,-2.996525 -0.286384,-0.286265 -0.61066,-0.547705 -0.689532,-1.032575 -0.201455,-1.239257 -1.032694,-3.03988 -1.413392,-4.027319 -0.315367,0.837535 -0.57265,1.545597 -1.226547,2.158515 -0.209533,1.773303 -0.764365,2.388358 -1.284276,3.329471 -0.288285,0.522405 -0.312635,0.908567 -0.381054,1.365879 -0.185894,1.242583 -0.284603,2.485642 -0.284603,3.74236 3.57e-4,0.524543 0.0048,1.081039 0.04739,1.598217 0,0.428092 0,0.856184 0,1.331789 0,0.142776 0.01307,0.33366 0,0.475724 -0.01318,0.143132 -0.149071,0.256451 -0.332947,0.332947 -1.221796,0.50827 -1.820934,1.330719 -2.568432,2.378143 l -5.452708,0 c 0.127929,-0.840742 0.526444,-1.647275 1.285583,-2.081544 0.51706,-0.295768 1.137223,-0.413838 1.74135,-0.534521 l 0.237802,-0.04751 c 0.25372,-0.12674 0.59617,-0.452204 0.640832,-0.774461 0.05143,-0.373214 0.274506,-0.656748 0.533095,-0.911061 0.216065,-0.21274 0.531433,-0.472042 0.810453,-0.719822 0.243979,-0.216659 0.584766,-0.508032 0.65069,-0.855352 0.164395,-0.864023 0.240891,-2.509873 0.320237,-3.226725 0.177936,-1.607007 0.134462,-2.256866 -0.719821,-3.596138 0.207156,-1.301736 0.217847,-2.32671 -0.04751,-3.656717 -0.128879,0.113675 -0.334491,0.255382 -0.523237,0.327246 0.09384,-0.27902 0.02055,-0.899183 0,-1.189012 -0.318218,0.234001 -0.652947,0.419064 -0.998841,0.570749 0.219866,-0.381054 0.441039,-1.022123 0.428092,-1.522078 -0.373452,0.30634 -0.748686,0.470022 -1.189131,0.618381 0.655204,-0.695708 0.842999,-1.293659 0.713526,-2.187972 -0.114863,-0.574313 -0.252056,-1.06536 -0.538441,-1.544884 -0.488552,1.228091 -1.157772,2.04187 -1.718069,3.067675 -0.542361,0.99112 -1.041128,2.273852 -0.977936,3.376272 -0.269398,-0.431299 -0.613749,-0.976392 -0.713407,-1.474447 -0.185538,0.371671 -0.153942,1.150289 -0.190289,1.426934 -0.217135,-0.300045 -0.508033,-0.557328 -0.665895,-0.903816 -0.287453,0.999673 -0.982568,1.673169 -1.854906,1.997683 0.400297,-0.635367 0.755218,-1.418975 0.618262,-2.187854 -0.182925,0.732294 -0.302063,1.27216 -0.903696,1.759881 -0.146103,-0.764603 -0.526444,-1.192338 -1.189131,-1.855025 -1.269191,-1.015115 -2.752664,-2.580311 -3.139182,-4.090511 0,0.825419 0.04775,1.316228 0.237802,2.140341 -1.090779,-1.090779 -1.997683,-2.644097 -1.997683,-4.233168 -0.146459,0.512546 -0.174372,1.016064 -0.190289,1.522078 -0.524306,-0.723029 -0.917713,-2.369591 -0.713408,-3.376985 -0.314179,0.420965 -0.56778,0.578827 -0.998841,0.76092 0.510289,-1.045404 0.670052,-1.806443 0.618381,-3.044037 -0.22533,0.333541 -0.555426,0.634773 -0.8702,0.879584 0.275219,-1.145657 0.348983,-2.500251 0.394477,-3.69449 0.03623,-0.945983 0.115575,-1.873674 0.475723,-2.797564 -0.175085,0.116645 -0.327364,0.207038 -0.523236,0.285316 l 0,-0.19029 c -0.27415,0.262628 -0.574551,0.501381 -0.903697,0.665894 0.09289,-0.216659 0.135887,-0.462063 0.237802,-0.665894 -0.319999,0.372739 -0.711031,0.519079 -1.18913,0.618382 0.477505,-0.596763 0.665894,-1.316585 0.665894,-2.092828 0,-1.293184 -0.336867,-2.857193 0.428092,-3.995366 -0.460639,0.113912 -0.86438,0.408493 -1.284157,0.618381 -0.432606,0.325227 -0.810928,0.308716 -1.189131,-0.09514 -0.06972,-0.104529 -0.332947,-0.464202 -0.332947,-0.57075 -0.532264,0.05001 -0.920445,-0.05998 -1.136154,-0.578708 -0.25562,-0.616362 0.03825,-1.313734 0.448285,-1.817846 0.364068,-1.366236 1.418856,-1.766295 2.739241,-2.322553 0.635961,-0.267973 1.237832,-0.572294 1.829369,-0.921871 0.850363,-0.501499 1.773302,-1.342835 2.029279,-2.323384 0.146696,-0.565642 -0.06058,-1.01357 -0.392695,-1.453303 0.356585,0.107261 0.679079,0.248731 0.998841,0.475605 0.139213,-0.278426 -0.07804,-0.791566 -0.19017,-1.046354 0.352783,0.08742 0.949428,0.560653 1.189012,1.093986 0.141232,-0.208463 0.150972,-0.841217 0.142776,-1.046473 0.385212,0.565404 0.758545,1.16086 0.889087,1.788031 0.299094,-0.356941 0.322969,-1.087215 0.39507,-1.550229 0.470854,0.460163 0.727186,1.0302 0.856184,1.664736 0.246117,-0.453512 0.333897,-0.746192 0.428092,-1.236644 0.234476,0.312516 0.523236,0.831596 0.523236,1.236644 0.231389,-0.231388 0.313467,-0.649028 0.38046,-0.95121 0.26346,0.380698 0.434031,0.922583 0.428092,1.426933 0.24683,-0.156199 0.481782,-0.33651 0.713408,-0.523236 l 0,0.808552 0.380579,-0.475605 c 0.112843,0.338886 0.153348,0.790972 0.09514,1.141499 l 0.285316,-0.190171 c 0.100727,0.349221 0.04811,0.605791 0,0.903697 l 0.190289,-0.04763 c 0.02269,0.262153 -0.0055,0.652947 -0.04763,0.951329 0.78242,0.127097 1.356733,0.89455 1.701321,1.547616 0.245286,0.465152 0.647839,1.494402 0.724454,2.162315 0.234239,0.703786 0.295768,1.76285 0.221886,2.272546 0.175916,0.851907 0.286028,1.649294 0.158693,2.436346 l -0.332947,-0.190289 c 0,0.428092 0,0.856184 -0.04763,1.284157 0.887305,-2.399524 1.79017,-4.287096 3.662419,-6.18322 0.947408,-0.959524 2.153525,-1.956703 3.377103,-2.568432 0.374521,-1.311002 1.045285,-3.042018 2.217074,-3.810184 0.07103,-0.867587 0.299213,-1.69063 0.578233,-2.391447 -0.199436,-0.149072 -0.228181,-0.324751 -0.06141,-0.533689 -0.294699,-0.617313 -0.386874,-1.220015 -0.249443,-1.83804 0.472754,-2.120622 3.015292,-2.74031 4.833733,-2.7257 1.09553,0.0095 2.258172,0.193853 3.504438,0.53464 z" id="_155105856" style="fill:#000000;fill-rule:nonzero"/><path d="m 33.860165,54.294144 c -0.09503,0.285316 -0.332947,0.665895 -0.808552,1.093987 -0.523236,0.427973 -1.284156,0.285315 -1.284156,0.285315 1.170363,-0.10631 2.045433,-1.090185 2.045195,-2.187972 l -0.181618,0.190289 c -0.138381,0.55412 -0.722078,0.930185 -1.245315,1.046473 0.948834,-0.59308 1.253867,-1.260162 1.141499,-2.045314 l -0.523118,0.523236 0,-0.903696 c -0.174135,0.143251 -0.291967,0.268091 -0.467052,0.38046 -0.09004,0.545924 -0.198842,0.951328 -0.293987,1.141499 0.237803,-0.04751 0.428092,-0.04751 0.475605,0.04763 0.09515,0.142657 -0.190289,0.428091 -0.332947,0.618262 -0.190289,0.19029 -0.761039,0.998842 -1.284157,1.236763 -0.570868,0.237802 -1.189131,0.19017 -1.522078,0 0.771136,-0.04763 1.290809,-0.676941 1.807394,-1.189131 -0.720178,-0.04799 -1.496897,0.153942 -2.140341,0.475605 0.597001,-0.682405 1.628388,-0.787171 2.473288,-0.618263 -0.323326,0.768998 -0.909636,1.060608 -1.284157,1.284157 0,0 0.475605,-0.04751 0.998841,-0.475605 0.57075,-0.428092 0.665895,-0.951328 0.998842,-1.189131 0,0 -0.380579,0.04763 -0.856184,0 -0.428092,0 -1.284276,0 -1.75988,0.19029 -0.475605,0.142657 -0.951329,0.523236 -0.951329,0.523236 0.17853,-0.624914 0.844781,-0.753437 1.275723,-0.856183 0.444366,-0.888968 0.629904,-2.192487 0.0086,-3.044157 -0.08707,0.618025 -0.158812,0.875546 -0.52003,1.236763 0.187083,0.935649 -0.280445,1.879138 -1.002048,2.473288 0.777193,-1.067023 1.148151,-2.332531 0.237802,-3.805076 -0.0329,0.585716 -0.312635,0.924246 -0.285315,0.951209 0.05013,-1.19e-4 -0.392695,-0.838366 -0.766622,-1.202791 0.02625,0.237328 0.02851,0.510646 -0.08956,0.727186 0.190289,0.19029 0.523237,0.618263 0.665894,1.284157 0.237803,1.093986 -0.570749,1.664736 -0.570749,1.664736 0.285434,-0.475605 0.428092,-1.046354 0.332947,-1.617104 -0.04751,-0.428092 -0.370007,-1.007631 -0.57075,-1.236644 -0.137193,-0.156436 -0.301707,-0.264647 -0.475605,-0.380579 0.511953,1.47896 -0.964038,2.900905 -2.109694,3.555871 -0.593081,0.339005 -1.222034,0.611967 -1.790527,0.915219 -0.475723,0.19017 -0.903815,0.38046 -1.331788,0.618262 -0.808671,0.428092 -1.093986,0.998842 -1.189131,1.284276 0.142658,-0.142777 0.38046,-0.332947 0.570749,-0.428092 0.332948,-0.19029 0.808552,-0.332947 0.998842,-0.285434 0.237802,0 0.237802,0.332947 0.04751,0.475723 -0.190171,0.142658 -0.618263,0 -1.093868,0.237803 -0.332947,0.142658 -0.713526,0.475605 -0.903815,0.665894 -0.190171,0.332947 -0.332947,0.808552 -0.190171,1.189012 0.190171,0.475724 0.618263,0.475724 0.856065,0.428092 0.285434,-0.190289 1.046473,-0.665894 1.474565,-0.95121 0.57075,-0.380578 1.331789,-0.761039 1.426934,-0.80867 0.04751,0 0.142657,0.190289 0.19017,0.237802 0.04763,0.09515 0.285435,0.285434 0.142777,0.380579 -0.142777,0.142658 -0.428092,0 -0.618382,0 -0.190289,0 -0.428091,0.04751 -0.618381,0.142658 -0.163444,0.09799 -0.686681,0.421202 -1.043979,0.644157 -0.494253,0.308597 -0.942657,0.460876 -0.335322,1.06821 0.09514,0.142658 0.332947,0.332947 0.808552,0 0.8721,-0.608879 1.784824,-0.89455 2.378261,-0.998841 -1.352931,1.364453 -1.141618,2.715366 -1.141618,4.613628 0,0.713526 -0.142657,1.284276 -0.285315,1.617223 0.332947,-0.237803 0.845612,-0.679792 0.893244,-2.011581 0.04751,-1.379301 0.390913,-3.601008 1.247097,-4.171757 -0.998842,1.617222 -0.816036,3.496479 -0.91118,4.447808 -0.142658,0.998841 -0.372977,1.497727 -0.420609,1.592753 0.423816,-0.356466 0.669101,-0.868062 0.861173,-1.361009 0.622895,-1.59798 0.381172,-2.511417 1.13651,-3.823369 -0.679792,1.807394 0.0835,2.378381 -1.331789,4.946576 1.305063,-1.213838 1.970007,-3.15308 1.95017,-4.994207 0.237803,0.80867 0.0091,1.903132 0.0091,1.903132 0.385211,-0.501856 0.612561,-1.41066 0.737757,-1.84576 l -0.223786,-0.342688 c 0.541173,0.39709 1.440475,0.423222 1.855025,0.237803 -2.37e-4,0.01568 -0.427854,-0.07246 -0.808552,-0.428092 0.856065,0.190289 1.375145,-0.086 1.565434,-0.276169 -0.04751,0 -0.756882,0.03837 -1.327631,-0.437238 1.144468,0.360623 1.44475,-0.165346 1.522791,-0.214403 0,0 -0.761752,-0.02352 -1.237476,-0.546636 0,0 0.808671,0.38046 1.426933,0.332947 0.665895,-0.09515 0.998842,-0.475724 0.998842,-0.475724 0,0 -0.713407,0.285434 -1.664736,-0.237802 0.993496,0.365968 2.426963,0.01817 2.845196,-0.998842 -0.553051,0 -1.183786,-0.132917 -1.656065,-0.427973 1.902895,0.33556 3.19893,-0.301351 3.164364,-2.129175 l -0.120327,0.03635 z M 30.40526,53.843365 c 0.428092,-0.04751 0.651284,-0.03611 0.936718,-0.03611 0.240178,-0.814966 0.398634,-1.707022 -0.0026,-2.509635 -0.132799,0.442702 -0.244811,0.664707 -0.562198,0.92876 -0.03373,0.495679 -0.109873,1.184855 -0.371907,1.616985 z m 1.14435,-0.02494 c 0.170215,0 0.293986,-0.01069 0.458262,-0.01069 0.250512,-0.573956 0.401841,-1.630526 0.187558,-2.224319 -0.118426,0.316555 -0.192309,0.38236 -0.408137,0.598307 0.04787,0.428329 -0.05618,1.287007 -0.237683,1.637178 z m 14.504878,0.451017 c -0.13945,-0.674209 -0.187082,-1.462568 -0.156317,-2.158039 -1.01856,0.859747 -1.61853,2.434802 -2.006117,3.681542 -1.275604,0.681574 -2.462478,1.583608 -3.46322,2.627586 -1.126176,1.174877 -1.868804,2.372085 -2.430526,3.388625 -0.730156,1.426815 -1.724721,4.376302 -1.95017,6.706575 l -0.57075,-0.09514 c 0.940044,-1.881395 0.907973,-5.81345 0.951329,-5.80276 l 0.348864,0.206088 c 0,-1.854907 -0.586786,-2.727007 -0.586786,-2.727007 0.164039,0.137669 0.322732,0.227468 0.401723,0.449235 0.02245,-0.943014 -0.197773,-1.772234 -0.687038,-2.589576 0.12389,0.03849 0.329978,0.307647 0.38046,0.38046 C 36.22453,57.75 35.944559,57.067239 35.618145,56.49352 c -0.338173,-0.594387 -0.757832,-1.269665 -1.486443,-1.390824 -0.250275,0.783727 -0.661737,1.395219 -1.698351,1.522079 l 0.332947,0.09514 c 0,0 -0.428092,0.998842 -1.093986,1.236644 0,0 -0.452205,0.68003 -1.213244,0.822806 0,0 -0.308834,0.318693 -0.546637,0.413838 0,0 0.285316,0 0.475605,0 0,0 -0.328671,0.65164 -1.232368,0.699153 l 0.380579,0.19029 c 0,0 -0.765315,0.641781 -1.811788,0.261202 0,0 -0.38046,1.703103 -0.998841,2.178827 0,0 -0.380461,1.331788 -1.1415,2.187853 -0.285434,0.761039 -0.665894,1.997683 -0.665894,3.377103 0,1.379302 -0.142658,2.33063 -0.237802,2.90138 0.229725,-0.229725 0.365137,-0.484395 0.523236,-0.761039 0.334373,1.037446 0.259659,1.971313 -0.09514,2.996524 0.518841,-0.570749 0.977817,-1.505211 1.089591,-2.727482 0.135649,1.207186 -0.302539,1.863815 -0.395308,2.584825 -0.09515,0.903696 0.01912,1.807393 0.209413,2.378143 0.09514,-0.618263 0.332947,-1.569591 0.808552,-2.282999 -0.395308,1.845048 -0.03706,3.594594 1.093986,5.136865 -0.142657,-0.998841 0.142658,-2.425774 0.523237,-2.853866 -0.500787,2.283592 1.365404,3.933955 2.948893,5.517444 0.524662,0.419777 1.021172,0.970571 1.236644,1.617104 0.261677,-0.39222 0.427973,-0.942064 0.492471,-1.417312 0.08006,-0.58833 -0.200267,-1.438337 0.221055,-1.959673 0,0 -0.237803,0.998841 0.142657,1.712249 0.38046,0.761039 0.142658,1.37942 -0.09514,1.95017 1.011194,-0.821381 1.214194,-1.812264 1.046473,-3.044038 0.246592,0.522524 0.180312,1.369324 0.618262,1.807394 -0.03017,-0.713883 0.472042,-1.394743 0.665895,-2.092828 0.0019,0.660312 -0.120208,1.258144 0.237802,1.855025 0.133749,-0.802612 0.59997,-1.805255 0.996585,-2.476138 1.296035,-2.19213 2.574846,-3.658499 2.047571,-6.370777 0.665894,1.569591 0,3.186814 0,3.186814 0,0 0.428092,0.475605 0.665894,1.75988 0.142658,0.665895 0,1.189012 -0.142776,1.569591 0.142776,-0.09514 1.37942,-1.236644 1.046473,-4.613747 0.523118,3.139182 -0.428092,4.2808 -0.428092,4.2808 0.04751,0.38046 -0.04751,0.998842 -0.142657,1.331789 0,0 0.998841,-0.57075 1.236643,-1.569591 0,0.713407 -0.570749,1.379301 -0.570749,1.379301 0.05036,0.333185 0.09229,0.641901 0.09503,0.927097 0.09514,-0.09515 0.665894,-0.689294 0.998841,-2.116228 -0.142657,1.474566 -0.570749,1.95017 -0.570749,1.95017 0.523236,1.189013 0.190289,3.519643 0.09514,3.900221 0.918664,1.248641 0.90144,2.288106 0.734076,3.643533 -0.03409,0.463608 -0.07709,1.009294 -0.126028,1.535144 -0.09324,1.004662 -0.208226,1.938292 -0.322613,2.098529 -0.09515,0.190289 -0.332948,0.380579 -0.665895,0.665894 -0.237802,0.19029 -0.475723,0.428092 -0.761039,0.713526 -0.332947,0.332948 -0.38046,0.523118 -0.428092,0.761039 -0.11023,0.441277 -0.454461,0.799881 -0.833258,1.032339 -0.497817,0.304676 -1.292828,0.681454 -1.562346,1.028061 -0.285434,0.380461 -0.395426,0.88101 -0.405404,1.078782 l 3.990139,0 c 0.332947,-0.570749 0.903697,-1.18913 1.379302,-1.617222 0.380579,-0.332947 0.713526,-0.523118 0.951328,-0.618263 0.190171,-0.09515 0.380461,-0.190289 0.380461,-0.285434 0.04763,-0.09515 0.04763,-0.761039 0,-1.522078 0,-0.523118 0,-1.141499 -0.04751,-1.807394 0,-1.902538 0.332947,-3.900221 0.428091,-4.47097 0.04751,-0.428092 0.285316,-0.808552 0.57075,-1.331789 0.566949,-0.756169 0.903459,-1.867022 0.998841,-2.806235 0.681455,-0.617074 1.125939,-1.802761 1.341292,-2.645284 1.439286,-1.635872 1.348655,-4.559939 0.656391,-6.486946 0.436526,0.666606 0.670171,1.627081 0.732294,2.548714 0.28781,-1.185924 0.349814,-2.619034 0.02875,-3.690332 0.15026,0.177342 0.238872,0.345775 0.325464,0.618025 0.660549,-2.197713 -0.337817,-4.212619 -0.631685,-4.850956 0.742509,1.141855 1.575768,2.825121 0.781826,5.279404 0.07317,1.098856 -0.0569,2.208521 -0.428092,3.376984 1.664736,0.761039 4.423458,0.713526 5.469812,0.665895 -0.152041,-0.152042 -0.286503,-0.358011 -0.428091,-0.523237 1.09256,0.242791 2.225032,0.418708 3.329471,0.142776 l -0.618262,-0.618381 c 0.613986,0.23804 1.350318,0.342687 2.045195,0.285434 l -0.190289,-0.475723 c 1.35602,0.229606 3.016005,-0.227706 4.22034,-0.838367 -1.921544,-3.290035 -2.193912,-7.250598 -1.520772,-11.056625 -1.130452,0.503163 -2.530422,0.551864 -3.847838,0.30634 -1.826042,-0.340074 -3.652797,-0.09799 -5.417904,0.415145 -2.746012,0.798337 -5.479077,-0.294343 -6.180844,-3.032516 -0.636911,-2.484572 -0.03005,-5.380844 0.826488,-7.793077 z m 6.198543,36.078025 c -0.05737,-1.878901 0.02055,-3.889768 -0.338768,-5.745982 -0.24196,-1.249116 -0.629071,-2.472575 -1.168938,-3.624051 0,0 0.932442,1.407215 1.312903,3.071951 0.285434,-0.856184 0.256807,-1.597505 0.256807,-2.025597 -0.09515,-0.523237 -0.332947,-1.379302 -0.903815,-2.092828 0.376659,0.263103 0.724216,0.557327 0.870437,1.011195 -0.104885,-1.284157 -0.468953,-2.539925 -0.659123,-3.205819 -1.141618,-0.04763 -2.29262,-0.237802 -3.291461,-0.665894 -0.02067,-2.38e-4 -0.0133,1.681246 -1.200535,3.193465 0.237803,0.523237 0.57075,1.331789 0.903697,2.14046 0.428092,0.998841 0.57075,1.759762 0.665895,2.187853 0,0.415739 0.419302,0.605078 0.618381,0.903697 0.285315,0.332947 0.618262,1.522078 1.046354,3.662419 0.38046,1.902657 0.332947,2.996524 0.19029,3.377103 -0.09515,0.237803 -0.380579,0.38046 -0.665895,0.57075 -0.575144,0.344944 -1.077356,0.822568 -1.37942,1.426933 -0.144202,0.192071 -0.333303,0.523118 -0.618262,0.523118 -1.189131,0.618381 -1.664736,1.56971 -1.807513,2.045314 l 3.567393,0 c 0.63216,-0.691194 1.592397,-2.026665 2.90138,-2.092827 0.223548,-0.93363 0.320712,-1.895055 0.2087,-2.566413 -0.122464,-0.733838 -0.42239,-1.287958 -0.508507,-2.094847 z m 24.890264,-6.563799 c -0.190289,0 -0.523237,-0.142657 -0.856184,-0.428091 -0.332947,-0.285316 -0.584053,-0.95121 -0.869368,-1.807394 -0.325345,-1.301618 -0.970453,-2.611313 -1.583133,-3.778113 0.263104,-1.46043 -0.06604,-2.772975 -0.829338,-3.641869 0.475604,0.285434 0.808552,0.682999 0.808552,0.682999 0.01069,-1.105627 -0.238516,-2.04674 -0.951329,-2.728195 0.343519,0.209651 0.723979,0.522049 1.034714,0.97853 0.08125,-2.757297 -0.712932,-4.556851 -0.988745,-5.223576 -0.254195,-0.214759 -0.455056,-0.367157 -0.696303,-0.537728 0.527157,1.251254 0.738827,3.051758 0.106192,4.333895 L 72.209904,71.49289 c 0.19029,1.426933 -0.07673,2.387408 -0.11605,2.413778 l -0.108567,-0.206563 c 0.09503,0.903697 -0.406949,1.759881 -0.406949,1.759881 l -0.142657,-0.09515 c 0.09502,0.761039 -0.237922,1.522078 -0.237922,1.522078 l -0.09503,-0.190289 c -0.09514,0.998841 -0.761039,2.473406 -0.998841,2.949011 1.378589,0.866399 1.909071,1.798366 2.212798,2.498351 0.373214,0.860816 0.561247,1.768195 1.164186,2.543369 0.332948,0.475605 0.903697,1.617223 1.046355,2.616064 0.142776,0.903697 0.142776,1.902539 0.04763,3.47213 -0.04763,1.379301 -1.236644,2.806235 -1.664736,3.281839 -0.220223,0.346845 -0.439733,0.709369 -0.463489,1.133185 -1.089473,0.282346 -1.955872,0.832546 -2.469368,1.910971 l 4.312158,0 c 0.618382,-1.569591 1.902539,-1.950169 2.33063,-1.997682 0.19029,-0.856184 0.09515,-1.712368 0.04763,-2.568433 -0.04763,-0.428092 -0.09514,-0.856184 -0.09514,-1.236644 0,-1.093986 0.237802,-2.853866 0.428091,-4.138142 0.09419,-1.131759 0.142658,-2.240118 0.142658,-3.376985 z M 62.95022,51.407137 c 0.0083,0.399585 -0.02031,0.733244 -0.08315,1.132591 1.55902,2.95887 1.422776,7.501348 -0.51896,10.390612 -0.390557,0.581202 -0.837179,0.954298 -1.374313,1.257549 -0.88291,4.701171 -0.306458,9.715809 3.102003,13.36433 -0.481425,-2.038306 -1.296747,-4.9461 -1.296747,-4.9461 1.093986,2.568551 1.617104,5.707733 2.5208,7.895706 0.332947,0.808552 1.093987,2.235485 1.189131,2.568432 0,0 0.523237,3.234327 0.332947,4.233168 -0.190289,0.95121 -1.141499,3.139182 -2.092827,4.375826 -0.761039,1.046355 -1.569591,1.759881 -1.950051,2.092828 -0.388419,0.582509 -0.303371,1.207305 -1.284276,1.331789 -0.09515,0 -0.237802,0.04751 -0.332947,0.04751 -1.474446,0.428091 -1.957772,1.569591 -2.148062,1.950169 l 3.812798,0 c 0.285434,-0.428091 1.046473,-1.18913 3.139182,-1.855025 0.142776,-0.475605 0.665894,-2.758722 1.95017,-5.04172 0.523236,-0.998841 1.046354,-1.855025 1.426933,-2.568432 0.618262,-0.998842 0.998841,-1.712368 1.046354,-1.95017 0,-0.142658 -0.04751,-0.332948 -0.142657,-0.618263 -0.142658,-0.475724 -0.332948,-1.236763 -0.237803,-2.283117 0.145509,-1.128552 0.0036,-2.032367 -0.142776,-3.044037 0.536778,-0.864855 1.171313,-3.160207 0.998841,-4.138143 l 0.259183,0.612918 c 0.133512,-0.630497 0.09598,-1.212413 -0.02126,-1.80193 l 0.353734,0.596526 c 0.261559,-0.418708 0.351121,-1.767483 0.217016,-2.546696 l 0.245048,0.731462 c 0.162732,-0.515753 0.157387,-1.963592 -0.245048,-2.729145 0.248136,0.205969 0.411581,0.469904 0.516941,0.710676 0.528701,-1.541202 0.128641,-3.081335 -0.612086,-4.753554 l 1.712249,1.331788 c 0.665894,0.713407 1.077119,1.766057 1.310883,3.28184 0.151685,0.983162 0.129591,2.056718 0.639287,2.949011 0,-0.142657 0.332947,-1.093986 0.332947,-1.093986 0,0.285434 0.19029,1.902538 0.38046,2.33063 0,0 0.332947,-0.713407 0.332947,-0.713407 l 0,0.76092 c 0.04763,0.285434 0.142777,1.093986 0.380579,1.56971 0.132561,-0.2985 0.269993,-0.571343 0.428092,-0.856184 0.287216,1.421232 0.549131,2.991417 1.664736,4.090511 -0.19029,-0.523237 -0.380579,-1.284276 -0.332947,-2.092828 0,-0.142658 -0.237921,-1.522078 -1.093986,-4.185655 -0.903697,-2.758722 -1.95017,-4.803918 -3.139301,-6.183219 -0.596526,-0.656155 -1.505092,-1.345687 -1.902538,-2.14046 -0.285316,-0.475605 -1.474447,-2.568432 -2.235486,-3.472129 -0.696065,-0.795486 -1.458886,-1.580638 -2.092827,-2.425775 -0.190171,-0.237802 -0.239228,-0.523355 -0.237803,-0.761039 0.0012,-0.207275 -0.400534,-1.223103 -0.808552,-1.569591 0.156912,-0.0784 0.389725,0.104291 0.475605,0.19029 0.181618,-0.545093 -0.219035,-1.148864 -0.761039,-1.284276 0,0 0.04763,-0.142658 0.428092,0 -0.276051,-0.828389 -0.230913,-1.590022 -1.141499,-2.045196 0,0 0.237802,-0.142658 0.570749,0.142658 -0.142539,-0.6185 -0.664944,-1.329888 -1.284157,-1.569591 0,0 0.09503,-0.04751 0.332948,-0.04751 -0.186133,-0.186132 -0.781826,-0.668033 -2.587557,-1.222272 z" id="_155289256" style="fill:#c1c1c1;fill-opacity:1;fill-rule:nonzero"/><path d="M 63.737748,76.184558 C 63.286968,74.418383 62.778936,72.606 62.778936,72.606 l -0.175204,-0.914031 c 0,0 1.83994,4.243503 2.838781,6.90708 0.95121,2.663577 1.854906,4.138142 1.854906,4.138142 -0.38046,1.189012 -0.142657,3.186695 -0.142657,3.186695 0.618381,-1.236644 2.14034,-2.187853 2.14034,-2.187853 0.0011,-0.740134 0.164514,-1.343073 0.19029,-2.092828 0.04751,-0.856184 -0.09515,-1.855025 -0.09515,-2.140341 0.703905,-1.600236 1.12,-3.260458 0.903697,-5.279641 0.277357,0.312517 0.49948,0.709131 0.665894,1.189131 0.01318,-0.942895 -0.357297,-2.158039 -0.428092,-2.140459 0.132205,0.0759 0.223786,0.14242 0.353972,0.365612 0.475605,-2.425775 -0.258827,-3.980399 -0.258827,-3.980399 0.523237,0.285315 0.856184,0.665894 0.856184,0.665894 0.38046,-2.90138 -1.236644,-5.374667 -1.236644,-5.374667 l 0.570749,0.142657 C 70.579378,64.472611 69.532905,62.998165 69.0573,62.33227 68.581695,61.666376 67.677998,60.667535 67.202394,59.858983 66.681889,58.87582 66.809342,57.701418 65.96183,56.908308 c 0.17556,-0.0024 0.351239,0.03029 0.527037,0.09681 0.04763,-0.761039 -0.79311,-1.542271 -0.79311,-1.542271 0.15513,-0.03849 0.38735,0.01354 0.516704,0.07792 -0.09253,-0.821737 -0.459332,-1.404127 -0.960237,-1.674832 l 0.570749,-0.04763 C 65.585171,52.96224 64.538816,52.534148 64.538816,52.534148 l 0.332947,-0.190289 c -0.402316,-0.134106 -1.111447,-0.31513 -1.495233,-0.410394 0.725405,1.476704 1.584558,3.709813 1.542746,5.927838 -0.04751,2.378143 -1.236643,4.85143 -1.95017,5.564956 -0.665894,0.713408 -1.426814,1.189131 -1.712248,1.522079 -0.285434,0.285315 -0.428092,2.092708 -0.428092,2.092708 l 0.380579,-1.331788 c -0.02352,-1.19e-4 -0.107736,1.855025 -0.285434,2.901498 l 0.285434,-0.665894 c 0.142657,1.093867 0.04751,2.473288 0.09503,3.329353 l 0.190289,-0.95121 c 0,0 0.285434,0.523237 0.285434,0.903697 0.04751,0.38046 0.237803,1.95017 0.665895,3.234326 l 0.04751,-0.998841 c 0,0 0.313348,1.298411 1.244246,2.722374 z m -29.595593,-21.080199 -0.01057,-0.0012 -4.75e-4,0.0012 0.01105,3.57e-4 z m -1.055976,26.258995 c 0.01164,-0.06307 0.02138,-0.125197 0.0297,-0.186251 0.03742,-0.274744 -0.0036,-0.606741 -0.0152,-0.935531 -0.05761,-0.779569 0.23412,-0.998485 0.426428,-1.404602 0,0 -0.04751,1.093868 0.04763,1.379302 0.142658,0.332947 0.285316,0.951209 0.285316,0.951209 0.428092,-0.713407 0.570868,-2.045195 0.903815,-2.901379 0.38046,-0.856065 1.141499,-1.617104 1.141499,-1.617104 -1.141499,1.807393 -0.856183,4.042879 -0.856183,4.042879 0.142657,-0.523118 0.713526,-1.379302 0.713526,-1.379302 0.142657,-1.426933 1.854906,-3.805076 2.282998,-4.66126 0.428092,-0.903697 0.665894,-2.378262 0.665894,-2.378262 l 0.523237,0.475724 c 0.05013,0.557208 0.130779,1.107527 0.04751,1.664735 l 0.142776,0.475605 c -0.09313,0.269043 -0.09182,0.538797 -0.04763,0.808552 l 0.190289,-0.523118 0.235546,0.57467 c -0.19029,0.618262 -0.04751,0.903697 -0.04751,0.903697 0.04751,-0.332948 0.19017,-0.57075 0.19017,-0.57075 l 0.192547,0.709487 c -0.142658,0.428092 -0.19029,1.236644 -0.19029,1.236644 0.332947,-0.428092 0.618381,-1.664735 0.665894,-2.14034 -0.002,0.09811 -0.0056,0.193378 -0.01093,0.286741 0.03362,-0.493898 0.02768,-1.061797 -0.03659,-1.713675 0.125553,0.753556 0.166296,1.391299 0.155487,1.926533 0.128166,1.312308 -0.07792,2.924661 -0.155487,2.925017 0.222005,-0.183044 0.468478,-0.483801 0.651047,-0.75023 0.0053,-0.01936 0.01021,-0.0386 0.01485,-0.05832 l -4.75e-4,0.03718 c 0.05488,-0.08089 0.103222,-0.1581 0.143132,-0.227468 0.04751,0.856183 -0.332947,1.75988 -0.332947,1.75988 0.257521,-0.319525 0.580609,-0.986013 0.710557,-1.36968 l 4.75e-4,5.94e-4 0.0024,-0.01069 -0.0012,0.01212 0.191477,0.273318 -0.38046,1.474447 0.285315,-0.428092 0.04763,0.570749 c -0.190289,0.332948 -0.285434,0.951329 -0.285434,0.951329 l 0.332947,-0.618381 0.04763,0.380579 -0.237921,0.808552 0.285434,-0.332948 c 0.237802,2.425775 -0.04751,2.90138 -0.04751,2.90138 0,0 0.475605,0.57075 0.570749,1.426933 0.09515,0.856184 -0.285434,3.852708 -0.380579,5.136865 -0.09514,1.284276 -0.951209,1.426934 -1.664735,2.092828 -0.760921,0.713407 -0.903697,1.379302 -0.903697,1.379302 l 0.380579,0 c 0.38046,-1.236644 1.474446,-1.569591 1.474446,-1.569591 -0.808552,0.523236 -1.141499,1.617222 -1.141499,1.617222 l 0.57075,0.04751 c 0.38046,-0.998841 1.331788,-1.189012 1.331788,-1.189012 -0.761039,0.38046 -1.093986,1.236644 -1.093986,1.236644 0.57075,0.237802 0.95121,0.09515 1.522078,-0.237802 0.57075,-0.380579 0.427973,-1.284276 0.38046,-2.568433 -0.04751,-1.284276 0.04751,-3.71005 0.19029,-4.471089 0.142657,-0.761039 -0.09515,-0.95121 -0.09515,-1.093987 0,-0.19017 0.09515,-0.332947 0.475605,-1.236643 0.380579,-0.903697 0.475605,-2.996525 0.475605,-2.996525 0.523236,2.14046 -0.285316,3.472248 -0.285316,3.472248 1.284157,-1.522078 0.856184,-3.424616 0.856184,-3.424616 2.045196,-1.95017 1.236644,-4.042998 1.236644,-4.042998 0.190171,1.902657 -0.523237,2.663578 -0.523237,2.663578 -0.190289,-2.235486 -1.522078,-3.662419 -1.522078,-3.662419 1.046473,2.235604 0.04763,4.233168 0.04763,4.233168 0,0 0.142658,-1.569591 -0.761039,-2.806235 -0.951329,-1.236644 -1.474446,-2.758722 -1.617223,-3.614787 -0.142658,-0.856183 0,-1.664735 0,-1.664735 -1.902538,-0.332948 -1.664736,-2.996525 -1.664736,-2.996525 -0.332947,0.332947 -0.76092,0.998842 -0.76092,0.998842 -0.713526,-1.522078 -0.04763,-4.613747 -0.04763,-4.613747 l -0.428092,0.285434 c -0.04751,-1.617223 0.951329,-4.042998 0.951329,-4.042998 -0.332947,0.237921 -0.808552,0.570869 -0.808552,0.570869 0.38046,-1.95017 2.425656,-4.804037 2.425656,-4.804037 -1.849324,1.908121 -2.883444,4.214876 -3.404067,5.7012 -0.405642,1.158367 -0.623251,2.404751 -1.055382,3.548625 -0.554357,1.466488 -1.817846,1.288552 -2.40772,-0.07804 -0.292323,-0.677297 -0.269755,-1.456866 -0.314892,-2.179895 0.142658,0.04763 0.421321,0.24493 0.421321,0.24493 -0.09514,-0.285316 -0.339955,-0.917357 -0.339955,-0.917357 0.142777,0.04763 0.441752,0.196822 0.441752,0.196822 -0.09503,-0.332947 -0.38046,-0.95798 -0.38046,-0.95798 0.332947,0.09515 0.523236,0.196941 0.523236,0.196941 -0.190289,-0.475605 -0.428091,-0.856183 -0.428091,-0.856183 0.224261,0.0071 0.523236,0.188982 0.523236,0.188982 -0.142776,-0.428092 -0.475723,-0.997534 -0.475723,-0.997534 0.190289,0.04763 0.570749,0.332947 0.570749,0.332947 -0.285315,-1.331789 -1.141499,-2.378143 -1.141499,-2.378143 0.57075,0.237802 1.046473,0.856065 1.046473,0.856065 0.04751,-0.237803 -0.04763,-0.760921 -0.04763,-0.760921 0.19029,0.142658 0.523237,0.38046 0.523237,0.38046 -0.142658,-0.38046 -0.951328,-1.331788 -0.951328,-1.331788 0.285434,0.142658 0.80867,0.428092 0.80867,0.428092 -0.190289,-0.428092 -0.475723,-0.523237 -0.475723,-0.523237 0.190289,-0.998841 -0.713408,-1.664736 -0.713408,-1.664736 0.618263,0.09515 1.1415,0.475605 1.1415,0.475605 -0.142658,-0.285315 -0.523237,-0.618262 -0.523237,-0.618262 0.04763,-0.998842 -0.76092,-1.379302 -0.76092,-1.379302 0.76092,0.04751 1.284157,0.332947 1.284157,0.332947 -0.523237,-0.570868 -1.093987,-0.761039 -1.093987,-0.761039 l -0.761039,0.475605 -0.237802,0.19029 c -0.618263,0.903696 -2.473288,2.5208 -4.042879,3.947734 -1.617223,1.522078 -2.378262,3.519761 -2.90138,5.232009 -0.523236,1.712368 -0.190289,4.375945 -0.190289,4.375945 l 0.428092,-1.236644 c 0.332947,1.141499 0.09514,2.187854 -0.04763,2.90138 -0.09503,0.713407 -0.04751,1.712248 -0.04751,1.712248 0.428092,-1.284275 1.236644,-2.33063 1.236644,-2.33063 0.04763,0.665895 -0.285315,1.046355 -0.332947,2.568433 -0.04751,1.522078 0.570749,2.711209 0.570749,2.711209 0.285435,-1.855025 1.236644,-2.901499 1.236644,-2.901499 -0.76092,3.139301 1.189131,5.041839 2.52092,6.183339 1.331788,1.141499 1.37942,1.712248 1.37942,1.712248 0.150379,-0.112724 0.241485,-0.285434 0.32,-0.470022 z m 7.763026,-2.064558 c 0.08944,-0.119851 0.172828,-0.252175 0.242078,-0.397208 l -0.0017,-0.0012 c -0.06842,0.14242 -0.150853,0.275456 -0.240415,0.398515 z m -3.246918,17.374544 2.953644,0 c 0.145627,-0.267023 0.633348,-0.874714 0.908329,-1.067973 0,0 -1.553436,-0.274863 -2.373629,-0.08137 -0.901796,0.212858 -1.38726,0.507676 -1.488344,1.149339 z M 51.60139,79.740667 c 0,0 -0.09514,-0.808671 -0.285315,-1.189131 0,0 -1.95017,-0.09515 -2.425775,-0.237802 0,0 -0.09515,1.379301 -0.380579,2.092827 0,0 0.332947,1.759762 0.523237,2.473288 0.237802,0.713407 1.141499,2.71109 1.522078,3.567274 0.38046,0.856184 0.761039,2.949011 0.808552,4.470971 0.04751,1.474446 0,2.14034 0,2.14034 l 0.09515,0.380579 c 0,0 -0.761039,0.09515 -1.426934,0.57075 -0.665894,0.523236 -0.970571,1.052412 -0.970571,1.052412 l 0.565286,-0.02886 c 0,0 0.88089,-1.071061 1.641929,-1.261351 0,0 -0.966651,0.831596 -1.156822,1.259688 l 0.823875,0.09324 c 0,0 0.285434,-0.306577 0.428092,-0.401722 0.190289,-0.09503 0.57075,-0.142658 0.665894,-0.237803 0.09514,-0.04751 0.428092,-0.951209 0.332947,-1.75988 -0.04751,-0.808552 -0.475604,-1.759762 -0.618381,-2.140341 -0.09503,-0.428091 -0.04751,-1.664735 -0.142658,-2.71109 -0.142657,-1.046473 -0.285315,-2.235485 -0.237802,-2.996524 0.04751,-0.713526 -0.04751,-1.95017 -0.332947,-2.711209 -0.285434,-0.76092 -0.998842,-1.759762 -0.998842,-1.759762 l 0.285435,-0.09515 c 0,0 0.951209,0.713408 1.284156,1.474447 0,0 -0.04751,-1.522078 -1.426933,-3.044038 l 0.380579,0 c 0,0 0.57075,0.285316 1.046354,0.998842 z m -4.752841,16.932673 2.360207,0 c 0.266073,-0.434625 1.18141,-1.162999 1.222746,-1.138173 0,0 -0.703667,-0.119971 -1.475871,-0.06878 -0.856778,0.0569 -1.681247,0.260965 -2.107082,1.206948 z M 60.448306,73.652473 c -0.761039,0.713408 -2.425775,0.761039 -2.425775,0.761039 l 0.04751,0.237803 c -0.665894,0.38046 -1.759881,0.142658 -1.759881,0.142658 l 0.04763,0.190289 c -0.475605,0.523237 -2.235485,0.428092 -2.235485,0.428092 -0.618381,0.523118 -2.045315,0.09515 -2.045315,0.09515 l 0.04763,0.285315 c -1.425627,0.689888 -2.984409,-0.310141 -3.387081,-0.63513 -0.02922,0.218085 -0.06664,0.437476 -0.112962,0.658768 1.033407,0.360742 2.263399,0.451967 2.263399,0.451967 l 2.187854,0.808671 -0.899421,-0.781826 1.601306,-0.07436 2.151981,0.475605 -0.960593,-0.618263 1.015233,-0.09515 1.657609,0.428092 -0.63121,-0.57657 0.731225,-0.138975 1.316822,0.252769 -0.743578,-0.481663 0.759495,-0.191358 1.230823,0.232101 -0.686681,-0.401366 c 0.761039,-0.285316 1.400207,-0.407305 1.400207,-0.407305 L 60.448306,73.652473 z M 47.843827,69.657108 c 0,0 0.523237,0.951209 0.428092,2.045195 0,0 -0.475605,-0.761039 -0.713407,-1.141499 0,0 0.19017,-0.618381 0.285315,-0.903696 z m -0.428092,1.379301 c 0.0259,-0.01283 0.7785,1.085434 0.713526,1.902538 0,0 -0.332947,-0.618262 -0.665894,-1.046354 0,0 0.285315,0.906904 0.38046,1.477653 0,0 -0.618263,-1.097193 -1.141499,-1.239851 0.08208,-1.18e-4 0.711388,1.236525 0.618381,1.95017 -0.213333,-0.737639 -0.667795,-1.760237 -1.056926,-2.322553 0.33853,0.193972 0.988745,0.07246 1.151952,-0.721603 z m -0.285315,5.327155 c 0,0 -0.808552,-2.520801 -1.95017,-3.044038 0,0 1.426933,3.186814 1.141618,4.994208 0,0 -0.808671,-1.807394 -1.522078,-2.235486 0,0 0.998841,1.902538 0.713407,3.567274 0,0 -1.093986,-2.758722 -2.520801,-3.71005 0,0 0.523118,0.998841 0.76092,1.95017 0.237922,0.951328 0.332948,1.807393 0.285435,2.187972 0,0 -0.475605,-1.474565 -1.189131,-2.425775 -0.713408,-0.998841 -1.331789,-2.758722 -0.95121,-4.185655 0,0 1.379302,-0.142658 1.664736,-1.569591 0.06497,0.259302 0.382123,1.094105 1.170125,0.856184 0.676823,-0.204544 0.827558,-0.713526 0.970215,-1.093986 -0.04062,0 1.505805,1.474327 1.426934,4.708773 z m 23.689492,20.309776 3.096658,0 c 0.142658,-0.50245 0.437238,-0.818886 0.800832,-1.189131 -1.573511,-0.255026 -3.010541,0.0702 -3.89749,1.189131 z m 4.943963,-13.127597 c 0,0 0.713407,0.713408 0.808552,0.903697 0.04751,0.142658 -0.237803,2.140341 -0.285434,2.473288 l -0.998842,-0.761039 c 0,0 0.475724,1.284275 0.57075,2.616064 0.09514,1.331789 0.190289,2.90138 0.190289,3.709932 0.04763,0.761039 0.142658,2.092827 -0.523236,2.33063 -0.665895,0.237802 -1.807394,-0.04751 -1.807394,-0.04751 0,0 1.284276,-1.902539 1.331789,-3.709932 0.09514,-1.807512 -0.09515,-4.375945 -0.475605,-5.660102 0,0 0.713407,0.142658 1.093986,0.523118 0,0 0.285315,-1.093986 0.09515,-2.378143 z m -3.091669,-8.371192 c 0,0 0.237802,0.856065 0.38046,1.189013 0.190289,0.380579 0.237802,1.331788 0.618381,2.378261 0.38046,1.046355 1.284157,3.329472 1.236644,3.900222 0,0.618262 -0.523237,1.950051 -0.523237,1.950051 0,0 -0.665894,-0.761039 -1.046354,-1.712249 -0.380579,-0.903697 -1.093986,-2.092828 -1.331789,-2.473288 -0.285434,-0.380579 -0.285434,-1.617223 -0.04763,-2.473406 0.237802,-0.903697 0.713526,-2.758604 0.713526,-2.758604 z M 59.559338,65.422395 c -0.887542,-0.146459 -1.995188,-0.110824 -2.868596,-0.0936 -1.902657,0.03765 -4.803917,1.236644 -7.419982,0.856183 -2.71109,-0.380579 -4.708773,-2.378261 -4.66126,-4.804036 0,-1.455798 0.233526,-2.397742 0.457194,-3.133837 0.173541,-1.372769 0.547824,-2.739004 0.987676,-3.977786 -0.03433,-0.166058 -0.06331,-0.339005 -0.08671,-0.515872 -0.214997,0.102865 -0.429637,0.286978 -0.644633,0.588092 -0.951328,1.236644 -0.761039,1.902538 -0.761039,1.902538 0,0 -0.475723,0.285434 -0.523236,0.903697 0,0 -1.236644,0 -2.663578,2.092827 -1.426933,1.997683 -1.664735,3.472129 -1.664735,3.472129 l 0.903696,-0.332947 c 0,0 -1.141499,1.95017 -1.284156,3.757564 l 0.761039,-0.38046 c 0,0 -0.856184,2.520919 -0.618382,4.518483 0,0 0.713408,-0.808552 0.903697,-0.903697 0,0 -0.428092,3.139301 1.093986,3.234327 1.569591,0.142777 1.997683,-1.379301 2.140341,-1.902538 0.07234,0.417283 0.419064,1.68184 1.074862,1.359346 0.725523,-0.356703 0.732531,-1.311714 0.732531,-1.311714 0,0 0.428092,0.856065 1.046473,0.618262 0.618263,-0.285315 1.379302,-1.75988 0.998842,-4.328313 0.550913,0.663519 1.060727,1.647988 1.35994,2.696599 0.335085,0.974372 0.455174,2.182984 -0.02815,3.677029 0.02067,0.310497 0.02494,0.62147 0.01223,0.934818 0.324157,0.418233 1.071061,1.246978 2.318396,1.15801 0,0 -0.665895,-0.285435 -0.951329,-0.618382 0,0 0.856184,0.04751 1.236644,-0.04751 0,0 0.856184,0.427973 1.664736,0.332947 l -0.998842,-0.428091 0.761039,-0.19029 c 0,0 1.426934,0.618381 2.378262,0.332947 l -1.712367,-0.570749 1.331788,-0.332947 c 0,0 1.189131,0.665894 2.283117,0.570749 0,0 -1.37942,-0.523236 -1.807512,-0.761039 l 1.093986,-0.285315 c 0,0 1.426934,0.570749 2.378262,0.19017 l -1.902538,-0.428091 0.713407,-0.427974 c 0,0 1.474446,0.142658 2.092828,-0.142776 l -1.569591,-0.09515 0.38046,-0.427973 c 0,0 0.856184,0 1.474446,-0.332947 l -1.189012,-0.04763 c 0,0 0.237802,-0.428092 0.285315,-0.665894 0,0 0.57075,-0.04751 0.951329,-0.19029 L 59.16403,70.798607 c 0.276644,-1.791002 0.384024,-3.569769 0.395308,-5.376212 z m 17.155746,10.750998 c -0.14824,-0.80974 -0.183875,-1.604157 -5.93e-4,-2.47994 -0.440208,0.268211 -0.541292,0.683356 -0.665301,0.957862 -0.169265,-0.932323 -0.264053,-1.851106 -0.217015,-2.788536 -0.32487,0.3238 -0.484989,0.804513 -0.591537,1.218945 0,0 -0.142658,-1.189131 -0.332947,-1.997683 -0.190289,-0.808671 -0.380579,-1.664736 -0.998841,-3.091669 0,0 2.758721,4.138023 3.376984,7.182179 0,0 -0.332947,0.523118 -0.57075,0.998842 z m -9.370033,13.412912 c -1.617223,2.378262 -2.711209,4.375945 -2.711209,4.375945 0,0 0.951329,-0.951329 1.331789,-1.474565 0,0 -0.38046,0.998841 -0.427973,1.284275 -0.09514,0.285316 0.09503,0.95121 -0.332947,1.093986 -0.475724,0.190171 -1.331789,-0.190289 -1.759881,-0.618381 0,0 1.379302,-1.141499 2.140341,-2.615945 0.713407,-1.474565 1.902538,-3.757564 1.902538,-3.757564 l 0,0.903697 c 0,0 0.903697,-1.426933 1.046473,-1.997683 0.142658,-0.57075 -0.04763,-1.093986 -0.523236,-0.713407 -0.475605,0.332947 -0.428092,-0.332947 -0.09515,-0.665895 0.665894,-0.665894 1.617104,-0.80867 1.617104,-0.80867 0,0 0.237921,0.618381 0.332947,0.80867 0,0 -0.903697,1.759762 -2.520801,4.185537 z m -5.041839,7.087035 -2.434564,0 c 0,0 0.189695,-0.789309 1.38821,-1.085196 1.228091,-0.302896 2.031179,-0.08671 2.378143,0.03884 -0.432487,0.121871 -1.200653,0.746192 -1.331789,1.046355 z M 77.571268,76.125761 c 0,0 0.38046,1.093986 0.428092,1.997683 0,0 -0.428092,-0.665894 -0.428092,-1.997683 z M 33.207456,54.973818 c 0.377847,-0.399347 0.605196,-0.928879 0.605078,-1.488463 l -0.181619,0.190289 c -0.06212,0.24885 -0.213808,0.46147 -0.409561,0.631091 -0.01283,0.02043 -0.0272,0.0348 -0.0272,0.0348 l 0.0013,-0.01283 -0.02898,0.0234 c -0.336867,0.423935 -0.828389,0.465033 -0.828389,0.465033 0.523118,0.09514 0.808552,-0.09502 0.808552,-0.09502 -0.475604,0.523117 -1.236644,0.475604 -1.236644,0.475604 -0.120564,0.150141 -0.265835,0.29173 -0.428091,0.428092 0.720653,-0.06782 1.331907,-0.341499 1.725552,-0.651996 z m 0.328909,-2.225508 -0.0093,-0.07151 -0.146102,0.146102 c -0.08612,0.545924 -0.277594,1.105271 -0.709962,1.471121 0.612917,-0.35029 0.846562,-0.933868 0.86533,-1.545716 z m -0.532383,0.356585 0,-0.808552 c -0.07056,0.05797 -0.131374,0.113081 -0.191002,0.165464 -0.02423,0.652947 -0.125316,1.07118 -0.141945,1.07118 0.09514,-0.09514 0.237802,-0.237803 0.332947,-0.428092 z m -3.424617,2.616064 c 0.321901,-0.01984 0.600327,-0.141589 0.852621,-0.313348 -0.344944,0.14539 -0.740252,0.218203 -1.280712,0.218203 0,0 0.475604,-0.142776 0.856183,-0.332947 0.428092,-0.190289 0.665895,-0.475724 0.95121,-0.570749 0,0 -0.237802,-0.09515 -1.046354,0.237802 -0.761039,0.332947 -0.856184,0.523118 -0.856184,0.523118 -0.101559,-0.134937 -0.222836,-0.243742 -0.32879,-0.32297 0.27118,-0.279257 0.699391,-0.4604 1.048255,-0.566117 0.580015,-0.304677 1.313852,-0.330809 1.944112,-0.204781 -0.323326,0.768998 -0.909636,1.060609 -1.284157,1.284157 0,0 0.475605,-0.04751 0.998842,-0.475605 0.570749,-0.428091 0.665894,-0.951328 0.998841,-1.189131 0,0 -0.380579,0.04763 -0.856184,0 -0.428092,0 -1.284275,0 -1.75988,0.19029 -0.475605,0.142658 -0.951329,0.523237 -0.951329,0.523237 0.05915,-0.206919 0.172235,-0.359317 0.312042,-0.474536 0.06331,-0.103103 0.191002,-0.26631 0.353853,-0.42928 0.332947,-0.285315 0.951328,-0.618263 0.713526,-2.140341 0,0 -0.26536,0.619807 -0.583103,1.005256 -0.0664,0.715427 -0.473705,1.38726 -1.03412,1.848611 -0.102034,0.07768 -0.212383,0.139451 -0.332947,0.19029 l -0.190171,-0.237922 c 0.703311,-0.790497 0.801425,-2.209115 0.291849,-3.202018 -0.08279,-0.144201 -0.186489,-0.309665 -0.296125,-0.46242 0.03148,0.274388 0.0043,0.548775 -0.03944,0.822925 0.129948,0.217372 0.255026,0.498411 0.329028,0.84383 0.17853,0.821619 -0.232814,1.348181 -0.448879,1.559376 -0.0095,0.02186 -0.01853,0.04122 -0.02673,0.05785 -0.142658,0.237803 -0.285435,0.428092 -0.380579,0.57075 0,0 -0.190171,0.998841 -0.998842,1.284275 -0.76092,0.237803 -1.664617,0.04751 -2.378143,0.332948 -0.665894,0.285315 -3.472129,1.712248 -3.614787,2.282998 -0.190289,0.570749 0.332948,0.570749 0.57075,0.523236 0.285315,-0.09514 0.808552,-0.475604 1.284157,-0.761039 0.45945,-0.229725 1.096362,-0.54818 1.396406,-0.484038 l 0.07816,-0.0392 c 0.04751,0 0.142658,0.190289 0.190171,0.237802 0.04763,0.09514 0.285434,0.285434 0.142776,0.380579 -0.130542,0.130423 -0.380104,0.02209 -0.567424,0.0024 -0.102984,0.012 -0.267379,0.0645 -0.431417,0.187676 -0.423579,0.211789 -1.337966,0.838723 -1.499035,1.073912 -0.05108,0.0746 -0.0086,0.203237 0.01509,0.283415 0.03278,0.111537 0.06759,0.211195 0.15216,0.212264 0.09503,0.0012 0.374165,-0.134937 0.665894,-0.285434 0.283296,-0.146102 0.864499,-0.455887 1.236644,-0.579777 0.305865,-0.101915 0.859272,-0.09063 0.976629,-0.05333 0.01604,0.0048 0.02875,0.01485 0.02851,0.03314 -0.0019,0.07554 -0.205612,0.307171 -0.29173,0.695115 -0.09514,0.38046 -0.38046,1.522078 -0.428091,2.806235 0,0 0.285434,-1.331789 0.523236,-2.235486 0.237803,-0.856184 0.428092,-1.284157 1.046355,-1.426933 0,0 -0.380461,0.808671 -0.523118,1.331788 -0.142777,0.57075 -0.19029,1.284276 -0.19029,1.284276 0,0 0.618382,-2.045315 0.951329,-2.711209 l 0.38046,-0.09503 c 0,0 -0.523237,0.95121 -0.808552,1.902538 -0.285434,0.998842 -0.285434,1.379302 -0.428092,2.187854 0,0 0.38046,-1.189012 0.713407,-2.378143 0.285434,-1.141499 0.761039,-1.807394 0.761039,-1.807394 l 0.04751,0.190171 c 0,0 -0.09503,0.237921 -0.237802,1.093986 -0.09514,0.903697 -0.237803,1.902539 -0.57075,3.044156 0,0 0.57075,-0.998841 0.665895,-1.950169 0.09514,-0.95121 0.237802,-2.092828 0.237802,-2.092828 0,0 0.09514,0.09515 0.237802,0.237802 0.09515,0.19029 0.19029,0.570869 0.19029,0.856184 0.04502,0.359792 -0.03742,0.8468 -0.207394,1.341172 -0.01129,0.10833 -0.02376,0.202643 -0.0354,0.27807 0.241841,-0.27605 0.604483,-0.986725 0.290423,-2.332649 0.427973,0.285315 1.046354,0.570749 1.664735,0.665894 l -8.31e-4,5.94e-4 c 0.138975,-0.01663 0.263341,-0.04633 0.362405,-0.08754 -0.979955,-0.138381 -1.781974,-0.634179 -2.597178,-1.292471 l 0.475724,-0.190171 c 0,0 1.379302,1.331789 2.520801,0.856065 0,0 -0.618263,0.237802 -2.425656,-0.903697 0,0 0.427973,-0.190289 0.713407,-0.38046 0,0 1.1434,0.787053 2.065389,0.611255 0.07364,-0.01366 0.150497,-0.03338 0.218441,-0.06462 0,0 -0.278783,-0.0095 -0.604484,-0.13173 -0.340906,-0.05797 -0.881603,-0.202643 -1.584201,-0.510052 0,0 0.237802,-0.190289 0.38046,-0.38046 0.776956,0.388419 1.647631,0.699391 2.525789,0.655204 0.313942,-0.143251 0.470735,-0.322375 0.470735,-0.322375 0,0 -0.405761,0.162138 -1.01357,0.01734 -0.645583,-0.06486 -1.286058,-0.283652 -1.887809,-0.492947 l 0.237802,-0.285316 c 0.0101,0.01342 2.869546,1.047068 3.661468,-0.480712 -0.32285,-0.01663 -0.66233,-0.07768 -0.975322,-0.187795 -0.382836,-0.03516 -1.564721,-0.323445 -2.399405,-0.04906 0.09514,-0.332947 0.141351,-0.804514 0.141351,-0.804514 0.174135,0 0.349577,-0.03421 0.523236,-0.04751 z m 2.194387,0.750943 c 1.28974,-0.01473 2.136421,-0.637506 2.20282,-1.970957 -0.0569,0.188626 -0.143727,0.414669 -0.203474,0.5268 -0.872338,1.636228 -3.337549,1.168819 -3.337549,1.168819 0.562673,0.160831 0.989814,0.247186 1.338203,0.275338 z m -10.518065,0.390556 c 0.251462,-0.143727 0.584528,-0.260252 0.814372,-0.288285 0.19219,-0.09503 0.570037,-0.236377 1.088166,-0.377609 0.380579,-0.09515 1.095887,-0.32879 1.807393,-0.618381 0.69072,-0.281158 1.590853,-0.576095 2.089027,-0.963207 0.95311,-0.740371 1.169413,-2.156852 0.431893,-3.127304 0,0 0.09515,0.951328 -0.38046,1.664736 -0.222955,0.334372 -0.532977,0.668982 -0.930186,1.003355 -0.539747,0.455055 -1.270259,0.905478 -1.923681,1.232249 -1.141499,0.570749 -1.855025,0.713407 -2.853867,1.379301 -0.04751,0.04751 -0.09514,0.04751 -0.142657,0.09514 z m 10.937842,-5.274534 c -0.06521,0.173541 -0.116882,0.271299 -0.187082,0.360505 0.04276,1.16775 -0.144083,1.774847 -0.144083,1.774847 0.370957,-0.649027 0.369176,-1.490244 0.331165,-2.135352 z m -0.66435,0.255976 c -0.03908,-0.185181 -0.100846,-0.368225 -0.189933,-0.546399 -0.01544,0.05143 -0.03017,0.100134 -0.04549,0.145984 0.158456,1.248641 -0.315605,2.184528 -0.335085,2.184646 0.500193,-0.545567 0.565761,-1.264795 0.570512,-1.784231 z" id="_154729208" style="fill:#ffffff;fill-rule:nonzero"/><path d="m 54.12231,47.392885 c -0.09123,-0.243029 0.176748,-0.530126 0.426666,-0.452086 -0.03682,-0.595812 -0.08244,-1.191387 -0.136718,-1.786131 -1.218114,-0.33271 -2.374223,-0.535352 -3.43792,-0.544142 -1.545597,-0.01235 -4.135173,0.607215 -4.555069,2.489917 -0.119257,0.535827 -0.02471,1.100994 0.232458,1.647987 2.330867,-0.859153 4.966412,-1.266339 7.470583,-1.355545 z m 1.110734,9.626366 c -0.0721,0.09158 -0.209175,0.181856 -0.334491,0.176036 -0.08232,-0.0036 -0.202168,-0.07899 -0.261796,-0.127335 -1.213244,0.651046 -2.553229,1.039821 -3.929442,1.036852 -1.929264,-0.0048 -3.399672,-0.752487 -4.21345,-2.534817 -0.109399,-0.239466 -0.23614,-0.580253 -0.313942,-0.838486 -0.73657,2.226696 -1.237713,4.931609 -0.700698,7.171252 0.621945,2.593496 3.208908,3.710169 5.838157,2.945567 1.814164,-0.527513 3.692233,-0.795843 5.568995,-0.446147 1.994832,0.371789 4.024586,0.1132 5.246739,-1.651076 1.827349,-2.638752 1.919643,-7.082046 0.665775,-9.722342 -0.03148,0.134462 -0.101559,0.370245 -0.140638,0.503163 -0.69856,2.368996 -1.991744,3.818617 -4.873287,3.840354 -0.765078,0.0059 -1.600474,-0.09598 -2.551922,-0.353021 z m -0.607097,-8.522758 c -0.257282,0.171047 -0.575263,-0.117832 -0.516228,-0.377966 -2.522701,0.08184 -4.975915,0.450186 -7.362967,1.354714 l -1.18e-4,0 c -0.687275,1.667349 -0.841217,4.150852 -0.0095,5.971549 0.759495,1.664379 2.187735,2.37743 3.990496,2.376717 1.321692,-8.31e-4 2.652174,-0.379034 3.816123,-1.007156 l 0,-0.0095 c 0.129948,-2.766562 0.18827,-5.540132 0.08279,-8.308119 z m 1.182598,-0.396258 c 0.07115,0.238871 -0.18922,0.512308 -0.43415,0.433674 0.102035,2.732234 0.04644,5.469812 -0.08018,8.200145 0.936719,0.253126 1.775798,0.362762 2.51997,0.353734 1.48181,-0.01782 2.924067,-0.560296 3.752099,-1.82034 l 0,-0.0012 0.0012,-0.0024 5.94e-4,3.57e-4 c 0.321663,-0.489859 0.63121,-1.135679 0.840029,-1.872368 0.414907,-1.465656 0.347557,-3.022775 -0.3219,-4.38319 C 61.484099,48.802678 60.852295,48.6542 60.223461,48.516293 58.751628,48.193087 57.299156,48.10982 55.808199,48.100199 z m -0.509814,-1.12392 c 0.261559,-0.168433 0.588448,0.135531 0.507795,0.399466 1.522078,0.0177 3.070526,0.123058 4.557919,0.408611 0.551864,0.105954 1.106221,0.258827 1.64193,0.432725 0.193972,-1.221321 -0.04549,-2.137015 -0.748686,-2.711091 -0.954773,-0.7785 -2.877979,-0.932442 -3.923621,-0.885404 -0.75902,0.03433 -1.48775,0.187676 -2.177401,0.480831 0.05702,0.624083 0.104291,1.249473 0.142064,1.874862 z" id="_154615512" style="fill:#e08600;fill-opacity:1;fill-rule:nonzero"/><path d="m 46.68653,49.258957 c 0.620994,-0.234001 1.357445,-0.468715 2.004453,-0.639999 1.857164,-0.491879 3.693421,-0.682287 5.591208,-0.729325 l 0.168315,-0.15216 -0.138857,-0.125553 c -1.903013,0.05963 -3.848194,0.319287 -5.677206,0.804157 -0.65366,0.173304 -1.406503,0.356941 -2.032368,0.592131 -0.05987,0.02245 -0.126028,0.09087 -0.09657,0.173422 0.02886,0.0816 0.122109,0.09966 0.181025,0.07733 z m 8.938378,-1.382865 c 1.567571,0.0048 3.099033,0.08125 4.643799,0.407068 0.580252,0.122108 1.272397,0.304439 1.857163,0.502806 0.08968,0.02934 0.154298,-0.02209 0.170809,-0.08956 0.01651,-0.06735 -0.0152,-0.150141 -0.117238,-0.184232 -0.589874,-0.197891 -1.280593,-0.367156 -1.859064,-0.488908 -1.524335,-0.321188 -3.130748,-0.415383 -4.695351,-0.424648 l -0.153466,0.138738 0.153348,0.138738 z m -0.560891,8.965936 0.0012,-0.01782 1.19e-4,0 c 0.132561,-2.827022 0.188864,-5.644185 0.07519,-8.462773 l -0.179599,-0.162375 -0.120921,0.109398 c 0.116645,2.833674 0.0601,5.666041 -0.07329,8.507792 l -2.38e-4,0 -1.19e-4,0.01663 c 0.0059,0.08909 0.07471,0.136363 0.145152,0.138738 0.07032,0.0024 0.141945,-0.03991 0.152398,-0.129591 z m 0.01794,-9.675542 c -0.0392,-0.676585 -0.08873,-1.353288 -0.150378,-2.030229 -0.01853,-0.205613 -0.315843,-0.182688 -0.297669,0.01746 0.05939,0.653184 0.108092,1.306131 0.146577,1.95896 l 0.18055,0.163207 0.12092,-0.109399 z m -0.563266,1.13069 0.275456,-0.248968 -0.176748,-0.159881 -0.258827,0.234001 c -0.132205,0.119495 0.04122,0.282346 0.160119,0.174848 z m 0.785983,-0.710675 0.257045,-0.232339 c 0.09871,-0.08932 -0.06521,-0.260846 -0.160118,-0.174848 l -0.273675,0.247424 0.176748,0.159763 z m 0.221054,0.501737 -0.981024,-0.887186 c -0.12484,-0.112369 -0.285315,0.06105 -0.183637,0.15311 l -2.38e-4,2.38e-4 0.01924,0.01734 0.980905,0.886948 c 0.150616,0.135888 0.318575,-0.03183 0.164751,-0.170452 z m -0.08267,-2.377787 c 0.01722,0.394358 -0.02791,0.796792 0.03896,1.197921 l 0.0048,0.02114 c 0.140994,0.01307 0.268923,0.125078 0.314179,0.259896 1.599643,0.03813 3.34432,0.232576 5.051698,0.556496 1.011076,0.191714 0.977936,-0.650572 0.778857,-1.375026 -0.06355,-0.108923 -0.139926,-0.207631 -0.23222,-0.295887 -1.421469,-1.358039 -4.960473,-0.816985 -5.956107,-0.364543 z m 0.260965,3.784883 c -0.01425,1.626369 0.0083,3.251551 0.349814,4.868892 0.224855,1.063816 0.115219,1.720564 1.500103,1.781737 3.418321,0.151566 5.122849,-2.542895 4.60769,-5.891728 -0.219035,-0.549369 -0.607573,-0.989814 -1.149102,-1.162048 -1.231298,-0.391745 -2.402018,-0.663757 -3.624646,-0.731106 -1.422657,-0.07851 -1.673763,-0.165227 -1.683859,1.134253 z m -8.575498,-1.07308 c -0.990051,-2.724988 3.349071,-4.084572 7.180873,-2.884632 0.04193,0.464677 0.0797,0.928998 0.111774,1.393675 -0.140519,0.01995 -0.265241,0.136243 -0.304558,0.272724 -2.504884,0.09776 -4.843947,0.53072 -6.988089,1.218233 z m 7.308564,0.124959 c 0.08802,2.019776 0.127454,4.076494 -0.104766,6.027852 -0.09419,0.797386 0.03207,1.618648 -0.879109,1.886859 -1.585507,0.466458 -4.295766,0.509695 -5.228683,-0.581678 -0.740728,-0.866636 -1.096243,-2.476851 -1.08876,-4.47976 0.0036,-0.84585 -0.03421,-1.556169 0.938619,-1.88876 2.010392,-0.687512 3.982418,-1.130571 6.037592,-1.252323 0.03647,0.147528 0.173422,0.275457 0.325107,0.28781 z m -8.210954,7.579863 c 1.345092,2.264706 3.823488,2.777965 7.072781,2.073585 1.31504,-0.285197 2.831536,-0.237684 4.411223,-0.172947 1.936985,0.07946 3.580934,-0.740609 4.92864,-2.344765 0.31216,6.154355 -2.201039,8.794057 -7.442195,7.503961 -0.880653,-0.216659 -1.609264,-0.2966 -2.415322,0.148122 -2.610125,1.440237 -5.178082,2.400711 -6.43195,-0.790022 -0.723978,-2.220163 -0.519791,-4.33057 -0.123177,-6.417934 z" id="_155268856" style="fill:#fecc00;fill-opacity:1;fill-rule:nonzero"/><path d="m 26.773249,54.38917 -0.176986,0.128998 -0.393882,-0.176629 c 1.522078,-1.1415 1.474565,-2.282999 1.474565,-2.282999 0.285315,1.093868 -0.380579,1.902539 -0.903697,2.33063 z m 1.927839,2.758604 0.181737,-0.427974 c 0.912962,-0.224736 1.882939,0.394477 2.739479,0.346132 -0.64867,0.573957 -2.126561,-0.06283 -2.921216,0.08184 z m 4.255381,-0.190171 -0.03623,-0.229131 0.274031,0.03884 c -0.04751,1.807394 -1.426814,3.139182 -1.426814,3.139182 0.76092,-0.142657 1.236643,0.09515 1.236643,0.09515 -1.855025,1.046355 -2.473406,2.90138 -2.473406,2.90138 1.855025,-0.523237 1.902657,0 1.902657,0 -1.189131,0.332947 -1.759881,1.522078 -1.759881,1.522078 0.903697,-0.142658 1.52196,0.285315 1.52196,0.285315 -1.712249,0.856184 -1.997683,2.52092 -1.997683,2.52092 0.903815,-0.57075 2.045314,-0.856184 2.045314,-0.856184 -3.234326,3.139301 -0.998841,5.850391 -0.998841,5.850391 -2.33063,-1.75988 -0.665894,-4.708773 -0.665894,-4.708773 -0.475605,0.285315 -1.284276,0.95121 -1.284276,0.95121 0.142777,-2.425775 1.902538,-3.662419 1.902538,-3.662419 -0.856065,0.04763 -1.664736,0.761039 -1.664736,0.761039 0.428092,-1.474446 1.712368,-2.520919 1.712368,-2.520919 -1.189131,0.237921 -1.902538,1.093986 -1.902538,1.093986 0.665894,-2.568433 2.663577,-3.947734 2.663577,-3.947734 -1.046473,0.04751 -2.33063,1.236644 -2.33063,1.236644 0.475605,-1.189131 1.712249,-2.187973 2.568432,-2.949012 0.856184,-0.76092 0.713408,-1.521959 0.713408,-1.521959 z m 4.094192,9.677204 0.237803,-0.713526 c 0,0 1.042791,2.594327 0.995159,4.687036 -0.04751,2.092828 -0.903697,3.805195 -0.903697,3.805195 -0.04751,-0.713526 -0.38046,-1.522078 -0.38046,-1.522078 -0.237802,1.236644 -0.665894,1.95017 -0.665894,1.95017 L 36.09577,74.55617 c -0.04763,1.664736 -1.236763,3.186814 -1.236763,3.186814 L 34.668836,77.362405 34.1456,78.266102 33.717508,77.45755 c -0.04965,1.123919 -0.908805,1.495114 -1.046355,2.378262 -0.190289,-1.046474 0.475605,-1.426934 0.665895,-2.33063 0.19017,-0.903816 -0.237803,-2.045315 -0.237803,-2.045315 0.475605,0.618381 1.069517,2.036287 1.069517,2.036287 0.475724,-0.761039 0.02435,-2.226577 0.02435,-2.226577 0.523236,0.570869 0.774699,1.445464 0.774699,1.445464 1.093986,-1.379302 0.79501,-3.680949 0.79501,-3.680949 0.269993,0.419302 0.400654,0.711269 0.507795,0.940994 0.618382,-0.951209 0.443415,-2.98619 0.443415,-2.98619 0.237803,0.95121 0.618381,1.617104 0.618381,1.617104 0.808552,-2.568432 -0.281752,-5.971193 -0.281752,-5.971193 z m 23.254987,28.659231 c -0.903697,0.142658 -1.617104,0.475605 -2.187854,1.807394 l 0.532858,0 c 0.570869,-1.189131 1.131878,-1.617223 1.654996,-1.807394 z m -13.036609,-0.08148 c -0.925672,0.150497 -1.955872,0.986488 -2.183815,1.888878 l 0.732294,0 c 0.285315,-0.998842 0.928403,-1.555931 1.451521,-1.888878 z m -9.673998,0.241365 c 0.269043,-0.153585 0.600802,-0.295412 0.878872,-0.445315 -1.47409,0.06699 -2.364959,0.88778 -2.616065,2.092828 l 0.74833,0 c 0.04751,-0.618382 0.379153,-1.299361 0.988863,-1.647513 z m 33.850498,-0.142895 c -1.466012,0.392695 -1.960028,1.219658 -2.197831,1.790408 l 0.376897,0 c 0.142776,-0.285434 0.679435,-1.314803 1.820934,-1.790408 z M 69.295221,83.736033 c 0.324989,0.09906 0.57562,-0.151092 0.238396,-0.45565 -0.193734,-0.174966 -0.351002,-0.290779 -0.428567,-0.543192 -0.190289,-0.618381 -0.332947,-0.761039 -0.380578,-1.37942 0,-0.618263 0.09514,-1.569591 -0.57075,-2.520801 0,0 1.141499,-1.236763 0.998841,-3.852708 l 0.761039,0.332947 c 0,0 0,-1.189131 -0.142657,-1.855025 0,0 0.38046,0.190289 0.618262,0.475605 0,0 0.04763,-0.856065 -0.285315,-1.712249 l 0.38046,0.332947 c -0.04751,-0.285434 0.04751,-1.331788 -0.38046,-2.568432 l 0.475605,0.237802 c 0,0 -0.285434,-1.712249 -0.713526,-2.71109 0,0 0.618381,0.332947 0.761039,0.57075 0,0 0.142776,-1.569591 -0.95121,-3.614906 -1.046473,-2.045196 -2.806235,-2.806235 -2.806235,-2.806235 0,0 2.092709,1.141499 2.90138,5.184497 0,0 -0.665895,-0.523237 -1.95017,-0.951329 0,0 1.426933,0.665895 1.617223,2.949012 0,0 -0.761039,-0.713526 -1.569591,-1.141618 0,0 1.521959,1.236762 1.569591,3.377103 0,0 -0.665895,-0.713526 -1.379421,-1.236644 0,0 1.141499,1.141499 1.189131,2.806235 0,0 -0.713407,-0.665894 -1.141499,-1.236644 0,0 0.856065,1.617104 0.903697,2.90138 0,0 -0.475605,-0.475605 -1.093986,-1.236644 l 0.193021,0.742509 c 0.799287,1.038277 0.145152,3.352278 -0.478456,4.346843 l -0.76092,-0.428092 c 0,0 0.618263,0.618263 0.95121,1.141499 0.332947,0.523237 0.523236,1.331789 0.618381,1.950051 0.04751,0.618382 0.04751,1.141618 0.142658,1.426934 0.09515,0.285434 0.242791,0.719821 -0.332947,1.189131 -0.568255,0.463251 -0.864974,1.094461 -0.903697,1.522078 0.499361,-0.682405 1.032457,-1.300074 1.950051,-1.236644 z M 59.404683,65.315847 60.321446,65.5761 c -0.82138,0.744528 -1.681246,1.638128 -2.822033,1.845522 -1.046354,0.237803 -0.976154,-0.182925 -0.856184,-0.808552 0,0 -0.475604,0.665895 -1.474446,1.236644 -0.998841,0.523118 -1.236644,0.523118 -1.141499,0.237803 0.09514,-0.285435 0.09514,-0.665895 0.09514,-0.665895 0,0 -2.283117,1.950051 -4.85155,0.523237 2.38e-4,0.06272 2.948655,0.736807 4.994207,-1.331789 0,0 0.601633,-0.05357 1.172383,-0.481662 0,0 -0.544736,0.927334 -0.782539,1.498084 0.690126,-0.08612 1.949814,-1.302925 2.519376,-1.773779 -0.168315,0.310735 -0.272368,0.600921 -0.230438,0.978055 0.02803,0.251938 0.244098,0.381886 0.888492,-0.03053 1.284276,-0.903697 1.572323,-1.487394 1.572323,-1.487394 z" id="_154728848" style="fill:#cdc9c6;fill-opacity:1"/><path d="m 26.87077,54.920247 c 0.06557,0.106547 0.103934,0.231269 0.103934,0.365256 0,0.387705 -0.313704,0.701291 -0.701291,0.701291 -0.351834,0 -0.643801,-0.260252 -0.693096,-0.599614 -0.218916,0.08315 -0.437238,0.16879 -0.655204,0.254195 -0.031,-0.268211 0.02649,-0.515754 0.300045,-0.668508 0.03742,-0.169859 0.14824,-0.292561 0.308359,-0.358248 0.09158,-0.172709 0.258114,-0.243504 0.442108,-0.234476 0.152873,-0.08386 0.322851,-0.08897 0.479644,-0.01188 0.116407,-0.03872 0.229131,-0.0335 0.338292,0.01615 l 2.38e-4,-3.56e-4 c 0.02304,0.01069 0.0468,0.02376 0.0702,0.03896 l 8.32e-4,3.57e-4 c 0.01176,0.0071 0.02388,0.01639 0.03575,0.02542 0.121277,-0.01247 0.222598,0.01354 0.303727,0.07982 l 1.19e-4,-2.38e-4 c 0.01841,0.01485 0.03575,0.03207 0.05191,0.0512 l 3.57e-4,7.12e-4 c 0.04288,0.05203 0.07329,0.115576 0.105954,0.173898 -0.164158,0.0544 -0.328434,0.109636 -0.491878,0.16582 z" id="_154878784" style="fill:#000000;fill-rule:nonzero"/><path d="m 26.100703,55.194515 c 0.02388,0.02197 0.0392,0.05262 0.0392,0.08731 0,0.06604 -0.05357,0.119614 -0.119614,0.119614 -0.06581,0 -0.119376,-0.05357 -0.119376,-0.119614 l 5.94e-4,-0.0139 -0.131255,0.04846 c 0.03908,0.136243 0.164989,0.236021 0.313111,0.236021 0.180074,0 0.326414,-0.146221 0.326414,-0.326414 0,-0.04775 -0.01093,-0.09265 -0.02958,-0.133749 l -0.279495,0.102271 z" id="path3786" style="fill:#ffffff;fill-rule:nonzero"/><path d="m 25.153176,55.331115 c 0.613511,-0.23804 1.231298,-0.465152 1.854906,-0.675278 -0.05666,-0.01271 -0.113556,-5.94e-4 -0.169146,0.0095 -0.128641,-0.113081 -0.217016,-0.149429 -0.399109,-0.0702 -0.153823,-0.09134 -0.261203,-0.102628 -0.416214,-0.0059 -0.164751,-0.01497 -0.265597,0.01449 -0.340311,0.188745 -0.181619,0.06022 -0.247305,0.140164 -0.271062,0.327721 -0.107142,0.0544 -0.208582,0.104885 -0.259064,0.22533 z" id="_155268112" style="fill:#c1c1c1;fill-opacity:1;fill-rule:nonzero"/></g>
</svg>