<svg xmlns="http://www.w3.org/2000/svg" xmlns:xlink="http://www.w3.org/1999/xlink" width="600" height="300"><defs><path d="M15-4.88L-9.27 14.26 0-15.76l9.27 30.02L-15-4.88z" id="a" fill="#ff0"/><path d="M-6-50l6-35 6 35H3V50l3 6v25L0 71l-6 10V56l3-6V-50z" id="b" fill="#ff0"/></defs><path fill="#2a6b11" d="M0 0h600v300H0z"/><use x="50" y="210" xlink:href="#a"/><use x="110" y="120" xlink:href="#a"/><use x="170" y="70" xlink:href="#a"/><use x="235" y="40" xlink:href="#a"/><use x="300" y="30" xlink:href="#a"/><use x="365" y="40" xlink:href="#a"/><use x="430" y="70" xlink:href="#a"/><use x="490" y="120" xlink:href="#a"/><use x="550" y="210" xlink:href="#a"/><use x="225" y="95" xlink:href="#a"/><use x="300" y="95" xlink:href="#a"/><use x="375" y="95" xlink:href="#a"/><use x="300" y="200" xlink:href="#b"/><use xlink:href="#b" transform="rotate(45 -91.421 462.132)"/><use xlink:href="#b" transform="rotate(-45 391.421 -262.132)"/></svg>