<?xml version="1.0" encoding="UTF-8"?>
<!-- Generator: Adobe Illustrator 24.1.1, SVG Export Plug-In . SVG Version: 6.00 Build 0)  -->
<svg version="1.1" id="Layer_1" xmlns="http://www.w3.org/2000/svg" xmlns:xlink="http://www.w3.org/1999/xlink" x="0px" y="0px" viewBox="0 0 1200 800" style="enable-background:new 0 0 1200 800;" xml:space="preserve">
<style type="text/css">
	.st0{fill:#0064C8;}
	.st1{fill:#E00000;}
	.st2{fill:#FFFFFF;}
</style>
<g>
	<rect y="0" class="st0" width="1200" height="800"/>
	<rect y="0" class="st1" width="1200" height="571.4"/>
	<path class="st2" d="M1028.6,533.3c-57.1,27.9-114.3,27.9-171.4,0c-57.1-27.9-114.3-27.9-171.4,0c-57.1,27.9-114.3,27.9-171.4,0   c-57.1-27.9-114.3-27.9-171.4,0c-57.1,27.9-114.3,27.9-171.4,0c-57.1-27.9-114.3-27.9-171.4,0V600c57.1-27.9,114.3-27.9,171.4,0   c57.1,27.9,114.3,27.9,171.4,0c57.1-27.9,114.3-27.9,171.4,0c57.1,27.9,114.3,27.9,171.4,0c57.1-27.9,114.3-27.9,171.4,0   c57.1,27.9,114.3,27.9,171.4,0c57.1-27.9,114.3-27.9,171.4,0v-66.7C1142.9,505.4,1085.7,505.4,1028.6,533.3z"/>
</g>
</svg>