<?xml version="1.0" encoding="UTF-8"?>
<svg xmlns="http://www.w3.org/2000/svg" width="900" height="600" viewBox="0 0 900 600"><title>Flag of Kostroma Oblast</title><rect width="900" height="600" fill="#d20000"/><rect x="225" width="450" height="600" fill="#0039a6"/><path d="M559.29582,278.8216a3.45908,3.45908,0,0,0-3.49866,3.41361,3.32383,3.32383,0,0,0,.31332,1.39263l-11.26181,21.84035,1.8973,0.93408,10.91362-21.161a3.577,3.577,0,0,0,.45262.20379v17.78138h2.10611V285.52995a3.51948,3.51948,0,0,0,.69624-0.27172l10.91369,21.144,1.91462-.93408-11.27918-21.82337a3.31449,3.31449,0,0,0,.33075-1.40961A3.45913,3.45913,0,0,0,559.29582,278.8216Z" transform="translate(0 0)" fill="#faeb00" stroke="#ed9718" stroke-linecap="round" stroke-linejoin="round" stroke-width="1.00001"/><path d="M481.12758,262.35413c-22.4706,31.50286-18.54991,62.554,1.25044,93.33327-26.91186-12.045-96.17812-39.42042-87.30926,6.24981C375.039,320.91132,371.28537,265.595,425.0071,228.97426c2.31018,6.82631,8.09261,7.25323,13.64019,8.11305,2.38356,3.06562,2.59555,9.12983,9.58206,5.69931,3.987,5.07105,8.42779,9.12038,14.80632,8.80664C466.67951,257.63839,470.908,263.08141,481.12758,262.35413Z" transform="translate(0 0)" fill="#faeb00" stroke="#ed9718" stroke-linecap="round" stroke-linejoin="round" stroke-width="1.00001"/><path d="M424.88548,229.38359c-0.37788.259-.74183,0.52037-1.114,0.78122-49.93709,48.09608-37.8994,74.85829-30.37373,111.93606-1.35632-9.4289,33.3674-75.06467,74.9857-54.7877A83.67663,83.67663,0,0,1,480.62,262.61965c-4.874.24562-8.43681-.89948-11.17476-2.88714a25.75215,25.75215,0,0,1-6.56212-7.86321c-6.339.233-10.80789-3.79341-14.743-8.76331a7.5475,7.5475,0,0,1-4.05564.93408,3.9719,3.9719,0,0,1-2.59352-1.49453c-1.26158-1.51525-1.9052-3.74475-3.01126-5.21384a31.98958,31.98958,0,0,1-7.98942-1.81719A10.10653,10.10653,0,0,1,424.88548,229.38359Z" transform="translate(0 0)" fill="#f8c300"/><path d="M446.00816,227.812L338.19,334.163l0.7877,5.38c36.30043-39.03518,72.60085-75.00864,108.90128-112.2113Z" transform="translate(0 0)" fill="#ed9718"/><path d="M448.37129,233.28807c-20.67739,24.3726-66.7562,76.467-107.62122,109.71341l-0.09845,3.74678c40.89674-34.41254,73.60762-73.24717,108.212-111.923Z" transform="translate(0 0)" fill="#ed9718"/><path d="M446.50047,240.44538a1498.11913,1498.11913,0,0,1-97.67635,117.35109l1.57543,1.345a1370.673,1370.673,0,0,0,95.95325-117.49522Z" transform="translate(0 0)" fill="#ed9718"/><path d="M415.9766,377.58717c0.7877-.76855,28.7515-139.30339,28.7515-139.30339h1.37849L419.029,378.25963Z" transform="translate(0 0)" fill="#ed9718"/><path d="M445.81122,240.30129L425.823,380.085h2.36312l18.70818-139.30339Z" transform="translate(0 0)" fill="#ed9718"/><path d="M447.09125,243.27948c-3.97064,47.77975-5.71411,90.60678-12.01262,137.478h2.757c4.98309-47.14179,7.04738-89.84719,10.6341-137.67016Z" transform="translate(0 0)" fill="#ed9718"/><path d="M463.70121,347.9261c3.91689,12.75068,8.27775,25.50288,12.341,38.314h2.36724c-4.08851-12.41018-8.30681-24.86488-12.11468-37.312C465.43822,348.59283,464.57988,348.26129,463.70121,347.9261Z" transform="translate(0 0)" fill="#ed9718"/><path d="M449.25747,253.84732c24.51537,38.6713,51.23712,78.84667,79.362,117.01485l-1.77237,2.3057C498.478,335.344,472.13684,294.52045,447.879,255.19234Z" transform="translate(0 0)" fill="#ed9718"/><path d="M449.25747,266.913c20.86134,33.22793,43.6652,68.92764,64.00167,101.64345l-1.96931,1.24893c-21.853-32.79234-42.83256-68.27468-63.21394-101.067Z" transform="translate(0 0)" fill="#ed9718"/><path d="M449.25747,282.4766c16.91371,30.57922,38.43907,63.18116,60.06309,92.22845l-3.15085.96071c-22.34467-29.55612-42.67822-61.96985-57.7-92.03632Z" transform="translate(0 0)" fill="#ed9718"/><path d="M470.03705,350.42263c4.421,11.07369,8.90056,22.27213,12.70649,34.272h2.34983c-3.66416-11.12208-7.822-22.09344-11.97543-33.01528C472.11579,351.26233,471.08815,350.84857,470.03705,350.42263Z" transform="translate(0 0)" fill="#ed9718"/><path d="M425.14658,222.53938l-2.50648,5.027,66.70038,39.67267q-3.09255-2.76339-6.31844-5.38365c-10.18013-12.75409-17.17236-25.50818-30.54043-38.26227l0.393,3.49773c7.62188,11.70378,17.91538,22.593,28.45905,33.40588-15.77548-12.57644-33.50021-22.97268-50.51265-34.17014l11.45324-.47553,4.073-2.95506-18.92048,1.17183C426.66719,223.55929,425.90229,223.05224,425.14658,222.53938Z" transform="translate(0 0)" fill="#faeb00" stroke="#ed9718" stroke-linecap="round" stroke-linejoin="round" stroke-width="1.00001"/><path d="M380.935,351.27178c-1.46212-2.44557,2.16247-6.68644,5.08259-5.09494,4.3501,2.37084.41775,7.20085-1.87986,7.065,1.17293,0.81975,1.63365,2.986.20887,6.31773,3.34687,2.62673,2.63638,4.98173,3.82936,7.60846-2.96446-1.88553-6.644-2.394-7.58909-6.24981-1.10305-1.84818-.10384-4.20914.13926-6.38567a40.35068,40.35068,0,0,0,.13925,9.91817l-10.09558-5.23081C372.604,355.22909,374.39345,351.19967,380.935,351.27178Z" transform="translate(0 0)" fill="#faeb00" stroke="#ed9718" stroke-linecap="round" stroke-linejoin="round" stroke-width="1.00001"/><path d="M399.58518,356.94293c-1.88774-2.15024.899-6.95636,4.06422-5.90136,4.71519,1.57159,1.73393,7.01115-.55143,7.27936,1.30454,0.60133,2.15579,2.65194,1.36619,6.17888,1.26877,3.69712,1.76832,5.93443,3.42456,8.31-3.26284-1.33648-5.23559-2.68767-6.87376-6.31575-1.42473-1.62531-.87545-4.12281-1.03619-6.3066a42.6225,42.6225,0,0,0,2.44656,10.14077l-11.38043-3.788c1.0713-4.247,2.09151-8.52413,8.54029-9.59728v0Z" transform="translate(0 0)" fill="#faeb00" stroke="#ed9718" stroke-linecap="round" stroke-linejoin="round" stroke-width="1.00001"/><path d="M417.26129,360.35516c-2.06752-2.289.2922-8.07194,3.53759-7.162,4.83463,1.35552,2.336,7.88428.08219,8.40967,1.352,0.56622,2.37815,2.83945,1.89741,6.96375,1.585,4.12379,2.27686,6.64487,4.13327,9.21451a11.35988,11.35988,0,0,1-7.39708-6.59672c-1.56064-1.73039-1.23-4.64995-1.57967-7.1418a54.58371,54.58371,0,0,0,3.31764,11.40945l-11.66824-3.26574c0.69894-4.97778,1.34439-9.98533,7.67691-11.83114h0Z" transform="translate(0 0)" fill="#faeb00" stroke="#ed9718" stroke-linecap="round" stroke-linejoin="round" stroke-width="1.00001"/><path d="M435.50295,364.02354c-2.06752-2.289.2922-8.07194,3.53759-7.162,4.83463,1.35552,2.336,7.88428.08219,8.40967,1.352,0.56622,2.37814,2.83945,1.8974,6.96375,1.585,4.12381,2.27687,6.64488,4.13329,9.21453a11.35994,11.35994,0,0,1-7.39709-6.59672c-1.56062-1.73039-1.23-4.65-1.57967-7.1418a54.58573,54.58573,0,0,0,3.31764,11.40945l-11.529-2.31468c0.69894-4.9778,1.20515-10.93639,7.53767-12.7822Z" transform="translate(0 0)" fill="#faeb00" stroke="#ed9718" stroke-linecap="round" stroke-linejoin="round" stroke-width="1.00001"/><path d="M455.69627,364.20932c-2.36543-1.99552-.82785-8.03648,2.51377-7.56255,4.978,0.706,3.406,7.50419,1.24551,8.32179,1.418,0.38288,2.74942,2.5,2.844,6.64991,2.14131,3.87715,3.17583,6.284,5.37094,8.58539a11.46238,11.46238,0,0,1-8.24247-5.56148c-1.78586-1.50888-1.86243-4.44526-2.5538-6.86818a54.93952,54.93952,0,0,0,4.86661,10.8677l-11.74376-.77417C450.00073,372.84344,449.67727,366.87273,455.69627,364.20932Z" transform="translate(0 0)" fill="#faeb00" stroke="#ed9718" stroke-linecap="round" stroke-linejoin="round" stroke-width="1.00001"/><path d="M475.437,364.21859c-2.29369-2.07373-.544-8.0595,2.77889-7.47369,4.95013,0.87265,3.13945,7.61405.9514,8.35865,1.4037,0.43024,3.91288,1.77566,3.86111,5.92624,2.95784,1.46329,6.19339,2.61894,8.26781,5.09219-3.47645-.88611-7.5.67971-11.662-1.35126-1.73162-1.56791-2.54012-4.50514-3.14566-6.94982a54.83809,54.83809,0,0,0,4.48059,11.02461l-11.70952-1.16786c0.18047-5.02121.068-10.99922,6.17736-13.459v0Z" transform="translate(0 0)" fill="#faeb00" stroke="#ed9718" stroke-linecap="round" stroke-linejoin="round" stroke-width="1.00001"/><path d="M493.83308,360.77511c-1.818-.69328-0.90741-6.61078,2.45394-6.925,3.89017-.36363,3.27261,5.46014,1.38162,6.767,1.4709,0.034,1.80924.24936,5.39261,4.65064,3.25754,0.60654,6.69458.8424,9.39,2.65817-3.592.08819-7.01346,2.68031-11.58923,1.8538-2.109-1.0385-3.71983-3.64223-4.99579-5.82757a55.82407,55.82407,0,0,0,7.43542,9.382l-11.58281,2.04288c-1.25226-4.87347-3.05761-10.58713,2.1142-14.602v0Z" transform="translate(0 0)" fill="#faeb00" stroke="#ed9718" stroke-linecap="round" stroke-linejoin="round" stroke-width="1.00001"/><path d="M455.69627,364.20932c-2.36543-1.99552-.82785-8.03648,2.51377-7.56255,4.978,0.706,3.406,7.50419,1.24551,8.32179,1.418,0.38288,2.74942,2.5,2.844,6.64991,2.14131,3.87715,3.17583,6.284,5.37094,8.58539a11.46238,11.46238,0,0,1-8.24247-5.56148c-1.78586-1.50888-1.86243-4.44526-2.5538-6.86818a54.93952,54.93952,0,0,0,4.86661,10.8677l-11.74376-.77417C450.00073,372.84344,449.67727,366.87273,455.69627,364.20932Z" transform="translate(0 0)" fill="#faeb00" stroke="#ed9718" stroke-linecap="round" stroke-linejoin="round" stroke-width="1.00001"/><path d="M301.04072,318.01773c-1.13264,9.09627,4.08187,6.97459,5.34369,9.32476,4.01821-1.66048,7.5625-1.604,10.53071.57742-1.5224-1.65667-2.36544-3.74527-3.46382-5.67237C306.73058,321.86175,304.54465,319.81264,301.04072,318.01773Z" transform="translate(0 0)" fill="#d20000"/><path d="M585.78792,294.14041a2.2584,2.2584,0,0,0-.4525.051c-17.40581,5.20535-33.89671,11.65862-54.06357,11.056-11.88258-.35505-19.862,11.40251-18.79861,17.28887s2.06981,7.68289,11.227,11.42967v9.79929c-15.30886-6.30489-18.044,5.34534-16.60547,9.4766,2.95614,8.48984,13.9364,3.08147,9.50375-5.044,10.41657,16.79178-43.143,30.07656-68.61505,30.349-37.0623.39634-74.22441-18.95454-104.28025-37.65168l-5.70922.37363c3.47326-5.87308,1.85207-16.92688-1.114-22.28191a94.89454,94.89454,0,0,0-11.314-15.47167c-0.48582-.41691-0.9676-0.83212-1.46211-1.23976-6.016.79114-16.6363-2.93773-13.28091,6.99706-6.21642-.06671-11.13352.98259-9.556,7.50656,12.38069-.87741,11.5653,6.698,15.64812,11.141-2.96821-2.18138-6.5125-2.2379-10.53071-.57742,2.0323,8.05459,6.70128,8.83553,13.19387,4.60244,3.56241,1.58886.00612,4.023-2.75018,6.35169,1.61888,1.069,8.81706,3.00881,8.37442-7.69769,1.12642,5.80277-1.602,9.77995-6.80786,12.87757,10.21345,3.95966,9.23676-3.586,10.04419-6.95151-0.37476,29.67982-46.66518,33.15985-16.83259,69.10989,13.39548,16.14235,89.49257,34.21737,136.3772,33.62664,56.93241-.71726,109.82591-20.93207,125.72467-34.39088,42.50466-35.98162,16.75568-50.32383,8.07646-61.10544l1.18361-11.53157H573.917c-3.42369-1.4698-.57433-17.06814,3.53343-21.89129-0.50019,8.98309,10.49923,16.412,18.52014,7.50656,9.56214-10.61658-5.24267-23.85514-10.18263-23.70851v0ZM342.95474,331.09579c-0.14488.09451-.27949,0.19356-0.43515,0.28871,0.16524-.03305.31461-0.058,0.47-0.085-0.01223-.06791-0.02226-0.13612-0.03486-0.20379Z" transform="translate(0 0)" fill="#faeb00" stroke="#ed9718" stroke-miterlimit="5" stroke-width="2.00002"/><path d="M585.28285,294.54677a2.2494,2.2494,0,0,0-.44711.05036c-17.19243,5.16522-33.48135,11.56876-53.40157,10.97081-11.737-.3523-19.61861,11.31465-18.56824,17.15562s2.33985,7.19137,11.38466,10.90926l-0.09846,9.63363a116.25149,116.25149,0,0,0,57.09714.05986l1.10035-10.4517-8.49693-.1441c-3.57892-.786-1.74913-17.75324,4.03155-23.35581-0.88489,9.15485,9.96874,17.15756,17.45616,8.69762,9.96809-10.53474-4.93626-23.67128-10.05757-23.52577Z" transform="translate(0 0)" fill="#f8c300"/><path d="M324.10963,302.26727c3.85136-1.518,6.83729-4.19711,9.64948-7.10928a13.79463,13.79463,0,0,1-2.16621,10.76c2.35088-1.6725,6.25111-6.04026,7.18788-3.17036,0.4906,1.503-1.25472,3.461-5.71091,6.43677l10.831-2.20964c-1.30673,1.86475-4.20606,4.08675.09845,5.76427-1.66781,1.42177-2.82583,2.934-3.05237,4.61142,0,0,3.05237-.9607,4.52934-0.33626,0.21811,0.89043-3.39025,3.68969-4.33243,6.10053,0.06629-.37283,4.86137-1.86373,5.31706-1.345,0.31233,3.56147,1.33987,6.38061-3.93855,9.60713,9.59421-1.92095,2.31438,6.67668,1.18156,9.51105l-5.71091.38428c3.47326-5.87308,1.85976-16.923-1.1063-22.27807-2.79806-5.05171-10.36526-15.36824-12.77714-16.72687Z" transform="translate(0 0)" fill="#faeb00" stroke="#ed9718" stroke-width="1.00001"/><path d="M342.48477,318.749c-0.16815.16251-.27592,0.27072-0.45257,0.44157a29.46194,29.46194,0,0,0-2.61092,2.75128c-0.15574-.458-0.31438-0.91377-0.48738-1.34167l1.82765-1.036S341.60157,319.13282,342.48477,318.749Z" transform="translate(0 0)" fill="#ed9718"/><path d="M343.56394,332.52237a2.49191,2.49191,0,0,1,1.16621.28871c0.35616,0.24366.45989,0.60283,0.33071,1.49453a13.12863,13.12863,0,0,1-1.07917,3.19283c-0.389.85237-.74153,1.57678-1.06178,2.27574l-3.06348.20379a20.33321,20.33321,0,0,0,1.28806-7.23482A10.38311,10.38311,0,0,1,343.56394,332.52237Zm1.6884-9.44265a7.0355,7.0355,0,0,1-.62661,3.22681,10.75042,10.75042,0,0,1-3.58567,3.61743c-0.00244-.02817.00244-0.05669,0-0.085a34.68613,34.68613,0,0,0-.76587-4.85719,27.58611,27.58611,0,0,1,4.97816-1.90212v0Zm-4.14265-14.2149a2.57172,2.57172,0,0,0-.56217,1.49547,2.79627,2.79627,0,0,0,1.23272,2.49547c0.70547,0.27194-.22939.6971-0.433,1.05811a11.023,11.023,0,0,0-2.018,3.1581,12.74534,12.74534,0,0,0-.5868,3.06965,33.74213,33.74213,0,0,0-3.16994-5.51747c-0.84069-1.26121-1.70859-2.505-2.5915-3.73836l8.12868-2.021Zm-3.429-5.79126c-0.1064-.13026-0.00611.28765-0.13441,0.37171a7.67424,7.67424,0,0,1-1.70605,2.09094,35.91306,35.91306,0,0,1-4.3039,3.31162A6.15931,6.15931,0,0,1,331,308.03392c-0.29713-.24034.22354-0.35172,0.3607-0.53124,1.59981-1.22789,3.07806-2.61269,4.7854-3.703a5.32424,5.32424,0,0,1,1.50051-.70087c0.02006-.01193.14905,0.00836,0.034-0.02529h0Zm-5.03037-5.29874a21.28257,21.28257,0,0,1-3.342,8.2708c-0.55654-.68758-1.16305-1.49664-1.671-2.07195-0.5036-.57036-0.94464-1.03407-1.37509-1.46056A27.40943,27.40943,0,0,0,332.6503,297.77481Z" transform="translate(0 0)" fill="#ed9718"/><path d="M316.567,306.96271c-2.082.03-3.55056,1.32613-2.19317,2.87015,0-.63733,1.07979-1.15486,2.41945-1.15486s2.41945,0.51751,2.41945,1.15486a0.74817,0.74817,0,0,1-.3133.56045c2.64185,0.06135,4.89315-.23534,5.91809-1.88514-2.71536.6114-4.49078-1.29071-7.798-1.52847-0.15372-.01074-0.30416-0.01921-0.45256-0.017v0Z" transform="translate(0 0)" fill="#ed9718"/><path d="M347.15022,346.26791c1.34281-7.35985,5.41918-7.50273,8.86177-9.31891,7.97558-7.87785-7.72331-12.21279-8.86177-19.1182-0.93829-5.69129,1.63375-11.92412,1.87082-17.19676,0.25559-5.68465-6.37077-10.076-5.514-14.89105,4.86225,1.32425,14.62456,8.42682,13.88343,20.75139,0.66343-5.44391,1.16542-10.93159-.49233-17.0046,9.61285,4.507,15.0824,11.05032,7.08943,24.21,4.03232-4.16484,4.42123-9.68392,5.90785-14.795,4.60613,3.81255,3.77929,13.81635-.39386,20.84748,2.60931-2.06552,5.31707-6.62891,5.31707-6.62891,4.28643,7.89513-2.56692,14.19593-5.46476,21.03962,4.3405-2.31582,7.27441-5.84107,10.68335-8.83855-0.39793,2.9277,2.57365,10.72577-11.2249,17.581,1.73953,0.11159,3.47906.53179,5.2186-.19214-1.16584,3.18791-.01333,7.64255-7.28635,7.49355,1.0012,0.30526-4.61249,2.83277-5.12014,2.59394a18.1065,18.1065,0,0,0,3.15085-.48036c-0.8615,1.43068,1.70511,7.832-7.77868,4.70748,0.38017,0.64495,1.85657.93333,2.95392,1.345-2.73935,2.45472-5.45447,5.16589-8.96023-.48036-0.3582.92869,0.72448,1.85739,1.77234,2.78608-6.27157,2.45963-9.6664,1.27039-8.074-6.24463-1.02552,4.80975-9.03484,3.98681-7.18788-3.45858-3.262-6.448,4.371-8.43053,9.64948-4.7075h0Z" transform="translate(0 0)" fill="#faeb00" stroke="#ed9718" stroke-width="2.00002"/><path d="M361.23119,296.05952a8.40522,8.40522,0,0,1,3.01585,8.842c-0.56641,2.90869-2.27217,5.40747-3.52033,8.03951-0.80939,2.59354,2.42041,5.05889,4.80561,3.6682,1.41646-.60869,2.90507-3.52787,3.22146-3.51876-0.48128,2.22983-1.892,4.12465-2.56151,6.26029-0.4762,2.671,3.03993,4.72989,5.23165,3.06344,1.34426-.92147-1.18979,3.04525-1.75367,4.10378-1.32195,2.38264-2.96129,4.69477-3.6509,7.34062-0.36959,2.49493,2.74323,4.4878,4.94185,3.16433,1.23473-.49748,4.83348-3.388,2.2991-0.96986-1.93115,1.94955-4.51563,3.03991-6.78573,4.507-2.11131,1.7907-.67805,5.5778,2.11941,5.59985,2.63789,0.45113-1.84342.906-2.76618,0.90569-1.81263,1.08433-3.46377,2.51306-5.70428,2.83013-2.11448.44691-1.52266,3.71514-2.06026,4.04248-1.92907-1.10365-3.88739,1.4325-4.47891,1.91057-1.58024-2.12636-5.45088-1.24216-5.84959,1.36924-0.28045.65,0.343-2.23859,0.27428-3.09879-0.15582-2.70682-4.05832-3.93575-5.80656-1.82851-0.52852,1.00249-1.49284,3.10525-1.63792.67037,0.94821-1.73458-.68063-3.74184-0.20339-5.11984,2.50737-.8072,4.436,1.33205,6.71232,1.68138,2.39443,0.13754,3.55387-2.22661,3.71215-4.216,0.43309-2.81693,3.26126-3.95638,5.64212-4.90353,3.13105-1.29088,4.995-4.71143,5.1585-7.92107-0.05125-4.83257-4.41547-7.89592-7.705-10.87632-1.76288-1.57432-3.87341-3.4439-3.56273-6.01966,0.05345-5.6808,2.51133-11.183,1.90841-16.89113-0.22943-1.32917-1.04189-3.34144.07412-1.12327a18.382,18.382,0,0,1,1.80121,9.37855c0.30832,2.69435,4.27425,3.71178,5.90092,1.51381,1.19628-1.72453.80158-3.97162,1.136-5.94241a52.14814,52.14814,0,0,0,.09185-6.46207Z" transform="translate(0 0)" fill="#ed9718"/><path d="M346.5011,365.38075c37.8494,17.00765,80.44185,27.77411,122.18513,20.70782,25.93615-4.1893,50.49093-14.94817,71.78039-29.86938-29.93936,25.42075-69.93986,41.71208-110.05012,37.6548C400.65878,390.87739,372.28832,379.80978,346.5011,365.38075Z" transform="translate(0 0)" fill="#f8c300"/><path d="M334.95243,367.82606c5.36075,12.78225,19.29091,19.19721,31.67192,24.04312,30.12886,10.70039,62.93884,13.189,94.70147,10.13079,24.01627-2.774,48.90506-8.484,68.26985-23.36061,6.84572-5.43946,12.61735-12.41917,15.55212-20.61584-5.341,19.03919-23.37313,31.18637-40.99927,38.67442-35.65943,14.91291-76.34083,16.181-113.61954,6.52761-18.01822-4.89089-36.756-11.42423-49.78727-25.12719a25.29625,25.29625,0,0,1-5.78925-10.27229h0Z" transform="translate(0 0)" fill="#f8c300"/><path d="M326.7782,367.34911c-3.15442,13.67785,7.63481,25.79617,19.11671,32.021,24.29406,13.54544,52.89141,17.24521,80.43454,18.239,32.99839,0.49649,66.98608-3.97526,96.67394-18.73708,16.32048-8.23193,32.08569-22.19153,33.68821-41.12749,0.41652-9.04506.53986,6.41927-.98569,9.05866-5.77252,20.78063-25.66347,33.80748-44.73544,42.12791-45.35278,18.94628-98.06228,19.58222-144.39331,3.50759-15.50188-5.99731-32.53584-14.263-39.24016-30.18977A24.0035,24.0035,0,0,1,326.7782,367.34911Z" transform="translate(0 0)" fill="#f8c300"/><path d="M532.66411,402.98633c7.23579-1.58905,13.22963-6.37807,18.11226-11.6281a52.27349,52.27349,0,0,0,12.74409-25.40386c0.53687-3.6277,1.056-7.61728-.78511-10.98094-1.07837-1.28133,1.88592.75539,1.90529,1.49847,2.47827,4.13938,2.64743,9.14792,2.45835,13.81846-0.531,7.16932-2.63214,14.5766-7.66952,20.01732-5.56439,6.07626-12.97,10.83446-21.24115,12.40527A21.21113,21.21113,0,0,1,532.66411,402.98633Z" transform="translate(0 0)" fill="#f8c300"/><path d="M547.3734,402.57319a23.31927,23.31927,0,0,0,16.97719-7.30731c6.65051-7.07846,9.01006-17.02692,8.90216-26.41741-0.18256-5.86513-.92348-11.9519-3.84112-17.1792-0.66007-.90843-1.41826-1.67281.01224-0.70769,3.68093,3.106,5.60281,7.69089,7.12972,12.09142,2.26069,7.09263,3.04839,14.90157.80327,22.09291-3.01453,8.44315-10.26344,15.77726-19.38433,17.71152a23.69461,23.69461,0,0,1-10.59919-.2842Z" transform="translate(0 0)" fill="#f8c300"/><path d="M559.03579,406.30166c14.3256-6.21438,25.74866-19.43534,27.93361-34.78119,0.9778-6.66775.28482-14.07642-4.099-19.54049-0.68707-.86535-4.07318-3.294-1.34422-1.84433,5.58357,2.99769,8.26493,9.244,9.27163,15.10809a31.55541,31.55541,0,0,1-7.26666,26.41436A44.99153,44.99153,0,0,1,559.03579,406.30166Z" transform="translate(0 0)" fill="#f8c300"/><rect x="561.30963" y="320.71294" width="4.03702" height="15.75568" fill="#ed9718"/><rect x="542.99527" y="322.63441" width="4.03702" height="15.75568" fill="#ed9718"/><rect x="552.15243" y="321.48153" width="4.03702" height="15.75568" fill="#ed9718"/><path d="M584.09956,302.32629c-5.04634-.37232-9.358,2.72658-13.932,4.28464-7.911,2.99448-16.17446,6.27982-24.83565,5.64813-5.89592-.109-11.954-1.65165-17.756-0.04416-4.0385,1.13062-5.85013,5.41449-5.84089,9.20659q-0.0965,1.80564-.19312,3.61129c1.67936-2.55688,3.04148-5.82144,6.24539-6.8214,2.76933-.26877,4.15936,2.81891,5.0763,4.87257,0.59231,2.65474-2.25128,4.3767-4.23742,5.6002-1.85328,1.28707-4.80727,1.82385-6.21162,2.9824,0.03229,2.17861,1.682,1.35917,3.15021.63919,3.46547-1.51141,7.46821-3.21687,9.08506-6.81712,1.07807-2.88545-1.25764-5.58885-2.92083-7.82267-2.51691-3.38042-5.42388-1.83931-7.33248.183,0.84954-3.11132,4.31412-4.36191,7.31009-4.35685,8.00632-.14264,16.13313,1.92939,24.04911-0.10384,8.26528-1.8255,15.99429-5.31167,23.774-8.48386,2.61-.94719,6.42965-1.24451,7.95614,1.55566a5.69755,5.69755,0,0,1-2.40282,7.73091c-2.66027.5451-2.35783-3.56866-3.72809-3.90909-2.5067-.50134-0.85065,2.5389-0.249,3.68029a4.11378,4.11378,0,0,0,6.86476.57948c3.15632-3.08012,3.04064-8.98344-.98143-11.31476a7.08616,7.08616,0,0,0-2.88965-.90051v-0.00005Z" transform="translate(0 0)" fill="#ed9718"/><path d="M445.96433,157.66368l-0.34813,220.88306h4.73447l-0.34811-220.88307h-4.03823Z" transform="translate(0 0)" fill="#faeb00" stroke="#ed9718" stroke-linecap="round" stroke-linejoin="round" stroke-width="1.00001"/><path d="M443.66672,227.36259h8.63345a1.49506,1.49506,0,0,1,1.60137,1.35866v0.33966a1.49506,1.49506,0,0,1-1.60137,1.35866h-8.63345a1.49506,1.49506,0,0,1-1.60137-1.35866v-0.33966A1.49506,1.49506,0,0,1,443.66672,227.36259Z" transform="translate(0 0)" fill="#faeb00" stroke="#ed9718" stroke-linecap="round" stroke-linejoin="round" stroke-width="1.00001"/><path d="M453.72863,225.49446c-0.00211,1.68831-2.57553,3.05606-5.74788,3.05494-3.16937-.00113-5.73812-1.36821-5.74023-3.05494-0.00293-1.68831,2.5664-3.05823,5.73875-3.05979s5.74642,1.36584,5.74935,3.05415v0.00564Z" transform="translate(0 0)" fill="#faeb00" stroke="#ed9718" stroke-linecap="round" stroke-linejoin="round" stroke-width="1.00001"/><path d="M452.6132,220.74073c-0.00045,1.27563-2.07375,2.30954-4.63085,2.30931-2.55646-.00022-4.62877-1.034-4.62922-2.30931-0.00045-1.27563,2.07212-2.30991,4.62922-2.31013s4.6304,1.03369,4.63085,2.30931v0.00082Z" transform="translate(0 0)" fill="#faeb00" stroke="#ed9718" stroke-linecap="round" stroke-linejoin="round" stroke-width="1.00001"/><path d="M451.74317,154.26705a3.76087,3.76087,0,0,1-7.51946,0h0A3.76087,3.76087,0,0,1,451.74317,154.26705Z" transform="translate(0 0)" fill="#faeb00" stroke="#ed9718" stroke-linecap="round" stroke-linejoin="round" stroke-width="1.00001"/><path d="M559.29582,256.72648a3.40687,3.40687,0,0,0-.99218,6.69137v17.81534h1.96693V263.41785A3.40424,3.40424,0,0,0,559.29582,256.72648Z" transform="translate(0 0)" fill="#faeb00" stroke="#ed9718" stroke-width="1.00001"/><path d="M492.877,282.57265c10.68738,0.985,12.8485-3.71181,20.87438-4.9957,2.22873-.35653,3.49893,2.158,6.38824,2.20281,2.93537,0.04559,10.1217-9.51965,16.64039-10.27964,2.1333-.24871,4.1205,3.13839,6.627,2.15337,2.165-.85083,5.62729-9.002,15.20992-8.01484l-0.31332,5.2308c-11.89578,1.65593-8.67321,10.72821-14.93448,11.2089-2.66082.20429-4.37152-3.94419-7.03207-3.7363-5.55745.43427-7.74071,9.02747-13.22868,9.98611-3.41076.59578-5.31012-3.46283-9.60819-3.057C504.69112,284.103,503.45032,291.41519,492.877,282.57265Z" transform="translate(0 0)" fill="#faeb00" stroke="#ed9718" stroke-linecap="round" stroke-linejoin="round" stroke-width="1.00001"/><path d="M443.35893,377.63888l-44.28627,60.21548c2.42107,3.05355,6.455.88877,9.49763-1.79413l36.15656-58.12374Z" transform="translate(0 0)" fill="#faeb00" stroke="#ed9718" stroke-width="1.00001"/><path d="M464.31564,374.858l-37.9096,62.2723c-1.672,3.226,3.87278,4.7386,6.77791,1.69468l32.55078-63.7549Z" transform="translate(0 0)" fill="#faeb00" stroke="#ed9718" stroke-width="1.00001"/><path d="M380.54625,361.11678l-70.00178,57.06867c3.08724,1.6918,11.50023.89829,15.10407-3.1644l56.1988-53.08589Z" transform="translate(0 0)" fill="#faeb00" stroke="#ed9718" stroke-width="1.00001"/><path d="M401.453,367.81375l-65.092,62.63349c5.663,0.214,11.22935.2375,14.54742-4.169l51.74247-57.57691Z" transform="translate(0 0)" fill="#faeb00" stroke="#ed9718" stroke-width="1.00001"/><path d="M421.23055,374.33524l-55.82124,61.61641c3.21258,3.28865,8.40785,1.39083,11.32864-3.02513L422.285,375.22479Z" transform="translate(0 0)" fill="#faeb00" stroke="#ed9718" stroke-width="1.00001"/><path d="M483.05955,372.74449l-32.28493,71.43842c-1.88439,4.15584,3.70169,4.5674,6.25744.95724L484.246,372.98452Z" transform="translate(0 0)" fill="#faeb00" stroke="#ed9718" stroke-width="1.00001"/><path d="M503.00083,366.01949l-26.5084,79.07937c-2.01151,6.69207,5.78192,4.53262,7.80244.5703l19.64392-79.38624Z" transform="translate(0 0)" fill="#faeb00" stroke="#ed9718" stroke-width="1.00001"/><path d="M445.96257,158.78493c-10.976,9.04588-16.34875-1.53657-23.19194.43217-11.1904,3.21939-11.51749,15.09981-23.77907,10.27963,3.34087,19.24856,1.82452,38.971,2.70776,58.45938,1.98858,1.09949,4.99978-6.31388,7.5325-6.86909,4.59466-1.00724,5.65557,1.23583,8.36945.57642,2.70414-.657,4.36515-3.75071,7.08941-4.3232,2.39591-.50349,4.894,1.48032,7.28634.9607,5.38235-1.169,6.86535-7.92577,13.90554-8.74238-1.43574-17.38618-2.84373-34.7636.08-50.77363h0Z" transform="translate(0 0)" fill="#faeb00" stroke="#ed9718" stroke-width="1.00001"/><path d="M319.21709,309.83168c-0.0017.63733-1.08906,1.15335-2.42874,1.15255-1.33727-.0008-2.42092-0.51634-2.4226-1.15255-0.0017-.63733,1.08294-1.15466,2.4226-1.15546s2.427,0.51521,2.42874,1.15255v0.00291Z" transform="translate(0 0)" fill="#d20000"/><path d="M439.80925,184.29373a3.3842,3.3842,0,0,0-1.93738-.0637,2.67959,2.67959,0,0,0,1.75638-2.2066,3.66889,3.66889,0,0,0-1.77214.24089,2.68159,2.68159,0,0,0,1.09824-2.41388,4.03,4.03,0,0,0-1.91251.63615,2.52907,2.52907,0,0,0,.70363-3.564c-0.38444.282-2.06562,2.39578-2.35186,2.6527a8.01988,8.01988,0,0,0,1.397-2.81247c0.23027-.855.07973-2.25732-0.99951-2.61409a33.06216,33.06216,0,0,1-2.52455,5.342,0.63437,0.63437,0,0,0-.34077-0.20064,4.89329,4.89329,0,0,1-1.24747,2.24784c-0.03481-.05227-0.12549-0.21075-0.24476-0.3661-0.52994,1.00094-2.05559,2.479-2.50235,3.33009a1.13484,1.13484,0,0,0,.36673,1.645,0.87792,0.87792,0,0,1,.44029,1.17313,1.51859,1.51859,0,0,1-2.43491.35738,1.05808,1.05808,0,0,0,.38644-1.85612,0.97809,0.97809,0,0,1-1.20354.54239,2.32822,2.32822,0,0,1-.79145-0.36087,0.89905,0.89905,0,0,0,1.1714-1.05884,0.96253,0.96253,0,0,1-1.30659.03418,1.71018,1.71018,0,0,1-.51618-1.57219,4.07175,4.07175,0,0,1,.99376-2.07865,0.45784,0.45784,0,0,0,.4034.12329c0.1245-.042.31042-0.17536,0.46036-0.24837a1.50872,1.50872,0,0,1,1.16768.00957,0.80988,0.80988,0,0,1,.54366.82435c0.71844-.50213.38092-1.16691-0.65929-1.31719a2.53731,2.53731,0,0,1,1.47457.53735,1.321,1.321,0,0,0,1.243-.08325,0.90817,0.90817,0,0,0,.43652-1.18719,0.6631,0.6631,0,0,1-.53674.58006,2.96551,2.96551,0,0,1-1.46041-.17348,3.52894,3.52894,0,0,0-1.277-.08159,1.77056,1.77056,0,0,1,2.16-.0034,0.96531,0.96531,0,0,0,.343-0.75515,1.29634,1.29634,0,0,0-1.6276-1.34913,0.26479,0.26479,0,0,0-.41654-0.23427,0.27288,0.27288,0,0,0-.11128-0.21234,0.63483,0.63483,0,0,0,.06937-0.02182,3.3747,3.3747,0,0,0,2.01379-.99874c0.6728-.89046-0.66916-1.76581-0.32149-2.60577a4.37161,4.37161,0,0,0,1.3648.33878,1.89238,1.89238,0,0,1,.18495.47114c0.28928,0.86692-.60249,1.12153-0.24969,2.03752,0.14832,0.40492.49345,0.52079,0.66759,1.02123a0.85946,0.85946,0,0,1-.1916.696,0.85654,0.85654,0,0,0,.75829-1.26552,2.17133,2.17133,0,0,1-.44013-0.68136,0.98,0.98,0,0,0,1.32786.14621c0.26-.11344.3308,0.24389,0.19473,0.55421a0.94982,0.94982,0,0,0,.40608-0.83246,0.49317,0.49317,0,0,0-.686-0.443c-0.169.033-.49645,0.30859-0.55016-0.02257-0.13791-.56058.78766-0.65044,0.49486-1.545a1.48377,1.48377,0,0,0-1.54448-.64188,3.22884,3.22884,0,0,1-.44881-0.38515c-0.5398-.67029-1.03153-0.81187-1.28383-0.62888-0.30724.20311-.46164,0.36088-0.71539,0.52988a1.80992,1.80992,0,0,0-.54348.39823,1.54726,1.54726,0,0,0,.34859,1.49258,1.87479,1.87479,0,0,1,.42486,1.1609,2.027,2.027,0,0,1-1.37184,1.06728c-0.02865.00321-.0553,0.02025-0.0839,0.02345l-0.02287-.19417a6.05437,6.05437,0,0,0,.27348-0.85983c0.2364-.92588-0.3034-1.23061-1.07668-1.31242a0.346,0.346,0,0,0-.31756-0.00651l-0.01431.00161,0.00366,0.15417-0.10264-.0166-0.00693-.18191-0.04264.00478a0.33806,0.33806,0,0,0,.09675-0.27772,0.40863,0.40863,0,0,0-.11477-0.24l0.09955-.01117-0.04762-.03679a1.025,1.025,0,0,0-.14409-0.12429,0.154,0.154,0,0,1-.05241-0.0784,0.44319,0.44319,0,0,0,.09185.04587,0.543,0.543,0,0,1,.14258.11051l0.06172,0.03521-0.09639-.81823-0.05029.06181a0.61815,0.61815,0,0,0-.11644.11138,0.40441,0.40441,0,0,1-.07879.065,0.44325,0.44325,0,0,1,.03282-0.088,0.34469,0.34469,0,0,0,.11306-0.13909l0.03619-.06023-0.83889.09409,0.04915,0.05066a1.097,1.097,0,0,1,.14257.11042,0.21434,0.21434,0,0,0,.06666.0768,0.11854,0.11854,0,0,1-.09189-0.04587,1.29657,1.29657,0,0,0-.1678-0.0795l-0.04917-.05066,0.09639,0.81823,0.03774-.04636a0.752,0.752,0,0,1,.14166-0.14239,0.443,0.443,0,0,0,.07883-0.065,0.44142,0.44142,0,0,1-.04707.08956,1.28654,1.28654,0,0,1-.11154.153l-0.03772.04636,0.12776-.01433a0.28744,0.28744,0,0,0-.05574.25916,0.35558,0.35558,0,0,0,.14471.25063l-0.01431.00161,0.03556,0.1787-0.11042.04049-0.03229-.151-0.01431.00161a0.34475,0.34475,0,0,0-.30777.07665c-0.73213.2647-1.20153,0.68271-.7574,1.51813a6.23132,6.23132,0,0,0,.48027.77529l0.01471,0.12485a7.043,7.043,0,0,1-2.669-1.26052c-0.03481-.05227-0.08237-0.08909-0.1-0.1152l-0.04777-.52865a9.65659,9.65659,0,0,0,.51239-1.51893c0.33467-1.31631-.43807-1.76365-1.58725-1.85958a0.52042,0.52042,0,0,0-.447-0.006l-0.01974.19895-0.24319.01323-0.01671-.265a0.40517,0.40517,0,0,1-.12634.02821,0.55168,0.55168,0,0,0,.2145-0.50187,0.48863,0.48863,0,0,0-.24475-0.366l0.199-.02232a1.31293,1.31293,0,0,1-.39345-0.4056,1.55058,1.55058,0,0,1,.49413.28185l-0.12252-1.04a1.24364,1.24364,0,0,1-.419.35618,1.51875,1.51875,0,0,1,.29215-0.45432l-1.06613.11958a1.26238,1.26238,0,0,1,.36177.381,1.81427,1.81427,0,0,1-.47657-0.25574l0.12254,1.04023a1.93032,1.93032,0,0,1,.40141-0.3823,1.40752,1.40752,0,0,1-.26047.47894l0.1846-.0207a0.46923,0.46923,0,0,0-.13886.409,0.51456,0.51456,0,0,0,.32539.44132,0.54978,0.54978,0,0,1-.14371.00207l0.04523,0.26179-0.24.041-0.03708-.19258a0.47282,0.47282,0,0,0-.44858.10649c-1.08425.33228-1.731,0.953-1.09906,2.16087a6.19324,6.19324,0,0,0,.85225,1.36588L419.176,176.884a0.7062,0.7062,0,0,0-.07382.1066,6.8167,6.8167,0,0,1-2.30616,1.81853l-0.01471-.12485a4.766,4.766,0,0,0,.28718-0.86136c0.2366-.92591-0.31763-1.229-1.09058-1.31086a0.346,0.346,0,0,0-.31754-0.00651l-0.01421.00159,0.00377,0.15416-0.10261-.01656-0.007-.1819-0.01421.00159a0.43216,0.43216,0,0,0,.06832-0.27453,0.33792,0.33792,0,0,0-.11466-0.24l0.128-.01435a1.8094,1.8094,0,0,1-.27266-0.23637,1.41644,1.41644,0,0,1,.29617.1916l-0.09639-.81823a0.97421,0.97421,0,0,1-.24552.23832,1.20019,1.20019,0,0,1,.21058-0.29057l-0.83872.09407a1.26513,1.26513,0,0,1,.24425.23956,0.89057,0.89057,0,0,1-.29454-0.17774l0.09639,0.81823a1.26463,1.26463,0,0,1,.24389-0.25218,1.00989,1.00989,0,0,1-.18217.28738l0.11375-.01276a0.40516,0.40516,0,0,0-.05585.25917,0.32341,0.32341,0,0,0,.1589.249l-0.04262.00478,0.03545,0.17872-0.1106.04047-0.03218-.151-0.01421.00159a0.34474,0.34474,0,0,0-.30777.07665c-0.732.26468-1.2014,0.68269-.75723,1.51811a6.23293,6.23293,0,0,0,.48009.77531l0.02287,0.19417c-0.02839.00318-.07257-0.0059-0.08689-0.0043a2.05485,2.05485,0,0,1-1.58441-.7357,1.71934,1.71934,0,0,1,.14392-1.2247,1.579,1.579,0,0,0-.00749-1.53084,2.08458,2.08458,0,0,0-.6364-0.2659c-0.28617-.10844-0.45909-0.2295-0.81986-0.35769-0.28781-.1223-0.73588.11064-1.10423,0.89672a2.4587,2.4587,0,0,1-.34746.47446,1.47969,1.47969,0,0,0-1.355.96707c-0.06276.93449,0.84535,0.8186,0.8555,1.39351,0.025,0.33438-.35814.13849-0.53037,0.14377a0.499,0.499,0,0,0-.57915.58492,1.01856,1.01856,0,0,0,.58893.72086c-0.20489-.272-0.21885-0.63576.06078-0.58287a0.97788,0.97788,0,0,0,1.25931-.43639,1.812,1.812,0,0,1-.27032.761,0.85371,0.85371,0,0,0,1.03279,1.06463,0.75945,0.75945,0,0,1-.34846-0.63547,11.13874,11.13874,0,0,1,.41273-1.14239c0.11632-.96859-0.8114-1.01914-0.717-1.9291a3.05888,3.05888,0,0,1,.07077-0.49979,3.98078,3.98078,0,0,0,1.25045-.63213c0.51955,0.74277-.56939,1.89069.29295,2.609a3.41022,3.41022,0,0,0,2.19358.52684,0.627,0.627,0,0,1,.07257.0059,0.27,0.27,0,0,0-.05911.23145,0.25116,0.25116,0,0,0-.3369.31878,1.28027,1.28027,0,0,0-1.286,1.67592,0.95094,0.95094,0,0,0,.52395.65791,1.75777,1.75777,0,0,1,2.10427-.47488,3.5289,3.5289,0,0,0-1.239.36378,2.84959,2.84959,0,0,1-1.368.49071,0.69069,0.69069,0,0,1-.67155-0.44454,0.913,0.913,0,0,0,.701,1.05961,1.29243,1.29243,0,0,0,1.216-.19255,2.50536,2.50536,0,0,1,1.31127-.84981c-0.96587.36124-1.16658,1.10045-.33579,1.4288a0.763,0.763,0,0,1,.32348-0.92161,1.52186,1.52186,0,0,1,1.135-.26784c0.16292,0.0379.37334,0.11271,0.50631,0.13995a0.46939,0.46939,0,0,0,.3641-0.20938,4.3607,4.3607,0,0,1,1.45121,1.80442,1.66408,1.66408,0,0,1-.13743,1.6455,0.95513,0.95513,0,0,1-1.28037.256,0.901,0.901,0,0,0,1.38706.77188,2.57009,2.57009,0,0,1-.687.52669,0.98615,0.98615,0,0,1-1.29819-.2618,1.06471,1.06471,0,0,0,.80775,1.72218,1.50541,1.50541,0,0,1-2.44047.18944,0.873,0.873,0,0,1,.14241-1.23846,1.11047,1.11047,0,0,0-.02545-1.68332c-0.63187-.71613-2.46092-1.81787-3.21164-2.68921a1.9957,1.9957,0,0,0-.139.40915,5.05483,5.05483,0,0,1-1.75161-1.91146,0.97339,0.97339,0,0,0-.285.27083,33.52756,33.52756,0,0,1-3.70118-4.64371c-0.95365.58477-.773,1.99769-0.36536,2.76717a8.39287,8.39287,0,0,0,2.01431,2.42986c-0.33889-.18681-2.45324-1.8749-2.90723-2.06284a2.5598,2.5598,0,0,0,1.51394,3.3153,4.22072,4.22072,0,0,0-2.01067-.19613,2.68883,2.68883,0,0,0,1.6309,2.10778,3.681,3.681,0,0,0-1.78177.15771,2.7286,2.7286,0,0,0,2.1952,1.7633,3.308,3.308,0,0,0-1.84353.48787,2.28076,2.28076,0,0,0,2.25063,1.37766,2.56771,2.56771,0,0,0-1.60935,1.00946,2.25469,2.25469,0,0,0,1.97924.66333,1.80986,1.80986,0,0,0-.59222.47394,0.11294,0.11294,0,0,0-.10425-0.03044,0.11044,0.11044,0,0,0-.02793.12943l0.00326,0.0277a0.36741,0.36741,0,0,0-.11765.224,1.66575,1.66575,0,0,0-.16891.39826c0.01584,0.01227.04588,0.023,0.06172,0.03521a0.26951,0.26951,0,0,0,.083.2156,0.37441,0.37441,0,0,0-.06564.176l-0.54885-.13526a1.365,1.365,0,0,0,.4402,1.04682,1.51759,1.51759,0,0,1,.37056.21126l0.60779,0.2691a0.34691,0.34691,0,0,0,.473.10153l0.0049,0.04158a0.51787,0.51787,0,0,0,.41076.432c-0.02141.18479,0.0769,0.28622,0.34262,0.34059l2.7252,4.79532a0.40112,0.40112,0,0,0,.24669.50634,0.33533,0.33533,0,0,0-.05747.2454,0.15854,0.15854,0,0,1,.27995.053,0.8015,0.8015,0,0,0,.246.74517,0.5199,0.5199,0,0,0,.39383.53177c0.0147,0.12476.17413,0.50052,0.20476,0.63763a1.46165,1.46165,0,0,0-.35211.92462,0.40019,0.40019,0,0,0,.387.35,0.53245,0.53245,0,0,0,.647.60217,0.524,0.524,0,0,0,.58153.4127,2.51057,2.51057,0,0,0,.53318.2493c-0.18526.25945-.00558,0.56281,0.38953,0.61662a0.45318,0.45318,0,0,0,.39132.2653,0.39709,0.39709,0,0,0,.49966.0845,0.3624,0.3624,0,0,0,.04391-0.48265,2.17727,2.17727,0,0,0-.2864-0.96566,1.16985,1.16985,0,0,0-.13589-0.42025c0.277-.21365.62055-0.47711,0.7388-0.57474a4.93871,4.93871,0,0,1,2.354-1.28989c0.24-.04087.67907-0.10416,0.92232-0.1174a1.797,1.797,0,0,0,1.19848-.21879,0.3,0.3,0,0,0,.09672-0.2778,4.29541,4.29541,0,0,0-.45873-0.59492c-0.035-.05244-0.07479-0.14619-0.12724-0.2247a1.13566,1.13566,0,0,0,.6615-0.13037,0.889,0.889,0,0,0,.44868-0.83724c-0.29641.17379-1.0395,0.46763-1.2147-.2854a1.02217,1.02217,0,0,1,1.34812-1.1489c0.65911,0.09461,1.7542,1.32069.97,1.99893a1.407,1.407,0,0,0-.83049,1.38588,1.25109,1.25109,0,0,1,1.07067-.56973,13.04848,13.04848,0,0,1-1.87733,1.18006,5.15718,5.15718,0,0,1-1.50275,1.18037c-0.39471.07244-.66182-0.36117-0.31891-0.75115a0.98286,0.98286,0,0,0-.95324.71114,0.87128,0.87128,0,0,0,.43069,1.08993,1.14629,1.14629,0,0,0-.47786,1.44474c0.22164,0.53732.77621,0.47512,0.64447,1.19225a0.78554,0.78554,0,0,0,.54257-0.651,1.158,1.158,0,0,1,.1226-0.54776,1.40829,1.40829,0,0,0,.93689,1.22989,1.29294,1.29294,0,0,0,1.4806-.3908,1.69,1.69,0,0,0,1.667.82485,1.76278,1.76278,0,0,0,.822-0.35886,2.17035,2.17035,0,0,0,1.12833.899,2.10491,2.10491,0,0,0,.90434-1.127,1.732,1.732,0,0,0,.884.16752,1.66718,1.66718,0,0,0,1.43181-1.17241,1.29781,1.29781,0,0,0,1.53277.05282,1.39007,1.39007,0,0,0,.62647-1.40523,1.024,1.024,0,0,1,.26109.50472,0.8,0.8,0,0,0,.66561.51553c-0.29469-.6695.27369-0.73324,0.35051-1.30385a1.18182,1.18182,0,0,0-.78723-1.30284,0.86713,0.86713,0,0,0,.152-1.15528,0.99538,0.99538,0,0,0-1.09394-.48153c0.41062,0.30526.26359,0.77139-.136,0.80217a5.22839,5.22839,0,0,1-1.73775-.81692,13.19462,13.19462,0,0,1-2.10269-.73366,1.231,1.231,0,0,1,1.17514.31784,1.42245,1.42245,0,0,0-1.131-1.16588c-0.92175-.48691-0.14025-1.92346.49407-2.16314a1.026,1.026,0,0,1,1.5658.82207c-0.02391.77536-.78615,0.66412-1.14506,0.55007a0.92273,0.92273,0,0,0,.66027.71286,1.23678,1.23678,0,0,0,.86693-0.09723c-0.00451.08487-.01068,0.15578-0.00742,0.18342,0.02,0.65807-.34146.769-0.18216,1.01812a5.29069,5.29069,0,0,0,1.64632.04026c0.54854,0.00861,1.02787.16582,1.565,0.2037a11.34243,11.34243,0,0,1,1.77333.13838c0.3432,0.10215.75812,0.32248,1.1045,0.45237,0.50736,0.02727.45919,0.2296,0.77187,0.19453a4.17772,4.17772,0,0,0,.72863-0.41919,7.66356,7.66356,0,0,0,.79111-0.13086,1.92509,1.92509,0,0,0,.4015-0.38231,4.80175,4.80175,0,0,0,.648-0.36763,0.39945,0.39945,0,0,0,.07482-0.36144,2.36947,2.36947,0,0,0,.72-1.20321,0.22338,0.22338,0,0,0,.16018-0.22855l-0.0049-.04158a0.3863,0.3863,0,0,0,.13293-0.33805,0.52416,0.52416,0,0,0-.21459-0.35514l-0.00491-.04169a0.31237,0.31237,0,0,0-.10819-0.1846,2.32559,2.32559,0,0,0-1.91652-1.59782l-0.0049-.04158-0.01394.00156a0.05228,0.05228,0,0,0-.06353-0.049,1.08983,1.08983,0,0,1-.3348-0.39813,2.94061,2.94061,0,0,1,.538.291l-0.13563-1.1513a2.43254,2.43254,0,0,1-.45633.4025,1.16531,1.16531,0,0,1,.29781-0.52528l-1.194.13392a1.1849,1.1849,0,0,1,.41236.44563,2.93759,2.93759,0,0,1-.5382-0.291l0.13562,1.15122a2.42772,2.42772,0,0,1,.45651-0.40252,1.1689,1.1689,0,0,1-.298.5253l0.04425,0.00908a2.31561,2.31561,0,0,0-1.5645,2.002,0.26334,0.26334,0,0,0-.07643.20531l0.0049,0.04158a0.24558,0.24558,0,0,0-.016.35311,0.43193,0.43193,0,0,0,.20806.2997l0.0049,0.04158a0.20447,0.20447,0,0,0,.20929.1872,2.20163,2.20163,0,0,0,.17953.303l0.0127-.01547a0.806,0.806,0,0,1-.5065.5909,5.2437,5.2437,0,0,1-2.32985-.21641,2.07664,2.07664,0,0,1-1.04767-.45863,0.59989,0.59989,0,0,1-.19491-0.55419,1.39624,1.39624,0,0,0,.4341.26041,0.97442,0.97442,0,0,1,.02258-0.29738,0.95244,0.95244,0,0,0,.88424.29427,1.15671,1.15671,0,0,1-.33709-1.0303,0.92392,0.92392,0,0,0,1.586-.47292,0.52032,0.52032,0,0,1-.79543-0.14956c-0.16869-.3322.14383-1.22469-0.30423-1.8487a1.77152,1.77152,0,0,0-1.52927-.75613,0.60264,0.60264,0,0,0,.06359-0.31641,1.2737,1.2737,0,0,1-1.70933-.32814,1.45473,1.45473,0,0,0,.57847.01949,2.43475,2.43475,0,0,1-.46073-2.68847,0.43254,0.43254,0,0,1,.13072-0.11288,4.00478,4.00478,0,0,0,.84216.4254,1.1241,1.1241,0,0,1,.17939-0.18866,16.06658,16.06658,0,0,0,.29722,1.66688c0.13632,0.54689.68414,0.42928,0.98185,0.63466,0.2845-.39727.87071-0.435,0.71348-1.03576-0.157-.60076-0.34885-1.1273-0.412-1.54186,0.22864,0.35387.74768,1.70092,0.93724,2.08717,0.31015,0.55539.872,0.30952,1.22651,0.50879,0.16419-.44006.69127-0.61154,0.40453-1.2118-0.0748-.14591-1.18591-1.8765-1.35482-2.20888,0.3807,0.42118,1.42312,1.93455,1.74532,2.34785,0.33986,0.43952.86633,0.1415,1.265,0.22339,0.03172-.34083.51059-0.80205,0.05787-1.34146-0.56039-.72406-1.85789-1.95572-1.93758-2.14351,0.25192,0.18252,2.24891,2.09464,2.39125,2.20489a1.85732,1.85732,0,0,0,1.36013-.06818,1.3235,1.3235,0,0,0-.29244-1.25993c-0.47225-.34048-1.51706-0.89784-1.74392-1.11117a10.17133,10.17133,0,0,0,1.99321,1.027,1.63542,1.63542,0,0,0,1.35111-.39021c-0.3265-.69421-0.03711-1.05-1.81061-1.55362,1.52469,0.349,2.13493.0275,2.6134-.43366a2.09136,2.09136,0,0,0-1.27876-.95268,2.14081,2.14081,0,0,0,1.77321-1.08412,2.57687,2.57687,0,0,0-1.83035-.62384,2.28768,2.28768,0,0,0,1.90094-1.843h0.00013ZM416.482,196.80305a0.60782,0.60782,0,0,0,.13539.29389,1.72987,1.72987,0,0,0-1.29935,1.07319c-0.31952.71067,0.20655,1.50881,0.13368,1.868a0.51627,0.51627,0,0,1-.74.322,0.92655,0.92655,0,0,0,1.65476.10924,1.15932,1.15932,0,0,1-.07482,1.07649,0.90026,0.90026,0,0,0,.77866-0.48078,0.977,0.977,0,0,1,.09112.28482,1.198,1.198,0,0,0,.362-0.34988,1.00629,1.00629,0,0,1,.07467.51168c-0.14487.11438-.304,0.23083-0.531,0.38268a6.4135,6.4135,0,0,1-1.55514.73643,1.10209,1.10209,0,0,1-1.22487-.49484c-0.19771-.45564-0.6137-0.56359-0.89213-0.23721a0.3137,0.3137,0,0,0-.39309.08622,1.16763,1.16763,0,0,0-.26682-0.30735,0.48891,0.48891,0,0,0-.2725-0.60157,0.87787,0.87787,0,0,0-.49995-0.57634c-0.06824-.09056-0.08295-0.21541.05749-0.2452a0.267,0.267,0,0,0-.21209-0.08877,0.43976,0.43976,0,0,0-.36044-0.49358l-2.57773-3.9527c-0.0062,0-.01334-0.00028-0.01941.00006l-0.10813-.18461-0.00681-.02175-0.29361-.45018a0.29578,0.29578,0,0,0-.1549-0.46044l-0.0049-.04158a0.26569,0.26569,0,0,0,.00277-0.09863c0.05519-.02023.13891-0.04358,0.20831-0.06549a9.24081,9.24081,0,0,0,1.73069-1.4448c-0.19964.26126-1.05935,1.03234-1.43984,1.46837a0.9841,0.9841,0,0,0-.04832,1.09295l0.13434,0.20638a1.65328,1.65328,0,0,0,1.26433-.228c0.1006-.12365,1.599-2.44186,1.81618-2.67679-0.07658.20532-1.0253,1.68891-1.43125,2.52136-0.28673.62253,0.30062,0.96417,0.39663,1.29048,0.3835-.16932.95144,0.00585,1.18-0.49763,0.23043-.48953.89371-2.19412,1.1542-2.67287-0.07282.35948-.76882,2.27833-0.806,2.45123-0.13951.64787,0.41344,0.69841,0.67576,1.09044,0.30083-.25845.91742-0.15907,1.07621-0.76708,0.09478-.41812.28679-1.84495,0.42766-2.24006,0.01892,0.40519-.02944.9728-0.0428,1.59267-0.01354.62,0.56761,0.54056,0.92112,0.85242,0.26914-.28309.81749-0.27427,0.83735-0.8387a16.02926,16.02926,0,0,0-.09824-1.68939,2.23414,2.23414,0,0,1,.23263.14264,4.3133,4.3133,0,0,0,.70734-0.59919,0.44154,0.44154,0,0,1,.15358.081c0.54306,0.698.7555,2.13556,0.17641,2.72025a1.81754,1.81754,0,0,0,.55877-0.147,1.24517,1.24517,0,0,1-1.588.69749Zm4.27865,9.30051c-0.49755.05581-.88886-0.20939-0.68358-0.66809a0.80339,0.80339,0,0,0,.64713.2365C420.73286,205.86781,420.741,205.937,420.76063,206.10356Zm7.54659-1.5913c0.30648,0.40131-.013.74624-0.51039,0.802a1.58235,1.58235,0,0,0-.09338-0.42521A0.82868,0.82868,0,0,0,428.30722,204.51227Zm-6.49961-1.37893a5.64594,5.64594,0,0,0-.74584,1.61553c-0.44532.00782-.42216-0.52879-0.31106-0.80839,0.23616-.5605,1.36276-1.3894,1.87817-2.14985A9.08792,9.08792,0,0,1,421.80762,203.13334Zm1.41895,0.7965a10.17636,10.17636,0,0,0,.005,2.97864c-0.90358-.33434-0.61628-2.05274-0.37429-2.81071a11.69861,11.69861,0,0,0,.52844-3.09446c0.33883,0.55209-.048,2.28185-0.15917,2.92654v0Zm2.33657,2.71714a9.73737,9.73737,0,0,0-.68757-2.90209c-0.24416-.60484-1.03734-2.20235-0.8356-2.815a11.7943,11.7943,0,0,0,1.23422,2.89676c0.41174,0.68473,1.091,2.29455.28895,2.82028v0Zm1.72627-3.43986c0.17311,0.24753.32056,0.765-.11514,0.8562a6.08173,6.08173,0,0,0-1.08785-1.40986,9.31,9.31,0,0,1-1.12615-1.12429c0.67859,0.62672,1.96858,1.18447,2.32916,1.678h0Zm-3.02647-24.224a2.41188,2.41188,0,0,1-1.32733-.01977,1.54715,1.54715,0,0,0,.89965.54556,2.474,2.474,0,0,1-1.98871.96784,1.10682,1.10682,0,0,0,.95078.24468,8.21335,8.21335,0,0,0-.99284,3.9195,8.18167,8.18167,0,0,0-1.86415-3.59906,1.06645,1.06645,0,0,0,.85469-0.44718,2.55625,2.55625,0,0,1-2.1477-.5039,1.52274,1.52274,0,0,0,.74924-0.7305,2.51793,2.51793,0,0,1-1.28812.31312,2.11591,2.11591,0,0,0,1.4033-1.16913,5.879,5.879,0,0,1-1.96374.44507,6.27536,6.27536,0,0,0,2.66348-1.718c0.44225-.03556.99845-0.08392,1.43751-0.14719a6.14428,6.14428,0,0,0,2.97774,1.0712,5.75823,5.75823,0,0,1-2.00218-.00026A2.14621,2.14621,0,0,0,424.26292,178.9831Z" transform="translate(0 0)"/><path d="M406.70675,192.679a0.19446,0.19446,0,0,1,.01862-0.08646,1.41676,1.41676,0,0,1-.26889-0.08221h0l0.02074,0.05385,0.11856,0.02883a0.07991,0.07991,0,0,0-.00767.057,0.29125,0.29125,0,0,1,.11866.02893Z" transform="translate(0 0)" fill="gold"/><path d="M412.223,201.72835a0.45073,0.45073,0,0,0,.26865-0.40945c0.19364,0.175.049,0.416-.19048,0.58335-0.18756.11945-.55714,0.1609-0.61986-0.12721a0.57624,0.57624,0,0,0,.54169-0.04671v0Z" transform="translate(0 0)" fill="gold"/><path d="M412.16772,200.89115a0.42122,0.42122,0,1,1-.68245.442,1.74348,1.74348,0,0,0-.15715-0.60075,0.25364,0.25364,0,1,0,.40178-0.25621,3.19908,3.19908,0,0,0,.43784.415h0Z" transform="translate(0 0)" fill="gold"/><path d="M411.61617,200.48933a0.4682,0.4682,0,0,1-.01645.22686,0.491,0.491,0,0,1-.2137-0.10244A0.377,0.377,0,0,0,411.61617,200.48933Z" transform="translate(0 0)" fill="gold"/><path d="M411.40535,200.28824a0.36741,0.36741,0,0,0,.18986-0.34433,0.30324,0.30324,0,0,1-.13252.4645,0.31679,0.31679,0,0,1-.50121-0.09837,0.45888,0.45888,0,0,0,.44388-0.02179v0Z" transform="translate(0 0)" fill="gold"/><path d="M407.8833,194.964a0.4561,0.4561,0,0,0,.33574-0.2065,0.17534,0.17534,0,0,1,.02645.34837,0.2339,0.2339,0,0,1-.3192-0.02037,0.20435,0.20435,0,0,1-.043-0.12148Z" transform="translate(0 0)" fill="gold"/><path d="M407.76009,194.16265a0.31521,0.31521,0,0,1,.3771.26678,0.31942,0.31942,0,0,1-.30521.34351,0.316,0.316,0,0,1-.34871-0.27016A0.31169,0.31169,0,0,1,407.76009,194.16265Z" transform="translate(0 0)" fill="gold"/><path d="M408.20518,195.251l0.13554-.07138,3.07568,4.71378a0.20441,0.20441,0,0,1-.09692.27782,0.267,0.267,0,0,1-.34769-0.01718l-2.76658-4.903Z" transform="translate(0 0)" fill="gold"/><path d="M406.41331,192.38856c-0.33878-.18682-0.1212-0.29559-0.0993-0.35422,0.08851,0.01807.24274-.13979,0.30118,0.23317l-0.20185.12105h0Z" transform="translate(0 0)" fill="gold"/><path d="M406.85884,192.38082c-0.2188-.144-0.06549-0.18939-0.07365-0.25869,0.10272,0.01654.17827-.07617,0.20767,0.17344l-0.134.08527Z" transform="translate(0 0)" fill="gold"/><path d="M407.598,191.93245a1.09847,1.09847,0,0,1,.14266.1105l-0.09642.40426,0.15979-.3552a0.66288,0.66288,0,0,0,.1.11529l-0.18331.39988,0.239-.29376c0.01584,0.01227.02074,0.05385,0.054,0.09226,0.00163,0.01386.01747,0.02611,0.0191,0.04l-0.24227.26593,0.25369-.169a0.77045,0.77045,0,0,1,.02123.1802l-0.27462.11517,0.2684-.04415c0.0049,0.04158-.00441.08477,0.00049,0.12635l-0.28271.04575,0.24815,0.02834a0.28947,0.28947,0,0,0-.03118.10182l-0.34606-.00332,0.28471,0.09437a0.26038,0.26038,0,0,1-.07382.1066,0.24708,0.24708,0,0,0-.24061.28,0.56945,0.56945,0,0,1-.13429-0.04111,0.55695,0.55695,0,0,0,.05747-0.24542,1.80994,1.80994,0,0,0-.13049-0.25223l-0.01584-.01227,0.199-.02232a0.33538,0.33538,0,0,0-.11728-0.50681l0.12122-.56117Z" transform="translate(0 0)" fill="gold"/><path d="M407.44639,193.57954l0.152,0.06724a0.37861,0.37861,0,0,0,.47442.11533,0.27516,0.27516,0,0,1-.21855.22125,0.72342,0.72342,0,0,1-.41592-0.10765,0.66018,0.66018,0,0,1-.12485.40745,0.24247,0.24247,0,0,1-.30622.09052,0.36018,0.36018,0,0,0,.13232-0.46448l0.023-.17131,0.05682-.00637a0.31869,0.31869,0,0,1,.08689.0043l0.04751,0.0368-0.00653-.05544a0.42688,0.42688,0,0,1,.047-0.08945,0.54505,0.54505,0,0,0,.0521-0.04817h0Z" transform="translate(0 0)" fill="gold"/><polygon points="406.416 194.004 407.04 194.285 407.002 194.332 406.394 194.063 406.416 194.004" fill="gold"/><path d="M406.1843,193.25742a0.32546,0.32546,0,0,0,.38528.33619,0.27076,0.27076,0,0,0,.11-0.16683l0.0191,0.04a0.31659,0.31659,0,0,0,.15727.23527,0.518,0.518,0,0,0,.23721.05767,0.22021,0.22021,0,0,1-.02793.12943,0.30825,0.30825,0,0,0-.37887.08473l-0.12787.01434,0.05423-.27295-0.13957.28252-0.13267-.02736,0.10164-.236-0.17611.21668c-0.04425-.00908-0.07585-0.03373-0.12022-0.04288l0.17776-.20263-0.23948.1674a1.25819,1.25819,0,0,0-.15351-0.08111l0.28374-.15823-0.35047.08144a0.06418,0.06418,0,0,0-.04751-0.0368,0.43864,0.43864,0,0,0-.05731-0.12l0.41219-.04623-0.45041-.03366c-0.0049-.04158-0.02563-0.09543-0.03056-0.13722l0.37937,0.04173-0.40339-.1234a1.28455,1.28455,0,0,1-.03381-0.16486l0.55188,0.16273v0Z" transform="translate(0 0)" fill="gold"/><path d="M407.19421,192.90517a0.64287,0.64287,0,0,1,.29227.4029,0.727,0.727,0,0,1-.1549.39669,0.94525,0.94525,0,0,1-.43622-0.03535,0.77308,0.77308,0,0,1-.242-0.46463l0.54079-.29963Z" transform="translate(0 0)" fill="gold"/><path d="M406.71629,193.12742l-0.03382-.16494a0.27031,0.27031,0,0,0-.3192-0.02037,1.49344,1.49344,0,0,1-.17173.13163,0.11965,0.11965,0,0,1,.03723-0.17271c-0.0191-.04.00767-0.057,0.03283-0.08785l0.22671-.15192a0.09294,0.09294,0,0,0-.03282.088,0.39326,0.39326,0,0,1,.32745.08968,0.367,0.367,0,0,1,.10614-0.321,0.07671,0.07671,0,0,0-.101-0.00272l0.25513-.155a0.18584,0.18584,0,0,1,.08689.0043,0.20814,0.20814,0,0,1,.193.04849,0.78321,0.78321,0,0,1-.2176.10877,0.26,0.26,0,0,0-.12533.281l0.11416,0.11361-0.378.21113v0Z" transform="translate(0 0)" fill="gold"/><path d="M406.225,192.74693c-0.23445-.1564-0.06549-0.18939-0.04523-0.26179,0.04587,0.02286.17827-.07617,0.19509,0.18879l-0.14984.073Z" transform="translate(0 0)" fill="gold"/><path d="M415.10209,206.23939a0.13154,0.13154,0,0,1-.20553-0.03312,0.35339,0.35339,0,0,0,.25514-0.155,0.1501,0.1501,0,0,1-.04962.18815h0Z" transform="translate(0 0)" fill="gold"/><path d="M414.978,206.04244a0.339,0.339,0,0,1-.45184-0.04754,0.69421,0.69421,0,0,0,.53755-0.32716A0.29022,0.29022,0,0,1,414.978,206.04244Z" transform="translate(0 0)" fill="gold"/><path d="M414.64755,205.55954a0.43139,0.43139,0,0,0,.29214-0.45441c0.22677,0.21334.03807,0.44537-.20316,0.59884-0.22674.15173-.62492,0.19639-0.70511-0.11765a0.608,0.608,0,0,0,.61611-0.02678h0Z" transform="translate(0 0)" fill="gold"/><path d="M413.74094,203.24422a3.74048,3.74048,0,0,1,1.06088,1.792,0.47587,0.47587,0,0,1-.29214.45441,0.37491,0.37491,0,0,1-.48537-0.0861,0.43689,0.43689,0,0,0,.47175-0.64309,0.47671,0.47671,0,0,0-.17575-0.5143,0.37312,0.37312,0,0,1-.13323.33779,0.41731,0.41731,0,0,0-.27473-0.01132,0.19669,0.19669,0,0,0,.04048-0.14508,0.41506,0.41506,0,0,0-.026-0.58754,0.51683,0.51683,0,0,1-.20874.30451l-0.08688-.00421c0.00765-.05723.017-0.10032,0.02464-0.15735l0.041-.01864a0.30454,0.30454,0,0,0,.15264-0.17153c0.01257-.01545.00765-0.05723,0.02028-0.0724,0.01421-.00159.041-0.01864,0.05519-0.02023a1.12532,1.12532,0,0,1-.184-0.4569v0Z" transform="translate(0 0)" fill="gold"/><path d="M413.06788,202.42034a1.87819,1.87819,0,0,0-.19639.28889,0.6496,0.6496,0,0,0,.26977.70057,0.6325,0.6325,0,0,1-.36909.1677,3.61461,3.61461,0,0,1-.69586-1.38322,0.992,0.992,0,0,0,.56923-0.3026,2.98486,2.98486,0,0,1,.42234.52868v0Z" transform="translate(0 0)" fill="gold"/><path d="M435.79555,200.349a0.32663,0.32663,0,0,0-.09772.025l-0.01961-.16645a0.36722,0.36722,0,0,1,.11732.14142v0Z" transform="translate(0 0)" fill="gold"/><path d="M436.92389,200.391a0.32737,0.32737,0,0,0-.09772.025,0.55672,0.55672,0,0,0-.00527-0.16806,0.33726,0.33726,0,0,1,.10312.143Z" transform="translate(0 0)" fill="gold"/><path d="M438.11062,199.21815a0.11879,0.11879,0,0,1,.05247.07848,0.06982,0.06982,0,0,1-.07861.065,23.06617,23.06617,0,0,0-4.36413.48948,0.07082,0.07082,0,0,1-.09189-0.04587,0.147,0.147,0,0,1,.00453-0.08487,0.54869,0.54869,0,0,0,.1578-0.00366,21.15443,21.15443,0,0,1,4.17894-.46871,0.161,0.161,0,0,0,.141-0.02986h-0.00013Z" transform="translate(0 0)" fill="gold"/><path d="M435.04306,197.01869c0.04775,0.52865.10332,1.00034,0.16047,1.48551-0.52422.07284-1.0186,0.15648-1.51123,0.25387a2.1191,2.1191,0,0,1,1.35063-1.73936h0.00013Z" transform="translate(0 0)" fill="gold"/><path d="M436.17009,198.76123a0.5107,0.5107,0,0,0-.0737.10668,0.40363,0.40363,0,0,0-.14419-0.12437,0.22044,0.22044,0,0,0,.12417-0.16851c0.02212,0.06784.00854,0.19578,0.09372,0.18622v0Z" transform="translate(0 0)" fill="gold"/><path d="M436.74029,198.71143a0.382,0.382,0,0,0-.08466.1358,0.28611,0.28611,0,0,0-.11421-0.11349l0.19892-.02231h0Z" transform="translate(0 0)" fill="gold"/><path d="M437.31217,198.67546a0.5966,0.5966,0,0,0-.11146.153,0.32276,0.32276,0,0,0-.11586-0.12754Z" transform="translate(0 0)" fill="gold"/><path d="M437.8715,198.65477a0.33317,0.33317,0,0,0-.12583.15476,0.28754,0.28754,0,0,0-.14747-0.15228A0.947,0.947,0,0,0,437.8715,198.65477Z" transform="translate(0 0)" fill="gold"/><path d="M437.64443,199.17192a0.26726,0.26726,0,0,0,.11307-0.139,0.23848,0.23848,0,0,0,.11567.12739c-0.071.00805-.1578,0.00366-0.22874,0.01161v0Z" transform="translate(0 0)" fill="gold"/><path d="M437.09945,199.19111a0.18869,0.18869,0,0,0,.11311-0.1391,0.3237,0.3237,0,0,0,.11564.12757,1.32805,1.32805,0,0,0-.22875.01151v0Z" transform="translate(0 0)" fill="gold"/><path d="M436.55765,199.23764a0.60046,0.60046,0,0,0,.11146-0.153,0.32345,0.32345,0,0,0,.11569.12756Z" transform="translate(0 0)" fill="gold"/><path d="M435.94314,199.27857a0.28581,0.28581,0,0,0,.16653-0.17317,0.25911,0.25911,0,0,0,.1601.13654l-0.32667.03664h0Z" transform="translate(0 0)" fill="gold"/><path d="M435.48822,199.32959a0.23849,0.23849,0,0,0,.1098-0.16681,0.33984,0.33984,0,0,0,.20285.13175Z" transform="translate(0 0)" fill="gold"/><path d="M434.96554,199.41621a0.38119,0.38119,0,0,0,.08462-0.13579,0.27171,0.27171,0,0,0,.14253.11032l-0.22719.02548h0Z" transform="translate(0 0)" fill="gold"/><path d="M434.43036,199.51856a0.31526,0.31526,0,0,0,.083-0.14985,0.28568,0.28568,0,0,0,.114.11351,0.33636,0.33636,0,0,0-.19709.03634h0Z" transform="translate(0 0)" fill="gold"/><path d="M433.90767,199.60519a0.4607,0.4607,0,0,0,.069-0.14809,0.61389,0.61389,0,0,0,.15665.10873A1.24245,1.24245,0,0,0,433.90767,199.60519Z" transform="translate(0 0)" fill="gold"/><path d="M434.03021,199.05744a0.37965,0.37965,0,0,0-.10817.181,0.67224,0.67224,0,0,0-.15849-0.12287A0.85153,0.85153,0,0,0,434.03021,199.05744Z" transform="translate(0 0)" fill="gold"/><path d="M434.569,198.98316a0.4158,0.4158,0,0,0-.11151.153,0.24217,0.24217,0,0,0-.1441-0.12438Z" transform="translate(0 0)" fill="gold"/><path d="M435.09136,198.8964a0.38431,0.38431,0,0,0-.08466.1358,0.27171,0.27171,0,0,0-.14253-0.11032l0.22724-.02549h0Z" transform="translate(0 0)" fill="gold"/><path d="M435.56772,198.6601a0.17212,0.17212,0,0,0,.111.086,0.3062,0.3062,0,0,0-.14946.19926,0.65065,0.65065,0,0,0-.10013-0.11507c0.17263-.00523.15493-0.03142,0.13859-0.17013v0Z" transform="translate(0 0)" fill="gold"/><path d="M435.50891,198.16089a0.39852,0.39852,0,0,0,.13929.08279,0.38956,0.38956,0,0,0-.11644.11119Z" transform="translate(0 0)" fill="gold"/><path d="M435.44684,197.63395a0.39692,0.39692,0,0,0,.13928.0827,0.53549,0.53549,0,0,0-.11315.1391l-0.02613-.22178v0Z" transform="translate(0 0)" fill="gold"/><path d="M435.415,197.11755a0.17239,0.17239,0,0,0,.11072.0858,0.38875,0.38875,0,0,0-.11643.11127l0.00579-.19708H435.415Z" transform="translate(0 0)" fill="gold"/><path d="M435.93854,197.28355a0.40411,0.40411,0,0,0-.15682-0.10871,0.24051,0.24051,0,0,0,.12744-0.1407Z" transform="translate(0 0)" fill="gold"/><path d="M436.00062,197.81059a0.34118,0.34118,0,0,0-.15846-0.12257,0.2413,0.2413,0,0,0,.12745-0.1406l0.031,0.26319v0Z" transform="translate(0 0)" fill="gold"/></svg>