<?xml version="1.0" encoding="UTF-8" standalone="no"?>
<!-- Created with Inkscape (http://www.inkscape.org/) -->
<svg xmlns:dc="http://purl.org/dc/elements/1.1/" xmlns:cc="http://web.resource.org/cc/" xmlns:rdf="http://www.w3.org/1999/02/22-rdf-syntax-ns#" xmlns:svg="http://www.w3.org/2000/svg" xmlns="http://www.w3.org/2000/svg" xmlns:sodipodi="http://sodipodi.sourceforge.net/DTD/sodipodi-0.dtd" xmlns:inkscape="http://www.inkscape.org/namespaces/inkscape" id="svg2" sodipodi:version="0.32" inkscape:version="0.45pre1" width="600" height="400" version="1.0" sodipodi:docbase="C:\Documents and Settings\Flanker\Desktop" sodipodi:docname="Flag of Basilicata.svg" inkscape:output_extension="org.inkscape.output.svg.inkscape" sodipodi:modified="true">
  <metadata id="metadata7">
    <rdf:RDF>
      <cc:Work rdf:about="">
        <dc:format>image/svg+xml</dc:format>
        <dc:type rdf:resource="http://purl.org/dc/dcmitype/StillImage"/>
      </cc:Work>
    </rdf:RDF>
  </metadata>
  <defs id="defs5"/>
  <sodipodi:namedview inkscape:window-height="1003" inkscape:window-width="1280" inkscape:pageshadow="2" inkscape:pageopacity="0.0" guidetolerance="10.0" gridtolerance="10.0" objecttolerance="10.0" borderopacity="1.0" bordercolor="#666666" pagecolor="#ffffff" id="base" inkscape:zoom="1.2091526" inkscape:cx="320.47856" inkscape:cy="252.35448" inkscape:window-x="-4" inkscape:window-y="-4" inkscape:current-layer="svg2" inkscape:showpageshadow="false"/>
  <rect style="opacity:1;fill:#ffffff;fill-opacity:1;fill-rule:nonzero;stroke:none;stroke-width:3;stroke-linecap:round;stroke-linejoin:miter;stroke-miterlimit:4;stroke-dasharray:none;stroke-dashoffset:0;stroke-opacity:1" id="rect2254" width="600" height="400" x="0" y="0"/>
  <g id="g2180" transform="matrix(0.8398415,0,0,0.8398415,195.01981,113.51675)">
    <g id="g14361" transform="translate(1,5.28125)">
      <path sodipodi:nodetypes="ccsccc" id="path14363" d="M 2.5,-0.03125 L 2.5,177.96875 C 2.5,245.03674 56.932024,299.46875 124,299.46875 C 191.06801,299.46875 245.50001,245.03674 245.5,177.96875 L 245.5,-0.03125 L 2.5,-0.03125 z " style="opacity:1;fill:#ffffff;fill-opacity:1;fill-rule:evenodd;stroke:none;stroke-width:1;stroke-linecap:round;stroke-linejoin:miter;stroke-miterlimit:4;stroke-dasharray:none;stroke-opacity:1"/>
      <path sodipodi:nodetypes="ccccccssccsc" id="path14365" d="M 185.6875,54.71875 C 178.98196,54.588751 172.34431,57.148939 167.4375,62.09375 L 108.84375,121.1875 L 144.1875,156.53125 L 160.1875,140.40625 L 160.1875,200.65625 C 160.05999,209.67215 164.80631,218.04859 172.59375,222.59375 C 180.38119,227.13891 189.99381,227.13891 197.78125,222.59375 C 205.56869,218.04859 210.31501,209.67215 210.1875,200.65625 L 210.1875,79.71875 C 210.19313,69.586099 204.08649,60.455888 194.71875,56.59375 C 191.79133,55.386832 188.73547,54.77784 185.6875,54.71875 z " style="fill:#000000;fill-opacity:1;fill-rule:evenodd;stroke:none;stroke-width:50;stroke-linecap:round;stroke-linejoin:round;stroke-miterlimit:4;stroke-opacity:1"/>
      <path sodipodi:nodetypes="ccsccscccccsccscccccccccccccsccsc" id="path14367" d="M 38.9375,83.963457 L 38.9375,200.5 C 38.9375,215.04484 50.798913,226.9375 65.34375,226.9375 C 79.888591,226.9375 91.75,215.04484 91.75,200.5 L 91.75,191.1875 C 100.98403,197.51263 112.15292,201.21875 124.15625,201.21875 C 140.29202,201.21875 154.88687,194.50541 165.34375,183.75 L 91.75,110.15625 L 91.75,82.327055 L 81.75,91.978323 L 81.75,105 C 72.397182,115.22879 66.656252,128.81219 66.65625,143.71875 C 66.65625,158.63457 72.389265,172.2354 81.75,182.46875 L 81.75,200.5 C 81.75,209.67781 74.521563,216.9375 65.34375,216.9375 C 56.165937,216.9375 48.9375,209.67781 48.9375,200.5 L 48.9375,91.978323 C 48.9375,91.978323 38.9375,83.963457 38.9375,83.963457 z M 84.71875,117.28125 L 150.625,183.1875 C 148.78073,184.42498 146.85932,185.55493 144.84375,186.53125 L 111.53125,153.21875 L 104.4375,160.3125 L 134.3125,190.15625 C 132.53442,190.54503 130.72167,190.81705 128.875,191 L 101.3125,163.4375 L 94.21875,170.53125 L 113.78125,190.09375 C 92.514626,185.3655 76.65625,166.42746 76.65625,143.71875 C 76.656252,133.91574 79.651171,124.83689 84.71875,117.28125 z M 85.96875,186.625 C 86.391967,187.00219 86.815753,187.38524 87.25,187.75 C 86.815386,187.38313 86.392239,187.0044 85.96875,186.625 z " style="opacity:1;fill:#000000;fill-opacity:1;fill-rule:evenodd;stroke:none;stroke-width:9.92943096;stroke-linecap:round;stroke-linejoin:round;stroke-miterlimit:4;stroke-dasharray:none;stroke-opacity:1"/>
      <path transform="matrix(0.970954,0,0,0.970954,4.103613,7.334278)" d="M 87.130762 74.470734 A 24.20299 24.20299 0 1 1  38.724783,74.470734 A 24.20299 24.20299 0 1 1  87.130762 74.470734 z" sodipodi:ry="24.20299" sodipodi:rx="24.20299" sodipodi:cy="74.470734" sodipodi:cx="62.927773" id="path14369" style="opacity:1;fill:none;fill-opacity:1;fill-rule:evenodd;stroke:#000000;stroke-width:10.29914474;stroke-linecap:round;stroke-linejoin:round;stroke-miterlimit:4;stroke-dasharray:none;stroke-opacity:1" sodipodi:type="arc"/>
      <path sodipodi:nodetypes="ccc" id="path14371" d="M 41.703611,76.704857 L 14.894147,100.16314 L 54.363637,100.16314" style="fill:none;fill-rule:evenodd;stroke:#000000;stroke-width:10;stroke-linecap:butt;stroke-linejoin:miter;stroke-miterlimit:4;stroke-dasharray:none;stroke-opacity:1"/>
    </g>
    <g transform="translate(1,5.28125)" id="g14354">
      <path sodipodi:nodetypes="ccccccsccccsccc" style="opacity:1;fill:#019903;fill-opacity:1;fill-rule:evenodd;stroke:none;stroke-width:1;stroke-linecap:round;stroke-linejoin:miter;stroke-miterlimit:4;stroke-dasharray:none;stroke-opacity:1" d="M 2.5,-0.03125 L 2.5,92.75 L 26,72.15625 L 26,26.46875 L 222,26.46875 L 222,172.96875 C 222.00001,228.16874 179.2,272.96874 124,272.96875 C 68.800012,272.96875 26,228.16873 26,172.96875 L 26,113.90625 L 2.5,113.90625 L 2.5,177.96875 C 2.5,245.03674 56.932024,299.46875 124,299.46875 C 191.06801,299.46875 245.50001,245.03674 245.5,177.96875 L 245.5,-0.03125 L 2.5,-0.03125 z " id="rect1873"/>
      <path style="fill:#000000;fill-opacity:1;fill-rule:evenodd;stroke:none;stroke-width:50;stroke-linecap:round;stroke-linejoin:round;stroke-miterlimit:4;stroke-opacity:1" d="M 185.6875,54.71875 C 178.98196,54.588751 172.34431,57.148939 167.4375,62.09375 L 108.84375,121.1875 L 144.1875,156.53125 L 160.1875,140.40625 L 160.1875,200.65625 C 160.05999,209.67215 164.80631,218.04859 172.59375,222.59375 C 180.38119,227.13891 189.99381,227.13891 197.78125,222.59375 C 205.56869,218.04859 210.31501,209.67215 210.1875,200.65625 L 210.1875,79.71875 C 210.19313,69.586099 204.08649,60.455888 194.71875,56.59375 C 191.79133,55.386832 188.73547,54.77784 185.6875,54.71875 z " id="path2770" sodipodi:nodetypes="ccccccssccsc"/>
      <path style="opacity:1;fill:#000000;fill-opacity:1;fill-rule:evenodd;stroke:none;stroke-width:9.92943096;stroke-linecap:round;stroke-linejoin:round;stroke-miterlimit:4;stroke-dasharray:none;stroke-opacity:1" d="M 38.9375,83.963457 L 38.9375,200.5 C 38.9375,215.04484 50.798913,226.9375 65.34375,226.9375 C 79.888591,226.9375 91.75,215.04484 91.75,200.5 L 91.75,191.1875 C 100.98403,197.51263 112.15292,201.21875 124.15625,201.21875 C 140.29202,201.21875 154.88687,194.50541 165.34375,183.75 L 91.75,110.15625 L 91.75,82.327055 L 81.75,91.978323 L 81.75,105 C 72.397182,115.22879 66.656252,128.81219 66.65625,143.71875 C 66.65625,158.63457 72.389265,172.2354 81.75,182.46875 L 81.75,200.5 C 81.75,209.67781 74.521563,216.9375 65.34375,216.9375 C 56.165937,216.9375 48.9375,209.67781 48.9375,200.5 L 48.9375,91.978323 C 48.9375,91.978323 38.9375,83.963457 38.9375,83.963457 z M 84.71875,117.28125 L 150.625,183.1875 C 148.78073,184.42498 146.85932,185.55493 144.84375,186.53125 L 111.53125,153.21875 L 104.4375,160.3125 L 134.3125,190.15625 C 132.53442,190.54503 130.72167,190.81705 128.875,191 L 101.3125,163.4375 L 94.21875,170.53125 L 113.78125,190.09375 C 92.514626,185.3655 76.65625,166.42746 76.65625,143.71875 C 76.656252,133.91574 79.651171,124.83689 84.71875,117.28125 z M 85.96875,186.625 C 86.391967,187.00219 86.815753,187.38524 87.25,187.75 C 86.815386,187.38313 86.392239,187.0044 85.96875,186.625 z " id="path3644" sodipodi:nodetypes="ccsccscccccsccscccccccccccccsccsc"/>
      <path sodipodi:type="arc" style="opacity:1;fill:none;fill-opacity:1;fill-rule:evenodd;stroke:#000000;stroke-width:10.29914474;stroke-linecap:round;stroke-linejoin:round;stroke-miterlimit:4;stroke-dasharray:none;stroke-opacity:1" id="path9028" sodipodi:cx="62.927773" sodipodi:cy="74.470734" sodipodi:rx="24.20299" sodipodi:ry="24.20299" d="M 87.130762 74.470734 A 24.20299 24.20299 0 1 1  38.724783,74.470734 A 24.20299 24.20299 0 1 1  87.130762 74.470734 z" transform="matrix(0.970954,0,0,0.970954,4.103613,7.334278)"/>
      <path style="fill:none;fill-rule:evenodd;stroke:#000000;stroke-width:10;stroke-linecap:butt;stroke-linejoin:miter;stroke-miterlimit:4;stroke-dasharray:none;stroke-opacity:1" d="M 41.703611,76.704857 L 14.894147,100.16314 L 54.363637,100.16314" id="path9915" sodipodi:nodetypes="ccc"/>
    </g>
  </g>
  <path style="font-size:34.52993393px;font-style:normal;font-weight:normal;fill:#07814b;fill-opacity:1;stroke:none;stroke-width:1px;stroke-linecap:butt;stroke-linejoin:miter;stroke-opacity:1;font-family:Bitstream Vera Sans" d="M 140.96385,125.81417 L 146.21635,129.94084 C 147.22999,130.73723 147.91699,131.17638 148.27735,131.25831 C 148.63771,131.34025 149.0193,131.2861 149.42211,131.09586 C 149.82491,130.90564 150.36296,130.38203 151.03627,129.52503 L 151.54769,129.92684 L 144.01108,139.51956 L 143.49965,139.11776 C 144.18019,138.25156 144.5611,137.60076 144.64237,137.16536 C 144.72364,136.72997 144.68414,136.34871 144.52386,136.02159 C 144.36357,135.69448 143.77661,135.13274 142.76297,134.33636 L 130.59929,124.77984 C 129.58566,123.98348 128.89866,123.54433 128.53828,123.46238 C 128.17794,123.38046 127.79635,123.43461 127.39353,123.62483 C 126.99074,123.81507 126.45269,124.33868 125.77937,125.19565 L 125.26794,124.79385 L 132.10954,116.08575 C 133.89054,113.81891 135.35035,112.2833 136.48898,111.47893 C 137.62763,110.67461 138.87917,110.27192 140.24359,110.27086 C 141.60802,110.26985 142.85695,110.71458 143.99038,111.60505 C 145.37262,112.69104 146.12432,114.08638 146.24549,115.79106 C 146.31727,116.87578 146.04712,118.10167 145.43505,119.46873 L 155.31977,119.94723 C 156.60323,120.00183 157.44407,119.98436 157.84229,119.89481 C 158.42477,119.74146 158.92531,119.42682 159.34392,118.95092 L 159.85534,119.35273 L 155.21826,125.25488 L 141.93036,124.58398 L 140.96385,125.81417 z M 131.77197,118.59248 L 139.98246,125.04313 L 140.60146,124.25525 C 141.60779,122.9744 142.24324,121.92374 142.5078,121.10328 C 142.77237,120.28286 142.74124,119.44992 142.41442,118.60446 C 142.0876,117.75905 141.43119,116.949 140.4452,116.17432 C 139.01689,115.05218 137.69934,114.55727 136.49255,114.68958 C 135.28577,114.82194 134.09957,115.62991 132.93396,117.11349 L 131.77197,118.59248 z M 151.0796,96.674043 L 157.85472,103.62015 L 158.19447,103.28876 C 159.27666,102.23323 159.72964,101.12841 159.55342,99.9743 C 159.3772,98.820224 158.70978,97.514985 157.55117,96.058578 L 158.02934,95.592175 L 166.74371,104.52648 L 166.26554,104.99288 C 165.2157,104.11796 164.22654,103.52761 163.29806,103.22184 C 162.36957,102.91609 161.58708,102.86491 160.95059,103.06828 C 160.3141,103.27168 159.58898,103.77023 158.77525,104.56392 L 163.46383,109.37082 C 164.38026,110.3104 164.98061,110.84618 165.26487,110.97817 C 165.54913,111.11017 165.86577,111.1369 166.21481,111.05837 C 166.56384,110.97986 166.98164,110.70331 167.46821,110.22871 L 168.48748,109.23454 C 170.08138,107.67987 170.99858,106.06497 171.23907,104.38983 C 171.47954,102.71471 171.07308,100.91757 170.01969,98.998407 L 170.48528,98.544277 L 175.00768,104.71648 L 160.25978,119.10133 L 159.80565,118.63574 L 160.37191,118.08342 C 160.86686,117.60065 161.17943,117.1239 161.3096,116.65316 C 161.41316,116.32297 161.38456,115.95798 161.2238,115.5582 C 161.1197,115.26686 160.65034,114.69335 159.81572,113.83766 L 148.86753,102.61315 C 148.11475,101.84138 147.63146,101.38786 147.41767,101.25258 C 147.04741,101.04081 146.67128,100.96568 146.2893,101.0272 C 145.74142,101.10326 145.19064,101.41131 144.63695,101.95133 L 144.07069,102.50365 L 143.61656,102.03806 L 157.89887,88.107342 L 162.82064,93.153337 L 162.34247,93.61974 C 160.89636,92.623874 159.69125,92.07227 158.72715,91.964927 C 157.76305,91.857639 156.75559,92.070906 155.70476,92.604729 C 155.0877,92.911974 154.13321,93.695636 152.84129,94.955716 L 151.0796,96.674043 z M 182.40903,68.318016 L 187.39825,75.078715 L 186.87493,75.46491 C 184.87931,74.083043 182.89487,73.377427 180.92161,73.348059 C 178.94834,73.31875 177.21209,73.857278 175.71285,74.963646 C 174.27962,76.021359 173.38431,77.3047 173.02691,78.813672 C 172.66952,80.322692 172.82514,81.944647 173.49375,83.679541 C 174.16238,85.414474 175.05684,87.040976 176.17716,88.559053 C 177.53406,90.39775 178.94082,91.850088 180.39746,92.916072 C 181.85409,93.982076 183.30572,94.483758 184.75235,94.421118 C 186.19896,94.358494 187.58702,93.836607 188.91654,92.855454 C 189.37856,92.5145 189.81584,92.115334 190.22839,91.657956 C 190.64092,91.200601 191.03219,90.689748 191.40221,90.125395 L 188.45877,86.136866 C 187.90209,85.382551 187.49012,84.932865 187.22289,84.787805 C 186.95564,84.642781 186.59326,84.600717 186.13575,84.661612 C 185.67822,84.722544 185.21845,84.923482 184.75643,85.26443 L 184.2614,85.629749 L 183.87521,85.106431 L 193.19592,78.227987 L 193.58211,78.751304 C 192.9097,79.320358 192.48836,79.780587 192.31807,80.13199 C 192.14775,80.483439 192.11242,80.884544 192.21207,81.335307 C 192.2594,81.577109 192.54054,82.046877 193.05548,82.744613 L 195.99891,86.733143 C 195.1767,88.184648 194.20584,89.538305 193.08634,90.794116 C 191.9668,92.049951 190.69514,93.203227 189.27135,94.253946 C 187.45152,95.596937 185.75784,96.464516 184.19031,96.856684 C 182.62277,97.248863 181.08186,97.38108 179.56757,97.253333 C 178.05328,97.125597 176.66456,96.748625 175.4014,96.122416 C 173.78109,95.308293 172.37599,94.095037 171.18609,92.482644 C 169.0568,89.597338 168.27167,86.411871 168.8307,82.926234 C 169.38973,79.440637 171.2062,76.563599 174.28009,74.295113 C 175.23244,73.592337 176.14616,73.03455 177.02125,72.621751 C 177.4918,72.391042 178.32194,72.109764 179.51165,71.777918 C 180.70136,71.446133 181.38108,71.217599 181.55081,71.092315 C 181.81482,70.89751 181.98865,70.619941 182.07231,70.259608 C 182.15595,69.89934 182.09376,69.380875 181.88571,68.704211 L 182.40903,68.318016 z M 210.73235,79.211638 L 211.05816,79.774537 L 200.27179,86.017752 L 199.94598,85.454852 L 200.63059,85.058597 C 201.22898,84.712243 201.6491,84.326903 201.89095,83.902576 C 202.07246,83.607954 202.13442,83.24713 202.07682,82.820101 C 202.04749,82.512114 201.73344,81.84086 201.13465,80.806337 L 193.28,67.235889 C 192.66948,66.181106 192.23212,65.554142 191.96792,65.354995 C 191.70373,65.155891 191.34451,65.05577 190.89026,65.054633 C 190.43603,65.053538 189.91985,65.220288 189.34173,65.554882 L 188.65712,65.951137 L 188.33131,65.388237 L 199.11769,59.145022 L 199.4435,59.707922 L 198.75889,60.104177 C 198.16049,60.450559 197.74037,60.835899 197.49852,61.260198 C 197.31701,61.554847 197.24998,61.918607 197.29744,62.351479 C 197.32677,62.659493 197.64082,63.330748 198.23961,64.365243 L 206.09426,77.935691 C 206.70478,78.990502 207.14467,79.615998 207.41395,79.812182 C 207.68321,80.008379 208.04496,80.107032 208.49921,80.108142 C 208.95345,80.109264 209.46962,79.942514 210.04775,79.607892 L 210.73235,79.211638 z M 214.63466,51.291572 C 218.05584,49.638867 221.32589,49.41498 224.44482,50.619909 C 227.56372,51.824894 229.83341,54.048117 231.25388,57.289584 C 232.46736,60.058824 232.72468,62.850421 232.02585,65.664382 C 231.10205,69.395779 228.68132,72.119859 224.76364,73.836628 C 220.8352,75.558111 217.21441,75.558257 213.90127,73.837066 C 211.2835,72.476475 209.342,70.352534 208.07676,67.465237 C 206.65631,64.22376 206.57506,61.038341 207.83302,57.908972 C 209.09098,54.779644 211.3582,52.573846 214.63466,51.291572 L 214.63466,51.291572 z M 215.2794,52.237317 C 213.28298,53.112193 212.21104,54.797411 212.06356,57.292975 C 211.94937,59.338983 212.57898,61.929054 213.9524,65.063195 C 215.58451,68.7877 217.44569,71.253906 219.53596,72.461818 C 220.99389,73.307103 222.54397,73.369925 224.1862,72.650284 C 225.29172,72.165831 226.09721,71.492996 226.60265,70.631776 C 227.24616,69.530939 227.50046,68.111259 227.36557,66.372732 C 227.23065,64.63423 226.63171,62.552098 225.56873,60.12633 C 224.30348,57.239062 223.08857,55.196552 221.92399,53.998792 C 220.75939,52.801082 219.63183,52.089306 218.54131,51.863462 C 217.45077,51.637673 216.36347,51.762291 215.2794,52.237317 L 215.2794,52.237317 z M 239.61193,42.467287 L 254.87541,53.596587 L 252.15382,43.716535 C 251.77412,42.338211 251.31966,41.460595 250.79042,41.083682 C 250.0676,40.577813 249.07098,40.512 247.80055,40.886243 L 247.62782,40.259207 L 255.22004,38.167833 L 255.39276,38.794869 C 254.45536,39.186821 253.84725,39.527544 253.56844,39.817038 C 253.2896,40.106589 253.11844,40.50016 253.05497,40.997752 C 252.99147,41.495398 253.10911,42.286508 253.40789,43.371085 L 258.67834,62.504153 L 258.10215,62.662874 L 237.29138,47.810586 L 241.3154,62.418828 C 241.67952,63.740691 242.2276,64.549978 242.95965,64.846689 C 243.69168,65.143407 244.44748,65.184395 245.22704,64.969653 L 245.76934,64.820269 L 245.94207,65.447305 L 237.7906,67.692731 L 237.61788,67.065695 C 238.88013,66.705836 239.68979,66.203235 240.04686,65.55789 C 240.40392,64.912551 240.41439,63.979791 240.07828,62.759609 L 235.61077,46.541411 L 234.95125,46.066701 C 234.29739,45.590457 233.75758,45.307643 233.33184,45.218256 C 232.90611,45.128915 232.33989,45.169413 231.63319,45.339748 L 231.46046,44.712712 L 239.61193,42.467287 z M 269.11795,37.395716 L 270.4274,47.010078 L 270.89767,46.946029 C 272.39555,46.742034 273.41718,46.1239 273.96256,45.091625 C 274.50792,44.059382 274.74856,42.613289 274.68449,40.753342 L 275.34635,40.663199 L 277.0306,53.029498 L 276.36875,53.119642 C 276.04594,51.791689 275.60251,50.728525 275.03845,49.930146 C 274.47437,49.13179 273.87608,48.624886 273.24357,48.409434 C 272.61104,48.194007 271.73163,48.162988 270.60532,48.316378 L 271.51149,54.969795 C 271.68861,56.270293 271.85209,57.058172 272.00195,57.333433 C 272.15179,57.608701 272.39031,57.818666 272.71753,57.96333 C 273.04472,58.108 273.54505,58.13447 274.21854,58.042743 L 275.62934,57.850595 C 277.83552,57.55012 279.53379,56.798435 280.72416,55.595537 C 281.91449,54.392649 282.65763,52.706628 282.95356,50.537467 L 283.598,50.449696 L 283.55796,58.101267 L 263.14486,60.881481 L 263.05709,60.23704 L 263.84087,60.130291 C 264.52595,60.036985 265.06089,59.839945 265.4457,59.539168 C 265.72545,59.33549 265.91973,59.025184 266.02852,58.608249 C 266.11829,58.312178 266.08252,57.571953 265.92122,56.387572 L 263.80522,40.851319 C 263.65972,39.783078 263.54134,39.13098 263.45007,38.895023 C 263.27861,38.504456 263.02109,38.220201 262.67753,38.042259 C 262.19202,37.777254 261.56607,37.696929 260.79971,37.801282 L 260.01593,37.908031 L 259.92816,37.26359 L 279.69682,34.571147 L 280.64807,41.555494 L 279.98622,41.645637 C 279.41699,39.984623 278.77697,38.82405 278.06617,38.163916 C 277.35534,37.503827 276.41885,37.075509 275.25671,36.878959 C 274.57799,36.758537 273.34454,36.820087 271.55637,37.063608 L 269.11795,37.395716 z M 340.83674,53.758172 L 350.40536,39.713867 L 359.90018,41.713628 L 359.76614,42.350056 L 359.00931,42.190655 C 358.32124,42.045761 357.74546,42.050238 357.28195,42.204086 C 356.96143,42.304264 356.67533,42.525438 356.42365,42.867612 C 356.23952,43.116272 356.0255,43.819686 355.7816,44.977857 L 352.54286,60.355335 C 352.29165,61.547918 352.19773,62.306567 352.26111,62.631284 C 352.32442,62.955993 352.52749,63.271212 352.87031,63.576943 C 353.21306,63.882663 353.71127,64.104358 354.36493,64.242028 L 355.12177,64.40143 L 354.98772,65.037858 L 342.80959,62.472947 L 342.94363,61.836519 L 343.70046,61.99592 C 344.38847,62.140826 344.96425,62.136349 345.42781,61.982489 C 345.74828,61.882324 346.03559,61.655415 346.28974,61.301762 C 346.47381,61.053114 346.68904,60.343966 346.93541,59.174317 L 350.57628,41.887554 L 337.15054,61.28106 L 336.73772,61.194114 L 332.10446,38.158767 L 328.64473,54.585492 C 328.40321,55.732212 328.28334,56.44348 328.28513,56.719299 C 328.31344,57.324056 328.53897,57.859571 328.96172,58.325847 C 329.38446,58.792122 330.12906,59.137565 331.19551,59.362177 L 331.06147,59.998605 L 323.08032,58.317646 L 323.21436,57.681218 L 323.45517,57.731937 C 323.96877,57.852087 324.46791,57.870387 324.95256,57.786837 C 325.43721,57.703288 325.82561,57.536592 326.11775,57.286748 C 326.40989,57.036906 326.67578,56.65579 326.91544,56.143398 C 326.96493,56.022092 327.09957,55.439682 327.31936,54.396166 L 330.42768,39.637915 C 330.67644,38.456816 330.76854,37.706767 330.704,37.387767 C 330.63944,37.068808 330.43577,36.756456 330.09299,36.450709 C 329.75019,36.145005 329.25199,35.92331 328.59836,35.785623 L 327.85873,35.629845 L 327.99277,34.993417 L 337.52199,37.000423 L 340.83674,53.758172 z M 371.99296,64.543347 L 364.13604,61.516162 L 362.36686,63.321098 C 361.7826,63.924851 361.39989,64.461833 361.21873,64.932044 C 360.97857,65.555349 361.05313,66.111529 361.44239,66.600587 C 361.67022,66.889305 362.34685,67.300704 363.47228,67.834787 L 363.23845,68.441689 L 355.84081,65.591458 L 356.07464,64.984556 C 356.91925,65.171833 357.70281,65.093836 358.42532,64.750565 C 359.14782,64.407296 360.21286,63.533541 361.62044,62.129298 L 376.4138,47.446615 L 376.72546,47.566691 L 377.71879,68.896945 C 377.81854,70.919621 378.0281,72.249928 378.34746,72.887871 C 378.58863,73.370103 379.03768,73.769169 379.69462,74.085072 L 379.46078,74.691974 L 368.70057,70.546183 L 368.9344,69.939281 L 369.37728,70.109916 C 370.24114,70.442754 370.89439,70.5563 371.33702,70.450553 C 371.64499,70.368276 371.86218,70.163113 371.98859,69.835062 C 372.06441,69.638225 372.10955,69.423285 372.12401,69.190241 C 372.14004,69.083394 372.13401,68.610128 372.10591,67.77044 L 371.99296,64.543347 z M 371.90293,63.11467 L 371.54092,54.17798 L 365.1778,60.523551 L 371.90293,63.11467 z M 393.52223,70.000877 L 390.28275,75.842451 C 389.65758,76.96977 389.33319,77.717832 389.30957,78.086638 C 389.28594,78.455437 389.40005,78.823566 389.65189,79.191024 C 389.9037,79.558474 390.50617,80.006475 391.45928,80.535027 L 391.14385,81.103811 L 380.47529,75.187496 L 380.79072,74.618712 C 381.75406,75.152941 382.45713,75.425578 382.89991,75.436623 C 383.34268,75.447666 383.71281,75.348073 384.0103,75.137844 C 384.30778,74.927614 384.76911,74.258839 385.39427,73.131517 L 392.89623,59.603661 C 393.52138,58.476356 393.84577,57.728294 393.86941,57.359474 C 393.89301,56.990689 393.77891,56.62256 393.52709,56.255087 C 393.27525,55.887652 392.67279,55.439651 391.7197,54.911085 L 392.03513,54.3423 L 401.71984,59.713018 C 404.24092,61.111124 405.98901,62.308339 406.96412,63.304667 C 407.93917,64.301019 408.53564,65.47265 408.75353,66.819565 C 408.97136,68.166496 408.73077,69.470231 408.03175,70.730776 C 407.17923,72.268035 405.92109,73.231935 404.25733,73.622477 C 403.1978,73.86573 401.94456,73.793841 400.4976,73.40681 L 401.59611,83.241951 C 401.74617,84.517778 401.89705,85.345152 402.04874,85.724076 C 402.29272,86.274779 402.6829,86.718958 403.21929,87.056613 L 402.90386,87.625398 L 396.33978,83.985244 L 394.89039,70.759597 L 393.52223,70.000877 z M 399.19132,59.778122 L 394.1275,68.909425 L 395.00374,69.395347 C 396.42825,70.18533 397.56654,70.645726 398.41862,70.776536 C 399.27066,70.907354 400.08807,70.744248 400.87084,70.287217 C 401.65356,69.830195 402.349,69.053395 402.95713,67.956813 C 403.83802,66.368323 404.11725,64.988866 403.79483,63.818437 C 403.47237,62.64803 402.48615,61.605316 400.83619,60.690291 L 399.19132,59.778122 z M 436.53055,82.437562 L 431.56969,89.044064 L 431.02149,88.632418 C 431.90389,86.598555 432.12764,84.700249 431.69276,82.937494 C 431.25781,81.174748 430.32816,79.758585 428.90381,78.689002 C 427.71368,77.795353 426.36513,77.317619 424.85816,77.255799 C 423.35114,77.193998 421.95289,77.543579 420.66341,78.30454 C 419.01048,79.276248 417.53314,80.628906 416.23137,82.36252 C 414.95068,84.068032 413.99988,85.783105 413.37897,87.507744 C 412.75804,89.232382 412.6376,90.797936 413.01766,92.20441 C 413.39769,93.610874 414.31865,94.862969 415.78052,95.960699 C 416.97999,96.861385 418.27575,97.424049 419.66783,97.648693 C 421.05986,97.873318 422.79079,97.758891 424.8606,97.305413 L 423.62567,98.95001 C 421.72,99.262957 420.00029,99.235593 418.46653,98.86792 C 416.93275,98.500223 415.39276,97.735855 413.84657,96.574813 C 411.81307,95.047846 410.31292,93.283892 409.34612,91.282947 C 408.37931,89.281994 408.04067,87.195862 408.33022,85.024545 C 408.61975,82.853232 409.41189,80.905451 410.70665,79.181194 C 412.07175,77.363245 413.84208,75.996107 416.01762,75.079778 C 418.19313,74.163474 420.4269,73.862424 422.71892,74.176629 C 425.01091,74.490861 427.06589,75.330527 428.88387,76.695631 C 430.22389,77.701886 431.42076,79.054922 432.47449,80.754743 C 433.08326,81.739477 433.5048,82.319799 433.73911,82.49571 C 434.03894,82.720889 434.38167,82.806048 434.76728,82.751189 C 435.15283,82.696339 435.55785,82.454582 435.98235,82.025916 L 436.53055,82.437562 z M 438.62452,101.97625 L 433.39877,107.19137 C 432.5361,108.05227 432.04453,108.63803 431.92407,108.94866 C 431.8036,109.25927 431.80114,109.63423 431.91671,110.07353 C 432.03227,110.51282 432.32597,110.96887 432.79782,111.44169 L 433.35659,112.00159 L 432.89622,112.46101 L 424.09261,103.63945 L 424.55297,103.18002 L 425.11173,103.73992 C 425.60013,104.22932 426.08043,104.5364 426.55263,104.66118 C 426.88398,104.76096 427.24862,104.72818 427.64654,104.56286 C 427.93667,104.45543 428.50477,103.97954 429.35085,103.13519 L 440.44935,92.059274 C 441.31199,91.198378 441.80563,90.614689 441.93026,90.308206 C 442.05485,90.001749 442.05937,89.628866 441.94383,89.189555 C 441.82825,88.750271 441.53454,88.29422 441.06272,87.821399 L 440.50395,87.261497 L 440.96432,86.80207 L 449.76793,95.623636 L 449.30757,96.083063 L 448.74881,95.523161 C 448.26038,95.033773 447.78008,94.726687 447.30791,94.601902 C 446.97653,94.502136 446.60776,94.530763 446.20158,94.687782 C 445.91143,94.795218 445.34333,95.271108 444.49727,96.115452 L 439.71944,100.88356 L 445.66716,106.8434 L 450.44499,102.0753 C 451.30763,101.21439 451.80126,100.6307 451.9259,100.32423 C 452.05048,100.01776 452.05293,99.642805 451.93326,99.199356 C 451.81353,98.755916 451.51776,98.297791 451.04594,97.82498 L 450.49959,97.27752 L 450.95996,96.818093 L 459.75116,105.62722 L 459.29079,106.08664 L 458.74445,105.53918 C 458.24773,105.04149 457.76744,104.73441 457.30355,104.61792 C 456.97216,104.51815 456.60339,104.54678 456.19723,104.7038 C 455.90706,104.81123 455.33896,105.28712 454.49291,106.13148 L 443.39441,117.20739 C 442.53173,118.06828 442.0381,118.65197 441.91351,118.95846 C 441.78888,119.26491 441.78643,119.63987 441.90615,120.08333 C 442.02583,120.52676 442.3216,120.98488 442.79346,121.45771 L 443.33981,122.00517 L 442.87945,122.46459 L 434.08825,113.65547 L 434.54861,113.19604 L 435.09496,113.7435 C 435.59162,114.24118 436.07192,114.54827 436.53585,114.66476 C 436.8672,114.76453 437.23597,114.7359 437.64218,114.57888 C 437.9323,114.47144 438.5004,113.99555 439.34649,113.15121 L 444.57224,107.9361 L 438.62452,101.97625 z M 467.08772,117.30971 L 459.34714,123.16069 L 459.63333,123.53931 C 460.54488,124.74527 461.5842,125.33316 462.7513,125.303 C 463.91836,125.27283 465.29697,124.77429 466.88712,123.80738 L 467.28991,124.34025 L 457.33373,131.86597 L 456.93094,131.33311 C 457.93056,130.40122 458.64024,129.49386 459.05999,128.61103 C 459.47971,127.72819 459.62857,126.95829 459.50659,126.30133 C 459.38458,125.64436 458.98086,124.86247 458.29543,123.95567 L 452.93872,128.00472 C 451.89168,128.79615 451.28487,129.32461 451.1183,129.59009 C 450.95171,129.85555 450.88549,130.16635 450.91965,130.52248 C 450.95379,130.87859 451.17579,131.32776 451.58565,131.86999 L 452.44422,133.00583 C 453.78683,134.78204 455.27403,135.89443 456.90581,136.343 C 458.53757,136.79155 460.37149,136.61357 462.40756,135.80905 L 462.79974,136.3279 L 456.10935,140.04094 L 443.68659,123.60624 L 444.20543,123.21405 L 444.68242,123.84508 C 445.09933,124.39664 445.53315,124.7665 445.98386,124.95465 C 446.29846,125.09878 446.66416,125.11616 447.08094,125.00678 C 447.38303,124.94002 448.01085,124.54625 448.96441,123.82548 L 461.47273,114.37062 C 462.33278,113.72052 462.8433,113.29789 463.00431,113.10275 C 463.26082,112.76195 463.3825,112.39821 463.36935,112.01152 C 463.36257,111.45843 463.12599,110.87338 462.65963,110.25637 L 462.18265,109.62534 L 462.70149,109.23315 L 474.73206,125.14902 L 469.10892,129.39946 L 468.70614,128.8666 C 469.87542,127.55672 470.57373,126.43027 470.80107,125.48722 C 471.02837,124.54417 470.94307,123.51792 470.54517,122.40847 C 470.3177,121.75776 469.65986,120.71257 468.57166,119.2729 L 467.08772,117.30971 z " id="text2206"/>
</svg>