<?xml version="1.0" encoding="UTF-8"?>
<svg xmlns="http://www.w3.org/2000/svg" height="480" width="800" viewBox="0 0 5 3">
<desc>Civil flag of North Rhine-Westphalia</desc>
<rect height="1" width="5" y="0" x="0" fill="#009136"/>
<rect height="1" width="5" y="1" x="0" fill="#FFF"/>
<rect height="1" width="5" y="2" x="0" fill="#e3001b"/>
<g transform="matrix(.00263 0 0 .00263 1.7 .799)">
<path d="m197 3.54c9 2.68 18 6.19 26 11.7 12-5.58 24-11.2 38-12.6 5-1.02 11-1.23 17-0.82 15-0.1 27 5.47 40 10.4 7 3.4 14 6.4 21 9.6 9 4.2 20 10.5 29 14.7 14 7.5 29 10.4 45 10.7 16-1.3 29-5.4 41-13.6 3 1.6 6 7.4 6 7.4-7 5.1-12 13.8-13 22.3-2 13.9-3 30.7-3 31.9 0 3.1 2 236 1 248 0 5-2 26-6 35-13 39-49 67-85 85-17 8-33 16-50 23-1 1-36 15-51 24-6 3-22 13-27 22-1-1-1 0-3-4-13-16-30-20-47-28-18-9-38-17-56-26-33-16-66-36-88.2-69-3.9-6-9.4-18-10.8-20-3.3-8-4.9-14-6.9-21-0.8-7-2.3-12-1.8-18 0 0 0.3-272-0.3-280-0.7-9.4-5.4-18-12-25 2.19-2.6 7.61-6 7.61-6 16.8 16.8 44.2 14.8 63.8 6.4 22.2-8.4 41.6-21.4 63.6-30.1 4-1.58 8-3.02 11-4.57 9-3.61 19-4.96 28-6.4 8 0.307 16 1.03 23 3.2"/>
<path fill="#e3001b" d="m275 8.12c-17-0.05-34 6.48-50 14.5 1 27.9 0 55.7 0 83.4v195c0 22 0 44 10 64 19 44 54 80 96 103 35-17 70-38 91-71 22-31 16-71 17-107 0-59 2-118-1-177 1-20.4-1-42.1 6-61.7 0-8.7-23 6.8-32 2.5-40-0.1-72-26.6-108-39.4-4-1.5-8-2.9-12-3.8-6-1.7-11-2.45-17-2.47zm53 49.9c0 1.4 2 0.7 2 1.2 4 1.7 5 3.7 6 7.2 2 1.3 2 2.4 3 1.3 0-0.8 1-2.1 0-3 0 0 1-2 1-3.8 1-0.9 1-1.1 3-0.9 1 1 2 1.8 3 3.1s2 3 2 3.1c1 1.6 3 3.1 5 2.5 3-1.8 0-6.9 3-7.8 4-1 5 1.6 7 3.3 1 1.6 1 1.1 1 3.5 2 0.2 5 0.3 6 1.2 2 0.5 4 2.4 5 3.9 0 2.2-1 3.4-2 5 0 0.1-1-0.3-1 0.3 1 0.8 1 3.3 3 3.4 1-4.4 4-10.7-2-13.7-2 0.4-3-0.2-5-1.4v-2.5c1 0.5 2 1.2 2 2 5-1.1 7 2.2 10 1 2 0.8 4 2.4 5 3.9 3 1 3 1.3 5 2.1-1 0 2 2.9 2 2.9 1 3.7-1 9.5 0 11.9 1 1.4 2 1.6 3 1.5 1-1.3 0-7.2 0-7.2 1-0.4 1-1.8 2-1.3 2 0.9 0 3.1 1 4.3 0 1-1 1.9 0 3.2 0 0.8 2 0 2-0.5 3-0.7 7-0.1 8 2.2 1 2 2 2.9 1 5.2-1 1 0 1.4-1 2.1 1 0.8 4 3.8 4 6.8 1 3-1 7 2 8l1 1c0 1-1 1-2 1-1-2-5 0-5 0 2 0 2 4 2 6 0 1-1 6 0 7 0 3 1 7 0 11-1 0 0 3-4 4-3 2 0 6-2 8 0 2-2 6-4 10-1 2-8 8-6 10 0-1 5-2 5-2 5-1 9-2 10-3 1 0 0-2 1-1 1-5 1-10 1-15 0-3 0 0 1-4 2-2 4-3 4-3 3 0 7 0 8 2 4 1 1 6 4 8h2c1 2-1 1-2 2-1-1-2 0-2 0l-3-3c0-1-1 0-1 0-1 0-1 1 0 2 0 0 0 6 1 9 0 0 2 2 2 3 1 1 3 0 3 3 0 0 2 2 0 7 0 1 0 1-1 2 0 1 1 2 3 2 2 2 3 5 2 9-1 1-3 3-2 5-1 0 0 2 1 2 0 2 2 4 0 7 0 0 0 2-1 4v1c1 2 0 4 1 5 1 3-1 7 2 8 0 0 2 2-3 8-2 0-4 3-4 4 0 0-2 2 0 2 1-1 2-2 5-2 1-1 3 0 4 0 1 3-1 3-2 5-3 0-3 7-2 8 0 2 3-1 3-1h1c1 1 0 2-1 4v10c0 1 3-1 2 1l-3 3c-2 0-2 3-3 4 2 1 3 2 3 2-2 1-5 3-6 6-1 1 0 2-3 5-1 2-5 2-5 2s-4 1-4 2c0 0-3 10-4 14 0 0-2 8-4 11-1 2-6 10-6 10 0 1-5 7-5 9 0 0-2 8-1 11 1 5 4 9 5 9 1 1 2 4 2 4s2 4 0 9c-1 2-4 3-6 4-4 1-13 9-15 10 0 1-3 1-6 4-2 2-6 5-7 8 0 0-1 2-1 3 1 0 1 2 1 2-2 2-6-1-7 1-3 2-4 5-8 4-2 1-3 3-5 3 0 0-2 0-2 1-1 0-5 1-5 2-3-1-4 4-7 2v-6h-2c-1 2-2 5-2 5-2 0-4 2-5 3-1 0-4 1-4 1-7 0-14 1-20-1-3 0-2-2-4-2-1-2 1-6 1-6 0-2 1-3 2-4 0-2 4-11 4-11l3-3s7-1 11 1c4 0 6-2 8-3l5-3c3 1 6-1 9-1 19-12 25-17 28-19 3-3 1-6 0-9-1-5-3-7-4-7-1-3-11-9-14-10s-3 4-2 7c2 1 1 4 1 4l1 6c-1 2-2 5-4 6-1 1-11-1-11-1s-11-1-15-2c-2 0-3 0-5 1-1 2-6 0-6 0-1 0 0 2-2 3 0-2-2-1-3-1-2-1-8-2-10-2-3-1-9-1-10-3s0-5-1-4c-3-1-2 1-3 2l-1 4-3 3c0 1-5 3-5 3l-14-1-11-2c-1-3 1-5 2-7 0 0 4-11 5-11 1-2 3-3 6-3 3-1 6-3 8-5s6-3 8-3c8 0 19 2 19 2l15 3c6 0 9 2 13 1 1-1 0-3 0-3-7-7-9-11-10-14-2-2-8-8-9-11 0-1-4-9-5-11 0 0-3-8 2-13 1-1 8-6 12-10 1-2 3-4 3-6-2-1-6-8-6-8-1-2-12-12-17-17 0-2-2-1-3-2-2 0-17-7-17-8-2 0-4-1-3 1s12 13 14 12c1 1 1 2 2 3 1 2-3 4 0 5 2 0 3-3 4-4l3 1s7 4 7 5c3 4 6 7 8 12 0 0 0 3-1 4-2 0-3 2-6 2-3 1-10 3-11 3s-3 0-4-1c0-1-5-4-7-4-1-1-3 0-4-1-2-1-4-4-4-4-1-1-3-5-4-7-6-7-8-10-14-15-1-2-3-4-5-6-1-1-1-3-2-3 0 0 0-7 2-10 1 0 2-1 3-2 1-2-1-2-1-3-1 0-4-2-5-3-3 0-3-2-7-3-4-4-4-6-4-6 0-1-1-2-2-2 0 0-2-3-3-4v-9c1-3 1-26 1-26v-11c0-2 2-3 3-4l14-7c2-2 5-1 7-1 1 1 5 6 6 9 1 2 3 7 9 13l6 6c1-1 6-4 8-7 10-6 10-1 12-5 5-6 12-11 12-11 5-4 9-3 9-3 2 0 5 0 7-2 1-1 4-2 5-3 6 0 12-1 16-4l1-2c-4-1-8 1-10-1-1-1-3-3-2-5-1-1-4-2-4-2-2-1-5 0-6-2-3 0-9-2-11 2-1 0-2 0-2 1-6 1-7-4-12-5-1-1-1-3-1-4v-2c-1-1-5-3-5-3v-3c3-3 7 0 10-2l-6-3c-1-2.8-4-2.1-4-5.1 2-0.7 1-3.5 1-5.2 2-2.2 7-4 7-4 2-0.4 2-3.4 5-4.2 2-1.2 4-1.2 7-0.8l2 1.6 9-1 12-0.6c1-2.6-2-2.7-3-4.2-1-0.7 0-2.4-1-2.7-1-2.6 0-5.8-1-8.4 0 0-2-2.8-3-3.9 0 0-7 0.3-7-2.5l7-0.2c0-1 1-0.7 2-0.8zm-22 42c-1 0-2 1-4 1v0 2h1 1v-1c1 0 2 0 3 1 0 0 1 0 2-1h1c-1-1-2-1-2-1-1 0-1-1-2-1zm-60 64-1 8l1 1c1 1 0 2 1 3s0 2 0 3c1 0 1 1 1 2v3c-1 0-2 1-2 2l5 1v0h2c1-2-1-4-1-5s0-2-1-3c0-1 1-2 0-3-1 0-1-1-1-2 1-1-1-2 0-2 0-2-2-4-2-5s-2-2-2-3zm143 15v1c-1 0 0 3-2 4-1 4-5 6-6 9-1 2-2 3-2 6-2 1-3 4-5 5-4 2-2-3-3-4-3 0-5 1-5 3-2 2 0 6 2 8 2 4 6 6 8 10 2 1 3 3 5 5 3 2 6 5 8 7 2 3 5 5 7 8 3 2 4 4 6 6 1 3 3 4 4 7 2 3 3 6 4 10 1 3 3 1 4-1 1-3 1-7 0-10 1-3-1-5-2-8 0-2-4-3-5-5-2 0-4-2-7-2-2-2-5-2-8-4-2-2-5-5-6-8 0-3-2-5 0-8v-7-3c1-2 1-5 1-7 1-3 0-8 1-12 2-1 0-5 1-7 0-1 1-3 0-3zm-152 232c-1 0-3 0-4 1-3 3-5 6-7 10-1 0-3 0-4-1l-3-6c-1-2-6-3-8-3-4 1-7 1-9 3-4 3-8 5-9 9-1 2-3 4-2 6-1 3 1 5 3 7 2 1 3 4 4 6-1 2-4 5-8 4-4 0-7 5-7 9 1 4 1 6 3 10 2 3 4 7 8 9 3 3 7 0 11-1 4 0 5 7 2 9-2 4 3 8 7 8 3 1 7 2 11 2 4-1 8 0 11-2 4 0 7-4 6-8 1-3-1-5-1-7 0-5 6-3 9-2 3 0 6 0 9-3 3-2 5-6 5-9 2-3 0-8 2-11-1-3-2-7-6-7-4 1-8-1-7-4-2-3 5-4 5-7 1-3 0-7-1-9-2-3-5-5-8-8-3-1-5-3-7-4-2 0-3-1-5-1zm-3 5c2 0 4 2 6 3 3 0 3 4 6 5 2 1 6 3 7 6 3 3 0 8-3 10-2 7 9 3 9 8 1 4 1 7-2 10 0 3 1 7-2 10-1 4-6 4-9 4-4-1-8 1-6 5s-2 9-6 9c-2 2-6 0-9 0-2-2-5 1-7 0-3 0-6-2-7-4s-1-4-1-5c0-6-6-3-10-3-4-1-5-5-6-8 1-5-5-6-5-10-1-5 3-10 8-9 5 0 4-7 0-8-3-2-5-6-2-9 2-2 4-4 6-5 5 1 5-6 9-6 2-2 8-3 10 0 1 1 1 3 2 4 0 1 0 1 1 2s3 0 3-1c2-2 3-6 4-6 1-1 3-2 4-2zm-18 3c-1 0-2 0-3 1-4 1-5 6-9 7-3 1-6 4-8 6-1 5 6 5 7 9 1 0 0 3 1 4-2 3-7 4-10 3-2 1-3 5-2 7 1 3 6 5 5 7v4c0 4 5 6 8 4 4-3 8 3 6 6l-1 1c1 2 3 3 4 4 4 2 7 1 10 0 3 2 8 4 11 1 4-2 4-6 3-10-1-3 4-6 7-3 3 2 9 0 9-4 1-3-2-6 0-9 2-2 3-4 3-6 1-3-1-5-4-5-3 1-6-1-6-4 1-3 5-5 5-9-1-3-4-4-7-5-4 0-3-7-7-7-2-1-4-2-6-2-4 1-3 6-6 8-2 2-7-1-6-4 0-2-2-4-4-4zm-7 8c1 0 2 2 3 3s3 3 5 4c3 3 6 0 9 0 1 0 2 2 3 1 1 2 3 1 3 0 3-2 4-4 6-6 1-2 3-1 2 0-1 3-4 6-5 8 1 3 3-2 4-3s2-3 4-5c3 2-1 4-2 6-1 3-3 5-2 8 1 0 0 2 1 2 0 3 1 6 4 7 2 0 3 2 6 2 0 0 2 0 2 1s0 2-2 1-6-1-8-2c-2 2 0 2 2 2l7 2c0 3-3 1-5 1-3-1-6 0-8 1-1 3-3 4-5 6-1 0-3 1-5 2 0 1-1 3-1 4 1 2-1 2-1 4 1 2 0 5-1 4v-12c-1-2-2-1-2 1v11c-2 1-1-2-1-4-1-2-1-4-1-6-2-1-1-3-2-4-2-1-5-1-6-3-1-1-1-3-4-2-2 0-3 1-5 1-1 2-2-1-2 1-2 0-4-2-2-2 3-1 6-2 9-3 2-3-2-2-3-1-2 0-4 1-7 2-2 1-1-2 1-2 2-1 4-3 7-3 1-1 2-3 2-4v-4c1-1 1-3 3-5 0-2-2-3-2-5-2-1-2-4-4-6-1-1 1 0 1-2 2 4 4 8 7 10 3-1-1-3-1-4-2-3-3-5-5-6 0-1 0-1 1-1z"/>
<path d="m199 48.4c-9 6.2-14 16.3-15 26.9-2-0.3 0-3.9-1-5.9 1-2.8 2-5 2-7.9 3-5.6 8-12.3 14-14.2v1.1z"/>
<path d="m199 62.2c-3 4.3-5 9.1-5 14.1-1 0.2-1-0.6-2-1 0-7 3-14.1 9-17.5 2 2.2-1 2.4-2 4.4"/>
<path fill="#fff" d="m173 2.72c-1 0-1 0-2 0.03-33 4.64-59 23.8-88.4 36.2-1 1.5-3.9 0.5-3.7 2.9h1.8c20.3-8.7 40.3-20.1 61.3-28.9 14-5.61 31-10 48-7.25v-1.44c-5-1.08-11-1.61-17-1.59zm101 1.34c-14 0.26-30 3.76-42 9.14-2 1-2 1.4-5 2.7-1 0.9-3 2.2-2 3.5 8-3.7 17-7.3 26-10.2 28-9.31 54 1.4 79 13.4 17 7.7 32 16.2 49 22.8 2 0.2 3 0.5 5 0.7-6-2.4-11-4.8-18-8.2-8-3.4-14-7.6-22-10.9-17-7.5-35-17.2-53-21.4-5-1.01-9-1.47-14-1.54-1-0.01-2-0.02-3 0zm-53 22.5c-15 1.5-26 9.2-36 19.8-5 6.2-9 13-10 21-3 12 1 24.5-1 36.6v6c-3 8-6 12-16 16-2 1-8 3-10 4-11 2-22 8-29 18-15 17-10 41-9 63-1 31-37.6 26-52.7 47-14.2 15-14.7 37-14.8 58 0.5 6-1.4 12-4.3 17-4.4 4-9.5 9-16.4 9-1.6 0-1.4 1-1.3 3-0.2 9 1.8 17 3.9 25 1.8 6 3.8 13 6.7 19 3.3 7 6.7 12 10.5 17 2.5 0 5.5 1 7.8 0 15.4-3 29.6-11 39.4-24 10.8-16 12.2-36 12.2-56l1-1c-1-2 0-5 0-7 0-16 15-28 28-33 14-7 28-17 34-31 10-16 3-38 7-56 6-26 38-17 49-38l1-133zm233 11.9c-9 3-17 6.7-26 8.8-1 0.7 0 1.3 1 1.8 5-0.2 6-1.4 10-2.3 4-1.2 8-3.3 12-5.4 1-0.9 3-1 3-2.7v-0.2zm-448 3.7c3.3 5.5 5.9 8.9 7.6 16 1.2 5.1 1.5 6.8 1.6 10.7 0.5 24.4 0.4 84.1-0.3 90.1v177c-0.2 16 2.3 32 9.5 44h0.2c-2.8-7-4.5-15-6.2-23 0-3-0.8-6-1.2-9l-0.3-174c-0.7-6 0.2-12 0.3-19l-0.1-86.4c-1-6.4-1.8-14.3-4.9-19.7-1.8-2.4-3.41-5.7-6.2-6.7zm324 19.8c3 3.6 1 8.5 3 12.9 4 4.4 10 4.3 17 4.1 2-0.6 3 1.4 5 0.3v-0.7c-3-1-6-0.2-8-0.8-2-0.8-4 0.5-5-1-1-0.5 0-0.7 0-1h12v-3.7c-5-1.9-10-0.6-15-0.9-5-0.1-5-7.8-9-9.2zm12 1.2-1 0.6c0 0.7 0 1.7 1 2.1-1 3.9 3 1.5 4 2.5-1-1.5-2-4-4-5.2zm16 0.5c-2 0.2-2 2.6-2 4.2 1 5.3 1 11.2 3 16.1l-1 1c0-0.8-1-1.7-1-2.7l-15-0.8c-2 0.9-3 1.5-5 2-9-0.6-18 1-27 1.5-1-1.2-2-2.6-3-2-3 2.3-6 5.9-10 5.9-1 0.8-3 1.8-2 3.5 3 6.9 11 5 17 7.4 1 1.2 2 3.2 3 5.2 0 2-1 5-1 7-5 2-10 0-15 0-1 1-1 2 0 3 4 1 8 1 12 1 2 1 3 1 5 0 4-1 1-5 2-7 2-5-1-8-4-11.4l1-0.8c1 0.9 2 1.7 4 2 5 4.2 2 12.2 2 17.2 2 1 4 1 7 1v1c2-1 2 1 3 0 1 0 0-2 0-3 2-3 0-6 2-8 1-2 4-2 7-2 3 3-3 1-4 3-2 5-2 10-2 16 1 2 3 1 3 2 5-1 10 3 15 0 1-7 9-3 13-8-1-1 0-3 1-4 1 0 0 1 1 2 2 9-10 5-13 12-1 1-3 1-4 2 3 2 7 1 9-1 1 0 3 0 3 2-3 3-8 4-12 2-2 0-2-2-4-1 0 0-1 1-1 2 1 0 1 1 1 1 3 2 7 1 10 0 1 0 2-1 3 1 0 2-3 1-3 2-5 0-11 3-14-2 0-1-2-1-2 0-1 1 0 3 2 5 0 0 2-1 2 0 3 1 7-1 8 3-3 1-8 1-11-1-1-1-4-3-4-5-1-2-3 0-4 0-7-2-11 6-17 5-12 0-18 13-24 20-2 1-3 4-5 2-1 0 0 0 0-1 2-1 3-2 4-4-1-1-3 0-4 0-10 6-17 21-29 26-2 1-4 4-3 7-1 3 0 8 0 12v1l2-4c5-5 11 0 16 0 11 0 21 2 30 6 2-1-1-2 1-3 3 2 6 1 9 0 2 0 3-2 5 0-2 2-4 4-7 4-3-2-5 2-9 1-10-3-20-5-31-5-4 0-6-3-9-2-3 2-4 5-5 8-1 5-6 9-9 14 0 2 0 3 1 5 7 7 14 14 19 22 4 3 3 7 7 10 5-1 9 2 12 5 2 1 5 0 7 0 3-2 7-2 10-4-1-6-6-11-10-15-3-3-6 1-8 2-1 1-3 0-4-1-1-2-1-4 0-6-2 0-2 2-3 2-3-1 1-2 0-3-1 0-1 1-2 2-4 0 0-3-1-5-4-3-7-7-10-11-1-2 1-4 2-5 3-1 5 1 7 2 8 5 17 7 26 10 4 0 7 2 10 4 5 0 4-6 7-9 1-2 3-4 6-5-6 4-3 11-8 15-7 5-12-4-18-3 2 5 6 9 10 12 4 2 5 7 8 10 3 2 5 5 8 7 3 1 8 0 10-3 1 0 1-1 2-1l1 1c-1 3-3 4-5 5-3 2-6-2-9 0-2 1-1 3-1 4v1l4-4c1 0 2 1 1 2-2 2-3 6-6 5h-2c0 1 0 2 1 2 3-2 6 1 9 3 2 1 2-2 3-3 2-4 6-7 10-10 2-1 5-2 5-5 2-2 1-5 1-7 3-1 2 2 3 3 1 8-6 12-11 15-6 5-7 13-6 20 1 3 4 6 5 9 3 1 1 4 2 6 2 9 9 18 18 21 9 4 12 13 14 20 1 4 5 3 8 4-1 3-6 2-9 1-7 6-14 11-22 16-4 2-8 6-13 7-9-2-13 10-22 5-3 0-7-2-8 2-3 5-5 11-7 16 2 2 5 3 8 3 6 0 16 3 19-5 0-2 2-4 4-5 2 0 3 0 5 2 0 1 1 3 1 4 3-1 1-5 3-7 2 0 1 3 3 3 0-1-1-4 1-5 2 1 0 4 2 5 1 1 0-1 1-1 1-2-1-5 1-6 3 1 2 4 3 6 1-1 1-2 2-3 1-2-1-4 0-5 4 1 1 5 3 6 1 0 2-2 2-3 1-1 1-4 2-6 3 1 2 5 5 4-1-3 1-6 4-8 9-8 18-14 28-21 2-2 1-6 1-8-2-1-3-4-4-6-1-3-2-6-2-9-3-8 2-14 6-20 7-12 13-24 13-39-1-1-3-2-1-3 2 1 3 4 4 5 2 0 6 0 7-2s4-3 2-5c2-2 3-5 4-7 0-1-2-1-1-2 4-2 6-7 5-11-1 3-2 5-5 6-2-1 2-3 1-5 0-6-1-13 3-18-3 0-4 3-6 5-2 0-1-2-2-3-3-9 9-9 8-16-2 1-5 3-8 4-1 1-2 3-4 3v-2c1-4 5-6 9-6 1-1 3-3 2-5-1 0-1 1-1 2-5 3-14 0-17 7-1 1-1-1-2-1 1-2 1-3 2-5 4-4 10-3 15-4 2-2 3-3 2-5-8 7-18 2-28 2-1-1-3 3-4 0 3-4 9-3 14-2 5 0 10 1 14-1s4-6 4-9c0-2-1-4-3-5 0-1 2-2 3-3 2-2 1-6 0-9 0-1-1-2-2-2-6 5-14 1-22 2-1 1-2 0-3-1 7-4 17 1 23-4 3-3 1-7 0-10h-1c0 2-2 4-4 5-2 0-5 3-6 0 0-1 1-1 2-1 2 0 0-2 1-2 3-7-2-15 2-21 2 2 3 0 5-1 0-1-1-1-1-2-1-1-3-2-5-1-7 5-1 14-3 21-2 5-8 4-12 5-14 2-9 18-11 28-1 10-5 20-1 29 3 7 10 8 16 9 5 2 11 8 12 14 0 6 0 11-1 17-1 2-3 4-6 4-3-1-4-4-5-6-5-18-21-30-35-42-7-7-13-17-9-27 1-2 4-4 7-4 2 0 4 1 5 3 1 1 1 2 2 2v-3c0-2-2-3-3-5 2-1 4 1 6 2v-1c0-2-1-5-3-4-5-1-7 4-10 4-3-1 0-3 0-4 2-2 2-6 5-6 3 1-1 3 0 5 2-1 5-2 7-1 1 0 2 2 4 2 2-3-2-4-3-6h1c2 0 3 2 4 1s0-2-1-3c-1 0-2-2-3-2-3 0-4 2-6 3-2 0-2-1-2-2 2-3 4-7 6-9s3 0 4 1c-1 1-4 4-4 5 2 0 2 0 3 1 3 0 4 1 6 1-1-2-4-3-5-4v-2c1 0 2 1 3 1h2c2-3-2-4-3-6 3-1 4 2 6 1 1-2 0-2-1-3-2-1-3 0-4 1-1 0-3 1-3 0 0-4 4-7 6-11 2 1 2-1 4-2 3 0 6 0 8 2v-1c-1-1-1-4-4-4-1-1-3 0-4 2-4-2 2-6 1-9 1-2-1-6 2-6 4 3 0 7 0 10 1-1 2 0 4 0 1 0 2 3 3 2v-1c-1-1-2-3-3-3s-2-1-2-2c3-1 6 0 8-2 1-1 4-2 3-5 0 2-2 2-3 3-3 0-6 0-8-2 1-1 3-1 5-1 3-1 5-3 5-5h-1c-2 3-8 1-10 5-3-1-1-5-1-7 1-2-2-4 1-5 3 1 1 5 2 8 2-2 5-2 7-4-1 0-2 1-3 1-6-2 3-3 2-6-3 1-5 1-8 0-2 0-1-3-2-5 0-1-1-3-1-4h-1c0-2 1-1 2-2 4 2 3 6 4 9 6 1 6-9 12-7-2-4 2-10-4-12.2-3 1.2-6 4.2-10 4.2-1 0-2-1-2-2 3 0 7-2 9-4.6 1-1.3 5 0.7 4-2.5-1-2.4-2-3.6-4-5-4-0.9-6 1.4-8 3-1 0.9 0 2.9-2 3-1-2.8-1-5.5-4-7.7 0-5.4 3-11.2-2-15.1-1-0.4-1 0.6-1 1.5 6 4.6-1 9.8 2 15.6 0 1.4 3 2.8 2 4.2-3-0.1-5-3.3-6-5.2 0-3.8 0-7.5 2-10.4v-2.3c-1 1.7-3 3-3 5-1 1.2 1 2.4 0 3.3-6-3.1 0-8.4-1-13.2-1-1.1-1-2.9-3-2.5 4 3.9-1 8.6 0 12.2 1 1 1 1.7 1 3-1 0.8-4-5.3-4-9.1 2-4.2 0-7.3-2-6.9-1-0.5-4-0.7-4 0.5 3 0.3 5 4.6 4 5.6 0 3.3-3 2.5-3 2.9 1 2.8 6 7.8 6 8.4 0 2.6 1 5.6-2 7.2-1-0.1-1 0.2-2-0.3 4-9.4-8-14.6-11-22.5-1-2.1-1-4.7-4-6.3v-0.1zm1 4c1 1.9 2 4.1 3 6.4 3 4.2 7 7.8 9 12.1 0 1.3-1 2.2-1 2.7-1-0.2-2-1.2-3-2.1v-1.6c-3-5.1-6-9.6-8-15.3v-2.2zm8 1.8s-1 0.2-1 0.4c0 0.9 1 1.3 1 2.5 1 1.2 3 3.6 4 4.6 1-0.8 0-2.2 1-3.4-1-1.9-3-4.1-5-4.1zm-21 18.2c1 1.3 2-1 4 0.5 5 3.3 3 9.7 8 12.8-2 1-2 0-4 0-1 2-3 2-5 3-1-2-3 0-3-2 2-1 4 0 5-2 0-1.2-1-2-1-2.8-2-0.3-2 2.4-4 0.9 0-1.5-1-3.6 0-5.5v-1.2c-3-1.4-4 6.7-8 3 1-0.7 2-0.5 2-0.2 2-2.1 3-5.5 6-6.5zm-19 0c2 0 4 0.1 5 0.3 1 0.3 3 0.1 3 1.4v0.5c-5-0.6-10 0.1-15 0.5v-0.5c2-1.5 5-2.1 7-2.2zm-17 1.5c2 0 3 0.7 4 1.8 1 2.1-2 2.3-3 3.2-1 0-2 0-3-0.8 0-1.2 1-0.8 2-1.5 1-1.2-2-2.1 0-2.7zm56 5.2c1 0.2 1 0.5 2 1-1 2.2-4 4.6-1 6.6v2c-1 0-3-1-4-2s-2-2.6-1-3.9c0-2.2 3-3.1 4-3.7zm34 0.6s1 0 1 0.1l1 1c-3 1.1-4 4.9-7 4.9h-2c-1 2 2 4-1 5-1 0-2-1-2-1-2-4-5-6.4-7-9.9 4-0.7 6 3.3 8 5.9 4-1.1 5-6.2 9-6zm-23 0.3s1 0.2 1 0.8c-1 1.2-2 2.1-2 3.9 1 2 1 4 2 5l3 7s-1 1-1 0c-3-4-9-7-7-13.2 1-1.3 3-3.5 4-3.5zm-34 0.1c1 1.5 2 3.4 3 4.6 0 1-1 0-2-0.2-1-1-2-2.3-2-3.7l1-0.7zm61 6.6s1 0 1 1c0 2-1 1-2 2-1 2-4 3-7 2 0 0 0-1-1-1 1-1 3-1 4-1 1-1 3-3 5-3zm-99 3c-3 0-5 1-8 1-1 0-2-1-3 0s0 2 0 2c4 2 8 0 12 1 1-2-1-1-2-2 2-1 3-1 5-1-1 0-2-1-3-1h-1zm101 1c0-1 1 0 2 0 0 3-2 1-3 2-1 2-3 3-6 3l-3-2c1-1 4 1 6-1 1-1 2-2 4-2zm-80 2c1 0 2 1 2 2 1 1 0 0-1 1-1-1-2 0-3-2 0 0 1-1 2-1zm62 2l2 2c-1 3-5 4-8 5v-1c2-1 4-4 6-5v-1zm-63 3c1 0 2 1 3 1l1 1c-2 0-4 0-5-1 0-1 1-1 1-1zm65 1c1 0 1 1 2 1-2 3-6 6-9 6v-1c2-1 5-3 7-5v-1zm-210 3c2 1 0 3 1 5-3 6-9 12-15 13-1 0-2-1-2-2 1 0 3-1 4-1 5-3 10-9 12-15zm227 0c-1 0-1 2 0 3 0-1 1-2 0-3zm-102 1c-1 2 3 3 2 1l-2-1zm85 1c0 1 2 1 2 2-2 3-5 3-7 5l-1-1 6-6zm2 5 1 2c-2 3-6 4-8 6-1 1-1 0-2 0 3-2 5-6 9-8zm-204 2h1c-3 8-9 16-18 17 0-1-1-1-1-2 7-2 14-8 17-15h1zm204 5h1c0 3-3 4-4 5-2 1-4 2-5 1 1-2 5-3 6-5 0-1 1-1 2-1zm-198 3v2c-1 7-8 13-14 15-2-1-3 0-3-1 6-3 13-9 16-15 0-1 1-1 1-1zm196 4h1c0 3-3 4-5 5-2 0-4 1-5-1 1-1 2 0 3-1 2-1 4-3 6-3zm-140 3-11 6c-3 1-5 2-7 4 0 1 0 2-1 3 1 9 2 17 1 26h-1c1 7-3 15 3 20 2 6 9 8 14 11 1 0 3 1 3-1 1-5 1-13 0-19-1-1-3-1-5-1h-2c-1-1-1-3-1-5 0-1 1-2 2-3l-3-9c0-2 1-4 0-6 0-3 0-7 3-8 7 5 7 13 10 20 0 2 0 4 2 5 3-3 6-5 10-8 2-2 5-4 5-7-5-4-10-10-13-16-2-5-4-11-9-12zm-49 2s1 0 1 1c-2 6-7 13-14 15-2 0-4 2-6 0 1-1 3-2 4-2 6-4 12-8 15-14zm187 0c2 1 1 2 0 3-2 2-6 3-9 4-1 0-1-1-1-1 4-1 7-3 10-6zm-248 4h1v1c-12 5-19 16-21 28-1 0-1 0-1-1 0-8 3-16 9-22 4-3 8-6 12-6zm245 3h1l1 1c-3 4-8 4-12 5-1 0-1-1-2-1 4-2 8-3 12-5zm-176 1c1 0 1 0 1 1-2 9-11 14-20 16 0 0-2 1-3-1 1-1 2 0 3-1 8-2 15-8 19-15zm209 0v2c1 0 1-2 1-2h-1zm-170 0 1 1c-1 4-6 3-9 5 0-1-1-1-1-2s1-1 1 0c3-1 5-3 8-4zm147 2c-2 0-4 1-6 3 0 2-1 3-2 5 1 0 4-1 5 2 3 0 1-3 2-5l-2-2v-1c2-1 2 1 3 0 1 2 2 3 3 4v-4c-1-2-2-2-3-2zm-12 2l1 1c0 2-2 3-3 4-4 1-8 1-12 1v-1c2-1 6 0 8-2 3 0 4-3 6-3zm-67 1h2 3s1 0 1 1c-2 2-4-1-7 0h-1c0-1 1-1 2-1zm102 0c1 4 1 9 0 13 1 0 1-1 2-2-1-4 1-8-2-11zm-167 1c3 3 5 7 7 10 0 4 4 6 3 9-1 1-2-1-3-2-2-5-5-11-8-16l1-1zm60 1h4c0 1 1 0 2 1 0 0 1 0 1 1-3 2-7 0-10 0 1-2 2-2 3-2zm-72 4c1 0 2 1 1 2 1 5 1 11 2 16-1 1-2 0-2-1 0 0-1-1-1-2-1-5-1-11 0-15zm74 0c1 1 1 1 1 2-3 3-7 0-11 1 0 0-1 0-1-1 3-2 6-2 9-1 1 0 1 0 2-1zm64 0h1l1 1c-3 4-8 4-12 4-1 0-1 0-2-1 1-1 2 0 4-1 3 0 5-2 8-3zm-73 6h5c0 1 1 1 0 2-3 1-8 1-11 1-2-2 1-1 2-3h4zm69 0l1 1c0 3-3 2-4 3-2 0-5 1-6 0 2-1 5-2 8-4 0 1 1 0 1 0zm31 5h3l1 1c-3 1-6 1-8 3-2 0-1-1-1-2 1-1 3-2 5-2zm-103 0h1c1 2 4-1 4 2-4 3-11 1-14 5-1 0-2-1-1-1 2-2 4-5 7-5 1 0 2-1 3-1zm69 1v1c0 2-2 3-4 3-2 1-5 1-7 1l-1-1c1-1 3-1 5-2 3 1 5-1 7-2zm-92 2 1 1c-2 4-7 7-10 11 0-1-1-1-1-2 4-3 6-8 10-10zm-111 5h1c-6 6-7 14-9 22-2 0-1-3-1-5 1-6 2-14 9-17zm198 0s1 0 1 1c-2 3-6 3-10 4-1-1-2 1-3-1 4-1 8-2 11-4h1zm-29 0s1 0 1 1l-4 3c-5 0-10 1-14 4l-1-1c0-2 3-4 5-5 4 0 9-1 13-2zm71 4h2 3v1h4c2 0 3 1 6 1l1-2c0 1 2 1 1 2-5 4-12 1-17 1-3-1-6 0-9 0 3-2 6-3 9-3zm-45 1c1 0 1 0 1 1-1 3-5 3-8 4-1 0-3 2-5 0 4-2 8-3 12-5zm-84 0c1 0 1 2 0 3l-6 6-1-1c1-3 4-6 7-8zm131 6c1 0 3 0 5 1 1 1 3 0 4 1 2 1 4-2 4 0-3 2-8 2-12 0-4 1-9-1-13 1l-1-1c4-3 9-2 13-2zm-50 1s1 0 1 1c-2 3-5 4-9 5 0 0-1-1-1-2 2-1 5-2 7-4h2zm10 1c-2 1-4 2-3 3 1 0 3-2 5-1v-1s-1-1-2-1zm-127 3c1 0 2 1 2 1v1c-1 0-2 0-2-1v-1zm161 1c2 0 4 1 7 0 0 1 2 0 2 1 3 0 6 0 8-1 1 1 1 1 1 2-7 4-16-2-23 1l-1-1c1-1 2-2 4-2h2zm-161 3c1 0 2 0 2 1v1c-1 0-3-2-2-2zm182 1 1 1c-1 1-2 2-4 3-8 3-16-4-24 0l-1-1c3-2 8-2 12-2 5 1 12 3 16-1zm-182 2c1-1 1 0 2 1v1c-2 0-3-1-3-2h1zm115 3c1 0 1 1 1 1-1 3-3 5-6 5l-1-1 5-5h1zm3 5v1 1l-7 5c0-1-1-1-1-2 3-1 5-4 8-5zm46 3l1 1c-3 1-7 0-8 3 0 2-1 3 0 5h-1c-2-1-2-3-2-5 2-3 6-4 10-4zm-45 1c1-1 1 0 2 1-2 2-5 5-8 6l-1-1c2-2 5-4 7-6zm-96 4c2 1 0 3 0 4-1 2-3 4-4 4s-1-1-1-2c2-1 3-4 5-6zm9 0c4 1 9 3 13 5 4 1 5-3 8-4 2 1 0 2 0 3-1 1-3 2-2 3 3-1 5-3 8-5l1 1c-1 2-4 4-4 6 3-1 6-4 8-6 2 0 0 2 0 3-1 2-4 3-3 4 2-1 4-4 6-5 2 3-2 5-3 7 3 0 4-3 6-4 2 3-4 4-2 7-4-1-6-3-10-3-10-2-17-9-27-11-1-1 0 0 1-1zm132 7c2 0 1 3 2 5-2 0-2-2-3-2 0-1-1-3 1-3zm-5 0c2 0 1 2 2 4-1 1-3-1-3-2s0-1 1-2zm-289 1s1 0 1 1c-2 9-11 13-18.2 16-0.6 0-1.8 0-1.3-2 6.5-2 14.5-7 16.5-14 1 0 1-1 2-1zm151 2c3 2 7 6 10 9v1h-1l-9-9v-1zm150 5h1c1 1 2 3 4 4 0 1 2 1 0 2-2-1-4-3-5-5-1 0 0-1 0-1zm-295 1v1c-3 8-11 13-19.1 15l-1.2-1c7.3-3 14.3-8 20.3-15zm265 1 1 1c-2 2-4 4-6 5 0 0-1 0-1-1 2-1 3-3 6-5zm2 3c1 0 1 1 2 1-1 3-4 4-6 6h-2c2-2 4-4 6-7zm-64 3c1 0 1 0 2 1-1 2-4 3-6 4-3 0-7-1-8-4 1 1 2 1 3 1 3-1 7 1 9-2zm67 0c1 0 1 1 2 2-1 2-3 3-5 5-2 0-3 3-6 2v-1c3-2 7-4 9-8zm-266 1c0 1 2 1 1 2-4 7-11 13-19 14 0-1-1-1-1-1 1-2 3-2 4-2 6-3 11-8 15-13zm269 3c1 1 2 1 2 2-1 2-3 3-5 5-2 0-4 4-6 2 1-2 4-3 6-6l3-3zm-67 1s1 0 1 1c-2 2-5 5-9 4-1 0-2-2-3-3 2 0 4 2 7 0 1 0 3-2 4-2zm-197 3c1 0 1 1 1 2-5 7-12 12-20 13 0 0-1 0-1-1 7-4 14-8 20-14zm268 0s1 1 1 2c-4 3-7 6-12 8v-1c0-2 3-2 5-4 2-1 4-5 6-5zm-107 2c1 0 1 0 1 1v1c-1 0-1-1-2-1 0-1 1-1 1-1zm39 0c1 0 1 0 1 1s-2 3-4 4-5 0-7-2c2 1 4-1 7-1 1 0 2-2 3-2zm70 2c1 0 1 1 1 1 0 2-2 4-3 5-3 1-5 3-7 3v-1c3-3 6-5 8-8h1zm-107 0c0 1 1 1 2 2-1 1-2 1-3 0 0-1 0-2 1-2zm41 2c1 0 2 1 1 2-1 2-3 3-5 4-2 0-4 0-5-2v-1s2 0 2 1c2-1 6-1 7-4zm-39 1s1 0 1 1c-1 2 3 2 0 4 1 0 2 0 2 1 0 0 0 1-1 1s-1 0-2-1c1-1-2-3 0-4h-1c-1-1 0-2 1-2zm-14 1h1c0 1 4 0 2 3-1-1-3-1-3-2-1-1 0-1 0-1zm-145 0v1c-5 7-12 13-20 14 0 0-1 0-1-1 8-3 14-8 21-14zm267 1 1 1v1c-4 3-8 6-12 7l-1-1c4-2 7-6 12-8zm-326 0c-0.1 0 0.3 1 0.5 1-1.1 1-3.3 2-4.9 4-8.3 7-9.7 18-12.7 28-0.8 0-1.3 0-1.7-1 0.1-6 2.3-11 3.7-17 2.8-6 8.4-14 15.1-15zm327 4c1 0 2 1 2 2-3 3-7 5-10 6h-1c3-3 6-6 9-8zm-84 1c-3 8-13 10-16 18 0 4 0 8 3 11 1 6 6 12 12 16 1 7 8 11 11 17 0 2 0 4-2 5-13 0-26-3-39-5-4 0-10-1-15 1-4 3-9 5-14 6-4 4-6 10-8 15v1c7 2 14 2 21 2 6 0 5-6 8-10 1-3 5-3 8-2 2 1 0 3 0 5 1 1 2 2 3 2l-1-4c1 0 1-2 3-2 1 1 0 2 0 3 0 2 1 3 3 4v-2c1-1 1-3 2-3 2 1 0 5 2 6 0-3 2-4 3-6 1 1 1 2 1 4 0 1 1 2 3 2 0-1-1-4 1-5 1 1 2 3 4 4 1 0 1 1 2 0v-1c3-3 7 1 11-1 7 1 14 3 21 3 2-2 2-5 3-7-2-5-4-11-1-16-4-6-8-12-9-19-3-6-7-9-7-17v-6c-4 0-6-4-10-3-2 0-3-1-3-3-1-4 0-8 1-12 1-1-1-1-1-1zm-178 1 1 1v1c-6 8-15 12-24 14-1 0-1-1-1-1 9-2 17-9 24-15zm264 3c1 0 1 1 1 2s-4 3-1 5c0-1 1-2 2-1s1 2 0 3c-1 0-2 1-2 2v2c1 0 2-3 3-1 2 4-5 3-3 7 1 0 1-2 2 0 1 3-5 3-2 6 1 3-5 4-2 6-1 3-3 5-4 8-3 3-2 7-6 10-2 2-4 5-6 8-5-2 2-5 3-8v-1c-2-1-4 1-6 1l-1-1c4-2 9-2 11-6-2 0-5 3-7 0 1-1 2 0 3-1 2-2 7-1 8-5-3-1-6 3-8 0 4-1 8-2 10-6-2-1-5 3-7 0 3-1 7-3 9-5l-1-1c-2 1-5 3-7 2 3-2 8-3 8-7-2 0-4 1-6 2l-1-1c3-2 7-3 8-7h-1c-3 1-5 3-8 3l-1-1c3-1 6-4 9-6v-2c-3 0-6 4-8 2 4-3 7-5 11-9zm-94 14c1 0 2 0 2 1-1 1 0 3-2 4-2-1 0-3-1-5h1zm19 8c1 0 1 1 1 2-2 2-5 5-8 6 0 0-1-1 0-2 2-2 5-4 7-6zm18 1s2 1 2 2 0 3-2 4c-2-1 0-4-1-5 0-1 0-1 1-1zm-244 1v1c-7.7 7-10.3 16-10.2 26-2.4-1-0.6-5-1.6-8-0.2-4 1.4-7 2.5-10 1.9-4 4.8-8 9.3-9zm226 3c1 0 2 1 2 1v1l-7 5h-2c2-2 5-4 7-7zm2 4c1 0 1 1 2 1 0 3-3 3-4 5l-8 4v-2c4-2 7-5 10-8zm2 5c1 0 1 0 2 1v1c-4 3-7 5-12 6v-1c4-2 7-5 10-7zm2 4c1 0 2 0 2 1-1 3-4 4-7 5-2 1-4 4-5 2 3-3 7-6 10-8zm2 5 1 1c0 2-2 3-4 4-2 0-5 4-6 1 3-2 6-5 9-6zm1 4c1 0 1 1 2 2-2 2-5 3-7 4-1 0-2 0-2-1 3-1 4-3 7-5zm2 4 1 1c0 3-3 4-4 5-2 0-3 2-4 0v-1c3-1 5-4 7-5zm2 4c1 0 1 1 2 1v1c-3 3-7 5-10 5h-1c3-2 5-5 8-6l1-1zm46 4c3 1 0 4 1 6 1 4 2 9 5 12-1 2-2 1-3 1-2-2-2-4-3-6-1-4-2-8 0-13zm-46 1c1 0 1 1 1 1 0 1-2 2-2 1h-1c1-1 2-1 2-2zm-12 2c1 2 3 3 4 4 1 0 1 1 2 2-3 0-5-2-8-4 0-1 1-2 2-2zm-284 3c0.7 0 0.9 0 1.2 1-1.4 4-4.7 9-9.2 11-3.5 1-7.5 4-10.9 1 1.2-1 3.9 1 5-1 6.2-1 10.7-7 13.6-12h0.3zm232 2s1 0 1 2c0 1-1 2-2 2s-2 0-2-1c2 0 2-3 3-3zm-21 0c1 2 2 0 3 1 1 0 1 0 1 1-1 1-1 2-2 2 0-3-2 1-3-1 0-1 0-2 1-3zm6 0c2 1 1 3 0 4v1c-1-1-2-2-1-3l1-2zm37 1h5c0 2 2 0 3 1 3 0 5 2 8 1 1 1 3 1 5 1v1c1 0 4-1 4 1-2 0-5 0-7-1-6-1-12-1-17-2-1 0-3 1-4 0v-1c1-1 2-1 3-1zm-34 1c1 0 1 1 1 1 0 1 0 2-1 2s-1 0-1-1 0-2 1-2zm2 1c1 0 1 0 1 1v1c-1 0-2-1-2-2h1zm-215 3 0.5 1c-3.2 5-6.5 11-13.1 14-2.8 0-6.7 1-8.9-1 2.2-2 6-1 8.7-2 5-3 9.4-8 12.8-12zm171 1c-6 28-19 54-37 76-17 19-36 37-59 49 26 14 72 33 79 37 6 4 15 10 20 14 16-14 37-23 56-32 14-6 29-12 44-19-19-11-37-24-52-40-22-23-42-53-51-85zm-166 7c2.5 2-0.5 4-0.5 5-4.2 7-10.8 13-19.3 12-0.3-1-1.2-1-0.9-2 8.6 0 16.3-7 20.7-15zm335 4c1 0 1 1 2 1-10 10-24 17-36 25-1 0-2 2-4 1l30-21 8-6zm-328 6 1 1c-1.7 7-8.7 13-15.3 15-2.2 1-5 2-6.4 0 2.1-1 4.2-1 6.1-3 2.8-1 5.5-2 7.9-5 2.6-1 5-5 6.7-8zm6.2 10 0.5 1c-2.4 7-8.4 12-15.4 14-2.7 0-5.9 1-7.6-1 2.7 0 5-1 7.6-2 5.8-2 10.8-7 14.9-12zm6.5 7c0.6 0 0.6 1 0.9 1-3.2 8-11.5 13-19.3 15-1.1 0-3.7 0-3.9-2 8.7-1 17-6 22-14h0.3zm232 9c1 0 2 1 1 2s-2 1-3 0c0 0 0-1 1-1 0-1 1-1 1-1zm4 2h1c-1 1-1 2-2 3-1-1-2-1-1-2 0-1 1-1 2-1zm2 0c1 0 2 1 2 2-1 1-1 2-2 2-1-1-1-1-1-2s1-1 1-2zm4 2s0 1 1 1c-1 1 0 2-2 2 0 1-1 0-1-1s1-2 2-2zm-93 14c4 0 3 10 8 4 4-1 7-1 10 1 5 1 7 4 11 6 4 4 8 10 6 16 2 2 7 1 7 5 0 2-2 4-4 5 3 2 6 6 6 10 0 7-2 13-6 19-2 3-6 4-10 4 0 1 0 2 1 3 0 2 1 6-2 7s-5 0-7-2c-1 3-1 5-3 7-5 6-13 4-20 5-7 0-15-2-18-9v-1c-2 0-4 2-7 1-1-1-2-3-2-5 0-1 3-3 0-4-6 1-10-8-12-12-2-5-4-12-1-16l4-3c-2-3-5-5-4-9s9 0 7-5c-1-2-1-5 1-7 3-9 13-17 23-16 1 1 4 0 5 2 1-1 2-3 3-4s2-1 3-2h1z"/>
<path fill="#009136" d="m220 171c-11 12-37 9-43 29-3 20 3 42-8 60-11 20-34 27-52 40-15 18-7 44-14 65-7.4 25-30.5 46-56.8 47 17.7 26 46.5 41 73.8 55 13-4 26-14 36-23 24-20 44-45 55-74 13-31 9-65 9-98zm-168 87c10.8-17 33.4-18 47.5-31 12.8-16 1.8-38 5.8-57 2-22 22-39 43-44 23-4 24-27.7 22-46.5-3-27.9 21-52.3 48-56.1 0-7.6-25-15.8-37-15.5-38 1.13-69 26.5-103 38.7-18.9 9.3-41.8 12.7-61.2 3.5 7.4 21.5 2.3 44.9 3 66.9-0.2 74-0.2 147 0.4 221 20.1 0 18.7-22 18.6-36 0.6-16 2.3-32 12.9-44z"/>
<path fill="#fcef3c" d="m225 409c-2 0-2 3-3 3 0 2 0 5 2 6 2 0 2-3 3-6-1-1-1-2-2-3zm-17 19-1 1 3 5 2 3 2 1h1v-1l-4-5-2-4h-1zm32 0v2l-4 5-2 3h2l2-2 5-7-3-1zm19 9c-2 0-3 2-4 3l2 2c4 1 5-2 7-3 1-3-3-2-5-2zm-34 0s-1 0-1 1c1 0 2 1 3 1v-2c-1 1-2 0-2 0zm-3 0c-1 1-3 2-4 1-3 3-8 6-7 11h1c2-2 0-3 1-5 0 0 0-1 1 0 1 0 0 1 1 1 1-1 3-2 3-3-2-1-2-2 0-3 2 0 1 2 2 3 1-1 3-2 3-3s0-2-1-2zm-34 1c-1 0-3 1-4 2 0 1 1 2 2 3 2 1 6 1 9 1 0-2-2-4-3-5 0-1-2 1-2-1h-2zm42 1c0 1-2 1-2 3h4c1 0 2 0 1 1v1c-1 1 0 1 0 1 2 1 3 2 4 1-1-2-2-4-4-6-2 1-2-1-3-1zm-4 3c-2 0-3 1-4 1 0 2 2 1 2 3l2-2h1c0-2-1-2-1-2zm-7 3c0 2-3 1-2 3 2 3 3 0 5-1 1-1-2-1-2-2h-1zm11 1c-1 0-3 1-4 1 1 0 2 2 3 2s3-1 4-2c-1 0-2 0-2-1h-1zm-6 3c-1 1-3 1-3 3l3 2 3-3c0-1-2-1-3-2zm12 0c-2 0-3 2-4 2l2 2c1 0 2 0 2-1h2c1-2-1-2-1-3h-1zm-21 1c-1 0-2 0-2 1 1 1 0 3 2 3 0-1 2-1 2-3-1-1-1-1-2-1zm15 3c-1 0-2 1-4 1 0 2 2 2 3 3 1-1 3-2 3-3s-1-1-2-1zm11 1v1l1 1 9 3 1-3-5-1-5-1h-1zm-30 0c-1 1 1 3 1 4 1-1 1-1 1-2-1-1-1-2-2-2zm8 0c-1 0-2 0-2 1-1 2 1 2 1 3 3 0 2-2 4-3-1 0-2-1-3-1zm18 1c-1 1-2 1-3 1 0 2-3 1-2 2 1 0 2 2 3 2 0-2 3-3 2-5zm-29 1h-2l-2 1h-1v1h-2l-3 1 1 2 10-3 1-2h-1-1zm16 1c-1 1-2 2-2 3 1 2 3 0 4-1 0-1-1-1-2-2zm-9 1c-1 0-1 1-1 1-1 2 1 1 1 2s2 1 2 0c1 0 1-1 0-1s-1-2-2-2zm15 2h-1c0 1-2 1-1 3 2 3 4-2 6-2-2 0-3-1-4-1zm-10 2c-1 0-2 0-2 1 2 1 3 2 4 1 1-2-2-1-2-2zm4 5-1 1v12h2v-10-2l-1-1zm22 9c-1 0-2 0-2 1 0 2 2 3 2 4s2 0 2 1c1 0 1 2 3 1 1-3-2-3-2-5-1-1-2-2-3-2zm-42 1c-3 1-6 3-6 7h2c3 0 5-3 5-5 1-1-1-2-1-2z"/>
</g>
</svg>