<?xml version="1.0" encoding="UTF-8" standalone="no"?>
<!DOCTYPE svg PUBLIC "-//W3C//DTD SVG 1.0//EN" "http://www.w3.org/TR/2001/REC-SVG-20010904/DTD/svg10.dtd">
<!-- Created with Inkscape (http://www.inkscape.org/) -->
<svg xmlns:svg="http://www.w3.org/2000/svg" xmlns="http://www.w3.org/2000/svg" version="1.0" width="1000" height="500" viewBox="0 0 500 250" id="svg2080" xml:space="preserve"><defs id="defs88"/><g transform="translate(0,-50)" id="g2082"><g id="flaggentuch"><rect width="500" height="125" x="0" y="50" id="oben" style="fill:#ffffff"/><rect width="500" height="125" x="0" y="175" id="unten" style="fill:#e10000"/></g><g transform="matrix(0.8333361,0,0,0.8333361,41.665975,49.999786)" id="g2087"><g id="g2089"><path d="M 185.16553,162.57959 L 185.16553,75 L 314.83447,75 L 314.83447,162.57959 C 314.83447,199.40186 289.63525,224.99951 250,224.99951 C 210.36475,224.99951 185.16553,199.42334 185.16553,162.57959 z" id="path2091"/></g><g id="g2093"><path d="M 186.22461,162.37256 L 186.22461,76.225586 L 313.7749,76.225586 L 313.7749,162.37256 C 313.7749,198.59521 288.98779,223.7749 250,223.7749 C 211.0127,223.7749 186.22461,198.61475 186.22461,162.37256 z" id="path2095" style="fill:#1b83b7"/></g><path d="M 248.18359,95.936035 C 247.7915,96.885254 247.66748,97.524902 246.55322,97.586914 C 246.05762,97.565918 244.94336,97.318848 244.57178,97.009277 C 243.74609,97.339355 243.43652,97.442383 242.52832,97.380859 C 242.38379,96.039063 242.52832,95.708984 243.49854,94.821289 L 243.37451,94.470215 C 243.66357,93.913086 243.66357,93.458984 244.26221,93.025879 L 245.33545,92.757324 C 245.78955,94.883301 246.18164,95.172363 248.18359,95.936035 z" id="path2097"/><path d="M 261.45459,95.172363 C 261.95068,94.367188 262.46631,93.727539 263.25049,93.17041 C 263.91162,92.77832 264.48877,92.592285 265.25244,92.530274 L 266.11963,92.55127 L 266.82178,94.222656 C 266.11963,94.367188 265.58252,94.408692 265.06689,94.883301 C 263.84912,96.121582 263.58057,96.699219 262.01221,97.215332 L 261.0835,95.894531 L 261.45459,95.172363 z" id="path2099"/><path d="M 250.78467,156.09912 C 249.69043,155.66553 248.59619,155.12842 247.42041,154.96436 C 238.27686,152.38428 230.9292,158.26514 224.69629,164.72607 C 222.65283,166.50146 219.55713,166.50146 216.89453,166.10889 C 216.50244,169.20459 219.28857,173.3335 222.03369,174.1167 C 222.81787,174.46826 223.91211,174.15771 224.65479,174.63232 C 225.43897,176.81982 228.74121,178.30615 227.79199,181.05225 C 226.82227,184.74561 225.60449,188.31592 224.13916,191.76318 C 222.34326,195.49951 219.24756,191.84522 216.64697,192.13428 C 214.93408,193.10498 212.41602,191.72217 210.84717,193.10498 C 209.01025,193.89014 208.22607,195.89209 208.01953,197.50147 C 209.11377,196.48975 210.80615,196.05615 212.14746,196.59326 C 211.32178,197.89404 211.15723,199.4624 210.24902,200.72022 C 209.75342,202.64014 210.10449,204.95264 211.63184,206.16943 C 212.53955,204.2085 212.37451,203.19678 214.85107,203.98193 C 214.62402,206.68506 215.28467,209.26514 218.15332,210.38037 C 218.02979,209.63623 217.82324,208.79053 218.13281,207.98584 C 218.69043,206.12842 220.81592,207.69678 221.95117,206.64404 C 223.00391,205.19873 225.12988,206.16943 226.5127,205.55029 C 227.64746,206.33545 227.17285,208.04834 226.92529,209.07959 C 229.73193,208.17139 231.7959,206.37647 231.05322,203.03272 C 232.04395,202.16553 232.78662,200.84522 232.93115,199.37842 C 235.05713,198.32764 236.50195,198.45068 237.92578,200.45264 C 239.3291,198.98779 239.14355,196.3667 238.896,194.50928 C 240.75342,194.98389 241.14551,197.10889 241.68213,198.5542 C 243.53955,196.15967 243.06494,194.75537 243.25098,192.23779 C 246.03711,192.67139 247.58496,189.18311 250.20605,190.5874 C 250.28955,189.10107 249.69043,187.69678 248.43115,187.01709 C 250.04102,185.65381 251.42432,183.79639 251.11475,181.77295 C 249.5249,182.04248 247.64697,182.47607 246.16113,182.24951 C 241.88867,181.56787 240.7124,175.85107 243.02393,172.63037 C 244.98438,169.92725 248.90576,169.32764 252.2915,169.76123 C 252.51807,173.02295 254.04541,175.68506 255.3042,178.51318 C 255.92334,180.55615 254.64404,182.16553 254.00439,183.92139 C 255.55225,185.34522 257.30615,186.5835 259.47412,186.5835 C 261.31104,186.60303 262.56982,185.1792 263.82861,184.12646 C 265.23193,186.47998 268.18311,185.71631 269.81397,187.69678 C 272.49658,190.5874 271.46533,195.23193 270.96924,198.5542 C 270.10303,201.03076 267.27588,200.72021 265.19092,200.76318 C 264.01416,200.90576 264.36475,202.41357 263.18897,202.55811 C 261.5376,204.16748 260.60889,206.68506 261.49658,208.79053 C 262.28076,208.2124 263.22998,207.18115 264.36475,207.3667 C 264.30322,208.02686 263.97314,209.12061 264.48877,209.63623 C 263.97314,210.64795 263.70459,211.78272 263.82861,213.04248 C 264.1792,214.30225 264.48877,215.95264 265.89209,216.44873 C 265.70654,215.78662 265.89209,214.87842 266.24365,214.21826 C 266.84229,211.59717 269.58643,214.21826 270.8042,212.56787 C 271.46533,212.7749 271.89795,215.35303 273.67334,215.35303 C 273.32275,213.9917 274.25147,212.83545 275.15967,211.94873 C 277.43018,211.57764 279.55615,210.64795 279.69971,207.86279 C 278.95654,205.86084 281.68115,207.24365 282.07373,205.81787 C 283.2085,205.59131 283.68311,206.521 284.1792,207.38818 C 285.00439,206.95459 284.96338,205.59131 285.16943,204.64209 C 285.16943,203.07373 284.52979,201.66943 283.47705,200.59717 C 284.07568,199.50342 284.38525,198.40967 284.46729,197.1499 C 286.03662,196.59326 287.48096,197.50147 288.69873,197.81006 C 289.60693,195.64404 288.30615,193.31201 287.79053,191.41162 C 289.64795,190.66943 291.7124,191.41162 293.23975,192.23779 C 294.00342,189.57568 293.09522,187.09912 291.21631,185.34522 C 292.9292,183.73389 294.14697,181.96045 293.59033,179.68897 C 290.45264,181.09326 283.33252,183.25928 278.17236,177.06787 C 275.86084,173.37451 278.72998,169.45264 279.72119,165.94482 C 280.02979,165.2417 279.90674,164.3335 280.21631,163.63232 C 286.96533,164.3335 293.01221,161.93897 297.22314,156.92529 C 300.27686,153.35303 301.28857,148.4624 301.96924,143.71533 C 302.38232,142.88965 303.02197,142.02295 303.93018,141.73438 C 304.75537,141.50732 305.68506,141.81641 306.15967,142.64209 C 306.46924,143.81885 306.28272,144.9126 305.80908,146.02734 C 309.95752,146.02734 311.81397,141.03223 309.87451,137.97803 C 308.67725,136.12012 306.63428,134.79932 304.42627,134.79932 C 302.46436,134.79932 300.58643,135.5835 298.97705,136.59473 C 298.06885,135.27393 297.09912,134.09766 295.92236,132.83887 C 291.67041,127.26611 283.31201,124.12891 282.7749,116.94629 C 282.81689,113.80908 285.479,111.41504 287.83154,109.64014 C 293.4458,105.57422 300.66943,105.01709 305.64307,99.87793 C 307.56299,97.875977 308.43018,94.73877 307.25342,92.262207 C 305.64307,89.558594 302.42334,88.773926 299.32764,89.000977 C 297.80029,89.558594 295.57178,89.764649 295.2417,91.787598 C 295.2417,92.819336 295.65381,93.789551 296.5415,94.388184 C 297.01611,95.399414 296.4585,96.431153 295.71631,97.236328 C 289.23486,103.24219 278.13135,104.06787 275.98486,114.03662 C 275.2417,116.20361 268.80225,115.29541 269.81397,122.04443 C 270.84619,121.21875 271.89795,120.35205 273.30225,120.24902 C 276.33545,120.18701 277.38818,123.6543 278.95654,125.53223 C 283.31201,131.53809 290.47315,134.7168 294.31299,140.94971 C 295.53076,143.5918 295.1792,147.20361 294.271,149.7832 C 293.05322,153.16748 289.17334,156.18115 285.87061,156.92529 C 280.07178,158.18311 274.99365,155.39795 271.15576,151.33154 C 269.11182,149.08154 267.10986,146.43994 266.3667,143.55029 C 267.39893,143.5918 268.32764,144.08691 269.23584,144.08691 L 268.49268,142.12598 C 267.10986,138.2876 268.84424,133.62305 267.54346,129.57764 C 268.41064,129.88721 269.23584,130.36182 270.06104,130.67139 C 270.06104,126.35791 267.81201,123.09717 268.36963,117.09082 C 268.49268,115.60449 268.06006,114.51123 268.18311,113.25195 C 269.11182,113.56152 270.02002,113.8916 270.88721,113.99512 C 267.93506,109.99121 269.81397,103.88184 267.62549,99.650879 C 269.54541,97.483399 270.37158,94.305176 269.27686,91.601563 C 267.62549,90.837891 265.5415,91.354004 263.82861,91.601563 C 264.05518,86.565918 267.89404,84.997071 268.72022,81.777344 C 267.93506,81.385254 267.27588,80.910645 266.3667,80.972656 C 265.06689,80.848633 263.82861,81.509278 263.18897,82.603028 C 262.01221,82.562012 260.87744,82.334473 260.09326,83.346192 C 259.43213,83.820801 259.22607,84.729004 259.3501,85.430664 C 259.96924,85.554688 260.60889,85.822754 260.91846,86.379883 C 261.35205,87.123047 260.60889,87.865723 260.01025,88.216797 C 259.30811,88.526368 258.52393,88.464356 257.74072,88.299317 C 257.12061,87.989746 256.68701,87.288086 256.87256,86.503907 C 257.18311,85.719727 257.96729,85.678223 258.64795,85.430664 C 258.71045,84.894043 258.52393,84.336914 258.25635,83.861817 C 257.74072,82.891602 256.74951,82.458496 255.77881,82.334473 C 255.18115,81.199219 254.52002,79.672363 253.13721,79.321289 C 252.08545,80.146973 251.50732,81.240723 251.11475,82.416992 L 249.02979,83.511231 C 248.59619,84.027344 248.24561,84.894043 248.43115,85.678223 C 248.59619,85.719727 248.78223,85.822754 249.02979,85.822754 C 249.81397,85.905274 250.20605,86.648438 250.12402,87.432617 C 250.04102,87.907227 249.5249,88.216797 249.02979,88.381836 C 248.12158,88.650391 246.90381,88.773926 246.28467,87.865723 C 245.99609,87.246582 246.16113,86.503907 246.67676,86.132325 C 246.98633,85.719727 247.771,85.905274 247.771,85.286133 C 247.72949,84.522461 247.11035,83.634766 246.32617,83.20166 C 245.41797,82.891602 244.46875,82.891602 243.53955,83.20166 C 243.02393,82.107422 241.76465,81.240723 240.46436,81.240723 C 239.59766,81.199219 238.71045,81.509278 238.19434,82.107422 C 240.54736,84.171387 241.62012,86.916504 242.54883,89.59961 C 244.46875,94.140137 237.80225,93.004883 236.89404,96.266114 C 237.71973,97.793457 236.50195,99.403321 236.97656,100.97168 C 237.20361,102.14844 238.35938,102.93262 239.28809,103.40723 C 237.49268,104.10889 235.09863,103.88184 233.40576,103.01514 C 232.18799,102.31348 231.52783,101.0542 231.40381,99.836914 C 230.66113,100.146 229.83545,100.78613 229.48438,101.59082 C 229.09229,102.54053 229.00977,103.7168 229.36084,104.70752 C 234.43799,112.03467 241.9917,102.78809 248.24561,107.10156 C 247.95654,107.45264 247.81201,107.98926 247.37842,108.23682 C 244.55127,107.61768 240.75342,106.11084 238.11182,108.1543 C 237.49268,109.76416 238.23535,111.49805 239.10254,112.90137 C 241.14551,112.73633 244.11768,112.1167 245.68652,113.99512 C 245.99609,114.46973 246.28467,115.25391 245.99609,115.85254 C 245.25293,117.13232 243.95264,117.42139 242.63184,117.68945 C 238.27686,117.77197 234.70605,114.73779 230.14502,115.99707 C 229.25732,116.20361 228.41113,116.49219 227.60645,116.67822 C 221.86865,112.28223 214.02588,110.54834 209.15527,106.50293 L 207.4624,105.09961 C 207.15283,103.92334 208.72168,103.53076 209.01025,102.49902 C 209.27881,101.75586 209.01025,100.97168 208.37061,100.62109 C 208.22607,99.712891 208.3291,98.495118 207.79248,97.565918 C 207.27686,96.307618 206.01758,95.481934 204.7998,95.089844 C 204.96533,96.390137 205.2749,97.793457 204.53174,98.928711 C 204.01611,98.804688 203.66504,98.144532 202.96338,98.309571 C 201.10547,99.052247 203.14941,101.40527 201.47705,102.14844 C 200.3833,101.36377 201.35352,99.279297 199.82617,98.660157 C 197.90674,98.619141 195.86328,97.710938 194.1709,97.834473 C 193.65479,97.875977 191.73535,98.969727 191.46729,100.27002 L 193.77881,100.62109 C 194.43897,100.66211 195.34717,101.36377 194.95508,102.31348 C 195.42969,103.2832 196.60645,102.97363 197.34961,103.63428 C 197.84473,106.06934 194.68701,104.06787 194.08838,105.71875 C 194.25342,107.2876 192.25147,107.32861 191.90039,108.66992 C 191.38477,110.23877 191.57031,112.28223 192.66406,113.56152 L 194.04688,111.55957 C 194.52197,110.94043 195.34717,110.89941 195.96631,111.37402 C 197.12256,111.41504 197.53516,110.11475 198.44336,109.68164 C 198.91797,109.37207 199.66113,109.55762 199.90869,110.07373 C 200.25928,111.02295 199.00049,110.89941 198.56689,111.41504 C 198.44336,112.03467 198.13379,112.55029 198.56689,113.06641 C 198.73193,114.98584 196.33789,115.56348 195.14111,116.20361 C 196.3999,117.42139 198.13379,117.85449 199.90869,117.56592 C 201.00293,117.09082 202.28223,116.98779 203.10791,116.16211 C 204.05713,114.7583 202.32324,112.81885 203.70605,111.64209 C 204.3667,111.41504 204.96533,111.80762 205.35742,112.32324 C 205.83203,113.60303 204.53174,115.25391 204.53174,116.07959 C 204.53174,117.29736 204.96533,118.94824 204.92383,120.66162 C 204.61426,121.73486 203.89209,122.74609 202.92236,123.42725 C 202.92236,124.5625 206.65772,124.17041 207.27686,124.08789 C 208.28809,125.69727 206.96729,128.66943 210.41406,129.70166 C 210.68213,128.62842 210.41406,127.05957 211.4668,126.27539 C 212.14746,127.49316 211.59033,129.04102 211.63184,130.44434 C 212.84912,129.88721 213.94336,128.48389 214.72754,127.39014 C 215.11963,128.87598 213.86035,130.48584 214.85107,131.88916 C 214.02588,132.83887 212.7666,133.74658 211.63184,134.40723 C 213.2417,135.89356 218.29834,136.80127 219.28857,137.02832 C 214.54199,141.67236 209.58887,146.13037 203.97461,149.08154 C 201.35352,150.60889 199.82617,147.12109 197.16357,147.82275 C 196.21436,149.43262 194.1709,148.33887 192.82959,149.43262 C 191.15772,150.29883 190.12549,152.17725 190.20801,153.91162 C 191.11621,153.35303 192.08643,152.87842 193.18018,152.87842 C 193.7373,152.87842 194.68701,153.12647 194.25342,153.82959 C 194.99658,155.95459 196.70947,153.74561 197.90674,154.65381 C 198.25732,154.88037 197.90674,155.23193 197.7002,155.43897 C 196.25537,155.91357 194.37744,155.43897 193.18018,156.57373 C 192.99463,157.19287 192.95313,157.60498 193.07715,158.18311 C 192.35449,159.00928 191.85938,160.021 191.57031,161.11475 C 191.0752,163.15772 191.73535,165.01514 193.07715,166.62451 C 193.86133,165.67529 193.51074,163.92139 194.95508,162.62061 C 195.26465,162.18701 195.78076,162.45654 196.02832,162.76514 C 196.75098,163.15772 197.43213,162.68311 198.00977,162.31201 C 198.79395,161.23779 197.16357,159.36084 198.87647,158.92725 C 200.13574,159.36084 198.87647,160.57764 199.18604,161.54834 C 199.00049,162.68311 200.69287,162.62061 200.63086,163.71436 C 201.66309,165.84131 203.74756,167.28467 206.14209,167.28467 C 205.35742,165.88232 204.67627,164.49951 204.75879,162.76514 C 206.22412,161.40381 204.7998,159.66943 204.30469,158.32764 C 204.53174,158.01904 204.84131,157.52295 205.39844,157.66748 C 206.71973,157.8335 206.14209,159.36084 206.49268,160.14404 C 206.80225,160.8042 207.58643,161.23779 208.3291,161.23779 C 208.68018,162.146 208.22607,163.40576 208.06104,164.3335 C 209.19629,164.22998 210.18701,163.63232 210.9917,162.84717 C 212.29199,161.75342 212.45703,160.021 212.23047,158.49365 C 212.58105,156.92529 210.37256,157.23389 210.5376,155.78857 C 210.80615,155.43897 211.19824,155.12842 211.63184,155.12842 C 212.68408,155.31397 213.55127,156.05811 214.14941,156.88428 C 215.07813,158.10107 214.76904,159.83545 215.11963,161.17529 C 216.72949,159.83545 217.72022,158.14209 218.89648,156.57373 C 219.55713,158.57568 218.77295,160.57764 218.15332,162.31201 C 220.65088,161.27881 222.38477,158.57568 223.82959,156.38818 C 224.22168,157.13037 223.95313,158.26514 224.03564,159.05029 C 226.26465,158.18311 227.79199,156.14014 229.21631,154.40576 C 229.71143,155.23193 229.79395,156.30615 230.18604,157.13037 C 230.61963,153.12647 234.85059,151.31006 236.7085,148.13232 C 241.76465,149.7832 246.75928,152.38428 250.78467,156.09912 z" id="path2101"/><g id="g2103"><path d="M 206.90527,105.76025 C 206.74023,105.51221 206.63721,105.24365 206.63721,104.95508 C 206.63721,104.29492 206.82275,103.81982 207.29736,103.34521 C 207.77197,102.8501 208.57715,102.35449 208.24658,101.57031 C 208.16406,101.44678 207.62793,101.0957 207.62793,101.0957 C 207.52441,101.17822 207.44238,101.28125 207.31787,101.40527 C 205.70801,101.46729 205.00635,100.88916 203.97461,99.753906 L 204.13965,99.568359 C 203.85059,99.444336 203.58252,99.279297 203.23145,99.073242 C 202.81885,99.073242 202.94287,99.960449 202.94287,100.146 C 203.10791,101.98291 202.77734,102.31348 201.39453,103.11816 C 200.63086,102.45801 200.23877,102.02441 200.09424,100.97168 C 200.07373,100.74463 199.99121,99.444336 199.59912,99.444336 C 199.45459,99.444336 198.67041,99.279297 198.75293,99.423828 C 198.00977,100.45605 197.12256,101.32275 195.80127,101.52881 C 195.84277,101.71484 195.86328,101.92139 195.82227,102.14844 C 196.27637,102.35449 196.77148,102.43701 197.22559,102.60254 C 197.55566,102.76758 198.03027,102.8501 198.11328,103.18018 C 198.67041,105.30566 197.49365,105.67773 195.80127,105.76025 L 206.90527,105.76025 L 206.90527,105.76025 z" id="path2105" style="fill:#ea320b"/></g><path d="M 218.38037,120.84717 C 218.13281,120.22803 217.88525,119.62939 217.6377,119.03125 C 220.93994,119.09277 223.82959,118.65967 226.88379,117.23535 C 225.48047,116.30664 223.08643,114.73779 222.01318,114.20166 C 219,112.71533 215.8833,111.45654 212.91113,109.86719 C 211.40479,109.0625 210.00098,108.19531 208.63916,107.12207 C 208.37061,106.95703 208.10254,106.79199 207.87549,106.64746 L 194.76953,106.64746 C 194.70752,106.79199 194.625,106.93652 194.54248,107.08105 C 195.80127,107.7417 195.61572,109.08301 195.30615,110.28027 C 195.61572,110.32129 195.92529,110.40332 196.17285,110.54834 C 196.58594,110.42432 196.97803,109.86719 197.2666,109.55762 C 198.07178,108.75244 199.12451,108.40186 200.13574,109.10352 C 200.81689,109.66113 201.00293,110.50732 200.44531,111.25 C 200.09424,111.58057 199.70264,111.66309 199.28955,111.88965 C 199.10352,112.55029 199.37207,112.50928 199.37207,113.0249 C 200.4248,113.8916 201.41553,114.73779 201.53906,116.18262 C 201.86963,116.05908 202.17871,115.89404 202.42676,115.6875 C 202.81885,115.29541 202.42676,113.9541 202.38525,113.4585 C 202.28223,112.5708 202.42676,111.86914 203.0249,111.18848 C 203.89209,110.3418 205.21289,110.91992 205.91455,111.72461 C 206.67822,112.71533 206.05908,114.18066 205.66699,115.17139 C 205.52246,115.50146 205.33691,115.89404 205.35742,116.26562 C 205.41943,117.64844 205.77002,119.09277 205.729,120.51709 C 205.729,120.62012 205.70801,120.74414 205.6875,120.84717 L 218.38037,120.84717 L 218.38037,120.84717 z" id="path2107" style="fill:#eeecec"/><g id="g2109"><path d="M 215.63574,131.55908 L 222.79736,127.6582 C 220.91895,126.13086 219.72217,123.96387 218.75195,121.73486 L 205.39844,121.73486 C 205.08887,122.354 204.63477,122.95264 204.22266,123.34473 C 205.2334,123.59229 206.69873,123.34473 207.71045,123.2207 C 208.63916,124.87207 208.16406,127.51367 209.75342,128.5459 C 209.91846,126.70898 210.41406,126.08984 211.73535,124.99561 C 212.43652,126.44043 212.70508,127.18359 212.56055,128.79346 C 213.50977,127.78223 214.29395,126.64697 215.09912,125.49121 C 215.59424,127.6582 215.4502,128.31885 215.26416,130.44434 C 215.24365,130.79541 215.53223,131.33203 215.63574,131.55908 z" id="path2111" style="fill:#ea320b"/></g><g id="g2113"><path d="M 293.4458,105.76025 C 295.09619,105.05811 296.76807,104.41846 298.39893,103.67578 C 301.82568,102.18945 306.2417,99.671387 306.90283,95.626465 C 307.35693,92.530273 305.31299,90.507813 302.34131,89.950683 C 301.43311,89.764648 300.42139,89.723633 299.49268,89.785156 C 299.12158,89.90918 298.68799,90.033203 298.31689,90.156738 C 297.32568,90.466309 295.90186,90.92041 296.06689,92.241211 C 296.25244,93.355957 297.03662,93.458984 297.36768,94.326172 C 298.17236,97.153809 294.74561,99.155762 292.80615,100.39404 C 290.14307,102.02441 287.31592,103.32471 284.61182,104.83105 C 284.13721,105.12012 283.6626,105.42969 283.2085,105.76025 L 293.4458,105.76025 L 293.4458,105.76025 z" id="path2115" style="fill:#ea320b"/></g><path d="M 283.08447,120.84717 C 282.48682,119.62939 282.11475,118.39111 281.99072,116.96729 C 282.01123,115.35742 282.67236,113.82959 283.62158,112.52979 C 285.10693,110.63086 289.06982,107.22559 291.44385,106.64746 L 282.03271,106.64746 C 281.0415,107.43164 280.09229,108.31934 279.16357,109.16553 C 278.50342,109.76416 277.40869,111.93115 276.87256,113.99512 C 276.68701,114.65527 276.2124,115.15088 275.96436,115.35742 C 274.72607,116.26562 273.13721,116.5542 271.89795,117.52441 C 270.96924,118.26758 270.51514,119.29932 270.51514,120.51709 C 272.29053,119.09277 274.99365,119.11377 276.56299,120.84717 L 283.08447,120.84717 L 283.08447,120.84717 z" id="path2117" style="fill:#eeecec"/><g id="g2119"><path d="M 297.55322,135.95508 C 294.43604,131.78613 290.88623,128.99951 286.92334,125.63574 C 285.74756,124.5625 284.69482,123.42725 283.78662,122.12695 C 283.70361,121.98242 283.62158,121.85889 283.55908,121.73486 L 277.34717,121.73486 C 277.82178,122.354 278.25537,123.03516 278.64795,123.69531 C 279.76221,125.47021 281.20654,127.08057 282.71338,128.5459 C 285.35498,131.04297 288.32764,133.20996 290.96924,135.70752 C 291.05127,135.79004 291.13428,135.87256 291.21631,135.95508 L 297.55322,135.95508 z" id="path2121" style="fill:#ea320b"/></g><path d="M 299.55518,151.04248 C 300.38037,148.60693 300.81396,146.02734 301.20557,143.48828 C 301.78369,142.271 302.75439,141.05322 304.15771,140.86719 C 306.6958,140.64014 307.47998,142.99316 306.96436,145.05713 C 310.74072,143.24072 310.36963,138.94775 307.74854,136.82178 C 305.60205,135.45996 303.1665,135.1709 300.19482,136.82178 C 299.69971,137.09033 299.22412,137.37939 298.75049,137.66846 C 298.56396,137.37939 298.37842,137.09033 298.17236,136.82178 L 292.0835,136.82178 C 293.17725,137.97803 294.14697,139.21631 295.03467,140.57813 C 296.27295,143.50928 296.06689,146.81152 295.11768,149.7832 C 294.97314,150.2168 294.80811,150.63037 294.60107,151.04248 L 299.55518,151.04248 L 299.55518,151.04248 z" id="path2123" style="fill:#eeecec"/><path d="M 253.13721,167.01709 C 252.86865,168.06982 252.99268,168.93701 253.13721,170.03076 L 253.1792,170.17529 L 253.15771,170.17529 C 253.32275,171.43311 253.61182,172.61084 254.08643,173.84912 C 254.70557,175.33545 255.38721,176.77881 256.04736,178.24561 C 256.23291,178.84326 256.29541,179.44287 256.23291,180.06006 C 256.2124,180.22607 256.06787,180.68115 255.88232,181.21631 L 282.54834,181.21631 C 280.40186,180.39209 278.35889,178.98779 277.26416,177.10889 C 276.23291,175.0249 276.35693,173.02295 277.05811,170.83545 C 277.47119,169.53467 278.02881,168.29639 278.50342,167.01709 L 253.13721,167.01709 L 253.13721,167.01709 z" id="path2125" style="fill:#eeecec"/><path d="M 221.02246,167.01709 C 219.94922,167.14014 218.83447,167.09912 217.67871,167.01709 C 217.80273,169.12256 219.26807,171.47607 220.98145,172.69287 C 221.49707,173.06396 221.95117,173.24951 222.5498,173.45654 C 223.60254,173.64209 224.3042,173.53857 225.29492,174.09521 C 226.22363,176.38623 228.84473,177.5835 228.74121,180.39209 C 228.7002,180.65967 228.63818,180.92725 228.55566,181.21631 L 242.75537,181.21631 C 242.30176,180.70068 241.90918,180.08154 241.62012,179.3999 C 240.6709,176.90381 240.93945,174.03467 242.59033,171.88818 C 244.96387,169.01904 248.69971,168.64795 252.14697,168.95654 C 252.10498,168.25537 252.16748,167.63623 252.33252,167.01709 L 221.02246,167.01709 L 221.02246,167.01709 z" id="path2127" style="fill:#eeecec"/><g id="g2129"><path d="M 246.63574,151.9292 C 247.85352,152.69287 249.02979,153.54053 250.14453,154.46826 L 254.43799,158.30811 C 248.6582,156.05811 244.30322,154.05615 238.11182,155.97412 C 235.13965,157.02686 232.51855,158.7417 230.08301,160.74365 C 228.41113,162.146 226.78076,163.73584 225.23291,165.3042 C 224.84082,165.63428 224.42773,165.90186 224.03564,166.13037 L 252.62158,166.13037 C 252.64209,166.06787 252.6626,166.00537 252.68311,165.94482 C 253.5708,164.06592 255.01611,162.55811 256.52197,161.17529 C 258.06982,159.71045 259.55615,157.99756 261.00049,156.69678 C 261.45459,156.20264 262.26025,156.67725 261.5376,157.19287 C 261.14502,157.60498 257.88428,160.78467 257.47217,161.38232 C 255.96533,162.78662 254.37646,164.22998 253.46826,166.13037 L 278.8335,166.13037 C 278.87451,165.96436 278.93604,165.81982 278.97803,165.65576 C 279.20459,165.07764 279.10107,163.75537 279.88623,162.68311 C 282.79639,163.32178 286.59326,162.72412 289.37939,161.67139 C 292.66162,160.43311 295.6958,158.01904 297.61475,155.0874 C 298.2749,154.09717 298.81201,153.02295 299.22412,151.9292 L 294.12646,151.9292 C 292.59912,154.38623 290.01904,156.30615 287.41943,157.2749 C 283.39404,158.80225 279.2876,157.81201 275.48975,155.87256 C 273.79736,155.00537 272.12549,153.49951 270.68115,151.9292 L 246.63574,151.9292 L 246.63574,151.9292 z" id="path2131" style="fill:#ea320b"/></g><g id="g2133"><path d="M 195.9873,151.9292 C 195.73926,152.25928 195.42969,152.59131 195.0376,152.9624 C 195.16162,153.21045 195.20264,153.49951 195.12012,153.80811 C 195.28564,154.01514 195.28564,153.99365 195.55371,153.97217 C 196.11084,153.80811 196.62695,153.64404 197.20508,153.62256 C 198.00977,153.66357 198.54639,153.95264 198.85596,154.67529 C 198.85596,156.09912 197.78271,156.3667 196.62695,156.45068 C 195.71875,156.57373 194.68701,156.47021 193.88184,157.02686 C 193.7583,157.44092 193.82031,157.81201 193.90283,158.20459 C 195.34717,158.20459 195.76025,160.57764 195.82227,161.67139 C 196.62695,161.93896 196.44141,162.35303 197.41113,161.75342 C 197.49365,161.38232 197.37012,160.84521 197.30811,160.49561 C 197.14307,158.94678 197.7002,158.47217 198.91797,158.07959 C 199.72314,158.39014 200.25928,158.7417 200.25928,159.75146 C 200.03223,161.52686 199.53711,161.30029 200.71338,162.29053 C 202.03418,161.50732 203.06641,161.48584 204.51123,161.81592 C 204.51123,161.7749 204.53174,161.73389 204.55225,161.7124 C 204.8208,160.74365 203.78906,159.23584 203.41748,158.20459 C 203.9541,157.3999 204.49072,156.67725 205.56348,156.86279 C 206.51318,157.08936 206.98779,157.62646 207.11182,158.57568 C 207.23535,159.71045 207.0293,160.32959 208.53564,160.45459 C 208.74219,158.69873 210.26953,158.90576 211.4873,159.00928 C 211.38379,157.79053 211.42529,158.10107 210.41406,157.3374 C 209.19629,156.20264 209.73291,154.59326 211.36328,154.34521 C 212.70508,154.2417 214.06689,155.41748 214.81006,156.40771 C 215.4502,157.35693 215.63574,158.36865 215.69775,159.50537 C 216.95654,158.06006 218.0918,156.32568 219.22705,154.77881 C 219.80469,156.82178 220.25879,158.32764 219.61914,160.43311 C 221.33203,159.05029 222.73535,156.61475 223.93262,154.77881 C 224.40723,155.78857 224.86133,156.59326 224.86133,157.72998 C 226.65674,156.53272 227.97754,154.63428 229.36084,152.98193 C 229.62891,153.49951 229.95898,154.01514 230.18604,154.53076 C 230.64014,153.60107 231.36279,152.77686 232.08496,152.01318 C 232.10547,151.9917 232.14697,151.95068 232.16748,151.9292 L 195.9873,151.9292 L 195.9873,151.9292 z" id="path2135" style="fill:#ea320b"/></g><path d="M 265.56201,143.5918 C 262.32178,143.1582 258.9165,141.58936 256.17139,139.85596 C 255.01611,141.01172 253.71533,141.8374 252.229,142.53906 C 249.81396,143.5708 247.17236,144.08691 245.31494,146.00635 C 244.63379,145.73828 244.09717,145.51123 243.60205,144.93311 C 242.42529,143.6123 242.21875,141.61035 240.36133,140.9292 C 238.95801,141.81641 237.41016,142.35303 235.7793,142.62158 C 232.04395,143.1167 228.2666,142.31201 224.61377,143.48828 L 223.60254,143.83936 C 223.45801,141.11475 224.61377,139.05078 226.14111,136.82178 L 220.67139,136.82178 C 217.51367,139.85596 214.02588,143.22021 210.51709,145.84131 C 208.86621,147.03857 207.17383,148.19434 205.39844,149.20557 C 204.69678,149.59766 203.99561,150.05176 203.16943,150.2168 C 201.58057,150.48584 200.40381,149.49463 199.0625,148.83398 C 198.56689,148.62744 198.19531,148.50391 197.63818,148.54492 C 197.41113,148.875 197.10156,149.10205 196.75098,149.26758 C 196.77148,149.98975 196.70947,150.54639 196.50293,151.04248 L 233.05518,151.04248 C 234.27246,149.84521 235.44922,148.66895 236.35742,147.16211 C 239.43262,148.15283 242.40479,149.43262 245.19092,151.04248 L 269.9165,151.04248 C 268.2251,149.06104 266.96631,147.12109 266.55322,146.2749 C 266.14014,145.38721 265.83057,144.52051 265.56201,143.5918 z" id="path2137" style="fill:#eeecec"/><path d="M 219.76367,200.16357 C 220.91895,200.12256 220.93994,201.27881 220.34131,200.98975 C 218.71094,200.98975 217.39014,201.75342 216.46143,202.9917 C 217.90576,203.56982 218.46338,204.57959 219.12354,206.25146 C 220.3208,206.0874 221.02246,206.60303 221.68262,205.75732 C 222.57031,205.1792 223.396,204.2085 223.396,203.17725 C 223.396,202.16553 224.24219,201.91748 224.34521,202.64014 C 224.3042,203.75537 224.09766,204.29053 223.68506,204.90967 C 223.66406,204.95264 223.62305,204.99365 223.60254,205.03467 C 224.20068,204.99365 224.84082,205.01318 225.48047,204.97217 C 225.68701,204.97217 226.5332,204.82764 226.5127,204.57959 C 226.82227,202.90771 228.78271,202.53662 230.20703,202.72217 C 231.48633,201.5249 231.96094,200.6167 232.18799,198.84326 C 234.21094,197.85107 236.06836,197.33545 237.86426,199.13232 C 238.11182,198.5542 238.23535,197.89404 238.25635,197.2124 L 212.80811,197.2124 C 212.58105,197.66553 212.37451,198.14014 212.18896,198.61475 C 213.79883,198.65771 214.74805,201.79443 213.75732,202.95068 C 213.90186,202.97021 214.89258,203.21826 215.20215,203.23975 C 216.02783,201.75342 217.53467,200.43115 219.76367,200.16357 z" id="path2139" style="fill:#eeecec"/><path d="M 270.61865,209.18311 C 270.45361,207.98584 270.49463,207.15967 270.98975,206.0874 C 271.3208,205.13818 272.24951,205.75732 271.98096,206.0874 C 271.44385,206.97412 271.2583,207.75928 271.38232,208.60498 C 271.67139,208.35693 272.06396,208.19287 272.6001,208.19287 C 273.92139,208.2749 275.20068,209.82178 275.11768,211.14404 C 276.83154,210.79248 278.48193,210.25537 278.854,208.25342 C 278.93604,207.3042 278.35889,206.60303 279.59717,205.9624 C 280.1333,205.81787 281.90869,205.40576 280.95947,205.40576 L 280.38135,205.07568 C 280.1958,203.50732 280.50537,200.55615 282.58936,200.55615 C 283.18799,199.37842 283.49756,198.45068 283.6626,197.2124 L 271.98096,197.2124 C 271.98096,197.25342 271.98096,197.31592 271.96045,197.35693 C 271.85693,198.16162 271.79541,198.90381 271.36182,199.58545 C 270.10303,201.60889 267.74951,201.54639 265.604,201.54639 C 264.98486,201.56787 265.04639,201.79443 264.77783,202.24756 C 265.85107,203.25928 266.09912,204.41553 265.9751,205.69482 C 266.51123,205.55029 267.15186,205.46826 267.66748,205.32373 C 268.38916,205.22021 268.28662,206.35498 267.66748,206.31396 C 266.40869,206.23193 265.10791,206.93311 265.25244,209.28662 C 265.83057,208.95654 267.81201,211.63818 267.48193,212.21631 C 267.97705,212.46436 270.59814,212.7124 270.8042,211.28857 C 270.68115,210.50342 270.76318,209.88428 270.61865,209.18311 z" id="path2141" style="fill:#eeecec"/><g id="g2143"><path d="M 284.65381,196.32373 L 272.10498,196.32373 C 272.47607,193.55811 272.64111,190.56592 271.13525,188.13037 C 270.39209,187.01709 269.54541,186.2124 268.26611,185.71631 C 267.10986,185.28271 265.74854,185.09717 264.86084,184.16748 C 264.53076,183.79639 264.28271,183.34326 264.01416,182.9292 C 263.39502,183.46631 262.73486,184.02295 262.11572,184.56006 C 261.5376,185.03467 260.97998,185.44873 260.2583,185.67529 C 258.29736,186.1499 256.37744,184.91162 254.97412,183.71436 C 254.97412,183.71436 255.26318,182.95068 255.55225,182.10498 L 292.80615,182.10498 C 292.39307,183.19873 291.40283,184.47803 290.06104,185.34521 C 291.69189,186.89209 293.01221,188.60498 292.66162,191.06201 C 290.63916,190.05029 288.82275,190.15381 286.8208,190.91748 C 287.2749,192.52686 288.26514,194.61084 288.20361,196.32373 L 286.51123,196.32373 C 285.89209,196.20068 285.33447,196.20068 284.65381,196.32373 z" id="path2145" style="fill:#ea320b"/></g><g id="g2147"><path d="M 238.25635,196.32373 L 214.1084,196.32373 C 214.9751,195.62256 215.4292,194.83936 215.73877,193.62061 L 215.4292,193.29053 C 215.90381,193.24951 216.37842,193.16748 216.83252,192.94092 C 216.97705,192.89795 217.32813,192.96045 217.49316,192.98193 C 219.08252,193.33154 220.52734,194.34326 222.21973,194.23975 C 223.68506,194.03467 224.44824,193.04248 225.00586,191.74365 C 226.32666,188.60498 227.44141,185.38623 228.32861,182.10498 L 243.74609,182.10498 C 244.71631,182.78467 245.89258,183.15771 247.21338,183.11475 C 248.26611,183.11475 249.31885,182.88818 250.33057,182.72412 C 250.02051,184.68506 248.49316,185.90186 247.04834,187.11865 C 248.12158,187.75928 248.98877,188.21436 249.31885,189.47217 C 248.12158,189.36865 247.17236,189.86475 246.18164,190.48389 C 244.75732,191.32959 244.07617,191.51514 242.4873,191.35107 C 242.40479,192.87842 242.56982,194.81787 242.05371,196.32373 L 241.74414,196.32373 C 240.95996,194.40576 239.86621,193.97217 237.90527,193.33154 C 238.0293,194.22021 238.21484,195.27295 238.25635,196.32373 z" id="path2149" style="fill:#ea320b"/></g><g id="g2151"><path d="M 268.07959,105.76025 C 268.01807,104.91406 267.95654,104.06787 267.85303,103.22168 C 267.66748,101.87988 267.25439,100.76514 266.67627,99.547852 C 268.43115,97.483399 269.56592,94.986328 268.65771,92.220703 C 266.92432,91.643067 264.6958,92.282715 262.96143,92.571777 C 262.98193,92.220703 263.00342,91.890625 263.04443,91.560547 L 243.62207,91.560547 C 243.56055,91.973145 243.37451,92.40625 243.06494,92.819336 C 242.15723,93.810059 240.83594,94.26416 239.61816,94.780274 C 238.896,95.130859 238.11182,95.502442 237.76074,96.245606 C 238.21484,97.483399 237.76074,98.722168 237.65771,100.00195 C 237.63721,100.57959 237.80225,101.17822 238.17383,101.61182 C 238.75146,102.25146 239.59766,102.72607 240.40283,103.13916 C 241.5376,102.60254 242.67285,102.08643 243.80811,101.61182 C 245.33545,101.0542 247.85352,100.43506 248.98877,102.10693 C 249.69043,103.09766 249.77295,104.45996 249.44238,105.76025 L 268.07959,105.76025 L 268.07959,105.76025 z" id="path2153" style="fill:#ea320b"/></g><path d="M 267.62549,120.84717 C 267.50244,119.54688 267.48193,118.20557 267.58447,116.78125 C 267.62549,115.21289 267.35791,113.76807 267.48193,112.19971 C 268.07959,112.36475 268.69971,112.5708 269.29736,112.77734 C 269.09131,112.30273 268.92627,111.80762 268.78174,111.31152 C 268.36963,109.78467 268.24561,108.21631 268.14209,106.64746 L 249.15381,106.64746 C 248.78223,107.59668 248.2041,108.48438 247.54395,109.08301 C 246.67676,108.89746 245.78955,108.64941 244.92285,108.46387 C 242.8999,107.96875 240.65039,107.47314 238.77197,108.64941 C 238.35937,109.55762 239.08154,111.29102 239.53564,112.05518 C 241.97119,111.31152 247.35791,111.7041 246.8833,115.60449 C 245.54199,120.90918 237.12109,117.19434 234.0459,116.63672 C 231.56934,116.28613 229.81494,116.67822 227.75098,117.73096 C 224.92334,119.03125 221.97168,119.85645 218.85547,119.85645 C 218.97949,120.20752 219.12354,120.5376 219.26807,120.84717 L 267.62549,120.84717 L 267.62549,120.84717 z" id="path2155" style="fill:#eeecec"/><g id="g2157"><path d="M 267.17139,135.95508 C 267.19287,135.27393 267.23389,134.57227 267.25439,133.89111 C 267.25439,131.97168 266.8833,130.11426 266.55322,128.21533 C 267.39893,128.62842 268.32764,129.02051 269.19482,129.4126 C 269.09131,128.35986 268.84424,127.26611 268.59619,126.23389 C 268.20361,124.68604 267.89404,123.2002 267.7085,121.73486 L 219.66016,121.73486 C 220.7749,124.12891 222.05469,126.08984 224.3042,127.78223 C 219.84619,129.94922 216.95654,131.70361 213.11768,134.42773 C 214.45898,135.15039 215.9248,135.625 217.34863,135.95508 L 267.17139,135.95508 L 267.17139,135.95508 z" id="path2159" style="fill:#ea320b"/></g><path d="M 234.66504,141.94043 C 236.77002,141.73438 238.4624,141.15625 240.2583,140.0415 C 242.30176,140.74365 242.77588,142.02295 243.7666,143.79785 C 244.09717,144.37598 244.48926,144.78857 245.1084,145.05713 C 246.4292,143.75684 248.34863,143.1582 250.04102,142.53906 C 252.35303,141.71338 254.33447,140.61963 256.04736,138.86523 C 260.73291,141.58936 263.51904,142.62158 267.99756,143.03418 C 267.74951,142.41504 267.56396,141.81641 267.39893,141.17676 C 267.10986,139.75293 267.08936,138.2876 267.13037,136.82178 L 227.04932,136.82178 C 225.74902,138.55566 224.42773,140.5166 224.36621,142.72461 C 227.68896,141.58936 231.23877,142.16748 234.66504,141.94043 z" id="path2161" style="fill:#eeecec"/><path d="M 263.16846,90.651855 L 243.64307,90.651855 C 243.53955,89.888672 243.20947,89.104492 242.94141,88.319824 C 242.15723,86.111816 241.0835,83.923828 239.43262,82.19043 C 241.31055,81.612305 242.38379,82.726563 243.14795,84.171387 C 244.57178,83.717285 246.30518,83.325195 246.9248,85.07959 C 245.72803,85.678223 245.00537,86.586426 245.50049,88.051269 C 245.91309,88.938965 246.75928,89.352051 247.70898,89.372559 C 249.02979,89.372559 250.84619,88.877441 250.9292,87.308594 C 250.9292,86.132324 250.37158,85.286133 249.19482,85.038574 C 249.40137,83.799805 250.76416,83.51123 251.7749,82.995117 C 252.12646,81.963379 252.49756,80.993164 253.28174,80.25 C 254.23096,80.786621 254.74756,82.128418 255.26318,83.057129 C 256.48096,83.242676 257.43018,83.552246 257.80225,84.852539 C 256.93506,85.059082 256.23291,85.636719 256.04736,86.544922 C 255.94482,87.700684 256.48096,88.526367 257.47217,89.062988 C 258.97803,89.414063 260.58838,89.310547 261.51709,87.886719 C 262.34229,86.565918 261.43408,85.265625 260.13428,84.811524 C 260.46436,83.036621 262.28076,83.387207 263.60107,83.407715 C 264.61279,81.880371 265.99561,81.261231 267.74951,82.148926 C 267.29639,83.20166 266.53271,84.088867 265.83057,84.976563 C 264.2417,86.937012 263.51904,88.546875 263.16846,90.651855 z" id="path2163" style="fill:#e7d40e"/><path d="M 209.42334,195.76709 C 209.79492,194.55029 211.0127,194.07568 212.06494,193.53857 C 212.93213,193.31201 214.29395,193.146 214.85107,193.84717 C 214.62402,194.63232 214.14941,195.41748 213.36523,195.89209 C 212.14746,195.49951 210.5791,195.27295 209.42334,195.76709 z" id="path2165" style="fill:#e7d40e"/><path d="M 211.81738,199.62646 C 211.94141,199.3374 212.23047,199.37842 212.41602,199.50342 C 213.2002,200.16357 213.36523,201.15381 213.36523,202.16553 C 212.7666,203.03271 211.63184,203.63037 211.32178,204.72412 C 210.5791,203.19678 210.5376,200.94873 211.81738,199.62646 z" id="path2167" style="fill:#e7d40e"/><path d="M 228.14307,207.69678 C 228.78271,206.29248 226.12012,204.76514 227.95703,203.85889 C 228.61768,203.54834 229.40186,203.38232 230.08301,203.50732 C 230.66113,204.12646 230.18604,205.07568 230.08301,205.81787 C 229.79395,206.64404 228.88574,207.3042 228.14307,207.69678 z" id="path2169" style="fill:#e7d40e"/><path d="M 215.51172,205.19873 C 215.55322,204.64209 215.63574,204.04443 215.98633,203.63037 C 217.24561,203.85889 217.82324,205.07568 218.21582,206.12842 C 217.55518,206.82959 217.24561,207.77881 217.08057,208.79053 C 215.82129,207.98584 215.51172,206.60303 215.51172,205.19873 z" id="path2171" style="fill:#e7d40e"/><g id="g2173"><g id="g2175"><path d="M 281.12451,204.60107 C 281.00049,203.54834 281.20654,202.47607 281.8667,201.73193 C 282.30029,201.15381 283.00244,201.23584 283.39404,201.85693 C 284.46729,202.76318 284.46729,204.43506 284.07568,205.69482 C 283.16748,205.03467 282.03271,205.1167 281.12451,204.60107 z" id="path2177" style="fill:#e7d40e"/><path d="M 271.63037,210.21436 C 271.79541,209.73975 271.89795,208.95654 272.57959,208.99756 C 273.38428,208.99756 273.81787,209.78076 274.14795,210.38037 C 274.89111,211.78271 273.07471,212.60889 272.99268,213.9917 C 271.75342,213.22803 271.58838,211.65967 271.63037,210.21436 z" id="path2179" style="fill:#e7d40e"/><path d="M 264.75732,211.34912 C 264.88135,210.9585 264.96338,210.33936 265.35596,210.17334 C 266.01611,210.5249 266.3667,211.30811 266.67627,211.94873 C 266.05713,212.83545 265.5415,213.70264 265.27295,214.75537 C 264.59229,213.78467 264.59229,212.52686 264.75732,211.34912 z" id="path2181" style="fill:#e7d40e"/><path d="M 262.4458,204.80811 C 262.79639,204.04443 263.66357,203.38232 264.44775,203.03271 C 265.27295,203.73389 265.35596,205.1167 265.10791,206.21045 C 264.1792,206.521 262.96143,206.47998 262.09424,207.11865 C 261.66162,206.521 262.28076,205.55029 262.4458,204.80811 z" id="path2183" style="fill:#e7d40e"/></g></g><path d="M 192.95313,150.36084 C 193.77881,149.7832 194.95508,149.59766 195.96631,149.70068 C 196.09033,150.7749 195.30615,151.55811 194.64551,152.21826 C 193.61377,151.95068 192.25146,152.0542 191.30225,152.48779 C 191.42578,151.70264 192.16895,150.83545 192.95313,150.36084 z" id="path2185" style="fill:#e7d40e"/><path d="M 209.31982,162.84717 C 210.06299,161.7124 208.37061,160.14404 210.18701,159.71045 L 211.32178,159.79248 C 211.63184,161.23779 210.41406,162.271 209.31982,162.84717 z" id="path2187" style="fill:#e7d40e"/><path d="M 192.82959,160.021 C 193.18018,159.66943 193.61377,158.7417 194.08838,159.05029 C 194.68701,159.71045 194.95508,160.49561 194.99658,161.40381 C 193.96436,162.271 192.99463,163.28076 192.76758,164.66357 C 192.04492,163.36475 192.00391,161.27881 192.82959,160.021 z" id="path2189" style="fill:#e7d40e"/><path d="M 201.47705,162.76514 C 202.1377,162.31201 203.10791,162.31201 203.89209,162.49756 C 203.58252,163.88037 204.30469,165.15967 204.67627,166.31592 C 203.0459,165.71631 201.7041,164.54053 201.47705,162.76514 z" id="path2191" style="fill:#e7d40e"/><g id="g2193"><g id="g2195"><path d="M 196.8335,116.32715 C 197.90674,116.03857 198.79395,115.13037 199.49609,114.16016 C 200.09424,114.63477 200.69287,115.37793 200.75488,116.20361 C 199.70264,117.13232 197.96826,116.98779 196.8335,116.32715 z" id="path2197" style="fill:#e7d40e"/><path d="M 192.56104,109.28955 C 192.82959,108.54639 193.48975,108.07178 194.08838,107.76221 C 194.99658,108.07178 194.72803,109.28955 194.56299,109.99121 C 193.7373,110.32129 193.34522,111.2085 192.68506,111.80762 C 192.16895,111.14697 192.25146,110.07373 192.56104,109.28955 z" id="path2199" style="fill:#e7d40e"/><path d="M 194.52197,99.960449 L 192.68506,99.568359 C 193.7373,98.495117 195.47119,98.30957 196.91602,98.887207 C 197.16357,99.052246 197.61768,99.052246 197.78271,99.40332 C 197.34961,100.06348 196.44141,100.62109 195.61572,100.74463 L 194.52197,99.960449 z" id="path2201" style="fill:#e7d40e"/><path d="M 205.06885,99.753906 C 205.89404,98.928711 205.89404,97.834473 205.83203,96.699219 C 206.53369,96.926758 206.96729,97.710938 207.23535,98.412109 C 207.31787,99.052246 207.62793,100.06348 206.96729,100.62109 C 206.18311,100.66211 205.54297,100.27002 205.06885,99.753906 z" id="path2203" style="fill:#e7d40e"/></g></g><path d="M 243.37451,102.66406 C 244.81934,102.06543 247.06885,101.13672 248.28711,102.54053 C 248.59619,102.93262 248.94727,103.32471 248.78223,103.84082 C 247.11035,103.01514 245.33545,102.66406 243.37451,102.66406 z" id="path2205"/><g id="g2207"><path d="M 230.00049,104.00586 C 229.79395,102.97363 230.00049,101.87988 230.80566,101.28125 C 231.52783,103.53076 233.83936,104.54248 236.00635,104.70752 C 240.36133,104.50098 244.90186,102.54053 248.78223,105.01709 C 248.86475,105.40918 248.59619,105.57422 248.6377,105.92529 C 244.42773,104.00586 239.59766,105.92529 235.28418,106.79199 C 233.09668,106.89551 230.86719,106.06934 230.00049,104.00586 z" id="path2209" style="fill:#ea320b"/></g><path d="M 243.25098,96.616699 C 243.02393,95.66748 244.77832,95.522949 244.2417,94.532226 C 244.42773,94.26416 244.28271,93.789551 244.71631,93.748047 C 244.94336,95.006836 245.89258,95.956543 247.11035,96.390137 C 246.90381,97.174316 245.72803,96.575683 245.06689,96.390137 C 244.46875,95.791016 243.95264,96.699219 243.25098,96.616699 z" id="path2211"/><path d="M 262.01221,95.83252 C 262.69287,94.449707 263.97314,93.231934 265.58252,93.355957 L 265.70654,93.64502 C 264.13818,93.913086 263.70459,95.915039 262.32178,96.266113 L 262.01221,95.83252 z" id="path2213"/><polygon points="211.59033,95.874023 213.6543,91.354004 211.30176,86.751465 216.46143,86.730957 219.26807,82.148926 222.0752,86.978516 226.9458,86.999023 224.90234,91.354004 227.25537,95.956543 222.0957,95.956543 219.20605,100.70361 216.46143,95.853027 211.59033,95.874023 " id="polygon2215"/><polygon points="191.59082,140.26855 193.65479,135.74854 191.30225,131.14648 196.46191,131.12549 199.26904,126.54395 202.07617,131.37354 206.94678,131.39404 204.90332,135.74854 207.25635,140.35107 202.09619,140.35107 199.20703,145.09814 196.46191,140.24805 191.59082,140.26855 " id="polygon2217"/><polygon points="196.68896,183.77686 198.75293,179.25537 196.3999,174.65381 201.55957,174.63232 204.3667,170.05029 207.17383,174.88037 212.04443,174.90186 210.00098,179.25537 212.354,183.85889 207.19434,183.85889 204.30469,188.60498 201.55957,183.75537 196.68896,183.77686 " id="polygon2219"/><polygon points="240.40283,213.16553 242.4668,208.646 240.11426,204.04443 245.27393,204.02295 248.08057,199.44092 250.88818,204.271 255.7583,204.29053 253.71533,208.646 256.06787,213.24951 250.90869,213.24951 248.01855,217.99561 245.27393,213.146 240.40283,213.16553 " id="polygon2221"/><polygon points="291.38232,174.65381 293.4458,170.13428 291.09326,165.53076 296.25244,165.50928 299.06006,160.9292 301.8667,165.75732 306.73682,165.77881 304.69385,170.13428 307.04639,174.73584 301.88721,174.73584 298.99756,179.48389 296.25244,174.63232 291.38232,174.65381 " id="polygon2223"/><polygon points="273.09521,148.07031 275.15967,143.55029 272.80615,138.94775 277.96631,138.92725 280.77295,134.34521 283.58057,139.1748 288.45068,139.19531 286.40771,143.55029 288.76025,148.15283 283.60107,148.15283 280.71143,152.8999 277.96631,148.0498 273.09521,148.07031 " id="polygon2225"/><polygon points="292.00049,122.14746 294.06494,117.62744 291.7124,113.0249 296.87158,113.00439 299.67822,108.42236 302.48584,113.25195 307.35693,113.27295 305.31299,117.62744 307.6665,122.22998 302.50635,122.22998 299.6167,126.97705 296.87158,122.12695 292.00049,122.14746 " id="polygon2227"/><polygon points="274.49854,95.584961 276.56299,91.064941 274.21045,86.462402 279.36963,86.441895 282.17627,81.859863 284.98389,86.689453 289.85498,86.709961 287.81104,91.064941 290.16357,95.66748 285.00439,95.66748 282.11475,100.41455 279.36963,95.564453 274.49854,95.584961 " id="polygon2229"/><polygon points="214.54199,91.333496 212.58105,87.494629 216.91504,87.473633 219.26807,83.614258 221.62109,87.680176 225.74902,87.680176 224.01514,91.374512 225.97559,95.213379 221.66211,95.213379 219.22705,99.196777 216.91504,95.192871 212.7876,95.172363 214.54199,91.333496 " id="polygon2231" style="fill:#eeecec"/><polygon points="194.54248,135.72803 192.58154,131.88916 196.91602,131.86865 199.26904,128.00879 201.62158,132.0752 205.74951,132.0752 204.01611,135.76953 205.97656,139.6084 201.66309,139.6084 199.22754,143.5918 196.91602,139.5874 192.78809,139.56689 194.54248,135.72803 " id="polygon2233" style="fill:#eeecec"/><polygon points="199.64014,179.23584 197.67969,175.396 202.01367,175.37646 204.3667,171.51709 206.71973,175.58154 210.84717,175.58154 209.11377,179.27686 211.07422,183.11475 206.76074,183.11475 204.3252,187.09912 202.01367,183.09521 197.88623,183.07373 199.64014,179.23584 " id="polygon2235" style="fill:#eeecec"/><polygon points="243.354,208.62646 241.39355,204.78662 245.72803,204.76514 248.08057,200.90576 250.43408,204.97217 254.56201,204.97217 252.82764,208.66748 254.78857,212.50537 250.4751,212.50537 248.03906,216.48975 245.72803,212.48584 241.59961,212.46436 243.354,208.62646 " id="polygon2237" style="fill:#eeecec"/><polygon points="294.3335,170.11279 292.37256,166.2749 296.70654,166.25342 299.06006,162.39404 301.4126,166.46045 305.54053,166.46045 303.80615,170.15381 305.76709,173.99365 301.45361,173.99365 299.01807,177.97607 296.70654,173.97217 292.57861,173.95264 294.3335,170.11279 " id="polygon2239" style="fill:#eeecec"/><polygon points="276.04736,143.52979 274.08643,139.69092 278.42041,139.67041 280.77295,135.81055 283.12646,139.87646 287.25439,139.87646 285.52002,143.5708 287.48096,147.40967 283.16748,147.40967 280.73193,151.39404 278.42041,147.38916 274.29248,147.36865 276.04736,143.52979 " id="polygon2241" style="fill:#eeecec"/><polygon points="294.95264,117.60693 292.9917,113.76807 297.32568,113.74756 299.67822,109.8877 302.03174,113.9541 306.15967,113.9541 304.42627,117.64844 306.38623,121.4873 302.07275,121.4873 299.63721,125.47021 297.32568,121.46631 293.19775,121.4458 294.95264,117.60693 " id="polygon2243" style="fill:#eeecec"/><polygon points="277.45068,91.044434 275.48975,87.205078 279.82373,87.18457 282.17627,83.325195 284.52979,87.391113 288.65771,87.391113 286.92334,91.085938 288.88428,94.924316 284.5708,94.924316 282.13525,98.908203 279.82373,94.903809 275.6958,94.883301 277.45068,91.044434 " id="polygon2245" style="fill:#eeecec"/></g></g></svg>