<?xml version="1.0" encoding="UTF-8" standalone="no"?>
<!-- Creator: CorelDRAW -->
<svg xmlns:dc="http://purl.org/dc/elements/1.1/" xmlns:cc="http://creativecommons.org/ns#" xmlns:rdf="http://www.w3.org/1999/02/22-rdf-syntax-ns#" xmlns:svg="http://www.w3.org/2000/svg" xmlns="http://www.w3.org/2000/svg" xmlns:xlink="http://www.w3.org/1999/xlink" xmlns:sodipodi="http://sodipodi.sourceforge.net/DTD/sodipodi-0.dtd" xmlns:inkscape="http://www.inkscape.org/namespaces/inkscape" xml:space="preserve" width="660" height="440" style="clip-rule:evenodd;fill-rule:evenodd;image-rendering:optimizeQuality;shape-rendering:geometricPrecision;text-rendering:geometricPrecision" viewBox="0 0 209.29869 278.50929" id="svg2" sodipodi:version="0.32" inkscape:version="0.92.1 r15371" sodipodi:docname="Flag_of_Samara_Oblast.svg" version="1.0"><metadata id="metadata441"><rdf:RDF><cc:Work rdf:about=""><dc:format>image/svg+xml</dc:format><dc:type rdf:resource="http://purl.org/dc/dcmitype/StillImage"/><dc:title/></cc:Work></rdf:RDF></metadata><sodipodi:namedview inkscape:window-height="657" inkscape:window-width="1280" inkscape:pageshadow="2" inkscape:pageopacity="0.0" guidetolerance="10.0" gridtolerance="10.0" objecttolerance="10.0" borderopacity="1.0" bordercolor="#666666" pagecolor="#ffffff" id="base" inkscape:zoom="0.5" inkscape:cx="626.40515" inkscape:cy="26.472759" inkscape:window-x="-8" inkscape:window-y="-8" inkscape:current-layer="svg2" showgrid="false" inkscape:window-maximized="1"><sodipodi:guide position="0,0" orientation="0,662.21149" id="guide4927" inkscape:locked="false"/><sodipodi:guide position="210,0" orientation="-441.56516,0" id="guide4929" inkscape:locked="false"/><sodipodi:guide position="210,279.5" orientation="0,-662.21149" id="guide4931" inkscape:locked="false"/><sodipodi:guide position="0,279.5" orientation="441.56516,0" id="guide4933" inkscape:locked="false"/></sodipodi:namedview>
 <defs id="defs4">
  <style type="text/css" id="style6">
   
    .str0 {stroke:#1F1A17;stroke-width:0.0762}
    .str1 {stroke:#B07D36;stroke-width:0.6488;stroke-linecap:round;stroke-linejoin:round}
    .fil1 {fill:none}
    .fil11 {fill:#007CC3}
    .fil2 {fill:#0093DD}
    .fil7 {fill:#605D5C}
    .fil3 {fill:#75C5F0}
    .fil4 {fill:#8F5444}
    .fil0 {fill:#DA251D}
    .fil6 {fill:#DB214C}
    .fil5 {fill:#F8C300}
    .fil9 {fill:white}
    .fil14 {fill:#87C3DD}
    .fil8 {fill:#FBFDFD}
    .fil34 {fill:url(#id0)}
    .fil33 {fill:url(#id1)}
    .fil29 {fill:url(#id2)}
    .fil30 {fill:url(#id3)}
    .fil10 {fill:url(#id4)}
    .fil26 {fill:url(#id5)}
    .fil25 {fill:url(#id6)}
    .fil12 {fill:url(#id7)}
    .fil13 {fill:url(#id8)}
    .fil20 {fill:url(#id9)}
    .fil19 {fill:url(#id10)}
    .fil18 {fill:url(#id11)}
    .fil21 {fill:url(#id12)}
    .fil24 {fill:url(#id13)}
    .fil22 {fill:url(#id14)}
    .fil32 {fill:url(#id15)}
    .fil27 {fill:url(#id16)}
    .fil23 {fill:url(#id17)}
    .fil31 {fill:url(#id18)}
    .fil35 {fill:url(#id19)}
    .fil15 {fill:url(#id20)}
    .fil16 {fill:url(#id21)}
    .fil17 {fill:url(#id22)}
    .fil28 {fill:url(#id23)}
    .fil36 {fill:url(#id24)}
   
  </style>
  <linearGradient id="id0" gradientUnits="userSpaceOnUse" x1="103.008" y1="174.563" x2="106.535" y2="174.563">
   <stop offset="0" style="stop-color:#75C5F0" id="stop9"/>
   <stop offset="1" style="stop-color:#006194" id="stop11"/>
  </linearGradient>
  <linearGradient id="id1" gradientUnits="userSpaceOnUse" x1="104.742" y1="173.903" x2="105.544" y2="173.903">
   <stop offset="0" style="stop-color:#C38A13" id="stop14"/>
   <stop offset="0.658824" style="stop-color:#9C711B" id="stop16"/>
   <stop offset="1" style="stop-color:#AC6F1E" id="stop18"/>
  </linearGradient>
  <linearGradient id="id2" gradientUnits="userSpaceOnUse" x1="80.448799" y1="117.882" x2="81.6157" y2="117.882">
   <stop offset="0" style="stop-color:#DAAF4F" id="stop21"/>
   <stop offset="0.701961" style="stop-color:#F2AE6B" id="stop23"/>
   <stop offset="1" style="stop-color:#CA9900" id="stop25"/>
  </linearGradient>
  <linearGradient id="id3" gradientUnits="userSpaceOnUse" href="#id2" x1="80.033897" y1="117.11" x2="80.876602" y2="117.11">
  </linearGradient>
  <linearGradient id="id4" gradientUnits="userSpaceOnUse" x1="120.457" y1="120.1" x2="120.457" y2="121.15">
   <stop offset="0" style="stop-color:#183573" id="stop29"/>
   <stop offset="0.141176" style="stop-color:#183573" id="stop31"/>
   <stop offset="0.701961" style="stop-color:#0073A6" id="stop33"/>
   <stop offset="1" style="stop-color:#00427C" id="stop35"/>
  </linearGradient>
  <linearGradient id="id5" gradientUnits="userSpaceOnUse" href="#id0" x1="111.979" y1="174.563" x2="115.506" y2="174.563">
  </linearGradient>
  <linearGradient id="id6" gradientUnits="userSpaceOnUse" href="#id1" x1="112.97" y1="173.903" x2="113.772" y2="173.903">
  </linearGradient>
  <linearGradient id="id7" gradientUnits="userSpaceOnUse" href="#id2" x1="136.89799" y1="117.882" x2="138.065" y2="117.882">
  </linearGradient>
  <linearGradient id="id8" gradientUnits="userSpaceOnUse" href="#id2" x1="137.63699" y1="117.11" x2="138.48" y2="117.11">
  </linearGradient>
  <linearGradient id="id9" gradientUnits="userSpaceOnUse" x1="122.32" y1="169.729" x2="122.321" y2="169.729">
   <stop offset="0" style="stop-color:#005C8E" id="stop42"/>
   <stop offset="0" style="stop-color:#005C8E" id="stop44"/>
   <stop offset="0.231373" style="stop-color:#48B0E1" id="stop46"/>
   <stop offset="0.65098" style="stop-color:#40B5EB" id="stop48"/>
   <stop offset="1" style="stop-color:#006194" id="stop50"/>
  </linearGradient>
  <linearGradient id="id10" gradientUnits="userSpaceOnUse" href="#id9" x1="122.317" y1="169.73801" x2="122.321" y2="169.73801">
  </linearGradient>
  <linearGradient id="id11" gradientUnits="userSpaceOnUse" href="#id9" x1="122.318" y1="169.73801" x2="122.321" y2="169.73801">
  </linearGradient>
  <linearGradient id="id12" gradientUnits="userSpaceOnUse" href="#id9" x1="122.321" y1="169.72701" x2="122.321" y2="169.72701">
  </linearGradient>
  <linearGradient id="id13" gradientUnits="userSpaceOnUse" href="#id9" x1="122.326" y1="169.69099" x2="122.326" y2="169.69099">
  </linearGradient>
  <linearGradient id="id14" gradientUnits="userSpaceOnUse" href="#id9" x1="122.321" y1="169.726" x2="122.321" y2="169.726">
  </linearGradient>
  <linearGradient id="id15" gradientUnits="userSpaceOnUse" x1="81.181297" y1="162.976" x2="81.181297" y2="162.976">
   <stop offset="0" style="stop-color:#005C8E" id="stop58"/>
   <stop offset="0" style="stop-color:#005C8E" id="stop60"/>
   <stop offset="0.211765" style="stop-color:#48B0E1" id="stop62"/>
   <stop offset="0.45098" style="stop-color:#42B5EA" id="stop64"/>
   <stop offset="0.45098" style="stop-color:#40B5EB" id="stop66"/>
   <stop offset="1" style="stop-color:#006194" id="stop68"/>
  </linearGradient>
  <linearGradient id="id16" gradientUnits="userSpaceOnUse" x1="111.286" y1="169.933" x2="111.286" y2="169.933">
   <stop offset="0" style="stop-color:#439CD5" id="stop71"/>
   <stop offset="1" style="stop-color:#004873" id="stop73"/>
  </linearGradient>
  <linearGradient id="id17" gradientUnits="userSpaceOnUse" href="#id9" x1="122.324" y1="169.70799" x2="122.324" y2="169.70799">
  </linearGradient>
  <linearGradient id="id18" gradientUnits="userSpaceOnUse" href="#id15" x1="81.190201" y1="162.93401" x2="81.190201" y2="162.93401">
  </linearGradient>
  <linearGradient id="id19" gradientUnits="userSpaceOnUse" href="#id16" x1="107.228" y1="169.933" x2="107.228" y2="169.933">
  </linearGradient>
  <linearGradient id="id20" gradientUnits="userSpaceOnUse" href="#id15" x1="137.32401" y1="162.93401" x2="137.32401" y2="162.93401">
  </linearGradient>
  <linearGradient id="id21" gradientUnits="userSpaceOnUse" href="#id15" x1="137.332" y1="162.976" x2="137.332" y2="162.976">
  </linearGradient>
  <linearGradient id="id22" gradientUnits="userSpaceOnUse" href="#id9" x1="122.318" y1="169.74699" x2="122.318" y2="169.74699">
  </linearGradient>
  <linearGradient id="id23" gradientUnits="userSpaceOnUse" href="#id9" x1="123.583" y1="170.69299" x2="123.583" y2="170.69299">
  </linearGradient>
  <linearGradient id="id24" gradientUnits="userSpaceOnUse" href="#id9" x1="94.930298" y1="170.69299" x2="94.930298" y2="170.69299">
  </linearGradient>
 <linearGradient inkscape:collect="always" xlink:href="#id4" id="linearGradient2676" gradientUnits="userSpaceOnUse" x1="120.457" y1="120.1" x2="120.457" y2="121.15"/><linearGradient inkscape:collect="always" xlink:href="#id16" id="linearGradient2678" gradientUnits="userSpaceOnUse" x1="111.286" y1="169.933" x2="111.286" y2="169.933"/><linearGradient inkscape:collect="always" xlink:href="#id16" id="linearGradient2680" gradientUnits="userSpaceOnUse" x1="111.286" y1="169.933" x2="111.286" y2="169.933"/><linearGradient inkscape:collect="always" xlink:href="#id4" id="linearGradient2682" gradientUnits="userSpaceOnUse" x1="120.457" y1="120.1" x2="120.457" y2="121.15"/></defs>

<rect style="opacity:1;fill:#ffffff;fill-opacity:1;stroke:none;stroke-width:0.20008329;stroke-linecap:square;stroke-linejoin:round;stroke-miterlimit:4;stroke-dasharray:none;stroke-opacity:1" id="rect2278" width="419.5127" height="279.49991" x="-104.58157" y="-0.99061513"/><g transform="matrix(2.242827,0,0,2.2428269,-139.0391,-175.6993)" style="fill-rule:evenodd" id="Слой_x0020_1">
  <metadata id="CorelCorpID_0Corel-Layer"/>
  <g id="_127852504">
   <polygon id="_129505848" class="fil0 str0" points="15.4014,119.449 15.4014,77.9347 202.216,77.9347 202.216,119.449 " style="fill:#da251d;stroke:none;stroke-width:0.0762" transform="matrix(1.000408,0,0,0.99999999,0.111325,-0.03809598)"/>
   
   
   <polygon id="_129505848-0" class="fil0 str0" points="15.4014,119.449 15.4014,77.9347 202.216,77.9347 202.216,119.449 " style="clip-rule:evenodd;fill:#0093dd;fill-opacity:1;fill-rule:evenodd;stroke:none;stroke-width:0.0762;image-rendering:optimizeQuality;shape-rendering:geometricPrecision;text-rendering:geometricPrecision" transform="matrix(1.0004079,0,0,-1.0000002,0.11134522,280.45083)"/><g id="g89">
    <path id="_129504328" class="fil1" d="m 118.818,119.943 c -2e-4,2e-4 -4e-4,5e-4 -6e-4,8e-4" style="fill:none" inkscape:connector-curvature="0"/>
    <path id="_129503480" class="fil1" d="m 118.827,119.931 c 6e-4,-10e-4 0.001,-0.002 0.002,-0.003 3e-4,-4e-4 6e-4,-9e-4 0.001,-10e-4 -4e-4,5e-4 -7e-4,10e-4 -0.001,10e-4" style="fill:none" inkscape:connector-curvature="0"/>
    <path id="_129502880" class="fil3" d="m 118.824,119.935 c 8e-4,-0.001 0.002,-0.002 0.002,-0.004 -9e-4,0.001 -0.002,0.002 -0.002,0.004 z" style="fill:#75c5f0" inkscape:connector-curvature="0"/>
    <path id="_129502280" class="fil3" d="m 118.815,119.949 c 8e-4,-0.001 0.002,-0.002 0.002,-0.003 -7e-4,0.001 -10e-4,0.002 -0.002,0.003 z" style="fill:#75c5f0" inkscape:connector-curvature="0"/>
    <path id="_129501680" class="fil3" d="m 118.811,119.955 c 5e-4,-7e-4 10e-4,-0.001 10e-4,-0.002 -5e-4,8e-4 -10e-4,0.002 -10e-4,0.002 z" style="fill:#75c5f0" inkscape:connector-curvature="0"/>
    <path id="_129501080" class="fil3" d="m 118.81,119.956 c 2e-4,-3e-4 4e-4,-6e-4 6e-4,-9e-4 -2e-4,3e-4 -4e-4,6e-4 -6e-4,9e-4 z" style="fill:#75c5f0" inkscape:connector-curvature="0"/>
    <path id="_129500480" class="fil3" d="m 118.807,119.961 c 8e-4,-0.001 0.002,-0.002 0.002,-0.004 -7e-4,0.001 -10e-4,0.002 -0.002,0.004 z" style="fill:#75c5f0" inkscape:connector-curvature="0"/>
    <path id="_129499744" class="fil3" d="m 118.805,119.964 c 5e-4,-8e-4 10e-4,-0.001 0.002,-0.002 -6e-4,8e-4 -0.001,0.002 -0.002,0.002 z" style="fill:#75c5f0" inkscape:connector-curvature="0"/>
    <path id="_129499144" class="fil3" d="m 118.803,119.966 c 4e-4,-6e-4 8e-4,-10e-4 0.001,-0.002 -5e-4,6e-4 -9e-4,0.001 -0.001,0.002 z" style="fill:#75c5f0" inkscape:connector-curvature="0"/>
    <path id="_129498536" class="fil3" d="m 118.801,119.97 c 1e-4,-2e-4 3e-4,-5e-4 4e-4,-7e-4 -1e-4,2e-4 -3e-4,5e-4 -4e-4,7e-4 z" style="fill:#75c5f0" inkscape:connector-curvature="0"/>
    <path id="_129497936" class="fil3" d="m 121.457,120.353 c -2e-4,0 -3e-4,0 -5e-4,0 2e-4,0 3e-4,0 5e-4,0 z" style="fill:#75c5f0" inkscape:connector-curvature="0"/>
    <path id="_129497336" class="fil3" d="m 121.549,120.342 c -0.0295,0.004 -0.0599,0.007 -0.0911,0.0108 0.0312,-0.004 0.0616,-0.007 0.0911,-0.0108 z" style="fill:#75c5f0" inkscape:connector-curvature="0"/>
    <path id="_129496736" class="fil3" d="m 121.594,120.337 c -0.014,0.002 -0.0282,0.004 -0.0426,0.006 0.0145,-0.002 0.0286,-0.004 0.0426,-0.006 z" style="fill:#75c5f0" inkscape:connector-curvature="0"/>
    <path id="_129496136" class="fil3" d="m 121.634,120.331 c -0.0133,0.002 -0.0267,0.004 -0.0405,0.006 0.0137,-0.002 0.0272,-0.004 0.0405,-0.006 z" style="fill:#75c5f0" inkscape:connector-curvature="0"/>
    <path id="_129495536" class="fil3" d="m 121.676,120.325 c -0.0121,0.002 -0.0244,0.004 -0.037,0.005 0.0126,-0.002 0.0249,-0.004 0.037,-0.005 z" style="fill:#75c5f0" inkscape:connector-curvature="0"/>
    <path id="_129494936" class="fil3" d="m 121.716,120.319 c -0.0122,0.002 -0.0246,0.004 -0.0373,0.006 0.0127,-0.002 0.0251,-0.004 0.0373,-0.006 z" style="fill:#75c5f0" inkscape:connector-curvature="0"/>
    <path id="_129494336" class="fil3" d="m 121.789,120.307 c -0.0227,0.004 -0.0465,0.008 -0.0714,0.0119 0.0249,-0.004 0.0487,-0.008 0.0714,-0.0119 z" style="fill:#75c5f0" inkscape:connector-curvature="0"/>
    <path id="_129493600" class="fil3" d="m 121.823,120.3 c -0.01,0.002 -0.0198,0.004 -0.03,0.005 0.0102,-0.002 0.0202,-0.004 0.03,-0.005 z" style="fill:#75c5f0" inkscape:connector-curvature="0"/>
    <path id="_129492896" class="fil3" d="m 121.854,120.295 c -0.008,0.002 -0.0169,0.003 -0.0257,0.005 0.009,-0.002 0.0174,-0.003 0.0257,-0.005 z" style="fill:#75c5f0" inkscape:connector-curvature="0"/>
    <path id="_129492296" class="fil3" d="m 121.886,120.289 c -0.007,0.001 -0.0139,0.003 -0.021,0.004 0.007,-0.001 0.0142,-0.003 0.021,-0.004 z" style="fill:#75c5f0" inkscape:connector-curvature="0"/>
    <path id="_129491712" class="fil3" d="m 121.915,120.283 c -0.008,0.002 -0.0154,0.003 -0.0235,0.005 0.008,-0.002 0.0159,-0.003 0.0235,-0.005 z" style="fill:#75c5f0" inkscape:connector-curvature="0"/>
    <path id="_129487128" class="fil3" d="m 121.94,120.278 c -0.006,10e-4 -0.0125,0.003 -0.0189,0.004 0.006,-10e-4 0.0128,-0.003 0.0189,-0.004 z" style="fill:#75c5f0" inkscape:connector-curvature="0"/>
    <path id="_129486744" class="fil3" d="m 121.967,120.272 c -0.006,10e-4 -0.0122,0.002 -0.0185,0.004 0.006,-10e-4 0.0125,-0.003 0.0185,-0.004 z" style="fill:#75c5f0" inkscape:connector-curvature="0"/>
    <path id="_129486144" class="fil3" d="m 122.01,120.263 c -0.0124,0.003 -0.026,0.006 -0.0409,0.009 0.0149,-0.003 0.0285,-0.006 0.0409,-0.009 z" style="fill:#75c5f0" inkscape:connector-curvature="0"/>
    <path id="_129488328" class="fil3" d="m 122.046,120.254 c -0.003,7e-4 -0.006,10e-4 -0.009,0.002 0.003,-7e-4 0.006,-0.001 0.009,-0.002 z" style="fill:#75c5f0" inkscape:connector-curvature="0"/>
    <path id="_129487744" class="fil3" d="m 122.088,120.244 c -0.008,0.002 -0.0216,0.006 -0.041,0.0103 0.0193,-0.005 0.0332,-0.008 0.041,-0.0103 z" style="fill:#75c5f0" inkscape:connector-curvature="0"/>
    <path id="_129490672" class="fil3" d="m 122.089,120.243 c -3e-4,1e-4 -4e-4,1e-4 -7e-4,2e-4 3e-4,-1e-4 4e-4,-1e-4 7e-4,-2e-4 z" style="fill:#75c5f0" inkscape:connector-curvature="0"/>
    <path id="_129490152" class="fil3" d="m 122.095,120.242 c -6e-4,2e-4 -0.003,7e-4 -0.006,0.002 0.004,-9e-4 0.006,-0.002 0.006,-0.002 z" style="fill:#75c5f0" inkscape:connector-curvature="0"/>
    <path id="_129485784" class="fil4" d="m 121.686,107.104 c 0,0 -0.0696,-0.3558 -0.9746,-0.6469 v 0 l -0.4874,-0.6147 -1.7403,-0.7117 v 0 c 0,0 -0.2784,-0.4529 -1.5315,-0.8734 0,0 -1.2531,-0.1942 -2.5757,-0.5177 0,0 -1.3154,-0.6518 -2.7418,0.7593 -0.0111,0.0263 -0.0223,0.0524 -0.0343,0.0781 0.0975,0.094 0.1355,0.3688 -0.2005,0.3504 -0.4488,0.6523 -1.2117,1.0816 -2.0776,1.0816 -0.927,0 -1.7357,-0.4919 -2.1675,-1.223 -0.014,-0.005 -0.021,-0.004 -0.019,0.006 v 0 l -0.007,-9e-4 v 0 c 0,0 0.003,0.004 0.008,0.01 v 0 0 0 c -0.003,-0.003 -0.005,-0.006 -0.008,-0.01 -1.5315,-1.8116 -3.0283,-1.0676 -3.0283,-1.0676 -1.3226,0.3236 -2.5757,0.5176 -2.5757,0.5176 -1.253,0.4205 -1.5315,0.8735 -1.5315,0.8735 v 0 l -1.7403,0.7117 -0.4874,0.6146 v 0 c -0.905,0.2913 -0.9745,0.6471 -0.9745,0.6471 -3.076,2.3258 -2.206,4.2395 -2.206,4.2395 0.4525,1.4233 0.9529,2.0687 0.9529,2.0687 -0.383,0.0647 -0.5221,0.2588 -0.5221,0.2588 0.4872,0.6793 1.0442,0.8734 1.0442,0.8734 0.3828,1.0676 1.0443,1.2294 1.0443,1.2294 0.4872,1.1969 1.8447,1.3585 1.8447,1.3585 0,0.6147 0.3482,0.9059 0.3482,0.9059 0.1391,1.2617 0.4176,1.844 0.4176,1.844 0.5222,0.7441 0.4525,1.1322 0.4525,1.1322 0.4176,0.5176 0.4176,0.2912 0.4176,0.2912 6.1823,-1.6028 8.3795,-1.3965 8.6397,-1.3626 v 0 0.02 0 c 0,0 2.0535,-0.3559 8.667,1.3588 0,0 0,0.2265 0.4177,-0.2913 0,0 -0.0695,-0.3881 0.4526,-1.1322 0,0 0.2784,-0.5823 0.4177,-1.8439 0,0 0.348,-0.2911 0.348,-0.9058 0,0 1.3574,-0.1618 1.8449,-1.3587 0,0 0.6612,-0.1618 1.0442,-1.2293 0,0 0.5569,-0.194 1.0441,-0.8735 0,0 -0.1393,-0.194 -0.5221,-0.2587 0,0 0.361,-0.1396 0.8135,-1.5631 0,0 1.2757,-1.9715 -2.0666,-4.7452 v 0 0 z m -10.2722,-2.1971 c -10e-5,0.0239 -6e-4,0.0309 -6e-4,8e-4 3e-4,-3e-4 4e-4,-5e-4 6e-4,-8e-4 z" style="fill:#8f5444" inkscape:connector-curvature="0"/>
    <path id="_129484240" class="fil5" d="m 102.662,109.896 c -0.2579,-0.0186 -0.9423,-0.0848 -1.8839,-0.3022 0.2038,0.6684 0.4164,1.1731 0.5517,1.4662 0.0234,0.0103 0.0463,0.0188 0.0695,0.0286 0.1679,0.0266 0.3287,0.049 0.481,0.0682 -0.108,0.4125 -0.3154,1.017 -0.6579,1.4075 0.1417,0.002 0.2781,0.0262 0.4042,0.0694 0.4823,-0.4643 0.595,-0.9195 0.595,-0.9195 v 0 0 c 0.4177,0.0809 0.3655,0.2266 0.3655,0.2266 -0.0847,0.262 -0.4434,0.7363 -0.5765,0.907 0.0776,0.0638 0.1465,0.1368 0.2045,0.2169 0.126,-0.1117 0.6484,-0.6065 1.0428,-1.4492 -0.2436,-0.1747 -0.5233,-0.3098 -0.8263,-0.3997 0.4161,0.0365 0.7303,0.0454 0.9071,0.0467 -0.2422,-0.4158 -0.4746,-0.8731 -0.6767,-1.3665 z" style="fill:#f8c300" inkscape:connector-curvature="0"/>
    <path id="_129483576" class="fil5" d="m 100.258,105.455 c 0.7262,0.3364 1.3815,0.5198 1.7404,0.6042 0.0343,-0.5083 0.1192,-1.0311 0.2668,-1.566 -1.1753,0.3623 -1.7716,0.7693 -2.0072,0.9618 z" style="fill:#f8c300" inkscape:connector-curvature="0"/>
    <path id="_129482888" class="fil5" d="m 101.983,106.379 c -0.6203,-0.1535 -1.1372,-0.2942 -1.7647,-0.5779 -0.005,0.6245 0.039,1.2166 0.1144,1.7655 0.7433,0.2395 1.4289,0.4 1.7806,0.476 -0.0967,-0.5308 -0.1456,-1.0869 -0.1303,-1.6636 z" style="fill:#f8c300" inkscape:connector-curvature="0"/>
    <path id="_129482504" class="fil5" d="m 98.8069,110.387 0.4311,0.1914 c 0.5016,0.1592 0.984,0.2824 1.4326,0.3763 0.0894,-9e-4 0.169,-0.004 0.2334,-0.007 -0.1474,-0.3438 -0.3371,-0.837 -0.5143,-1.4496 -0.6418,-0.1654 -1.3781,-0.3979 -2.1668,-0.7247 v 0 0 c 0.1701,0.5687 0.3806,1.1251 0.584,1.6132 z" style="fill:#f8c300" inkscape:connector-curvature="0"/>
    <path id="_129481784" class="fil5" d="m 95.9977,109.031 c 0.7859,0.5316 1.5987,0.9374 2.3874,1.2461 -0.2084,-0.5167 -0.4166,-1.0965 -0.5764,-1.6823 -0.4125,-0.1846 -1.0539,-0.5068 -1.4835,-0.7467 -0.2453,0.2155 -0.3878,0.4118 -0.5799,0.6379 0.0344,0.1353 0.2128,0.4111 0.2524,0.545 z" style="fill:#f8c300" inkscape:connector-curvature="0"/>
    <path id="_129481096" class="fil5" d="m 97.7115,112.776 c 0.1636,0.2695 0.3091,0.495 0.4239,0.6674 0.1418,-0.003 0.2226,-0.0149 0.2226,-0.0149 -0.0058,-0.1573 -0.0051,-0.3 3e-4,-0.4316 -0.2117,-0.0646 -0.4277,-0.1375 -0.6468,-0.2209 z" style="fill:#f8c300" inkscape:connector-curvature="0"/>
    <path id="_129480408" class="fil5" d="m 100.387,107.928 c 0.0787,0.4731 0.1785,0.9085 0.2855,1.3001 0.8561,0.2093 1.5172,0.2956 1.8579,0.3296 -0.1368,-0.3718 -0.2551,-0.7618 -0.3465,-1.1681 -0.2671,-0.054 -0.9832,-0.2086 -1.7969,-0.4616 z" style="fill:#f8c300" inkscape:connector-curvature="0"/>
    <path id="_129479744" class="fil5" d="m 97.7058,108.186 c -0.0989,-0.4288 -0.1651,-0.8528 -0.1808,-1.2497 -0.4944,0.36 -0.7097,0.6007 -0.8026,0.7465 0.3315,0.1849 0.6603,0.3525 0.9834,0.5032 z" style="fill:#f8c300" inkscape:connector-curvature="0"/>
    <path id="_129478920" class="fil5" d="m 96.9077,112.06 c -0.4335,-0.8031 -0.8937,-1.79 -1.2126,-2.8328 -0.0592,-0.0408 -0.2941,-0.2116 -0.3529,-0.2539 -0.417,0.5843 -0.4835,1.2324 -0.584,1.4707 0.6636,0.7065 1.4052,1.2303 2.1495,1.616 z" style="fill:#f8c300" inkscape:connector-curvature="0"/>
    <path id="_129478232" class="fil5" d="m 98.1091,108.367 c 0.7856,0.3399 1.5272,0.5851 2.1796,0.7619 -0.1037,-0.4011 -0.1983,-0.8437 -0.2714,-1.3206 -0.7689,-0.26 -1.5754,-0.6032 -2.1476,-1.0288 0.0025,0.4895 0.0962,1.0362 0.2394,1.5875 z" style="fill:#f8c300" inkscape:connector-curvature="0"/>
    <path id="_129477512" class="fil5" d="m 99.9664,107.444 c -0.0703,-0.564 -0.1072,-1.1702 -0.0932,-1.8074 -0.0144,-0.007 -0.0294,-0.0153 -0.044,-0.0227 -1.2348,0.2302 -1.7149,0.9245 -1.7149,0.9245 -0.0017,0.001 -0.0034,0.002 -0.0051,0.003 0.4927,0.361 1.1779,0.6635 1.8572,0.9023 v 0 0 z" style="fill:#f8c300" inkscape:connector-curvature="0"/>
    <path id="_129476792" class="fil5" d="m 98.3848,112.666 c 0.1002,-0.7904 0.4179,-1.0031 0.5902,-1.0601 -0.118,-0.2432 -0.2642,-0.5564 -0.418,-0.9148 -0.786,-0.2862 -1.6025,-0.6645 -2.4004,-1.1619 0.3615,1.0526 0.8519,2.0288 1.2822,2.7834 0.3208,0.1402 0.6379,0.2564 0.946,0.3534 z" style="fill:#f8c300" inkscape:connector-curvature="0"/>
    <path id="_129476072" class="fil5" d="m 115.745,109.896 c 0.2578,-0.0186 0.9423,-0.0848 1.8838,-0.3022 -0.2037,0.6684 -0.4163,1.1731 -0.5516,1.4662 -0.0235,0.0103 -0.0463,0.0188 -0.0695,0.0286 -0.9307,0.1477 -1.6367,0.1717 -1.9395,0.1739 0.2423,-0.4158 0.4746,-0.8731 0.6768,-1.3665 z" style="fill:#f8c300" inkscape:connector-curvature="0"/>
    <path id="_129475408" class="fil5" d="m 118.149,105.455 c -0.7261,0.3364 -1.3815,0.5198 -1.7402,0.6042 -0.0344,-0.5083 -0.1193,-1.0311 -0.2667,-1.566 1.1753,0.3623 1.7714,0.7693 2.0069,0.9618 z" style="fill:#f8c300" inkscape:connector-curvature="0"/>
    <path id="_129474720" class="fil5" d="m 116.424,106.379 c 0.6202,-0.1535 1.137,-0.2942 1.7645,-0.5779 0.005,0.6245 -0.0391,1.2166 -0.1144,1.7655 -0.7432,0.2395 -1.4289,0.4 -1.7806,0.476 0.0967,-0.5308 0.1457,-1.0869 0.1305,-1.6636 z" style="fill:#f8c300" inkscape:connector-curvature="0"/>
    <path id="_129474336" class="fil5" d="m 119.6,110.387 -0.4312,0.1914 c -0.5015,0.1592 -0.984,0.2824 -1.4325,0.3763 -0.0895,-9e-4 -0.169,-0.004 -0.2333,-0.007 0.1473,-0.3438 0.3369,-0.837 0.5144,-1.4496 0.6415,-0.1654 1.3779,-0.3979 2.1667,-0.7247 v 0 0 c -0.1702,0.5687 -0.3807,1.1251 -0.5841,1.6132 z" style="fill:#f8c300" inkscape:connector-curvature="0"/>
    <path id="_129473616" class="fil5" d="m 122.593,108.95 c -0.7861,0.5317 -1.7832,1.0185 -2.5718,1.3272 0.2082,-0.5167 0.4165,-1.0965 0.5764,-1.6823 0.4125,-0.1846 0.8366,-0.396 1.2662,-0.6359 0.6711,0.0632 0.4629,0.4419 0.655,0.6679 0.1321,0.1491 0.1135,0.1891 0.0742,0.3231 z" style="fill:#f8c300" inkscape:connector-curvature="0"/>
    <path id="_129472928" class="fil5" d="m 120.695,112.776 c -0.1634,0.2695 -0.309,0.495 -0.4239,0.6674 -0.1417,-0.003 -0.2224,-0.0149 -0.2224,-0.0149 0.006,-0.1573 0.005,-0.3 -4e-4,-0.4316 0.2117,-0.0646 0.4278,-0.1375 0.6467,-0.2209 z" style="fill:#f8c300" inkscape:connector-curvature="0"/>
    <path id="_129472104" class="fil5" d="m 118.019,107.928 c -0.0789,0.4731 -0.1786,0.9085 -0.2857,1.3001 -0.856,0.2093 -1.5171,0.2956 -1.8578,0.3296 0.1368,-0.3718 0.2551,-0.7618 0.3465,-1.1681 0.2671,-0.054 0.9831,-0.2086 1.797,-0.4616 z" style="fill:#f8c300" inkscape:connector-curvature="0"/>
    <path id="_129471720" class="fil5" d="m 122.926,111.545 c 0.2516,-0.1918 0.4984,-0.4017 0.7368,-0.6338 -0.2951,2.0877 -1.1779,2.3236 -1.1779,2.3236 0.3917,-1.0489 0.4478,-1.5027 0.4411,-1.6898 z" style="fill:#f8c300" inkscape:connector-curvature="0"/>
    <path id="_129471032" class="fil5" d="m 121.221,112.557 c 0.5373,-0.2423 1.0803,-0.551 1.604,-0.9378 -0.4459,1.0406 -1.2798,1.6154 -1.2798,1.6154 -0.3255,0.1088 -0.6165,0.1634 -0.854,0.1891 0.1502,-0.232 0.3325,-0.5249 0.5298,-0.8667 z" style="fill:#f8c300" inkscape:connector-curvature="0"/>
    <path id="_129470648" class="fil5" d="m 120.701,108.186 c 0.0986,-0.4288 0.1649,-0.8528 0.1806,-1.2497 0.4944,0.36 0.7095,0.6007 0.8025,0.7465 -0.3314,0.1849 -0.6602,0.3525 -0.9831,0.5032 z" style="fill:#f8c300" inkscape:connector-curvature="0"/>
    <path id="_129469960" class="fil5" d="m 121.499,112.06 c 0.4335,-0.8031 0.8936,-1.79 1.2126,-2.8328 0.0592,-0.0408 0.1177,-0.0847 0.1765,-0.1269 0.691,0.2557 0.6598,1.1054 0.7604,1.3437 -0.6635,0.7065 -1.4052,1.2303 -2.1495,1.616 z" style="fill:#f8c300" inkscape:connector-curvature="0"/>
    <path id="_129468984" class="fil5" d="m 120.298,108.367 c -0.7855,0.3399 -1.5274,0.5851 -2.1797,0.7619 0.1038,-0.4011 0.1982,-0.8437 0.2714,-1.3206 0.7689,-0.26 1.5755,-0.6032 2.1476,-1.0288 -0.002,0.4895 -0.0961,1.0362 -0.2393,1.5875 z" style="fill:#f8c300" inkscape:connector-curvature="0"/>
    <path id="_129468600" class="fil5" d="m 118.44,107.444 c 0.0701,-0.564 0.1072,-1.1702 0.0932,-1.8074 0.0144,-0.007 0.0294,-0.0153 0.044,-0.0227 1.2347,0.2302 1.7149,0.9245 1.7149,0.9245 0.002,0.001 0.003,0.002 0.005,0.003 -0.4927,0.361 -1.178,0.6635 -1.8572,0.9023 v 0 0 z" style="fill:#f8c300" inkscape:connector-curvature="0"/>
    <path id="_129468216" class="fil5" d="m 120.022,112.666 c -0.1002,-0.7904 -0.4177,-1.0031 -0.5901,-1.0601 0.118,-0.2432 0.2642,-0.5564 0.418,-0.9148 0.786,-0.2862 1.6026,-0.6645 2.4003,-1.1619 -0.3614,1.0526 -0.8518,2.0288 -1.2822,2.7834 -0.3205,0.1402 -0.6378,0.2564 -0.946,0.3534 z" style="fill:#f8c300" inkscape:connector-curvature="0"/>
    <path id="_129466200" class="fil5" d="m 100.43,111.261 c -0.34,0.1127 -0.6435,0.2735 -0.9083,0.4661 0.2387,0.2773 0.5723,0.7066 0.812,1.1759 0.0502,-0.0475 0.1049,-0.0913 0.1634,-0.1299 -0.0129,-0.0657 -0.1123,-0.5255 -0.4507,-0.93 v 0 0 c 0,0 0.1739,-0.2264 0.5394,-0.1618 0,0 0.2084,0.3427 0.3328,0.9139 0.0785,-0.0174 0.1598,-0.0277 0.2432,-0.0303 5e-4,-0.1833 -0.0224,-0.7117 -0.2654,-1.4211 -0.1557,0.0287 -0.3115,0.0657 -0.4664,0.1172 z" style="fill:#f8c300" inkscape:connector-curvature="0"/>
    <path id="_129464984" class="fil5" d="m 104.146,112.983 c -0.4122,0.1749 -1.2008,0.4203 -1.8986,0.1302 0.0719,0.1111 0.1246,0.234 0.1523,0.3654 0.6614,0.1675 1.1448,0.0465 1.1448,0.0465 v 0 0 c 0.087,0.2588 -0.0173,0.4043 -0.0173,0.4043 -0.3881,0.0207 -0.8397,-0.0376 -1.1163,-0.0826 -0.0108,0.0729 -0.0295,0.1439 -0.0544,0.2119 0.5528,0.2678 1.2056,0.237 1.6254,0.173 0.1784,-0.397 0.2393,-0.8261 0.1641,-1.2487 z" style="fill:#f8c300" inkscape:connector-curvature="0"/>
    <path id="_129464048" class="fil5" d="m 100.077,114.126 c -0.4667,0.3616 -1.0235,0.4996 -1.4123,0.551 0.194,0.3584 0.4878,0.6528 0.8465,0.8687 0.741,-0.3178 1.0524,-0.6383 1.1806,-0.824 -0.1062,-0.0458 -0.2043,-0.1054 -0.2913,-0.1762 -0.1528,0.1545 -0.3761,0.3466 -0.6154,0.4356 v 0 l -0.1742,-0.1779 v 0 0 c 0,0 0.3492,-0.1559 0.5971,-0.4559 -0.0522,-0.0685 -0.0961,-0.1426 -0.131,-0.2213 z" style="fill:#f8c300" inkscape:connector-curvature="0"/>
    <path id="_129463664" class="fil5" d="m 99.9994,113.859 c -0.0085,-0.0537 -0.0143,-0.1081 -0.0143,-0.1639 0,-0.0299 0.0014,-0.0592 0.0039,-0.0884 -0.5049,0.0428 -0.9697,-0.0654 -0.9697,-0.0654 0.1392,-0.2264 0.0697,-0.5175 0.0697,-0.5175 0.2922,0.1195 0.7334,0.1954 0.9918,0.2323 0.0409,-0.0896 0.094,-0.1735 0.157,-0.2495 -0.2911,-0.0383 -0.9369,-0.1515 -1.488,-0.4506 -0.2232,0.3727 -0.3399,0.7849 -0.3302,1.1997 0.6216,0.167 1.2034,0.1477 1.5798,0.1033 z" style="fill:#f8c300" inkscape:connector-curvature="0"/>
    <path id="_129463280" class="fil5" d="m 101.335,112.878 c -3e-4,2e-4 -5e-4,3e-4 -7e-4,5e-4 v 0 l 0.001,1e-4 c -3e-4,-3e-4 -4e-4,-4e-4 -7e-4,-6e-4 z" style="fill:#f8c300" inkscape:connector-curvature="0"/>
    <path id="_129462544" class="fil5" d="m 96.5479,114.334 v 0 0 c -0.1044,-0.6632 0.0348,-0.7926 0.0348,-0.7926 0.4352,0.2103 0.8006,0.55 0.8006,0.55 -0.2088,0.8088 -0.5221,1.1808 -0.5221,1.1808 0.1393,-0.7118 -0.0173,-1.2617 -0.0173,-1.2617 -0.1915,0.1618 -0.296,0.3235 -0.296,0.3235 z" style="fill:#f8c300" inkscape:connector-curvature="0"/>
    <path id="_129461808" class="fil5" d="m 97.1745,115.434 v 0 0 c 0.7483,-0.4852 1.0269,-0.5014 1.0269,-0.5014 0.1914,0.3883 0.3131,0.8734 0.3131,0.8734 -0.6264,0.1941 -0.9571,0.1134 -0.9571,0.1134 0.4351,-0.2104 0.5221,-0.5177 0.5221,-0.5177 -0.4351,-0.1456 -0.905,0.0323 -0.905,0.0323 z" style="fill:#f8c300" inkscape:connector-curvature="0"/>
    <path id="_129461424" class="fil5" d="m 100.481,113.056 v 0 0 c -0.6788,1.0514 0.6266,1.4719 0.6266,1.4719 -0.4177,-0.8248 -0.6266,-1.4719 -0.6266,-1.4719 z" style="fill:#f8c300" inkscape:connector-curvature="0"/>
    <path id="_129461040" class="fil5" d="m 101.108,112.717 v 0 0 c 0.7309,0.4368 0.7831,1.1647 0.7831,1.1647 0.5048,-0.5177 -0.1567,-1.0515 -0.1567,-1.0515 -0.4349,-0.1779 -0.6264,-0.1132 -0.6264,-0.1132 z" style="fill:#f8c300" inkscape:connector-curvature="0"/>
    <path id="_129460328" class="fil5" d="m 100.795,112.814 v 0 0 c -0.0871,0.6147 0.3828,1.1486 0.3828,1.1486 0.2785,0.3234 0.4874,0.3073 0.4874,0.3073 -0.2438,-0.6956 -0.5569,-1.4559 -0.5569,-1.4559 -0.1567,-0.097 -0.3133,0 -0.3133,0 z" style="fill:#f8c300" inkscape:connector-curvature="0"/>
    <path id="_129459944" class="fil5" d="m 121.348,114.334 v 0 0 c 0.1045,-0.6632 -0.0347,-0.7926 -0.0347,-0.7926 -0.4351,0.2103 -0.8007,0.55 -0.8007,0.55 0.2089,0.8088 0.5223,1.1808 0.5223,1.1808 -0.1393,-0.7118 0.0174,-1.2617 0.0174,-1.2617 0.1913,0.1618 0.2957,0.3235 0.2957,0.3235 z" style="fill:#f8c300" inkscape:connector-curvature="0"/>
    <path id="_129458888" class="fil5" d="m 120.721,115.434 v 0 0 c -0.7483,-0.4852 -1.0267,-0.5014 -1.0267,-0.5014 -0.1915,0.3883 -0.3135,0.8734 -0.3135,0.8734 0.6266,0.1941 0.9574,0.1134 0.9574,0.1134 -0.4351,-0.2104 -0.5221,-0.5177 -0.5221,-0.5177 0.435,-0.1456 0.9049,0.0323 0.9049,0.0323 z" style="fill:#f8c300" inkscape:connector-curvature="0"/>
    <path id="_129457856" class="fil5" d="m 117.415,113.056 v 0 0 c 0.6788,1.0514 -0.6265,1.4719 -0.6265,1.4719 0.4177,-0.8248 0.6265,-1.4719 0.6265,-1.4719 z" style="fill:#f8c300" inkscape:connector-curvature="0"/>
    <path id="_129457472" class="fil5" d="m 116.788,112.717 v 0 0 c -0.731,0.4368 -0.7832,1.1647 -0.7832,1.1647 -0.5048,-0.5177 0.1567,-1.0515 0.1567,-1.0515 0.435,-0.1779 0.6265,-0.1132 0.6265,-0.1132 z" style="fill:#f8c300" inkscape:connector-curvature="0"/>
    <path id="_129456464" class="fil5" d="m 117.101,112.814 v 0 0 c 0.087,0.6147 -0.3828,1.1486 -0.3828,1.1486 -0.2785,0.3234 -0.4873,0.3073 -0.4873,0.3073 0.2435,-0.6956 0.5568,-1.4559 0.5568,-1.4559 0.1566,-0.097 0.3133,0 0.3133,0 z" style="fill:#f8c300" inkscape:connector-curvature="0"/>
    <path id="_129455744" class="fil6" d="m 104.902,103.772 v 0 0 c -2.7845,3.2187 1.7057,8.8315 1.7057,8.8315 v 0 l 1.3575,-0.2427 v -6.3244 0 c -0.5744,-0.3397 -0.6439,-0.744 -0.6439,-0.744 -0.8354,-1.1808 -2.4193,-1.5204 -2.4193,-1.5204 z" style="fill:#db214c" inkscape:connector-curvature="0"/>
    <path id="_129455360" class="fil6" d="m 113.572,103.772 v 0 0 c 2.7847,3.2187 -1.7055,8.8315 -1.7055,8.8315 v 0 l -1.3575,-0.2427 v -6.3244 0 c 0.5743,-0.3397 0.6439,-0.744 0.6439,-0.744 0.8354,-1.1808 2.4191,-1.5204 2.4191,-1.5204 z" style="fill:#db214c" inkscape:connector-curvature="0"/>
    <path id="_129452344" class="fil5" d="m 116.442,114.697 c -0.183,-0.0211 -0.3565,-0.0838 -0.4369,-0.2334 0,0 -2.952,1.085 -5.5364,-0.7899 0.3624,0.1185 0.8848,0.3055 1.3776,0.5413 0,0 0.5967,-0.4772 0.4787,-1.323 0,0 -0.6528,0.0208 -1.6875,-0.3161 0.2772,-0.17 0.9078,-0.5401 1.5779,-0.819 0,0 -0.0287,-0.7312 -0.8133,-1.1735 0,0 -0.4194,0.5235 -1.4239,1.0876 -0.005,-0.182 -0.02,-1.0064 0.1109,-1.805 0,0 -0.677,-0.3736 -1.5018,0 0,0 0.2468,0.6121 0.213,1.7042 -0.1703,-0.095 -0.9244,-0.5255 -1.5775,-1.0557 0,0 -0.7027,0.33 -0.8067,1.1775 0,0 0.671,0.1319 1.6247,0.7254 -0.2324,0.0967 -1.0012,0.4047 -1.7976,0.5923 0,0 -0.1071,0.7248 0.5839,1.286 0,0 0.4498,-0.3956 1.4104,-0.7711 -0.6529,0.5484 -3.0292,2.2349 -6.1553,0.8096 0,0 -0.0693,0.1607 -0.2465,0.2859 3.5029,1.7362 6.3223,-0.1147 7.2202,-0.8342 v 0 0 c -0.004,-7e-4 -0.008,-8e-4 -0.0122,-0.002 0,0 -0.0862,-0.009 -0.2134,-0.0734 -0.4191,-0.1816 -0.7096,-0.5765 -0.7096,-1.0346 0,-0.6301 0.5494,-1.1408 1.2276,-1.1408 v 0 0 c 0.6777,0 1.2274,0.5107 1.2274,1.1408 0,0.5326 -0.3927,0.9799 -0.9236,1.1056 3.2064,2.6805 6.1667,1.2659 6.7899,0.9151 v 0 0 z" style="fill:#f8c300" inkscape:connector-curvature="0"/>
    <path id="_129451152" class="fil4" d="m 109.502,111.544 c 0.2659,0.0309 0.5053,0.1407 0.6903,0.3035 0.653,-0.3474 0.967,-0.6232 0.967,-0.6232 0.3825,0.1295 0.2938,0.4587 0.2938,0.4587 -0.4066,0.1809 -0.8045,0.397 -0.9954,0.5038 0.0758,0.1483 0.1183,0.3141 0.1183,0.4892 0,0.0309 -10e-4,0.0615 -0.004,0.0918 0.6215,0.1926 0.9927,0.2284 0.9927,0.2284 0.1437,0.3542 -0.1827,0.5061 -0.1827,0.5061 -0.3393,-0.1386 -0.6941,-0.2577 -0.9272,-0.3317 -0.1983,0.3824 -0.6192,0.6462 -1.1063,0.6462 -0.5211,0 -0.9662,-0.3016 -1.1444,-0.7271 -0.6524,0.2412 -0.9823,0.4538 -0.9823,0.4538 -0.3574,-0.1815 -0.2162,-0.4946 -0.2162,-0.4946 0.4698,-0.1329 0.9362,-0.3086 1.1153,-0.3781 10e-4,-0.1974 0.0559,-0.383 0.1517,-0.5446 l -0.0245,-0.0282 v 0 c -0.6474,-0.3922 -1.067,-0.5285 -1.067,-0.5285 -0.0519,-0.3755 0.3036,-0.4533 0.3036,-0.4533 0.4994,0.3509 1.056,0.6567 1.056,0.6567 v 0 l -0.0369,0.0752 c 0.1612,-0.1421 0.3639,-0.2439 0.5895,-0.2882 l 0.0314,-0.0838 v 0 c 0.0162,-0.7182 -0.0808,-1.1212 -0.0808,-1.1212 0.3155,-0.2394 0.5742,0 0.5742,0 -0.0758,0.7744 -0.042,1.1802 -0.042,1.1802 v 0 l -0.0742,0.009 z" style="fill:#8f5444" inkscape:connector-curvature="0"/>
    <path id="_129450512" class="fil5" d="m 108.896,113.639 c -0.1044,-1.019 0.0174,-1.7954 0.0174,-1.7954 -1.079,1.1161 -0.0174,1.7954 -0.0174,1.7954 z" style="fill:#f8c300" inkscape:connector-curvature="0"/>
    <path id="_129450128" class="fil5" d="m 109.787,111.811 c 0,0 0.122,0.7765 0.0174,1.7954 0,0 1.0617,-0.6793 -0.0174,-1.7954 z" style="fill:#f8c300" inkscape:connector-curvature="0"/>
    <path id="_129449264" class="fil5" d="m 109.366,113.671 c 0.5916,-0.9219 0,-1.941 0,-1.941 -0.5743,0.9059 0,1.941 0,1.941 z" style="fill:#f8c300" inkscape:connector-curvature="0"/>
    <path id="_129447984" class="fil5" d="m 101.468,114.758 c -0.1463,0.0175 -0.3226,0.003 -0.5346,-0.0681 0,0 -1.2879,2.3293 -2.9238,1.6823 0.1318,0.1163 0.26,0.2082 0.381,0.281 1.9177,-0.1836 2.7816,-1.3615 3.0774,-1.8952 z" style="fill:#f8c300" inkscape:connector-curvature="0"/>
    <path id="_129447280" class="fil5" d="m 117.05,114.658 c 0,0 -0.2106,0.0489 -0.4467,0.0485 1.1246,2.2705 3.2312,1.9248 3.2312,1.9248 v 0 l -0.0948,0.0992 v 0 c 0.1898,-0.1221 0.2339,-0.2285 0.2339,-0.2285 0,0 -1.8448,-0.2264 -2.9236,-1.844 z" style="fill:#f8c300" inkscape:connector-curvature="0"/>
    <line id="_129446896" class="fil1 str1" x1="108.938" y1="98.429398" x2="108.929" y2="98.404404" style="fill:none;stroke:#b07d36;stroke-width:0.64880002;stroke-linecap:round;stroke-linejoin:round"/>
    <path id="_129446208" class="fil4" d="m 109.503,99.3008 c 0.2789,-0.3096 0.2789,-0.9288 0.2789,-0.9288 -0.4319,-0.2091 -0.909,-0.0083 -0.909,-0.0083 v 0 l -0.009,-0.025 v 0 c -0.0359,0.5939 0.2431,0.9621 0.2431,0.9621 0.1351,0.0417 0.3962,0 0.3962,0 v 0 0 z" style="fill:#8f5444" inkscape:connector-curvature="0"/>
    <path id="_129445520" class="fil4" d="m 108.909,99.5182 c -0.3332,-0.2593 -0.9994,-0.2593 -0.9994,-0.2593 -0.2249,0.4015 -0.009,0.845 -0.009,0.845 v 0 l -0.0269,0.008 v 0 c 0.6393,0.0335 1.0353,-0.2259 1.0353,-0.2259 0.0449,-0.1254 0,-0.3681 0,-0.3681 v 0 0 z" style="fill:#8f5444" inkscape:connector-curvature="0"/>
    <path id="_129444648" class="fil4" d="m 109.143,100.07 c -0.2792,0.3096 -0.2792,0.9288 -0.2792,0.9288 0.4322,0.2091 0.9093,0.008 0.9093,0.008 v 0 l 0.009,0.0251 v 0 c 0.0359,-0.594 -0.243,-0.9622 -0.243,-0.9622 -0.1349,-0.0418 -0.396,0 -0.396,0 v 0 z" style="fill:#8f5444" inkscape:connector-curvature="0"/>
    <path id="_129444264" class="fil4" d="m 110.745,99.2672 0.027,-0.0083 v 0 c -0.6391,-0.0334 -1.0352,0.2258 -1.0352,0.2258 -0.045,0.1257 0,0.3681 0,0.3681 0.333,0.2594 0.9992,0.2594 0.9992,0.2594 0.225,-0.4016 0.009,-0.845 0.009,-0.845 z" style="fill:#8f5444" inkscape:connector-curvature="0"/>
    <path id="_129443176" class="fil4" d="m 109.212,99.3761 c -0.1126,0 -0.2041,0.0849 -0.2041,0.1896 v 0 0.2063 0 c 0,0.1047 0.0915,0.1897 0.2041,0.1897 v 0 h 0.222 v 0 c 0.1127,0 0.204,-0.085 0.204,-0.1897 v 0 -0.2063 0 c 0,-0.1047 -0.0913,-0.1896 -0.204,-0.1896 v 0 z" style="fill:#8f5444" inkscape:connector-curvature="0"/>
    <path id="_129442376" class="fil5" d="m 100.667,117.631 c 0.2595,-0.0698 0.4873,-0.136 0.7394,-0.1941 0.1003,-0.0317 0.1733,-0.1175 0.1673,-0.2122 -0.0165,-0.224 -0.032,-0.4359 -0.0484,-0.6599 -0.008,-0.0946 -0.0921,-0.1536 -0.1929,-0.1257 -0.2542,0.0575 -0.4813,0.1232 -0.7412,0.1921 -0.0999,0.0297 -0.1675,0.1234 -0.1613,0.2184 0.017,0.2246 0.0332,0.4371 0.0501,0.6616 0.008,0.095 0.086,0.1461 0.187,0.1198 z" style="fill:#f8c300" inkscape:connector-curvature="0"/>
    <path id="_129441576" class="fil5" d="m 99.4308,118.014 c 0.2373,-0.0753 0.4548,-0.1524 0.7044,-0.2276 0.0939,-0.0269 0.1655,-0.1259 0.1591,-0.221 -0.017,-0.2247 -0.0331,-0.4375 -0.05,-0.662 -0.008,-0.0949 -0.0894,-0.1412 -0.1842,-0.1181 -0.2493,0.0748 -0.4648,0.1514 -0.7011,0.226 -0.0906,0.036 -0.1578,0.1317 -0.152,0.2268 0.0157,0.2251 0.0308,0.4384 0.0465,0.6635 0.0075,0.0953 0.0858,0.1445 0.1773,0.1124 z" style="fill:#f8c300" inkscape:connector-curvature="0"/>
    <path id="_129441056" class="fil4" d="m 109.257,101.13 c 1.3808,0 2.5003,1.0922 2.5003,2.4396 0,1.3473 -1.1195,2.4396 -2.5003,2.4396 -1.3809,0 -2.5004,-1.0923 -2.5004,-2.4396 0,-1.3474 1.1195,-2.4396 2.5004,-2.4396 z" style="fill:#8f5444" inkscape:connector-curvature="0"/>
    <path id="_129440344" class="fil5" d="m 109.323,101.598 c 1.0908,0 1.9749,0.8826 1.9749,1.9716 0,1.0888 -0.8841,1.9716 -1.9749,1.9716 -1.0907,0 -1.9749,-0.8828 -1.9749,-1.9716 0,-1.089 0.8842,-1.9716 1.9749,-1.9716 z" style="fill:#f8c300" inkscape:connector-curvature="0"/>
    <path id="_129411904" class="fil3" d="M 128.19,156.804 V 121.1366 H 90.3867 v 35.6665 0.0954 0.9536 0 c 0.357,5.8781 7.0678,6.5779 7.0678,6.5779 6.2826,0.1401 9.0669,0 9.0669,0 2.5455,0 2.7646,2.5983 2.7773,2.7874 v 0 0.0124 0 c 0,0 2e-4,-0.003 3e-4,-0.007 2e-4,0.003 4e-4,0.006 4e-4,0.006 v 0 -0.0113 0 c 0.0126,-0.1891 0.2315,-2.7874 2.7771,-2.7874 0,0 2.7843,0.1401 9.0669,0 0,0 6.7109,-0.6998 7.0678,-6.578 v 0 l -0.0131,-0.9541 -0.008,-0.0945 v 0 z" style="fill:#75c5f0" inkscape:connector-curvature="0"/>
    <path id="_129411536" class="fil7" d="m 123.736,158.274 c -0.0177,0.106 -0.1437,0.1839 -0.1782,0.2498 -0.3054,0.5661 -0.5807,1.0856 -0.8204,1.6763 -1.0599,-0.1584 -0.5273,-0.4671 -0.214,-1.0701 0.1282,-0.2496 0.1996,-0.4881 0.3568,-0.7133 0.0847,-0.1226 0.3332,-0.3043 0.3923,-0.4281 0.0389,-0.0858 -0.0424,-0.1682 0.0356,-0.214 0.0156,-0.01 -0.1303,-0.5293 -0.1427,-0.5706 -0.4001,-1.2673 -0.7033,-2.5044 -1.07,-3.5668 -0.0825,-0.2373 -0.223,-0.8034 -0.3567,-0.9986 -0.2496,-0.3644 -0.6296,-0.5283 -0.9987,-0.7845 -0.1125,-0.0782 -0.214,-0.2764 -0.321,-0.3567 -0.4135,-0.3099 -0.8514,-0.5061 -1.3197,-0.8204 -0.5148,-0.3455 -1.0187,-0.8326 -1.4266,-1.1414 -0.254,-0.1928 -0.5439,-0.2618 -0.7847,-0.4637 -0.0444,-0.0367 -0.0635,-0.1759 -0.1069,-0.2139 -0.2909,-0.2519 -0.6275,-0.408 -0.9273,-0.6421 -0.1683,-0.1315 -0.2431,-0.3545 -0.3212,-0.4279 -0.7734,-0.7266 -1.4066,-1.3821 -2.0686,-2.3183 v 0 l -0.107,0.0356 v 0 c 0,0.4046 0.0758,0.7925 -0.0713,1.0342 -0.1348,0.2187 -1.848,0.7191 -2.1044,0.7848 -0.1136,0.0279 -0.1705,0.0223 -0.1938,0.0358 v 0 l -0.1985,0.0523 v 0 c -0.0981,0.0177 -0.2652,0.0366 -0.3399,0.0469 -0.1828,0.0221 -0.5084,0.0601 -0.7122,0.0601 -0.3789,-10e-4 -0.7535,0.0457 -1.1402,0.0735 -0.2274,0.0157 -0.5696,0.0714 -0.8661,-0.0278 -0.1313,-0.0447 -0.2384,-0.6309 -0.6509,-0.8114 -0.1047,0.7702 -0.3087,1.8713 -0.428,2.4965 -0.1827,0.9542 -0.5616,2.5347 -0.3567,3.5669 0.0224,0.1158 0.0714,0.6776 0.0714,0.6776 -0.0546,0.3043 -0.175,0.6096 -0.107,1.1412 0.1115,0.8908 0.7468,3.939 0.321,4.6724 -0.1405,0.2397 -0.3466,0.4983 -0.4636,0.7491 -0.1227,0.2587 -0.1192,0.5897 -0.2853,0.8203 -0.058,0.0791 -0.3423,0.1728 -0.4994,0.1426 -0.1995,-0.0389 0.2842,-0.9629 0.3567,-1.1412 0.1805,-0.4515 0.332,-0.7279 0.4993,-1.1414 0,-0.0111 0,-0.0233 0,-0.0356 0,-0.2453 -0.0135,-0.6788 -0.0356,-1.0343 -0.0647,-0.9843 -0.272,-1.9004 -0.3568,-3.1387 -0.0267,-0.369 -0.3633,-0.7424 -0.4279,-1.0702 -0.1405,-0.7076 -0.059,-1.2817 -0.2142,-1.8903 -0.2462,-0.9673 -0.6708,-1.9091 -0.9628,-2.8532 -0.1696,-0.5452 -0.3567,-0.9196 -0.3567,-1.6763 -0.006,0.0388 0,-0.1785 0,-0.1785 -0.1605,-0.0925 -0.2898,0.2575 -0.4281,0.2854 -0.3332,0.0648 -0.4146,-0.3009 -0.7489,-0.1783 -0.2598,0.0937 -0.058,0.2185 -0.5708,0.1783 0.0653,0.1386 0.1597,0.2585 0.2718,0.3659 -0.1259,-0.0969 -0.2714,-0.2286 -0.4352,-0.4076 0.0219,-0.1413 0.0321,-0.2728 0.0207,-0.3862 -0.0255,-0.2421 -0.2339,-0.8594 -0.2853,-1.0702 -0.1492,-0.6096 -0.137,-1.1302 -0.2496,-1.9616 0.1126,-0.039 0.1884,-0.1505 0.2496,-0.1784 -0.1325,-0.6397 -0.1904,-1.1635 -0.321,-1.712 0,0.0145 0.0357,-0.321 0.0357,-0.321 -0.0278,-0.1494 -0.1191,-0.5305 -0.1071,-0.6421 0.0358,-0.3465 0.329,-0.6853 0.4282,-0.9628 0.2596,-0.7389 0.4045,-1.2305 0.4637,-1.9972 0.0523,-0.6967 -0.008,-1.4402 -0.0357,-2.1757 1.1178,-0.1662 1.2528,-0.5484 1.4623,-1.5695 -0.5451,0.1595 -0.4726,0.4158 -0.7846,0.642 -0.5673,0.4103 -1.3176,0.3557 -1.9261,0.7135 -0.224,0.1303 -0.3833,0.4 -0.6062,0.535 -0.1439,0.0857 -0.2498,0.0824 -0.4637,0.107 0.4514,-0.2988 0.7189,-0.7792 0.9987,-1.2484 -0.6643,-0.0736 -0.9175,0.4614 -1.5337,0.5706 -0.2197,0.0379 -0.4703,0.0268 -0.642,-0.0712 -0.3723,-0.213 0.5038,-0.7267 0.6776,-0.8919 0,0 0.0279,-0.1759 0.0356,-0.2138 -0.1983,0.006 -0.4959,0 -0.7847,0 0.4047,-0.5172 1.0734,-1.1313 1.3387,-1.5684 0.5974,-0.9896 0.1293,-1.1847 1.158,-1.82 0.1105,-0.0692 0.2152,-0.2541 0.3567,-0.2853 0.3446,-0.0792 0.8616,-0.0134 1.0343,0 -0.1638,0.2385 -0.0868,0.2608 0.2497,0.2853 0.4603,0.0324 0.8828,0.0892 1.0699,0.4993 1.0522,-0.846 1.8548,-2.2961 3.2101,-2.7463 0.1283,0.1181 0.0613,0.2073 0.0358,0.4637 -0.1138,1.0866 -0.3612,1.4489 -1.1838,1.829 -0.6632,0.3043 -1.3464,0.4915 -1.8835,0.9529 0.2306,0.1416 0.4591,0.5763 0.6418,0.8917 0.8672,1.4991 0.5562,3.9882 0.9987,5.8494 0.1316,0.5572 0.1271,1.0153 0.3925,1.4979 1.5068,-0.1449 2.7864,0.5629 4.2442,0.7132 1.0922,0.1116 1.9615,-0.0834 2.889,-0.2851 0.4414,-0.097 0.8068,-0.3311 1.3553,-0.2854 0.4036,0.0323 0.73,0.2864 1.0343,0.4281 0.0479,0.0221 0.0992,0.008 0.1427,0.0356 1.401,0.9094 2.4989,1.9182 3.1643,3.6714 0,0.0122 0.1171,0.3467 0.1171,0.3589 0,0.7012 0.0836,1.4901 0.1782,2.0686 0.0157,0.096 0,0.2498 0,0.2498 0.0759,0.0379 -0.03,0.0735 0.0358,0.107 0,0.0812 -0.007,0.1671 0,0.2497 0.1426,0.0367 -0.0993,0.1693 0.0713,0.2139 0.029,0.1127 0.0357,0.2854 0.0357,0.2854 0.0257,0.0857 0.0346,0.1303 0.0713,0.2496 0.0101,0.0334 0.1003,0.1618 0.1069,0.1783 0.0491,0.1372 0.008,0.2509 0.0358,0.321 0.3298,0.8371 1.1234,1.5661 1.8547,1.9974 0.2419,0.1427 0.5807,0.1706 0.8204,0.321 0.1225,0.0769 0.1092,0.3923 0.1427,0.5706 0.2073,1.1225 0.3777,2.1491 0.7489,3.1744 0,0 0.0156,0.4749 0.0356,0.5352 0.2219,0.6798 0.8215,2.1164 0.6776,2.9958 z m -20.8364,-10.3677 c 0.2278,0.1392 0.4606,0.2688 0.6492,0.4167 -0.1361,0.8839 -0.5574,1.9182 -0.8561,2.675 -0.0612,0.1515 -0.2541,0.3567 -0.321,0.5706 -0.1103,0.3478 -0.0869,0.8025 -0.1783,1.1057 -0.0713,0.2308 -0.4125,0.6164 -0.5351,0.9273 -0.0333,0.0837 0.0201,0.2052 0,0.2854 -0.2083,0.8294 -0.4145,1.9806 -0.7488,2.782 -0.0993,0.2363 -0.0847,0.7145 -0.2498,0.9988 -0.0435,0.0735 -0.1292,0.0234 -0.1426,0.0356 -0.0971,0.0846 -0.126,0.2607 -0.214,0.3566 -0.3333,0.3578 -0.6621,0.6689 -0.9274,1.1058 -0.2976,-0.0414 -0.4524,-0.0815 -0.642,-0.1785 0.0022,-0.0111 -0.0102,-0.1158 0.0357,-0.0712 0.3533,-0.5017 1.1136,-1.1404 1.3553,-1.6051 0.0234,-0.0457 -0.0156,-0.1304 0,-0.1784 v 0 h 0.0714 v 0 c 0.008,-0.0422 -0.008,-0.1012 0,-0.1426 v 0 l 0.0714,-0.1426 v 0 c 0.0245,-0.0881 0.0523,-0.2185 0.0712,-0.2854 0.0312,-0.1193 0.048,-0.1794 0.0713,-0.2496 0.0347,-0.1115 0.0179,-0.1093 0.0357,-0.1783 0.001,-0.009 0.0602,-0.0412 0,-0.0714 0.2898,-0.7568 0.5651,-1.7444 0.6778,-2.7464 0.0635,-0.007 -0.0356,-0.2029 0.0356,-0.2138 v 0 l -0.1428,-0.3569 v 0 c 0.0202,-7e-4 0.0372,-0.03 0.0517,-0.0757 0.002,0.0633 0.005,0.13 0.0109,0.2006 v 0 l 0.5571,-0.4087 v -0.7802 0 c 0,0 0.2231,-0.2228 0.4086,-0.8545 v 0 z m -1.6008,3.7784 c 0.002,-0.006 0.003,-0.0125 0.005,-0.0187 l -0.002,0.0156 v 0 c 0,0 -0.001,0.001 -0.003,0.003 z m 4.2369,2.1807 c -0.0745,-0.1405 -0.1424,-0.2771 -0.1679,-0.4065 -0.1405,-0.7076 -0.059,-1.2817 -0.2142,-1.8903 -0.2462,-0.9673 -0.6708,-1.9091 -0.9628,-2.8532 -0.1696,-0.5452 -0.3567,-0.9196 -0.3567,-1.6763 -0.002,0.0132 -0.003,-0.003 -0.002,-0.0307 0.009,-0.0617 0.0201,-0.1264 0.0336,-0.1938 0,0 -0.4829,-0.8359 -0.6131,-1.4491 0,0 -0.0372,-0.7987 0.4459,-1.6718 0,0 -0.2416,0.2043 -0.7059,0.7245 0,0 0.6501,-2.0249 2.1548,-1.9505 0,0 -0.0928,-0.5945 -0.4087,-0.9288 0,0 -0.5201,0.2599 -1.096,1.096 0,0 0.0558,-1.5977 1.2076,-1.6719 0,0 -0.1672,-0.3901 -0.1672,-0.613 0,0 -0.3343,0.3529 -0.7431,0.7802 0,0 -0.3159,-0.4831 -0.2787,-1.5791 0,0 0.2787,-0.7986 0.2044,-2.0246 0,0 -0.1486,-0.7432 0.1113,-1.5977 0,0 0.6317,-0.9474 0.7432,-1.839 0.1238,0.1919 0.1486,0.4149 0.1238,0.6254 -0.0124,0.0867 -0.0619,0.1733 -0.099,0.2601 -0.0248,0.099 -0.0124,0.2104 -0.0124,0.3096 0.1238,0.0247 0.2477,-0.0125 0.2972,-0.1486 0,0.1856 0.0371,0.3839 -0.0124,0.5696 -0.0496,0.1858 -0.1858,0.3962 -0.0742,0.5821 0.0246,0.0371 0.1362,-0.0125 0.1486,0.0124 0.0494,0.1486 0.0248,0.3096 0,0.4705 -0.0124,0.161 -0.0744,0.2972 -0.1115,0.4582 -0.0249,0.0868 -0.0496,0.1734 -0.0125,0.2602 0.0248,0.0619 0.1116,0.1361 0.1982,0.0866 0,0.0372 -0.0122,0.0867 0.0248,0.1239 0,0 0.0989,0.483 -0.2848,0.6191 0,0 -0.1239,0.3965 0.4581,0.3221 0,0 -0.0246,0.3095 -0.3963,0.483 0,0 -0.0124,0.0991 0.4583,0.2849 0,0 -0.1857,0.297 -0.4087,0.4457 v 0 l 0.6192,-0.0248 v 0 c 0,0 -0.0619,0.2725 -0.3096,0.4335 0,0 -0.0618,0.0991 0.1486,0.2972 0,0 1.6843,-0.1115 3.4923,0.2848 0,0 2.836,0.6564 5.3004,-0.4087 0.1298,-0.056 0.2974,0 0.4088,0.0743 0.0744,0.0372 -0.037,0.124 -0.0125,0.1982 0.161,0 0.3345,-0.0248 0.4955,0.0124 0.0124,0.0124 -0.0247,0.0866 -0.0124,0.1238 0.0373,0.0619 0.0991,0.0991 0.1734,0.1239 0.062,0.0124 0.1486,-0.0124 0.1733,0.0372 0.0249,0.0494 0,0.1238 0.0249,0.1485 0.0866,0.0867 0.2352,0.0991 0.3591,0.1239 0,0.1115 0,0.2106 0.0124,0.3221 0.1733,0.037 0.4212,-0.0126 0.5078,0.1857 0.0247,0.0495 0.0247,0.1114 0.0123,0.1734 -0.0248,0.0742 -0.1238,0.037 -0.1609,0.0989 0,0.0249 -0.0373,0.0621 0,0.0869 0.1237,0.0617 0.2835,0.0518 0.3776,0.099 0.1858,0.0929 0.3901,0.1671 0.5202,0.3343 0.0744,0.0744 0.1859,0.223 0.0929,0.2974 -0.0558,0.0555 -0.223,-0.0187 -0.2601,0.0371 -0.0929,0.1114 0.1486,0.1672 0.2601,0.2414 0.0186,0.0185 0.0186,0.0744 0,0.1115 -0.0372,0.0371 -0.0558,0.093 -0.0372,0.13 0.0744,0.1114 0.2415,0.13 0.3157,0.2229 0.0744,0.0743 -0.0742,0.13 -0.1299,0.1858 0,0.0186 0,0.0372 0,0.0557 0.0928,0.1301 0.2415,0.1859 0.3158,0.3158 0.0929,0.1672 -0.1486,0.1858 -0.223,0.2974 -0.0742,0.1113 0.1301,0.2042 0.2045,0.3343 0.0185,0.0371 0.0185,0.0928 0,0.1114 -0.093,0.0742 -0.2416,0.1299 -0.1858,0.2787 0.0557,0.1486 0.26,0.1486 0.3158,0.26 0.0557,0.0928 0.0186,0.2043 -0.0558,0.2973 -0.0372,0.0556 -0.1114,0.0556 -0.1672,0.0928 -0.0558,0.0372 -0.0371,0.1672 0,0.2415 0.0372,0.0928 0.1672,0.1114 0.2787,0.1672 0.13,0.0744 0.0743,0.3158 0.0187,0.4273 -0.0558,0.0928 -0.3159,0.0928 -0.223,0.2414 0.0556,0.1115 0.223,0.0743 0.3343,0.1487 0.0371,0.0186 0.093,0.0556 0.1115,0.1115 0.0371,0.2043 -0.2228,0.167 -0.3344,0.2601 -0.0372,0.0185 -0.0372,0.0928 -0.0372,0.1485 0,0 0,0.1672 0.5017,0.3157 0,0 -0.0188,0.2045 -0.2787,0.3716 0,0 0.2043,0.1673 0.4271,0.1115 0,0 -0.037,0.2044 -0.26,0.4087 v 0 0 c 0,0 0.0372,0.26 0.5574,0.5573 0,0 -0.5016,0.0186 -1.5976,-0.706 0,0 -1.9691,-1.1888 -3.381,-3.3251 0,0 -0.3716,-0.5759 -0.7431,-0.836 0,0 -0.0186,0.1301 0.093,0.4459 0,0 -0.0372,0.1113 -0.26,0.037 0,0 -0.1301,0.186 -0.1487,0.5946 0,0 -0.1114,0.1486 -0.3157,-0.0187 0,0 -0.093,0.0559 -0.1116,0.2973 0,0 -0.1672,-0.0928 -0.353,-0.3529 0,0 -0.1113,0.1115 0.0559,0.8546 0,0 -1.1146,-1.5605 -2.155,-1.9134 0,0 -0.093,0.0184 -0.26,0.1299 v 0 l -0.1486,-0.4087 v 0 c 0,0 -0.037,0.3529 -0.223,0.5016 -0.1858,0.1487 -0.0555,0.0372 -0.0555,0.0372 0,0 -0.2788,-0.836 -0.7432,-1.2632 0,0 -0.0743,0.3344 -0.353,0.7059 0,0 -0.1114,-0.0186 -0.3344,-0.9475 0,0 -0.0928,0.0931 -0.1857,0.5202 0,0 -0.1083,-0.2676 -0.4934,-0.7985 0.1313,0.1934 0.6737,1.1218 -0.2682,2.0802 0,0 0.2414,0.0372 0.6874,-0.2228 0,0 -0.0186,0.2228 -0.5017,0.5573 0,0 0.0186,0.1672 0.5017,0.1672 0,0 0.0186,0.1857 -0.4831,0.5386 0,0 0.2415,0.1116 0.5573,0.0744 0,0 -0.13,0.2416 -0.6501,0.6687 0,0 -0.1673,1.0775 -0.9474,1.7834 0,0 0.4458,1.2445 -0.0372,2.768 0,0 -0.1671,0.167 -0.1671,0.9658 v 0 l 0.1671,1.0032 -0.2987,0.5676 z" style="fill:#605d5c" inkscape:connector-curvature="0"/>
    <path id="_129411368" class="fil8" d="m 100.856,134.573 c 0.5387,0.0557 0.6687,-0.0371 0.6687,-0.0371 -0.1114,-0.1858 -0.0743,-0.3344 -0.0743,-0.3344 0.2786,-0.0558 0.4644,-0.1486 0.4644,-0.1486 -0.1115,-0.1858 0.0558,-0.2416 0.0558,-0.2416 0.3715,-0.037 0.1857,-0.1671 0.1857,-0.1671 1.0404,-0.5759 0.8918,-1.449 0.8918,-1.449 -0.2044,-0.743 -1.2075,-0.7801 -1.2075,-0.7801 0.6872,-0.1115 0.836,-0.1672 0.836,-0.1672 -0.2973,-0.0744 -0.4831,-0.223 -0.4831,-0.223 0.6315,0 1.0402,0.0185 1.0402,0.0185 -0.2011,-0.0643 -0.3743,-0.1182 -0.506,-0.1586 -0.0116,-8e-4 -0.0232,-0.002 -0.0349,-0.003 -0.3365,-0.0245 -0.4135,-0.0468 -0.2497,-0.2853 -0.0564,-0.004 -0.1497,-0.0144 -0.2616,-0.023 l -0.5385,-0.009 c -0.0825,0.006 -0.1621,0.0158 -0.2342,0.0324 -0.1415,0.0312 -0.2462,0.2161 -0.3566,0.2853 -1.0288,0.6353 -0.5607,0.8304 -1.1581,1.82 -0.2653,0.4371 -0.934,1.0512 -1.3387,1.5684 0.2888,0 0.5865,0.006 0.7847,0 -0.0077,0.0378 -0.0356,0.2139 -0.0356,0.2139 -0.1738,0.1651 -1.0499,0.6788 -0.6776,0.8917 0.1717,0.0981 0.4223,0.1092 0.642,0.0713 0.6162,-0.1092 0.8693,-0.6442 1.5337,-0.5706 -0.009,0.0154 -0.0184,0.0309 -0.0276,0.0464 l 0.3225,-0.0345 v 0 c -0.2045,-0.1487 -0.2415,-0.3159 -0.2415,-0.3159 v 0 0 z m -1.5317,0.9802 h 1e-4 c 0.0069,-0.004 0.0139,-0.007 0.0209,-0.0105 -0.007,0.004 -0.014,0.007 -0.021,0.0105 z m 0.0232,-0.0116 c 0.0022,-10e-4 0.0044,-0.002 0.0066,-0.003 -0.0022,0.001 -0.0044,0.002 -0.0066,0.003 z m 0.0066,-0.003 c 2e-4,0 3e-4,-1e-4 4e-4,-1e-4 -1e-4,0 -2e-4,1e-4 -4e-4,1e-4 z m 0.0141,-0.007 c 0.0062,-0.003 0.0123,-0.006 0.0184,-0.009 -0.0061,0.003 -0.0122,0.006 -0.0184,0.009 z m 0.2534,-0.1188 c 0.0013,-6e-4 0.0026,-0.001 0.0039,-0.002 -0.0013,6e-4 -0.0026,0.001 -0.0039,0.002 z m 0.0587,-0.0269 c 0.0134,-0.006 0.0269,-0.0123 0.0403,-0.0184 -0.0135,0.006 -0.0268,0.0123 -0.0403,0.0184 z m 0.042,-0.0192 c 0.004,-0.002 0.0079,-0.004 0.0119,-0.006 -0.004,0.002 -0.0079,0.004 -0.0119,0.006 z m 0.018,-0.008 c 0.0025,-0.001 0.0051,-0.002 0.0077,-0.004 -0.0026,0.001 -0.0052,0.002 -0.0077,0.004 z m 0.0208,-0.01 c 5e-4,-2e-4 0.001,-4e-4 0.0015,-6e-4 -5e-4,2e-4 -0.001,4e-4 -0.0015,6e-4 z m 0.0283,-0.0132 c 0.0048,-0.002 0.0096,-0.005 0.0143,-0.007 -0.0047,0.002 -0.0095,0.004 -0.0143,0.007 z m 0.0183,-0.009 c 0.0015,-7e-4 0.0029,-0.001 0.0043,-0.002 -0.0014,6e-4 -0.0028,0.001 -0.0043,0.002 z m 0.0062,-0.003 c 0.0013,-6e-4 0.0026,-0.001 0.0039,-0.002 -0.0013,5e-4 -0.0026,0.001 -0.0039,0.002 z m 0.0086,-0.004 c 0.0014,-6e-4 0.0027,-0.001 0.0041,-0.002 -0.0014,6e-4 -0.0027,0.001 -0.0041,0.002 z m 0.0059,-0.003 c 0.0013,-5e-4 0.0026,-0.001 0.0038,-0.002 -0.0013,5e-4 -0.0025,10e-4 -0.0038,0.002 z m 0.0187,-0.008 c 0.0036,-0.001 0.0073,-0.003 0.011,-0.005 -0.0037,10e-4 -0.0074,0.003 -0.011,0.005 z m 0.0167,-0.007 c 0.0066,-0.003 0.0133,-0.005 0.02,-0.008 -0.0067,0.002 -0.0134,0.005 -0.02,0.008 z m 0.0312,-0.0118 c 4e-4,-2e-4 8e-4,-3e-4 0.0012,-4e-4 -4e-4,1e-4 -8e-4,2e-4 -0.0012,4e-4 z m 0.0374,-0.0123 c 4e-4,-1e-4 7e-4,-2e-4 0.001,-3e-4 -3e-4,1e-4 -6e-4,2e-4 -0.001,3e-4 z m 0.0222,-0.006 c 0.0014,-4e-4 0.0027,-7e-4 0.004,-0.001 -0.0013,4e-4 -0.0026,7e-4 -0.004,0.001 z m 0.0087,-0.002 c 5e-4,-1e-4 10e-4,-2e-4 0.0015,-3e-4 -5e-4,1e-4 -10e-4,2e-4 -0.0015,3e-4 z m 0.007,-0.002 c 7e-4,-1e-4 0.0014,-3e-4 0.0021,-5e-4 -7e-4,2e-4 -0.0014,4e-4 -0.0021,5e-4 z m 0.0164,-0.004 c 1e-4,0 3e-4,-1e-4 5e-4,-1e-4 -2e-4,0 -4e-4,1e-4 -5e-4,1e-4 z m 0.0146,-0.003 c 5e-4,-1e-4 0.001,-2e-4 0.001,-3e-4 -5e-4,1e-4 -0.001,2e-4 -0.001,3e-4 z" style="fill:#fbfdfd" inkscape:connector-curvature="0"/>
    <path id="_129410712" class="fil8" d="m 101.847,140.139 c 0,0 -0.062,-0.2106 -0.0992,0.1981 0,0 -0.062,1.5233 0.5324,2.477 0,0 -0.0247,-0.3468 0.4708,-0.9784 0,0 -0.7185,-0.8175 -0.904,-1.6967 z" style="fill:#fbfdfd" inkscape:connector-curvature="0"/>
    <path id="_129416144" class="fil8" d="m 101.897,147.075 c 0,0 -0.223,0.4087 -0.2601,0.5201 -0.0371,0.1114 -0.0742,0.7803 -0.0742,0.7803 v 0 l -0.0744,1.0773 -0.0742,1.3747 -0.1116,0.8545 v 0 c 0,0 -0.2971,0.2973 -0.2227,1.1889 v 0 l 0.5571,-0.4087 v -0.7802 0 c 0,0 0.2231,-0.2228 0.4087,-0.8545 v 0 l 0.8917,-3.0465 v 0 c 0,0 -0.3715,0.0372 -1.0403,-0.7059 z" style="fill:#fbfdfd" inkscape:connector-curvature="0"/>
    <path id="_129415760" class="fil8" d="m 98.6271,159.038 0.5945,0.1485 0.5943,-1.5232 v 0 c -0.7058,0.6316 -1.1888,1.3747 -1.1888,1.3747 z" style="fill:#fbfdfd" inkscape:connector-curvature="0"/>
    <path id="_129415376" class="fil8" d="m 105.798,159.335 -0.7058,1.7463 0.743,0.0371 v 0 c 0,0 -0.2229,-1.1146 -0.0372,-1.7834 z" style="fill:#fbfdfd" inkscape:connector-curvature="0"/>
    <path id="_129414992" class="fil8" d="m 122.108,160.06 0.483,0.2229 v 0 c -0.0185,-1.096 0.483,-2.1734 0.483,-2.1734 -0.6501,1.0403 -0.966,1.9505 -0.966,1.9505 z" style="fill:#fbfdfd" inkscape:connector-curvature="0"/>
    <path id="_129426840" class="fil7" d="m 119.599,143.044 c 0.0188,0.0422 0.0444,0.0789 0.0712,0.1425 0.1348,-0.005 -0.0897,0.005 -0.1122,0.002 -0.3179,0.1854 -0.6197,-0.8161 -0.958,-1.0721 0.5384,0.0991 0.767,0.4134 0.999,0.9274 v 0 z" style="fill:#605d5c" inkscape:connector-curvature="0"/>
    </g></g></g></svg>